<svg version="1.2" xmlns="http://www.w3.org/2000/svg" viewBox="0 0 588 616" width="588" height="616">
	<title>image</title>
	<style>
		.s0 { fill: #ebeefb } 
		.s1 { fill: #fefbf6 } 
		.s2 { fill: none;stroke: #fdefde } 
		.s3 { fill: #d1e2ee } 
		.s4 { fill: #ffa47f } 
		.s5 { fill: #f27049 } 
		.s6 { fill: #ffffff } 
		.s7 { fill: #412014 } 
		.s8 { fill: #584441 } 
		.s9 { fill: #ffc17d } 
		.s10 { fill: #635dad } 
		.s11 { fill: #443e90 } 
		.s12 { opacity: .3;fill: #ffffff } 
		.s13 { fill: #ffdebe } 
		.s14 { fill: #fef2df } 
		.s15 { fill: #fef0dd } 
		.s16 { fill: #edd5d1 } 
		.s17 { fill: #005644 } 
		.s18 { fill: #208674 } 
		.s19 { fill: #ff765f } 
		.s20 { fill: #f1543b } 
		.s21 { fill: #ffa44a } 
		.s22 { fill: #9f4424 } 
		.s23 { fill: #c17b4c } 
	</style>
	<path id="Layer" fill-rule="evenodd" class="s0" d="m317 135c44.4 34.1 74.1 86.1 103.9 134c27.7 44.5 161.2 44.1 166.1 96.7c5 52.8-40.3 96.8-76.7 135.3c-32.9 34.8-75.4 53.9-119.2 72.3c-48.7 20.5-97.3 49.5-149 40.4c-55.7-9.7-112.6-39.9-138.6-90.7c-25.3-49.4 3.8-107.9 8.5-163.7c4.3-51.5-3-102.8 17.7-150.2c25.2-58 53.5-124.8 111.9-147c58.9-22.4 25.8 34.8 75.4 72.9z" />
	<path id="Layer" fill-rule="evenodd" class="s1" d="m379.9 75.4c44.5 34.2 36 104.1 65.7 152c27.7 44.5 95.5 62.7 100.4 115.3c5 52.8-40.3 96.8-76.7 135.3c-32.9 34.8-75.4 53.9-119.2 72.3c-48.7 20.5-97.3 49.5-149 40.4c-55.7-9.7-112.6-39.9-138.6-90.7c-25.3-49.4 3.8-107.9 8.5-163.7c4.3-51.5-3-102.8 17.7-150.2c25.3-58 53.5-124.8 111.9-147c58.9-22.4 129.7-1.8 179.3 36.3z" />
	<path id="Layer" class="s2" d="m342.9 49.8c48.4 35.5 41 105.8 74.1 154.9c30.8 45.6 103.8 65.6 110.4 118.8c6.7 53.4-40.8 96.6-78.8 134.5c-34.4 34.3-79.5 52.6-125.9 70.1c-51.7 19.4-103.1 47.4-158.6 37c-60-11.2-121.7-43-150.8-94.9c-28.3-50.5 1.5-108.7 5.1-164.9c3.3-51.8-5.8-103.8 15.2-151.1c25.7-57.8 54.3-124.5 116.3-145.4c62.5-21.2 138.8 1.3 193 41z" />
	<path id="Layer" class="s2" d="m350.5 63.6c47.1 35 39.3 105.2 71.2 153.8c29.7 45.2 100.9 64.6 106.9 117.7c6.1 53.1-40.6 96.6-78.1 134.7c-33.8 34.5-78 53.1-123.5 70.9c-50.7 19.8-101.1 48.1-155.2 38.2c-58.5-10.7-118.6-41.9-146.6-93.5c-27.2-50.1 2.3-108.4 6.3-164.5c3.7-51.7-4.8-103.4 16.1-150.7c25.5-57.9 54-124.6 114.7-146c61.3-21.6 135.7 0.2 188.2 39.4z" />
	<path id="Layer" class="s2" d="m354.5 80.4c46.2 34.8 38.2 104.9 69.5 153.3c29 45 99.1 64 104.8 116.9c5.7 53-40.6 96.6-77.7 134.9c-33.5 34.6-77.2 53.3-122.1 71.3c-50.1 20.1-99.9 48.6-153.2 39c-57.6-10.4-116.7-41.3-144.1-92.6c-26.6-49.9 2.9-108.3 7-164.3c3.9-51.6-4.2-103.2 16.6-150.6c25.5-57.9 53.9-124.6 113.9-146.3c60.5-21.8 133.7-0.4 185.3 38.4z" />
	<path id="Layer" class="s3" d="m158.9 341.9c1.4 0 44.8 5.5 22.4 12q-22.5 6.5-38.7-1.2q14.9-10.8 16.3-10.8z" />
	<path id="Layer" class="s4" d="m228.2 262.4c-0.8 1-1.9 1.8-3.2 2.1c-0.6 0.2-1.3 0-2 0.2c-2 0.5-3.1 1.7-4.2 3.3c-0.2 0.3-0.5 0.5-0.8 0.4c-1.6-0.7-3.1-1.4-4.6-2.2c-0.4-0.3-0.5-0.7-0.3-1.1q2.3-2.4 4.4-4.7c1.1-2.6 1.9-5.2 4.6-6c2.1-0.7 5.3-3 6.6-0.8c1.2 2.3 1 6.7-0.5 8.8z" />
	<path id="Layer" class="s5" d="m220.7 265.8l-1.4 1.5l-5-3.4l2-2.2q1.6 2.7 4.4 4.1z" />
	<path id="Layer" class="s6" d="m181.7 251.2q23.6 29.7 22.6 37.1c-1 7.3-8.9 13.4-13.1 10.6c-4.3-2.7-12-43.6-9.5-47.7z" />
	<path id="Layer" class="s6" d="m220.7 267.6q-17.2 28.3-23.9 31.3c-6.8 3-12.6-4-11.8-8.3c0.5-3.3 17.8-13.9 29.5-27.7q2.4 3.4 6.2 4.7z" />
	<path id="Layer" class="s3" d="m181.7 251.2c21.8 24.2 6.8 48.9 18.4 45.2q-5.3 5.8-8.9 2.5c-9.1-8.2-27.2-47-9.5-47.7z" />
	<path id="Layer" class="s6" d="m199.9 277q-2.7 0.3-6.3 5.2q2.2-5.7 4.4-8.1z" />
	<path id="Layer" class="s6" d="m177.1 248.4q14.3 4.3 15.8 29.4q1.5 25.3 1.6 73.9q-15.4 3.1-23 3c-7.6-0.3 13.1-67 5.6-106.3z" />
	<path id="Layer" class="s7" d="m154.5 401l16.1-16l8.8-6.6l-4.1 14.6q-4.7 4.5-18.8 10.3z" />
	<path id="Layer" class="s7" d="m187.9 325.8c-0.6 3.3-7.9 56.1-10.4 65.1c-0.8 2.4-4.9 4.1-6.9 5.6q-0.2 7.6-0.5 17.4h-4.1q-10.7-67.5-12.4-77.3q-1.6-9.8 0-27q2.1 0.2 4.3 0q12.2-0.4 30-3.9c0.7 3.9 0.9 14.7 0 20.1z" />
	<path id="Layer" class="s8" d="m170.6 396.5l1.7-65.8q3.7-3.9 5.2-6.3q-2.1 5-3.7 7.2q0.9 5.7-1.9 64.1z" />
	<path id="Layer" class="s8" d="m167 413.9h-1q-10.7-67.5-12.4-77.3q-1.6-9.8 0-27h11.8q-6.4 10.8-5.9 26.6c0.5 11.9 5.2 56.4 7.5 77.7z" />
	<path id="Layer" class="s5" d="m223 256.8l-2.8-0.2l4.2-2.6z" />
	<path id="Layer" class="s5" d="m223.7 262l-3.8-1.1l3.6-2.2z" />
	<path id="Layer" class="s4" d="m178.6 239q-0.2 0.6-0.4 1.2q-0.6 1.6-0.7 3.1q-0.4 1.5-0.4 2.8q-0.2 2.9 0.1 4.9q-8.1 4-16.9-1.5c0.4-1.1 0.7-2.5 0.9-3.8c0.6-2.8 0.7-5.6 0.7-6.4q0.1-0.1 0-0.2q0.1-0.1 0.1-0.1z" />
	<path id="Layer" class="s5" d="m178.6 239q-0.2 0.6-0.4 1.2c-0.5 1.4-0.7 2.3-0.7 3.1q-0.4 1.5-0.4 2.8c-3.8 1.7-8.2 2.3-11.4 1.7c-2-0.4-3.6-1.4-4.5-2.1c0.6-2.8 0.7-5.6 0.7-6.4q0.1-0.1 0-0.2q0.1-0.1 0.1-0.1z" />
	<path id="Layer" class="s9" d="m177.9 250.3c4.9 3.1 7 12.2 8.4 23.9q1.4 12.5 4.2 37.5q-6.3 7.1-38.9 5q1.1-13.7-3.3-61.5q4-3.1 11.5-7.7q10.7 7.6 18.1 2.8z" />
	<path id="Layer" class="s10" d="m166 413.2c1.2 1.1 4.6 0.4 4.5 0q4.7 0 9.5 3.4h-14.7l0.6-3.4z" />
	<path id="Layer" class="s11" d="m165.3 416.6h14.7v1.1h-14.7z" />
	<path id="Layer" class="s10" d="m155.3 400c-0.5 1.5 1.8 4.1 2.2 3.8q2.2 4.1 1.4 9.9l-7-12.7l3.4-1.1z" />
	<path id="Layer" class="s11" d="m151.9 401l7 12.7l-0.9 0.5l-7-12.7z" />
	<path id="Layer" class="s11" d="m161.9 230.8q4.4 10.5 1.2 10.5q-3.1 0.1-8.7-7.7z" />
	<path id="Layer" class="s4" d="m157.6 215.6c4.4-7.7 20.2-2.5 21.3-0.8c1 1.7 5.4 23.2 2.3 28.7c-2.2 3.8-14.5 1.7-17.7-1.2q-2.7-2.4-4.9-7.7q-5.6-11.2-1-19z" />
	<path id="Layer" class="s10" d="m181.2 216.1c-2 1.4-5.9 0-7.9-0.3c-4.7-0.6-8.1 0.3-12.3 1c3.3 6.6 3.6 15.4-1 17.2c-1 0.3-4.9 0.5-5.8-1.5c-0.8-1.7-2.2-3.8-3.9-11.7c-0.4-1.5 0.1-5.2 1.7-5.9c-0.8-9.5 13.7-12.6 23.3-11.8c6.8 0.7 8.8 11 5.9 13z" />
	<path id="Layer" class="s5" d="m178.1 231.7l0.3 0.4l-0.2 0.4c-0.3 0.4-0.6 0.6-1 0.7q-0.5 0.1-1 0.1c-0.6 0-1.1-0.3-1.7-0.5c0.6-0.3 1.2-0.3 1.7-0.4c0.5-0.2 0.8-0.4 0.9-0.6l0.1 0.8c-1.1-0.9-1.8-2.4-1.6-3.9c0.9 1.2 1.6 2.1 2.5 3z" />
	<path id="Layer" class="s6" d="m166.7 224.5c-0.1-1.1 3.2-2.1 5.3-1c0.8 0.4 0.1 3.1-2.3 3.3c-2 0.2-2.9-1.3-3-2.3z" />
	<path id="Layer" class="s7" d="m171.1 225c-0.1 0.9-0.8 1.5-1.7 1.5c-0.9-0.1-1.5-0.8-1.4-1.7c0.1-0.9 0.9-1.5 1.7-1.4c0.9 0.1 1.5 0.8 1.4 1.6z" />
	<path id="Layer" class="s6" d="m171.2 224c0 0.3-0.2 0.5-0.5 0.5c-0.3 0-0.6-0.3-0.6-0.6c0.1-0.3 0.4-0.4 0.7-0.4c0.2 0 0.4 0.2 0.4 0.5z" />
	<path id="Layer" class="s6" d="m175.1 224c-0.1-1.2 3-2.1 4.9-1.1c0.7 0.5 0 3.3-2.3 3.4c-1.8 0.2-2.6-1.3-2.6-2.3z" />
	<path id="Layer" class="s7" d="m179.2 224.6c0 0.8-0.8 1.4-1.6 1.3c-0.9-0.1-1.6-0.8-1.4-1.7c0.1-0.8 0.8-1.5 1.7-1.4c0.9 0.1 1.5 0.9 1.3 1.8z" />
	<path id="Layer" class="s6" d="m179.4 223.5c-0.1 0.3-0.3 0.6-0.6 0.5c-0.3 0-0.4-0.3-0.4-0.5c0-0.3 0.2-0.6 0.5-0.5c0.3 0 0.5 0.3 0.5 0.5z" />
	<path id="Layer" class="s11" d="m164.8 218.9c0.2-0.7 6.2-2.2 6.8-1.9c0.5 0.3 0.7 1.6 0.6 3c-0.1 0.4-0.4 0.6-0.7 0.5c-1.5-0.3-4.5 0.3-5.5 0.5c-0.3 0.1-0.5 0-0.7-0.3c-0.1-0.5-0.6-1.4-0.5-1.8z" />
	<path id="Layer" class="s11" d="m181.5 220.5c-0.1 0.2-0.4 0.3-0.6 0.3c-0.9-0.3-3.8-0.9-5.2-0.6c-0.4 0.1-0.6-0.2-0.6-0.5c-0.2-1.4 0-2.7 0.4-3c0.5-0.3 6.2 1.4 6.5 2.1c0.1 0.3-0.3 1.2-0.5 1.7z" />
	<path id="Layer" class="s11" d="m150.1 219.7q5.6 7.2 13.3 6.2q1.2 8.9-5.6 8.2q-6.7-0.6-7.7-14.4z" />
	<path id="Layer" class="s5" d="m175.2 237q0.7 0.1 1.4 0.1c0.4 0.1 0.9 0 1.4-0.1c-0.4 0.4-0.9 0.6-1.4 0.7c-0.5 0.1-1 0.1-1.5-0.1c-1-0.3-1.8-0.9-2.4-1.8c0.9 0.5 1.7 1 2.5 1.2z" />
	<path id="Layer" class="s5" d="m175.2 238.6c0.4 0 0.7 0.1 0.9 0.5c-0.4 0.1-0.7 0.1-1 0.1c-0.2-0.1-0.6-0.1-0.8-0.4c0.2-0.2 0.6-0.3 0.9-0.2z" />
	<path id="Layer" class="s12" d="m174.9 223.7c0-2.3 1.8-2.7 3.9-2.7c2.1 0 3.8 0.4 3.8 2.7c0 2.4-1.7 4.3-3.8 4.3c-2.2 0-3.9-1.9-3.9-4.3z" />
	<path id="Layer" fill-rule="evenodd" class="s7" d="m174.5 223.7c0-2.6 2.2-3 4.3-3c2.1 0 4.2 0.4 4.2 3c0 2.6-1.9 4.6-4.2 4.6c-2.3 0-4.3-2-4.3-4.6zm0.7 0c0 2.2 1.6 4 3.6 4c2 0 3.6-1.8 3.6-4c0-1.9-1.4-2.4-3.6-2.4c-2.2 0-3.6 0.5-3.6 2.4z" />
	<path id="Layer" class="s12" d="m164.4 223.7c0-2.3 2-2.7 4.4-2.7c2.3 0 4.3 0.4 4.3 2.7c0 2.4-2 4.3-4.4 4.3c-2.3 0-4.3-1.9-4.3-4.3z" />
	<path id="Layer" fill-rule="evenodd" class="s7" d="m164.2 223.7c0-2.6 2.3-3 4.6-3c2.2 0 4.6 0.4 4.6 3c0 2.6-2.1 4.6-4.7 4.6c-2.5 0-4.5-2-4.5-4.6zm0.6 0c0 2.2 1.8 4 3.9 4c2.3 0 4-1.8 4-4c0-1.7-1-2.4-3.9-2.4c-2.9 0-4 0.7-4 2.4z" />
	<path id="Layer" class="s7" d="m173 222.7c0.1 0 1.3-0.3 2.1-0.1l-0.1 0.6c-0.6-0.1-1.6 0.1-1.9 0.1z" />
	<path id="Layer" class="s7" d="m152.4 228.3c0.9-1 10.6-3.9 11.8-4.2l0.2 0.6c-4.2 1.2-10.9 3.4-11.6 4c-0.6 0.7 0.3 2.4 0.7 3l-0.6 0.3c-0.1-0.2-1.6-2.6-0.5-3.7z" />
	<path id="Layer" class="s4" d="m159.8 235.1c-4.2 2.5-7.8-2.1-7-5.2c0.3-1.8 4.4-1.2 5.7-0.1c1 0.8 2.8 4.4 1.3 5.3z" />
	<path id="Layer" class="s5" d="m156.1 232.1q-0.3 0.7 1.2 2.1c-0.9-0.2-4-1-3.3-3.4q0.3-1 3.3 0.3q-0.8 0.3-1.2 1z" />
	<path id="Layer" class="s6" d="m160.3 247.5q18.3 21.9 7.2 101.4q-15.6 0-24.9 3.8q11.4-38 8.6-64.2q-2.8-26.2-5.1-31.2q10.5-9.6 14.2-9.8z" />
	<path id="Layer" class="s4" d="m157.8 312.9q2.3 1.2 5.1 4.9l-5.2 4.4q-2-1.3-4-4.4q0.7-1.8 4.1-4.9z" />
	<path id="Layer" class="s5" d="m158.1 313.1l0.6 0.4q-1.1 4.3-3.9 5.8q-0.3-0.4-1.1-1.5z" />
	<path id="Layer" class="s6" d="m164.4 317.2q-1.3 4.3-6.5 10.4q-0.3-1.8-1.7-4.8q4.9-3.6 7-8.8q0.9 1.3 1.2 3.2z" />
	<path id="Layer" class="s3" d="m151.4 265.5q5.5 7.9 5.9 14.5c0.5 6.5-1.9 49-12.8 65.7q8.7-36.6 6.5-55.1q-2.3-18.4 0.4-25.1z" />
	<path id="Layer" class="s6" d="m154.4 278.9q-6.8 6.8-7.8 9.6q-0.9 2.8 12.7 24l-6.2 7.3q-23.8-20.4-23.8-29.8q0-13.7 16.8-32.7q8.6 9.4 8.3 21.6z" />
	<path id="Layer" fill-rule="evenodd" class="s10" d="m245.3 240.8c0.6 3.2-1.7 6.2-5 6.8c-3.2 0.4-6.2-1.8-6.7-5c-0.5-3.2 1.7-6.2 5-6.7c3.2-0.5 6.2 1.7 6.7 4.9zm-2.2 0.3c-0.3-1.9-2.1-3.3-4.2-3c-2 0.3-3.5 2.1-3.1 4.2c0.3 2 2.2 3.4 4.3 3c1.9-0.3 3.4-2.2 3-4.2z" />
	<path id="Layer" class="s10" d="m256.5 239.5q6.8 21.1 2.1 42.9q-12.9-4.2-35.2-0.3q0.9-13.4-1.3-37.5q16.5-5.4 34.4-5.1z" />
	<path id="Layer" class="s13" d="m253.5 243.6q5.6 17.1 1.8 34.8q-10.5-3.5-34-0.7q8.1-9.9 4.4-30q13.3-4.4 27.8-4.1z" />
	<path id="Layer" class="s6" d="m229.1 251c0.6-0.1 14-3.8 22.6-2.6l-0.2 1.3c-8.4-1.2-21.9 2.5-22 2.5z" />
	<path id="Layer" class="s6" d="m229.9 256c0.5-0.1 13.9-3.9 22.6-2.6l-0.2 1.3c-8.4-1.2-21.9 2.5-22 2.6z" />
	<path id="Layer" class="s6" d="m229.2 261.2c0.5-0.1 13.8-2.3 22.1-0.5l-0.3 1.2c-8.1-1.7-21.4 0.6-21.6 0.6z" />
	<path id="Layer" class="s6" d="m229.2 267.2c0.5-0.1 12.9-2.8 21.8-0.5l-0.3 1.3c-8.6-2.3-21.1 0.4-21.1 0.4z" />
	<path id="Layer" class="s6" d="m227.7 273.5l-0.2-1.2c0.6-0.1 15.5-2.4 24.4 0.1l-0.3 1.2c-8.7-2.4-23.7-0.1-23.9-0.1z" />
	<path id="Layer" class="s4" d="m229.3 259.4c-1.6 0.6-2.5-1.3-3.5-1.1c-0.5 0.2-2.9 2.2-3.5 2.3c-1.7 0.2-1.2-3.8-1.1-4c0.4-1 4.2-1.8 4.7-1.8c1.1 0 2.1 1.1 3 1.6c0.7 0.3 2 0.6 2.1 1.6c0.1 0.7-1 1.2-1.7 1.4z" />
	<path id="Layer" class="s8" d="m172.6 251.9q3.4-1 4.4-1q1 0 0.7 3.7q-1.9 0.9-3 0.9c-1.1 0-2.5-2.3-2.1-3.6z" />
	<path id="Layer" class="s6" d="m174.5 251.2q-2.7 3.1-3.4 5.5q-6-1.4-10.8-8.6q8.4 4.1 14.2 3.1z" />
	<path id="Layer" class="s6" d="m177.1 248.4q1.5 1.6 2.4 5.4q-1.1-1.6-5-2.6q1.8-0.2 2.6-2.8z" />
	<path id="Layer" class="s8" d="m177.7 254.6c5 6.2 6.4 25.3 6.1 27.2q-0.3 2-2.5 4.6q-3-2.2-3-4.2q0.2-7.6-3.6-26.7z" />
	<path id="Layer" class="s14" d="m142 422.1h-61v-114.9h61z" />
	<path id="Layer" class="s14" d="m269.5 422.1h-176.6v-114.9h176.6z" />
	<path id="Layer" class="s9" d="m253.7 422.1h-113.3v-100.6h113.3z" />
	<path id="Layer" class="s15" d="m253.7 341.1h-113.3v-4.3h113.3z" />
	<path id="Layer" class="s15" d="m253.7 355.8l-113.3-0.1v-4.3h113.3z" />
	<path id="Layer" class="s15" d="m253.7 370.4h-113.3v-4.3h113.3z" />
	<path id="Layer" class="s15" d="m253.7 385.1h-113.3v-4.4h113.3z" />
	<path id="Layer" class="s15" d="m253.7 399.7h-113.3v-4.3h113.3z" />
	<path id="Layer" class="s15" d="m253.7 414.4h-113.3v-4.3h113.3z" />
	<path id="Layer" class="s16" d="m142 422.1h-13.1v-114.9h13.1z" />
	<path id="Layer" class="s16" d="m279.1 422.1h-13.7v-114.9h13.7z" />
	<path id="Layer" class="s16" d="m279.1 326.4h-146.7v-19.2h146.7z" />
	<path id="Layer" class="s4" d="m356.9 303.4q0.1 0 0.1 0.1c2.1-0.1 4.5 1.5 4.7 3.8c0.1 1.5-1.1 2.5-2.4 3.1c-1.1 0.6-3 1.5-4.3 0.7c-0.3-0.3-0.4-0.9-0.1-1.3c-0.3 0-0.7-0.3-0.9-0.8c-0.1-0.4 0-0.7 0.2-1c-0.5-0.1-1-0.5-0.9-1.2q0-0.5 0.3-0.8c-0.4-0.1-0.7-0.5-0.7-1.2c0-1.7 2.9-1.4 4-1.4z" />
	<path id="Layer" class="s4" d="m360.6 304.6l4.7 0.7v4.4l-4.1-0.7z" />
	<path id="Layer" class="s10" d="m404.8 257.1q-6.3 41.1-9 41.3c-2.7 0.2-9.9-1.8-11.3-5.2c-1.5-3.6-1.8-11 1.8-20.8c1.5-4 0.6-9 0-14.6q-0.5-5.5 2.3-12.9z" />
	<path id="Layer" class="s11" d="m393.5 242c1.5 0.1 25.8 35.3 24.6 36.7q-1.3 1.4-26.4 2.5c-3.6-5.3-0.2-10.6-2.5-16.7q-1.9-4.8-0.5-20.3q3.2-2.3 4.8-2.2z" />
	<path id="Layer" class="s4" d="m454.4 301.7c1.1 1.7-0.1 3.9-1 4.6c-0.7 0.5-2.8-0.3-3.3-0.3c-1.1 0.3-2.9 0.9-3.9 1.1q-0.3 0.1-1.4-3.3q1-0.7 2-0.8c1-1.6 2.1-3.1 4.2-3.1c0.4 0 2.9 0.9 3.4 1.8z" />
	<path id="Layer" class="s4" d="m456.4 302.6c-1.6 0.8-3.8 0.4-5.4-0.4c-0.4-0.1-0.4-0.5-0.2-0.6q-0.2-0.1-0.6-0.1c-0.5-0.1-0.4-0.8 0.1-0.8c1 0.2 2 0.4 3 0.5c1.3 0.1 2.2-0.2 3.1-0.9c1-0.5 1.7-1.1 3-1c0.2 0 0.3 0.2 0.3 0.3c0.1 0.4-0.2 0.7-0.6 1c-0.8 0.7-1.7 1.5-2.7 2z" />
	<path id="Layer" class="s4" d="m457.4 305.2c-1.7 0.8-3.8 0.4-5.4-0.4c-0.4-0.1-0.4-0.4-0.2-0.6q-0.3 0-0.6-0.1c-0.6-0.1-0.5-0.8 0.1-0.7c0.9 0.2 1.9 0.4 3 0.4c1.2 0 2.1-0.2 3.1-0.8c1-0.7 1.7-1.2 3-1.1c0.1 0.1 0.3 0.2 0.3 0.3c0.1 0.5-0.2 0.7-0.6 0.9c-0.8 0.7-1.7 1.5-2.7 2.1z" />
	<path id="Layer" class="s4" d="m455.8 306.9c-1.8 0.6-4.7 0-6.1-1c-0.3-0.2 0.7-0.8 0.9-1q-0.3-0.1-0.6-0.2c-0.5-0.2-0.3-0.9 0.3-0.7c0.9 0.4 1.9 0.7 2.8 1c1.3 0.3 2.2 0.3 3.3-0.2c1.1-0.4 1.9-0.8 3.2-0.4c0.1 0 0.2 0.1 0.2 0.3c0 0.5-0.4 0.6-0.8 0.8c-1 0.5-2 1.2-3.2 1.4z" />
	<path id="Layer" class="s4" d="m457.6 303.8c-1.6 0.9-3.7 0.4-5.4-0.3c-0.3-0.2-0.4-0.5-0.1-0.6q-0.4-0.1-0.7-0.1c-0.5-0.1-0.5-0.9 0-0.8c1.1 0.2 2.1 0.3 3.1 0.4c1.3 0.1 2.1-0.2 3.2-0.8c0.9-0.6 1.7-1.1 2.8-1c0.3 0 0.4 0.1 0.5 0.3c0.1 0.4-0.4 0.6-0.6 0.9c-0.8 0.7-1.7 1.5-2.8 2z" />
	<path id="Layer" class="s4" d="m452.2 300.3c-1.2 0.5-1.7 1.9-3.3 1.5c-0.1 0-0.2-0.2-0.2-0.3c-0.3-0.1-0.5-0.3-0.2-0.6c0.7-0.9 1.6-2 2.8-2.5c1.1-0.6 2.7-0.3 4-0.3c0.2 0 0.4 0.3 0.3 0.5c-0.5 1.6-2.2 1.1-3.4 1.7z" />
	<path id="Layer" class="s5" d="m454.4 301.9q1.2 2.4-0.8 4.3q0.8-2 0.8-4.3z" />
	<path id="Layer" class="s5" d="m452.5 302.4q-0.3 0.6-1.9 1.2q1.9-0.9 1.7-2.4q0.6 0.6 0.2 1.2z" />
	<path id="Layer" class="s17" d="m398.2 274.7c3-1.5 2.7 17.8-11.1 38.6c-3.4 5.3-8.3-2.1-6.7-5.5c1.9-3.9 5-27 17.8-33.1z" />
	<path id="Layer" class="s17" d="m383.9 315.1q-3.1-0.4-20.6-5.6l-0.1-4.9q19.4 0.9 24.4 1.8c3.5 0.5 0.3 9.2-3.7 8.7z" />
	<path id="Layer" class="s18" d="m388.4 293.5l2.2 5.1l-1.3 13.4l-3.8 2.9q1.1-12.2 1.1-13.9q0-1.8-1.6-7.5z" />
	<path id="Layer" class="s4" d="m425.5 418.6l-1.2 2.5q-9.3-8.2-19.2-17.5q-1.8-1.6-3.6-3.3c-10.1-9.3-19.7-18.8-20.3-21.1c-0.5-1.5-0.6-4.3-0.5-7.8c0.2-3 0.5-6.7 0.8-10.5q1.5-14.4 4.3-31.5l27.8 2.4q-8.6 20.3-13.1 33.6c-1.8 5.4-2.8 9.6-2.4 10.8c0.5 1.1 2.8 4.9 5.9 9.8q8.1 12.7 21.5 32.6z" />
	<path id="Layer" class="s5" d="m405.1 404l-3.6-3.7q-1.4-19.9-2.1-21.9c-0.8-2-10.5-7.7-18.7-7c0.2-3 0.5-6.7 0.8-10.5l19 4.5c-1.8 5.4-2.8 9.6-2.4 10.8c0.5 1.1 2.8 4.9 5.9 9.8l1.1 17.6z" />
	<path id="Layer" class="s5" d="m412.7 399.5l3.4 5l-1.7 7.8l-3.7-3.5z" />
	<path id="Layer" class="s4" d="m410.3 321.8q10.6 19.8 9.2 38.5q-1.3 18.7-8.8 70.6h-3.1q-12.2-80.3-9.7-89.7q2.4-9.5 3.2-20.9z" />
	<path id="Layer" class="s5" d="m418.5 370.7l-0.5 4.6q-7.2 1-18.1-1.4l-0.5-5.3z" />
	<path id="Layer" class="s9" d="m411.3 309.6q9.9 21.9 14.9 61.5q-26.7 4.3-50.4-5.9q2.5-22.9 11.9-55q8.4 2.3 23.6-0.6z" />
	<path id="Layer" class="s19" d="m410.8 430.5l0.5 3.5h-13.4q4.4-3.5 8.6-3.5h1.1c0.9 0.6 2.1 0.6 3.1 0z" />
	<path id="Layer" class="s20" d="m411.3 435h-13.4v-1h13.4z" />
	<path id="Layer" class="s19" d="m424 416.4l3.1 1.9l-8.7 10.1q0.1-5.5 2.9-8.7l0.6-0.8c1.1-0.4 1.9-1.3 2.1-2.3z" />
	<path id="Layer" class="s20" d="m427.8 419l-8.6 10l-0.8-0.6l8.7-10.1z" />
	<path id="Layer" class="s21" d="m411.3 309.6q8.7 22.8 14.9 61.5l-13.4 1.1q-2.7-28.2-8.4-30.5c-5.6-2.4-5.4-4.9-4.8-8.4q0.7-3.4 2-22.1z" />
	<path id="Layer" class="s17" d="m387.4 296.6q-4.3-3.4-2.8-7.4q1.5-4 12.4-14.2q9.1-0.9 12.6-3.2q2.1 1 4.2 2.5q0.5 0.2 0.9 0.6c1.5 1.1 2.9 2.4 3.3 3.5q0 0.2 0.1 0.3c0.2 1-0.2 3.2-0.9 5.7q0 0.3-0.1 0.5c-0.4 1.5-0.9 3.4-1.5 5.2q-0.1 0.3-0.2 0.7q-0.4 1.2-0.8 2.4q0 0-0.1 0c-1 3.3-2 6.3-2.6 8.2q-1.8 5.5-0.6 8.2q-1.8 0.3-4.3 0.8c-5.9 0.9-16.3 2.2-19.3-0.2c0.3-3.4 0.4-10.7-0.3-13.6z" />
	<path id="Layer" class="s4" d="m408.8 266.3q0 0 0 0.1q0 0 0 0.1c0 0.7-0.2 3-0.1 5.4c0.1 1.2 0.1 2.4 0.3 3.3q-13.8 4.4-10.7-0.2c0.3-2.4 0.1-6.2-0.3-9.8z" />
	<path id="Layer" class="s5" d="m409.1 262.8q-0.3 2.6-0.3 5c-1.8 2.2-8 5.8-10.3 4.1c0-0.9 0-2.2-0.1-3.1c0.1-0.6 0-1.5-0.2-2.6q-0.1-0.5-0.2-1z" />
	<path id="Layer" class="s18" d="m387.4 296.6c4.7 0.3 12.6 1.9 16.8-0.4q-5 4.6-16.3 4.8q-0.1-2.7-0.5-4.4z" />
	<path id="Layer" class="s18" d="m407 310.4c4.2-9.7 2-22.1 5.2-29.6c4.8 2.5 2.5 10.9 3.2 10c-1.1 3.2-2.9 8.7-3.5 10.6q-1.8 5.5-0.6 8.2q-1.8 0.3-4.3 0.8z" />
	<path id="Layer" class="s17" d="m425.9 286q4.7 15.6 5.8 19.2c1.1 3.6-5.5 16-8 10.2c-10.1-22.7-11.1-40.4-7.9-41.3q6-1.7 10.1 11.9z" />
	<path id="Layer" class="s18" d="m432.1 306.5q-4.6 1.1-4.7 3.1q0-14.1 0.2-17.9z" />
	<path id="Layer" class="s17" d="m426.8 308q2.6-2.3 20-5.4l0.5 4.9q-14.6 7.8-17.6 8.7c-3.9 1.2-5.5 0.8-6-0.6c-1.2-3.1 0.5-5.2 3.1-7.6z" />
	<path id="Layer" class="s13" d="m398.3 275q-0.7 1.8 0.3 1.9l-2.5 1.7q0.2-3.2 0.9-3.6q0.7-0.4 1.3 0z" />
	<path id="Layer" class="s13" d="m410.2 274.6q-4 3.7-11.4 5l-0.2-2.7q3.7 0.2 11.6-2.3z" />
	<path id="Layer" class="s10" d="m397.8 235.9q20.5-8.1 24.1 16.2c0.8 5.9-2.7 15.2 0.7 21.4c5.3 9.5 2.8 18.2 0.3 20.8c-2.5 2.7-11.8 4.2-16.5 1.5c-4.6-2.7-1-19.8 1.3-22.9q2.4-3.1 0.5-13l0.5-7.1z" />
	<path id="Layer" class="s4" d="m410.3 247.5q0.3 12.3-1 15.6c-1.1 3.3-7.4 8-10.6 8.2c-3.3 0.1-8.1-7.2-9.1-9.8c-0.9-2.6-0.9-11.2-0.8-13.2c0.2-1.9 1.6-7.5 2.4-8.4c0.8-0.9 16.2-0.3 19.1 7.6z" />
	<path id="Layer" class="s5" d="m396.1 255.8c0.2 0.7 0.3 1.5 0.2 2.3c0 0.8-0.2 1.6-0.6 2.3v-0.6c0.1 0.2 0.4 0.4 0.9 0.5c0.4 0.2 1.1 0.2 1.6 0.4c-0.5 0.3-1 0.5-1.7 0.6q-0.4 0.1-1-0.1c-0.3-0.2-0.7-0.4-0.9-0.7l-0.1-0.4v-0.2c0.7-1.3 0.9-2.7 1.6-4.1z" />
	<path id="Layer" class="s6" d="m401.5 253.4c2.5 0.2 3.2 2.9 2.3 3.4c-2 1.1-5.3 0.2-5.2-1c0-1 0.9-2.5 2.9-2.4z" />
	<path id="Layer" class="s7" d="m401.6 257c-0.9 0-1.6-0.7-1.7-1.5c-0.1-0.8 0.5-1.6 1.4-1.6c0.8-0.1 1.6 0.5 1.7 1.3c0.1 0.9-0.5 1.7-1.4 1.8z" />
	<path id="Layer" class="s6" d="m400.3 254.9c-0.2 0-0.5-0.2-0.5-0.4c-0.1-0.4 0.2-0.5 0.4-0.6c0.3 0 0.6 0.1 0.6 0.5c0.1 0.3-0.2 0.5-0.5 0.5z" />
	<path id="Layer" class="s6" d="m392.6 253.2c2.2 0 3.2 2.7 2.5 3.2c-1.7 1.3-4.9 0.6-4.9-0.6c-0.1-0.9 0.5-2.5 2.4-2.6z" />
	<path id="Layer" class="s7" d="m393 256.8c-0.9 0.2-1.7-0.4-1.8-1.3c-0.2-0.8 0.3-1.6 1.2-1.8c0.8-0.2 1.6 0.4 1.8 1.2c0.2 0.9-0.4 1.7-1.2 1.9z" />
	<path id="Layer" class="s6" d="m391.5 254.9c-0.3 0.1-0.6-0.1-0.6-0.3c-0.1-0.4 0.1-0.6 0.3-0.7c0.3 0 0.7 0.1 0.7 0.4c0.1 0.3-0.1 0.5-0.4 0.6z" />
	<path id="Layer" class="s11" d="m405.8 251.9c-3.9-1.5-6.4-0.7-6.6-1.1c-0.4-0.6-0.5-1.7 0.2-1.8c2.5-0.5 6.6 3 6.4 2.9z" />
	<path id="Layer" class="s11" d="m394.1 249.3c0.5 0.1 0.4 1.3 0.1 1.7c-0.3 0.6-2.5-0.3-6.4 1.1c-0.2 0.1 3.9-3.4 6.3-2.8z" />
	<path id="Layer" class="s7" d="m394.8 254.4c-0.4-0.4-0.9-0.7-1.3-0.9c-0.6-0.1-1.1-0.1-1.5 0q-0.8 0.2-1.4 0.9c-0.3 0.3-0.5 0.9-0.4 1.4c-0.2-0.5 0-1.1 0.2-1.6c0.3-0.4 0.8-0.9 1.5-1c0.5-0.1 1.1-0.1 1.7 0.1c0.5 0.2 0.9 0.7 1.2 1.1z" />
	<path id="Layer" class="s7" d="m399.1 254.5c0.2-0.5 0.7-0.9 1.2-1.1c0.7-0.1 1.2-0.2 1.8-0.1c0.6 0.2 1.1 0.6 1.4 1c0.4 0.4 0.7 1 0.7 1.5c-0.1-0.5-0.5-1-0.8-1.3q-0.6-0.7-1.4-0.8q-0.8-0.1-1.6 0c-0.5 0.2-1 0.3-1.3 0.8z" />
	<path id="Layer" class="s10" d="m383.9 244.5c-2.9-3.6 3.1-11.5 8-8.6q12.3-3.1 18.3-0.3c1.9 1 3.8 2.5 5.4 5q0 0.1 0 0.1q3.6 5.9-3.4 14.1q-2.4-0.1-3.5 0.9q-1.2-4.3-0.4-9.1q-20.3 2.8-24.4-2.1z" />
	<path id="Layer" class="s4" d="m408.5 255c1-0.8 4.1-0.9 4.9 0.8c0.9 2.1-2.8 6.7-5.2 4.1c-1.1-1.2-0.5-4.2 0.3-4.9z" />
	<path id="Layer" class="s5" d="m409.7 256.2q2.2-1.1 2.3 0.1c0.1 1.7-1.5 2.8-2.1 2.9q0.7-0.8 0.5-1.7q-0.2-0.9-0.7-1.3z" />
	<path id="Layer" class="s7" d="m397.9 267.3q-1.5 0.1-1.7-3.2q2 0.5 4.2-1.3c-0.1 1.6-1 4.4-2.5 4.5z" />
	<path id="Layer" class="s6" d="m400.4 262.8q0 0.5-0.2 1.2c-0.9 1-3.3 1.3-3.5 1.2q-0.3-0.2-0.5-1.1q2 0.4 4.2-1.3z" />
	<path id="Layer" class="s21" d="m356 417.5c-1.2 2-2.5 4-3.9 6.1c-0.9 1.1-1.8 2.2-3.2 2.8c-2 0.8-4.3 0.6-6.4 0.5q-3.6-0.1-7.4-0.2q-7.7-0.1-15.6-0.2c-5.1-0.2-10.3-0.1-15.5-0.6c-4.8-0.6-9-2.2-13.5-3.8c-2.5-1-5-1.4-7.8-1.7c-1.6-0.2-3.3-0.5-4.6-1.5c-2.5-1.7-2.7-4.6-0.7-6.7c1.3-1.4 3.2-2.1 4.9-2.6c2.4-0.6 4.8-1.2 7.2-1.8q0.1 0 0.2 0c9.3-2 18.1-5 27-8.6c4-1.7 8.7-0.7 13-0.4q7.2 0.4 14.4 0.8c6.6 1.1 8.1 3.8 10.8 6.8c1.4 1.5 2.5 3.4 2.8 5.5c0.3 2.1-0.5 3.8-1.7 5.6z" />
	<path id="Layer" class="s21" d="m283.7 417.1c-1 1.3-2.1 2.4-3.1 3.4c-2.5 2.3-5.1 4.5-7.6 6.6c-2.2 1.8-4.5 3-7.3 3.5c-2.8 0.6-5.7 0.6-8.7 0.6c-1.7 0-4.3 0.4-5.5-1.1c-1.2-1.4 0-3.2 1.4-3.9c2.7-1.4 6-1.1 8.8-2c3.3-1 5.7-3.5 8.1-5.8q3.5-3.5 7.1-7c0-0.2 0.2-0.5 0.4-0.5c1.6 0.5 3 1.1 4.4 1.8c0.8 0.4 2.6 1.2 3 2.1c0.2 0.9-0.6 1.8-1 2.3z" />
	<path id="Layer" class="s9" d="m312.7 420.9c-1.3 2.7-3.4 4.8-5.6 6.7c-2.3 2.1-4.4 3.8-7.5 4.6c-2.5 0.6-14 2.3-9.9-3.4c0.7-1 1.5-1.8 2.4-2.3c1.4-0.9 2.9-1 4.2-1.8c1.6-0.9 2.6-2.9 3.4-4.5c0.9-1.5 1.5-3.2 2.1-4.8c-0.2-0.2 0-0.8 0.3-0.6c1.9 0.7 7.3-7.7 9.2-7.7c1.3-0.1 6.6 2 7.8 2.6c1.8 1-5.9 9.9-6.4 11.2z" />
	<path id="Layer" class="s9" d="m353.5 426.2c-1.2 4.5-8.1 3.5-11.7 3.5c-3.4 0-6.2 0.1-9.3 1.6c-1.7 0.9-3.6 1.5-5.5 0.7c-1.6-0.8-2.7-2.5-2.4-4.3c0.4-1.8 2-2.9 3.8-3.2c2.7-0.5 5.6 0 8.3-0.6c3-0.6 5.8-1.8 8.3-3.5c0-0.1 0.1-0.2 0.3-0.2c3.7-0.2 9.7 0.9 8.2 6z" />
	<path id="Layer" class="s9" d="m381.1 408c-1.7 2.7-4.1 5.8-7.5 5.3c0.5 0.6 1.1 1.1 1.9 1.4c0.3 0.3 0.1 0.7-0.2 0.7c-3.8 0-7.4-0.9-10.7-2.7q0.2 0.6 0.1 1.2c0 0.3-0.2 0.5-0.5 0.4c-8.4-3.1-16-7.7-22.7-13.5q-0.2 0-0.4 0c-0.5 0.1-0.5-0.6 0-0.7c6.5-0.9 12.6 1.7 18.8 3.4c6.1 1.8 13.3 2.7 18.6-1.7c0.2-0.2 0.4-0.2 0.5 0c1.3 1.8 1.5 4 0.6 6q0.6-0.2 1-0.3c0.3-0.1 0.7 0.3 0.5 0.5z" />
	<path id="Layer" class="s21" d="m375.5 436.8c-1.5 0.2-2.8-0.6-3.5-1.8c-0.8-1.4-0.3-2.1 0.1-3.3c0.9-2.9-4-4.8-6.1-5.2c-2.7-0.6-5.4-0.4-8.1-0.5c-4.7-0.2-9.3-1.1-13.3-3.6c-3.4-2.1-6.2-5.1-8.5-8.4c-0.2 0.2-0.6 0.1-0.6-0.2q0-0.4 0-0.7q0 0 0 0c-0.1-0.1-0.1-0.2 0-0.4c-0.2-2.6-0.5-5.5 0.6-7.8c1.1-2.1 2.7-4 4.8-5.2c0.2-0.2 1-0.2 1-0.1c4 0.3 8.1 0.7 11.5 2.8c3.6 2.3 5.9 5.8 8.4 9.1c3.1 3.9 6.7 6.9 11 9.4c3.3 1.9 7 4 7.6 8.1c0.7 3.2-1.2 7.5-4.9 7.8z" />
	<path id="Layer" fill-rule="evenodd" class="s11" d="m360.6 309c0 4.6-2.4 8.6-6.3 11c-0.1 0-0.1 0-0.2 0q-0.1 0.1-0.1 0.2q0 0.1 0 0.1q0 0-0.1 0q0.1 0.1 0.1 0.3c4.6 8 8.7 17.2 10.1 26.3c1.2 7.4-1.5 14.4-5.5 20.5c-2.1 3.5-4.6 7-7.8 9.6c-3.2 2.8-13.3 9.6-17.2 11.1c-3.5 1.4-15.3 6.3-19.7 5.6c-0.8-0.2-0.8-1.4 0.1-1.3c3.9 0.7 15.5-4.1 19.5-5.7c3.8-1.5 13.9-8.3 16.9-11c2.8-2.6 5.1-5.8 7.1-9c4.6-7 6.8-14.2 4.8-22.4c-2-8.1-5.3-15.9-9.4-23.1q-0.1-0.2 0-0.5q0 0-0.1 0q0-0.1 0-0.1q-0.1 0-0.1 0c-4.9-1.3-6.7-6.9-6.8-11.5c-0.1-3.9 4.4-7.2 8.2-7.5c4.3-0.3 6.4 3.7 6.5 7.4zm-6.7-4.7c-1.3 0.2-2.6 1-3.6 1.7c-1.7 1.3-1.9 2.5-1.6 4.5c0.4 2.9 1.2 6.2 4.2 7.5q0.1-0.2 0.3-0.3c2.2-1.4 3.8-3.5 4.4-6.1c0.7-2.6 0.4-8-3.7-7.3z" />
	<path id="Layer" class="s6" d="m293.1 416.4c-15.7 0-28.4-12.6-28.4-28.2c0-15.5 12.7-28.1 28.4-28.1c15.8 0 28.6 12.6 28.6 28.1c0 15.6-12.8 28.2-28.6 28.2z" />
	<path id="Layer" class="s3" d="m293.1 408.2c-11 0-20.1-8.9-20.1-20c0-11 9.1-19.9 20.1-19.9c11.2 0 20.2 8.9 20.2 19.9c0 11.1-9 20-20.2 20z" />
	<path id="Layer" class="s9" d="m306.1 399.1c-1.9 2.3-4.7 3.5-7.4 4.3c-3.1 0.8-6.4 1.5-9.4 0.7c-2.6-0.8-4.7-2.5-6.3-4.6c-4-5.2-3.7-12-2.5-18.1c-0.2-0.1-0.3-0.3-0.1-0.5c2.2-3 5.2-4 8.9-4.5c3.5-0.6 8.1-1 11.5 0.3c6.5 2.5 6.2 8.7 6.9 13.8c0.3 3 0.4 6-1.6 8.6z" />
	<path id="Layer" class="s22" d="m298 386.7c0-0.8 0.7-1.5 1.6-1.5c0.8 0 1.5 0.7 1.5 1.5c0 0.8-0.7 1.5-1.5 1.5c-0.9 0-1.6-0.7-1.6-1.5z" />
	<path id="Layer" class="s22" d="m286.2 386.7c0-0.8 0.6-1.5 1.5-1.5c0.8 0 1.5 0.7 1.5 1.5c0 0.8-0.7 1.5-1.5 1.5c-0.9 0-1.5-0.7-1.5-1.5z" />
	<path id="Layer" class="s19" d="m297.2 401.8c-0.1 1.5 0.1 3.6-1.1 4.7c-0.9 0.7-2.1 0.7-2.8-0.1c-1.3-1.5-0.8-4.6-0.7-6.4c0-0.3 0.2-0.4 0.4-0.4c0.4-0.2 0.8-0.6 1.1-1c0.2-0.1 0.5-0.1 0.5 0c0.7 0.6 1.3 0.7 1.9 0.9q0.3 0.2 0.5 0.4c0.4 0.5 0.2 1.3 0.2 1.9z" />
	<path id="Layer" class="s23" d="m300.4 398c-0.9 1.4-3.1 2.3-4.7 1.7c-0.6-0.2-1.1-0.6-1.3-1.1c-0.3 0.8-0.8 1.4-1.8 1.7c-1.6 0.5-4.3 0.2-4.6-1.7c-0.1-0.6 0.6-0.7 0.7-0.3c0.3 1.8 3.4 1.8 4.4 0.9c0.6-0.5 0.7-1.2 0.8-2c-0.1-0.7-0.1-1.4-0.1-2.2q0 0 0-0.1c0-0.5 0.8-0.5 0.8 0q0 0.1 0 0.1q0 0 0 0.1c0 0.7 0 1.3 0 2c0.1 0.7 0.4 1.4 1.1 1.8c1.3 0.7 3.3-0.2 4.1-1.2c0.3-0.4 0.9 0 0.6 0.3z" />
	<path id="Layer" class="s22" d="m294.3 395.1c-0.1 0.2-0.4 0.3-0.5 0.2c-0.9-0.4-2.9-1.5-2.7-2.8c0.2-1.2 1.9-1.3 2.9-1.3c0.9 0 3.1 0 2.9 1.4c-0.1 1.1-1.6 2.1-2.6 2.5z" />
	<path id="Layer" class="s21" d="m282.6 408.1c-0.9 1.6-2.7 1-4 0.3c-4.8-2.4-6-8.1-5.6-12.8c0.2-2.8 0.5-5.6 2.2-7.9c1.6-2.3 3.7-4 4.6-6.8q0.1-0.2 0.2-0.2c0.2-0.4 0.5-0.6 1-0.6c0.2-0.1 0.4 0.2 0.4 0.4c0 3.4-0.3 7.1 0.2 10.6c0.6 3 1.8 5.9 2.1 9c0.2 2.5 0.2 5.7-1.1 8z" />
	<path id="Layer" class="s21" d="m302.6 400.1c0.3-3.1 1.5-6 2-9c0.6-3.5 0.3-7.2 0.2-10.6c0-0.2 0.2-0.5 0.5-0.4c0.4 0 0.7 0.2 0.9 0.6q0.1 0 0.2 0.2c0.9 2.8 3.1 4.5 4.7 6.8c1.6 2.3 2 5.1 2.2 7.9c0.3 4.7-0.8 10.4-5.6 12.8c-1.4 0.7-3.2 1.3-4-0.3c-1.3-2.3-1.4-5.5-1.1-8z" />
	<path id="Layer" class="s5" d="m358.9 305.1q0.3 0.3 0.4 1.6q0.4 0.4-0.1 1.6q0.3 0.7 0.1 1.3q-0.3 0.5-2.5 1.4q0.9-0.5 1.5-1.2q0.7-0.6 0.3-1.6q0.4-0.7-0.1-1.5q0.5-0.7-0.4-1.2q0.6-0.9-0.2-1.7q1.1 0.2 1 1.3z" />
	<path id="Layer" class="s4" d="m359.1 302.2c1.1 0.6 4.2 3.5 4.2 3.5c0.4 0.4-1.1 0.3-1.9 0.4c-0.9 0-2 0-2.5-0.6c-0.4-0.3-0.3-1.2-0.7-1.5c-0.5-0.3-1.3-0.1-1.9 0.1c-1 0.3-2-1-1.1-1.4c1.1-0.5 2.9-1.1 3.9-0.5z" />
	<path id="Layer" class="s4" d="m355.4 309.3q0.2-0.3 0.3-0.3q-0.3-0.1-0.5-0.1c-0.5-0.1-1.1-0.8-0.9-1.2q0-0.1 0.1-0.2q0 0-0.1 0c-0.6 0-1.1-0.8-1-1.3c-0.5-0.2-0.9-0.9-0.8-1.3c0.2-0.6 0.8-0.8 1.5-1q1.2-0.2 2.5-0.5c0.7-0.1 1.4 0.6 1.5 1.1q0 0.2 0 0.3c0.2-0.1 0.5-0.2 0.8-0.2c0.7-0.1 1.4 0.7 1.5 1.2c0 0.2 0 0.4-0.2 0.6c0.5 0.1 1 0.6 1.1 1.1c0.1 0.1 0 0.4-0.2 0.6c-0.2 0.2-0.5 0.2-1 0.4q0.3 0.3 0.3 0.5c0.1 0.3 0.1 0.5-0.2 0.7c-1 0.8-2.3 1-3.8 0.8c-0.6 0-1-0.7-0.9-1.2z" />
	<path id="Layer" class="s5" d="m358 304.8q-2.8 0.8-3.8 1q3.5-1.1 3.8-1.3z" />
	<path id="Layer" class="s5" d="m360.5 306.5q-0.6 0.3-3.8 0.7q1.2-0.2 3.4-0.8z" />
</svg>