<svg version="1.2" xmlns="http://www.w3.org/2000/svg" viewBox="0 0 1400 980" width="1400" height="980">
	<title>vector-illustration-dog-wash-ai</title>
	<style>
		.s0 { opacity: .2;fill: #7c58e3 } 
		.s1 { opacity: .2;fill: #fefbf6 } 
		.s2 { fill: #ffffff } 
		.s3 { fill: #362017 } 
		.s4 { fill: #58ced3 } 
		.s5 { fill: #fffada } 
		.s6 { fill: #da6834 } 
	</style>
	<g id="Layer 1">
		<g id="&lt;Group&gt;">
			<g id="&lt;Group&gt;">
			</g>
			<path id="Layer" class="s0" d="m-1.7 4.5l1399.9-3.1l2.3 1014l-1399.9 3.1z" />
			<path id="Layer" fill-rule="evenodd" class="s1" d="m-2967.8-2124.6h53.7c9.9 16.3 15.9 34.8 15.9 55c0 44.6-28.3 83-69.7 100.5zm279 0.3l117.7 0.1c-0.7 29.3-26.9 52.7-59.1 52.6c-31.8 0-57.9-23.4-58.6-52.7zm343 0.3l209 0.3c9.9 16.2 15.9 34.8 15.8 55c0 61.1-53.8 110.9-120.3 110.8c-66.8-0.1-120.5-50.2-120.5-111.1c0.1-20.2 5.7-38.7 16-55zm434.2 0.5l117.8 0.1c-0.8 29.3-26.9 52.7-59.1 52.7c-31.8-0.1-58-23.5-58.7-52.8zm343 0.4l209.4 0.2c9.8 16.3 15.8 34.8 15.8 55c0 61.2-53.8 110.9-120.3 110.8c-66.8-0.1-120.5-50.2-120.5-111.1c-0.3-20.1 5.4-38.7 15.6-54.9zm434.3 0.4l117.7 0.1c-0.7 29.3-26.9 52.7-59.1 52.7c-31.8 0-57.6-23.5-58.6-52.8zm343 0.4l209.3 0.2c9.9 16.3 15.9 34.8 15.9 55c-0.1 61.2-53.9 110.9-120.3 110.8c-67.2 0-120.9-49.9-120.9-111c0-20.2 6-38.8 16-55zm434.2 0.4l117.7 0.2c-0.7 29.3-26.9 52.7-59.1 52.6c-31.8 0-57.6-23.5-58.6-52.8zm343 0.4l209.3 0.2c9.9 16.3 15.9 34.9 15.9 55c-0.1 61.2-53.8 110.9-120.3 110.9c-66.8-0.1-120.6-50.3-120.5-111.1c-0.4-20.2 5.7-38.7 15.6-55zm434.2 0.5l117.8 0.1c-0.8 29.3-26.9 52.7-59.1 52.6c-32.2 0-57.6-23.4-58.7-52.7zm343 0.3l209.4 0.3c9.8 16.2 15.8 34.8 15.8 55c0 61.1-53.8 110.8-120.3 110.8c-66.8-0.1-120.5-50.3-120.5-111.1c-0.3-20.2 5.7-38.7 15.6-55zm434.2 0.5l117.8 0.1c-0.7 29.3-26.9 52.7-59.1 52.7c-32.2-0.1-57.6-23.5-58.7-52.8zm343 0.4l209.4 0.2c9.9 16.3 15.9 34.8 15.9 55c-0.1 61.1-53.9 110.9-120.3 110.8c-66.9-0.1-120.6-50.2-120.6-111.1c-0.3-20.1 5.7-38.7 15.6-54.9zm434.6 0.4h7.8v26.1c-4.6-7.5-7.4-16.3-7.8-26.1zm7.7 89.5l-0.1 201.1c-41-17.6-69.3-56.1-69.2-100.3c0-44.6 28.3-83 69.3-100.8zm-0.2 302.3v54.9c-4.9-8.1-7.8-17.5-7.8-27.6c0-10.1 2.9-19.5 7.8-27.3zm0 118.1l-0.2 201c-41-17.6-69.3-55.7-69.2-100.3c0-44.5 28.3-82.9 69.4-100.7zm-0.3 302.2v55c-4.9-8.1-7.8-17.2-7.8-27.3c0-10.4 2.9-19.6 7.8-27.7zm0 118.8l-0.2 201c-41-17.6-69.3-56-69.2-100.6c0-44.9 28.3-83.2 69.4-100.4zm-0.3 301.6v55.3c-4.9-8.5-7.8-17.6-7.8-27.7c0-10.1 2.9-19.5 7.8-27.6zm0 118.7l-0.2 201.1c-41-17.6-69.3-56-69.2-100.6c0-44.6 28.3-82.9 69.4-100.5zm-0.3 301.6v55.4c-4.9-8.2-7.8-17.6-7.8-27.7c0-10.1 2.9-19.5 7.8-27.7zm0 118.8l-0.2 201.1c-41-17.6-69.3-56.1-69.2-100.3c0-44.6 28.3-83.3 69.4-100.8zm-0.3 301.9v55c-4.9-8.1-7.8-17.6-7.8-27.6c0.1-9.8 2.9-19.2 7.8-27.4zm0 118.5l-0.2 201c-41-17.6-69.3-55.7-69.2-100.3c0-44.5 28.3-82.9 69.4-100.7zm-0.3 302.2v55c-4.9-8.1-7.8-17.2-7.8-27.3c0.1-10.4 2.9-19.9 7.8-27.7zm0 118.8l-0.2 201c-41-17.6-69.2-56-69.2-100.6c0-44.9 28.3-83.2 69.4-100.4zm-0.3 301.6v55.3c-4.9-8.5-7.8-17.6-7.8-27.7c0.1-10.1 2.9-19.5 7.8-27.6zm0 118.7l-0.1 155.2h-53.4c-10.6-16.3-15.9-34.9-15.9-55c0-44.3 28.3-82.6 69.4-100.2zm-278.8 154.9l-118.1-0.1c1.4-29.3 27.3-52.7 59.4-52.6c31.5 0 57.7 23.5 58.7 52.7zm-343.3-0.3l-209-0.2c-10.6-16.3-15.9-34.9-15.9-55.1c0-61.1 53.8-110.5 120.3-110.4c66.5 0 120.2 49.5 120.2 110.7c0.3 20.2-5 38.7-15.6 55zm-433.9-0.5l-118.1-0.1c1.4-29.3 27.2-52.7 59.4-52.7c31.5 0.1 57.6 23.5 58.7 52.8zm-343.4-0.4l-209-0.2c-10.6-16.3-15.8-34.8-15.8-55c0-61.1 53.8-110.5 120.3-110.5c66.5 0.1 120.2 49.6 120.1 110.8c0.4 20.2-5 38.7-15.6 54.9zm-433.9-0.4l-118.1-0.1c1.5-29.3 27.3-52.7 59.5-52.7c31.5 0.1 57.3 23.5 58.6 52.8zm-343.3-0.4l-209-0.2c-9.9-16.3-15.9-34.8-15.9-55c0.1-61.2 53.9-110.6 120.3-110.5c66.5 0.1 120.2 49.6 120.2 110.8c0.3 20.1-5 38.7-15.6 54.9zm-433.9-0.4l-118.1-0.2c1.4-29.2 27.3-52.6 59.5-52.6c31.4 0 57.2 23.5 58.6 52.8zm-343.3-0.4l-209-0.2c-9.9-16.3-15.9-34.8-15.9-55c0-61.2 53.8-110.6 120.3-110.5c66.5 0.1 120.2 49.6 120.2 110.7c0.3 20.2-5 38.7-15.6 55zm-433.9-0.5l-118.1-0.1c1.4-29.3 27.2-52.7 59.4-52.6c31.5 0 57.3 23.5 58.7 52.7zm-343.4-0.3l-209-0.2c-9.8-16.3-15.8-34.9-15.8-55c0-61.2 53.8-110.6 120.3-110.5c66.5 0 120.2 49.5 120.1 110.7c0.4 20.2-5.3 38.7-15.6 55zm-433.8-0.5l-118.2-0.1c1.5-29.3 27.3-52.7 59.5-52.6c31.5 0 57.3 23.4 58.7 52.7zm-343.4-0.3l-209-0.3c-9.9-16.2-15.9-34.8-15.9-55c0.1-61.1 53.9-110.5 120.3-110.5c66.5 0.1 120.2 49.6 120.2 110.8c0.3 20.2-5.3 38.7-15.6 55zm-433.9-0.5h-8.5l0.1-25.7c4.9 7.5 7.7 16.6 8.4 25.7zm-8.4-89.5l0.1-201.1c41.4 17.7 69.7 56.1 69.6 100.7c0 44.9-28.3 83.2-69.7 100.4zm0.2-301.6l0.1-55.3c5.2 8.5 8.4 17.6 8.4 27.7c0 9.7-3.2 19.5-8.5 27.6zm0.1-118.7l0.1-201.1c41.4 17.6 69.7 56 69.6 100.6c0 44.2-28.3 82.6-69.7 100.5zm0.2-302v-55.3c5.3 8.1 8.5 17.6 8.5 27.7c0 10.1-3.2 19.8-8.5 27.6zm0.1-118.7l0.1-201.1c41.4 17.6 69.7 56 69.6 100.3c0 44.9-28.3 83.2-69.7 100.8zm0.2-301.6v-55.4c5.3 8.2 8.5 17.6 8.5 27.7c0 10.1-3.2 19.5-8.5 27.7zm0.1-118.8l0.1-201.1c41.4 17.6 69.7 55.7 69.6 100.3c0 44.9-28.3 83.3-69.7 100.8zm0.2-301.9v-55c5.3 8.1 8.5 17.2 8.5 27.6c0 10.1-3.2 19.2-8.5 27.4zm0.1-118.8l0.1-201.1c41.4 17.7 69.7 56.1 69.6 100.7c0 44.5-28.3 83.2-69.7 100.4zm0.2-301.6v-55c5.3 8.2 8.5 17.3 8.5 27.4c0 10-3.2 19.5-8.5 27.6zm0.1-118.7l0.1-201.1c41.4 17.6 69.6 56 69.6 100.6c0 44.2-28.3 82.6-69.7 100.5zm0.2-301.7v-55.3c5.3 8.2 8.5 17.6 8.5 27.7c0 9.8-3.2 19.5-8.5 27.6zm0.1-118.7l0.1-201.1c41.4 17.6 69.6 56.1 69.6 100.3c0 44.6-28.3 82.9-69.7 100.8zm0.2-301.9v-55.4c5.3 8.2 8.5 17.6 8.5 27.7c0 10.1-3.2 19.9-8.5 27.7zm4858.9 2792.8c-32.8-0.1-59.2-24.5-59.2-54.6c0-30.1 26.5-54.5 59.3-54.4c32.8 0 59.2 24.4 59.2 54.5c-0.1 30.2-26.6 54.5-59.3 54.5zm-368.2-63.5c0-61.2 53.8-110.6 120.6-110.5c66.5 0 120.2 49.6 120.2 110.7c-0.1 61.2-53.9 110.6-120.3 110.5c-66.9-0.1-120.9-49.9-120.5-110.7zm-79.3 126.1c0-30.2 26.2-54.3 59.1-54.3c32.8 0.1 59 24.5 59 54.4c0 30.3-26.6 54.3-59.1 54.3c-32.9 0-59.1-24.4-59-54.4zm281.1 0.3c0-30.2 26.5-54.3 59.1-54.3c32.9 0.1 59 24.5 59 54.4c0 30.3-26.6 54.3-59.1 54.3c-32.9 0-59-24.5-59-54.4zm-610.8-63.8c-32.8 0-59.2-24.4-59.2-54.5c0-30.1 26.5-54.5 59.3-54.4c32.7 0 59.2 24.4 59.1 54.5c0 30.2-26.5 54.5-59.2 54.4zm281.1 0.3c-32.8 0-59.2-24.4-59.2-54.5c0-30.2 26.5-54.5 59.3-54.4c32.7 0 59.2 24.4 59.2 54.5c-0.1 30.1-26.6 54.5-59.3 54.4zm-140.5-65.5c-32.7 0-59.1-24.3-59-54.4c0-30 26.4-54.3 59.1-54.3c32.6 0.1 59 24.4 59 54.4c-0.1 30.1-26.5 54.3-59.1 54.3zm-508.9 1.7c0.1-61.1 53.9-110.5 120.7-110.5c66.5 0.1 120.2 49.6 120.1 110.8c0 61.2-53.8 110.6-120.3 110.5c-66.8-0.1-120.9-49.9-120.5-110.8zm-79.3 126.2c0.1-30.3 26.6-54.3 59.1-54.3c32.9 0.1 59.1 24.5 59 54.4c0 30.3-26.5 54.3-59 54.3c-32.9 0-59.1-24.5-59.1-54.4zm280.8 0.3c0-30.3 26.2-54.3 59.1-54.3c32.9 0.1 59 24.5 59 54.4c0 30.3-26.6 54.3-59.1 54.3c-32.5 0-58.7-24.5-59-54.4zm-610.5-63.8c-32.7 0-59.2-24.4-59.1-54.5c0-30.2 26.5-54.5 59.2-54.5c32.8 0.1 59.2 24.5 59.2 54.6c0 30.1-26.5 54.5-59.3 54.4zm281.1 0.3c-32.7 0-59.2-24.4-59.1-54.5c0-30.2 26.5-54.5 59.3-54.5c32.7 0.1 59.2 24.5 59.1 54.6c0 30.1-26.5 54.5-59.3 54.4zm-140.5-65.5c-32.6-0.1-59-24.4-59-54.4c0.1-30.1 26.5-54.3 59.1-54.3c32.7 0 59.1 24.4 59 54.4c0 30.1-26.4 54.3-59.1 54.3zm-509.2 1.7c0.1-61.2 53.9-110.5 120.7-110.5c66.5 0.1 120.2 49.6 120.2 110.8c-0.1 61.1-53.9 110.5-120.3 110.5c-66.9-0.1-120.6-49.9-120.6-110.8zm-79.2 126.2c0-30.3 26.2-54.3 59-54.3c32.9 0 59.1 24.5 59.1 54.4c-0.1 30.3-26.6 54.3-59.1 54.3c-32.6-0.1-58.7-24.5-59-54.4zm281.1 0.3c0-30.3 26.5-54.3 59.1-54.3c32.8 0 59 24.5 59 54.4c0 30.3-26.6 54.3-59.1 54.3c-32.5-0.1-58.7-24.5-59-54.4zm-610.5-63.8c-32.8 0-59.2-24.4-59.2-54.6c0.1-30.1 26.6-54.4 59.3-54.4c32.8 0 59.2 24.4 59.2 54.6c-0.1 30.1-26.6 54.4-59.3 54.4zm281.1 0.3c-32.7 0-59.2-24.4-59.2-54.6c0.1-30.1 26.6-54.4 59.3-54.4c32.8 0 59.2 24.4 59.2 54.6c0 30.1-26.5 54.4-59.3 54.4zm-140.5-65.5c-32.7-0.1-59-24.4-59-54.4c0-30.1 26.5-54.3 59.1-54.3c32.7 0 59 24.3 59 54.4c0 30-26.4 54.3-59.1 54.3zm-509.2 1.7c0.1-61.2 53.8-110.6 120.7-110.5c66.5 0.1 120.2 49.6 120.1 110.7c0 61.2-53.8 110.6-120.3 110.5c-66.8 0-120.5-49.9-120.5-110.7zm-79.3 126.1c0-30.2 26.6-54.3 59.1-54.2c32.9 0 59 24.4 59 54.4c0 30.2-26.5 54.3-59.1 54.2c-32.5 0-58.6-24.4-59-54.4zm281.1 0.3c0.1-30.2 26.6-54.3 59.1-54.2c32.9 0 59.1 24.4 59 54.4c0 30.2-26.5 54.3-59 54.2c-32.6 0-58.7-24.4-59.1-54.4zm-610.4-63.7c-32.8-0.1-59.2-24.4-59.2-54.6c0-30.1 26.5-54.5 59.3-54.4c32.7 0 59.2 24.4 59.1 54.5c0 30.2-26.5 54.5-59.2 54.5zm281.1 0.3c-32.8-0.1-59.2-24.4-59.2-54.6c0-30.1 26.5-54.5 59.3-54.4c32.7 0 59.2 24.4 59.2 54.5c-0.1 30.2-26.6 54.5-59.3 54.5zm-140.5-65.6c-32.7 0-59.1-24.3-59-54.4c0-30 26.4-54.3 59.1-54.2c32.6 0 59 24.3 59 54.4c-0.1 30-26.5 54.3-59.1 54.2zm-509.2 1.8c0-61.2 53.8-110.6 120.6-110.5c66.5 0 120.2 49.6 120.2 110.7c-0.1 61.2-53.8 110.6-120.3 110.5c-66.8-0.1-120.6-49.9-120.5-110.7zm-79.3 126.1c0-30.2 26.2-54.3 59.1-54.2c32.9 0 59 24.4 59 54.3c0 30.3-26.6 54.4-59.1 54.3c-32.5 0-58.7-24.4-59-54.4zm281.1 0.3c0-30.2 26.6-54.3 59.1-54.3c32.9 0.1 59 24.5 59 54.4c0 30.3-26.5 54.4-59.1 54.3c-32.5 0-58.7-24.4-59-54.4zm-610.5-63.7c-32.7-0.1-59.2-24.5-59.1-54.6c0-30.1 26.5-54.5 59.2-54.4c32.8 0 59.2 24.4 59.2 54.5c0 30.2-26.5 54.5-59.3 54.5zm280.8 0.3c-32.8-0.1-59.2-24.5-59.2-54.6c0.1-30.1 26.6-54.5 59.3-54.4c32.8 0 59.2 24.4 59.2 54.5c-0.1 30.2-26.6 54.5-59.3 54.5zm-140.2-65.6c-32.6 0-59-24.3-59-54.4c0.1-30 26.5-54.3 59.1-54.3c32.7 0.1 59.1 24.4 59 54.4c0 30.1-26.4 54.3-59.1 54.3zm-509.1 1.7c0-61.1 53.8-110.5 120.6-110.4c66.5 0 120.2 49.5 120.2 110.7c-0.1 61.2-53.9 110.6-120.3 110.5c-66.9-0.1-120.6-49.9-120.5-110.8zm-79.3 126.2c0-30.3 26.5-54.3 59-54.3c32.9 0.1 59.1 24.5 59.1 54.4c-0.1 30.3-26.6 54.3-59.1 54.3c-32.6 0-58.7-24.5-59-54.4zm281.1 0.3c0-30.3 26.5-54.3 59.1-54.3c32.9 0.1 59 24.5 59 54.4c0 30.3-26.6 54.3-59.1 54.3c-32.5 0-59-24.5-59-54.4zm-610.5-63.8c-32.8 0-59.2-24.4-59.2-54.5c0.1-30.2 26.6-54.5 59.3-54.5c32.8 0.1 59.2 24.5 59.2 54.6c0 30.1-26.6 54.5-59.3 54.4zm280.8 0.3c-32.8 0-59.2-24.4-59.2-54.5c0-30.2 26.5-54.5 59.3-54.5c32.7 0.1 59.2 24.5 59.1 54.6c0 30.1-26.5 54.5-59.2 54.4zm-140.2-65.5c-32.7 0-59-24.4-59-54.4c0-30.1 26.5-54.3 59.1-54.3c32.7 0 59 24.4 59 54.4c0 30.1-26.4 54.3-59.1 54.3zm-307.4 128.2c0.1-30.3 26.2-54.3 59.1-54.3c32.9 0 59.1 24.5 59 54.4c0 30.3-26.5 54.3-59 54.3c-32.6-0.1-59.1-24.5-59.1-54.4zm4830.5-478.7c-32.8-0.1-59.2-24.4-59.2-54.4c0-30.1 26.5-54.3 59.3-54.3c32.8 0 59.2 24.4 59.2 54.4c-0.1 30.1-26.6 54.3-59.3 54.3zm-368.2-63.2c0-61.5 53.8-110.9 120.6-110.8c66.5 0.1 120.2 49.6 120.2 111.1c-0.1 61.1-53.9 110.5-120.3 110.4c-66.9 0-120.9-49.9-120.5-110.7zm-79.3 125.8c0-29.9 26.2-54.6 59.1-54.6c32.8 0.1 59 24.8 59 54.8c-0.1 30.2-26.6 54.3-59.1 54.2c-32.9 0-59.1-24.1-59-54.4zm281.1 0.3c0-29.9 26.5-54.6 59.1-54.6c32.9 0.1 59 24.8 59 54.8c0 30.2-26.6 54.3-59.1 54.2c-32.9 0-59-24.1-59-54.4zm-140.8 65c0-30.3 26.9-54.4 59.4-54.3c32.2 0 59.1 24.4 59.1 54.4c-0.1 30.2-27 54.3-59.1 54.2c-32.6 0-59.4-24.1-59.4-54.3zm-329.6 53.9c-66.5 0-120.2-49.5-120.1-110.7c0-61.2 53.8-110.6 120.3-110.5c66.5 0.1 120.2 49.6 120.1 110.7c-0.1 61.2-53.9 110.6-120.3 110.5zm-140.4-182.6c-32.8-0.1-59.3-24.4-59.2-54.4c0-30.1 26.5-54.3 59.3-54.3c32.7 0 59.2 24.3 59.1 54.4c0 30-26.5 54.3-59.2 54.3zm281.1 0.3c-32.8-0.1-59.2-24.4-59.2-54.4c0-30.1 26.5-54.3 59.3-54.3c32.7 0 59.2 24.3 59.2 54.4c-0.1 30-26.6 54.3-59.3 54.3zm-140.5-65.3c-32.7 0-59.1-24.4-59-54.5c0-30.2 26.4-54.5 59.1-54.5c32.6 0.1 59 24.5 59 54.6c-0.1 30.1-26.5 54.5-59.1 54.4zm-508.9 1.8c0.1-61.5 53.9-110.9 120.7-110.8c66.5 0 120.2 49.5 120.1 111c0 61.2-53.8 110.6-120.3 110.5c-66.8 0-120.9-49.9-120.5-110.7zm-79.3 125.8c0.1-29.9 26.6-54.6 59.1-54.6c32.9 0 59.1 24.8 59 54.7c0 30.3-26.5 54.3-59.1 54.3c-32.8 0-59-24.1-59-54.4zm280.8 0.3c0-29.9 26.2-54.6 59.1-54.6c32.9 0 59 24.8 59 54.7c0 30.3-26.6 54.3-59.1 54.3c-32.5 0-58.7-24.1-59-54.4zm-140.4 64.9c0-30.2 26.9-54.3 59.4-54.2c32.2 0 59.1 24.4 59 54.4c0 30.2-26.9 54.3-59.1 54.2c-32.8 0-59.4-24.1-59.3-54.4zm-329.7 54c-66.5-0.1-120.1-49.6-120.1-110.7c0.1-61.2 53.9-110.6 120.4-110.5c66.5 0 120.1 49.5 120.1 110.7c-0.1 61.2-53.9 110.6-120.4 110.5zm-140.4-182.7c-32.7 0-59.2-24.3-59.2-54.4c0.1-30 26.6-54.3 59.3-54.2c32.8 0 59.2 24.3 59.2 54.4c0 30-26.5 54.3-59.3 54.2zm281.1 0.3c-32.7 0-59.2-24.3-59.1-54.4c0-30 26.5-54.3 59.3-54.2c32.7 0 59.2 24.3 59.1 54.4c0 30-26.5 54.3-59.3 54.2zm-140.5-65.2c-32.6 0-59-24.4-59-54.5c0.1-30.2 26.5-54.5 59.1-54.5c32.7 0.1 59.1 24.4 59 54.6c0 30.1-26.4 54.5-59.1 54.4zm-509.2 1.8c0.1-61.5 53.9-110.9 120.7-110.9c66.5 0.1 120.2 49.6 120.2 111.1c-0.1 61.2-53.9 110.6-120.4 110.5c-66.8-0.1-120.5-49.9-120.5-110.7zm-79.3 125.8c0.1-29.9 26.3-54.6 59.1-54.6c32.9 0 59.1 24.8 59.1 54.7c-0.1 30.3-26.6 54.3-59.1 54.3c-32.6-0.1-58.7-24.2-59.1-54.4zm281.2 0.3c0-30 26.5-54.7 59.1-54.6c32.8 0 59 24.8 59 54.7c0 30.3-26.6 54.3-59.1 54.3c-32.5-0.1-58.7-24.2-59-54.4zm-140.8 64.9c0-30.3 26.9-54.3 59.4-54.3c32.2 0.1 59.1 24.5 59 54.4c0 30.3-26.9 54.3-59 54.3c-32.6 0-59.1-24.1-59.4-54.4zm-329.3 54c-66.5-0.1-120.2-49.6-120.1-110.8c0.1-61.1 53.8-110.5 120.3-110.5c66.5 0.1 120.2 49.6 120.1 110.8c0 61.2-53.8 110.6-120.3 110.5zm-140.4-182.7c-32.8 0-59.2-24.3-59.2-54.4c0-30 26.5-54.3 59.3-54.3c32.8 0.1 59.2 24.4 59.2 54.4c-0.1 30.1-26.6 54.3-59.3 54.3zm281.1 0.3c-32.7 0-59.2-24.3-59.2-54.4c0.1-30 26.6-54.3 59.3-54.3c32.8 0.1 59.2 24.4 59.2 54.4c0 30.1-26.5 54.3-59.3 54.3zm-140.5-65.2c-32.7 0-59-24.4-59-54.6c0-30.1 26.5-54.4 59.1-54.4c32.7 0 59 24.4 59 54.6c0 30.1-26.5 54.4-59.1 54.4zm-509.2 1.7c0.1-61.5 53.8-110.9 120.7-110.8c66.5 0.1 120.2 49.6 120.1 111.1c0 61.2-53.8 110.6-120.3 110.5c-66.8-0.1-120.5-49.9-120.5-110.8zm-79.3 125.9c0-30 26.6-54.7 59.1-54.6c32.9 0 59 24.8 59 54.7c0 30.2-26.5 54.3-59.1 54.3c-32.5-0.1-58.7-24.2-59-54.4zm281.1 0.3c0.1-30 26.6-54.7 59.1-54.6c32.9 0 59.1 24.7 59 54.7c0 30.2-26.5 54.3-59 54.3c-32.6-0.1-58.7-24.2-59.1-54.4zm-140.7 64.9c0-30.3 26.9-54.3 59.4-54.3c32.2 0 59 24.5 59 54.4c0 30.3-26.9 54.3-59.1 54.3c-32.5-0.1-59-24.2-59.3-54.4zm-329.3 54c-66.5-0.1-120.2-49.6-120.1-110.8c0-61.2 53.8-110.5 120.3-110.5c66.5 0.1 120.2 49.6 120.1 110.8c-0.1 61.1-53.8 110.5-120.3 110.5zm-140.4-182.7c-32.8 0-59.2-24.4-59.2-54.4c0-30.1 26.5-54.3 59.3-54.3c32.7 0.1 59.2 24.4 59.1 54.4c0 30.1-26.5 54.3-59.2 54.3zm281.1 0.3c-32.8 0-59.2-24.4-59.2-54.4c0-30.1 26.5-54.3 59.3-54.3c32.7 0.1 59.2 24.4 59.2 54.4c-0.1 30.1-26.6 54.3-59.3 54.3zm-140.5-65.2c-32.7-0.1-59.1-24.5-59-54.6c0-30.1 26.4-54.5 59.1-54.4c32.6 0 59 24.4 59 54.5c-0.1 30.2-26.5 54.5-59.1 54.5zm-509.2 1.7c0-61.5 53.8-110.9 120.6-110.8c66.5 0.1 120.2 49.6 120.2 111.1c-0.1 61.1-53.8 110.5-120.3 110.5c-66.8-0.1-120.6-50-120.5-110.8zm-79.3 125.8c0-29.9 26.2-54.6 59.1-54.6c32.9 0.1 59 24.8 59 54.8c0 30.2-26.6 54.3-59.1 54.2c-32.5 0-58.7-24.1-59-54.4zm281.1 0.3c0-29.9 26.6-54.6 59.1-54.6c32.9 0.1 59 24.8 59 54.8c0 30.2-26.5 54.3-59.1 54.2c-32.5 0-58.7-24.1-59-54.4zm-140.8 65c0-30.3 26.9-54.3 59.5-54.3c32.1 0 59 24.4 59 54.4c0 30.2-26.9 54.3-59.1 54.3c-32.5-0.1-59-24.2-59.4-54.4zm-329.3 53.9c-66.5 0-120.1-49.5-120.1-110.7c0.1-61.2 53.9-110.6 120.4-110.5c66.5 0.1 120.1 49.6 120.1 110.7c-0.1 61.2-53.9 110.6-120.4 110.5zm-140.4-182.6c-32.7-0.1-59.2-24.4-59.1-54.4c0-30.1 26.5-54.3 59.2-54.3c32.8 0 59.2 24.3 59.2 54.4c0 30-26.5 54.3-59.3 54.3zm280.8 0.3c-32.8-0.1-59.2-24.4-59.2-54.4c0-30.1 26.6-54.3 59.3-54.3c32.8 0 59.2 24.3 59.2 54.4c-0.1 30-26.6 54.3-59.3 54.3zm-140.2-65.3c-32.6 0-59-24.4-59-54.5c0.1-30.2 26.5-54.5 59.1-54.4c32.7 0 59.1 24.4 59 54.5c0 30.1-26.4 54.5-59.1 54.4zm-509.1 1.8c0-61.5 53.8-110.9 120.6-110.8c66.5 0 120.2 49.5 120.2 111c-0.1 61.2-53.9 110.6-120.3 110.5c-66.9 0-120.6-49.9-120.5-110.7zm-79.3 125.8c0-29.9 26.5-54.6 59-54.6c32.9 0.1 59.1 24.8 59.1 54.7c-0.1 30.3-26.6 54.3-59.1 54.3c-32.6 0-58.7-24.1-59-54.4zm281.1 0.3c0-29.9 26.5-54.6 59.1-54.6c32.8 0 59 24.8 59 54.7c0 30.3-26.6 54.3-59.1 54.3c-32.5 0-59-24.1-59-54.4zm-140.8 64.9c0-30.2 26.9-54.3 59.4-54.2c32.2 0 59.1 24.4 59 54.4c0 30.2-26.9 54.3-59 54.2c-32.6 0-59.4-24.1-59.4-54.4zm-329.3 54c-66.5-0.1-120.2-49.6-120.1-110.7c0.1-61.2 53.9-110.6 120.3-110.5c66.5 0 120.2 49.6 120.1 110.7c0 61.2-53.8 110.6-120.3 110.5zm-140.4-182.7c-32.8 0-59.2-24.3-59.2-54.4c0.1-30 26.6-54.3 59.3-54.2c32.8 0 59.2 24.3 59.2 54.4c-0.1 30-26.6 54.3-59.3 54.2zm280.8 0.3c-32.8 0-59.2-24.3-59.2-54.4c0-30 26.5-54.3 59.3-54.2c32.7 0 59.2 24.3 59.1 54.4c0 30-26.5 54.3-59.2 54.2zm-140.2-65.2c-32.7 0-59-24.4-59-54.5c0-30.2 26.5-54.5 59.1-54.5c32.7 0.1 59 24.5 59 54.6c0 30.1-26.4 54.5-59.1 54.4zm-307.4 127.9c0.1-29.9 26.2-54.6 59.1-54.6c32.9 0 59.1 24.8 59 54.7c0 30.3-26.5 54.3-59 54.3c-32.6 0-59.1-24.2-59.1-54.4zm4830.5-478.4c-32.8 0-59.2-24.3-59.2-54.4c0-30 26.5-54.3 59.3-54.2c32.7 0 59.2 24.3 59.2 54.4c-0.1 30-26.6 54.3-59.3 54.2zm-368.2-63.8c0-61.2 53.8-110.6 120.6-110.5c66.5 0.1 120.2 49.6 120.2 110.7c-0.1 61.5-53.9 110.9-120.3 110.9c-66.9-0.1-120.9-49.6-120.5-111.1zm-79.3 126.1c0-30.2 26.2-54.3 59.1-54.2c32.8 0 59 24.4 59 54.4c-0.1 30.2-26.6 54.3-59.1 54.2c-32.9 0-59.1-24.1-59-54.4zm281.1 0.3c0-30.2 26.5-54.3 59.1-54.2c32.9 0 59 24.4 59 54.4c0 30.2-26.6 54.3-59.1 54.2c-32.9 0-59-24.1-59-54.4zm-140.8 65.3c0-30.3 26.9-54.3 59.4-54.3c32.2 0.1 59.1 24.2 59.1 54.4c-0.1 30.3-27 54.3-59.1 54.3c-32.6 0-59.4-24.2-59.4-54.4zm-329.6 54c-66.5-0.1-120.2-49.6-120.2-110.8c0.1-61.1 53.9-110.5 120.4-110.5c66.5 0.1 120.2 49.6 120.1 110.8c-0.1 61.2-53.9 110.5-120.3 110.5zm-140.5-182.7c-32.7 0-59.2-24.4-59.1-54.4c0-30 26.5-54.3 59.3-54.3c32.7 0.1 59.2 24.4 59.1 54.4c0 30.1-26.5 54.3-59.3 54.3zm281.2 0.3c-32.8 0-59.2-24.4-59.2-54.4c0-30 26.5-54.3 59.3-54.3c32.7 0.1 59.2 24.4 59.2 54.4c-0.1 30.1-26.6 54.3-59.3 54.3zm-140.5-65.5c-32.7-0.1-59.1-24.4-59-54.4c0-30.1 26.4-54.4 59.1-54.3c32.6 0 59 24.3 59 54.4c-0.1 30-26.5 54.3-59.1 54.3zm-508.9 1.4c0.1-61.2 53.9-110.6 120.7-110.5c66.5 0 120.2 49.6 120.1 110.7c0 61.5-53.8 110.9-120.3 110.8c-66.8 0-120.9-49.5-120.5-111zm-79.3 126.1c0.1-30.2 26.6-54.3 59.1-54.3c32.9 0.1 59.1 24.5 59 54.4c0 30.3-26.5 54.4-59.1 54.3c-32.8 0-59-24.1-59-54.4zm280.8 0.3c0-30.2 26.2-54.3 59.1-54.3c32.9 0.1 59 24.5 59 54.4c0 30.3-26.6 54.3-59.1 54.3c-32.5 0-58.7-24.1-59-54.4zm-140.4 65.3c0-30.3 26.9-54.3 59.4-54.3c32.2 0 59 24.1 59 54.4c0 30.2-26.9 54.3-59.1 54.3c-32.8-0.1-59.4-24.2-59.3-54.4zm-329.7 54c-66.5-0.1-120.1-49.6-120.1-110.8c0.1-61.2 53.9-110.6 120.4-110.5c66.4 0.1 120.1 49.6 120.1 110.8c-0.1 61.1-53.9 110.5-120.4 110.5zm-140.4-182.7c-32.7-0.1-59.2-24.4-59.2-54.4c0.1-30.1 26.6-54.3 59.3-54.3c32.8 0 59.2 24.4 59.2 54.4c0 30.1-26.5 54.3-59.3 54.3zm281.1 0.3c-32.7-0.1-59.2-24.4-59.1-54.4c0-30.1 26.5-54.3 59.3-54.3c32.7 0 59.2 24.4 59.1 54.4c0 30-26.5 54.3-59.3 54.3zm-140.5-65.6c-32.6 0-59-24.3-59-54.4c0.1-30 26.5-54.3 59.1-54.2c32.7 0 59.1 24.3 59 54.4c0 30-26.4 54.3-59.1 54.2zm-509.2 1.4c0.1-61.1 53.9-110.5 120.7-110.5c66.5 0.1 120.2 49.6 120.2 110.8c-0.1 61.5-53.9 110.9-120.4 110.8c-66.8-0.1-120.5-49.6-120.5-111.1zm-79.3 126.2c0.1-30.3 26.3-54.3 59.1-54.3c32.9 0.1 59.1 24.5 59.1 54.4c-0.1 30.3-26.6 54.3-59.1 54.3c-32.6 0-58.7-24.1-59.1-54.4zm281.2 0.3c0-30.3 26.5-54.3 59.1-54.3c32.8 0.1 59 24.5 59 54.4c-0.1 30.3-26.6 54.3-59.1 54.3c-32.6 0-58.7-24.1-59-54.4zm-140.8 65.2c0-30.2 26.9-54.3 59.4-54.2c32.2 0 59.1 24.1 59 54.4c0 30.2-26.9 54.3-59 54.2c-32.6 0-59.4-24.1-59.4-54.4zm-329.3 54c-66.5 0-120.2-49.5-120.1-110.7c0.1-61.2 53.8-110.6 120.3-110.5c66.5 0.1 120.2 49.6 120.1 110.7c0 61.2-53.8 110.6-120.3 110.5zm-140.4-182.6c-32.8-0.1-59.2-24.4-59.2-54.4c0-30.1 26.5-54.4 59.3-54.3c32.8 0 59.2 24.3 59.2 54.4c-0.1 30-26.6 54.3-59.3 54.3zm281.1 0.3c-32.7-0.1-59.2-24.4-59.2-54.4c0.1-30.1 26.6-54.4 59.3-54.3c32.8 0 59.2 24.3 59.2 54.4c0 30-26.5 54.3-59.3 54.3zm-140.5-65.6c-32.7 0-59-24.3-59-54.4c0-30 26.5-54.3 59.1-54.3c32.7 0.1 59 24.4 59 54.4c0 30.1-26.5 54.3-59.1 54.3zm-509.2 1.4c0.1-61.1 53.8-110.5 120.7-110.5c66.4 0.1 120.2 49.6 120.1 110.8c0 61.5-53.8 110.9-120.3 110.8c-66.8-0.1-120.5-49.6-120.5-111.1zm-79.3 126.2c0-30.3 26.6-54.3 59.1-54.3c32.9 0 59 24.5 59 54.4c0 30.3-26.5 54.3-59.1 54.3c-32.5-0.1-58.7-24.2-59-54.4zm281.1 0.3c0.1-30.3 26.6-54.3 59.1-54.3c32.9 0 59.1 24.5 59 54.4c0 30.3-26.5 54.3-59.1 54.3c-32.5-0.1-58.6-24.2-59-54.4zm-140.7 65.2c0-30.2 26.9-54.3 59.4-54.3c32.2 0.1 59 24.2 59 54.4c0 30.3-26.9 54.3-59.1 54.3c-32.5 0-59.4-24.1-59.3-54.4zm-329.3 54c-66.5-0.1-120.2-49.6-120.1-110.7c0-61.2 53.8-110.6 120.3-110.5c66.5 0 120.2 49.5 120.1 110.7c-0.1 61.2-53.9 110.6-120.3 110.5zm-140.4-182.7c-32.8 0-59.2-24.3-59.2-54.4c0-30 26.5-54.3 59.3-54.2c32.7 0 59.2 24.3 59.1 54.4c0 30-26.5 54.3-59.2 54.2zm281.1 0.3c-32.8 0-59.2-24.3-59.2-54.4c0-30 26.5-54.3 59.3-54.2c32.7 0 59.2 24.3 59.2 54.4c-0.1 30-26.6 54.3-59.3 54.2zm-140.5-65.5c-32.7-0.1-59.1-24.4-59-54.4c0-30.1 26.4-54.3 59.1-54.3c32.6 0 59 24.4 59 54.4c-0.1 30.1-26.5 54.3-59.1 54.3zm-509.2 1.4c0-61.2 53.8-110.6 120.6-110.5c66.5 0.1 120.2 49.6 120.2 110.7c-0.1 61.5-53.8 110.9-120.3 110.9c-66.8-0.1-120.6-49.6-120.5-111.1zm-79.3 126.1c0-30.2 26.2-54.3 59.1-54.2c32.9 0 59 24.4 59 54.4c0 30.2-26.6 54.3-59.1 54.2c-32.5 0-58.7-24.1-59-54.4zm281.1 0.3c0-30.2 26.6-54.3 59.1-54.2c32.9 0 59 24.4 59 54.4c0 30.2-26.6 54.3-59.1 54.2c-32.5 0-58.7-24.1-59-54.4zm-140.8 65.3c0-30.3 26.9-54.3 59.5-54.3c32.1 0.1 59 24.2 59 54.4c0 30.3-26.9 54.3-59.1 54.3c-32.5 0-59.4-24.1-59.4-54.4zm-329.3 54c-66.5-0.1-120.1-49.6-120.1-110.8c0.1-61.1 53.9-110.5 120.4-110.5c66.5 0.1 120.1 49.6 120.1 110.8c-0.1 61.2-53.9 110.6-120.4 110.5zm-140.4-182.7c-32.7 0-59.2-24.3-59.1-54.4c0-30 26.5-54.3 59.2-54.3c32.8 0.1 59.2 24.4 59.2 54.4c0 30.1-26.5 54.3-59.3 54.3zm280.8 0.3c-32.8 0-59.2-24.3-59.2-54.4c0-30 26.5-54.3 59.3-54.3c32.8 0.1 59.2 24.4 59.2 54.4c-0.1 30.1-26.6 54.3-59.3 54.3zm-140.2-65.5c-32.6-0.1-59-24.4-59-54.4c0.1-30.1 26.5-54.3 59.1-54.3c32.7 0 59.1 24.3 59 54.4c0 30-26.4 54.3-59.1 54.3zm-509.2 1.4c0.1-61.2 53.9-110.6 120.7-110.5c66.5 0 120.2 49.6 120.2 110.7c-0.1 61.5-53.9 110.9-120.3 110.8c-66.9 0-120.6-49.5-120.6-111zm-79.2 126.1c0-30.2 26.5-54.3 59-54.2c32.9 0 59.1 24.4 59.1 54.4c-0.1 30.2-26.6 54.3-59.1 54.2c-32.6 0-58.7-24.1-59-54.4zm281.1 0.3c0-30.2 26.5-54.3 59.1-54.2c32.8 0 59 24.4 59 54.3c0 30.3-26.6 54.4-59.1 54.3c-32.5 0-59.1-24.1-59-54.4zm-140.8 65.3c0-30.3 26.9-54.3 59.4-54.3c32.2 0 59.1 24.1 59 54.4c0 30.3-26.9 54.3-59 54.3c-32.6-0.1-59.4-24.2-59.4-54.4zm-329.3 54c-66.5-0.1-120.2-49.6-120.1-110.8c0.1-61.2 53.8-110.6 120.3-110.5c66.5 0.1 120.2 49.6 120.1 110.8c0 61.1-53.8 110.5-120.3 110.5zm-140.4-182.7c-32.8-0.1-59.2-24.4-59.2-54.4c0.1-30.1 26.6-54.3 59.3-54.3c32.8 0 59.2 24.4 59.2 54.4c-0.1 30.1-26.6 54.3-59.3 54.3zm280.8 0.3c-32.8-0.1-59.2-24.4-59.2-54.4c0-30.1 26.5-54.3 59.3-54.3c32.7 0 59.2 24.4 59.1 54.4c0 30.1-26.5 54.3-59.2 54.3zm-140.2-65.6c-32.7 0-59-24.3-59-54.4c0-30 26.5-54.3 59.1-54.2c32.7 0 59 24.3 59 54.4c0 30-26.4 54.3-59.1 54.2zm-307.4 128.2c0.1-30.2 26.2-54.6 59.1-54.6c32.9 0.1 59.1 24.5 59 54.4c0 30.3-26.5 54.3-59 54.3c-32.6 0-59.1-24.1-59.1-54.1zm4830.5-478.7c-32.8 0-59.2-24.3-59.2-54.4c0-30 26.5-54.3 59.3-54.2c32.7 0 59.2 24.3 59.2 54.4c-0.1 30-26.6 54.3-59.3 54.2zm-368.2-63.5c0-61.1 53.8-110.5 120.6-110.5c66.5 0.1 120.2 49.9 120.2 110.8c-0.1 60.8-53.9 110.9-120.3 110.8c-66.9-0.1-120.6-49.9-120.5-111.1zm-79.3 126.2c0-30.3 26.2-54.3 59.1-54.3c32.8 0 59 24.5 59 54.4c-0.1 30.3-26.6 54.3-59.1 54.3c-32.9-0.1-59.1-24.2-59-54.4zm281.1 0.3c0-30.3 26.5-54.3 59.1-54.3c32.9 0 59 24.5 59 54.4c0 30.3-26.6 54.3-59.1 54.3c-32.9-0.1-59-24.2-59-54.4zm-140.8 65.2c0-30.2 26.9-54.3 59.4-54.2c32.2 0 59.1 24.4 59.1 54.4c-0.1 30.2-27 54.3-59.1 54.2c-32.6 0-59.4-24.4-59.4-54.4zm-329.6 53.7c-66.5-0.1-120.2-49.7-120.2-110.9c0.1-61.3 53.9-110.8 120.4-110.7c66.5 0.1 120.2 49.7 120.1 110.9c-0.1 61.3-53.9 110.8-120.3 110.7zm-140.5-182.7c-32.7 0-59.2-24.3-59.1-54.4c0-30 26.5-54.3 59.3-54.3c32.7 0.1 59.2 24.4 59.1 54.4c0 30.1-26.5 54.3-59.3 54.3zm281.2 0.3c-32.8 0-59.2-24.3-59.2-54.4c0-30 26.5-54.3 59.3-54.3c32.7 0.1 59.2 24.4 59.2 54.4c-0.1 30.1-26.6 54.3-59.3 54.3zm-140.5-65.2c-32.7 0-59.1-24.4-59-54.4c0-30.1 26.4-54.3 59.1-54.3c32.6 0.1 59 24.4 59 54.4c-0.1 30.1-26.5 54.3-59.1 54.3zm-508.9 1.4c0.1-61.2 53.9-110.6 120.7-110.5c66.5 0.1 120.2 49.9 120.1 110.8c0 60.8-53.8 110.8-120.3 110.8c-66.8-0.1-120.5-49.9-120.5-111.1zm-79.3 126.2c0.1-30.3 26.6-54.3 59.1-54.3c32.9 0 59.1 24.4 59 54.4c0 30.2-26.5 54.3-59.1 54.3c-32.8-0.1-59-24.2-59-54.4zm280.8 0.3c0-30.3 26.2-54.4 59.1-54.3c32.9 0 59 24.4 59 54.4c0 30.2-26.6 54.3-59.1 54.3c-32.5-0.1-58.7-24.2-59-54.4zm-140.4 65.2c0-30.3 26.9-54.3 59.4-54.3c32.2 0.1 59 24.5 59 54.4c0 30.3-26.9 54.3-59.1 54.3c-32.9 0-59.4-24.5-59.3-54.4zm-329.7 53.7c-66.5-0.1-120.1-49.7-120.1-110.9c0.1-61.3 53.9-110.8 120.4-110.7c66.4 0.1 120.1 49.6 120.1 110.9c-0.1 61.3-53.9 110.7-120.4 110.7zm-140.4-182.7c-32.7 0-59.2-24.4-59.2-54.4c0.1-30.1 26.6-54.3 59.3-54.3c32.8 0.1 59.2 24.4 59.2 54.4c0 30.1-26.5 54.3-59.3 54.3zm281.1 0.3c-32.7 0-59.2-24.4-59.1-54.4c0-30.1 26.5-54.3 59.2-54.3c32.8 0.1 59.3 24.4 59.2 54.4c0 30.1-26.5 54.3-59.3 54.3zm-140.5-65.2c-32.6-0.1-59-24.4-59-54.4c0.1-30.1 26.5-54.3 59.1-54.3c32.7 0 59.1 24.3 59 54.4c0 30-26.4 54.3-59.1 54.3zm-509.2 1.4c0.1-61.2 53.9-110.6 120.7-110.5c66.5 0.1 120.2 49.9 120.1 110.7c0 60.9-53.8 110.9-120.3 110.9c-66.8-0.1-120.5-50-120.5-111.1zm-79.3 126.1c0.1-30.2 26.2-54.3 59.1-54.2c32.9 0 59.1 24.4 59 54.4c0 30.2-26.5 54.3-59 54.2c-32.6 0-58.7-24.1-59.1-54.4zm281.2 0.3c0-30.2 26.5-54.3 59.1-54.2c32.8 0 59 24.4 59 54.4c-0.1 30.2-26.6 54.3-59.1 54.2c-32.6 0-58.7-24.1-59-54.4zm-140.8 65.3c0-30.3 26.9-54.3 59.4-54.3c32.2 0 59.1 24.5 59 54.4c0 30.3-26.9 54.3-59.1 54.3c-32.5-0.1-59-24.5-59.3-54.4zm-329.3 53.6c-66.5 0-120.2-49.6-120.1-110.9c0-61.2 53.8-110.7 120.3-110.6c66.5 0 120.2 49.6 120.1 110.9c0 61.2-53.8 110.7-120.3 110.6zm-140.4-182.6c-32.8-0.1-59.2-24.4-59.2-54.4c0-30.1 26.5-54.3 59.3-54.3c32.8 0 59.2 24.3 59.2 54.4c-0.1 30-26.6 54.3-59.3 54.3zm281.1 0.3c-32.8-0.1-59.2-24.4-59.2-54.4c0.1-30.1 26.6-54.3 59.3-54.3c32.8 0 59.2 24.3 59.2 54.4c0 30-26.5 54.3-59.3 54.3zm-140.5-65.3c-32.7 0-59-24.3-59-54.4c0-30 26.4-54.3 59.1-54.2c32.7 0 59 24.3 59 54.4c0 30-26.5 54.3-59.1 54.2zm-509.2 1.5c0.1-61.2 53.8-110.6 120.7-110.5c66.4 0 120.2 49.9 120.1 110.7c0 60.9-53.8 110.9-120.3 110.8c-66.8 0-120.5-49.9-120.5-111zm-79.3 126.1c0-30.2 26.6-54.3 59.1-54.3c32.9 0.1 59 24.5 59 54.4c0 30.3-26.5 54.3-59.1 54.3c-32.5 0-58.7-24.1-59-54.4zm281.1 0.3c0.1-30.3 26.6-54.3 59.1-54.3c32.9 0.1 59.1 24.5 59 54.4c0 30.3-26.5 54.3-59.1 54.3c-32.5 0-58.6-24.1-59-54.4zm-140.8 65.3c0.1-30.3 27-54.4 59.5-54.3c32.2 0 59 24.4 59 54.4c0 30.2-26.9 54.3-59.1 54.3c-32.5-0.1-59-24.5-59.4-54.4zm-329.2 53.6c-66.5-0.1-120.2-49.6-120.1-110.9c0-61.3 53.8-110.7 120.3-110.7c66.5 0.1 120.2 49.7 120.1 111c-0.1 61.2-53.9 110.7-120.3 110.6zm-140.4-182.7c-32.8 0-59.3-24.3-59.2-54.4c0-30 26.5-54.3 59.3-54.2c32.7 0 59.2 24.3 59.1 54.4c0 30-26.5 54.3-59.2 54.2zm281.1 0.3c-32.8 0-59.2-24.3-59.2-54.4c0-30 26.5-54.3 59.3-54.2c32.7 0 59.2 24.3 59.2 54.4c-0.1 30-26.6 54.3-59.3 54.2zm-140.5-65.2c-32.7 0-59.1-24.3-59-54.4c0-30 26.4-54.3 59.1-54.3c32.6 0.1 59 24.4 59 54.4c-0.1 30.1-26.5 54.4-59.1 54.3zm-509.2 1.4c0-61.1 53.8-110.5 120.6-110.5c66.5 0.1 120.2 49.9 120.2 110.8c-0.1 60.8-53.8 110.9-120.3 110.8c-66.9-0.1-120.6-49.9-120.5-111.1zm-79.3 126.2c0-30.3 26.2-54.3 59.1-54.3c32.9 0 59 24.5 59 54.4c0 30.3-26.6 54.3-59.1 54.3c-32.5-0.1-58.7-24.2-59-54.4zm281.1 0.3c0-30.3 26.6-54.3 59.1-54.3c32.9 0 59 24.5 59 54.4c0 30.3-26.6 54.3-59.1 54.3c-32.5-0.1-58.7-24.2-59-54.4zm-140.8 65.2c0-30.2 26.9-54.3 59.5-54.2c32.1 0 59 24.4 59 54.4c0 30.2-26.9 54.3-59.1 54.2c-32.5 0-59.1-24.4-59.4-54.4zm-329.3 53.7c-66.5-0.1-120.1-49.7-120.1-110.9c0.1-61.3 53.9-110.7 120.4-110.7c66.5 0.1 120.1 49.7 120.1 110.9c-0.1 61.3-53.9 110.8-120.4 110.7zm-140.4-182.7c-32.7 0-59.2-24.3-59.2-54.4c0.1-30 26.6-54.3 59.3-54.3c32.8 0.1 59.2 24.4 59.2 54.4c0 30.1-26.5 54.4-59.3 54.3zm280.8 0.3c-32.8 0-59.2-24.3-59.2-54.4c0-30 26.5-54.3 59.3-54.3c32.8 0.1 59.2 24.4 59.2 54.4c-0.1 30.1-26.6 54.4-59.3 54.3zm-140.2-65.2c-32.6 0-59-24.4-59-54.4c0.1-30 26.5-54.3 59.1-54.3c32.7 0.1 59.1 24.4 59 54.4c0 30.1-26.4 54.3-59.1 54.3zm-509.2 1.4c0.1-61.2 53.9-110.6 120.7-110.5c66.5 0.1 120.2 49.9 120.2 110.8c-0.1 60.8-53.9 110.9-120.4 110.8c-66.8-0.1-120.5-49.9-120.5-111.1zm-79.3 126.2c0.1-30.3 26.6-54.3 59.1-54.3c32.9 0 59.1 24.5 59.1 54.4c-0.1 30.2-26.6 54.3-59.1 54.3c-32.6-0.1-58.7-24.2-59.1-54.4zm281.2 0.3c0-30.3 26.5-54.3 59.1-54.3c32.8 0 59 24.5 59 54.4c0 30.2-26.6 54.3-59.1 54.3c-32.5-0.1-59.1-24.2-59-54.4zm-140.8 65.2c0-30.2 26.9-54.3 59.4-54.3c32.2 0.1 59.1 24.5 59 54.4c0 30.3-26.9 54.3-59 54.3c-32.6 0-59.4-24.5-59.4-54.4zm-329.3 53.7c-66.5-0.1-120.2-49.7-120.1-110.9c0.1-61.3 53.8-110.8 120.3-110.7c66.5 0.1 120.2 49.6 120.1 110.9c0 61.3-53.8 110.7-120.3 110.7zm-140.4-182.7c-32.8 0-59.2-24.4-59.2-54.4c0-30 26.5-54.3 59.3-54.3c32.8 0.1 59.2 24.4 59.2 54.4c-0.1 30.1-26.6 54.3-59.3 54.3zm280.8 0.3c-32.8 0-59.3-24.4-59.2-54.4c0-30.1 26.5-54.3 59.3-54.3c32.7 0.1 59.2 24.4 59.1 54.4c0 30.1-26.5 54.3-59.2 54.3zm-140.2-65.2c-32.7-0.1-59-24.4-59-54.4c0-30.1 26.5-54.3 59.1-54.3c32.7 0 59 24.4 59 54.4c0 30-26.5 54.3-59.1 54.3zm-307.4 127.8c0.1-30.2 26.2-54.3 59.1-54.2c32.9 0 59.1 24.4 59 54.4c0 30.2-26.5 54.3-59 54.2c-32.6 0-59.1-24.1-59.1-54.4zm4830.5-478.3c-32.8-0.1-59.2-24.5-59.2-54.6c0-30.1 26.5-54.5 59.3-54.4c32.7 0 59.2 24.4 59.2 54.5c-0.1 30.2-26.6 54.5-59.3 54.5zm-368.2-63.5c0-61.2 53.8-110.6 120.6-110.5c66.5 0 120.2 49.6 120.2 110.7c-0.1 61.2-53.9 110.6-120.3 110.5c-66.9-0.1-120.9-49.9-120.5-110.7zm-79.3 126.1c0-30.2 26.2-54.3 59-54.3c32.9 0.1 59.1 24.5 59.1 54.4c-0.1 30.3-26.6 54.3-59.1 54.3c-32.9 0-59.1-24.4-59-54.4zm281.1 0.3c0-30.2 26.5-54.3 59.1-54.3c32.9 0.1 59 24.5 59 54.4c0 30.3-26.6 54.3-59.1 54.3c-32.9 0-59-24.5-59-54.4zm-140.8 65.3c0-30 26.9-54.7 59.4-54.6c32.2 0 59.1 24.8 59.1 54.7c-0.1 29.6-27 54.3-59.1 54.3c-32.6-0.1-59.4-24.8-59.4-54.4zm-329.6 53.6c-66.5 0-120.2-49.6-120.2-110.9c0.1-61.3 53.9-110.7 120.4-110.6c66.5 0 120.2 49.6 120.1 110.9c-0.1 61.2-53.9 110.7-120.3 110.6zm-140.5-182.7c-32.7 0-59.2-24.4-59.1-54.5c0-30.1 26.5-54.5 59.3-54.4c32.7 0 59.2 24.4 59.1 54.5c0 30.2-26.5 54.5-59.3 54.4zm281.2 0.3c-32.8 0-59.2-24.4-59.2-54.5c0-30.2 26.5-54.5 59.3-54.4c32.7 0 59.2 24.4 59.2 54.5c-0.1 30.1-26.6 54.5-59.3 54.4zm-140.6-65.5c-32.6 0-59-24.3-58.9-54.4c0-30 26.4-54.3 59.1-54.3c32.6 0.1 59 24.4 59 54.4c-0.1 30.1-26.5 54.3-59.2 54.3zm-508.8 1.7c0.1-61.1 53.9-110.5 120.7-110.5c66.5 0.1 120.2 49.6 120.1 110.8c0 61.2-53.8 110.6-120.3 110.5c-66.8-0.1-120.9-49.9-120.5-110.8zm-79.3 126.2c0-30.3 26.6-54.3 59.1-54.3c32.9 0.1 59.1 24.5 59 54.4c0 30.3-26.5 54.3-59.1 54.3c-32.8 0-59-24.5-59-54.4zm280.8 0.3c0-30.3 26.2-54.3 59.1-54.3c32.9 0.1 59 24.5 59 54.4c0 30.3-26.6 54.3-59.1 54.3c-32.5 0-58.7-24.5-59-54.4zm-140.4 65.2c0-29.9 26.9-54.6 59.4-54.6c32.2 0.1 59 24.8 59 54.8c0 29.6-26.9 54.3-59.1 54.2c-32.9 0-59.4-24.8-59.3-54.4zm-329.7 53.7c-66.5-0.1-120.2-49.6-120.1-110.9c0.1-61.3 53.9-110.7 120.4-110.7c66.4 0.1 120.1 49.7 120.1 110.9c-0.1 61.3-53.9 110.8-120.4 110.7zm-140.4-182.7c-32.7 0-59.2-24.4-59.2-54.5c0.1-30.2 26.6-54.5 59.3-54.5c32.8 0.1 59.2 24.5 59.2 54.6c0 30.1-26.5 54.5-59.3 54.4zm281.1 0.3c-32.7 0-59.2-24.4-59.1-54.5c0-30.2 26.5-54.5 59.2-54.5c32.8 0.1 59.3 24.5 59.2 54.6c0 30.1-26.5 54.5-59.3 54.4zm-140.5-65.5c-32.6-0.1-59-24.4-59-54.4c0.1-30.1 26.5-54.3 59.1-54.3c32.7 0 59.1 24.4 59 54.4c0 30.1-26.4 54.3-59.1 54.3zm-509.2 1.7c0.1-61.2 53.9-110.5 120.7-110.5c66.5 0.1 120.2 49.6 120.1 110.8c0 61.1-53.8 110.5-120.3 110.5c-66.8-0.1-120.5-49.9-120.5-110.8zm-79.3 126.2c0.1-30.3 26.2-54.3 59.1-54.3c32.9 0 59.1 24.5 59 54.4c0 30.3-26.5 54.3-59 54.3c-32.6-0.1-58.7-24.5-59.1-54.4zm281.2 0.3c0-30.3 26.5-54.3 59.1-54.3c32.8 0 59 24.5 59 54.4c-0.1 30.3-26.6 54.3-59.1 54.3c-32.6-0.1-58.7-24.5-59-54.4zm-140.8 65.2c0-29.9 26.9-54.6 59.4-54.6c32.2 0.1 59.1 24.8 59 54.7c0 29.6-26.9 54.3-59.1 54.3c-32.5 0-59-24.8-59.3-54.4zm-329.3 53.7c-66.5-0.1-120.2-49.7-120.1-110.9c0-61.3 53.8-110.8 120.3-110.7c66.5 0.1 120.2 49.7 120.1 110.9c0 61.3-53.8 110.7-120.3 110.7zm-140.4-182.7c-32.8 0-59.2-24.4-59.2-54.6c0-30.1 26.5-54.4 59.3-54.4c32.7 0 59.2 24.4 59.2 54.6c-0.1 30.1-26.6 54.4-59.3 54.4zm281.1 0.3c-32.8 0-59.2-24.4-59.2-54.6c0.1-30.1 26.6-54.4 59.3-54.4c32.8 0 59.2 24.4 59.2 54.6c0 30.1-26.5 54.4-59.3 54.4zm-140.5-65.5c-32.7-0.1-59-24.4-59-54.4c0-30.1 26.4-54.3 59.1-54.3c32.7 0 59 24.3 59 54.4c0 30-26.5 54.3-59.1 54.3zm-509.2 1.7c0.1-61.2 53.8-110.6 120.7-110.5c66.4 0.1 120.2 49.6 120.1 110.7c0 61.2-53.8 110.6-120.3 110.5c-66.8 0-120.5-49.9-120.5-110.7zm-79.3 126.1c0-30.2 26.6-54.3 59.1-54.2c32.9 0 59 24.4 59 54.4c0 30.2-26.5 54.3-59.1 54.2c-32.5 0-58.7-24.4-59-54.4zm281.1 0.3c0.1-30.2 26.6-54.3 59.1-54.2c32.9 0 59.1 24.4 59 54.4c0 30.2-26.5 54.3-59.1 54.2c-32.5 0-58.6-24.4-59-54.4zm-140.8 65.3c0.1-29.9 27-54.6 59.5-54.6c32.2 0 59 24.8 59 54.7c0 29.6-26.9 54.3-59.1 54.3c-32.5 0-59-24.8-59.4-54.4zm-329.2 53.7c-66.5-0.1-120.2-49.7-120.2-111c0.1-61.2 53.9-110.7 120.4-110.6c66.5 0.1 120.2 49.6 120.1 110.9c-0.1 61.3-53.9 110.7-120.3 110.7zm-140.5-182.7c-32.7-0.1-59.2-24.4-59.1-54.6c0-30.1 26.5-54.5 59.3-54.4c32.7 0 59.2 24.4 59.1 54.5c0 30.2-26.5 54.5-59.3 54.5zm281.2 0.3c-32.8-0.1-59.2-24.4-59.2-54.6c0-30.1 26.5-54.5 59.3-54.4c32.7 0 59.2 24.4 59.2 54.5c-0.1 30.2-26.6 54.5-59.3 54.5zm-140.5-65.6c-32.7 0-59.1-24.3-59-54.4c0-30 26.4-54.3 59.1-54.2c32.6 0 59 24.3 59 54.4c-0.1 30-26.5 54.3-59.1 54.2zm-509.2 1.8c0-61.2 53.8-110.6 120.6-110.5c66.5 0 120.2 49.6 120.2 110.7c-0.1 61.2-53.8 110.6-120.3 110.5c-66.9-0.1-120.6-49.9-120.5-110.7zm-79.3 126.1c0-30.2 26.2-54.3 59.1-54.2c32.9 0 59 24.4 59 54.3c0 30.3-26.6 54.4-59.1 54.3c-32.5 0-58.7-24.4-59-54.4zm281.1 0.3c0-30.2 26.6-54.3 59.1-54.3c32.9 0.1 59 24.5 59 54.4c0 30.3-26.6 54.4-59.1 54.3c-32.5 0-58.7-24.4-59-54.4zm-140.8 65.3c0-30 26.9-54.7 59.5-54.6c32.1 0 59 24.8 59 54.7c0 29.6-26.9 54.3-59.1 54.3c-32.5-0.1-59.1-24.8-59.4-54.4zm-329.3 53.6c-66.5 0-120.1-49.6-120.1-110.9c0.1-61.2 53.9-110.7 120.4-110.6c66.4 0 120.1 49.6 120.1 110.9c-0.1 61.2-53.9 110.7-120.4 110.6zm-140.4-182.6c-32.7-0.1-59.2-24.5-59.2-54.6c0.1-30.1 26.6-54.5 59.3-54.4c32.8 0 59.2 24.4 59.2 54.5c0 30.2-26.5 54.5-59.3 54.5zm280.8 0.3c-32.8-0.1-59.2-24.5-59.2-54.6c0-30.1 26.5-54.5 59.3-54.4c32.8 0 59.2 24.4 59.2 54.5c-0.1 30.2-26.6 54.5-59.3 54.5zm-140.2-65.6c-32.6 0-59-24.3-59-54.4c0.1-30 26.5-54.3 59.1-54.3c32.7 0.1 59.1 24.4 59 54.4c0 30.1-26.4 54.3-59.1 54.3zm-509.2 1.7c0.1-61.1 53.9-110.5 120.7-110.4c66.5 0 120.2 49.5 120.2 110.7c-0.1 61.2-53.9 110.6-120.4 110.5c-66.8-0.1-120.5-49.9-120.5-110.8zm-79.3 126.2c0.1-30.3 26.6-54.3 59.1-54.3c32.9 0.1 59.1 24.5 59.1 54.4c-0.1 30.3-26.6 54.3-59.1 54.3c-32.6 0-58.7-24.5-59.1-54.4zm281.2 0.3c0-30.3 26.5-54.3 59.1-54.3c32.8 0.1 59 24.5 59 54.4c-0.1 30.3-26.6 54.3-59.1 54.3c-32.6 0-59.1-24.5-59-54.4zm-140.8 65.2c0-29.9 26.9-54.6 59.4-54.6c32.2 0.1 59.1 24.8 59 54.8c0 29.6-26.9 54.3-59 54.2c-32.6 0-59.4-24.7-59.4-54.4zm-329.3 53.7c-66.5-0.1-120.2-49.6-120.1-110.9c0.1-61.3 53.8-110.7 120.3-110.7c66.5 0.1 120.2 49.7 120.1 111c0 61.2-53.8 110.7-120.3 110.6zm-140.4-182.7c-32.8 0-59.2-24.4-59.2-54.5c0-30.2 26.5-54.5 59.3-54.5c32.8 0.1 59.2 24.5 59.2 54.6c-0.1 30.1-26.6 54.5-59.3 54.4zm280.8 0.3c-32.8 0-59.3-24.4-59.2-54.5c0-30.2 26.5-54.5 59.3-54.5c32.7 0.1 59.2 24.5 59.1 54.6c0 30.1-26.5 54.5-59.2 54.4zm-140.2-65.5c-32.7 0-59-24.4-59-54.4c0-30.1 26.5-54.3 59.1-54.3c32.7 0 59 24.4 59 54.4c0 30.1-26.5 54.3-59.1 54.3zm-307.4 128.2c0.1-30.3 26.2-54.3 59.1-54.3c32.9 0 59.1 24.5 59 54.4c0 30.3-26.5 54.3-59.1 54.3c-32.5-0.1-59-24.5-59-54.4zm4830.5-478.7c-32.8-0.1-59.2-24.4-59.2-54.4c0-30.1 26.5-54.3 59.3-54.3c32.7 0 59.2 24.4 59.2 54.4c-0.1 30.1-26.6 54.3-59.3 54.3zm-368.2-63.2c0-61.5 53.8-110.9 120.6-110.8c66.5 0.1 120.2 49.6 120.2 111.1c-0.1 61.1-53.9 110.5-120.3 110.4c-66.9 0-120.9-49.9-120.5-110.7zm-79.3 126.2c0-30 26.2-54.7 59-54.6c32.9 0 59.1 24.7 59.1 54.7c-0.1 30.2-26.6 54.3-59.1 54.3c-32.9-0.1-59.1-24.5-59-54.4zm281.1 0.3c0-30 26.5-54.7 59.1-54.6c32.9 0 59 24.7 59 54.7c0 30.2-26.6 54.3-59.1 54.3c-32.9-0.1-59-24.5-59-54.4zm-140.8 64.6c0-30.3 26.9-54.4 59.4-54.3c32.2 0 59.1 24.4 59.1 54.4c-0.1 30.2-27 54.3-59.1 54.2c-32.6 0-59.4-24.1-59.4-54.3zm-329.6 53.9c-66.5 0-120.2-49.5-120.2-110.7c0.1-61.2 53.9-110.6 120.4-110.5c66.5 0.1 120.2 49.6 120.1 110.7c-0.1 61.2-53.9 110.6-120.3 110.5zm-140.5-182.6c-32.7-0.1-59.2-24.4-59.1-54.4c0-30.1 26.5-54.3 59.3-54.3c32.7 0 59.2 24.3 59.1 54.4c0 30-26.5 54.3-59.3 54.3zm281.2 0.3c-32.8-0.1-59.2-24.4-59.2-54.4c0-30.1 26.5-54.3 59.3-54.3c32.7 0 59.2 24.3 59.1 54.4c0 30-26.5 54.3-59.2 54.3zm-140.6-65.3c-32.6 0-59-24.4-58.9-54.5c0-30.2 26.4-54.5 59.1-54.5c32.6 0.1 59 24.5 59 54.6c-0.1 30.1-26.5 54.5-59.2 54.4zm-508.8 1.8c0.1-61.5 53.8-110.9 120.7-110.8c66.5 0 120.2 49.5 120.1 111c0 61.2-53.8 110.6-120.3 110.5c-66.8 0-120.9-49.9-120.5-110.7zm-79.3 126.1c0-29.9 26.6-54.6 59.1-54.6c32.9 0.1 59.1 24.8 59 54.8c0 30.2-26.5 54.3-59.1 54.2c-32.8 0-59-24.4-59-54.4zm280.8 0.3c0-29.9 26.2-54.6 59.1-54.6c32.9 0.1 59 24.8 59 54.8c0 30.2-26.6 54.3-59.1 54.2c-32.5 0-58.7-24.4-59-54.4zm-140.4 64.6c0-30.2 26.9-54.3 59.4-54.2c32.2 0 59 24.4 59 54.4c0 30.2-26.9 54.3-59.1 54.2c-32.9 0-59.4-24.1-59.3-54.4zm-329.7 54c-66.5-0.1-120.2-49.6-120.1-110.7c0.1-61.2 53.9-110.6 120.4-110.5c66.4 0 120.1 49.5 120.1 110.7c-0.1 61.2-53.9 110.6-120.4 110.5zm-140.4-182.7c-32.7 0-59.2-24.3-59.2-54.4c0.1-30 26.6-54.3 59.3-54.2c32.8 0 59.2 24.3 59.2 54.4c0 30-26.5 54.3-59.3 54.2zm281.1 0.3c-32.7 0-59.2-24.3-59.1-54.4c0-30 26.5-54.3 59.2-54.2c32.8 0 59.2 24.3 59.2 54.4c0 30-26.5 54.3-59.3 54.2zm-140.5-65.2c-32.6 0-59-24.4-59-54.5c0.1-30.2 26.5-54.5 59.1-54.5c32.7 0.1 59.1 24.4 59 54.6c0 30.1-26.4 54.4-59.1 54.4zm-509.2 1.8c0.1-61.5 53.9-110.9 120.7-110.9c66.5 0.1 120.2 49.6 120.1 111.1c0 61.2-53.8 110.6-120.3 110.5c-66.8-0.1-120.5-49.9-120.5-110.7zm-79.3 126.1c0.1-29.9 26.2-54.6 59.1-54.6c32.9 0 59.1 24.8 59 54.7c0 30.3-26.5 54.3-59 54.3c-32.6 0-58.7-24.5-59.1-54.4zm281.2 0.3c0-29.9 26.5-54.6 59-54.6c32.9 0 59.1 24.8 59.1 54.7c-0.1 30.3-26.6 54.3-59.1 54.3c-32.6 0-58.7-24.5-59-54.4zm-140.8 64.6c0-30.3 26.9-54.3 59.4-54.3c32.2 0.1 59.1 24.5 59 54.4c0 30.3-26.9 54.3-59.1 54.3c-32.5 0-59-24.1-59.3-54.4zm-329.3 54c-66.5-0.1-120.2-49.6-120.1-110.8c0-61.1 53.8-110.5 120.3-110.5c66.5 0.1 120.2 49.6 120.1 110.8c0 61.2-53.8 110.6-120.3 110.5zm-140.4-182.7c-32.8 0-59.2-24.3-59.2-54.4c0-30 26.5-54.3 59.3-54.3c32.7 0.1 59.2 24.4 59.2 54.4c-0.1 30.1-26.6 54.3-59.3 54.3zm281.1 0.3c-32.8 0-59.2-24.3-59.2-54.4c0.1-30 26.6-54.3 59.3-54.3c32.8 0.1 59.2 24.4 59.2 54.4c0 30.1-26.5 54.3-59.3 54.3zm-140.5-65.2c-32.7 0-59-24.4-59-54.6c0-30.1 26.4-54.4 59.1-54.4c32.7 0 59 24.4 59 54.6c0 30.1-26.5 54.4-59.1 54.4zm-509.2 1.7c0-61.5 53.8-110.9 120.7-110.8c66.4 0.1 120.2 49.6 120.1 111.1c0 61.2-53.8 110.6-120.3 110.5c-66.8-0.1-120.5-49.9-120.5-110.8zm-79.3 126.2c0-29.9 26.6-54.6 59.1-54.6c32.9 0 59 24.8 59 54.7c0 30.3-26.5 54.3-59.1 54.3c-32.5-0.1-58.7-24.5-59-54.4zm281.1 0.3c0-29.9 26.6-54.6 59.1-54.6c32.9 0 59.1 24.8 59 54.7c0 30.3-26.5 54.3-59.1 54.3c-32.5-0.1-58.6-24.5-59-54.4zm-140.8 64.6c0.1-30.3 27-54.3 59.5-54.3c32.2 0 59 24.5 59 54.4c0 30.3-26.9 54.3-59.1 54.3c-32.5-0.1-59-24.2-59.4-54.4zm-329.2 54c-66.5-0.1-120.2-49.6-120.2-110.8c0.1-61.2 53.9-110.5 120.4-110.5c66.5 0.1 120.2 49.6 120.1 110.8c-0.1 61.1-53.9 110.5-120.3 110.5zm-140.5-182.7c-32.7 0-59.2-24.4-59.1-54.4c0-30.1 26.5-54.3 59.3-54.3c32.7 0.1 59.2 24.4 59.1 54.4c0 30.1-26.5 54.3-59.3 54.3zm281.2 0.3c-32.8 0-59.2-24.4-59.2-54.4c0-30.1 26.5-54.3 59.3-54.3c32.7 0.1 59.2 24.4 59.2 54.4c-0.1 30.1-26.6 54.3-59.3 54.3zm-140.5-65.2c-32.7-0.1-59.1-24.5-59-54.6c0-30.1 26.4-54.5 59.1-54.4c32.6 0 59 24.4 59 54.5c-0.1 30.2-26.5 54.5-59.1 54.5zm-509.2 1.7c0-61.5 53.8-110.9 120.6-110.8c66.5 0.1 120.2 49.6 120.2 111.1c-0.1 61.1-53.8 110.5-120.3 110.5c-66.9-0.1-120.6-50-120.5-110.8zm-79.3 126.2c0-30 26.2-54.7 59.1-54.6c32.9 0 59 24.8 59 54.7c0 30.2-26.6 54.3-59.1 54.3c-32.5-0.1-58.7-24.5-59-54.4zm281.1 0.3c0-30 26.6-54.7 59.1-54.6c32.9 0 59 24.8 59 54.7c0 30.2-26.6 54.3-59.1 54.3c-32.5-0.1-58.7-24.5-59-54.4zm-140.8 64.6c0-30.3 26.9-54.3 59.5-54.3c32.1 0 59 24.4 59 54.4c-0.1 30.2-26.9 54.3-59.1 54.3c-32.6-0.1-59.1-24.2-59.4-54.4zm-329.3 53.9c-66.5 0-120.1-49.5-120.1-110.7c0.1-61.2 53.9-110.6 120.4-110.5c66.4 0.1 120.1 49.6 120.1 110.7c-0.1 61.2-53.9 110.6-120.4 110.5zm-140.4-182.6c-32.7-0.1-59.2-24.4-59.2-54.4c0.1-30.1 26.6-54.3 59.3-54.3c32.8 0 59.2 24.3 59.2 54.4c0 30-26.5 54.3-59.3 54.3zm280.8 0.3c-32.8-0.1-59.2-24.4-59.2-54.4c0-30.1 26.5-54.3 59.3-54.3c32.7 0 59.2 24.3 59.2 54.4c-0.1 30-26.6 54.3-59.3 54.3zm-140.2-65.3c-32.6 0-59-24.4-59-54.5c0.1-30.2 26.5-54.5 59.1-54.4c32.7 0 59.1 24.4 59 54.5c0 30.1-26.4 54.5-59.1 54.4zm-509.2 1.8c0.1-61.5 53.9-110.9 120.7-110.8c66.5 0 120.2 49.5 120.1 111c0 61.2-53.8 110.6-120.3 110.5c-66.8 0-120.5-49.9-120.5-110.7zm-79.3 126.1c0.1-29.9 26.6-54.6 59.1-54.6c32.9 0.1 59.1 24.8 59 54.8c0 30.2-26.5 54.3-59 54.2c-32.6 0-58.7-24.4-59.1-54.4zm281.2 0.3c0-29.9 26.5-54.6 59.1-54.6c32.8 0.1 59 24.8 59 54.8c-0.1 30.2-26.6 54.3-59.1 54.2c-32.6 0-59.1-24.4-59-54.4zm-140.8 64.6c0-30.2 26.9-54.3 59.4-54.2c32.2 0 59.1 24.4 59 54.4c0 30.2-26.9 54.3-59.1 54.2c-32.5 0-59.3-24.1-59.3-54.4zm-329.3 54c-66.5-0.1-120.2-49.6-120.1-110.7c0-61.2 53.8-110.6 120.3-110.5c66.5 0 120.2 49.6 120.1 110.7c0 61.2-53.8 110.6-120.3 110.5zm-140.4-182.7c-32.8 0-59.2-24.3-59.2-54.4c0-30 26.5-54.3 59.3-54.2c32.8 0 59.2 24.3 59.2 54.4c-0.1 30-26.6 54.3-59.3 54.2zm280.7 0.3c-32.7 0-59.2-24.3-59.1-54.4c0-30 26.5-54.3 59.3-54.2c32.7 0 59.2 24.3 59.1 54.4c0 30-26.5 54.3-59.3 54.2zm-140.1-65.2c-32.7 0-59-24.4-59-54.5c0-30.2 26.4-54.5 59.1-54.5c32.7 0.1 59 24.5 59 54.6c0 30.1-26.5 54.5-59.1 54.4zm-307.4 128.2c0.1-29.9 26.2-54.6 59.1-54.6c32.9 0.1 59.1 24.8 59 54.7c0 30.3-26.5 54.3-59.1 54.3c-32.5 0-59-24.5-59-54.4zm4830.5-478.7c-32.8 0-59.2-24.3-59.2-54.4c0-30 26.5-54.3 59.3-54.2c32.7 0 59.2 24.3 59.2 54.4c-0.1 30-26.6 54.3-59.3 54.2zm-368.2-63.8c0-61.2 53.8-110.6 120.6-110.5c66.5 0.1 120.2 49.6 120.2 110.7c-0.1 61.5-53.9 110.9-120.3 110.9c-66.9-0.1-120.9-49.6-120.5-111.1zm-79.3 126.1c0-30.2 26.2-54.3 59-54.2c32.9 0 59.1 24.4 59.1 54.4c-0.1 30.2-26.6 54.3-59.1 54.2c-32.9 0-59.1-24.1-59-54.4zm281.1 0.3c0-30.2 26.5-54.3 59.1-54.2c32.8 0 59 24.4 59 54.4c0 30.2-26.6 54.3-59.1 54.2c-32.9 0-59-24.1-59-54.4zm-140.8 65.3c0-30.3 26.9-54.3 59.4-54.3c32.2 0.1 59.1 24.2 59 54.4c0 30.3-26.9 54.3-59 54.3c-32.6 0-59.4-24.2-59.4-54.4zm-329.7 54c-66.4-0.1-120.1-49.6-120.1-110.8c0.1-61.1 53.9-110.5 120.4-110.5c66.5 0.1 120.2 49.6 120.1 110.8c-0.1 61.2-53.9 110.5-120.4 110.5zm-140.4-182.7c-32.7 0-59.2-24.4-59.1-54.4c0-30 26.5-54.3 59.3-54.3c32.7 0.1 59.2 24.4 59.1 54.4c0 30.1-26.5 54.3-59.3 54.3zm281.2 0.3c-32.8 0-59.2-24.4-59.2-54.4c0-30 26.5-54.3 59.3-54.3c32.7 0.1 59.2 24.4 59.1 54.4c0 30.1-26.5 54.3-59.2 54.3zm-140.6-65.5c-32.6-0.1-59-24.4-59-54.4c0.1-30.1 26.5-54.4 59.2-54.3c32.6 0 59 24.3 59 54.4c-0.1 30-26.5 54.3-59.2 54.3zm-508.8 1.4c0.1-61.2 53.8-110.6 120.7-110.5c66.5 0 120.2 49.6 120.1 110.7c0 61.5-53.8 110.9-120.3 110.8c-66.8 0-120.9-49.5-120.5-111zm-79.3 126.1c0-30.2 26.6-54.3 59.1-54.3c32.9 0.1 59 24.5 59 54.4c0 30.3-26.5 54.4-59.1 54.3c-32.8 0-59-24.1-59-54.4zm280.8 0.3c0-30.2 26.2-54.3 59.1-54.3c32.9 0.1 59 24.5 59 54.4c0 30.3-26.6 54.3-59.1 54.3c-32.5 0-58.7-24.1-59-54.4zm-140.4 65.3c0-30.3 26.9-54.3 59.4-54.3c32.2 0 59 24.1 59 54.4c0 30.2-26.9 54.3-59.1 54.3c-32.9-0.1-59.4-24.2-59.3-54.4zm-329.7 54c-66.5-0.1-120.2-49.6-120.1-110.8c0.1-61.2 53.9-110.6 120.4-110.5c66.4 0.1 120.1 49.6 120.1 110.8c-0.1 61.1-53.9 110.5-120.4 110.5zm-140.4-182.7c-32.7-0.1-59.2-24.4-59.2-54.4c0.1-30.1 26.6-54.3 59.3-54.3c32.8 0 59.2 24.4 59.2 54.4c0 30.1-26.5 54.3-59.3 54.3zm281.1 0.3c-32.7-0.1-59.2-24.4-59.1-54.4c0-30.1 26.5-54.3 59.2-54.3c32.8 0 59.2 24.4 59.2 54.4c0 30-26.5 54.3-59.3 54.3zm-140.5-65.6c-32.6 0-59-24.3-59-54.4c0-30 26.5-54.3 59.1-54.2c32.7 0 59.1 24.3 59 54.4c0 30-26.4 54.3-59.1 54.2zm-509.2 1.4c0.1-61.1 53.9-110.5 120.7-110.5c66.5 0.1 120.2 49.6 120.1 110.8c0 61.5-53.8 110.9-120.3 110.8c-66.8-0.1-120.5-49.6-120.5-111.1zm-79.3 126.2c0.1-30.3 26.2-54.3 59.1-54.3c32.9 0.1 59.1 24.5 59 54.4c0 30.3-26.5 54.3-59 54.3c-32.6 0-58.7-24.1-59.1-54.4zm281.2 0.3c0-30.3 26.5-54.3 59-54.3c32.9 0.1 59.1 24.5 59.1 54.4c-0.1 30.3-26.6 54.3-59.1 54.3c-32.6 0-58.7-24.1-59-54.4zm-140.8 65.2c0-30.2 26.9-54.3 59.4-54.2c32.2 0 59.1 24.1 59 54.4c0 30.2-26.9 54.3-59.1 54.2c-32.5 0-59.3-24.1-59.3-54.4zm-329.3 54c-66.5 0-120.2-49.5-120.1-110.7c0-61.2 53.8-110.6 120.3-110.5c66.5 0.1 120.2 49.6 120.1 110.7c0 61.2-53.8 110.6-120.3 110.5zm-140.4-182.6c-32.8-0.1-59.2-24.4-59.2-54.4c0-30.1 26.5-54.4 59.3-54.3c32.7 0 59.2 24.3 59.2 54.4c-0.1 30-26.6 54.3-59.3 54.3zm281.1 0.3c-32.8-0.1-59.2-24.4-59.2-54.4c0.1-30.1 26.6-54.4 59.3-54.3c32.8 0 59.2 24.3 59.2 54.4c-0.1 30-26.6 54.3-59.3 54.3zm-140.5-65.6c-32.7 0-59-24.3-59-54.4c0-30 26.4-54.3 59.1-54.3c32.7 0.1 59 24.4 59 54.4c0 30.1-26.5 54.3-59.1 54.3zm-509.2 1.4c0-61.2 53.8-110.5 120.7-110.5c66.4 0.1 120.2 49.6 120.1 110.8c0 61.5-53.8 110.9-120.3 110.8c-66.8-0.1-120.5-49.6-120.5-111.1zm-79.3 126.2c0-30.3 26.6-54.3 59.1-54.3c32.9 0 59 24.5 59 54.4c0 30.3-26.5 54.3-59.1 54.3c-32.5-0.1-58.7-24.2-59-54.4zm281.1 0.3c0-30.3 26.6-54.3 59.1-54.3c32.9 0 59.1 24.5 59 54.4c0 30.3-26.5 54.3-59.1 54.3c-32.5-0.1-58.6-24.2-59-54.4zm-140.8 65.2c0.1-30.2 27-54.3 59.5-54.3c32.2 0.1 59 24.2 59 54.4c0 30.3-26.9 54.3-59.1 54.3c-32.5 0-59.4-24.1-59.4-54.4zm-329.2 54c-66.5-0.1-120.2-49.6-120.2-110.7c0.1-61.2 53.9-110.6 120.4-110.5c66.5 0 120.2 49.5 120.1 110.7c-0.1 61.2-53.9 110.6-120.3 110.5zm-140.5-182.7c-32.7 0-59.2-24.3-59.1-54.4c0-30 26.5-54.3 59.3-54.2c32.7 0 59.2 24.3 59.1 54.4c0 30-26.5 54.3-59.3 54.2zm281.2 0.3c-32.8 0-59.2-24.3-59.2-54.4c0-30 26.5-54.3 59.3-54.2c32.7 0 59.2 24.3 59.1 54.4c0 30-26.5 54.3-59.2 54.2zm-140.6-65.5c-32.6-0.1-59-24.4-58.9-54.4c0-30.1 26.4-54.3 59.1-54.3c32.6 0 59 24.4 59 54.4c-0.1 30.1-26.5 54.3-59.2 54.3zm-509.1 1.4c0-61.2 53.8-110.6 120.6-110.5c66.5 0.1 120.2 49.6 120.2 110.7c-0.1 61.5-53.8 110.9-120.3 110.9c-66.9-0.1-120.6-49.6-120.5-111.1zm-79.3 126.1c0-30.2 26.2-54.3 59.1-54.2c32.9 0 59 24.4 59 54.4c0 30.2-26.6 54.3-59.1 54.2c-32.5 0-58.7-24.1-59-54.4zm281.1 0.3c0-30.2 26.6-54.3 59.1-54.2c32.9 0 59 24.4 59 54.4c0 30.2-26.6 54.3-59.1 54.2c-32.5 0-58.7-24.1-59-54.4zm-140.8 65.3c0-30.3 26.9-54.3 59.5-54.3c32.1 0.1 59 24.2 59 54.4c-0.1 30.3-26.9 54.3-59.1 54.3c-32.6 0-59.4-24.1-59.4-54.4zm-329.3 54c-66.5-0.1-120.2-49.6-120.1-110.8c0.1-61.1 53.9-110.5 120.4-110.5c66.4 0.1 120.1 49.6 120.1 110.8c-0.1 61.2-53.9 110.6-120.4 110.5zm-140.4-182.7c-32.7 0-59.2-24.3-59.2-54.4c0.1-30 26.6-54.3 59.3-54.3c32.8 0.1 59.2 24.4 59.2 54.4c0 30.1-26.5 54.3-59.3 54.3zm280.8 0.3c-32.8 0-59.2-24.3-59.2-54.4c0-30 26.5-54.3 59.3-54.3c32.7 0.1 59.2 24.4 59.2 54.4c-0.1 30.1-26.6 54.3-59.3 54.3zm-140.2-65.5c-32.6-0.1-59-24.4-59-54.4c0.1-30.1 26.5-54.3 59.1-54.3c32.7 0 59.1 24.3 59 54.4c0 30-26.4 54.3-59.1 54.3zm-509.2 1.4c0.1-61.2 53.9-110.6 120.7-110.5c66.5 0 120.2 49.6 120.1 110.7c0 61.5-53.8 110.9-120.3 110.8c-66.8 0-120.5-49.5-120.5-111zm-79.3 126.1c0.1-30.2 26.6-54.3 59.1-54.2c32.9 0 59.1 24.4 59 54.4c0 30.2-26.5 54.3-59 54.2c-32.6 0-58.7-24.1-59.1-54.4zm281.2 0.3c0-30.2 26.5-54.3 59.1-54.2c32.8 0 59 24.4 59 54.3c-0.1 30.3-26.6 54.4-59.1 54.3c-32.6 0-59.1-24.1-59-54.4zm-140.8 65.3c0-30.3 26.9-54.3 59.4-54.3c32.2 0 59.1 24.1 59 54.4c0 30.3-26.9 54.3-59.1 54.3c-32.5-0.1-59.3-24.2-59.3-54.4zm-329.3 54c-66.5-0.1-120.2-49.6-120.1-110.8c0-61.2 53.8-110.6 120.3-110.5c66.5 0.1 120.2 49.6 120.1 110.8c0 61.1-53.8 110.5-120.3 110.5zm-140.4-182.7c-32.8-0.1-59.2-24.4-59.2-54.4c0-30.1 26.5-54.3 59.3-54.3c32.7 0 59.2 24.4 59.2 54.4c-0.1 30.1-26.6 54.3-59.3 54.3zm280.7 0.3c-32.7-0.1-59.2-24.4-59.1-54.4c0-30.1 26.5-54.3 59.3-54.3c32.7 0 59.2 24.4 59.1 54.4c0 30.1-26.5 54.3-59.3 54.3zm-140.1-65.6c-32.7 0-59-24.3-59-54.4c0-30 26.4-54.3 59.1-54.2c32.7 0 59 24.3 59 54.4c0 30-26.5 54.3-59.1 54.2zm-307.4 128.2c0-29.9 26.2-54.6 59.1-54.6c32.9 0.1 59.1 24.5 59 54.4c0 30.3-26.5 54.3-59.1 54.3c-32.5 0-59-24.1-59-54.1zm4830.5-478.3c-32.8-0.1-59.2-24.4-59.2-54.4c0-30.1 26.5-54.3 59.3-54.3c32.7 0 59.2 24.3 59.2 54.4c-0.1 30-26.6 54.3-59.3 54.3zm-447.5 62.3c0-30.3 26.2-54.3 59-54.3c32.9 0 59.1 24.1 59.1 54.4c-0.1 30.3-26.6 54.3-59.1 54.3c-32.9-0.1-59.1-24.2-59-54.4zm281.1 0.3c0-30.3 26.5-54.3 59.1-54.3c32.8 0 59 24.1 59 54.4c0 30.3-26.6 54.3-59.1 54.3c-32.9-0.1-59.1-24.2-59-54.4zm-140.8 65.2c0-30.2 26.9-54.3 59.4-54.2c32.2 0 59.1 24.4 59 54.4c0 30.2-26.9 54.3-59 54.2c-32.6 0-59.4-24.4-59.4-54.4zm-329.7 53.7c-66.4-0.1-120.1-49.7-120.1-110.9c0.1-61.3 53.9-110.8 120.4-110.7c66.5 0.1 120.2 49.7 120.1 110.9c-0.1 61.3-53.9 110.8-120.4 110.7zm-140.4-182.4c-32.7 0-59.2-24.3-59.1-54.4c0-30 26.5-54.3 59.3-54.2c32.7 0 59.2 24.3 59.1 54.4c0 30-26.5 54.3-59.3 54.2zm281.2 0.3c-32.8 0-59.2-24.3-59.2-54.4c0-30 26.5-54.3 59.3-54.2c32.7 0 59.2 24.3 59.1 54.4c0 30-26.5 54.3-59.2 54.2zm-728.7 62.1c0-30.3 26.6-54.3 59.1-54.3c32.9 0 59 24.1 59 54.4c0 30.2-26.5 54.3-59.1 54.3c-32.9-0.1-59-24.2-59-54.4zm280.8 0.3c0-30.3 26.2-54.4 59.1-54.3c32.9 0 59 24.1 59 54.4c0 30.2-26.6 54.3-59.1 54.3c-32.5-0.1-59-24.2-59-54.4zm-140.4 65.2c0-30.3 26.9-54.3 59.4-54.3c32.2 0.1 59 24.5 59 54.4c0 30.3-26.9 54.3-59.1 54.3c-32.9 0-59.4-24.5-59.3-54.4zm-329.7 53.7c-66.5-0.1-120.2-49.7-120.1-110.9c0.1-61.3 53.9-110.8 120.4-110.7c66.4 0.1 120.1 49.6 120.1 110.9c-0.1 61.3-53.9 110.7-120.4 110.7zm-140.4-182.4c-32.7 0-59.2-24.3-59.2-54.4c0.1-30 26.6-54.3 59.3-54.3c32.8 0.1 59.2 24.4 59.2 54.4c0 30.1-26.5 54.3-59.3 54.3zm281.1 0.3c-32.7 0-59.2-24.3-59.1-54.4c0-30 26.5-54.3 59.2-54.3c32.8 0.1 59.2 24.4 59.2 54.4c0 30.1-26.5 54.3-59.3 54.3zm-729 62c0.1-30.2 26.2-54.3 59.1-54.2c32.9 0 59.1 24.1 59 54.4c0 30.2-26.5 54.3-59.1 54.2c-32.5 0-59-24.1-59-54.4zm281.2 0.3c0-30.2 26.5-54.3 59-54.2c32.9 0 59.1 24.1 59.1 54.4c-0.1 30.2-26.6 54.3-59.1 54.2c-32.6 0-59.1-24.1-59-54.4zm-140.8 65.3c0-30.3 26.9-54.3 59.4-54.3c32.2 0 59.1 24.5 59 54.4c0 30.3-26.9 54.3-59.1 54.3c-32.5-0.1-59-24.5-59.3-54.4zm-329.3 53.6c-66.5 0-120.2-49.6-120.1-110.9c0-61.2 53.8-110.7 120.3-110.6c66.5 0 120.2 49.6 120.1 110.9c0 61.2-53.8 110.7-120.3 110.6zm-140.4-182.3c-32.8 0-59.2-24.4-59.2-54.4c0-30.1 26.5-54.3 59.3-54.3c32.7 0.1 59.2 24.4 59.2 54.4c-0.1 30.1-26.6 54.3-59.3 54.3zm281.1 0.3c-32.8 0-59.2-24.4-59.2-54.4c0.1-30.1 26.6-54.3 59.3-54.3c32.8 0.1 59.2 24.4 59.2 54.4c-0.1 30.1-26.6 54.3-59.3 54.3zm-729 62c0-30.2 26.6-54.3 59.1-54.3c32.9 0.1 59 24.2 59 54.4c0 30.3-26.6 54.3-59.1 54.3c-32.5 0-59-24.1-59-54.4zm281.1 0.3c0-30.3 26.6-54.3 59.1-54.3c32.9 0.1 59 24.2 59 54.4c0 30.3-26.5 54.3-59.1 54.3c-32.5 0-59-24.1-59-54.4zm-140.8 65.3c0.1-30.3 27-54.4 59.5-54.3c32.2 0 59 24.4 59 54.4c0 30.2-26.9 54.3-59.1 54.3c-32.5-0.1-59-24.5-59.4-54.4zm-329.2 53.6c-66.5-0.1-120.2-49.6-120.2-110.9c0.1-61.3 53.9-110.7 120.4-110.7c66.5 0.1 120.2 49.7 120.1 111c-0.1 61.2-53.9 110.7-120.3 110.6zm-140.5-182.3c-32.7-0.1-59.2-24.4-59.1-54.4c0-30.1 26.5-54.3 59.3-54.3c32.7 0 59.2 24.3 59.1 54.4c0 30-26.5 54.3-59.3 54.3zm281.2 0.3c-32.8-0.1-59.2-24.4-59.2-54.4c0-30.1 26.5-54.3 59.3-54.3c32.7 0 59.2 24.3 59.1 54.4c0 30-26.5 54.3-59.2 54.3zm-729 62c0-30.3 26.2-54.3 59.1-54.3c32.8 0 59 24.2 59 54.4c0 30.3-26.6 54.3-59.1 54.3c-32.5-0.1-59.1-24.2-59-54.4zm281.1 0.3c0-30.3 26.5-54.3 59.1-54.3c32.9 0 59 24.2 59 54.4c0 30.3-26.6 54.3-59.1 54.3c-32.5-0.1-59-24.2-59-54.4zm-140.8 65.2c0-30.2 26.9-54.3 59.5-54.2c32.1 0 59 24.4 59 54.4c-0.1 30.2-26.9 54.3-59.1 54.2c-32.6 0-59.1-24.4-59.4-54.4zm-329.3 53.7c-66.5-0.1-120.2-49.7-120.1-110.9c0.1-61.3 53.9-110.7 120.4-110.7c66.4 0.1 120.1 49.7 120.1 110.9c-0.1 61.3-53.9 110.8-120.4 110.7zm-140.4-182.4c-32.7 0-59.2-24.3-59.2-54.4c0.1-30 26.6-54.3 59.3-54.2c32.8 0 59.2 24.3 59.2 54.4c0 30-26.5 54.3-59.3 54.2zm280.8 0.3c-32.8 0-59.2-24.3-59.2-54.4c0-30 26.5-54.3 59.3-54.2c32.7 0 59.2 24.3 59.2 54.4c-0.1 30-26.6 54.3-59.3 54.2zm-728.7 62.1c0.1-30.3 26.6-54.3 59.1-54.3c32.9 0 59.1 24.1 59 54.4c0 30.2-26.5 54.3-59 54.3c-32.6-0.1-59.1-24.2-59.1-54.4zm281.2 0.3c0-30.3 26.5-54.3 59-54.3c32.9 0 59.1 24.1 59.1 54.4c-0.1 30.2-26.6 54.3-59.1 54.3c-32.6-0.1-59.1-24.2-59-54.4zm-140.8 65.2c0-30.2 26.9-54.3 59.4-54.3c32.2 0.1 59.1 24.5 59 54.4c0 30.3-26.9 54.3-59.1 54.3c-32.5 0-59.3-24.5-59.3-54.4zm-329.3 53.7c-66.5-0.1-120.2-49.7-120.1-110.9c0-61.3 53.8-110.8 120.3-110.7c66.5 0.1 120.2 49.6 120.1 110.9c0 61.3-53.8 110.7-120.3 110.7zm-140.4-182.4c-32.8 0-59.2-24.3-59.2-54.4c0-30 26.5-54.3 59.3-54.2c32.7 0 59.2 24.3 59.2 54.3c-0.1 30.1-26.6 54.4-59.3 54.3zm280.7 0.3c-32.7 0-59.2-24.3-59.1-54.4c0-30 26.5-54.3 59.3-54.3c32.7 0.1 59.2 24.4 59.1 54.4c0 30.1-26.5 54.4-59.3 54.3zm-447.5 62.7c0-30.3 25.9-54.3 58.8-54.3c32.8 0 59 24.5 59 54.4c0 29.9-26.2 54-58.8 53.9c-32.5 0-59-23.8-59-54z" />
			<g id="&lt;Group&gt;">
				<g id="&lt;Group&gt;">
				</g>
				<g id="&lt;Group&gt;">
				</g>
				<g id="&lt;Group&gt;">
					<path id="&lt;Compound Path&gt;" class="s2" d="m782.1 121.8c-21.2 0-38.4-19.1-38.4-42.7c0-23.6 17.2-42.6 38.4-42.6c21.2 0 38.4 19 38.4 42.6c0 23.6-17.2 42.7-38.4 42.7zm-353.2 176.8c-15.4 0-27.9-13.9-27.9-31.1c0-17.1 12.5-31 27.9-31c15.5 0 28 13.9 28 31c0 17.2-12.5 31.1-28 31.1z" />
					<path id="&lt;Compound Path&gt; copy 2" class="s2" d="m944.5 307.2c-12.4 0-22.5-11.2-22.5-25.1c0-13.9 10.1-25.2 22.5-25.2c12.4 0 22.5 11.3 22.5 25.2c0 13.9-10.1 25.1-22.5 25.1zm-206.5 104.3c-9 0-16.3-8.2-16.3-18.3c0-10.2 7.3-18.3 16.3-18.3c9 0 16.3 8.1 16.3 18.3c0 10.1-7.3 18.3-16.3 18.3z" />
					<path id="&lt;Compound Path&gt;" fill-rule="evenodd" class="s3" d="m945.2 309.5c-15 0-27.2-12.6-27.2-28.2c0-15.6 12.2-28.3 27.2-28.3c15 0 27.2 12.7 27.2 28.3c0 15.6-12.2 28.2-27.2 28.2zm11.9-28.2c0-6.9-5.3-12.5-11.9-12.5c-6.6 0-11.9 5.6-11.9 12.5c0 6.9 5.3 12.5 11.9 12.5c6.6 0 11.9-5.6 11.9-12.5z" />
					<path id="&lt;Compound Path&gt; copy" fill-rule="evenodd" class="s3" d="m430.7 304.4c-17.5 0-31.7-15.7-31.7-35c0-19.4 14.2-35.1 31.7-35.1c17.5 0 31.7 15.7 31.7 35.1c0 19.3-14.2 35-31.7 35zm13.9-35c0-8.6-6.2-15.6-13.9-15.6c-7.7 0-13.9 7-13.9 15.6c0 8.5 6.2 15.5 13.9 15.5c7.7 0 13.9-7 13.9-15.5z" />
					<path id="&lt;Compound Path&gt;" fill-rule="evenodd" class="s3" d="m783.9 138.9c-29 0-52.3-25.9-52.3-58c0-32 23.3-57.9 52.3-57.9c28.9 0 52.2 25.9 52.2 57.9c0 32.1-23.3 58-52.2 58zm34.4-57.8c0-21.2-15.4-38.3-34.4-38.3c-19.1 0-34.5 17.1-34.5 38.3c0 21.1 15.4 38.2 34.5 38.2c19 0 34.4-17.1 34.4-38.2z" />
					<path id="&lt;Compound Path&gt;" class="s4" d="m774.3 414.8l32.8 36.6l-1 2.8c-0.6 1.8-1.3 3.7-1.7 5.7l-0.8 3.3l-21.1-0.1l-33.3-37.1l6-2.3c5.6-1.8 11.2-4.3 16.4-7.3zm-219.3-205.4l-38.2-42.6c-5-5.3-5-14.3 0-19.6c4.8-5.3 12.7-5.2 17.6 0.1l35.3 39.6l-2.2 3c-3.8 4.8-6.9 9.6-9.8 14.9zm285.6-21.8l35.7-39.5c4.8-5.2 12.9-5.2 17.6 0.1c4.8 5.3 4.7 14.2 0 19.5l-38.4 42.5l-2.7-4.6c-2.9-5.3-6.2-10.2-9.7-15zm-180.2 238.2l-33.7 36.9h-20.9l-0.8-3.3c-0.4-2-1-3.9-1.7-5.7l-1-2.8l33-36.4l2.5 1.6c5.4 3 10.8 5.5 16.3 7.4z" />
					<path id="&lt;Compound Path&gt;" class="s3" d="m810.7 463.6l-47.3-52.7c0.6-0.7 1.5-1.4 2.1-2.1c1.9-0.5 3.5-1.1 5.2-2.3c3.5-1.1 6-3 8.5-5.9l41.3 46c-5.6 3.2-9.5 9.7-9.8 17zm-19 9.9c-6.4-1.4-13.3-1.9-18.9 2.7l-51.8-57.9c0.8 0 1.6-0.2 2.2-0.4h22.6l48.8 54.7c-1.1 0.2-1.9 0.4-2.9 0.9zm32-283.4c-1.4-1-2.7-2.1-3.9-3l45-49.8c10.2-11.3 27-11.2 37.1 0.1c9.7 10.8 10.1 28.3 1.2 39.8l34.9 38.9c3.3 3.7 3.3 9.7 0 13.3c-3.4 3.7-8.8 3.7-12.1 0l-34.9-38.9l-4.3 4.8l34.9 38.7c3.3 3.7 3.3 9.7 0 13.3c-3.4 3.7-8.7 3.7-12.1 0l-34.9-38.7l-4.1 4.8l34.7 38.7c3.3 3.7 3.3 9.7 0 13.4c-3.4 3.6-8.7 3.6-12.1-0.1l-34.7-38.7l-0.4 0.2c-0.2-3.4-1.2-6.9-2.2-10.1c-0.9-3-3.1-7.1-5.2-9.4l38.6-42.9c3.3-3.5 3.3-9.7 0-13.1c-3.3-3.7-8.6-3.7-12-0.1l-40 44.3c-1.1-0.4-2.1-0.4-2.7-0.9c-3.1-2.1-5.4-2.1-8.3-3.3q-1.2-0.6-2.5-1.3zm34.3 45.8l31 34.3c3.1 3.7 3.1 9.7 0 13.4c-3.4 3.6-8.9 3.6-12-0.1l-23.6-26.2c0.4-0.9 0.8-2.1 1-3.2c0.7-1.4 1.3-2.8 1.7-4.4c2.3-4.8 1.9-8.7 1.9-13.8zm-6.9 28.5l21.5 24c3.3 3.6 3.3 9.6 0 13.3c-3.3 3.4-8.7 3.4-12 0l-19.7-22.2c1.5-1.1 2.7-2.7 4.2-4.1c2.5-3 5.2-7.1 6-11zm-15.3 19l20.4 22.9c3.3 3.6 3.3 9.6 0 13.3c-3.3 3.7-8.7 3.6-12 0l-26.1-29.1c0.4-0.2 1.5-1.1 1.7-1.1c1.2-0.2 2.7-0.7 3.9-1.4c0.7-0.2 1.5-0.4 2.3-0.7c3.3-0.4 6.6-2 9.8-3.9zm-22.4 11.2l26.4 29.8c3.3 3.7 3.3 9.6 0 13.3c-3.3 3.7-8.7 3.7-12 0l-18.4-20.8l0.6-2.5c1.1-4.6 0.4-11-1.4-15.4c0.8-0.9 1.7-1.6 2.5-2.5l-1.3 0.7c1.1-0.7 2.3-1.6 3.6-2.6zm-135.9 125.5h5.8l-50.7 56h-0.6c-2.1-1-4.5-1.7-7-1.7c-1.5-0.4-2.7-0.7-4.2-0.7h0.6c-0.2 0-2.4-0.7-1-0.2c-2.5-1.8-5-2.8-7.8-3l49.8-55.1c4.9 4.6 9.1 4.7 15.1 4.7zm-89.1 22.5l34.6-38.3c3.3 3.2 7.5 5.3 12 5.3c2.7 0.7 5.2 0.7 7.9 0.7l-45.7 50.5c0.5-7.4-3-14.5-8.8-18.2zm10.2-137.2c0 3 0.6 5 1.4 7.8l-21.6 23.9c-3.3 3.6-8.7 3.6-12-0.1c-3.3-3.7-3.3-9.6 0.1-13.3l32.1-35.6zm-7.2-18.6l-29.2 32.1c-3.4 3.7-8.7 3.7-12 0c-3.4-3.7-3.1-9.7 0-13.4l20.9-22.9c2.3 1.8 5.4 3.2 8.1 3.5c3.5 1.1 7 0.7 10.6 0.7c0.4 0 1 0 1.6 0zm-25.2-8.4l-20.2 22.5c-3.3 3.5-8.7 3.5-12 0c-3.3-3.7-3.3-9.7 0.1-13.3l21.5-24.1l0.9 1.6c1.2 3.4 2.9 5.7 5.3 8.5c1.5 1.6 2.9 3.5 4.4 4.8zm-13.2-36.5v10.8c0 1.3 0.2 2.7 0.4 3.9l-23.7 26.1c-3.3 3.7-8.7 3.7-12 0c-3.3-3.7-3.3-9.7 0-13.3l35.1-38.8l-4.3-4.6l-35.1 38.5c-3.3 3.7-8.7 3.7-12 0c-3.3-3.7-3.3-9.7 0-13.3l35.1-38.6l-4.3-4.8l-34.9 38.5c-3.3 3.7-8.7 3.7-12 0c-3.3-3.7-3.3-9.7 0-13.3l34.9-38.6l-4.4-4.8l-34.8 38.7c-3.4 3.7-8.7 3.7-12 0c-3.4-3.7-3.3-9.7 0-13.3l35.1-38.8c-9.1-11.5-8.7-29 1.1-39.8c10.3-11.2 26.9-11.4 37.2 0.1l41.8 46.6c-5 1.3-10.2 6.4-12.7 11.4c-0.2 0.5-0.6 1-0.8 1.4l-40.9-45.4c-3.3-3.7-8.7-3.7-12 0c-3.3 3.4-3.4 9.6-0.1 13.1l43.9 48.9l-0.3 0.2c-1.4 2-2.7 4.3-3.3 6.9c-1.6 2.5-2.9 5.7-3.3 8.9c-0.2 1.4-0.4 2.6-0.6 3.9c-0.3 1.4-0.5 3-0.5 4.9c-0.4 1.3-0.6 2.9-0.6 4.6z" />
				</g>
				<g id="&lt;Group&gt;">
				</g>
				<g id="&lt;Group&gt;">
				</g>
				<g id="&lt;Group&gt;">
				</g>
				<g id="&lt;Group&gt;">
				</g>
				<g id="&lt;Group&gt;">
					<path id="&lt;Compound Path&gt;" class="s4" d="m886.9 544.7c-4.4 18.4-27.6 23.7-39.4 11.5l-5.8-6l7.7-1.6c6.8-1.6 13.9-3.2 20.7-5.2c3.9-1.2 7.9-2.6 11.6-4l6.8-2.5zm-435.7-216.3h508c15.9 0 29 14.4 29 32.2c0 17.7-13.1 32.1-29 32.1h-508c-15.9 0-29-14.4-29-32.1c0-17.8 13.1-32.2 29-32.2zm112.5 226.4c-12.2 13.8-37.5 9.2-40.4-11.9l-1-7.2l6 2.3c3.9 1.4 7.6 2.8 11.6 4q10.8 3.1 21.7 5.5l7.2 1.6z" />
					<path id="&lt;Compound Path&gt;" class="s2" d="m457.4 328.4c-7.5-1.2-32.3 29.6-4.2 64.4h-2c-16 0-29-14.5-29-32.2c0-17.7 13-32.2 29-32.2zm76.2 211.5q0.4 8.7 2.5 20.7c-6.5-2.8-11.6-8.7-12.9-17.7l-1-7.1l6 2.3c1.9 0.7 3.7 1.3 5.4 1.8z" />
					<path id="&lt;Path&gt;" class="s5" d="m459.9 403.8h490.5l-0.2 4.6c-0.6 24.8-2.7 52-13.8 73.8c-14.5 28.7-41.5 42.3-69 50.6c-49.3 14.7-111.4 15.6-162.4 15.4c-31.6-0.3-63.9-1.2-95.6-4.6c-22.4-2.3-45.4-5.8-66.9-12.2c-27.3-8.3-54.3-21.8-68.8-50.4c-10.9-21.8-13-48.2-13.6-72.6z" />
					<path id="&lt;Path&gt;" class="s2" d="m459.9 403.8h21.7c-1.9 19.1-4.8 89.9 47.8 123.2c-22.5-8.7-43.4-22-55.7-46c-10.9-21.8-13-48.2-13.6-72.6z" />
					<path id="&lt;Path&gt;" class="s6" d="m756 209.3h10.8c3.1-6.2 9.3-10.8 14.2-14c33.2-21.4 53.7 6.9 68.8 35.8c11.6 22.3 2.3 50.1-17.4 62.6c-20.5 13.1-30.6-14.3-38.1-30.8h-11.2c1.7 3.2 3.1 6.4 4.6 9.6c4.5 10.6 10.1 23 19 29.9l1.7 1.4v2.5c-0.2 2.3-0.4 4.8-0.6 7.4l-0.5 3.9h-204.3l-0.5-3.9c-0.2-2.6-0.4-5.1-0.4-7.4l-0.2-2.5l1.7-1.4c8.9-6.9 14.5-19.3 19.2-29.9c1.5-3.2 2.7-6.4 4.4-9.6h-11.2c-7.5 16.5-17.6 43.9-38.1 30.8c-19.5-12.5-29-40.3-17.4-62.6c15.1-28.9 35.6-57.2 68.8-35.8c5.1 3.2 11.1 7.8 14.2 14h10.8c-0.2-0.9-0.4-1.9-0.8-2.8l-1.9-4.3l4.2-1.7c15.7-5.9 32.9-7.8 49.5-7.8c16.3 0 33.5 1.9 49.2 7.8l4.2 1.7l-1.9 4.3c-0.2 0.9-0.6 1.9-0.8 2.8z" />
					<path id="&lt;Path&gt;" class="s2" d="m565.1 281.5c-10.2-14.3-13.3-33.8-4.6-50.4c13.1-25 30-49.2 55.7-42.1c-0.6 1.4-1.2 2.8-1.9 4q-52.3 41.6-49.2 88.5z" />
					<path id="&lt;Path&gt;" class="s3" d="m964.5 401c-0.6 31.1-3.1 63.3-16.1 88.8c-16.6 32.4-46 48.3-77.3 57.7c-50.7 14.9-113.9 16.1-166.1 15.9c-52.3-0.3-115.5-2.1-166.2-17.3c-31.1-9.4-60.7-25.3-77.1-57.7c-12.6-25.1-15.3-56.8-15.7-87.4h17.8c1.7 95.9 20.7 141.4 241.5 142.6c220.7 1.4 239.8-46.2 241.2-142.6z" />
					<path id="&lt;Compound Path&gt;" fill-rule="evenodd" class="s3" d="m451.2 313h507.9c23.6 0 42.9 21.4 42.9 47.6c0 26.2-19.3 47.6-42.9 47.6h-507.9c-23.6 0-42.9-21.4-42.9-47.6c0-26.2 19.3-47.6 42.9-47.6zm-25.1 47.6c0 15.1 11.2 27.8 25.1 27.8h507.9c13.9 0 25.1-12.7 25.1-27.8c0-15.4-11.2-27.9-25.1-27.9h-507.9c-13.9 0-25.1 12.5-25.1 27.9z" />
					<path id="&lt;Compound Path&gt;" class="s3" d="m802.8 321c1.6-10.8 2.3-22.1 1.9-33.1c3.7 6.7 10.7 10.4 17.8 9c-0.2 8-0.7 16.1-1.9 24.1zm-39.6-111.9c-16.3-8.8-36.4-12.2-57.9-12.2c-23.2 0-44.4 3.9-61.1 14c-2.3-7.1-8.1-12.2-15.1-13.1c19.8-14 45.9-20.5 76.2-20.5c24 0 45.5 4.2 63.3 12.9c-4.5 4.8-6.8 12-5.4 18.9zm-157.5 86.6c0 8.8 0.6 17.3 1.8 25.3h-17.8c-1-7.6-1.6-15.4-1.9-23.2c5.8 2.8 12.7 2.1 17.9-2.1z" />
					<path id="&lt;Path&gt;" class="s3" d="m636.1 181.7c11.2 7.1 21.7 17.5 23.2 31.7h-18.2c-1.5-4.3-5.6-9.2-13.9-14.7c-33.8-21.6-53.2 15.2-63.2 34.3c-10.1 19.3-2.9 44.8 16 56.8c17.2 11 24.8-12.7 33.7-31.5h21.1c-1.2 1.6-2.4 3.2-3.1 4.6c-2 3.6-3.7 7.5-5.3 11.4c-6.7 14.8-14.3 31.5-29.7 36.6c-8.9 3-17.8 1.2-25.6-4.1c-26.3-16.8-37.9-53.8-22.6-83.5c5.6-10.6 11.2-20.5 18.4-29.2c19.3-23 44.1-28.5 69.2-12.4z" />
					<path id="&lt;Path&gt;" class="s3" d="m843.4 194.1c7.4 8.7 13 18.6 18.4 29.2c15.5 29.7 3.7 66.7-22.6 83.5c-7.8 5.3-16.7 7.1-25.6 4.1c-15.4-5.1-23-21.8-29.4-36.6c-1.9-3.9-3.6-7.8-5.4-11.4c-0.9-1.4-2.1-3-3.3-4.6h21.3c8.7 18.8 16.5 42.5 33.5 31.5c18.9-12 26.1-37.5 16-56.8c-10-19.1-29.4-55.9-63.2-34.3c-8.3 5.5-12.4 10.4-13.9 14.7h-18.2c1.7-14.2 12.2-24.6 23.2-31.7c25.1-16.1 49.9-10.6 69.2 12.4z" />
					<path id="&lt;Path&gt;" class="s3" d="m653.3 290.4c-4.9 0-8.9-4.4-8.9-9.8c0-5.5 4-9.9 8.9-9.9c4.9 0 8.9 4.4 8.9 9.9c0 5.4-4 9.8-8.9 9.8z" />
					<path id="&lt;Path&gt;" class="s3" d="m757.1 290.4c-4.8 0-8.8-4.4-8.8-9.8c0-5.5 4-9.9 8.8-9.9c4.9 0 8.8 4.4 8.8 9.9c0 5.4-3.9 9.8-8.8 9.8z" />
					<path id="&lt;Compound Path&gt;" fill-rule="evenodd" class="s3" d="m583.1 543.1c-0.9 9-4.6 17.3-10.6 23.5c-22.8 23.7-63.6 8.7-63.6-28.1c0-3.7 0.5-7.8 1.1-11.7h18q-1.2 5.5-1.2 11.7c0 26.2 36 25.5 38.7 2.8c1.8 0.4 3.7 0.4 5.8 0.4c3.3 1.7 8 2.1 11.8 1.4zm317.2-16.3c2.3 14.9 0.6 29-9.7 39.8c-21.5 22.3-58.8 10.3-63.2-21.9c1.7-0.4 2.9-1.1 4.4-2l1.2-0.5c4.4 1.6 7.5 2.5 12.2 1.2c4.4 22 38.4 18.8 38.4-4.9c0-4.1-0.5-8-1.1-11.7z" />
				</g>
				<g id="&lt;Group&gt;">
				</g>
			</g>
		</g>
	</g>
</svg>