<svg version="1.2" xmlns="http://www.w3.org/2000/svg" viewBox="0 0 544 307" width="544" height="307">
	<title>image</title>
	<defs>
		<linearGradient id="g1" x1="30.8" y1="87.7" x2="30.8" y2="43.2" gradientUnits="userSpaceOnUse">
			<stop offset="0" stop-color="#ffffff"/>
			<stop offset="1" stop-color="#ffa44a"/>
		</linearGradient>
		<linearGradient id="g2" x1="207.4" y1="87.7" x2="207.4" y2="43.2" gradientUnits="userSpaceOnUse">
			<stop offset="0" stop-color="#ffffff"/>
			<stop offset="1" stop-color="#ffa44a"/>
		</linearGradient>
	</defs>
	<style>
		.s0 { fill: #ffffff } 
		.s1 { fill: #bd7850 } 
		.s2 { fill: #9f4424 } 
		.s3 { fill: #635dad } 
		.s4 { fill: #ffa44a } 
		.s5 { fill: #208674 } 
		.s6 { fill: #443e90 } 
		.s7 { opacity: .2;fill: url(#g1) } 
		.s8 { fill: #ffc17d } 
		.s9 { opacity: .2;fill: url(#g2) } 
		.s10 { fill: #d1e2ee } 
		.s11 { opacity: .6;fill: #ffffff } 
		.s12 { fill: #ffdebe } 
		.s13 { fill: #584441 } 
		.s14 { fill: #412014 } 
		.s15 { fill: #ffa47f } 
		.s16 { fill: #f27049 } 
		.s17 { fill: #e8a148 } 
		.s18 { fill: #e38038 } 
		.s19 { fill: #372d30 } 
		.s20 { fill: #ff765f } 
		.s21 { fill: #f1e6d5 } 
		.s22 { fill: #755651 } 
		.s23 { fill: #005644 } 
		.s24 { fill: #ffe2c2 } 
		.s25 { fill: #fea235 } 
		.s26 { fill: #da7553 } 
	</style>
	<path id="Layer" class="s0" d="m222.8 55.8h157.1v100.5h-157.1z" />
	<path id="Layer" class="s1" d="m222.8 152.4h157.1v3.9h-157.1z" />
	<path id="Layer" class="s1" d="m222.8 55.8h157.1v3.8h-157.1z" />
	<path id="Layer" class="s2" d="m310.3 139c0-0.2 0.2-0.3 0.3-0.3h59.2q0.3 0 0.3 0.3q0 0.3-0.3 0.3h-59.2c-0.1 0-0.3-0.1-0.3-0.3z" />
	<path id="Layer" class="s2" d="m310.3 144.1c0-0.1 0.2-0.3 0.3-0.3h59.2c0.2 0 0.3 0.2 0.3 0.3c0 0.2-0.1 0.4-0.3 0.4h-59.2c-0.1 0-0.3-0.2-0.3-0.4z" />
	<path id="Layer" class="s2" d="m342 115.4c0-0.2 0-0.4 0.1-0.4h27.9c0.1 0 0.1 0.2 0.1 0.4c0 0.1 0 0.3-0.1 0.3h-27.9c-0.1 0-0.1-0.2-0.1-0.3z" />
	<path id="Layer" class="s2" d="m310.5 115.4c0-0.2 0-0.4 0.1-0.4h27.6c0.1 0 0.2 0.2 0.2 0.4c0 0.1-0.1 0.3-0.2 0.3h-27.6c-0.1 0-0.1-0.2-0.1-0.3z" />
	<path id="Layer" class="s2" d="m334.6 126c0-0.1 0.1-0.3 0.2-0.3h35.1c0.1 0 0.2 0.2 0.2 0.3c0 0.2-0.1 0.4-0.2 0.4h-35.1c-0.1 0-0.2-0.2-0.2-0.4z" />
	<path id="Layer" class="s2" d="m310.5 126c0-0.1 0-0.3 0.1-0.3h18.4c0.1 0 0.1 0.2 0.1 0.3c0 0.2 0 0.4-0.1 0.4h-18.4c-0.1 0-0.1-0.2-0.1-0.4z" />
	<path id="Layer" class="s2" d="m310.5 120.5q0-0.3 0.3-0.3h59q0.3 0 0.3 0.3q0 0.3-0.3 0.3h-59q-0.3 0-0.3-0.3z" />
	<path id="Layer" class="s2" d="m236.6 139c0-0.2 0.2-0.3 0.4-0.3h59.1q0.3 0 0.3 0.3q0 0.3-0.3 0.3h-59.1c-0.2 0-0.4-0.1-0.4-0.3z" />
	<path id="Layer" class="s2" d="m236.6 144.1c0-0.1 0.2-0.3 0.4-0.3h59.1c0.2 0 0.3 0.2 0.3 0.3c0 0.2-0.1 0.4-0.3 0.4h-59.1c-0.2 0-0.4-0.2-0.4-0.4z" />
	<path id="Layer" fill-rule="evenodd" class="s3" d="m334.4 90.3c0.8 1.1 1.7 5.2-0.6 5.3c-0.2 0-0.4-0.1-0.5-0.2c-0.3-0.7-0.4-1.4-0.7-2.1c-0.4-1.2-0.9-2.2-1.8-3.1q-0.4-0.3-0.7-0.5c-0.5 0.6-1.4 1.2-2.7 1.1c-2.2-0.2-5.9-1.4-8.7-0.3c-4.4 1.9-7.6 6.7-9 8.3c-1.1 3.9-2.2 10.8-7.9 12.8c-2.6 0.9-3.4 7.4-3 12.3q4.2 2 2.9 3.5c-0.8 1-3.3 0.9-5 0.5c-1.9 0.7-5.9-0.1-6-0.9c-0.1-0.7-1-5.7-1.4-9.6q-0.1 0-0.2 0c-0.4 0.2-0.7-0.1-0.7-0.5q0-0.1 0-0.3c-0.4 0.1-0.7-0.1-0.7-0.5c0 0.6-0.2-1.1-0.2-1.1q0.3-0.7-0.1-0.2q-0.5 0-1 0c-0.4 0-0.5-0.5-0.3-0.8c0-0.1 0.5-0.8 0.8-1.4c-0.1 0.1-0.3 0.2-0.6 0.2c-0.4 0.1-0.8-0.4-0.5-0.7c0.4-0.6 1.5-1.7 1.7-2.6c-0.4 0.1-0.5 0.1-1.2 0.1c-0.4 0-0.6-0.6-0.3-0.8q0.6-0.5 1.2-1q-0.2 0-0.4 0c-0.5-0.1-0.6-0.7-0.2-0.9q1.2-0.6 2.3-1.2c-5.3-1.1-10.6-2.9-15.1-4.2c-1.9 3.7-5 7.6-9.7 9.2c-2.6 0.9-3.4 7.4-3 12.4q4.2 1.9 2.9 3.4c-1.2 1.5-6.6 0.6-6.7-0.4c-0.1-1-2.1-13.5 0.4-14.7c0.8-0.4 0.9-1.5 0.7-3.1c-1 1.1-2.2 1.9-3.5 2.4c-2.6 0.9-3.4 7.4-3 12.4q4.2 1.9 3 3.4c-1.3 1.5-6.6 0.6-6.7-0.4c-0.1-1-2.2-13.5 0.3-14.7c2.4-1.1-1.2-9.4-0.1-15.4q0-0.1 0-0.1q0.1-0.7 0.3-1.5q0.1-0.1 0.1-0.1c0.4-1.7 1.7-5.2 2.6-6.9c-0.2 0-5.1-2.3-6.9-3c-3.3-1.4-6.4-2.3-8.4-5.6c-2.1-3.6-2.9-8.1-1.9-12.2q0 0 0-0.1q0.1-0.1 0.2-0.2c0.1-0.1 0.3-0.1 0.4-0.1c1.6 0.8 2.9 2.5 4.1 3.7q2.6 2.5 5.3 4.9c3.6 3.3 7.2 7 11.8 8.8q0.6-0.4 1.4-0.6c8.5-2.2 26.9-0.6 31.3-1.9c1.6-0.5 4.2-1.3 7.2-1.8c2.6-0.5 5.5-0.8 8.2-0.7c1.5-0.9 3.3-2 4.7-2.8c-0.6-3-1.1-7.4 0.5-7.9c1-0.3 2.7 0.8 4.2 2.3c0.3-1.7 0.7-3.1 1.2-3.2c1.3-0.3 3.1 3.4 4.1 5.5q0.8 0 1.6 0.2c3.1 0.6 5.1 2.9 6.4 5.1c0.4 0.7 0.8 1.3 1.1 1.6c0.5 0.3 3.1 0.7 5.2 1.3q0.2 0.1 0.4 0.2c1.3 0.4 2.2 1 2.1 1.9c0 0.7-0.6 1.7-1.2 2.4q-0.2 0.3-0.4 0.5q-0.1 0.2-0.2 0.3q-0.9 0.9-2.2 1.4q-1.8-0.3-3.7-0.5c2.5 0.6 5 1.3 6.5 3.4zm-40 33.2q0.1 0.2 0.1 0.5q0-0.1 0-0.1q0-0.2-0.1-0.4z" />
	<path id="Layer" class="s0" d="m49.7 55.8h154.9v99.1h-154.9z" />
	<path id="Layer" class="s4" d="m49.7 151.1h154.9v3.8h-154.9z" />
	<path id="Layer" class="s4" d="m49.7 55.8h154.9v3.8h-154.9z" />
	<path id="Layer" class="s3" d="m136 137.9q0-0.3 0.3-0.3h58.4c0.1 0 0.3 0.1 0.3 0.3c0 0.2-0.2 0.3-0.3 0.3h-58.4q-0.3 0-0.3-0.3z" />
	<path id="Layer" class="s3" d="m136 142.9c0-0.1 0.1-0.3 0.3-0.3h58.4c0.1 0 0.3 0.2 0.3 0.3c0 0.2-0.2 0.4-0.3 0.4h-58.4c-0.2 0-0.3-0.2-0.3-0.4z" />
	<path id="Layer" class="s3" d="m162 114.6c0-0.2 0.1-0.4 0.2-0.4h32.6c0.1 0 0.2 0.2 0.2 0.4c0 0.1-0.1 0.3-0.2 0.3h-32.6c-0.1 0-0.2-0.2-0.2-0.3z" />
	<path id="Layer" class="s3" d="m125 114.6c0-0.2 0.1-0.4 0.2-0.4h32.4c0.1 0 0.2 0.2 0.2 0.4c0 0.1-0.1 0.3-0.2 0.3h-32.4c-0.1 0-0.2-0.2-0.2-0.3z" />
	<path id="Layer" class="s3" d="m153.3 125.1q0-0.3 0.3-0.3h41.2c0.1 0 0.2 0.1 0.2 0.3c0 0.2-0.1 0.3-0.2 0.3h-41.2q-0.3 0-0.3-0.3z" />
	<path id="Layer" class="s3" d="m125 125.1c0-0.2 0.1-0.3 0.1-0.3h21.7c0 0 0.1 0.1 0.1 0.3c0 0.2-0.1 0.3-0.1 0.3h-21.7c0 0-0.1-0.1-0.1-0.3z" />
	<path id="Layer" class="s3" d="m125 119.6c0-0.2 0.2-0.3 0.4-0.3h69.2c0.2 0 0.4 0.1 0.4 0.3c0 0.2-0.2 0.3-0.4 0.3h-69.2c-0.2 0-0.4-0.1-0.4-0.3z" />
	<path id="Layer" class="s3" d="m63.3 137.9q0-0.3 0.3-0.3h58.4c0.1 0 0.3 0.1 0.3 0.3c0 0.2-0.2 0.3-0.3 0.3h-58.4q-0.3 0-0.3-0.3z" />
	<path id="Layer" class="s3" d="m63.3 142.9c0-0.1 0.1-0.3 0.3-0.3h58.4c0.1 0 0.3 0.2 0.3 0.3c0 0.2-0.2 0.4-0.3 0.4h-58.4c-0.2 0-0.3-0.2-0.3-0.4z" />
	<path id="Layer" class="s3" d="m62.9 121c0-0.2 0.1-0.3 0.2-0.3h35.5c0.1 0 0.2 0.1 0.2 0.3c0 0.2-0.1 0.3-0.2 0.3h-35.5c-0.1 0-0.2-0.1-0.2-0.3z" />
	<path id="Layer" class="s3" d="m62.9 126.1c0-0.2 0.1-0.4 0.2-0.4h35.5c0.1 0 0.2 0.2 0.2 0.4c0 0.1-0.1 0.3-0.2 0.3h-35.5c-0.1 0-0.2-0.2-0.2-0.3z" />
	<path id="Layer" class="s4" d="m123.1 72.3q0 0.1 0 0.2q-0.1 0.1-0.2 0.3q-0.4 1.3-1 2.6q-0.1 0.1-0.1 0.2q-0.1 0.1-0.1 0.2q0 0 0 0.1q-0.6 1.1-1.2 2.2q-0.1 0.2-0.3 0.4q-0.1 0.2-0.2 0.4q-0.6 0.9-1.3 1.6h0.1q-0.2 0.2-0.4 0.4q-0.9 0.9-2 1.6q0 0.1-0.1 0.2q-0.1 0-0.2 0.1q-0.1 0-0.1 0q-0.6 0.4-1.2 0.7q0 0 0 0.1q0 0-0.1 0q-0.1 0.1-0.2 0.1q-0.1 0.1-0.2 0.1q-0.7 0.4-1.5 0.7q-0.2 0.1-0.5 0.2q-2 0.8-4.1 1.5q0.3 0.4 0.6 0.9q0 0.1 0 0.1c0.4 0.9 0.5 1.8 0.5 2.6q0.1 0.2 0.1 0.3c0.1 0.1 0.2 0.2 0.2 0.3q0 0-0.1 0c0.5 1.3 0.6 2.6 0.7 3.9c0.2 1 0.4 1.9 1 2.8c0.7 1 1.7 1.1 2.7 1.7c0.4 0.2 0.5 0.5 0.7 0.9c0.3 1 0.4 2.1 0.5 3.1q0.3 1.4 0.6 2.8c0.1 0.5 0.2 1 0.1 1.4c-0.3 1-1.7 0.7-2.4 0.6c-0.7-0.1-1.5-0.5-1.2-1.3q0.1-0.3 0.3-0.6c0.4-0.7 0.4-1.2 0-2c-0.4-0.8-1.1-1.4-2-1.8c-0.7-0.4-1.4-0.7-2.1-1.2q0.1 0.1 0.1 0.3c0.3 1 0 1.7-0.4 2.5q-0.1 0.3-0.3 0.5q0 0.1 0 0.1q-0.2 0.3-0.4 0.7q-0.1 0.2-0.3 0.4q-0.2 0.4-0.5 0.8q-0.2 0.2-0.3 0.5q-0.4 0.4-0.8 0.8c-0.7 0.8-1.5 0.8-2.5 0.6c-0.7-0.1-1.4-0.4-1.3-1.2c0.1-0.7 0.8-1.1 1.4-1.3q0 0 0-0.1q0.5-0.9 0.8-1.8c0.1-0.2 0.7-1.4 0.5-1.6c0-0.1-0.7-0.2-0.8-0.3q-0.7-0.2-1.3-0.7c-0.9-0.7-1.9-1.6-2.5-2.7c-3 0.2-5.9-0.5-8.8-1c-2.3-0.3-4.7-0.6-6.9-1.1c0.3 1.4 1.1 2.6 1.4 3.9c0.4 1.5 0.2 3 0.1 4.5c-0.1 0.9 0 2.3-0.9 2.9c-1 0.6-2.5 0.3-3.5 0.2c-0.1-0.1-0.2-0.1-0.2-0.2c-0.1-0.5-0.1-0.9 0.2-1.3c0.3-0.4 0.2-0.1 0.5-0.4c0.7-0.8 0.9-1.2 0.6-2.1c-0.5-1.8-2-3.1-2.6-4.8q-0.5 0.3-1 0.6q-0.2 0.1-0.4 0.2q-0.5 0.3-1 0.7q-0.2 0.1-0.4 0.2q-0.4 0.2-0.7 0.5c-0.9 0.6-1.8 1.4-2.5 2.3q-0.1 0-0.1 0.1q-0.4 0.4-0.7 0.9c-0.4 0.6-0.6 1.2-0.8 2c-0.1 0.4-0.2 0.8-0.5 1c-0.4 0.4-1 0.4-1.5 0.1c-1.5-0.8-1.1-3.3-0.3-4.6q0-0.1 0.1-0.1c0.9-1.7 1.9-3.3 3.5-4.6c0.3-0.2 0.8-0.5 1-0.9c0.7-0.9 0.2-1.7 0.1-2.6q-0.1-0.9-0.2-1.8c-0.8-1.3-1.9-2-3.1-2.7q-0.1 0-0.1 0c-1.9-0.9-3.9-1.5-5.9-2c-1.2-0.2-2.1-0.7-2.4-1.9c-0.3-0.4-0.6-0.8-0.6-1.3q-0.2 0-0.2-0.1c-0.2-0.3 0-0.6 0.1-0.9c0.1-0.2 0.1-0.4 0.4-0.5c0-0.2 0.4-0.2 0.5 0q0 0.1 0 0.1q0.5-0.5 1.1-0.8q0 0 0.1 0c0.7-1.7 1.9-3.1 3.5-3.7c0-0.3 0-0.6 0-0.8c0-0.8 0.1-1.6 0.4-2.4c0-0.2 0.3-0.2 0.4-0.1c0.4 0.6 0.8 1.1 1.2 1.7q0-0.9 0.3-1.7c0.1-0.2 0.3-0.2 0.5 0c0.8 1.1 2 2.4 2.1 3.8q0.3 0.2 0.5 0.5c0.6 0.5 1.1 1.1 1.7 1.6c0.6 0.4 1.2 0.7 1.8 1.1c1.5 0.2 3 0.1 4.5 0q1.6-0.1 3.3-0.2q0.9-0.2 1.8-0.3c1.2-0.1 2.4-0.1 3.6-0.1q3.9 0.2 7.9 0.5c2.3 0.2 4.8 0.5 7.1 1c1 0.2 1.7 0.6 2.3 1.2q0.1-0.3 0.3-0.4c0.8-0.6 1.9-0.9 2.8-1.3q1.8-0.9 3.3-2.3c1.3-1.1 2.7-2.5 3.9-3.9q0-0.1 0.1-0.1q0.5-0.7 1-1.5q0.2-0.3 0.4-0.6q0.1-0.3 0.2-0.5q0.6-1.3 0.9-2.7q0.1-0.1 0.1-0.2q0.2-1 0.4-2q0.1-0.3 0.2-0.5q0-0.4 0.1-0.7q0.3-1.8 0.6-3.6c0.1-0.5 0.3-1.3 1-1.5c1.3-0.3 1.9 2.1 2 3c0.2 2.1-0.6 4.3-1.3 6.3z" />
	<path id="Layer" class="s5" d="m195.2 78.8h-124.3v-1.1h124.3z" />
	<path id="Layer" class="s5" d="m70.9 79.8c-0.9 0-1.6-0.7-1.6-1.6c0-0.8 0.7-1.5 1.6-1.5c0.9 0 1.6 0.7 1.6 1.5c0 0.9-0.7 1.6-1.6 1.6z" />
	<path id="Layer" class="s5" d="m195.2 89.1h-95.5v-1.1h95.5z" />
	<path id="Layer" class="s5" d="m99.7 90.1c-0.9 0-1.6-0.7-1.6-1.6c0-0.8 0.7-1.5 1.6-1.5c0.8 0 1.5 0.7 1.5 1.5c0 0.9-0.7 1.6-1.5 1.6z" />
	<path id="Layer" class="s5" d="m195.2 103.4h-87.4v-1h87.4z" />
	<path id="Layer" class="s5" d="m107.8 104.5c-0.8 0-1.5-0.7-1.5-1.6c0-0.9 0.7-1.6 1.5-1.6c0.9 0 1.6 0.7 1.6 1.6c0 0.9-0.7 1.6-1.6 1.6z" />
	<path id="Layer" class="s6" d="m203.1 43.2h-156.7v-7.8h156.7z" />
	<path id="Layer" class="s7" d="m217.7 87.7h-185.9l14.6-44.5h156.7z" />
	<path id="Layer" class="s8" d="m203.1 39.3h-156.7v-7.7h156.7z" />
	<path id="Layer" class="s6" d="m379.7 43.2h-156.7v-7.8h156.7z" />
	<path id="Layer" class="s9" d="m394.3 87.7h-185.9l14.6-44.5h156.7z" />
	<path id="Layer" class="s8" d="m379.7 39.3h-156.7v-7.7h156.7z" />
	<path id="Layer" class="s10" d="m403.8 2.7h125.2v161.4h-125.2z" />
	<path id="Layer" class="s11" d="m429.7 4.5h13.1l55.7 156.7h-13.1z" />
	<path id="Layer" class="s11" d="m452.8 4.5h6.6l55.7 156.7h-6.6z" />
	<path id="Layer" class="s11" d="m403.8 30.6l1.4-9.1l46.2 139.7h-6.5z" />
	<path id="Layer" class="s12" d="m527.1 0.9h3.7v165.3h-3.7z" />
	<path id="Layer" class="s12" d="m485.4 1.7h3.7v163.7h-3.7z" />
	<path id="Layer" class="s12" d="m530.8 0.9v3.6h-128.8v-3.6z" />
	<path id="Layer" class="s12" d="m530.8 162.3v3.7h-128.8v-3.7z" />
	<path id="Layer" class="s12" d="m443.7 1.7h3.7v163.7h-3.7z" />
	<path id="Layer" class="s12" d="m401.9 0.9h3.7v165.3h-3.7z" />
	<path id="Layer" class="s12" d="m530.8 81.7v3.7h-128.8v-3.7z" />
	<path id="Layer" class="s1" d="m405.7 86.7v-1.3h121.4v1.3z" />
	<path id="Layer" class="s1" d="m405.7 162.5v-1.3h121.4v1.3z" />
	<path id="Layer" class="s1" d="m405.6 5.8v-1.3h121.5v1.3z" />
	<path id="Layer" class="s0" d="m67.3 178.8h217.9v45.9h-217.9z" />
	<path id="Layer" fill-rule="evenodd" class="s13" d="m285.9 225.3h-219.5v-47.1h219.5zm-218.3-1.3h217.1v-44.7h-217.1z" />
	<path id="Layer" fill-rule="evenodd" class="s13" d="m285.9 194.4h-219.5v-16.2h219.5zm-218.3-1.3h217.1v-13.7h-217.1z" />
	<path id="Layer" class="s13" d="m213.6 224.7h-1.2v-31h1.2z" />
	<path id="Layer" class="s13" d="m141.1 224.7h-1.3v-31h1.3z" />
	<path id="Layer" class="s14" d="m246.2 201.8c0-1.7 1.4-3.1 3.1-3.1c1.6 0 3 1.4 3 3.1c0 1.6-1.4 3-3 3c-1.7 0-3.1-1.4-3.1-3z" />
	<path id="Layer" class="s14" d="m174.8 201.8c0-1.7 1.4-3.1 3.1-3.1c1.7 0 3 1.4 3 3.1c0 1.6-1.3 3-3 3c-1.7 0-3.1-1.4-3.1-3z" />
	<path id="Layer" class="s14" d="m100.7 201.8c0-1.7 1.4-3.1 3.1-3.1c1.6 0 3 1.4 3 3.1c0 1.6-1.4 3-3 3c-1.7 0-3.1-1.4-3.1-3z" />
	<path id="Layer" class="s13" d="m272.5 224.7h3.9v33.4h-3.9z" />
	<path id="Layer" class="s14" d="m266.1 257.2c0-1.7 1.4-3 3.1-3h10.5c1.7 0 3.1 1.3 3.1 3v0.9h-16.7z" />
	<path id="Layer" class="s13" d="m78.2 224.7h3.9v33.4h-3.9z" />
	<path id="Layer" class="s14" d="m71.8 257.2c0-1.7 1.4-3 3-3h10.6c1.7 0 3 1.3 3 3v0.9h-16.6z" />
	<path id="Layer" class="s15" d="m241.4 148.4c1.4 2.4-0.2 5.5-1.4 6.5c-1.1 0.9-3.2 0.3-3.8 0.3c-1.3 1.1-4.4 3-6.8 4.1c-0.3 0.2-5.5-5.8-5.1-6.1c1.8-1.6 3.5-2.7 5.5-4.3c2.1-1.7 3.9-3.1 6.7-3.1c0.7 0 4.1 1.3 4.9 2.6z" />
	<path id="Layer" class="s15" d="m244.2 149.6c-2.3 1.2-5.4 0.6-7.7-0.5c-0.4-0.2-0.5-0.6-0.2-0.9q-0.4 0-0.9-0.1c-0.7-0.2-0.6-1.2 0.1-1.1c1.4 0.3 2.9 0.5 4.3 0.6c1.8 0.1 3-0.2 4.5-1.1c1.3-0.9 2.2-1.6 3.9-2c0.5-0.1 0.9 1.6 0.4 2c-1.1 1-3 2.4-4.4 3.1z" />
	<path id="Layer" class="s15" d="m245.6 153.4c-2.4 1.2-5.4 0.5-7.8-0.5c-0.4-0.2-0.4-0.7-0.1-0.9q-0.5-0.1-0.9-0.2c-0.8-0.1-0.7-1.2 0.1-1c1.4 0.2 2.8 0.5 4.3 0.6c1.7 0.1 3-0.3 4.4-1.2c1.3-0.9 2.4-1.6 4.1-1.5c0.3 0 0.6 1.5 0.1 1.9c-1.1 1-2.8 2-4.2 2.8z" />
	<path id="Layer" class="s15" d="m243.4 155.8c-2.6 0.8-6.7 0-8.7-1.4c-0.4-0.3 0.9-1.2 1.3-1.4q-0.5-0.2-0.9-0.3c-0.7-0.3-0.3-1.3 0.4-1c1.3 0.5 2.6 1 4 1.4c1.7 0.4 3.1 0.3 4.7-0.3c1.5-0.6 2.8-1.5 4.5-1.1c0.3 0.1 0.3 0.7 0.3 1c0 0.6-0.7 0.8-1.2 1.1c-1.4 0.7-2.9 1.6-4.4 2z" />
	<path id="Layer" class="s15" d="m245.9 151.4c-2.3 1.2-5.4 0.6-7.7-0.5c-0.4-0.2-0.5-0.6-0.2-0.9q-0.5-0.1-0.9-0.1c-0.7-0.2-0.6-1.2 0.1-1.1c1.4 0.3 2.8 0.5 4.3 0.6c1.8 0.1 3-0.2 4.4-1.1c1.4-0.9 2-1.2 3.6-1.5c0.6-0.1 1.1 1.5 0.7 1.8c-1.2 1-2.9 2.1-4.3 2.8z" />
	<path id="Layer" class="s15" d="m238.2 146.4c-1.7 0.8-2.5 2.6-4.6 2.2c-0.2-0.1-0.4-0.3-0.4-0.5c-0.3-0.1-2.3 0.2-2-0.1c1.1-1.4 4.1-3.6 5.7-4.4c1.6-0.7 3.9-1.1 5.7-0.8c0.6 0.1 0.7 1.9 0.5 2.2c-1.3 1.1-3.2 0.5-4.9 1.4z" />
	<path id="Layer" class="s16" d="m241.3 148.7q1.8 3.4-1.1 6.1q1.1-2.8 1.1-6.1z" />
	<path id="Layer" class="s16" d="m238.6 149.5q-0.4 0.6-2.6 1.5q2.6-1.2 2.4-3.3q0.7 0.9 0.2 1.8z" />
	<path id="Layer" class="s3" d="m183.4 133.6q19.8 25.3 22.7 25.8q1.1 0.2 22.5-12l5.9 10.5q-24 21.3-32.9 18.5q-19-6.1-26.9-27.3q5.2-6.7 8.7-15.5z" />
	<path id="Layer" class="s6" d="m186.4 139.5q8 28.2 16.4 30.8q6.2 1.9 31.7-12.4q-21 19.8-31.4 18.8q-10.4-1.1-22.2-17.3z" />
	<path id="Layer" class="s17" d="m162 301.2q3.4 1.6 6.9 2.9h-14.7q1.2-4.9 2.8-5.7c1.2-0.5 1.2 1.1 5 2.8z" />
	<path id="Layer" class="s18" d="m154.2 304.1h14.7v1.3h-14.7z" />
	<path id="Layer" class="s17" d="m201.9 301.2q3.4 1.6 6.9 2.9h-14.7q1.2-4.9 2.8-5.7c1.2-0.5 1.2 1.1 5 2.8z" />
	<path id="Layer" class="s18" d="m194.1 304.1h14.7v1.3h-14.7z" />
	<path id="Layer" class="s14" d="m192.3 193.1l7.4 106.3l-4.5 0.4l-22.8-72.8l-1.9-33.9z" />
	<path id="Layer" class="s13" d="m178.1 214.9l18.6 84.8l-1.5 0.1l-22.8-72.8z" />
	<path id="Layer" class="s14" d="m178.6 193.1l-18 107.4h-5.4q-2.5-47.3-2.1-107.4z" />
	<path id="Layer" class="s13" d="m193.3 200q-32.4-2.6-32.4 7.3q0 9.9-4.1 93.2h-1.6q-3.7-72.7-2.1-107.4h39.2z" />
	<path id="Layer" class="s3" d="m169 129.9c8.4-0.3 14.5 1.9 16.6 6.7q2.1 4.8 9.7 59.9q-28.4 3-44.1 0q-4.7-44.4 0.6-57.2c3.6-8.8 11.2-9.2 17.2-9.4z" />
	<path id="Layer" class="s13" d="m170.5 210.6l7.9 2.6l8.8-4.5l-8.4 9.4z" />
	<path id="Layer" class="s15" d="m180.2 120.4q-0.2 0.6-0.4 1.2q-0.5 1.5-0.7 3q-0.3 1.5-0.4 2.8q-0.1 2.8 0.1 4.8q-7.8 3.8-16.3-1.5c0.4-1.1 0.7-2.4 0.9-3.8c0.5-2.7 0.7-5.5 0.7-6.3q0-0.1 0-0.1q0-0.1 0-0.1z" />
	<path id="Layer" class="s16" d="m180.2 120.4q-0.2 0.6-0.4 1.2c-0.5 1.3-0.7 2.3-0.7 3q-0.3 1.5-0.4 2.8c-3.7 1.6-7.9 2.3-10.9 1.6c-2-0.4-3.5-1.4-4.4-2.1c0.5-2.7 0.7-5.5 0.7-6.3q0-0.1 0-0.1q0-0.1 0-0.1z" />
	<path id="Layer" class="s0" d="m160.2 129.1q6.2 4.3 14.5 4.3q-1.4 3-1.8 5.2q-10.8-3.1-12.7-9.5z" />
	<path id="Layer" class="s0" d="m179.3 131.3q0.1 0.6-0.6 5.7l-4-3.6q2.5-0.5 3.7-2.3q0.8-0.4 0.9 0.2z" />
	<path id="Layer" class="s6" d="m158 157.4q-2.3 4.6 2.2 10.8c5.3 7.4 16.8 26.5 35.1 28.3q-28.7 3.5-44.1 0q-2.7-31.7-1.9-42.7q0.3-3.9 8.7 3.6z" />
	<path id="Layer" class="s15" d="m157.9 203.6c-0.8 0.4-1.5 0.2-2-0.2c-0.2 0.3-0.4 0.7-0.8 0.9c-0.9 0.5-1.6 0.2-2.2-0.4c-0.2 0.4-0.5 0.8-1.3 0.8c-0.7 0.1-1.2-0.2-1.6-0.6c-0.2 0.7-1.1 1-1.7 0.6c-1.8-1.1-1.8-4.1-1.8-6.1c0.1-2 0.6-4.2 2.7-5.1c3.1-1.3 6.8 0.9 8 3.8q0.1 0 0.1 0.1c0.7 1.4 2.9 5.1 0.6 6.2z" />
	<path id="Layer" class="s15" d="m162.3 197.4c0.4 1.4-2.1 2.9-2.8 1.6c-0.4-0.8-1.1-2.2-2-2.4c-0.7-0.2-1.4 0.5-2.1 0.5c-1.2 0.1-2.3-1-3.2-2c-0.7-0.8 0.1-1.8 1-1.8q0-0.1 0.1-0.1c1.6-0.1 3.6-0.3 5.3 0.2c1.7 0.5 3.1 2.4 3.7 4z" />
	<path id="Layer" class="s15" d="m147.8 198.6l-4.5-6.9l6.3-4.2l3.8 7.6z" />
	<path id="Layer" class="s3" d="m158 157.4c-3.3 4.8-16.5 11.1-16.7 14.1q-0.2 1.1 12.1 18.5l-10.1 6.6q-20.1-22.1-17.8-31.2q4.9-19.2 31-32.4c4.8 7 2.7 18 1.5 24.4z" />
	<path id="Layer" class="s6" d="m141.3 171.5q-0.3 2 12.1 18.5q-12.8-12.7-15-19.5q-2.2-6.7 19.6-13.1c-2.3 4.5-16.5 12.1-16.7 14.1z" />
	<path id="Layer" class="s6" d="m164.3 121.8q-6.8-5.2-5.9-7.9q1-2.7 7.3 3.6z" />
	<path id="Layer" class="s15" d="m161.8 96.6c4.9-7.8 20.8-1.8 21.8 0c1 1.8 3.7 24.1 1.5 28.2c-2.4 4.6-15 4.6-17.9 1.9q-2.7-2.5-5.1-10.5q-5.2-11.8-0.3-19.6z" />
	<path id="Layer" class="s6" d="m183.6 96.6c-5.7-1.3-13.7-1.4-18.4 1.4c3.1 6.8 3.1 16-1.7 17.6c-1 0.3-4.5 0-5.8-1.7c-4.9-6.6-3.5-15.9-1.9-17.9c-1.1 0.2-2.2 0.6-3.2 1.2c-0.8 0.4-1.5-0.7-0.8-1.2c1.2-0.7 2.5-1.1 3.8-1.4c-1.1-1.6-1.7-3.4-1.5-5.4c0-0.8 1.4-0.9 1.3 0c-0.1 1.7 0.4 3.3 1.4 4.7c5.3-12.9 24.2-13.5 29.8-7.1c3.7 4.5 0.4 10.6-3 9.8z" />
	<path id="Layer" class="s16" d="m181.6 113.2l0.4 0.3l-0.3 0.4c-0.5 0.6-1.3 0.7-1.9 0.7c-0.7-0.1-1.2-0.4-1.7-0.5c0.5-0.3 1.2-0.3 1.7-0.4c0.4 0 0.9-0.2 1-0.5l0.1 0.7c-1.1-1-1.8-2.5-1.6-4c0.8 1.2 1.5 2.3 2.3 3.3z" />
	<path id="Layer" class="s0" d="m170.8 106.2c-0.1-1.2 3.3-2.2 5.4-0.9c0.9 0.5 0 3.3-2.4 3.3c-2.1 0.1-3-1.5-3-2.4z" />
	<path id="Layer" class="s14" d="m175.3 106.9c-0.1 0.8-0.9 1.5-1.8 1.4c-0.9-0.2-1.5-1-1.4-1.8c0.1-0.9 0.9-1.5 1.8-1.4c0.9 0.1 1.5 0.9 1.4 1.8z" />
	<path id="Layer" class="s0" d="m175.4 105.8c0 0.3-0.3 0.5-0.6 0.5c-0.3-0.1-0.5-0.3-0.4-0.6c0-0.3 0.3-0.5 0.6-0.5c0.3 0.1 0.5 0.3 0.4 0.6z" />
	<path id="Layer" class="s0" d="m179.3 105.9c0-1.1 3.2-2.1 5-0.8c0.8 0.5-0.1 3.3-2.3 3.3c-1.9 0.1-2.7-1.5-2.7-2.5z" />
	<path id="Layer" class="s14" d="m183.6 106.7c-0.1 0.9-0.9 1.5-1.8 1.4c-0.9-0.2-1.5-1-1.3-1.9c0.1-0.8 0.9-1.4 1.8-1.3c0.9 0.1 1.5 0.9 1.3 1.8z" />
	<path id="Layer" class="s0" d="m183.8 105.7c-0.1 0.3-0.3 0.5-0.6 0.4c-0.3 0-0.5-0.3-0.5-0.6c0.1-0.3 0.3-0.5 0.6-0.5c0.3 0.1 0.5 0.4 0.5 0.7z" />
	<path id="Layer" class="s6" d="m169 101c0.3-0.7 6.5-2.1 7.1-1.7c0.5 0.3 0.6 1.6 0.4 3.1c0 0.3-0.3 0.6-0.7 0.5c-1.5-0.4-4.6 0-5.7 0.2c-0.2 0.1-0.4 0-0.5-0.3c-0.3-0.5-0.7-1.5-0.6-1.8z" />
	<path id="Layer" class="s6" d="m186 103.3c-0.1 0.2-0.3 0.3-0.6 0.2c-1-0.3-3.9-1-5.3-0.8c-0.3 0.1-0.6-0.2-0.7-0.5c0-1.5 0.2-2.8 0.6-3.1c0.6-0.3 6.4 1.7 6.6 2.4c0.1 0.3-0.4 1.3-0.6 1.8z" />
	<path id="Layer" class="s0" d="m174.5 118.3q2.9 2.1 5.9 0.7q-0.9 3.1-2.7 3.1q-1.9 0-3.2-3.8z" />
	<path id="Layer" class="s16" d="m178 122.9c0.4 0 0.9-0.1 1.3 0.2c-0.4 0.2-0.7 0.2-1.1 0.4c-0.4 0-0.7 0.2-1.2 0.1c0.3-0.4 0.6-0.5 1-0.7z" />
	<path id="Layer" class="s15" d="m163.7 117.2c-4.8 1.2-7.3-4.2-5.2-7c1.2-1.5 4.6 0 5.5 1.3c0.9 1.2 1.5 5.3-0.3 5.7z" />
	<path id="Layer" class="s16" d="m161.1 113.2q-0.6 0.6-0.4 2.7c-0.7-0.5-2.9-3.1-1.3-4.7q0.7-0.7 3.1 1.4q-0.9 0-1.4 0.6z" />
	<path id="Layer" class="s19" d="m238.8 149.7q0.2-1.7 0.6-3.5c0.1-0.5 1-0.3 0.8 0.3q-0.3 1.5-0.5 3c1.3-0.6 2.9-1.4 4.2-1.1c1.1 0.2 1.7 1.4 1.5 2.5q-0.2 0.2-0.3 0.3c-0.3 0.1-0.5 0-0.6 0c-0.1 0.5-0.5 1-1.2 1.1c-0.9 0.1-2-0.2-2.7-0.6c-1.4-0.6-2.2 0.4-3.3 1.2c-0.3 0.2-0.7 0.2-0.8-0.2c-0.2-1.6 0.7-2.8 2.3-3z" />
	<path id="Layer" class="s20" d="m211 168.2c2.6-4.3 5.9-8.2 8.6-12.5c6-9.7 8-22.1 9.1-33.3c0-0.4 0.4-0.5 0.7-0.4c2-0.2 4.2-0.5 6.2-1.2c2.2-0.9 2.9-3.2 3.3-5.3c0.6-2.9 0.2-5.2-2.7-6.3c-1.5-0.6-3.2-0.9-4.8-1.2c-0.3-0.1-0.3-0.4-0.2-0.7c-0.5-1.3-1-2.7-0.4-4c0.7-1.5 2.2-2.1 3.7-2.1c5.1-0.2 9.4 6.9 14.4 3.8c0.4-0.2 0.8 0.2 0.7 0.5q-0.6 2.1-1.2 4.2c-0.4 1.4-1.3 3.4-1.1 4.8c0.5 3.1 3.9 4 5.7 6.2c2.4 3.1 2.9 7.4 1.9 11.1c-1.2 4.3-4.1 8.6-7.6 11.4c-3.8 3.1-9.4 4.5-14 6.1c-1 5.7-3.2 11-6.6 15.7c-0.1 0.3-0.6 0.3-0.7 0q-0.3-0.5-0.4-0.9c-0.6 1.2-1.4 2.4-2.6 2.5c-0.8 0.1-1.2-0.4-1.4-1c-3.1 5.9-7.4 12.7-13.5 15.5c-0.3 0.1-0.6 0-0.7-0.3c-1.4-4.4 1.3-8.9 3.6-12.6z" />
	<path id="Layer" class="s21" d="m233.3 136.3c1-4.3 2.7-8.1 2-12.7c-0.3-2.2-1.8-7.1-0.1-9c0.7-0.8 2-0.9 2.9-1.1q3-0.8 5.9-1.9c0.2-0.2 0.6-0.2 0.7 0.1c0.5 1 0.9 2 1.1 3.1c0.2 1 0 2.3 0.3 3.3c0.3 1.2 1.7 1.9 2.6 2.8c0.7 0.7 1.5 1.5 2.1 2.3c2.2 2.9 0.7 7.5-0.4 10.6c-3 7.8-10.2 13.3-18.5 14.2c-0.3 0-0.5-0.2-0.5-0.4c0.4-3.8 1-7.6 1.9-11.3z" />
	<path id="Layer" class="s20" d="m216.9 153.6c1-7.2 3-14.2 5.9-20.9c1.5-3.6 3.2-7.5 5.8-10.6c2.5-3.1 5.9-3.8 9.8-4c0.2 0 0.3 0.2 0.4 0.4q1.4 0.4 2.5 1.4c2.6 2.1 3.8 5.9 3.8 9.1c0 2.5-0.6 4.9-1.7 7c-1.3 2.5-3.4 4.1-4.7 6.5c-1.1 2-2.9 2.6-4.7 3.7c-1.2 0.7-2 1.8-3.2 2.6c-0.4 0.3-1 0.3-1.5 0.6c-0.7 0.4-0.9 0.9-1.4 1.6c-0.5 0.7-0.9 1.3-1.6 1.9c-1.1 0.9-2.1 0.8-3.3 1.4c-1.2 0.5-1.9 1.9-2.9 2.7c-1 0.7-2 1.1-3.2 1.5c-0.2 0-0.6-0.2-0.5-0.5q0.2-2.2 0.5-4.4z" />
	<path id="Layer" class="s10" d="m216.9 153.6q0.3-0.2 0.6-0.4c3.5-2.1 6.6-4.5 8.7-7.9c0.2-0.3 0.6-0.3 0.8 0q0.1 0.2 0.2 0.4c2.6-1.6 4.2-4.1 5.8-6.7c0.2-0.3 0.6-0.3 0.8 0l0.3 0.4c1.5-2.3 2.6-4.7 3.4-7.3c0.1-0.3 0.4-0.4 0.6-0.3c0.5 0.4 0.9 0.7 1.2 1.1c2.4-3.9 3.1-8.5 2-13c2.6 2.1 3.8 5.9 3.8 9.1c0 2.5-0.6 4.9-1.7 7c-1.3 2.5-3.4 4.1-4.7 6.5c-1.1 2-2.9 2.6-4.7 3.7c-1.2 0.7-2 1.8-3.2 2.6c-0.4 0.3-1 0.3-1.5 0.6c-0.7 0.4-0.9 0.9-1.4 1.6c-0.5 0.7-0.9 1.3-1.6 1.9c-1.1 0.9-2.1 0.8-3.3 1.4c-1.2 0.5-1.9 1.9-2.9 2.7c-1 0.7-2 1.1-3.2 1.5c-0.2 0-0.6-0.2-0.5-0.5q0.2-2.2 0.5-4.4z" />
	<path id="Layer" class="s8" d="m230.8 108.5c0-0.2 0.2-0.3 0.4-0.3q0-0.1 0-0.1c0.9-2 2.7-3.7 5.1-3.5c2.1 0.1 3.2 1.9 3.9 3.7c1.9-0.2 4 1.5 4.6 3.2c0.9 2.2-1.1 4.8-3.2 5.5c-2.3 0.9-5.8-1.2-7.6-2.5c-1.8-1.4-3.8-3.5-3.2-6z" />
	<path id="Layer" class="s19" d="m225.9 109.1c0.5-2.3 3.7-2 5.5-2c0.3 0 0.5 0.4 0.4 0.6c0.6 2.2 1.5 4.7 4.1 4.9c0.3 0 0.5 0.2 0.4 0.5c-0.4 2.5-3.3 2.9-5.4 2.4c-0.4-0.1-0.9-0.3-1.2-0.6q-0.2 0.3-0.4 0.6c-0.1 0.4-0.5 0.6-0.8 0.3c-1.4-1.7-3-4.4-2.6-6.7z" />
	<path id="Layer" class="s19" d="m236.1 106.2c0.3-0.1 0.7 0 0.8 0.3q0.1 0.1 0.1 0.3c0 0.5 0.3 1.1-0.3 1.3c-0.5 0.1-0.9-0.3-1-0.7c-0.1-0.5-0.1-1 0.4-1.2z" />
	<path id="Layer" class="s19" d="m235.5 149.7q0.2-1.7 0.6-3.5c0.1-0.5 1-0.3 0.8 0.3q-0.3 1.5-0.5 3c1.3-0.6 2.9-1.4 4.2-1.1c1.1 0.2 1.7 1.4 1.5 2.5c-0.1 0.1-0.2 0.2-0.4 0.3c-0.2 0.1-0.4 0-0.5 0c-0.1 0.5-0.5 1-1.2 1.1c-0.9 0.1-2-0.2-2.7-0.6c-1.4-0.6-2.3 0.4-3.3 1.2c-0.3 0.2-0.7 0.2-0.8-0.2c-0.2-1.6 0.7-2.8 2.3-3z" />
	<path id="Layer" class="s13" d="m282 256.5h2.5v45.6h-2.5z" />
	<path id="Layer" class="s13" d="m274 256.5h2.5v45.6h-2.5z" />
	<path id="Layer" class="s13" d="m266 256.5h2.5v45.6h-2.5z" />
	<path id="Layer" class="s13" d="m258 256.5h2.5v45.6h-2.5z" />
	<path id="Layer" class="s13" d="m250 256.5h2.5v45.6h-2.5z" />
	<path id="Layer" class="s2" d="m242 256.5h2.5v45.6h-2.5z" />
	<path id="Layer" class="s2" d="m234 256.5h2.5v45.6h-2.5z" />
	<path id="Layer" class="s2" d="m226.1 256.5h2.4v45.6h-2.4z" />
	<path id="Layer" class="s2" d="m223.6 299.7h44.9v4.7h-44.9z" />
	<path id="Layer" class="s13" d="m246.7 299.7h40.1v4.7h-40.1z" />
	<path id="Layer" fill-rule="evenodd" class="s3" d="m240.3 254.3v-4c0-1.6 1.4-3 3-3h21.3c1.7 0 3 1.4 3 3v4c0 1.7-1.3 3-3 3h-21.3c-1.6 0-3-1.3-3-3zm3-5.3c-0.7 0-1.3 0.6-1.3 1.3v4c0 0.8 0.6 1.4 1.3 1.4h21.3c0.7 0 1.3-0.6 1.3-1.4v-4c0-0.7-0.6-1.3-1.3-1.3z" />
	<path id="Layer" class="s2" d="m223.6 253.4h44.9v4.8h-44.9z" />
	<path id="Layer" class="s13" d="m246.7 253.4h40.1v4.8h-40.1z" />
	<path id="Layer" class="s15" d="m391.1 128.5c2.2 0 3.7 1.7 4.8 3.5c1.4 2.4 3.5 4.6 3.7 6.1c0 0.4-4.5 1.9-4.7 1.7c-1.2-1-2.3-2.8-3.1-3.9c-0.5 0-2.8 0.7-3.6 0.1c-1-0.9-2.3-3.4-1.2-5.4c0.7-1 3.5-2.1 4.1-2.1z" />
	<path id="Layer" class="s15" d="m381.6 129.3c-0.4-0.3-0.9-0.6-0.7-1.1c0-0.2 0.2-0.4 0.4-0.4c1.4-0.1 2.3 0.5 3.4 1.2c1.2 0.8 2.2 1.1 3.6 1c1.2-0.1 2.4-0.3 3.5-0.5c0.6-0.1 0.7 0.7 0.1 0.8q-0.4 0.1-0.7 0.2c0.2 0.2 0.2 0.6-0.2 0.7c-1.9 0.9-4.4 1.4-6.3 0.4c-1.1-0.6-2.2-1.5-3.1-2.3z" />
	<path id="Layer" class="s15" d="m380.5 132.3c-0.4-0.3-0.9-0.6-0.7-1.1c0-0.1 0.2-0.3 0.4-0.3c1.4-0.1 2.3 0.5 3.4 1.2c1.1 0.7 2.2 1 3.6 0.9c1.2 0 2.4-0.2 3.5-0.4c0.6-0.2 0.7 0.7 0.1 0.8q-0.4 0.1-0.7 0.1c0.2 0.2 0.2 0.6-0.2 0.8c-1.9 0.8-4.4 1.4-6.3 0.4c-1.1-0.6-2.2-1.6-3.1-2.4z" />
	<path id="Layer" class="s15" d="m381.8 135c-0.5-0.2-1-0.4-1-0.9c0-0.2 0.1-0.4 0.3-0.4c1.4-0.4 2.4 0 3.6 0.5c1.4 0.5 2.4 0.6 3.8 0.2c1.2-0.3 2.3-0.7 3.4-1.1c0.5-0.2 0.8 0.6 0.3 0.8q-0.4 0.1-0.7 0.3c0.3 0.1 1.3 0.9 1 1.1c-1.6 1.2-5 1.8-7.1 1.2c-1.3-0.3-2.5-1-3.6-1.7z" />
	<path id="Layer" class="s15" d="m380.2 130.7c-0.4-0.3-0.8-0.6-0.7-1c0-0.2 0.2-0.4 0.4-0.4c1.5-0.1 2.3 0.5 3.4 1.2c1.2 0.7 2.2 1.1 3.6 1c1.2-0.1 2.4-0.3 3.6-0.5c0.6-0.1 0.6 0.7 0 0.8q-0.3 0.1-0.7 0.2c0.3 0.1 0.2 0.5-0.2 0.7c-1.8 0.8-4.4 1.4-6.3 0.4c-1.1-0.6-2.2-1.5-3.1-2.4z" />
	<path id="Layer" class="s15" d="m385.7 127c-0.1-0.2 0.1-0.6 0.4-0.6c1.4 0 3.3-0.3 4.6 0.3c1.3 0.6 2.3 1.9 3.2 3c0.3 0.3 0.1 0.6-0.2 0.7c0 0.1-0.1 0.3-0.3 0.3c-1.7 0.4-2.4-1.1-3.8-1.8c-1.4-0.7-3.3 0-3.9-1.9z" />
	<path id="Layer" class="s16" d="m387.1 130.8q-1.5 2.8 0.9 5.1q-0.9-2.3-0.9-5.1z" />
	<path id="Layer" class="s16" d="m389.5 130q-0.2 1.7 1.9 2.8q-1.8-0.8-2.1-1.3q-0.4-0.7 0.2-1.5z" />
	<path id="Layer" class="s3" d="m431.6 99.2q-1.2 5.1 2.7 24.8q-9.5 4.1-15.4 0q-4.2-26.7 6-45.4q3.1 6.2 6.7 20.6z" />
	<path id="Layer" class="s22" d="m428.7 83.5c1.7 0.3 7.2 39 5.6 40.5q-1.6 1.6-9.2 1.8c-2.5-3.1-3.8-12.1-4.7-19.4q-0.6-4.9 2.8-20.6q3.7-2.5 5.5-2.3z" />
	<path id="Layer" class="s0" d="m433.8 125.8c0.6 3.7-4 17.5-24.8 36.3c-5.3 4.8-6.6-8.8-3.8-12c2.9-3.2 15.3-25.8 26.1-29c1.2-0.3 2.1 2.3 2.5 4.7z" />
	<path id="Layer" class="s10" d="m429.1 126.4c0.3 0.9-2.3 17.5-5 20.8q-2.7 3.4-12.3 12.3c5.6-13.9 1.3-18.5 3-22.7q2.6-6.4 14.3-14.3q-0.3 3 0 3.9z" />
	<path id="Layer" class="s0" d="m407.4 163.1c-1.4 0.8-3.8-0.6-6.2-4.4q-1.8-3-9-21.7l4.7-3.7q11.5 14.8 14.3 19.8c1.9 3.5-0.5 8.2-3.8 10z" />
	<path id="Layer" class="s15" d="m428.5 164.3q1.2 65.3 1.2 70.2q0 5 10.5 58l-2.4 2q-23.8-40-24.5-57.2q-0.8-17.2 3.2-75.2z" />
	<path id="Layer" class="s16" d="m424.1 245.5l1.7 27l-3.2-7q-0.7-13.5-2.4-16.6q-1.6-3.2-6.4-7.3l-0.5-4.3l10.7 2.2z" />
	<path id="Layer" class="s15" d="m442.6 167.1q4 30.1 2.5 51.3q-1.5 21.1-16.4 80.4h-3.5q-2.7-94.1 0-104.8q2.8-10.7 3.3-29.7z" />
	<path id="Layer" class="s16" d="m436.3 272.5l-3.4 13.3l-0.7-1.3l3.5-15.2z" />
	<path id="Layer" class="s0" d="m442.6 167.1q11.1 24.8 11.5 73.5q-30 4.9-49-3.3q-2.7-23.5 10.4-76.4q9.6 2.6 27.1 6.2z" />
	<path id="Layer" class="s5" d="m428.8 298.2l0.6 4h-15q4.9-3.9 9.6-4h1.2c1.1 0.7 2.4 0.7 3.5 0.1z" />
	<path id="Layer" class="s23" d="m429.4 303.3h-15v-1.1h15z" />
	<path id="Layer" class="s5" d="m439.9 290.5l3.2 2.5l-10.8 10.4q0.7-6.2 4.1-9.5l0.9-0.9c1.2-0.2 2.2-1.1 2.5-2.3z" />
	<path id="Layer" class="s23" d="m443.8 293.8l-10.8 10.4l-0.7-0.8l10.8-10.4z" />
	<path id="Layer" class="s13" d="m444.5 171.6q9.8 25.9 9.6 69l-7.9 1q-8.7-41.3-15-43.9c-6.4-2.6-6.2-5.6-5.4-9.5q0.8-3.8 3.6-16.7z" />
	<path id="Layer" class="s3" d="m441.5 162.4l1.2 9.4q-10 2-29.5-1q0.1-2.4 2.3-9.9z" />
	<path id="Layer" class="s0" d="m417.4 143.9q-4.3-4.4-2.1-8.7q2.3-4.2 16-14.1q10.2 0.4 14.5-1.6q2.1 1.4 4.2 3.3q0.5 0.4 0.9 0.8c1.6 1.5 2.9 3.2 3.2 4.5q0 0.2 0 0.3c0.1 1.2-0.7 3.6-1.8 6.3q-0.1 0.3-0.2 0.5c-0.7 1.8-1.5 3.7-2.4 5.6q-0.2 0.4-0.4 0.8q-0.6 1.3-1.3 2.6q0 0.1 0 0.1c-1.6 3.4-3.2 6.6-4.2 8.7q-2.7 5.9-0.8 16.9q-12.5 0.5-22.2 0.1c-0.3-3.4 0.3-7.1-0.5-7.2c-0.8 0-2.7 4.5-4.3 6.9c-3.2-0.3-5.6-0.8-6.3-1.6c5.2-6 8-20.8 7.7-24.2z" />
	<path id="Layer" class="s15" d="m444.7 111.3q0 0 0 0.1q0 0 0 0.1c-0.1 0.8-0.2 3.5-0.1 6.2c0 1.3 0.1 2.6 0.3 3.7q-15.6 5-12.1-0.3c0.4-2.6 0.2-6.9-0.3-11.1z" />
	<path id="Layer" class="s16" d="m445 107.3q-0.3 3-0.4 5.8c-1.9 2.4-8.9 6.4-11.6 4.5c0-1 0-2.5 0-3.4c0-0.8 0-1.7-0.3-3q0-0.5-0.2-1.2z" />
	<path id="Layer" class="s15" d="m447.2 91q-0.6 13.9-2.2 17.5c-1.6 3.6-8.8 8.5-12.5 8.5c-3.6 0-8.6-8.7-9.4-11.7c-0.9-3-0.3-12.7 0-14.9c0.3-2.3 2.3-8.4 3.3-9.3c0.9-1 18.1 0.6 20.8 9.9z" />
	<path id="Layer" class="s16" d="m430.7 99.3c0.2 0.9 0.2 1.8 0.1 2.7c-0.1 0.8-0.4 1.7-0.9 2.5v-0.7c0.1 0.2 0.5 0.5 1 0.7c0.5 0.2 1.2 0.3 1.8 0.6c-0.6 0.2-1.2 0.4-1.9 0.4q-0.5 0.1-1.1-0.2c-0.4-0.1-0.8-0.4-1-0.8l-0.2-0.3l0.2-0.4c0.7-1.3 1.2-2.9 2-4.5z" />
	<path id="Layer" class="s0" d="m436.9 97c2.7 0.4 3.4 3.5 2.4 4c-2.4 1.1-6.1-0.3-5.9-1.5c0.1-1.1 1.2-2.7 3.5-2.5z" />
	<path id="Layer" class="s5" d="m436.7 101c-0.9 0-1.7-0.8-1.8-1.7c0-1 0.7-1.8 1.7-1.9c1 0 1.8 0.8 1.8 1.7c0.1 1-0.7 1.8-1.7 1.9z" />
	<path id="Layer" class="s0" d="m435.5 98.6c-0.3 0-0.6-0.2-0.6-0.5c0-0.4 0.2-0.6 0.5-0.7c0.4 0 0.7 0.3 0.7 0.6c0 0.3-0.3 0.6-0.6 0.6z" />
	<path id="Layer" class="s0" d="m426.9 96.2c2.5 0.1 3.5 3.2 2.6 3.7c-2 1.4-5.5 0.4-5.5-0.9c0-1.1 0.8-2.8 2.9-2.8z" />
	<path id="Layer" class="s5" d="m427.1 100.2c-0.9 0.1-1.8-0.5-1.9-1.5c-0.2-0.9 0.5-1.8 1.4-2c1-0.1 1.9 0.5 2 1.5c0.2 1-0.5 1.9-1.5 2z" />
	<path id="Layer" class="s0" d="m425.6 98c-0.4 0.1-0.7-0.1-0.7-0.5c-0.1-0.3 0.2-0.6 0.5-0.6c0.3-0.1 0.6 0.1 0.7 0.5c0 0.3-0.2 0.6-0.5 0.6z" />
	<path id="Layer" class="s22" d="m441.8 95.6c-4.3-2-7.1-1.2-7.4-1.8c-0.2-0.6-0.3-1.9 0.4-2c2.9-0.4 7.2 3.9 7 3.8z" />
	<path id="Layer" class="s22" d="m428.9 91.8c0.6 0.2 0.4 1.5 0 2c-0.4 0.6-2.8-0.6-7.3 0.8c-0.2 0.1 4.6-3.5 7.3-2.8z" />
	<path id="Layer" class="s16" d="m436.7 107.3c-0.3 1.2-1.1 2.1-2.2 2.7c-0.6 0.2-1.2 0.4-1.8 0.4q-0.9 0-1.7-0.4c1.2-0.1 2.2-0.2 3.2-0.7c0.9-0.4 1.7-1.1 2.5-2z" />
	<path id="Layer" class="s16" d="m436.1 110.9c-0.3 0.5-0.8 0.8-1.3 0.9c-0.5 0.2-1.1 0.2-1.6-0.1c0.5-0.3 0.9-0.4 1.4-0.6c0.5-0.1 0.9-0.2 1.5-0.2z" />
	<path id="Layer" class="s14" d="m429.3 97.6c-0.4-0.4-0.9-0.8-1.4-1c-0.6-0.2-1.2-0.2-1.8-0.1q-0.8 0.1-1.4 0.8c-0.4 0.5-0.7 1-0.7 1.7c-0.1-0.6 0.1-1.3 0.5-1.8c0.3-0.6 0.9-0.9 1.6-1.1c0.6-0.1 1.3 0 1.9 0.2c0.6 0.3 1 0.8 1.3 1.3z" />
	<path id="Layer" class="s14" d="m434.1 98c0.3-0.5 0.9-0.9 1.5-1c0.7-0.2 1.3-0.2 2 0c0.6 0.2 1.2 0.6 1.5 1.1c0.4 0.6 0.7 1.2 0.6 1.8c0-0.6-0.4-1.1-0.8-1.6c-0.4-0.5-0.9-0.8-1.4-1q-0.9-0.2-1.8 0c-0.6 0.1-1.2 0.3-1.6 0.7z" />
	<path id="Layer" class="s10" d="m417.3 143.9c5.3 1.1 13.7 4.1 18.8 2.1q-6.6 4.6-19.2 3.1q0.6-3.3 0.4-5.2z" />
	<path id="Layer" class="s10" d="m434.6 170.4c2.5-4.9 6.9-34 12.8-42.5c5 1.1 1 14.6 1.9 13.7c-1.7 3.5-4.5 9.3-5.5 11.4q-2.7 5.9-0.5 17.8q-5.8-0.4-8.7-0.4z" />
	<path id="Layer" class="s3" d="m418.9 91.8q1.5-18.7 15-14.8q7.4-3 13.9 0.5c2.1 1.1 4.1 3 5.7 6q0 0.1 0 0.1q3.7 6.9-4.8 15.7q-2.6-0.2-3.9 0.8q-1.1-5 0.1-10.4q-14.8-7.8-26 2.1z" />
	<path id="Layer" class="s14" d="m448.2 122.9l-0.2-1.8l1.6 0.4q2.4 3.1 1.9 2.6q-0.9-0.9-2.5 0.2z" />
	<path id="Layer" class="s0" d="m450.4 124.8c3.6-1.1 11.6 13.2 16 40.9c1.1 7.1-10.1 5.1-11.2 1q-1.2-4.1-7-24.4q-4.5-15.4 2.2-17.5z" />
	<path id="Layer" class="s20" d="m432.8 121.1q-1.1 1.9 0.6 2.3q1.6 0.4 8.3-1.1q-9.4 3.6-13 8.8q0.1-6.2 4.1-10z" />
	<path id="Layer" class="s22" d="m444.8 100.1q7.4-5.5 8.7-16.6q0 0.1 0 0.1c0.6 0.7 10.5 15.4 5.8 41.4q-6.7 4.1-17.6 0q4.4-19.7 3.1-24.9z" />
	<path id="Layer" class="s15" d="m444.6 99.3c1.2-0.8 4.7-0.8 5.4 1.2c0.8 2.4-3.6 7.4-6.1 4.2c-1.1-1.3-0.3-4.7 0.7-5.4z" />
	<path id="Layer" class="s16" d="m445.9 100.7q2.6-1 2.6 0.3c0 2-1.9 3-2.6 3.1q0.9-0.9 0.7-1.9q-0.2-1-0.7-1.5z" />
	<path id="Layer" class="s15" d="m420.1 173c0.6-1.1 2.7-3.7 4.4-3.8c1.6-0.2 4.1 0.8 5.5 1.2c0.6 0.1-0.2 0.8-0.6 1.1c-0.1 0.4-0.4 0.6-0.8 0.6c-1.2-0.1-2.6-0.5-3.9-0.4c-1.3 0.1-2.2 1.4-3.3 2.1c-0.6 0.3-1.5-0.4-1.3-0.8z" />
	<path id="Layer" class="s15" d="m422.1 177.6c0.7-1.5 2.5-3.9 4.1-4.2c1.6-0.3 3.6-0.5 5.1-0.2c0.5 0.1 0.3 1.8-0.1 1.8c-1.3-0.1-3.3 0.7-4.6 0.9c-1.2 0.2-2.1 1.6-3.2 2.3c-0.5 0.3-1.5-0.1-1.3-0.6z" />
	<path id="Layer" class="s15" d="m424.7 178.3c0.1-1.4 1.5-4.3 3.1-4.9c1.5-0.7 3.6-0.5 5.2-0.6c0.6 0 0.7 0.7 0.4 1.1c0 0.4-0.2 0.7-0.6 0.8c-1.3 0.3-2.8 0.4-4.1 0.9c-1.2 0.4-1.8 1.9-2.7 2.9c-0.5 0.5-1.4 0.1-1.3-0.2z" />
	<path id="Layer" class="s15" d="m420.5 176.4c0.3-1.1 2.2-4.1 3.8-4.5c1.6-0.5 3.6 0 5.1 0.1c0.6 0 0.6 0.7 0.3 1.1c0 0.4-0.2 0.7-0.6 0.8c-1.4 0.1-2.8 0-4.2 0.3c-1.2 0.3-1.9 1.8-2.9 2.6c-0.5 0.4-1.5-0.1-1.5-0.4z" />
	<path id="Layer" class="s15" d="m434.5 174.6q-3.8 2.4-5.6 0.9q-1.1-1-1.8-3.5l0.9-2.3l5.8 0.9z" />
	<path id="Layer" class="s15" d="m433.1 170.6l4.9-0.8l0.7 3.7l-5.4 1.4z" />
	<path id="Layer" class="s0" d="m466.4 167.5c-0.1 1.5-1.8 3.1-6.1 4.3q-3.3 1-24.9 3.4l-1-6q19.6-6.9 23.6-6.9c4.3 0 8.6 1.6 8.4 5.2z" />
	<path id="Layer" class="s10" d="m453.7 161.5q3.1-0.3 6.4 0.8q-2.4-0.1-6 0.7z" />
	<path id="Layer" class="s10" d="m464.7 175.3h79.2v130.1h-79.2z" />
	<path id="Layer" class="s10" d="m299.4 175.3h229.1v130.1h-229.1z" />
	<path id="Layer" class="s24" d="m319.9 191.5h146.9v113.9h-146.9z" />
	<path id="Layer" class="s25" d="m319.9 208.8h146.9v4.9h-146.9z" />
	<path id="Layer" class="s25" d="m319.9 225.4h146.9v4.9h-146.9z" />
	<path id="Layer" class="s25" d="m319.9 242h146.9v4.9h-146.9z" />
	<path id="Layer" class="s25" d="m319.9 258.6h146.9v4.9h-146.9z" />
	<path id="Layer" class="s25" d="m319.9 275.2h146.9v4.9h-146.9z" />
	<path id="Layer" class="s25" d="m319.9 291.8h146.9v5h-146.9z" />
	<path id="Layer" class="s0" d="m464.7 175.3h17.2v130.1h-17.2z" />
	<path id="Layer" class="s0" d="m287 175.3h17.6v130.1h-17.6z" />
	<path id="Layer" class="s0" d="m287 175.3h190.3v21.8h-190.3z" />
	<path id="Layer" class="s14" d="m38.2 303.2c0 1.6-1.3 2.9-3 2.9c-1.6 0-2.9-1.3-2.9-2.9c0-1.7 1.3-3 2.9-3c1.7 0 3 1.3 3 3z" />
	<path id="Layer" class="s14" d="m56 303.2c0 1.6-1.3 2.9-2.9 2.9c-1.6 0-2.9-1.3-2.9-2.9c0-1.7 1.3-3 2.9-3c1.6 0 2.9 1.3 2.9 3z" />
	<path id="Layer" class="s20" d="m47.4 296.2q-1 0.8-2.8 0.8q-2 0-2.8-0.8v-43.7h5.6z" />
	<path id="Layer" class="s26" d="m47.4 296.2q-0.4 0.2-0.8 0.4q-0.3 0.1-0.9 0.3v-44.4h1.7z" />
	<path id="Layer" fill-rule="evenodd" class="s20" d="m74.5 249.2c-3.6 3.3-9.8 3.3-20.7 5.2c-10.8 1.9-25 2.1-35.7-3.6c-10.6-5.6-16.8-38.8-17.5-46.1c-0.7-7.6 10.6-13.4 22.1-15.2c33.2-5.5 42.2 3.1 49.9 14.4c7.8 11.2 5.5 41.9 1.9 45.3zm-4.4-44.3c-7.7-14.6-26.7-15-43-12.9c-8.1 1-26.3 7.7-20.4 12.9c5.8 5.2 23.1 9.6 28.1 13c3.6 2.4 7.3 15.4 7.6 25.6c0.2 10.3 4.3 9.2 8.3 8.6c4-0.6 19.2-3.1 20.9-4.4c1.7-1.2 6.3-28.2-1.5-42.8z" />
	<path id="Layer" class="s26" d="m72.9 244c-0.5 2.1-1 3.5-1.3 3.7c-1.7 1.3-16.9 3.8-20.9 4.4c-3.9 0.6-8.1 1.7-8.3-8.6c-0.1-2.2-0.3-4.5-0.6-6.8c-1.2-8.5-4.1-17-7-18.8c-5-3.4-22.3-7.8-28.1-13c-5.9-5.2 12.3-11.9 20.4-12.9c16.3-2.1 35.3-1.7 43 12.9c6.2 11.6 4.5 31.1 2.8 39.1z" />
	<path id="Layer" class="s14" d="m59.2 301.1h-27.3v-1.6c0-1.9 1.5-3.4 3.4-3.4h20.5c1.9 0 3.4 1.5 3.4 3.4z" />
	<path id="Layer" class="s13" d="m57.3 301.1h-27.4v-1.6c0-1.9 1.6-3.4 3.4-3.4h20.6c1.8 0 3.4 1.5 3.4 3.4z" />
	<path id="Layer" class="s20" d="m62.3 253.1c-2.4 0.4-5.2 0.7-8.5 1.3c-10.8 1.9-25 2.1-35.7-3.6c-10.6-5.6-16.8-38.8-17.5-46.1c-0.2-2.2 0.6-4.3 2.2-6.2q2.1 0.7 4.1 1.6c-1.6 1.6-2 3.3-0.2 4.8c5.8 5.2 23.1 9.6 28.1 13c3.6 2.4 7.3 15.4 7.6 25.6c0.2 10.3 4.3 9.2 8.3 8.6c1.6-0.3 5-0.8 8.5-1.4q1.6 1.2 3.1 2.4z" />
</svg>