<svg version="1.2" xmlns="http://www.w3.org/2000/svg" viewBox="0 0 49 80" width="49" height="80">
	<title>image</title>
	<style>
		.s0 { fill: #372d30 } 
		.s1 { fill: #ff765f } 
		.s2 { fill: #f1e6d5 } 
		.s3 { fill: #d1e2ee } 
		.s4 { fill: #ffc17d } 
	</style>
	<path id="Layer" class="s0" d="m31.8 48.5q0.2-1.7 0.6-3.5c0.1-0.5 1-0.3 0.8 0.3q-0.3 1.5-0.5 3c1.3-0.6 2.9-1.4 4.2-1.1c1.1 0.2 1.7 1.4 1.5 2.5q-0.2 0.2-0.3 0.3c-0.3 0.1-0.5 0-0.6 0c-0.1 0.5-0.5 1-1.2 1.1c-0.9 0.1-2-0.2-2.7-0.6c-1.4-0.6-2.2 0.4-3.3 1.2c-0.3 0.2-0.7 0.2-0.8-0.2c-0.2-1.6 0.7-2.8 2.3-3z" />
	<path id="Layer" class="s1" d="m4 67c2.6-4.3 5.9-8.2 8.6-12.5c6-9.7 8-22.1 9.1-33.3c0-0.4 0.4-0.5 0.7-0.4c2-0.2 4.2-0.5 6.2-1.2c2.2-0.9 2.9-3.2 3.3-5.3c0.6-2.9 0.2-5.2-2.7-6.3c-1.5-0.6-3.2-0.9-4.8-1.2c-0.3-0.1-0.3-0.4-0.2-0.7c-0.5-1.3-1-2.7-0.4-4c0.7-1.5 2.2-2.1 3.7-2.1c5.1-0.2 9.4 6.9 14.4 3.8c0.4-0.2 0.8 0.2 0.7 0.5q-0.6 2.1-1.2 4.2c-0.4 1.4-1.3 3.4-1.1 4.8c0.5 3.1 3.9 4 5.7 6.2c2.4 3.1 2.9 7.4 1.9 11.1c-1.2 4.3-4.1 8.6-7.6 11.4c-3.8 3.1-9.4 4.5-14 6.1c-1 5.7-3.2 11-6.6 15.7c-0.1 0.3-0.6 0.3-0.7 0q-0.3-0.5-0.4-0.9c-0.6 1.2-1.4 2.4-2.6 2.5c-0.8 0.1-1.2-0.4-1.4-1c-3.1 5.9-7.4 12.7-13.5 15.5c-0.3 0.1-0.6 0-0.7-0.3c-1.4-4.4 1.3-8.9 3.6-12.6z" />
	<path id="Layer" class="s2" d="m26.3 35.1c1-4.3 2.7-8.1 2-12.7c-0.3-2.2-1.8-7.1-0.1-9c0.7-0.8 2-0.9 2.9-1.1q3-0.8 5.9-1.9c0.2-0.2 0.6-0.2 0.7 0.1c0.5 1 0.9 2 1.1 3.1c0.2 1 0 2.3 0.3 3.3c0.3 1.2 1.7 1.9 2.6 2.8c0.7 0.7 1.5 1.5 2.1 2.3c2.2 2.9 0.7 7.5-0.4 10.6c-3 7.8-10.2 13.3-18.5 14.2c-0.3 0-0.5-0.2-0.5-0.4c0.4-3.8 1-7.6 1.9-11.3z" />
	<path id="Layer" class="s1" d="m9.9 52.4c1-7.2 3-14.2 5.9-20.9c1.5-3.6 3.2-7.5 5.8-10.6c2.5-3.1 5.9-3.8 9.8-4c0.2 0 0.3 0.2 0.4 0.4q1.4 0.4 2.5 1.4c2.6 2.1 3.8 5.9 3.8 9.1c0 2.5-0.6 4.9-1.7 7c-1.3 2.5-3.4 4.1-4.7 6.5c-1.1 2-2.9 2.6-4.7 3.7c-1.2 0.7-2 1.8-3.2 2.6c-0.4 0.3-1 0.3-1.5 0.6c-0.7 0.4-0.9 0.9-1.4 1.6c-0.5 0.7-0.9 1.3-1.6 1.9c-1.1 0.9-2.1 0.8-3.3 1.4c-1.2 0.5-1.9 1.9-2.9 2.7c-1 0.7-2 1.1-3.2 1.5c-0.2 0-0.6-0.2-0.5-0.5q0.2-2.2 0.5-4.4z" />
	<path id="Layer" class="s3" d="m9.9 52.4q0.3-0.2 0.6-0.4c3.5-2.1 6.6-4.5 8.7-7.9c0.2-0.3 0.6-0.3 0.8 0q0.1 0.2 0.2 0.4c2.6-1.6 4.2-4.1 5.8-6.7c0.2-0.3 0.6-0.3 0.8 0l0.3 0.4c1.5-2.3 2.6-4.7 3.4-7.3c0.1-0.3 0.4-0.4 0.6-0.3c0.5 0.4 0.9 0.7 1.2 1.1c2.4-3.9 3.1-8.5 2-13c2.6 2.1 3.8 5.9 3.8 9.1c0 2.5-0.6 4.9-1.7 7c-1.3 2.5-3.4 4.1-4.7 6.5c-1.1 2-2.9 2.6-4.7 3.7c-1.2 0.7-2 1.8-3.2 2.6c-0.4 0.3-1 0.3-1.5 0.6c-0.7 0.4-0.9 0.9-1.4 1.6c-0.5 0.7-0.9 1.3-1.6 1.9c-1.1 0.9-2.1 0.8-3.3 1.4c-1.2 0.5-1.9 1.9-2.9 2.7c-1 0.7-2 1.1-3.2 1.5c-0.2 0-0.6-0.2-0.5-0.5q0.2-2.2 0.5-4.4z" />
	<path id="Layer" class="s4" d="m23.8 7.3c0-0.2 0.2-0.3 0.4-0.3q0-0.1 0-0.1c0.9-2 2.7-3.7 5.1-3.5c2.1 0.1 3.2 1.9 3.9 3.7c1.9-0.2 4 1.5 4.6 3.2c0.9 2.2-1.1 4.8-3.2 5.5c-2.3 0.9-5.8-1.2-7.6-2.5c-1.8-1.4-3.8-3.5-3.2-6z" />
	<path id="Layer" class="s0" d="m18.9 7.9c0.5-2.3 3.7-2 5.5-2c0.3 0 0.5 0.4 0.4 0.6c0.6 2.2 1.5 4.7 4.1 4.9c0.3 0 0.5 0.2 0.4 0.5c-0.4 2.5-3.3 2.9-5.4 2.4c-0.4-0.1-0.9-0.3-1.2-0.6q-0.2 0.3-0.4 0.6c-0.1 0.4-0.5 0.6-0.8 0.3c-1.4-1.7-3-4.4-2.6-6.7z" />
	<path id="Layer" class="s0" d="m29.1 5c0.3-0.1 0.7 0 0.8 0.3q0.1 0.1 0.1 0.3c0 0.5 0.3 1.1-0.3 1.3c-0.5 0.1-0.9-0.3-1-0.7c-0.1-0.5-0.1-1 0.4-1.2z" />
	<path id="Layer" class="s0" d="m28.5 48.5q0.2-1.7 0.6-3.5c0.1-0.5 1-0.3 0.8 0.3q-0.3 1.5-0.5 3c1.3-0.6 2.9-1.4 4.2-1.1c1.1 0.2 1.7 1.4 1.5 2.5c-0.1 0.1-0.2 0.2-0.4 0.3c-0.2 0.1-0.4 0-0.5 0c-0.1 0.5-0.5 1-1.2 1.1c-0.9 0.1-2-0.2-2.7-0.6c-1.4-0.6-2.3 0.4-3.3 1.2c-0.3 0.2-0.7 0.2-0.8-0.2c-0.2-1.6 0.7-2.8 2.3-3z" />
</svg>