<svg version="1.2" xmlns="http://www.w3.org/2000/svg" viewBox="0 0 579 360" width="579" height="360">
	<title>image</title>
	<defs>
		<linearGradient id="g1" x1="227.1" y1="200.1" x2="227.1" y2="67.2" gradientUnits="userSpaceOnUse">
			<stop offset="0" stop-color="#ffffff"/>
			<stop offset="1" stop-color="#ffa44a"/>
		</linearGradient>
		<linearGradient id="g2" x1="285.9" y1="49.4" x2="285.9" y2=".7" gradientUnits="userSpaceOnUse">
			<stop offset="0" stop-color="#ffa44a"/>
			<stop offset="1" stop-color="#ffffff"/>
		</linearGradient>
	</defs>
	<style>
		.s0 { fill: #e2e9fb } 
		.s1 { fill: #412014 } 
		.s2 { fill: #f1543b } 
		.s3 { fill: #ff765f } 
		.s4 { opacity: .5;fill: #ffffff } 
		.s5 { fill: #005644 } 
		.s6 { fill: #208674 } 
		.s7 { fill: #ffdebe } 
		.s8 { fill: #584441 } 
		.s9 { fill: #6f93f8 } 
		.s10 { fill: #9f4424 } 
		.s11 { fill: #635dad } 
		.s12 { fill: #ffffff } 
		.s13 { opacity: .6;fill: #ffffff } 
		.s14 { fill: #d3eaea } 
		.s15 { fill: #ffa44a } 
		.s16 { fill: #d1e2ee } 
		.s17 { fill: #bd7850 } 
		.s18 { fill: #ffc17d } 
		.s19 { fill: #ffa47f } 
		.s20 { fill: #f27049 } 
		.s21 { fill: #443e90 } 
		.s22 { fill: #f6c03b } 
		.s23 { opacity: .8;fill: #ffffff } 
		.s24 { fill: #dd8d68 } 
		.s25 { opacity: .2;fill: url(#g1) } 
		.s26 { fill: url(#g2) } 
	</style>
	<path id="Layer" class="s0" d="m18.1 359.4q-25.7-33.9-13.4-74.6c12.3-40.8 43.8-71.9 33.7-119c-12.1-56 16.2-103.1 66.3-97.1c84 10.2 144.4-53.3 175.2-59.6c91-18.8 107.6 50 156.8 56.7c106.1 14.4 138.9 60.7 135.1 149.5c-1.3 29.2 80 87.7 33.3 144.1z" />
	<path id="Layer" class="s1" d="m528 149.4c-0.2 0-0.4-0.2-0.5-0.4l-18.4-41.9l-17.2 41.3c-0.1 0.3-0.4 0.4-0.7 0.3c-0.3-0.1-0.5-0.5-0.3-0.7l17.7-42.5c0.1-0.3 0.3-0.4 0.5-0.4c0.3 0 0.5 0.1 0.5 0.3l18.9 43.2c0.1 0.3 0 0.6-0.3 0.7q-0.1 0.1-0.2 0.1z" />
	<path id="Layer" class="s2" d="m528.1 145.9c0.9 2.3 1.4 4.7 1.4 7.3c0 10.7-8.8 19.5-19.5 19.5c-10.8 0-19.5-8.8-19.5-19.5c0-2.6 0.5-5 1.4-7.3z" />
	<path id="Layer" class="s3" d="m528.1 145.9c0 1.6-8.1 2.9-18.1 2.9c-10 0-18.1-1.3-18.1-2.9c0-1.6 8.1-2.8 18.1-2.8c10 0 18.1 1.2 18.1 2.8z" />
	<path id="Layer" class="s1" d="m526.3 145.9c0 1.2-7.3 2.1-16.3 2.1c-9 0-16.3-0.9-16.3-2.1c0-1.1 7.3-2.1 16.3-2.1c9 0 16.3 1 16.3 2.1z" />
	<path id="Layer" class="s4" d="m522.8 163.6c-1 1.1-2.6-0.5-1.6-1.6c2.5-2.6 2.9-6 2.8-9.5c0-1.5 2.3-1.5 2.3 0c0.1 4.1-0.6 8.1-3.5 11.1z" />
	<path id="Layer" class="s1" d="m526.3 145.9c0 0.9-3.9 1.6-9.6 2q-0.5 0-1 0q-0.7 0-1.4 0.1q-0.5 0-1 0q-1.1 0-2.3 0q-0.5 0-1 0q-2.3 0-4.4 0q-0.5-0.1-1-0.1c-6.3-0.3-10.9-1-10.9-2c0-0.8 3.8-1.6 9.3-1.9q0.5 0 1.1 0q2.5-0.2 5.3-0.2h1q1.7 0 3.2 0.1q0.6 0 1 0q0.9 0 1.7 0.1q0.5 0 1 0c5.3 0.4 9 1.1 9 1.9z" />
	<path id="Layer" class="s5" d="m478.3 167c-0.6 2.1-2.4 3.3-4.5 3.1c-0.3-0.1-0.5-0.2-0.5-0.5c-0.1-3 0-6.1 2.6-7.9q0.3-0.2 0.5-0.1q0.1 0 0.3 0.1c2 1 2.2 3.3 1.6 5.3z" />
	<path id="Layer" class="s5" d="m481.7 162.4c-0.2 0.4-0.9 0.6-1.3 0.3q-2.2-1.5-3.6-3.8c-1.5 0.7-3.2 1.1-4.7 1.3c-1 0-3.2 0.2-3.5-1.2c-0.5-3.1 6.9-2.8 8.5-2.8c0.1-0.3 0.5-0.6 1-0.4c1.4 0.6 2.5 1.3 3.1 2.7c0.6 1.2 1.2 2.7 0.5 3.9z" />
	<path id="Layer" class="s5" d="m483.8 154.2c0 1.2-0.9 2.5-2.2 2c-0.9-0.3-1.5-1.4-1.9-2.1c-0.8-1.5-1.5-1.5-3.3-1.4c-2.1 0.1-4.6 0.9-5.8-1.3q-0.1-0.1-0.1-0.2q-0.3-0.2-0.4-0.5c-0.2-0.4-0.2-0.8 0.1-1.2c1.1-1.2 3.3-1.5 4.8-1.5c1.9 0 3.7 0.6 5.2 1.8q0.2 0.1 0.3 0.3c1.4 1.1 3.2 2.3 3.3 4.1z" />
	<path id="Layer" class="s5" d="m487.5 150.8c-0.7 1-2.1 0.5-3-0.1c-1.1-0.7-1.6-1.8-2.5-2.7q-0.1-0.1-0.2-0.2c-1.4-0.2-2.7-0.6-3.7-1.6c-0.9-0.9-1.8-2.6-0.8-3.8c1-1.2 2.7 0.1 3.7 0.7c1 0.7 1.9 1.5 2.3 2.6q0.2 0 0.3 0.1c1.2 0.5 2.6 1 3.5 1.9c0.8 0.8 1.2 2.2 0.4 3.1z" />
	<path id="Layer" class="s5" d="m491.4 148.2c-1.1 0.9-2.2-0.6-2.6-1.5c-0.4-1.1-0.3-2.4-0.1-3.6c-0.9 0.2-1.8 0.2-2.8-0.1c-1-0.3-2.3-1-2.6-2.1c-0.3-1.2 0.6-2.2 1.8-2c0.8 0 1.6 0.5 2.3 0.7q1.3 0.5 2.6 1q0.1 0 0.1 0q0.2-0.1 0.4-0.1c1.5 0.2 2 2.2 2.2 3.5c0.2 1.4-0.1 3.2-1.3 4.2z" />
	<path id="Layer" class="s5" d="m497.2 140.1c0.6 1.2 1.1 2.5 0.8 3.8c-0.3 1.2-1.1 2.1-2.1 2.9c-0.5 0.4-1.3 0.3-1.6-0.5c-0.6-2-0.4-4.2 0.7-6.1q-0.1-0.2-0.1-0.5q0-0.1 0-0.1c-1.2-1.6-2.1-4.3-0.2-5.5c0.9-0.6 2-0.2 2.6 0.6c1.4 0.8 0.7 3.6 0.3 4.8q-0.1 0.3-0.3 0.4q0 0.1-0.1 0.2z" />
	<path id="Layer" class="s5" d="m505.2 141.7q0 0.4-0.3 0.7c0.1 1-0.1 1.9-0.6 2.8c-0.5 0.9-1.6 1.2-2.4 0.4c-0.7-0.7-0.4-1.9 0-2.7q0.3-0.7 0.8-1.2q0-0.1 0-0.1c0.1-1.1-0.4-2.2-0.2-3.3c0.2-1 1-2 2.1-1.6c0.9 0.4 1.3 1.6 1.4 2.4c0 1-0.3 1.8-0.8 2.6z" />
	<path id="Layer" class="s6" d="m515.3 137.2c-0.4 0.4-0.6 0.8-0.9 1.3c-0.3 0.6-0.8 1.1-1.4 1.2q-0.2 0-0.3 0c-0.1 0.5-0.5 0.6-1 0.5q-0.3 0.1-0.6-0.2c-1.7-0.4-7.4-1.9-5.8-4.3c0.8-1.2 2.5-0.4 3.4 0.1c0.9 0.4 1.7 1 2.5 1.7c0.2-0.9 0.5-1.8 0.9-2.5c0.7-1 1.9-1.5 3-0.9c1.2 0.7 1 2.1 0.2 3.1z" />
	<path id="Layer" class="s6" d="m507.8 133.2q-0.1 0-0.2 0.1q-0.1 0.2-0.4 0.3q-0.2 0.3-0.6 0.3q-0.1 0-0.1 0c-1.2 0.5-2.6 1.3-3.9 1.4c-1 0.1-2.1-0.5-2-1.7c0.1-1.1 1.4-1.6 2.4-1.8q1.3-0.3 2.5-0.1c-0.2-1.2-0.4-2.6 0.1-3.7c0.6-1.1 1.9-1.8 3-1c2.1 1.3 1.3 5.2-0.8 6.2z" />
	<path id="Layer" class="s6" d="m501.5 129.3q0.1 0.3 0 0.6c-0.4 1.1-1 2.1-1.9 2.8c-0.8 0.6-2.1 1.4-3.1 0.9c-1-0.5-1.1-1.9-0.4-2.7c0.5-0.6 1.3-0.9 2-1.2q-0.1-0.2-0.2-0.3c-1.1-0.7-1.9-2-1.7-3.3c0.2-1.5 1.7-2.5 3.2-1.8q0.6 0.3 0.9 0.8q0.3 0.2 0.4 0.3c1 1 1 2.5 0.9 3.7q0 0.1-0.1 0.2z" />
	<path id="Layer" class="s6" d="m494.4 128.9c-0.6 1.7-3.5 6.2-5.8 4.1c-0.9-0.8-0.7-2.6 0-3.4c0.5-0.6 1.1-0.8 1.8-1q0.3-0.1 0.5-0.2q-0.4-0.3-0.8-0.6q-0.1-0.1-0.1-0.1c-1.9-1.3-3.9-3.2-2.3-4.6c0.4-0.4 0.9-0.5 1.5-0.4c0.5-0.2 1.2-0.1 1.8 0.2c1.6 1 2.4 3.1 2.9 4.8q0 0 0 0.1c0.4 0.2 0.7 0.6 0.5 1.1z" />
	<path id="Layer" class="s6" d="m485.5 129.2c-0.1 1.1-0.4 2.2-0.8 3.2c-0.4 0.9-1.3 2.2-2.4 1.9c-1.3-0.3-0.8-2.1-0.5-3q0.4-1.2 1-2.3c-1.6-0.5-4.4-1.5-4.2-3.5c0-0.6 0.5-1.1 1.2-0.9c2.1 0.7 4.3 1.5 5.7 3.3c0.3 0.4 0.2 0.9 0 1.3z" />
	<path id="Layer" class="s6" d="m477 135.5c-2.1 0.5-1.7-2.4-1.5-4c-0.9-0.2-1.8-0.5-2.6-1c-0.7-0.5-1.9-1.5-1-2.4c0.6-0.7 2.2-0.4 3-0.1c1 0.2 1.9 0.8 2.7 1.4c0.4-0.1 0.8 0.1 0.9 0.7c0.3 1.5 0.5 5-1.5 5.4z" />
	<path id="Layer" class="s6" d="m473.7 132.6q0 0.3-0.2 0.6c-0.9 1.1-1.8 2.2-3.2 2.8c-1.1 0.4-2.7 0.5-3.2-0.8c-1.5-3.3 3.7-3.7 5.7-3.7c0.7 0 1 0.6 0.9 1.1z" />
	<path id="Layer" class="s6" d="m520.1 145.4c-0.9 1-2.2 0.1-3-0.6q-1.5-1.1-2.3-2.7q-0.2-0.4-0.1-0.8q-0.1-0.2 0-0.4c0.2-1.4 1.1-4.4 3-4c1.1 0.3 1.2 1.5 0.8 2.3q-0.5 0.8-1.1 1.5q1.5 0.4 2.4 1.8c0.5 0.8 1 2.1 0.3 2.9z" />
	<path id="Layer" class="s6" d="m523.8 139c1 1.2 2.8 4 1.1 4.9c-1.8 1.1-3.6-3.1-4.1-4.2q-0.1-0.1-0.1-0.3c-0.3-0.2-0.5-0.5-0.3-1c0.5-1.6 3.1-5.1 5.3-3.8c1.9 1.1-0.2 3.1-1.9 4.4z" />
	<path id="Layer" class="s6" d="m536.3 137.2c-0.3 1.8-2.4 2.6-4 2.8c-0.3 0.1-0.8 0-1.2 0c0.9 2.1 1.1 4.3 0.3 6.5c-0.2 0.5-0.9 1-1.4 0.6c-1-0.8-1.2-1.8-1.4-2.9c-0.3-1.4-0.8-3.2-0.5-4.6q0-0.1 0-0.2c-0.1-0.2-0.1-0.5 0.1-0.8c0.9-1.4 2.2-1.9 3.7-2.3c1.3-0.4 3-1.1 4.2-0.1c0.3 0.3 0.3 0.7 0.2 1z" />
	<path id="Layer" class="s6" d="m542.9 143.3c-1.8 1-3.8 1.3-5.8 0.9c0.1 1.5-0.1 3.1-0.8 4.5c-0.5 0.9-1.6 2.3-2.7 1.3c-0.9-0.8-0.6-3.2-0.4-4.2c0.2-1.4 0.8-2.8 1.9-3.7q0.3-0.1 0.5-0.2q0.1 0 0.2-0.1c2.2-0.8 4.6-0.9 6.9-0.3c0.8 0.2 1 1.4 0.2 1.8z" />
	<path id="Layer" class="s6" d="m546.3 151.2c-0.5 1.1-1.8 1.3-2.8 0.8c-0.9-0.3-1.8-0.9-2.6-1.4q-0.5 1.6-1.6 2.7c-0.6 0.7-1.6 1.7-2.5 1.1c-2-1.3 0.7-4.7 1.9-6.2q0.1-0.2 0.3-0.3q0-0.1 0.1-0.1c0.2-0.3 0.4-0.3 0.7-0.3q0.2-0.2 0.6-0.2c1.6 0.3 7.1 1.3 5.9 3.9z" />
	<path id="Layer" class="s6" d="m547.8 159.5c-1.1 0.6-2.4 0.6-3.5 0c-0.6-0.4-1.1-0.9-1.5-1.4c-0.5 0.6-0.5 1.9-0.7 2.5c-0.4 0.7-0.8 1.3-1.3 1.9c-0.8 0.8-2 1.1-2.7 0c-0.8-1.2 0.3-3.2 1-4.2c0.9-1.4 2-2.5 3.4-3.5c0.4-0.2 0.7-0.2 1 0c1.9 0.5 3.5 1.7 4.6 3.4c0.3 0.4 0.1 1-0.3 1.3z" />
	<path id="Layer" class="s6" d="m546.1 170c-1.1 1.6-2.4 0.6-3.2-0.8c-1-1.9-0.6-4.1-0.2-6.1c0.2-0.7 1-0.8 1.5-0.5c1.3-0.3 2.2 1.1 2.6 2.3c0.6 1.7 0.3 3.6-0.7 5.1z" />
	<path id="Layer" class="s5" d="m508.8 144.1c-0.3 1-1 2.2-2.2 2c-2.5-0.3-1.4-4.4-0.6-6.2q-0.1 0-0.1-0.1c-0.5-0.8-0.9-1.7-1.1-2.7c-0.1-0.8-0.2-1.8 0.6-2.2c0.8-0.5 1.8 0 2.1 0.8c0.5 0.8 0.6 2 0.8 2.9q0.1 0.4-0.1 0.7q0.3 0.2 0.5 0.6c0.5 1.3 0.6 2.8 0.1 4.2z" />
	<path id="Layer" class="s5" d="m503.3 147.6c-0.4 0.6-1.3 0.6-1.7 0c-1.2-1.9-1.1-4-0.6-6c-0.8 0.2-1.6 0.3-2.4 0.2c-0.9 0-2.2-0.6-2.4-1.6c-0.5-3 5-1.6 6.3-1.4c0.5 0.1 0.7 0.4 0.7 0.8q0.2 0.3 0.2 0.7c0.8 2.4 1.3 5-0.1 7.3z" />
	<path id="Layer" class="s5" d="m501.6 154c-0.1 0.7-1.2 1-1.6 0.4q-1.6-1.7-2.6-3.8c-1 1.2-2.4 2-4.1 1.8q-0.1 0-0.2 0c-1.3-0.1-1.6-1.4-0.8-2.4c0.4-0.5 1-1 1.7-1.4q1.5-1.5 3.5-2.4c0.5-0.3 1.5 0 1.4 0.8c2.1 0.9 3 5.1 2.7 7z" />
	<path id="Layer" class="s5" d="m498.3 161.8c-0.2 0.2-0.6 0.3-0.9 0.2c-0.8-0.3-1.1-1-1.4-1.7q-0.4-0.9-0.8-1.7q-0.6 1.1-1.5 1.8c-0.8 0.7-2.2 1.5-3.3 0.8c-2.4-1.7 3.4-5.4 4.6-6q0.1-0.1 0.2-0.1c0.4-0.5 1-0.7 1.5-0.2c1.4 1.6 3.5 4.9 1.6 6.9z" />
	<path id="Layer" class="s5" d="m495.9 169.3c-0.2 1.6-1.2 2.8-2.3 3.9c-0.4 0.4-1 0.3-1.4 0c-1.3-1.2-1.4-3.4-1.2-5c0.2-1.9 1-3.5 2.2-5q0.1-0.1 0.1-0.1q0.2-0.2 0.3-0.3c0.8-0.9 2 0.3 1.5 1.2c0.4 1.7 1 3.6 0.8 5.3z" />
	<path id="Layer" class="s5" d="m544.9 164.5c0.1 0.6-0.9 0.9-1 0.3c-1-7.5-3.4-17.3-9.6-22.3c-6.6-5.4-16.4-4-21.6 2.7q-0.1 0.1-0.2 0.1q0 0.1 0 0.2c-0.2 0.6-1.1 0.4-1-0.3q0.1-0.1 0.1-0.3q-0.1-0.2-0.1-0.4q0.1-0.2 0.1-0.4c-0.1-3.6-5.3-4-8.1-3.8q-0.7 0.1-1.4 0.4c3 0.9 5.8 2.6 8 4.9c0.4 0.5-0.3 1.1-0.7 0.7c-2.3-2.4-5.1-4-8.2-4.9c-1.8 1.8-2.6 5.2-3.3 7.3q-2.9 8.7-3.3 17.7c0 0.7-1 0.7-1 0c0.3-4.6 1-9.2 2.1-13.7q0.9-3.4 2.2-6.7c0.6-1.6 1.1-3.4 2-4.8c-4-0.8-8.3-0.2-12 2.1c-6.7 4.2-9.5 12.3-11.5 19.6c-0.1 0.6-1.1 0.4-0.9-0.2c2.1-8 5.4-16.9 13.1-20.9c3.8-2 8.1-2.4 12.1-1.5c2-1.7 5.9-1.3 8.2-0.5c1.3 0.4 2.3 1.3 3 2.3c0.2-7.4-8.9-11-15.3-12.1c-7.7-1.2-15.8-0.8-22.9 2.6c-0.6 0.3-1-0.6-0.5-0.8c8.1-3.9 17.4-4.1 26.1-2.3c6.8 1.5 14.7 6.4 13.4 14.3c4.9-5.6 12.9-7.3 19.6-3.8c8.3 4.4 11.4 16 12.6 24.5z" />
	<path id="Layer" class="s7" d="m132.2 269.6h5.4v89.8h-5.4z" />
	<path id="Layer" class="s8" d="m132.9 269.6h5.5v89.8h-5.5z" />
	<path id="Layer" class="s9" d="m64.3 359.4l11.8-91.7l8.1 1.9v89.8z" />
	<path id="Layer" class="s7" d="m19.6 267.7h130.7l9 1.9h-131.6z" />
	<path id="Layer" class="s8" d="m27.7 269.6h59.6v89.8h-59.6z" />
	<path id="Layer" class="s7" d="m19.7 357.6v-89.9l8 1.9v89.8z" />
	<path id="Layer" class="s7" d="m83.5 290.8h-51.7v-16.8h51.7z" />
	<path id="Layer" class="s10" d="m30.6 274h1.2v16.8h-1.2z" />
	<path id="Layer" class="s11" d="m64.6 282.8h-10.2v-0.8h10.2z" />
	<path id="Layer" class="s11" d="m55.7 282.4c0 0.7-0.6 1.3-1.3 1.3c-0.8 0-1.4-0.6-1.4-1.3c0-0.7 0.6-1.3 1.4-1.3c0.7 0 1.3 0.6 1.3 1.3z" />
	<path id="Layer" class="s11" d="m65.9 282.4c0 0.7-0.6 1.3-1.3 1.3c-0.8 0-1.4-0.6-1.4-1.3c0-0.7 0.6-1.3 1.4-1.3c0.7 0 1.3 0.6 1.3 1.3z" />
	<path id="Layer" class="s7" d="m83.5 311h-51.7v-16.9h51.7z" />
	<path id="Layer" class="s10" d="m30.6 294.1h1.2v16.9h-1.2z" />
	<path id="Layer" class="s11" d="m64.6 303h-10.2v-0.8h10.2z" />
	<path id="Layer" class="s11" d="m55.7 302.6c0 0.7-0.6 1.2-1.3 1.2c-0.8 0-1.4-0.5-1.4-1.2c0-0.8 0.6-1.3 1.4-1.3c0.7 0 1.3 0.5 1.3 1.3z" />
	<path id="Layer" class="s11" d="m65.9 302.6c0 0.7-0.6 1.2-1.3 1.2c-0.8 0-1.4-0.5-1.4-1.2c0-0.8 0.6-1.3 1.4-1.3c0.7 0 1.3 0.5 1.3 1.3z" />
	<path id="Layer" class="s7" d="m83.5 334.7h-51.7v-16.9h51.7z" />
	<path id="Layer" class="s10" d="m30.6 317.8h1.2v16.9h-1.2z" />
	<path id="Layer" class="s11" d="m64.6 326.7h-10.2v-0.8h10.2z" />
	<path id="Layer" class="s11" d="m55.7 326.3c0 0.7-0.6 1.3-1.3 1.3c-0.8 0-1.4-0.6-1.4-1.3c0-0.7 0.6-1.3 1.4-1.3c0.7 0 1.3 0.6 1.3 1.3z" />
	<path id="Layer" class="s11" d="m65.9 326.3c0 0.7-0.6 1.3-1.3 1.3c-0.8 0-1.4-0.6-1.4-1.3c0-0.7 0.6-1.3 1.4-1.3c0.7 0 1.3 0.6 1.3 1.3z" />
	<path id="Layer" class="s7" d="m83.5 354.9h-51.7v-16.9h51.7z" />
	<path id="Layer" class="s10" d="m30.6 338h1.2v16.9h-1.2z" />
	<path id="Layer" class="s11" d="m64.6 346.9h-10.2v-0.8h10.2z" />
	<path id="Layer" class="s11" d="m55.7 346.4c0 0.7-0.6 1.3-1.3 1.3c-0.8 0-1.4-0.6-1.4-1.3c0-0.7 0.6-1.3 1.4-1.3c0.7 0 1.3 0.6 1.3 1.3z" />
	<path id="Layer" class="s11" d="m65.9 346.4c0 0.7-0.6 1.3-1.3 1.3c-0.8 0-1.4-0.6-1.4-1.3c0-0.7 0.6-1.3 1.4-1.3c0.7 0 1.3 0.6 1.3 1.3z" />
	<path id="Layer" class="s8" d="m159.3 274h-77.2v-4.4h77.2z" />
	<path id="Layer" class="s7" d="m153.1 269.6h5.5v89.8h-5.5z" />
	<path id="Layer" class="s8" d="m153.8 269.6h5.5v89.8h-5.5z" />
	<path id="Layer" class="s12" d="m67.1 262.8c-1.8 0-3.4-1.5-3.4-3.4v-16.2h6.8v16.2c0 1.9-1.5 3.4-3.4 3.4z" />
	<path id="Layer" class="s2" d="m69.3 247.2v11.7c0 1-0.8 1.9-1.8 2.1q-0.2 0-0.4 0c-1.2 0-2.1-0.9-2.1-2.1v-11.7h2.5z" />
	<path id="Layer" class="s13" d="m69.3 246.6v0.6h-1.8v-0.6c0-0.5 0.4-0.9 0.9-0.9c0.5 0 0.9 0.4 0.9 0.9z" />
	<path id="Layer" class="s12" d="m70.9 244.7h-7.5c-0.8 0-1.5-0.7-1.5-1.5c0-0.8 0.7-1.5 1.5-1.5h7.5c0.8 0 1.5 0.7 1.5 1.5c0 0.8-0.7 1.5-1.5 1.5z" />
	<path id="Layer" class="s12" d="m70.5 245.1h-6.8v-0.4h6.8z" />
	<path id="Layer" class="s12" d="m54.6 262.8c-1.9 0-3.4-1.5-3.4-3.4v-16.2h6.8v16.2c0 1.9-1.5 3.4-3.4 3.4z" />
	<path id="Layer" class="s2" d="m56.7 247.2v11.7c0 1-0.7 1.9-1.8 2.1q-0.1 0-0.3 0c-1.2 0-2.2-0.9-2.2-2.1v-11.7h2.5z" />
	<path id="Layer" class="s13" d="m56.7 246.6v0.6h-1.8v-0.6c0-0.5 0.4-0.9 0.9-0.9c0.5 0 0.9 0.4 0.9 0.9z" />
	<path id="Layer" class="s12" d="m58.3 244.7h-7.5c-0.8 0-1.5-0.7-1.5-1.5c0-0.8 0.7-1.5 1.5-1.5h7.5c0.9 0 1.5 0.7 1.5 1.5c0 0.8-0.6 1.5-1.5 1.5z" />
	<path id="Layer" class="s12" d="m58 245.1h-6.8v-0.4h6.8z" />
	<path id="Layer" class="s12" d="m79.7 262.8c-1.9 0-3.4-1.5-3.4-3.4v-16.2h6.8v16.2c0 1.9-1.6 3.4-3.4 3.4z" />
	<path id="Layer" class="s2" d="m81.8 247.2v11.7c0 1-0.8 1.9-1.8 2.1q-0.2 0-0.3 0c-1.2 0-2.2-0.9-2.2-2.1v-11.7h2.5z" />
	<path id="Layer" class="s13" d="m81.8 246.6v0.6h-1.8v-0.6c0-0.5 0.4-0.9 0.9-0.9c0.5 0 0.9 0.4 0.9 0.9z" />
	<path id="Layer" class="s12" d="m83.4 244.7h-7.5c-0.8 0-1.5-0.7-1.5-1.5c0-0.8 0.7-1.5 1.5-1.5h7.5c0.8 0 1.5 0.7 1.5 1.5c0 0.8-0.7 1.5-1.5 1.5z" />
	<path id="Layer" class="s12" d="m83.1 245.1h-6.8v-0.4h6.8z" />
	<path id="Layer" class="s1" d="m89.5 268.6h-44.6v-3h44.6z" />
	<path id="Layer" class="s1" d="m89.5 248.9h-44.6v-0.9h44.6z" />
	<path id="Layer" class="s1" d="m48.6 267.9h-1.5v-19.2h1.5z" />
	<path id="Layer" class="s1" d="m87.5 267.9h-1.5v-19.2h1.5z" />
	<path id="Layer" class="s12" d="m122.1 262.8c-1.8 0-3.4-1.5-3.4-3.4v-16.2h6.8v16.2c0 1.9-1.5 3.4-3.4 3.4z" />
	<path id="Layer" class="s2" d="m124.3 247.2v11.7c0 1-0.8 1.9-1.8 2.1q-0.2 0-0.4 0c-1.2 0-2.1-0.9-2.1-2.1v-11.7h2.5z" />
	<path id="Layer" class="s13" d="m124.3 246.6v0.6h-1.8v-0.6c0-0.5 0.4-0.9 0.9-0.9c0.5 0 0.9 0.4 0.9 0.9z" />
	<path id="Layer" class="s12" d="m125.9 244.7h-7.5c-0.8 0-1.5-0.7-1.5-1.5c0-0.8 0.7-1.5 1.5-1.5h7.5c0.8 0 1.5 0.7 1.5 1.5c0 0.8-0.7 1.5-1.5 1.5z" />
	<path id="Layer" class="s12" d="m125.5 245.1h-6.8v-0.4h6.8z" />
	<path id="Layer" class="s12" d="m109.6 262.8c-1.9 0-3.4-1.5-3.4-3.4v-16.2h6.8v16.2c0 1.9-1.5 3.4-3.4 3.4z" />
	<path id="Layer" class="s2" d="m111.7 247.2v11.7c0 1-0.7 1.9-1.8 2.1q-0.1 0-0.3 0c-1.2 0-2.2-0.9-2.2-2.1v-11.7h2.5z" />
	<path id="Layer" class="s13" d="m111.7 246.6v0.6h-1.8v-0.6c0-0.5 0.4-0.9 0.9-0.9c0.5 0 0.9 0.4 0.9 0.9z" />
	<path id="Layer" class="s12" d="m113.3 244.7h-7.5c-0.8 0-1.5-0.7-1.5-1.5c0-0.8 0.7-1.5 1.5-1.5h7.5c0.8 0 1.5 0.7 1.5 1.5c0 0.8-0.7 1.5-1.5 1.5z" />
	<path id="Layer" class="s12" d="m113 245.1h-6.8v-0.4h6.8z" />
	<path id="Layer" class="s12" d="m134.7 262.8c-1.9 0-3.5-1.5-3.5-3.4v-16.2h6.9v16.2c0 1.9-1.6 3.4-3.4 3.4z" />
	<path id="Layer" class="s2" d="m136.8 247.2v11.7c0 1-0.8 1.9-1.8 2.1q-0.2 0-0.3 0c-1.2 0-2.2-0.9-2.2-2.1v-11.7h2.5z" />
	<path id="Layer" class="s13" d="m136.8 246.6v0.6h-1.8v-0.6c0-0.5 0.4-0.9 0.9-0.9c0.5 0 0.9 0.4 0.9 0.9z" />
	<path id="Layer" class="s12" d="m138.4 244.7h-7.5c-0.8 0-1.5-0.7-1.5-1.5c0-0.8 0.7-1.5 1.5-1.5h7.5c0.8 0 1.5 0.7 1.5 1.5c0 0.8-0.7 1.5-1.5 1.5z" />
	<path id="Layer" class="s12" d="m138.1 245.1h-6.9v-0.4h6.9z" />
	<path id="Layer" class="s1" d="m144.5 268.6h-44.6v-3h44.6z" />
	<path id="Layer" class="s1" d="m144.5 248.9h-44.6v-0.9h44.6z" />
	<path id="Layer" class="s1" d="m103.6 267.9h-1.5v-19.2h1.5z" />
	<path id="Layer" class="s1" d="m142.5 267.9h-1.5v-19.2h1.5z" />
	<path id="Layer" class="s14" d="m538.1 271.6v-38.9c0-0.6 0.5-1.1 1.1-1.1h38.6c0.7 0 1.2 0.5 1.2 1.1v38.9c0 0.6-0.5 1.1-1.2 1.1h-38.6c-0.6 0-1.1-0.5-1.1-1.1z" />
	<path id="Layer" class="s12" d="m518.1 271.6v-38.9c0-0.6 0.5-1.1 1.2-1.1h38.5c0.7 0 1.2 0.5 1.2 1.1v38.9c0 0.6-0.5 1.1-1.2 1.1h-38.5c-0.7 0-1.2-0.5-1.2-1.1z" />
	<path id="Layer" class="s1" d="m521.5 261.6v-24.3c0-1.5 1.3-2.8 2.8-2.8h28.5c1.5 0 2.8 1.3 2.8 2.8v24.3c0 1.5-1.3 2.8-2.8 2.8h-28.5c-1.5 0-2.8-1.3-2.8-2.8z" />
	<path id="Layer" class="s15" d="m551.5 268.7c0-1 0.8-1.8 1.7-1.8c1 0 1.7 0.8 1.7 1.8c0 0.9-0.7 1.7-1.7 1.7c-0.9 0-1.7-0.8-1.7-1.7z" />
	<path id="Layer" class="s3" d="m545.9 268.7c0-1 0.8-1.8 1.8-1.8c0.9 0 1.7 0.8 1.7 1.8c0 0.9-0.8 1.7-1.7 1.7c-1 0-1.8-0.8-1.8-1.7z" />
	<path id="Layer" class="s3" d="m530.7 268.7c0-1 0.7-1.8 1.7-1.8c0.9 0 1.7 0.8 1.7 1.8c0 0.9-0.8 1.7-1.7 1.7c-1 0-1.7-0.8-1.7-1.7z" />
	<path id="Layer" class="s16" d="m545.9 234.5h5.6l-5.6 29.9h-5.5z" />
	<path id="Layer" class="s16" d="m539 234.5h2.7l-5.5 29.9h-2.8z" />
	<path id="Layer" fill-rule="evenodd" class="s1" d="m560.9 280.4h27.2v71.1h-27.2zm25.9 1.3h-24.7v68.6h24.7z" />
	<path id="Layer" fill-rule="evenodd" class="s1" d="m510.2 280.4h27.2v71.1h-27.2zm25.9 1.3h-24.7v68.6h24.7z" />
	<path id="Layer" class="s11" d="m507.5 279.5c0-4.3 3.6-7.9 8-7.9h66.1c4.4 0 8 3.6 8 7.9v2.2h-82.1z" />
	<path id="Layer" class="s1" d="m565.1 352.3c2 0 3.6 1.6 3.6 3.6c0 1.9-1.6 3.5-3.6 3.5c-2 0-3.6-1.6-3.6-3.5c0-2 1.6-3.6 3.6-3.6z" />
	<path id="Layer" class="s8" d="m565.1 353.7c1.2 0 2.1 1 2.1 2.2c0 1.2-0.9 2.1-2.1 2.1c-1.2 0-2.2-0.9-2.2-2.1c0-1.2 1-2.2 2.2-2.2z" />
	<path id="Layer" class="s11" d="m559.7 348.8h29.5v4.2h-29.5z" />
	<path id="Layer" class="s1" d="m533.1 352.3c2 0 3.6 1.6 3.6 3.6c0 1.9-1.6 3.5-3.6 3.5c-1.9 0-3.5-1.6-3.5-3.5c0-2 1.6-3.6 3.5-3.6z" />
	<path id="Layer" class="s8" d="m533.1 353.7c1.2 0 2.2 1 2.2 2.2c0 1.2-1 2.1-2.2 2.1c-1.1 0-2.1-0.9-2.1-2.1c0-1.2 1-2.2 2.1-2.2z" />
	<path id="Layer" class="s1" d="m514.4 352.3c1.9 0 3.5 1.6 3.5 3.6c0 1.9-1.6 3.5-3.5 3.5c-2 0-3.6-1.6-3.6-3.5c0-2 1.6-3.6 3.6-3.6z" />
	<path id="Layer" class="s8" d="m514.4 353.7c1.2 0 2.1 1 2.1 2.2c0 1.2-0.9 2.1-2.1 2.1c-1.2 0-2.2-0.9-2.2-2.1c0-1.2 1-2.2 2.2-2.2z" />
	<path id="Layer" class="s11" d="m509 348.8h29.5v4.2h-29.5z" />
	<path id="Layer" class="s16" d="m432.3 223.7h-156v-167.6h156z" />
	<path id="Layer" class="s13" d="m330.6 220.1h-16.3l69.4-161.6h16.3z" />
	<path id="Layer" class="s13" d="m301.8 220.1h-8.2l69.4-161.6h8.2z" />
	<path id="Layer" class="s13" d="m381.1 220.1h-8.1l57.5-140.5l1.8 11.3z" />
	<path id="Layer" class="s7" d="m278.6 226.3h-4.6v-172.5h4.6z" />
	<path id="Layer" class="s7" d="m330.6 225.3h-4.6v-170.4h4.6z" />
	<path id="Layer" class="s7" d="m434.6 53.8v4.7h-160.6v-4.7z" />
	<path id="Layer" class="s7" d="m434.6 221.4v4.6h-160.6v-4.6z" />
	<path id="Layer" class="s7" d="m382.6 225.3h-4.6v-170.4h4.6z" />
	<path id="Layer" class="s7" d="m434.6 226.3h-4.6v-172.5h4.6z" />
	<path id="Layer" class="s7" d="m434.6 137.8v4.6h-160.6v-4.6z" />
	<path id="Layer" class="s17" d="m278.6 144v-1.6h151.4v1.6z" />
	<path id="Layer" class="s17" d="m278.6 221.7v-1.6h151.4v1.6z" />
	<path id="Layer" class="s17" d="m278.6 60.1v-1.6h151.4v1.6z" />
	<path id="Layer" class="s15" d="m325.6 233q-3.2 20.4-18.1 25.5c-3.7 1.3-4.8 10.7-4.3 17.7q6.1 2.8 4.2 5c-1.7 2.1-9.4 0.8-9.5-0.7c-0.2-1.4-3.1-19.2 0.5-20.9c3.7-1.7-2.8-14.4 0.3-24.3c5.4-17.2 25.6-5.7 26.9-2.3z" />
	<path id="Layer" class="s15" d="m358.2 242.8c3.5-6.4 17.2 5.1 23 10c5.9 5-3.2 16.2-6.2 17.3c-5 1.8-7.2-4-3.8-4.9c3.4-0.9 7.7-6.3 4-8.2q-0.5-0.3-1.1-0.5q0.1 0.1 0.1 0.3c0.1 0.4-0.3 0.9-0.7 0.8c-0.1 0-2.2-0.5-2.3-0.3c-0.1 0.3-0.5 0.5-0.9 0.4c-0.8-0.3-1.8-1.1-2.2-0.2c-0.1 0.3-0.5 0.6-0.9 0.4q-1.1-0.5-2-1.1v0.4c0 0.7-0.8 1.1-1.3 0.5q-0.4-0.4-0.8-1q0 0.1 0 0.1c-0.3 0.5-0.9 0.6-1.2 0.2c-1.3-1.3-2.2-2.8-2.8-4.5c-1.2-0.4-2.2-0.8-2.8-1.4q-3.8-3.5 1.9-8.3z" />
	<path id="Layer" class="s18" d="m260.5 207.4q1 0.2 2 0.4c-1.2-2.2-2-4.3-1.6-6.9c0.1-0.4 0.7-0.8 1.1-0.5q1 0.8 1.8 1.6c-0.2-2.4-0.2-5.6 1.3-6.8c0.2-0.1 0.5-0.2 0.7-0.1c2.2 1.1 4 3.5 5.8 5.2q3.7 3.5 7.5 7c5.2 4.7 10.3 10 16.9 12.5q0.9-0.4 2-0.7c12.1-3.3 38.4-1 44.7-2.9c2.2-0.6 6-1.7 10.3-2.5c7.6-1.3 16.9-1.8 21.6 2.4q7.3 6.7 4.8 15.9q-2.6 5.3-7.9 10.1c-2.1 4.7-5.9 13-8.9 16.4c-2.5 3.1-4.8 10.7-4.3 17.7q6.1 2.8 4.2 5c-1.7 2.1-9.4 0.8-9.5-0.7c-0.1-0.9-1.5-8-2.1-13.7q-0.1 0.1-0.2 0.1c-0.5 0.2-1-0.1-1-0.7q0-0.2 0-0.5l-0.1 0.1c-0.5 0.1-1-0.2-1-0.7c0 0.7-0.2-1.7-0.2-1.7q0.4-0.9-0.2-0.3q-0.7 0.1-1.3 0.1c-0.6 0-0.8-0.7-0.6-1.1c0.1-0.2 0.8-1.3 1.2-2c-0.2 0.1-0.5 0.1-0.9 0.3c-0.5 0.1-1-0.7-0.7-1.1c0.6-0.8 2.3-2.4 2.4-3.7c-0.4 0.2-0.7 0.2-1.6 0.2c-0.7 0-0.8-0.9-0.4-1.2q0.8-0.7 1.6-1.4q-0.3 0-0.6 0c-0.7-0.1-0.8-1.1-0.2-1.4q1.7-0.7 3.2-1.7c-15.7-3.1-39.8-9.8-43.7-5.6c-0.1 0-5.1 11.6-12.1 14c-3.8 1.3-4.9 10.7-4.3 17.7q6 2.8 4.1 5c-1.7 2.1-9.4 0.8-9.5-0.7c-0.2-1.4-3.1-19.2 0.5-20.9c3.4-1.6-1.8-13.4-0.2-22q0-0.1 0-0.2q0.2-1 0.5-2.1q0.1-0.1 0.1-0.2c0.6-2.3 2.4-7.3 3.7-9.7c-0.5-0.1-7.3 1-10 1c-0.4 0-0.6-0.3-0.6-0.6c-2.1 0.2-4.3 0.2-6.5 0.3c-0.6 0-1.1-0.6-0.7-1.1l0.2-0.3c-1.9 0.1-3.8-0.1-5.4-0.8c-0.4-0.2-0.6-0.5-0.5-0.9c0.3-1 1.1-1.9 1.8-2.7c-1.7-0.7-4.4 0.3-6-0.7c-0.6-0.3-0.2-1.1 0.3-1.3q1-0.2 1.9-0.7c-1.1-0.9-2.1-1.8-3.1-2.9c-0.4-0.4-0.1-1 0.4-1.1q1.3-0.2 2.4-0.7q-0.2-0.5-0.3-0.8q0.1 0.1 0.3 0.1c-1.6-1.1-3.4-1.8-4-3.8c-0.2-0.5 0.3-1.2 0.9-1z" />
	<path id="Layer" class="s18" d="m382.9 191.2c-0.1 2-0.6 4.1-1.6 5.9c-0.6 1.2-1.1 2-2.5 2c-1.9-0.1-4.2-1.4-5.6-2.6q-0.1-0.1-0.2-0.2c-0.2-0.3-0.3-0.6 0-0.9c3.4-3 6.2-6.7 8.4-10.7c0.2-0.5 0.9-0.5 1.1 0c1 1.8 0.6 4.5 0.4 6.5z" />
	<path id="Layer" class="s18" d="m358.1 214.7c2.2-2.8 1.3-4.9 1.8-8c0.2-1.5 0.8-3.1 1.5-4.5c1.5-2.8 3.9-5 6.7-6.6q0.1-0.2 0.4-0.3c6.1-1.2 16.4-2.1 19.3 4.9l5.9 0.2q0.5 0 1.2 0c0.8 0 1.8 0 2.4 0.5c1.4 1.2 0.5 3.3 0 4.6q-0.1 0.1-0.1 0.2c-0.7 1.6-1.7 3-2.9 4.2q-0.8 0.8-1.8 1.4q0 0 0 0.1c-1.2 0.8-2.5 1.4-4 1.9c-2.2 0.7-3.6 1.6-4.8 3.3c0.1 2.3-2.8 9.2-4.7 11c-1.9 1.8-4.1-0.8-6.5-0.8c-3.7 0-5.7-1-8.5-3.5c-2.4-2.1-4.4-4.4-5.4-7.4c-0.5-0.1-0.9-0.7-0.5-1.2z" />
	<path id="Layer" class="s18" d="m374.4 196c-0.2 2-0.6 4.1-1.6 5.9c-0.7 1.2-1.1 2-2.5 1.9c-2-0.1-4.2-1.3-5.7-2.5q-0.1-0.1-0.1-0.3c-0.3-0.2-0.3-0.6 0-0.8c3.4-3.1 6.2-6.7 8.3-10.8c0.2-0.4 0.9-0.4 1.2 0c1 1.8 0.6 4.6 0.4 6.6z" />
	<path id="Layer" class="s15" d="m374.4 198.9c-0.4 2-1 5.5-3.7 5c-0.5 0.4-1.3 0-1.1-0.6c1.7-4.4 3.9-8.8 3.4-13.6c-0.1-0.7 0.9-0.9 1.2-0.3c1.6 2.7 0.9 6.6 0.2 9.5z" />
	<path id="Layer" class="s1" d="m381.3 200c-1.8 0-1.8 2.7 0 2.7c1.7 0 1.7-2.7 0-2.7z" />
	<path id="Layer" class="s1" d="m388.1 210c1.5 0.2 4.6 0 6.2-0.1q-0.8 0.8-1.8 1.4q0 0 0 0.1c-1.7 0-3.6 0.1-4.8-0.1c-0.8-0.1-0.5-1.5 0.4-1.3z" />
	<path id="Layer" class="s1" d="m394.9 200.4c0.8 0 1.8 0 2.4 0.5c1.4 1.2 0.5 3.3 0 4.6q-0.1 0.1-0.1 0.2c-0.3 0-0.6-0.1-0.9-0.2c-0.5-0.2-0.9-0.8-1.1-1.3c-0.6-1.2-0.7-2.6-0.3-3.8z" />
	<path id="Layer" class="s6" d="m379.6 230.8c-11.1-4-21.7-11.1-22.1-18.9q0.6-1.5 2.2-2.9q2.9 11.6 20.5 17q0.8 3.2-0.6 4.8z" />
	<path id="Layer" class="s19" d="m412.3 175.2c2.3 2.4 2.8 6.7 0.4 9c-1.7 1.7-3.9 1.3-5.9 0.5c-1.8-0.7-4.6-2-5-4.1c-0.1-0.7 0.6-1.4 1.3-1.3c-0.2-0.6-0.3-1.2 0.1-1.8c0.3-0.7 0.8-0.9 1.3-0.9c-0.4-0.7-0.4-1.5 0.5-2.2c0.3-0.3 0.7-0.3 1.2-0.3c-0.3-0.7-0.2-1.4 0.6-2c1.9-1.7 4.4 1.8 5.5 3.1z" />
	<path id="Layer" class="s20" d="m412.3 179q0 0.6-1.3 2.1q-0.1 0.7-1.8 1.4q-0.7 1-1.5 1.3q-0.8 0.4-3.9-1.3q1.3 0.5 2.6 0.6q1.3 0.1 2.2-1.5q1.2 0 1.6-1.5q1.2-0.1 0.9-1.6q1.5-0.2 1.6-1.9q1 1.4-0.4 2.4z" />
	<path id="Layer" class="s19" d="m415.9 176.5c0.3 1.6 0 3.6-0.3 5.3q0 0.1 0 0.1c-0.1 0.9-1.2 1.6-2 0.8c-0.9-0.9-1.9-2.1-1.8-3.4c0.1-0.7 1.3-1.4 1.1-2.2c-0.1-0.9-1.2-1.5-1.9-2c-1.3-0.8-0.9-3.1 0.5-2.5c1.6 0.6 3.9 2.1 4.4 3.9z" />
	<path id="Layer" class="s19" d="m415.6 179.2l3.3 9.7l-7.1 1.1l-1.4-6.1z" />
	<path id="Layer" class="s6" d="m414.4 159.8l-1.8-4l1.5-0.8l2.3 4.8l-2 4.2l-1.6-0.8z" />
	<path id="Layer" class="s5" d="m401.5 184.4l9.7-20.8c0.3-0.7 1.2-1 1.9-0.7l1.4 0.7c0.7 0.3 1 1.2 0.6 1.9l-9.7 20.8c-0.5 1-1.8 1.5-2.9 1c-1-0.5-1.5-1.8-1-2.9z" />
	<path id="Layer" class="s6" d="m420.6 149.2l-2.7 8.4c-0.3 0.8-1.1 1.4-1.9 1.4h-9.2c-0.4 0-0.7-0.2-0.8-0.4l-0.8-1.1l0.9-0.6l2.5-7.7c0.2-0.7 1.1-1.4 1.8-1.4h8.5l0.9-0.6l0.7 1q0 0 0 0.1q0 0.1 0 0.1c0.1 0.2 0.2 0.5 0.1 0.8z" />
	<path id="Layer" class="s5" d="m415.4 158h-9.3c-0.7 0-1.1-0.6-0.9-1.4l2.7-8.4c0.3-0.7 1.1-1.3 1.9-1.3h9.2c0.7 0 1.2 0.6 0.9 1.3l-2.7 8.4c-0.3 0.8-1.1 1.4-1.8 1.4z" />
	<path id="Layer" class="s16" d="m414.7 156.7h-7.1c-0.6 0-0.9-0.5-0.7-1l2.1-6.5c0.2-0.6 0.8-1 1.4-1h7.1c0.6 0 0.9 0.4 0.7 1l-2.1 6.5c-0.2 0.5-0.8 1-1.4 1z" />
	<path id="Layer" class="s12" d="m409.6 156.7h-1.4l4.3-8.5h1.5z" />
	<path id="Layer" class="s12" d="m411.4 156.7h-0.8l4.3-8.5h0.9z" />
	<path id="Layer" class="s12" d="m412.6 156.7h-0.8l4.3-8.5h0.8z" />
	<path id="Layer" class="s19" d="m403.1 178.9c-0.2-0.6-0.3-1.2 0.1-1.8c0.3-0.7 0.8-0.9 1.3-0.9c-0.4-0.7-0.4-1.5 0.5-2.1c0.3-0.3 0.7-0.4 1.2-0.4c-0.3-0.7-0.2-1.4 0.6-2c1.9-1.7 6.1 3.6 6.2 3.9c0.1 0.7-0.3 1.9-1.4 2.1q-0.2 2.5-1.4 2.5q-0.4 1.7-1.6 1.8q-0.9 1.8-2.2 1.7c-0.7-0.1-1.4-0.3-1.9-0.5c-1.3-0.7-2.4-1.7-2.7-3c-0.1-0.7 0.6-1.4 1.3-1.3z" />
	<path id="Layer" class="s12" d="m431.7 232.6c-4.6 3.1-11.4-1.1-12.5-9.2c-1-8.1 16.7-46.2 28.6-45.4c5.3 0.4-11.5 51.6-16.1 54.6z" />
	<path id="Layer" class="s12" d="m418.5 184.6c5.4 19.1 17.8 37.5 16.9 41c-1.2 4.8-10.2 9.3-15.6 3.2q-5.3-6.1-9.7-42.2q4.3 0.3 8.4-2z" />
	<path id="Layer" class="s16" d="m431.7 232.6q-4 3.6-11-3c16.3 3.7 1.4-29.9 20.9-47.8c19.4 0.8 0 41.7-9.9 50.8z" />
	<path id="Layer" class="s16" d="m427.6 199.7q2 3.9 2.1 12q-1.6-4.8-4.2-8.8z" />
	<path id="Layer" class="s12" d="m455 296.3q-8.5 0.2-25.7-3.4q0.1-55 1.8-83.6q1.7-28.5 17.7-33.4c-8.5 44.6 14.7 120.1 6.2 120.4z" />
	<path id="Layer" class="s11" d="m456.1 354.5v3.8h-14q4.7-3.8 9.4-3.8z" />
	<path id="Layer" class="s21" d="m456.1 359.4h-14v-1.1h14z" />
	<path id="Layer" class="s21" d="m455.9 355.2l0.5 4.2h-0.9z" />
	<path id="Layer" class="s16" d="m487.5 294.1q-26.7 6.2-41.9-2.4q-15.1-8.5 30.4-6.1z" />
	<path id="Layer" class="s1" d="m436.1 231.7q20.1 7.2 33.4 7.7c1.7 0.1 3.2 0.1 4.7 0q1.8 18.9 0 29.7q-1.8 10.8-13.4 85.4h-8.6q-14.4-91.3-15.4-97.3c-1.1-5.9-1.5-21.1-0.7-25.5z" />
	<path id="Layer" class="s8" d="m467.7 268.7q0.7-17.4-6.4-29.3h12.9q1.8 18.9 0 29.7q-1.8 10.8-13.4 85.4h-1.3c2.5-23.4 7.7-72.7 8.2-85.8z" />
	<path id="Layer" class="s11" d="m460.8 354.5q4.6 0 9.4 3.8h-14.1v-3.8z" />
	<path id="Layer" class="s21" d="m456.1 358.3h14.1v1.1h-14.1z" />
	<path id="Layer" class="s19" d="m465.2 165.5q0 0.1 0 0.1q0 0.1 0 0.2c0.1 0.9 0.3 4 0.8 7.1c0.3 1.5 0.6 3 1.1 4.3q-9.6 6-18.5 1.6q0.3-2.2 0.1-5.4q-0.1-1.4-0.4-3.1q-0.2-1.7-0.8-3.4q-0.2-0.6-0.5-1.4z" />
	<path id="Layer" class="s20" d="m465.2 165.5q0 0.1 0 0.1q0 0.1 0 0.2c0.1 0.9 0.3 4 0.8 7.1c-1 0.8-2.6 1.9-4.9 2.4c-3.4 0.7-8.2 0-12.4-1.9q-0.1-1.4-0.4-3.1c0-0.9-0.3-2-0.8-3.4q-0.2-0.6-0.5-1.4z" />
	<path id="Layer" class="s19" d="m468.9 162.9q-4 8.9-7.9 9.8c-3.8 0.9-15.4-2.2-17.1-5.8c-1.6-3.7 5.7-27.9 7.1-29.5c1.5-1.6 19.5-4.2 22.8 5.1q3.3 9.3-4.9 20.4z" />
	<path id="Layer" class="s10" d="m450.6 132c-0.6-4 1.4-8 6.6-6.6c0.8 0.3 1.5 1.1 2.2 1.2c0.7 0.1 1.5-0.5 2.5-0.3c1.4 0.2 2.2 0.6 2.8 1.4c3.7-2.1 9.6-0.1 9.6 4.4c1.6-0.3 3.3 0.3 4.2 1.8c0.9 1.2 0.8 2.4 0.4 3.6c1 0.5 1.8 1.6 1.7 2.9c0 0.8-0.3 1.6-0.7 2.4c1.6 1.1 2.7 2.5 2.5 4.6c-0.1 1.6-0.8 3.3-2.1 4.2c0.2 1.1 0.1 2.2-1 3.8c-0.4 0.6-1.7 1.4-1.9 1.5c-1.6 1.5-2.1 2.9-3.4 4.6c-1.3 1.9-5.5 1.1-6.5 0.4c-4.6-2.8-2.4-12.3 2.4-18.7c-4.4-1.7-7.9-3.4-13.1-3.6c-2.2-0.1-6.8 0.7-8.5-1.2c-2.7-2.8-0.5-5.8 2.3-6.4z" />
	<path id="Layer" class="s1" d="m476 144.2c1.6-1.2 2.2-3.1 1.6-4.8c0.7-0.4 1.2-1 1.6-1.7c0.9 0.6 1.5 1.5 1.4 2.7c0 0.8-0.3 1.6-0.7 2.4c1.6 1.1 2.7 2.5 2.5 4.6c-0.1 1.6-0.8 3.3-2.1 4.2c0.2 1.1 0.1 2.2-1 3.8c-0.4 0.6-1.7 1.4-1.9 1.5c-1.6 1.5-2.1 2.9-3.4 4.6c-1.3 1.9-5.5 1.1-6.5 0.4c-4.3-2.6-2.7-11.1 1.5-17.4c2.2 1.1 4.8 1.3 7-0.3z" />
	<path id="Layer" class="s19" d="m470 157.7c1.5-0.8 6.8-0.9 6.9 1.1c0.1 2-5.4 7.9-9.4 4.4c-1.5-1.2 1.1-4.8 2.5-5.5z" />
	<path id="Layer" class="s10" d="m464.2 147.2c-0.1 0.2-0.4 0.3-0.6 0.2c-1.1-0.5-4.3-1.7-5.9-1.6c-0.4 0-0.7-0.3-0.7-0.7c0.2-1.6 0.7-2.9 1.3-3.2c0.6-0.2 6.8 2.7 6.9 3.5c0 0.4-0.6 1.3-1 1.8z" />
	<path id="Layer" class="s18" d="m467.6 174.9q11.7 7.7 16.1 11.1q-8 38.4-6.9 53.4q-34.7 2.9-41.5-4.9q-3-21.8-0.2-35.6c2.6-12.8 7.4-17.5 12.7-20.9q8.1 5.3 19.8-3.1z" />
	<path id="Layer" class="s20" d="m471 159.4q3.6-0.8 3.6 0.3c-0.1 1.1-2.7 2.5-3.6 2.6q1.2-0.7 1-1.6q-0.2-0.8-1-1.3z" />
	<path id="Layer" class="s8" d="m468.8 237.2l1 4.8q-20.5 4.4-34.1-2.6q-1.4-1.4-0.4-4.9q21.6 7.5 33.5 2.7z" />
	<path id="Layer" class="s12" d="m483.5 186q-2.5 5.7-5.7 35.4q-3.1 29.6 9.7 72.7q-10.4-4.3-28-4.3q-12.5-90.1 8.1-114.9q4.2 0.3 15.9 11.1z" />
	<path id="Layer" class="s19" d="m475 254.6q-2.2 3.5-4.4 4.9l-5.9-4.9q3.2-4.2 5.8-5.6q3.7 3.5 4.5 5.6z" />
	<path id="Layer" class="s20" d="m475 254.6q-0.8 1.2-1.2 1.7q-3.1-1.8-4.5-6.6l0.8-0.5z" />
	<path id="Layer" class="s16" d="m464.4 250.3q2.4 5.8 7.7 9.9q-1.4 3.4-1.8 5.5q-5.8-6.9-7.3-11.8q0.4-2.2 1.4-3.6z" />
	<path id="Layer" class="s16" d="m477.5 223.6q-2.6 21 7.9 62.5c-12.4-18.9-15-67-14.4-74.4q0.5-7.5 6.6-16.5q2.4 7.5-0.1 28.4z" />
	<path id="Layer" class="s12" d="m483.5 186q18.9 21.6 18.9 37.1q0 10.6-26.7 33.7l-6.9-8.3q15.2-24 14.1-27.1q-1-3.2-8.7-10.9q-0.3-13.8 9.3-24.5z" />
	<path id="Layer" class="s12" d="m453.7 184.9q-0.4-2.3-2-5.5q8.9 0 15.6-4.6q-2 6.8-13.6 10.1z" />
	<path id="Layer" class="s12" d="m450.5 119.2q21.3 12.9 35.7 14.7l-6.3 8.9q-21.8-2.7-29.3-10.8q-0.4-5.5-0.1-12.8z" />
	<path id="Layer" class="s16" d="m450.5 119.2q17.2 12.2 35.7 14.7q-10.9-9.8-35.7-14.7z" />
	<path id="Layer" class="s20" d="m449.9 156.2l0.2-0.8c0.1 0.2 0.4 0.5 0.9 0.7c0.5 0.3 1.1 0.4 1.7 0.8c-0.7 0.1-1.2 0.3-1.9 0.3q-0.6-0.1-1.1-0.3c-0.3-0.2-0.7-0.5-0.9-1l-0.2-0.5l0.5-0.4c1.1-0.7 2.1-1.6 3.3-2.7c-0.1 1.6-1.1 3.1-2.5 3.9z" />
	<path id="Layer" class="s12" d="m449.9 150.1c-2.3-0.6-2.6-3.7-1.6-4c2.2-0.9 5.3 0.8 5 2.1c-0.2 1-1.4 2.4-3.4 1.9z" />
	<path id="Layer" class="s1" d="m450.4 146.4c1 0 1.7 0.9 1.6 1.8c0 0.9-0.9 1.7-1.8 1.6c-0.9-0.1-1.7-0.9-1.6-1.8c0.1-1 0.9-1.7 1.8-1.6z" />
	<path id="Layer" class="s12" d="m449.3 146.3c0.3 0 0.6 0.3 0.6 0.6c-0.1 0.3-0.4 0.6-0.7 0.5c-0.3 0-0.5-0.3-0.5-0.6c0-0.3 0.3-0.5 0.6-0.5z" />
	<path id="Layer" class="s10" d="m446.7 141.8c0.4-0.7 6.9-1.4 7.4-0.9c0.5 0.4 0.4 1.8 0 3.3c-0.1 0.4-0.5 0.6-0.9 0.4c-1.4-0.6-4.6-0.5-5.7-0.4c-0.3 0-0.5-0.2-0.5-0.4c-0.2-0.6-0.4-1.7-0.3-2z" />
	<path id="Layer" class="s12" d="m451.7 165.5q-2 0.1-3-3.2q3.2 1.4 6.3-0.9q-1.4 4.1-3.3 4.1z" />
	<path id="Layer" class="s8" d="m455.1 354.5q-3-64.5-3-90.8q-1.8-2.5-4-8q1.6 2.6 5.7 6.9l2.3 91.9z" />
	<path id="Layer" class="s12" d="m448.4 177.7q0.7 1.2 3.3 1.7l-2.4 4.3q-1.9-5.1-1.8-5.8q0-0.6 0.9-0.2z" />
	<path id="Layer" class="s22" d="m451.8 243.3q-1.4 0.4-3.8-0.4q-1.2-2.4 0.1-5.1q1.7-0.3 4 0.5q-1 2.5-0.3 5z" />
	<path id="Layer" class="s12" d="m458.5 152.3c-2.6-0.7-2.8-3.8-1.8-4.1c2.4-0.8 5.8 1 5.5 2.2c-0.3 1-1.6 2.5-3.7 1.9z" />
	<path id="Layer" class="s1" d="m459.1 148.5c1 0.1 1.7 1 1.6 1.9c-0.1 0.9-0.9 1.6-1.9 1.5c-0.9 0-1.6-0.9-1.5-1.8c0.1-1 0.9-1.7 1.8-1.6z" />
	<path id="Layer" class="s12" d="m458 148.4c0.3 0.1 0.6 0.3 0.5 0.7c0 0.3-0.3 0.5-0.6 0.5c-0.3 0-0.6-0.3-0.5-0.6c0-0.4 0.3-0.6 0.6-0.6z" />
	<path id="Layer" class="s21" d="m393 320.9h-131.1v-4.2h131.1z" />
	<path id="Layer" class="s21" d="m280.1 359.4h-5.2l4.3-68.9h5.3z" />
	<path id="Layer" class="s21" d="m369.9 290.5h5.3l4.3 68.9h-5.3z" />
	<path id="Layer" class="s16" d="m403.4 288.8h-153.2c0-4.9 3.9-8.8 8.7-8.8h135.8c4.8 0 8.7 3.9 8.7 8.8z" />
	<path id="Layer" class="s11" d="m404.6 293h-155.1l-0.1-8.4h156.8z" />
	<path id="Layer" class="s11" d="m380.1 292.7h-103.7v-4.4h103.7z" />
	<path id="Layer" class="s11" d="m260.1 359.4h-5.2l4.3-68.9h5.3z" />
	<path id="Layer" class="s11" d="m389.9 290.5h5.3l4.3 68.9h-5.2z" />
	<path id="Layer" class="s12" d="m72.7 89h172.8v110.4h-172.8z" />
	<path id="Layer" class="s8" d="m72.7 195.2h172.8v4.2h-172.8z" />
	<path id="Layer" class="s8" d="m72.7 89h172.8v4.2h-172.8z" />
	<path id="Layer" class="s5" d="m169 180.5c0-0.2 0.1-0.4 0.3-0.4h65.1c0.2 0 0.3 0.2 0.3 0.4q0 0.3-0.3 0.3h-65.1q-0.3 0-0.3-0.3z" />
	<path id="Layer" class="s5" d="m169 186.1c0-0.2 0.1-0.4 0.3-0.4h65.1c0.2 0 0.3 0.2 0.3 0.4c0 0.2-0.1 0.4-0.3 0.4h-65.1c-0.2 0-0.3-0.2-0.3-0.4z" />
	<path id="Layer" class="s5" d="m203.8 154.5c0-0.2 0.1-0.4 0.1-0.4h30.6c0.1 0 0.2 0.2 0.2 0.4c0 0.2-0.1 0.3-0.2 0.3h-30.6c0 0-0.1-0.1-0.1-0.3z" />
	<path id="Layer" class="s5" d="m169.1 154.5c0-0.2 0.1-0.4 0.2-0.4h30.3c0.1 0 0.2 0.2 0.2 0.4c0 0.2-0.1 0.3-0.2 0.3h-30.3c-0.1 0-0.2-0.1-0.2-0.3z" />
	<path id="Layer" class="s5" d="m195.7 166.2c0-0.2 0.1-0.4 0.2-0.4h38.6c0.1 0 0.2 0.2 0.2 0.4c0 0.2-0.1 0.4-0.2 0.4h-38.6c-0.1 0-0.2-0.2-0.2-0.4z" />
	<path id="Layer" class="s5" d="m169.1 166.2c0-0.2 0.1-0.4 0.1-0.4h20.3c0.1 0 0.1 0.2 0.1 0.4c0 0.2 0 0.4-0.1 0.4h-20.3c0 0-0.1-0.2-0.1-0.4z" />
	<path id="Layer" class="s5" d="m169.1 160.1c0-0.2 0.2-0.4 0.4-0.4h64.9c0.2 0 0.3 0.2 0.3 0.4c0 0.2-0.1 0.4-0.3 0.4h-64.9c-0.2 0-0.4-0.2-0.4-0.4z" />
	<path id="Layer" class="s5" d="m87.9 180.5c0-0.2 0.2-0.4 0.4-0.4h65c0.2 0 0.4 0.2 0.4 0.4c0 0.2-0.2 0.3-0.4 0.3h-65c-0.2 0-0.4-0.1-0.4-0.3z" />
	<path id="Layer" class="s5" d="m87.9 186.1c0-0.2 0.2-0.4 0.4-0.4h65c0.2 0 0.4 0.2 0.4 0.4c0 0.2-0.2 0.4-0.4 0.4h-65c-0.2 0-0.4-0.2-0.4-0.4z" />
	<path id="Layer" class="s16" d="m171.8 110.1q0.7-8.5 2-8.8q1.9-0.4 5.1 7.6z" />
	<path id="Layer" class="s16" d="m148.6 148c-0.4 0.2-0.6 0.2-1.3 0.2c-0.5 0-0.6-0.7-0.3-1q0.6-0.5 1.2-1q-0.2 0-0.4-0.1c-0.5 0-0.7-0.8-0.2-1q0.7-0.3 1.4-0.7c7.2-1.4 18.6-14.5 19.9-15.4c-0.5 0.6 0.6 5 0 5.5c-1.6 3.6-2 13.3-9.3 15.8c-2.9 1-3.7 8.2-3.3 13.6q4.6 2.2 3.2 3.8c-1.3 1.6-7.2 0.6-7.4-0.5c0-0.7-1.1-6.2-1.5-10.5q-0.1 0-0.2 0c-0.4 0.2-0.8-0.1-0.8-0.5q0-0.2 0-0.4c-0.5 0.2-0.8-0.1-0.8-0.5c0 0.6-0.2-1.3-0.2-1.3q0.3-0.7-0.1-0.2q-0.6 0-1.1 0c-0.4 0-0.5-0.5-0.4-0.8c0.1-0.1 0.6-0.9 1-1.5c-0.2 0-0.4 0.1-0.7 0.2c-0.5 0.1-0.9-0.5-0.6-0.9c0.5-0.5 1.7-1.8 1.9-2.8z" />
	<path id="Layer" class="s16" d="m196.8 118.6c0 0.8-0.7 1.9-1.4 2.7q-0.2 0.3-0.4 0.6q-0.1 0.1-0.3 0.3q-0.9 1-2.4 1.5q-1.9-0.3-4-0.6c-1.9-0.2-3.9-0.4-4.8-0.5l7.8 2.9q-0.2 0.3-0.6 0.7c-0.5 0.7-1.6 1.4-2.9 1.3c-2.4-0.3-6.6-1.6-9.6-0.3c-6.5 2.6-10.5 11.2-10.8 9.5c-0.2-1.3-16.2-11.1-9.3-19.8c1-1.3 11-7 12.3-7.8q5-2.4 9.6-1.6c3.5 0.7 5.7 3.2 7.1 5.6c0.5 0.8 0.8 1.4 1.2 1.8c0.5 0.4 3.4 0.7 5.7 1.5q0.2 0.1 0.5 0.1c1.3 0.5 2.3 1.2 2.3 2.1z" />
	<path id="Layer" class="s16" d="m132 129.6q-2.4 15.8-13.9 19.7c-2.9 1-3.7 8.2-3.3 13.6q4.7 2.2 3.3 3.9c-1.4 1.6-7.3 0.6-7.4-0.5c-0.1-1.2-2.4-14.9 0.4-16.2c2.8-1.3-2.1-11.1 0.2-18.7c4.2-13.3 19.7-4.4 20.7-1.8z" />
	<path id="Layer" class="s16" d="m180.9 112.1c0.5-0.2 1.1 0.2 1.3 0.9c0.3 0.6 0.1 1.3-0.4 1.5c-0.5 0.2-1.1-0.2-1.4-0.9c-0.2-0.7 0-1.4 0.5-1.5z" />
	<path id="Layer" class="s16" d="m184.6 111.9c0.5-0.1 1.1 0.3 1.3 0.9c0.2 0.7 0 1.4-0.5 1.6c-0.5 0.2-1.1-0.3-1.3-0.9c-0.2-0.7 0-1.4 0.5-1.6z" />
	<path id="Layer" class="s16" d="m101 150.1c2.6-1.2-1.4-10.3-0.2-16.9q0-0.1 0.1-0.1q0.1-0.8 0.4-1.7q0 0 0-0.1c0.5-1.8 1.9-5.7 2.8-7.5c-0.2-0.1-5.6-2.6-7.5-3.4c-3.7-1.6-7.1-2.5-9.2-6.1c-2.4-4-3.3-8.9-2.2-13.4q0.1-0.1 0.1-0.2q0.1-0.1 0.1-0.2q0.3-0.1 0.6 0c1.7 0.8 3.1 2.7 4.5 4q2.8 2.7 5.8 5.4c3.9 3.6 7.8 7.6 12.9 9.6q0.7-0.4 1.6-0.6c9.3-2.5 29.6-0.7 34.4-2.2c1.7-0.5 4.6-1.3 7.9-1.9c5.9-1.1 13-1.4 16.7 1.9q5.6 5.1 3.6 12.2q-1.9 4.1-6 7.8c-1.7 3.6-5.3 11.1-12.6 13.6c-2.9 1-3.7 8.2-3.3 13.6q4.7 2.2 3.3 3.8c-1.4 1.6-7.3 0.6-7.4-0.5c-0.1-0.7-1.2-6.2-1.6-10.5q-0.1 0-0.2 0c-0.4 0.2-0.7-0.1-0.7-0.5q0-0.2 0-0.4h-0.1c-0.4 0.2-0.7-0.1-0.8-0.5c0.1 0.6-0.1-1.3-0.1-1.3q0.3-0.7-0.2-0.2q-0.5 0-1 0c-0.4 0-0.6-0.5-0.4-0.8c0.1-0.1 0.6-0.9 0.9-1.5c-0.2 0-0.4 0.1-0.7 0.2c-0.4 0.1-0.8-0.5-0.5-0.9c0.4-0.5 1.7-1.8 1.8-2.8c-0.3 0.2-0.5 0.2-1.2 0.2c-0.5 0-0.7-0.7-0.3-1q0.6-0.5 1.2-1q-0.2 0-0.4-0.1c-0.6 0-0.7-0.8-0.2-1q1.3-0.6 2.5-1.3c-12.1-2.4-25-8.5-28-5.3c0 0-3.9 8.9-9.3 10.8c-3 1-3.8 8.2-3.4 13.6q4.7 2.2 3.3 3.9c-1.4 1.6-7.3 0.6-7.4-0.5c-0.1-1.2-2.4-14.9 0.4-16.2z" />
	<path id="Layer" class="s16" d="m183.5 122.6c0.9 0.1 2.9 0.3 4.8 0.5c2.7 0.7 5.5 1.4 7.2 3.8c0.8 1.2 1.8 5.7-0.8 5.9c-0.2 0-0.3-0.2-0.4-0.3c-0.4-0.7-0.5-1.6-0.8-2.3c-0.4-1.3-1.1-2.5-2.1-3.4q-0.3-0.3-0.7-0.6q-2.6-1.5-7.2-3.6z" />
	<path id="Layer" class="s16" d="m196.8 118.6c0 0.8-0.7 1.9-1.4 2.7q-0.2 0.3-0.4 0.6c-0.6-1.4-1.3-3.6-0.5-5.4c1.3 0.5 2.3 1.2 2.3 2.1z" />
	<path id="Layer" class="s16" d="m168.1 114q-3-10.9-0.3-11.7q2.8-0.8 9.2 7.4l-6.5 2.9z" />
	<path id="Layer" class="s16" d="m169.1 113.2q-1.4-8.4-0.2-9q1.7-0.9 6.9 6.1z" />
	<path id="Layer" class="s19" d="m251.9 221.6c-1.3 0.3-6.7 0.5-8.5-1c-1.3-0.9-3-2.5-2.3-4.1q0.1-0.2 0.2-0.2q0 0 0-0.1c1-3.8 4.6-6.7 7.6-6.5c0.3 0 0.8 0.7 0.4 1.1c-1.2 1.1-3 1.5-3 3.3c2.5-1.1 7-1.1 7.1-0.5c0.2 1.2-0.7 1.2-1.6 1.5c0.8-0.1 1-0.1 1.7 0.1c0.9 0.2 0.9 1.7 0.3 1.9c0.5 0.3 1 1.9-0.3 2.4c0.1 0 0.6 1.7-1.6 2.1z" />
	<path id="Layer" class="s16" d="m245.1 210.1c-0.1-0.1 0.6-0.7 1.4-1.2c0.9-0.6 1.6-1 1.7-0.9l0.1 0.2c0 0-0.1 0.2-0.4 0.4l4.2 6.2l-0.3 0.1l-0.5 0.4l-0.6 0.4l-0.6 0.4l-0.3 0.2l-4.1-6.2c-0.3 0.1-0.5 0.2-0.5 0.1z" />
	<path id="Layer" class="s16" d="m250.6 215c1.5-1 2.9-1.7 3-1.6l0.1 0.2c0.1 0.1-1.1 1.1-2.6 2.1c-1.6 1-2.9 1.7-3 1.6l-0.1-0.2c-0.1-0.1 1.1-1.1 2.6-2.1z" />
	<path id="Layer" class="s16" d="m256.1 226.8l-6.8-10.2l3.3-2.2l6.8 10.2l-1.9 1.3l-0.2-0.2c-0.4 0.3-0.7 0.5-0.9 0.7l0.1 0.1z" />
	<path id="Layer" class="s16" d="m249.3 216.6q0-0.1 0.3-0.4q0.3-0.3 0.9-0.7q0.1-0.1 0.3-0.2c0.5-0.4 1-0.6 1.3-0.8q0.4-0.2 0.5-0.1q0 0.1-0.3 0.4q-0.5 0.3-1.2 0.9q-0.2 0.1-0.3 0.2q-0.7 0.4-1.1 0.6q-0.3 0.2-0.4 0.1z" />
	<path id="Layer" class="s3" d="m252.8 221.8l3.3-2.2l3.3 5l-3.3 2.2z" />
	<path id="Layer" class="s3" d="m252.8 221.8c-0.1-0.1 0.6-0.7 1.5-1.3c0.9-0.6 1.7-1 1.8-0.9c0.1 0.1-0.6 0.7-1.5 1.3c-0.9 0.6-1.7 1-1.8 0.9z" />
	<path id="Layer" class="s7" d="m252.8 221.8l-0.6-0.9c-0.1-0.1 0.6-0.7 1.5-1.3c0.9-0.6 1.7-1 1.8-0.9l0.6 0.9c-0.1-0.1-0.9 0.3-1.8 0.9c-0.9 0.6-1.6 1.2-1.5 1.3z" />
	<path id="Layer" class="s23" d="m256.4 226.4l-6.8-10.2q0.3-0.3 0.9-0.7l6.8 10.2c-0.4 0.3-0.7 0.5-0.9 0.7z" />
	<path id="Layer" class="s16" d="m256.1 226.8c-0.1-0.1 0.6-0.7 1.5-1.3c0.9-0.6 1.7-1 1.8-0.9c0 0-0.2 0.3-0.6 0.6l0.3 0.4l-0.4 0.3l0.2 0.3l-0.2 0.1l0.8 1.1l-0.2 0.1l0.3 0.4v0.1l4.8 7.6l-5.2-7.3h-0.1l-0.3-0.5l-0.1 0.1l-0.1-0.1l-0.7-1l0.2-0.1l0.2-0.2l0.3-0.1l-0.8 0.5l-0.2-0.3l-0.4 0.3l-0.3-0.4c-0.4 0.2-0.7 0.3-0.8 0.3z" />
	<path id="Layer" class="s1" d="m252.9 222l-0.1-0.2c-0.1-0.1 0.4-0.5 1-0.9l0.1 0.1c-0.6 0.5-1.1 0.9-1 1z" />
	<path id="Layer" class="s1" d="m252.7 221.7v-0.1c-0.1 0 0.1-0.2 0.4-0.5l0.1 0.1c-0.3 0.2-0.5 0.4-0.5 0.5z" />
	<path id="Layer" class="s1" d="m252.6 221.5c-0.1-0.1 0.1-0.3 0.4-0.6l0.1 0.1c-0.4 0.2-0.5 0.4-0.5 0.5z" />
	<path id="Layer" class="s1" d="m252.5 221.3h-0.1c0-0.1 0.2-0.3 0.5-0.6v0.1c-0.3 0.3-0.5 0.5-0.4 0.5z" />
	<path id="Layer" class="s1" d="m252.3 221.1c0-0.1 0.1-0.3 0.5-0.6v0.1c-0.3 0.3-0.5 0.5-0.5 0.5z" />
	<path id="Layer" class="s1" d="m252.2 220.9c-0.1-0.1 0.1-0.3 0.4-0.5h0.1c-0.3 0.3-0.5 0.5-0.5 0.5z" />
	<path id="Layer" class="s1" d="m253.7 223.2l-0.1-0.1c0-0.1 0.4-0.5 1-1l0.1 0.2c-0.6 0.4-1 0.8-1 0.9z" />
	<path id="Layer" class="s1" d="m253.6 222.9h-0.1c0-0.1 0.2-0.3 0.5-0.5c-0.3 0.3-0.5 0.5-0.4 0.5z" />
	<path id="Layer" class="s1" d="m253.4 222.7c0-0.1 0.1-0.3 0.4-0.5h0.1c-0.3 0.3-0.5 0.5-0.5 0.5z" />
	<path id="Layer" class="s1" d="m253.3 222.6v-0.1c-0.1-0.1 0.1-0.3 0.4-0.5h0.1c-0.4 0.3-0.5 0.5-0.5 0.6z" />
	<path id="Layer" class="s1" d="m253.2 222.4l-0.1-0.1c0-0.1 0.2-0.3 0.5-0.5c-0.3 0.3-0.5 0.5-0.4 0.6z" />
	<path id="Layer" class="s1" d="m253 222.2v-0.1c0 0 0.1-0.2 0.5-0.5c-0.3 0.3-0.5 0.5-0.5 0.6z" />
	<path id="Layer" class="s1" d="m254.6 224.4l-0.1-0.1c-0.1-0.1 0.3-0.5 0.9-0.9l0.1 0.1c-0.6 0.5-1 0.9-0.9 0.9z" />
	<path id="Layer" class="s1" d="m254.4 224.2l-0.1-0.1c0 0 0.2-0.2 0.5-0.5v0.1c-0.3 0.2-0.5 0.4-0.4 0.5z" />
	<path id="Layer" class="s1" d="m254.3 224l-0.1-0.1c0 0 0.2-0.2 0.5-0.5v0.1c-0.3 0.2-0.5 0.4-0.4 0.5z" />
	<path id="Layer" class="s1" d="m254.1 223.8v-0.1c-0.1 0 0.1-0.2 0.4-0.5l0.1 0.1c-0.3 0.2-0.5 0.4-0.5 0.5z" />
	<path id="Layer" class="s1" d="m254 223.6v-0.1c-0.1 0 0.1-0.2 0.4-0.5l0.1 0.1c-0.4 0.2-0.5 0.4-0.5 0.5z" />
	<path id="Layer" class="s1" d="m253.9 223.4h-0.1c0-0.1 0.2-0.3 0.5-0.6v0.1c-0.3 0.2-0.5 0.5-0.4 0.5z" />
	<path id="Layer" class="s1" d="m255.4 225.7l-0.1-0.2c-0.1-0.1 0.3-0.4 1-0.9l0.1 0.1c-0.7 0.5-1.1 0.9-1 1z" />
	<path id="Layer" class="s1" d="m255.2 225.4c-0.1-0.1 0.1-0.3 0.4-0.6l0.1 0.1c-0.3 0.3-0.5 0.5-0.5 0.5z" />
	<path id="Layer" class="s1" d="m255.1 225.2h-0.1c0-0.1 0.2-0.3 0.5-0.6v0.1c-0.3 0.3-0.5 0.5-0.4 0.5z" />
	<path id="Layer" class="s1" d="m255 225h-0.1c0-0.1 0.2-0.3 0.5-0.5c-0.3 0.3-0.5 0.5-0.4 0.5z" />
	<path id="Layer" class="s1" d="m254.8 224.8c-0.1-0.1 0.1-0.3 0.4-0.5h0.1c-0.3 0.3-0.5 0.5-0.5 0.5z" />
	<path id="Layer" class="s1" d="m254.7 224.6c-0.1-0.1 0.1-0.3 0.4-0.5h0.1c-0.4 0.3-0.5 0.5-0.5 0.5z" />
	<path id="Layer" class="s1" d="m256 226.7v-0.1c0-0.1 0.1-0.3 0.5-0.5c-0.3 0.3-0.5 0.5-0.5 0.6z" />
	<path id="Layer" class="s1" d="m255.9 226.5v-0.1c-0.1-0.1 0.1-0.3 0.4-0.5h0.1c-0.3 0.3-0.5 0.5-0.5 0.6z" />
	<path id="Layer" class="s1" d="m255.8 226.3l-0.1-0.1c0 0 0.2-0.2 0.5-0.5c-0.3 0.3-0.5 0.5-0.4 0.6z" />
	<path id="Layer" class="s1" d="m255.7 226.1l-0.1-0.1c0 0 0.2-0.2 0.5-0.5v0.1c-0.3 0.2-0.5 0.4-0.4 0.5z" />
	<path id="Layer" class="s1" d="m255.5 225.9v-0.1c-0.1 0 0.1-0.2 0.4-0.5l0.1 0.1c-0.3 0.2-0.5 0.4-0.5 0.5z" />
	<path id="Layer" class="s10" d="m187.4 174.9l3.7 1.9q1.6 5.7-0.3 5.5q-2-0.3-9.6-6z" />
	<path id="Layer" class="s19" d="m245.5 219l-5.5 4l-2.6-3.8l4.5-3.7z" />
	<path id="Layer" class="s12" d="m199.3 191.2c2.1 0.5 4.1 1.5 6.1 2.9c9.2 6.6 17.1 21.2 20.1 29.6c1.1 2.9 1.6 5.2 1.3 5.9c-0.5 1.4-1.3 2.8-2.1 3.9c-0.8 0.9-1.5 1.6-2 1.4q-0.1 0-0.2 0q-1.4-0.9-2.8-2c-6.8-5.3-11.9-12.9-15.4-20.1c-5.5-11.5-7-22.2-5-21.6z" />
	<path id="Layer" class="s12" d="m217.8 227.9q0.2-0.5 0.7-0.8q0.5-0.2 1.1-0.6c1.1-0.6 2.6-1.3 4.4-2.1q0.7-0.4 1.5-0.7q7.3-3.5 14.4-7.3l3.4 4.7q-5.9 5.8-11.7 9.9c-1.9 1.4-3.6 2.6-4.7 3.3q-0.7 0.4-1.1 0.7c-0.9 0.4-2 0.4-3.1-0.1q-0.1 0-0.2 0c-0.6-0.3-1.3-0.7-1.9-1.1q-0.4-0.4-0.9-0.9c-1.6-1.6-2.6-3.7-1.9-5z" />
	<path id="Layer" class="s16" d="m205.4 194.1c0.7 0.7 11.6 9 10.8 17.5c-0.5 5.1-0.9 12.3 0.9 15.4q0.3 0.4 0.7 0.9c1.6 2.2 4.5 4.5 6.9 5.6c0.8 0.3 1.5 0.5 2.2 0.5v0.3q-0.7 0.4-1.1 0.7c-0.9 0.4-2 0.4-3.1-0.1q-0.1 0-0.2 0c-0.6-0.3-1.3-0.7-1.9-1.1q-0.4-0.4-0.9-0.9c-6.8-5.3-11.9-12.9-15.4-20.1l-0.3-5.8z" />
	<path id="Layer" class="s16" d="m217.3 307.8q-25.6 5.3-38.2-1.5l3.3-43.6h18.7l16.2 6z" />
	<path id="Layer" class="s1" d="m218.4 256.9c-0.6 3.9-14.4 88.1-17.3 98.2q-1.3 0-2.3 0h-4.7q-11.9-76.5-13.8-87.6q-1.8-11.1 4.4-41.2q1.5 0.1 25.6-1.3c0.8 4.4 9.2 25.9 8.1 31.9z" />
	<path id="Layer" class="s8" d="m198.1 355.1l3.1-94.2q4.2-4.5 5.8-7.1q-2.3 5.6-4.1 8.2q-1 27-4.1 93.1z" />
	<path id="Layer" class="s8" d="m195.3 355.1h-1.2q-11.9-76.5-13.8-87.6q-1.8-11.1 4.4-41.2l10.6-0.4q-9 23.4-8.4 41.2c0.5 13.5 5.8 64 8.4 88z" />
	<path id="Layer" class="s18" d="m185.1 229.9q1.2-3.1-0.7-9.4c-0.7-2.1-2.7-8.3-3.9-12c0.8 1.1-1.8-8.5 3.5-11.3c3.6 8.5 1.2 22.6 5.9 33.5q-2.9-0.4-4.8-0.8z" />
	<path id="Layer" class="s12" d="m176.1 245.4c1.1-5.9 8.1-17.8 8-20.7c-0.2-2.7-1.3-7.4-2.3-12.3q-0.2-0.5-0.4-1q0 0 0-0.1q-0.4-1.3-0.9-2.8q-0.1-0.4-0.2-0.8c-0.7-2-1.3-4-1.8-5.9q0-0.2-0.1-0.4c-0.7-2.9-0.9-4.5-0.7-5.7q0-0.2 0.1-0.3c0-0.4 0.3-0.8 0.8-1.3q0.2-0.1 0.4-0.3q0.1-0.1 0.1-0.1q0.2-0.2 0.5-0.4q0.1-0.1 0.3-0.2q0.1-0.1 0.2-0.1q0.7-0.4 1.5-0.7q1.2-0.5 2.4-0.8q2.5-0.8 5.2-1.6q0.2 0.2 0.4 0.5q4 2.5 11.5 0.3q0.6 0.5 0 0q15.2 11.8 14.3 18.7c-1 6.9-4.8 5.9-4 14.1c1.2 12.3 16.4 24.1 5.9 84.3q-3.3-1.8-10.2-2.4c1.2-8.6 0.7-19.8-1.2-22.8c0.1 4.6-1.1 16.5-3.8 21.8c-5-0.1-16 1.4-23 1.9c-1.1-8.8-6.6-39.7-3-60.9z" />
	<path id="Layer" class="s16" d="m176.1 245.4c1.3-9.4 8.1-17.8 8-20.7q-0.1-2.2-5.6-22.9l0.8-1.4l5.3-7.6q4.7 1.1 2.1 10.6c-3.1 11 3.2 27.3-5.5 50.4q-5.2 13.7-2.1 52.5q-6.9-31.7-3-60.9z" />
	<path id="Layer" class="s19" d="m201.2 179.1c-0.4 4.1-0.6 8.4-0.3 11q3.6 5.4-12 0.4c0.2-1.1 0.3-2.5 0.3-3.8c0.1-2.7 0-5.4-0.1-6.1q0-0.1 0-0.2z" />
	<path id="Layer" class="s20" d="m201.2 179.1q-0.1 0.6-0.2 1.2c-0.2 1.2-0.2 2.2-0.2 2.9c0 1 0 2.5-0.1 3.5c-2.6 1.9-9.6-2.1-11.6-4.6q0-2.7-0.3-5.7z" />
	<path id="Layer" class="s16" d="m203.3 354.4q4.8 0 9.7 3.9h-14.4v-4z" />
	<path id="Layer" class="s11" d="m198.6 358.3h14.4v1.1h-14.4z" />
	<path id="Layer" class="s16" d="m198.6 354.3v4h-14.5q4.9-3.9 9.7-3.9z" />
	<path id="Layer" class="s11" d="m198.6 359.4h-14.5v-1.1h14.5z" />
	<path id="Layer" class="s11" d="m198.3 355.1l0.6 4.3h-0.9z" />
	<path id="Layer" class="s16" d="m185.9 218.5c1.4 5.6 7.7 8.8 12.1 10.6l-2.7 4.7q-8.8 0.8-11.9 6.7q1.2-27.4 2.5-22z" />
	<path id="Layer" class="s12" d="m181.3 210.6q-7.1 10.4-9.2 14.2c-2 3.7-14.1 3-11.1-3.6c9.9-22.3 17.9-31.3 23.6-28.4q6.3 3.2-3.3 17.8z" />
	<path id="Layer" class="s19" d="m213.1 231.5c-1.2-0.6-2.1-1.8-3.5-1.7c-1.4 0-2.9 0.5-4.3 0.7c-0.4 0.1-0.7-0.2-0.7-0.5c-0.5-0.3-5.4-0.3-4.8-0.5c1.6-0.5 8.5-2.3 10.2-2.3c1.7 0.1 3.9 2.4 4.5 3.5c0.2 0.3-0.8 1.1-1.4 0.8z" />
	<path id="Layer" class="s19" d="m210.6 236c-1.1-0.6-2-1.9-3.3-1.9c-1.4-0.1-3.5-0.7-4.9-0.5c-0.5 0-0.6-1.6 0-1.8c1.7-0.4 3.8-0.4 5.5-0.2c1.7 0.1 3.5 2.3 4.2 3.7c0.2 0.5-0.9 1.1-1.5 0.7z" />
	<path id="Layer" class="s19" d="m207.9 236.6c-1-0.9-1.5-2.3-2.8-2.7c-1.4-0.3-3-0.3-4.4-0.5c-0.5 0-0.6-0.4-0.6-0.7c-0.3-0.4-0.1-1.1 0.5-1.1c1.7 0 3.9-0.5 5.6 0.1c1.7 0.5 3 3.2 3.1 4.6c0 0.3-0.9 0.7-1.4 0.3z" />
	<path id="Layer" class="s19" d="m212.3 234.6c-1-0.8-1.8-2.1-3.1-2.3c-1.4-0.2-3 0-4.4 0c-0.5 0-0.7-0.4-0.7-0.7c-0.3-0.4-0.3-1.1 0.4-1.2c1.7-0.2 3.8-0.9 5.5-0.5c1.7 0.3 3.6 3.1 3.8 4.1c0.1 0.3-1 0.9-1.5 0.6z" />
	<path id="Layer" class="s19" d="m199.8 229.5l6.4-1.4l0.7 2.2q-0.8 2.5-2.1 3.5q-2 1.7-5.9-0.3z" />
	<path id="Layer" class="s19" d="m200.7 232.2l-1.8 1.3l-3.1-0.6l0.3-4.1l5.6 1z" />
	<path id="Layer" class="s12" d="m165.1 216.7q5.5 1.3 34.4 11.4l-2.3 5.9q-27.5-3-30.9-3.6c-9.8-1.8-5.1-14.6-1.2-13.7z" />
	<path id="Layer" class="s16" d="m205.6 203.5c0-0.5 0.5-1 1.1-1c0.5 0 1 0.5 1 1c0 0.6-0.5 1.1-1 1.1c-0.6 0-1.1-0.5-1.1-1.1z" />
	<path id="Layer" class="s16" d="m207.1 208.6c0-0.6 0.5-1 1-1c0.6 0 1.1 0.4 1.1 1c0 0.6-0.5 1-1.1 1c-0.5 0-1-0.4-1-1z" />
	<path id="Layer" class="s24" d="m188.9 190.5q9 2.6 10.9 2q2-0.5 1.3-1.8q2.7 4.2 4 9q-11.8-7.1-16.2-9.2z" />
	<path id="Layer" class="s1" d="m159.7 175.6c0.5-1.5 1.5-2.6 2.3-4c1.9-3.2 1.5-5.5 0-8.6c-1.1-2.4-2.5-4.8-2.1-7.6c0.7-4 4.4-6.8 7.9-8c3.3-1.1 9.2-1.7 12.6-0.6c6 1.9 2.3 10.2-4.6 10.9q0.1 0.7 0.2 1.4c0.3 3.1 0.3 5.7-0.9 8.5c-0.9 2.2-2.4 4.5-1.6 7c0.4 1.6 1.7 2.8 2.4 4.3c1.8 4.2 0.5 10.5-2.3 14.1c-1.7 2.2-6.7 6-9.6 3.4c-0.8-0.8-0.9-1.7-0.6-2.7c0.5-1.2 1.7-1.4 2.3-2.4c2.9-4.8-1.2-4.7-3.1-5.8c-3.6-2-4.3-6.3-2.9-9.9z" />
	<path id="Layer" class="s10" d="m210.6 152.8q1.2 9.7 1 16.1c-0.2 6.3-3.6 13.4-11 13.7q-2.5 0.1-8.6-13.9z" />
	<path id="Layer" class="s1" d="m209.2 153q5.5 22.5-5.4 26.6c-6.8 2.6-1.8-28.6-0.1-28.8q1.8-0.2 5.5 2.2z" />
	<path id="Layer" class="s19" d="m206.7 149.4c0.9 1 2.6 7.2 2.7 9.5c0.2 2.2 0.1 12-0.9 14.9c-1 2.9-4.6 10.6-11.4 10.2c-4.6-0.3-9.3-4.7-10.7-8.4q-1.3-3.7-1-17.6c3.2-9.1 20.5-9.6 21.3-8.6z" />
	<path id="Layer" class="s20" d="m203 172.9l0.2 0.4l-0.2 0.3c-0.3 0.4-0.7 0.7-1.1 0.8c-0.4 0.2-0.7 0.2-1.1 0.2c-0.7-0.1-1.2-0.4-1.9-0.6c0.6-0.3 1.3-0.4 1.8-0.5c0.6-0.1 1-0.4 1.1-0.6l-0.1 0.7c-0.4-0.9-0.6-1.7-0.7-2.6c0-0.9 0-1.8 0.3-2.6c0.7 1.6 1.1 3.2 1.7 4.5z" />
	<path id="Layer" class="s12" d="m198.6 167.3c0.1 1.3-3.7 2.4-6 1.2c-1-0.5-0.1-3.7 2.6-3.8c2.3-0.2 3.3 1.5 3.4 2.6z" />
	<path id="Layer" class="s1" d="m193.6 167.1c0.1-1 1-1.7 1.9-1.6c1 0.1 1.7 1 1.6 1.9c-0.1 1-0.9 1.7-1.9 1.6c-1-0.1-1.7-1-1.6-1.9z" />
	<path id="Layer" class="s12" d="m195.9 165.8c0-0.3 0.3-0.6 0.6-0.5c0.4 0 0.6 0.3 0.6 0.6c-0.1 0.4-0.4 0.6-0.7 0.6c-0.3-0.1-0.6-0.4-0.5-0.7z" />
	<path id="Layer" class="s12" d="m208 167.4c-0.1 1.3-3.6 2.1-5.6 0.6c-0.8-0.6 0.4-3.6 2.8-3.5c2.1 0 2.8 1.8 2.8 2.9z" />
	<path id="Layer" class="s1" d="m203.5 166.8c0.2-1 1.1-1.6 2-1.4c1 0.2 1.6 1.1 1.4 2.1c-0.2 0.9-1.1 1.5-2.1 1.3c-0.9-0.2-1.5-1.1-1.3-2z" />
	<path id="Layer" class="s12" d="m205.9 165.8c0.1-0.4 0.4-0.6 0.7-0.5c0.3 0.1 0.5 0.4 0.5 0.7c-0.1 0.3-0.4 0.5-0.8 0.5c-0.3-0.1-0.5-0.4-0.4-0.7z" />
	<path id="Layer" class="s1" d="m198.2 159.8c0.6 0.1 0.4 1.4 0.1 2c-0.4 0.5-3-0.6-7.5 0.9c-0.3 0.1 4.5-3.6 7.4-2.9z" />
	<path id="Layer" class="s1" d="m210.7 162.6c-4.4-1.3-6.9-0.2-7.3-0.7c-0.3-0.6-0.6-1.9 0-2.1c2.7-0.7 7.5 2.9 7.3 2.8z" />
	<path id="Layer" class="s12" d="m195.3 175.5q2 3.1 6 1.9q-2.2 3.4-3.7 2.9q-1.6-0.4-2.3-4.8z" />
	<path id="Layer" class="s1" d="m204.2 164.5c0.6-0.2 1.3-0.2 1.9-0.1c0.6 0.2 1.2 0.6 1.5 1.2c0.4 0.5 0.5 1.2 0.4 1.8c0-0.6-0.3-1.2-0.6-1.7q-0.5-0.7-1.4-0.9c-0.6-0.2-1.2-0.2-1.7 0q-0.9 0.3-1.5 0.9c0.3-0.5 0.8-0.9 1.4-1.2z" />
	<path id="Layer" class="s1" d="m196.4 165c-0.6-0.2-1.2-0.2-1.8-0.1c-0.5 0.1-1.1 0.5-1.5 0.9c-0.4 0.4-0.8 1-0.9 1.6c0-0.7 0.3-1.3 0.7-1.8c0.4-0.5 1-0.9 1.7-1c0.6-0.2 1.3-0.1 1.9 0.1c0.6 0.2 1.2 0.6 1.5 1.1c-0.4-0.4-1-0.7-1.6-0.8z" />
	<path id="Layer" class="s10" d="m177.9 155c0-1.4 0.2-2.8 0.9-4.2c1.6-3 3.7-4.9 5.8-6.1c6.4-3.5 9.9-4.5 13.4-4.6c15.4-0.3 23.3 5.6 16.5 12.9q-4.9 5.2-27.1 4q1.3 5.4 0.2 10.4q-0.3-0.2-0.6-0.4c-0.3 2.9-0.6 7.3-0.1 9.8c-3.1 2.3-7.9 0-9.6-8.4c-0.9-4-0.1-9.6 0.6-13.4z" />
	<path id="Layer" class="s19" d="m187.8 171.9c-2.7 3-6.8-2.2-5.8-4.6c0.8-1.9 4.3-1.7 5.4-0.8c0.9 0.8 1.5 4.2 0.4 5.4z" />
	<path id="Layer" class="s20" d="m185.2 169.2q-0.2 1 0.7 2c-0.7-0.1-2.6-1.3-2.5-3.3q0.1-1.3 2.7-0.1q-0.6 0.4-0.9 1.4z" />
	<path id="Layer" class="s19" d="m256 220.7c-0.3 1.2-1.6 1.8-2.7 2c-0.9 0.2-2.5-0.2-2.2-1.4q-0.1-0.1-0.3-0.1c-0.6-0.1-0.9-0.6-0.7-1.2c-0.2-0.3-0.3-0.8 0.1-1.1q0.3-0.2 0.7-0.4q-0.7 0-1.3-0.1c-1.3-0.3-1.3-1.5-0.3-2.1c1.3-0.7 3-1 4.5-1.1c0.4 0 0.7 0.3 0.7 0.6q0.4 0.3 0.3 0.9c-0.1 0.3-0.3 0.6-0.6 0.8c0.2 0 0.5 0 0.7 0.2c0.7 0.5 0.7 1 0.5 1.5c0.5 0.3 0.9 0.7 0.6 1.5z" />
	<path id="Layer" class="s19" d="m253.7 214.6c-1.3 0.5-2.7 0-4 0c-1 0-1-1.4 0-1.4q0.1 0 0.2 0q1.9-0.5 3.8 0c0.7 0.2 0.6 1.2 0 1.4z" />
	<path id="Layer" class="s17" d="m289.1 94.6c-17 0-30.9-13.9-30.9-30.9h1.4c0 16.2 13.3 29.5 29.5 29.5c16.3 0 29.5-13.3 29.5-29.5h1.5c0 17-13.9 30.9-31 30.9z" />
	<path id="Layer" class="s17" d="m335.8 71.8h-86.1l39-32.4z" />
	<path id="Layer" class="s25" d="m309 67.2l39 132.9h-119.9l41.2-132.9z" />
	<path id="Layer" class="s26" d="m290.7 49.4h-3.8v-48.7h3.8z" />
	<path id="Layer" class="s15" d="m295.2 57.5h-12.7v-9.3c0-2.5 2-4.5 4.5-4.5h3.7c2.5 0 4.5 2 4.5 4.5z" />
	<path id="Layer" class="s18" d="m288.7 80.3c-4.1 0-7.4-3.3-7.4-7.4c0-4.1 3.3-7.4 7.4-7.4c4 0 7.4 3.3 7.4 7.4c0 4.1-3.4 7.4-7.4 7.4z" />
	<path id="Layer" class="s12" d="m288.5 78.5c-2.1-0.4-4.8-2-5.4-4.3c-0.1-0.6 0.9-0.9 1-0.2c0.5 1.8 2.9 3.2 4.7 3.5c0.6 0.1 0.3 1.1-0.3 1z" />
	<path id="Layer" class="s18" d="m331.8 71.8h-86.1l43-32.4z" />
	<path id="Layer" class="s17" d="m290.5 43.4h-3.6c-1.2 0-2.2-1-2.2-2.2v-3.5c0-1.3 1-2.3 2.2-2.3h3.6c1.2 0 2.2 1 2.2 2.3v3.5c0 1.2-1 2.2-2.2 2.2z" />
</svg>