<svg version="1.2" xmlns="http://www.w3.org/2000/svg" viewBox="0 0 1400 980" width="1400" height="980">
	<title>vector-illustration-dog-wash-ai</title>
	<style>
		.s0 { opacity: .2;fill: #7c58e3 } 
		.s1 { opacity: .2;fill: #fefbf6 } 
		.s2 { fill: #da6834 } 
		.s3 { fill: #ffffff } 
		.s4 { fill: #58ced3 } 
		.s5 { fill: #ffa991 } 
		.s6 { fill: #fffada } 
		.s7 { fill: #362017 } 
	</style>
	<g id="&lt;Group&gt;">
	</g>
	<g id="&lt;Group&gt;">
		<path id="Layer" class="s0" d="m-1.7 4.5l1399.9-3.1l2.3 1014l-1399.9 3.1z" />
		<path id="Layer" fill-rule="evenodd" class="s1" d="m-2967.3-2125.4h53.8c9.9 16.3 15.8 34.9 15.8 55c0 44.6-28.3 83-69.7 100.5zm279 0.4l117.7 0.1c-0.7 29.3-26.9 52.7-59.1 52.6c-31.8 0-58-23.5-58.6-52.7zm343 0.4l208.9 0.3c9.9 16.3 15.9 34.9 15.9 55c-0.1 61.2-53.9 110.9-120.3 110.8c-66.9-0.1-120.6-50.3-120.5-111.1c0-20.2 5.7-38.7 16-55zm434.2 0.6l117.7 0.2c-0.7 29.3-26.9 52.7-59.1 52.6c-31.8 0-57.9-23.5-58.6-52.8zm343 0.5l209.3 0.3c9.9 16.3 15.9 34.8 15.9 55c-0.1 61.2-53.9 110.9-120.4 110.8c-66.8-0.1-120.5-50.3-120.4-111.1c-0.4-20.2 5.3-38.7 15.6-55zm434.2 0.6l117.8 0.2c-0.8 29.3-27 52.6-59.1 52.6c-31.9 0-57.6-23.5-58.7-52.8zm343 0.5l209.4 0.3c9.8 16.3 15.8 34.8 15.8 55c0 61.2-53.8 110.9-120.3 110.8c-67.2-0.1-120.9-50-120.8-111.1c0-20.2 6-38.8 15.9-55zm434.3 0.6l117.7 0.2c-0.7 29.2-26.9 52.6-59.1 52.6c-31.8-0.1-57.6-23.5-58.6-52.8zm343 0.5l209.3 0.3c9.9 16.2 15.9 34.8 15.8 55c0 61.1-53.8 110.8-120.3 110.7c-66.8 0-120.5-50.2-120.5-111.1c-0.3-20.1 5.7-38.7 15.7-54.9zm434.2 0.6l117.7 0.1c-0.7 29.3-26.9 52.7-59.1 52.7c-32.1-0.1-57.6-23.5-58.6-52.8zm343 0.4l209.3 0.3c9.9 16.3 15.9 34.9 15.9 55c-0.1 61.2-53.9 110.9-120.4 110.8c-66.8-0.1-120.5-50.3-120.4-111.1c-0.4-20.2 5.7-38.7 15.6-55zm434.2 0.6l117.8 0.2c-0.8 29.3-27 52.7-59.1 52.6c-32.2 0-57.7-23.5-58.7-52.8zm343 0.5l209.4 0.3c9.8 16.3 15.8 34.8 15.8 55c-0.1 61.2-53.9 110.9-120.3 110.8c-66.9-0.1-120.6-50.3-120.5-111.1c-0.3-20.2 5.7-38.7 15.6-55zm434.6 0.6h7.8v26.1c-4.6-7.5-7.5-16.3-7.8-26.1zm7.7 89.5l-0.2 201.1c-41-17.6-69.3-56.1-69.2-100.3c0-44.6 28.4-83 69.4-100.8zm-0.3 302.3l-0.1 55c-4.9-8.2-7.7-17.6-7.7-27.7c0-10.1 2.8-19.5 7.8-27.3zm-0.1 118.1l-0.3 201c-41-17.6-69.2-55.7-69.2-100.3c0.1-44.5 28.4-82.9 69.5-100.7zm-0.4 302.2v55c-5-8.1-7.8-17.2-7.8-27.3c0-10.4 2.9-19.5 7.8-27.7zm-0.1 118.8l-0.2 201.1c-41-17.7-69.2-56.1-69.2-100.7c0.1-44.9 28.4-83.2 69.4-100.4zm-0.3 301.6l-0.1 55.3c-4.9-8.5-7.7-17.6-7.7-27.7c0-10.1 2.8-19.5 7.8-27.6zm-0.1 118.7l-0.2 201.1c-41-17.6-69.3-56-69.2-100.6c0-44.6 28.3-82.9 69.4-100.5zm-0.3 301.7l-0.1 55.3c-4.9-8.2-7.7-17.6-7.7-27.7c0-10.1 2.8-19.5 7.8-27.6zm-0.2 118.7l-0.2 201.1c-41-17.6-69.2-56.1-69.2-100.3c0.1-44.6 28.4-83.3 69.4-100.8zm-0.3 301.9v55c-5-8.1-7.8-17.6-7.8-27.6c0-9.8 2.9-19.2 7.8-27.4zm-0.1 118.5l-0.2 201c-41-17.6-69.2-55.7-69.2-100.3c0-44.5 28.4-82.9 69.4-100.7zm-0.3 302.2l-0.1 55c-4.9-8.1-7.7-17.2-7.7-27.3c0-10.4 2.8-19.9 7.8-27.7zm-0.1 118.8l-0.2 201.1c-41-17.7-69.3-56.1-69.2-100.7c0-44.9 28.3-83.2 69.4-100.4zm-0.3 301.6l-0.1 55.3c-4.9-8.5-7.8-17.6-7.7-27.7c0-10.1 2.8-19.5 7.8-27.6zm-0.2 118.7l-0.1 155.2h-53.4c-10.6-16.3-15.9-34.9-15.9-55c0.1-44.3 28.4-82.6 69.4-100.2zm-278.8 154.9l-118.1-0.2c1.5-29.3 27.3-52.7 59.5-52.6c31.5 0 57.6 23.5 58.6 52.8zm-343.3-0.5l-209-0.3c-10.6-16.3-15.9-34.8-15.9-55c0.1-61.2 53.9-110.6 120.4-110.5c66.5 0.1 120.2 49.6 120.1 110.8c0.3 20.2-5 38.7-15.6 55zm-433.9-0.6l-118.1-0.2c1.4-29.3 27.3-52.7 59.5-52.6c31.4 0 57.6 23.5 58.6 52.8zm-343.3-0.5l-209-0.3c-10.6-16.3-15.9-34.8-15.9-55c0.1-61.2 53.9-110.5 120.4-110.5c66.4 0.1 120.1 49.7 120.1 110.8c0.3 20.2-5 38.7-15.6 55zm-433.9-0.6l-118.1-0.2c1.4-29.2 27.3-52.6 59.4-52.6c31.5 0.1 57.3 23.5 58.7 52.8zm-343.4-0.5l-209-0.3c-9.8-16.2-15.8-34.8-15.8-55c0-61.1 53.8-110.5 120.3-110.4c66.5 0.1 120.2 49.6 120.1 110.8c0.4 20.1-5 38.7-15.6 54.9zm-433.9-0.6l-118.1-0.1c1.5-29.3 27.3-52.7 59.5-52.7c31.5 0.1 57.3 23.5 58.6 52.8zm-343.3-0.5l-209-0.2c-9.9-16.3-15.9-34.9-15.8-55.1c0-61.1 53.8-110.5 120.3-110.4c66.5 0.1 120.2 49.6 120.1 110.8c0.3 20.2-5 38.7-15.6 54.9zm-433.9-0.6l-118.1-0.1c1.5-29.3 27.3-52.7 59.5-52.6c31.4 0 57.2 23.5 58.6 52.7zm-343.3-0.4l-209-0.3c-9.9-16.3-15.9-34.9-15.9-55c0.1-61.2 53.9-110.6 120.4-110.5c66.4 0.1 120.1 49.6 120.1 110.8c0.3 20.2-5.4 38.7-15.6 55zm-433.9-0.6l-118.1-0.2c1.4-29.3 27.3-52.7 59.4-52.6c31.5 0 57.3 23.5 58.7 52.8zm-343.4-0.5l-209-0.3c-9.8-16.3-15.8-34.8-15.8-55c0.1-61.2 53.9-110.6 120.3-110.5c66.5 0.1 120.2 49.7 120.1 110.8c0.4 20.2-5.3 38.7-15.6 55zm-433.9-0.6h-8.4v-25.7c4.9 7.5 7.8 16.6 8.4 25.7zm-8.3-89.5l0.2-201.1c41.3 17.7 69.6 56.1 69.5 100.7c0 44.9-28.4 83.2-69.7 100.4zm0.3-301.6v-55.3c5.3 8.5 8.5 17.6 8.5 27.7c0 9.7-3.2 19.5-8.5 27.6zm0.1-118.8l0.2-201c41.4 17.6 69.6 56 69.6 100.6c-0.1 44.3-28.4 82.6-69.8 100.4zm0.3-301.9l0.1-55.3c5.3 8.1 8.4 17.6 8.4 27.7c0 10.1-3.2 19.8-8.5 27.6zm0.1-118.7l0.2-201.1c41.4 17.6 69.6 56 69.6 100.3c-0.1 44.9-28.4 83.2-69.8 100.8zm0.3-301.7l0.1-55.3c5.3 8.2 8.5 17.6 8.5 27.7c-0.1 10.1-3.2 19.5-8.6 27.6zm0.2-118.7l0.2-201.1c41.3 17.6 69.6 55.8 69.5 100.3c0 44.9-28.3 83.3-69.7 100.8zm0.3-301.9v-55c5.3 8.1 8.5 17.2 8.5 27.6c0 10.1-3.2 19.2-8.5 27.4zm0.1-118.8l0.2-201.1c41.4 17.7 69.6 56.1 69.6 100.7c-0.1 44.5-28.4 83.2-69.8 100.4zm0.3-301.6l0.1-55c5.3 8.2 8.4 17.3 8.4 27.4c0 10-3.2 19.5-8.5 27.6zm0.1-118.8l0.2-201c41.4 17.6 69.6 56 69.6 100.6c0 44.3-28.4 82.6-69.8 100.4zm0.3-301.6l0.1-55.3c5.3 8.2 8.5 17.6 8.5 27.7c-0.1 9.8-3.2 19.5-8.6 27.6zm0.2-118.7l0.2-201.1c41.3 17.6 69.6 56.1 69.5 100.3c0 44.6-28.3 82.9-69.7 100.8zm0.3-302v-55.3c5.3 8.2 8.5 17.6 8.5 27.7c0 10.1-3.2 19.8-8.5 27.6zm4858 2794.5c-32.8-0.1-59.2-24.5-59.2-54.6c0-30.2 26.6-54.5 59.3-54.4c32.8 0 59.2 24.4 59.2 54.5c-0.1 30.2-26.6 54.5-59.3 54.5zm-368.2-63.7c0-61.1 53.8-110.5 120.6-110.4c66.5 0.1 120.2 49.6 120.2 110.8c-0.1 61.1-53.9 110.5-120.4 110.4c-66.8-0.1-120.9-49.9-120.4-110.8zm-79.4 126.2c0-30.3 26.2-54.3 59.1-54.3c32.9 0 59.1 24.5 59 54.4c0 30.3-26.6 54.3-59.1 54.3c-32.9-0.1-59-24.5-59-54.4zm281.1 0.3c0.1-30.2 26.6-54.3 59.1-54.2c32.9 0 59.1 24.5 59 54.4c0 30.3-26.5 54.3-59.1 54.3c-32.9-0.1-59-24.5-59-54.5zm-610.8-63.9c-32.7-0.1-59.2-24.5-59.1-54.6c0-30.1 26.5-54.5 59.3-54.4c32.7 0 59.2 24.4 59.1 54.6c0 30.1-26.5 54.4-59.3 54.4zm281.1 0.4c-32.7-0.1-59.2-24.5-59.1-54.6c0-30.2 26.5-54.5 59.3-54.4c32.7 0 59.2 24.4 59.1 54.5c0 30.2-26.5 54.5-59.3 54.5zm-140.5-65.6c-32.6-0.1-59-24.4-58.9-54.4c0-30.1 26.4-54.3 59.1-54.3c32.7 0 59 24.4 59 54.4c-0.1 30.1-26.5 54.3-59.2 54.3zm-508.8 1.5c0.1-61.1 53.9-110.5 120.7-110.4c66.5 0.1 120.2 49.6 120.1 110.8c0 61.1-53.8 110.5-120.3 110.4c-66.8-0.1-120.9-49.9-120.5-110.8zm-79.3 126.2c0-30.3 26.6-54.3 59.1-54.3c32.9 0.1 59 24.5 59 54.4c0 30.3-26.6 54.3-59.1 54.3c-32.9-0.1-59-24.5-59-54.4zm280.7 0.4c0.1-30.3 26.3-54.3 59.2-54.3c32.8 0.1 59 24.5 59 54.4c-0.1 30.3-26.6 54.3-59.2 54.3c-32.5-0.1-58.6-24.5-59-54.4zm-610.4-64c-32.8 0-59.2-24.4-59.2-54.6c0.1-30.1 26.6-54.4 59.3-54.4c32.8 0 59.2 24.4 59.2 54.6c0 30.1-26.6 54.4-59.3 54.4zm281.1 0.4c-32.7-0.1-59.2-24.5-59.1-54.6c0-30.1 26.5-54.5 59.3-54.4c32.7 0 59.2 24.4 59.1 54.6c0 30.1-26.5 54.4-59.3 54.4zm-140.5-65.6c-32.6 0-59-24.4-59-54.4c0.1-30.1 26.5-54.3 59.2-54.3c32.6 0.1 59 24.4 58.9 54.4c0 30.1-26.4 54.3-59.1 54.3zm-509.2 1.6c0.1-61.2 53.9-110.6 120.7-110.5c66.5 0.1 120.2 49.6 120.1 110.8c0 61.2-53.8 110.5-120.3 110.5c-66.8-0.1-120.5-50-120.5-110.8zm-79.3 126.1c0-30.3 26.2-54.3 59.1-54.3c32.9 0.1 59 24.5 59 54.5c0 30.2-26.6 54.3-59.1 54.2c-32.5 0-58.7-24.5-59-54.4zm281.1 0.4c0-30.3 26.6-54.3 59.1-54.3c32.9 0.1 59.1 24.5 59 54.4c0 30.3-26.6 54.3-59.1 54.3c-32.5 0-58.7-24.5-59-54.4zm-610.4-64c-32.8 0-59.2-24.4-59.2-54.6c0-30.1 26.6-54.4 59.3-54.4c32.8 0.1 59.2 24.5 59.2 54.6c-0.1 30.1-26.6 54.5-59.3 54.4zm281.1 0.4c-32.8 0-59.2-24.4-59.2-54.6c0.1-30.1 26.6-54.4 59.3-54.4c32.8 0.1 59.2 24.5 59.2 54.6c-0.1 30.1-26.6 54.5-59.3 54.4zm-140.5-65.6c-32.7 0-59-24.4-59-54.4c0.1-30 26.5-54.3 59.1-54.3c32.7 0.1 59.1 24.4 59 54.5c0 30-26.5 54.3-59.1 54.2zm-509.2 1.6c0.1-61.2 53.9-110.6 120.7-110.5c66.5 0.1 120.2 49.7 120.1 110.8c0 61.2-53.8 110.6-120.3 110.5c-66.9-0.1-120.6-50-120.5-110.8zm-79.3 126.1c0-30.2 26.5-54.3 59.1-54.2c32.9 0 59 24.4 59 54.4c-0.1 30.2-26.6 54.3-59.1 54.2c-32.6 0-58.7-24.4-59-54.4zm281.1 0.4c0-30.3 26.6-54.3 59.1-54.2c32.9 0 59 24.4 59 54.4c0 30.2-26.6 54.3-59.1 54.2c-32.5 0-58.7-24.5-59-54.4zm-610.5-64c-32.7 0-59.2-24.4-59.1-54.5c0-30.2 26.5-54.5 59.3-54.5c32.7 0.1 59.2 24.5 59.1 54.6c0 30.2-26.5 54.5-59.3 54.4zm281.1 0.4c-32.7 0-59.1-24.4-59.1-54.5c0-30.2 26.5-54.5 59.3-54.5c32.8 0.1 59.2 24.5 59.2 54.6c-0.1 30.2-26.6 54.5-59.4 54.4zm-140.4-65.6c-32.7 0-59.1-24.3-59-54.4c0-30 26.4-54.3 59.1-54.2c32.7 0 59 24.3 59 54.4c-0.1 30-26.5 54.3-59.1 54.2zm-509.2 1.6c0-61.2 53.8-110.5 120.7-110.4c66.4 0 120.1 49.6 120.1 110.7c-0.1 61.2-53.9 110.6-120.4 110.5c-66.8-0.1-120.5-49.9-120.4-110.8zm-79.4 126.1c0.1-30.2 26.3-54.3 59.1-54.2c32.9 0 59.1 24.5 59 54.4c0 30.3-26.5 54.3-59.1 54.3c-32.5-0.1-58.6-24.5-59-54.5zm281.2 0.4c0-30.2 26.5-54.3 59.1-54.2c32.8 0 59 24.5 59 54.4c-0.1 30.3-26.6 54.3-59.1 54.2c-32.6 0-58.7-24.4-59-54.4zm-610.5-63.9c-32.8-0.1-59.2-24.5-59.2-54.6c0.1-30.2 26.6-54.5 59.3-54.4c32.8 0 59.2 24.4 59.2 54.5c0 30.2-26.5 54.5-59.3 54.5zm280.8 0.4c-32.8-0.1-59.2-24.5-59.2-54.6c0-30.2 26.6-54.5 59.3-54.4c32.8 0 59.2 24.4 59.2 54.5c-0.1 30.2-26.6 54.5-59.3 54.5zm-140.2-65.6c-32.6-0.1-59-24.4-59-54.5c0.1-30 26.5-54.3 59.2-54.2c32.6 0 59 24.4 59 54.4c-0.1 30.1-26.5 54.3-59.2 54.3zm-509.2 1.5c0.1-61.1 53.9-110.5 120.7-110.4c66.5 0.1 120.2 49.6 120.2 110.8c-0.1 61.1-53.9 110.5-120.4 110.4c-66.8-0.1-120.5-49.9-120.5-110.8zm-79.3 126.2c0-30.3 26.6-54.3 59.1-54.3c32.9 0.1 59 24.5 59 54.4c0 30.3-26.6 54.3-59.1 54.3c-32.5-0.1-58.7-24.5-59-54.4zm281.1 0.4c0.1-30.3 26.6-54.3 59.1-54.3c32.9 0 59.1 24.5 59 54.4c0 30.3-26.5 54.3-59.1 54.3c-32.5-0.1-59-24.5-59-54.4zm-610.4-64c-32.8-0.1-59.2-24.5-59.2-54.6c0.1-30.1 26.6-54.5 59.3-54.4c32.8 0 59.2 24.4 59.2 54.6c-0.1 30.1-26.6 54.4-59.3 54.4zm280.7 0.4c-32.7-0.1-59.2-24.5-59.1-54.6c0-30.1 26.5-54.5 59.3-54.4c32.7 0 59.2 24.4 59.1 54.6c0 30.1-26.5 54.4-59.3 54.4zm-140.1-65.6c-32.7-0.1-59-24.4-59-54.4c0.1-30.1 26.5-54.3 59.1-54.3c32.7 0.1 59.1 24.4 59 54.4c0 30.1-26.5 54.3-59.1 54.3zm-307.4 128.1c0-30.3 26.2-54.3 59.1-54.3c32.9 0.1 59 24.5 59 54.4c0 30.3-26.6 54.3-59.1 54.3c-32.5-0.1-59-24.5-59-54.4zm4830.6-477.1c-32.8-0.1-59.2-24.4-59.2-54.5c0.1-30 26.6-54.2 59.3-54.2c32.8 0 59.2 24.4 59.2 54.4c0 30.1-26.6 54.3-59.3 54.3zm-368.2-63.3c0.1-61.5 53.9-110.9 120.7-110.8c66.5 0.1 120.2 49.6 120.1 111.1c-0.1 61.2-53.9 110.5-120.3 110.4c-66.9 0-120.9-49.9-120.5-110.7zm-79.3 125.8c0-30 26.2-54.7 59.1-54.6c32.8 0 59 24.8 59 54.7c-0.1 30.3-26.6 54.3-59.2 54.3c-32.8-0.1-59-24.2-58.9-54.4zm281.1 0.4c0-30 26.5-54.7 59.1-54.6c32.9 0 59 24.8 59 54.7c-0.1 30.3-26.6 54.3-59.1 54.3c-32.9-0.1-59.1-24.2-59-54.4zm-140.8 64.8c0-30.2 26.9-54.3 59.4-54.2c32.2 0 59.1 24.5 59 54.4c0 30.3-26.9 54.3-59.1 54.2c-32.5 0-59.4-24.1-59.3-54.4zm-329.7 53.9c-66.5-0.1-120.2-49.6-120.1-110.8c0.1-61.2 53.9-110.5 120.4-110.4c66.5 0.1 120.2 49.6 120.1 110.8c-0.1 61.1-53.9 110.5-120.4 110.4zm-140.3-182.7c-32.8-0.1-59.2-24.4-59.2-54.4c0-30.1 26.6-54.3 59.3-54.3c32.8 0.1 59.2 24.4 59.2 54.4c-0.1 30.1-26.6 54.3-59.3 54.3zm281.1 0.4c-32.8-0.1-59.2-24.4-59.2-54.4c0.1-30.1 26.6-54.3 59.3-54.3c32.8 0.1 59.2 24.4 59.2 54.4c-0.1 30.1-26.6 54.3-59.3 54.3zm-140.5-65.3c-32.7 0-59-24.4-59-54.6c0-30.1 26.5-54.4 59.1-54.4c32.7 0.1 59.1 24.5 59 54.6c0 30.1-26.5 54.5-59.1 54.4zm-508.8 1.6c0-61.5 53.8-110.9 120.7-110.8c66.4 0.1 120.1 49.6 120.1 111.1c-0.1 61.2-53.9 110.6-120.4 110.5c-66.8-0.1-120.9-50-120.4-110.8zm-79.4 125.8c0.1-29.9 26.6-54.6 59.1-54.6c32.9 0.1 59.1 24.8 59 54.8c0 30.2-26.6 54.2-59.1 54.2c-32.9 0-59-24.2-59-54.4zm280.8 0.4c0-30 26.2-54.6 59.1-54.6c32.9 0 59 24.8 59 54.7c0 30.3-26.6 54.3-59.1 54.3c-32.6-0.1-58.7-24.2-59-54.4zm-140.5 64.9c0.1-30.3 27-54.3 59.5-54.3c32.2 0 59 24.5 59 54.4c0 30.3-26.9 54.3-59.1 54.3c-32.9-0.1-59.4-24.2-59.4-54.4zm-329.6 53.8c-66.5-0.1-120.2-49.6-120.1-110.8c0.1-61.1 53.9-110.5 120.4-110.4c66.5 0.1 120.1 49.6 120.1 110.8c-0.1 61.1-53.9 110.5-120.4 110.4zm-140.4-182.7c-32.7 0-59.2-24.4-59.1-54.4c0-30.1 26.5-54.3 59.3-54.3c32.7 0.1 59.2 24.4 59.1 54.5c0 30-26.5 54.3-59.3 54.2zm281.1 0.4c-32.7 0-59.2-24.4-59.1-54.4c0-30.1 26.5-54.3 59.3-54.3c32.7 0.1 59.2 24.4 59.1 54.4c0 30.1-26.5 54.3-59.3 54.3zm-140.4-65.3c-32.7 0-59.1-24.4-59-54.5c0-30.2 26.4-54.5 59.1-54.5c32.7 0.1 59 24.5 59 54.6c-0.1 30.2-26.5 54.5-59.1 54.4zm-509.2 1.6c0-61.5 53.8-110.9 120.7-110.8c66.4 0.1 120.1 49.6 120.1 111.1c-0.1 61.2-53.9 110.6-120.4 110.5c-66.8-0.1-120.5-50-120.4-110.8zm-79.4 125.8c0.1-29.9 26.3-54.6 59.1-54.6c32.9 0.1 59.1 24.8 59 54.8c0 30.2-26.5 54.3-59.1 54.2c-32.5 0-58.6-24.1-59-54.4zm281.2 0.4c0-29.9 26.5-54.6 59.1-54.6c32.8 0.1 59 24.8 59 54.8c-0.1 30.2-26.6 54.3-59.2 54.2c-32.5 0-58.6-24.1-58.9-54.4zm-140.9 64.9c0.1-30.3 27-54.3 59.5-54.3c32.2 0.1 59 24.5 59 54.4c0 30.3-26.9 54.3-59.1 54.3c-32.5-0.1-59-24.2-59.4-54.4zm-329.3 53.9c-66.4-0.1-120.1-49.7-120-110.8c0.1-61.2 53.9-110.6 120.4-110.5c66.4 0.1 120.1 49.6 120 110.8c-0.1 61.2-53.9 110.5-120.4 110.5zm-140.3-182.8c-32.8 0-59.2-24.3-59.2-54.4c0.1-30 26.6-54.3 59.3-54.2c32.8 0 59.2 24.3 59.2 54.4c0 30-26.6 54.3-59.3 54.2zm281.1 0.4c-32.7 0-59.2-24.3-59.1-54.4c0-30 26.5-54.3 59.3-54.2c32.7 0 59.2 24.3 59.1 54.4c0 30-26.5 54.3-59.3 54.2zm-140.5-65.2c-32.6-0.1-59-24.5-59-54.6c0.1-30.2 26.5-54.5 59.2-54.4c32.6 0 59 24.4 58.9 54.5c0 30.2-26.4 54.5-59.1 54.5zm-509.2 1.5c0.1-61.5 53.9-110.8 120.7-110.8c66.5 0.1 120.2 49.7 120.1 111.2c0 61.1-53.8 110.5-120.3 110.4c-66.8-0.1-120.5-49.9-120.5-110.8zm-79.3 125.8c0-29.9 26.6-54.6 59.1-54.5c32.9 0 59 24.8 59 54.7c0 30.3-26.6 54.3-59.1 54.2c-32.5 0-58.7-24.1-59-54.4zm281.1 0.4c0.1-29.9 26.6-54.6 59.1-54.6c32.9 0.1 59.1 24.9 59 54.8c0 30.2-26.5 54.3-59.1 54.2c-32.5 0-58.7-24.1-59-54.4zm-140.8 64.9c0-30.3 26.9-54.3 59.5-54.3c32.2 0.1 59 24.5 59 54.5c-0.1 30.2-27 54.3-59.1 54.2c-32.6 0-59.1-24.1-59.4-54.4zm-329.3 53.9c-66.5-0.1-120.1-49.6-120.1-110.8c0.1-61.2 53.9-110.6 120.4-110.5c66.5 0.1 120.2 49.6 120.1 110.8c-0.1 61.2-53.9 110.6-120.4 110.5zm-140.3-182.7c-32.8-0.1-59.2-24.4-59.2-54.5c0.1-30 26.6-54.3 59.3-54.2c32.8 0 59.2 24.4 59.2 54.4c-0.1 30-26.6 54.3-59.3 54.3zm281.1 0.3c-32.8 0-59.2-24.3-59.2-54.4c0.1-30 26.6-54.3 59.3-54.2c32.8 0 59.2 24.3 59.2 54.4c-0.1 30-26.6 54.3-59.3 54.2zm-140.5-65.2c-32.7-0.1-59-24.5-59-54.6c0.1-30.1 26.5-54.5 59.1-54.4c32.7 0 59.1 24.4 59 54.6c0 30.1-26.5 54.4-59.1 54.4zm-509.2 1.5c0.1-61.4 53.9-110.8 120.7-110.7c66.5 0.1 120.2 49.6 120.1 111.1c0 61.2-53.8 110.5-120.3 110.4c-66.9-0.1-120.6-49.9-120.5-110.8zm-79.3 125.9c0-30 26.2-54.7 59.1-54.6c32.9 0 59 24.8 59 54.7c-0.1 30.3-26.6 54.3-59.1 54.3c-32.6-0.1-58.7-24.2-59-54.4zm281.1 0.3c0-29.9 26.6-54.6 59.1-54.5c32.9 0 59 24.8 59 54.7c0 30.3-26.6 54.3-59.1 54.3c-32.5-0.1-58.7-24.2-59-54.5zm-140.8 64.9c0-30.2 26.9-54.3 59.4-54.2c32.2 0 59.1 24.5 59 54.4c0 30.2-26.9 54.3-59.1 54.2c-32.5 0-59-24.1-59.3-54.4zm-329.3 53.9c-66.5-0.1-120.2-49.6-120.1-110.8c0.1-61.2 53.9-110.5 120.4-110.4c66.5 0 120.1 49.6 120.1 110.7c-0.1 61.2-53.9 110.6-120.4 110.5zm-140.4-182.7c-32.7-0.1-59.2-24.4-59.1-54.4c0-30.1 26.5-54.3 59.3-54.3c32.7 0.1 59.2 24.4 59.1 54.4c0 30.1-26.5 54.3-59.3 54.3zm280.8 0.4c-32.8-0.1-59.2-24.4-59.2-54.5c0.1-30 26.6-54.2 59.3-54.2c32.8 0 59.2 24.4 59.2 54.4c0 30.1-26.5 54.3-59.3 54.3zm-140.1-65.3c-32.7 0-59.1-24.4-59-54.6c0-30.1 26.5-54.4 59.1-54.4c32.7 0.1 59 24.4 59 54.6c-0.1 30.1-26.5 54.4-59.1 54.4zm-509.2 1.6c0-61.5 53.8-110.9 120.7-110.8c66.5 0.1 120.2 49.6 120.1 111.1c-0.1 61.2-53.9 110.6-120.4 110.5c-66.8-0.1-120.5-50-120.4-110.8zm-79.4 125.8c0.1-30 26.6-54.6 59.1-54.6c32.9 0 59.1 24.8 59 54.7c0 30.3-26.5 54.3-59.1 54.3c-32.5-0.1-58.6-24.2-59-54.4zm281.2 0.4c0-30 26.5-54.7 59.1-54.6c32.9 0 59 24.8 59 54.7c-0.1 30.3-26.6 54.3-59.1 54.3c-32.6-0.1-59.1-24.2-59-54.4zm-140.8 64.8c0-30.2 26.9-54.3 59.4-54.2c32.2 0 59 24.5 59 54.4c0 30.3-26.9 54.3-59.1 54.3c-32.5-0.1-59.4-24.2-59.3-54.5zm-329.3 53.9c-66.5-0.1-120.2-49.6-120.1-110.8c0.1-61.1 53.9-110.5 120.4-110.4c66.4 0.1 120.1 49.6 120 110.8c-0.1 61.1-53.9 110.5-120.3 110.4zm-140.4-182.7c-32.8 0-59.2-24.4-59.2-54.4c0.1-30.1 26.6-54.3 59.4-54.3c32.7 0.1 59.1 24.4 59.1 54.4c0 30.1-26.5 54.3-59.3 54.3zm280.8 0.4c-32.8-0.1-59.2-24.4-59.2-54.4c0.1-30.1 26.6-54.3 59.3-54.3c32.8 0.1 59.2 24.4 59.2 54.4c-0.1 30.1-26.6 54.3-59.3 54.3zm-140.2-65.3c-32.6 0-59-24.4-59-54.6c0.1-30.1 26.5-54.4 59.2-54.4c32.6 0.1 59 24.5 59 54.6c-0.1 30.1-26.5 54.5-59.2 54.4zm-307.4 127.8c0.1-29.9 26.3-54.6 59.1-54.6c32.9 0.1 59.1 24.8 59 54.8c0 30.2-26.5 54.2-59.1 54.2c-32.5 0-59-24.2-59-54.4zm4830.6-476.8c-32.7 0-59.2-24.4-59.1-54.4c0-30.1 26.5-54.3 59.3-54.3c32.7 0.1 59.2 24.4 59.1 54.5c0 30-26.5 54.2-59.3 54.2zm-368.2-64c0.1-61.1 53.9-110.5 120.7-110.4c66.5 0.1 120.2 49.6 120.1 110.8c0 61.5-53.8 110.9-120.3 110.8c-66.8-0.1-120.9-49.7-120.5-111.2zm-79.3 126.2c0-30.3 26.2-54.3 59.1-54.3c32.9 0.1 59 24.5 59 54.4c0 30.3-26.6 54.3-59.1 54.3c-32.9-0.1-59-24.2-59-54.4zm281.1 0.4c0-30.3 26.6-54.3 59.1-54.3c32.9 0.1 59 24.5 59 54.4c0 30.3-26.6 54.3-59.1 54.3c-32.9-0.1-59-24.2-59-54.4zm-140.8 65.2c0-30.3 26.9-54.3 59.5-54.3c32.1 0.1 59 24.2 59 54.4c-0.1 30.3-27 54.3-59.1 54.3c-32.6-0.1-59.4-24.2-59.4-54.4zm-329.7 53.8c-66.4 0-120.1-49.6-120-110.7c0.1-61.2 53.9-110.6 120.3-110.5c66.5 0.1 120.2 49.6 120.1 110.8c-0.1 61.2-53.9 110.5-120.4 110.4zm-140.3-182.7c-32.8 0-59.2-24.3-59.2-54.4c0.1-30 26.6-54.3 59.3-54.2c32.8 0 59.2 24.3 59.2 54.4c0 30-26.6 54.3-59.3 54.2zm281.1 0.4c-32.7 0-59.2-24.4-59.1-54.4c0-30 26.5-54.3 59.3-54.3c32.7 0.1 59.2 24.4 59.1 54.5c0 30-26.5 54.3-59.3 54.2zm-140.5-65.6c-32.6 0-59-24.3-59-54.4c0.1-30 26.5-54.3 59.2-54.2c32.6 0 59 24.3 58.9 54.4c0 30-26.4 54.3-59.1 54.2zm-508.8 1.3c0.1-61.2 53.9-110.6 120.7-110.5c66.5 0.1 120.2 49.6 120.1 110.8c-0.1 61.5-53.9 110.9-120.3 110.8c-66.9-0.1-120.9-49.6-120.5-111.1zm-79.3 126.1c0-30.3 26.5-54.3 59.1-54.3c32.8 0.1 59 24.5 59 54.5c-0.1 30.2-26.6 54.3-59.1 54.2c-32.9 0-59.1-24.1-59-54.4zm280.7 0.4c0.1-30.3 26.2-54.3 59.1-54.3c32.9 0.1 59.1 24.5 59 54.5c0 30.2-26.6 54.2-59.1 54.2c-32.5 0-58.7-24.2-59-54.4zm-140.4 65.2c0-30.3 26.9-54.3 59.4-54.3c32.2 0.1 59.1 24.2 59 54.5c0 30.2-26.9 54.3-59.1 54.2c-32.9 0-59.4-24.2-59.3-54.4zm-329.7 53.9c-66.5-0.1-120.1-49.6-120.1-110.8c0.1-61.2 53.9-110.6 120.4-110.5c66.5 0.1 120.2 49.6 120.1 110.8c-0.1 61.2-53.9 110.6-120.4 110.5zm-140.3-182.8c-32.8 0-59.2-24.3-59.2-54.4c0-30 26.6-54.3 59.3-54.2c32.8 0 59.2 24.3 59.2 54.4c-0.1 30-26.6 54.3-59.3 54.2zm281.1 0.4c-32.8 0-59.2-24.3-59.2-54.4c0.1-30 26.6-54.3 59.3-54.2c32.8 0 59.2 24.3 59.2 54.4c-0.1 30-26.6 54.3-59.3 54.2zm-140.5-65.6c-32.7 0-59-24.3-59-54.4c0.1-30 26.5-54.3 59.1-54.2c32.7 0 59.1 24.3 59 54.4c0 30-26.5 54.3-59.1 54.2zm-509.2 1.3c0.1-61.2 53.9-110.6 120.7-110.5c66.5 0.1 120.2 49.7 120.1 110.8c0 61.5-53.8 110.9-120.3 110.8c-66.9-0.1-120.6-49.6-120.5-111.1zm-79.3 126.1c0-30.2 26.2-54.3 59.1-54.2c32.9 0 59 24.5 59 54.4c-0.1 30.2-26.6 54.3-59.1 54.2c-32.6 0-58.7-24.1-59-54.4zm281.1 0.4c0-30.2 26.6-54.3 59.1-54.2c32.9 0 59 24.4 59 54.4c0 30.2-26.6 54.3-59.1 54.2c-32.5 0-58.7-24.1-59-54.4zm-140.8 65.2c0-30.2 26.9-54.3 59.4-54.2c32.2 0 59.1 24.1 59 54.4c0 30.2-26.9 54.3-59.1 54.2c-32.5 0-59.3-24.1-59.3-54.4zm-329.3 53.9c-66.5-0.1-120.2-49.6-120.1-110.8c0.1-61.2 53.9-110.5 120.4-110.5c66.5 0.1 120.1 49.7 120.1 110.8c-0.1 61.2-53.9 110.6-120.4 110.5zm-140.4-182.7c-32.7-0.1-59.2-24.4-59.1-54.4c0-30.1 26.5-54.3 59.3-54.3c32.7 0 59.2 24.4 59.1 54.4c0 30.1-26.5 54.3-59.3 54.3zm281.1 0.4c-32.7-0.1-59.1-24.4-59.1-54.5c0-30 26.5-54.3 59.3-54.2c32.8 0 59.2 24.4 59.2 54.4c-0.1 30.1-26.6 54.3-59.4 54.3zm-140.4-65.6c-32.7-0.1-59.1-24.4-59-54.4c0-30.1 26.5-54.3 59.1-54.3c32.7 0 59 24.4 59 54.4c-0.1 30.1-26.5 54.3-59.1 54.3zm-509.2 1.2c0-61.2 53.8-110.5 120.7-110.4c66.5 0.1 120.1 49.6 120.1 110.7c-0.1 61.5-53.9 110.9-120.4 110.8c-66.8-0.1-120.5-49.6-120.4-111.1zm-79.4 126.1c0.1-30.2 26.6-54.3 59.1-54.2c32.9 0 59.1 24.5 59 54.4c0 30.3-26.5 54.3-59.1 54.3c-32.5-0.1-58.6-24.2-59-54.5zm281.2 0.4c0-30.2 26.5-54.3 59.1-54.2c32.9 0 59 24.5 59 54.4c-0.1 30.3-26.6 54.3-59.1 54.2c-32.6 0-58.7-24.1-59-54.4zm-140.8 65.2c0-30.2 26.9-54.3 59.4-54.2c32.2 0 59 24.1 59 54.4c0 30.3-26.9 54.3-59.1 54.3c-32.5-0.1-59.4-24.2-59.3-54.5zm-329.4 53.9c-66.4-0.1-120.1-49.6-120-110.8c0.1-61.1 53.9-110.5 120.4-110.4c66.4 0.1 120.1 49.6 120 110.8c-0.1 61.1-53.9 110.5-120.4 110.4zm-140.3-182.7c-32.8-0.1-59.2-24.4-59.2-54.4c0.1-30.1 26.6-54.3 59.3-54.3c32.8 0.1 59.2 24.4 59.2 54.4c0 30.1-26.5 54.3-59.3 54.3zm281.1 0.4c-32.7-0.1-59.2-24.4-59.1-54.4c0-30.1 26.5-54.3 59.3-54.3c32.7 0.1 59.2 24.4 59.1 54.4c0 30.1-26.5 54.3-59.3 54.3zm-140.5-65.6c-32.6-0.1-59-24.4-59-54.4c0.1-30.1 26.5-54.3 59.2-54.3c32.6 0.1 59 24.4 59 54.4c-0.1 30.1-26.5 54.3-59.2 54.3zm-509.2 1.2c0.1-61.1 53.9-110.5 120.7-110.4c66.5 0.1 120.2 49.6 120.2 110.8c-0.1 61.5-53.9 110.8-120.4 110.8c-66.8-0.1-120.5-49.7-120.5-111.2zm-79.3 126.2c0-30.3 26.2-54.3 59.1-54.3c32.9 0.1 59 24.5 59 54.4c0 30.3-26.6 54.3-59.1 54.3c-32.5-0.1-58.7-24.2-59-54.4zm281.1 0.4c0.1-30.3 26.6-54.3 59.1-54.3c32.9 0 59.1 24.5 59 54.4c0 30.3-26.5 54.3-59.1 54.3c-32.5-0.1-58.7-24.2-59-54.4zm-140.8 65.2c0.1-30.3 27-54.3 59.5-54.3c32.2 0 59 24.2 59 54.4c-0.1 30.3-26.9 54.3-59.1 54.3c-32.6-0.1-59.4-24.2-59.4-54.4zm-329.3 53.8c-66.5-0.1-120.1-49.6-120.1-110.8c0.1-61.1 53.9-110.5 120.4-110.4c66.5 0.1 120.2 49.6 120.1 110.8c-0.1 61.2-53.9 110.5-120.4 110.4zm-140.3-182.7c-32.8 0-59.2-24.4-59.2-54.4c0.1-30 26.6-54.3 59.3-54.3c32.8 0.1 59.2 24.4 59.2 54.5c-0.1 30-26.6 54.3-59.3 54.2zm280.7 0.4c-32.7 0-59.2-24.4-59.1-54.4c0-30.1 26.5-54.3 59.3-54.3c32.7 0.1 59.2 24.4 59.1 54.5c0 30-26.5 54.2-59.3 54.2zm-140.1-65.6c-32.7 0-59-24.4-59-54.4c0.1-30.1 26.5-54.3 59.1-54.3c32.7 0.1 59.1 24.4 59 54.5c0 30-26.5 54.3-59.1 54.2zm-509.2 1.3c0.1-61.2 53.9-110.6 120.7-110.5c66.5 0.1 120.2 49.6 120.1 110.8c0 61.5-53.8 110.9-120.3 110.8c-66.9-0.1-120.5-49.6-120.5-111.1zm-79.3 126.1c0-30.3 26.6-54.3 59.1-54.3c32.9 0.1 59 24.5 59 54.5c-0.1 30.2-26.6 54.2-59.1 54.2c-32.6 0-58.7-24.2-59-54.4zm281.1 0.4c0-30.3 26.6-54.3 59.1-54.3c32.9 0.1 59 24.5 59 54.4c0 30.3-26.6 54.3-59.1 54.3c-32.5-0.1-59-24.2-59-54.4zm-140.8 65.2c0-30.3 26.9-54.3 59.5-54.3c32.1 0.1 59 24.2 58.9 54.4c0 30.3-26.9 54.3-59.1 54.3c-32.5 0-59.3-24.2-59.3-54.4zm-329.3 53.9c-66.5-0.1-120.2-49.7-120.1-110.8c0.1-61.2 53.9-110.6 120.4-110.5c66.5 0.1 120.2 49.6 120.1 110.8c-0.1 61.2-53.9 110.5-120.4 110.5zm-140.4-182.8c-32.7 0-59.2-24.3-59.1-54.4c0-30 26.5-54.3 59.3-54.2c32.7 0 59.2 24.3 59.1 54.4c0 30-26.5 54.3-59.3 54.2zm280.8 0.4c-32.8 0-59.2-24.3-59.2-54.4c0.1-30 26.6-54.3 59.4-54.2c32.7 0 59.1 24.3 59.1 54.4c0 30-26.5 54.3-59.3 54.2zm-140.1-65.6c-32.7 0-59.1-24.3-59-54.4c0-30 26.5-54.3 59.1-54.2c32.7 0 59 24.3 59 54.4c-0.1 30-26.5 54.3-59.1 54.2zm-307.4 128.1c0-30.2 26.2-54.6 59.1-54.6c32.9 0.1 59 24.5 59 54.5c-0.1 30.2-26.6 54.3-59.1 54.2c-32.6 0-59.1-24.1-59-54.1zm4830.6-477.1c-32.8 0-59.2-24.4-59.2-54.4c0-30 26.6-54.3 59.3-54.3c32.8 0.1 59.2 24.4 59.2 54.5c-0.1 30-26.6 54.3-59.3 54.2zm-368.2-63.6c0-61.2 53.8-110.6 120.7-110.5c66.4 0.1 120.1 50 120.1 110.8c-0.1 60.9-53.9 110.9-120.4 110.8c-66.8-0.1-120.5-49.9-120.4-111.1zm-79.4 126.1c0.1-30.2 26.2-54.3 59.1-54.2c32.9 0 59.1 24.4 59 54.4c0 30.2-26.6 54.3-59.1 54.2c-32.9 0-59-24.1-59-54.4zm281.1 0.4c0.1-30.3 26.6-54.3 59.1-54.2c32.9 0 59.1 24.4 59 54.4c0 30.2-26.5 54.3-59.1 54.2c-32.8 0-59-24.1-59-54.4zm-140.8 65.2c0.1-30.3 27-54.3 59.5-54.2c32.2 0 59 24.4 59 54.4c0 30.2-26.9 54.3-59.1 54.2c-32.5 0-59.4-24.5-59.4-54.4zm-329.6 53.6c-66.5-0.1-120.2-49.7-120.1-111c0.1-61.3 53.9-110.7 120.4-110.6c66.5 0.1 120.1 49.7 120.1 110.9c-0.1 61.3-53.9 110.8-120.4 110.7zm-140.4-182.8c-32.7 0-59.2-24.3-59.1-54.4c0-30 26.5-54.3 59.3-54.2c32.7 0 59.2 24.3 59.1 54.4c0 30-26.5 54.3-59.3 54.2zm281.1 0.4c-32.7 0-59.1-24.3-59.1-54.4c0-30 26.5-54.3 59.3-54.2c32.8 0 59.2 24.3 59.2 54.4c-0.1 30-26.6 54.3-59.4 54.2zm-140.4-65.2c-32.7-0.1-59.1-24.4-59-54.5c0-30 26.4-54.3 59.1-54.2c32.7 0 59 24.4 59 54.4c-0.1 30.1-26.5 54.3-59.1 54.3zm-508.9 1.2c0.1-61.2 53.9-110.5 120.7-110.4c66.5 0 120.2 49.9 120.1 110.7c0 60.9-53.8 110.9-120.3 110.8c-66.8-0.1-120.5-49.9-120.5-111.1zm-79.3 126.1c0-30.2 26.6-54.3 59.1-54.2c32.9 0 59 24.5 59 54.4c0 30.3-26.6 54.3-59.1 54.3c-32.9-0.1-59-24.2-59-54.5zm280.8 0.4c0-30.2 26.2-54.3 59.1-54.2c32.8 0 59 24.5 59 54.4c-0.1 30.2-26.6 54.3-59.1 54.2c-32.6 0-58.7-24.1-59-54.4zm-140.5 65.2c0-30.2 26.9-54.3 59.5-54.2c32.1 0 59 24.5 59 54.4c-0.1 30.3-27 54.3-59.1 54.2c-32.9 0-59.4-24.4-59.4-54.4zm-329.7 53.6c-66.4-0.1-120.1-49.7-120-111c0.1-61.2 53.9-110.7 120.4-110.6c66.4 0.1 120.1 49.7 120 111c-0.1 61.2-53.9 110.7-120.4 110.6zm-140.3-182.7c-32.8-0.1-59.2-24.4-59.2-54.5c0.1-30 26.6-54.3 59.3-54.2c32.8 0 59.2 24.4 59.2 54.4c0 30.1-26.5 54.3-59.3 54.3zm281.1 0.3c-32.7 0-59.2-24.3-59.1-54.4c0-30 26.5-54.3 59.3-54.2c32.7 0 59.2 24.4 59.1 54.4c0 30-26.5 54.3-59.3 54.2zm-140.5-65.2c-32.6-0.1-59-24.4-59-54.4c0.1-30.1 26.5-54.3 59.2-54.3c32.6 0.1 59 24.4 59 54.4c-0.1 30.1-26.5 54.3-59.2 54.3zm-509.2 1.2c0.1-61.1 53.9-110.5 120.7-110.4c66.5 0.1 120.2 49.9 120.2 110.8c-0.1 60.8-53.9 110.8-120.4 110.7c-66.8 0-120.5-49.9-120.5-111.1zm-79.3 126.2c0-30.3 26.2-54.3 59.1-54.3c32.9 0.1 59 24.5 59 54.4c0 30.3-26.6 54.3-59.1 54.3c-32.5-0.1-58.7-24.2-59-54.4zm281.1 0.3c0.1-30.2 26.6-54.2 59.1-54.2c32.9 0 59.1 24.5 59 54.4c0 30.3-26.5 54.3-59.1 54.3c-32.5-0.1-58.7-24.2-59-54.5zm-140.8 65.3c0.1-30.3 27-54.3 59.5-54.3c32.2 0 59 24.5 59 54.4c-0.1 30.3-27 54.3-59.1 54.3c-32.6-0.1-59.1-24.5-59.4-54.4zm-329.3 53.5c-66.5-0.1-120.1-49.7-120.1-110.9c0.1-61.3 53.9-110.8 120.4-110.7c66.5 0.1 120.2 49.7 120.1 111c-0.1 61.2-53.9 110.7-120.4 110.6zm-140.3-182.7c-32.8-0.1-59.2-24.4-59.2-54.4c0.1-30.1 26.6-54.3 59.3-54.3c32.8 0.1 59.2 24.4 59.2 54.4c-0.1 30.1-26.6 54.3-59.3 54.3zm281.1 0.4c-32.8-0.1-59.2-24.4-59.2-54.4c0.1-30.1 26.6-54.3 59.3-54.3c32.8 0 59.2 24.4 59.2 54.4c-0.1 30.1-26.6 54.3-59.3 54.3zm-140.5-65.3c-32.7 0-59-24.4-59-54.4c0.1-30.1 26.5-54.3 59.1-54.3c32.7 0.1 59.1 24.4 59 54.5c0 30-26.5 54.3-59.1 54.2zm-509.2 1.3c0.1-61.2 53.9-110.6 120.7-110.5c66.5 0.1 120.2 49.9 120.1 110.8c0 60.8-53.8 110.9-120.3 110.8c-66.9-0.1-120.6-50-120.5-111.1zm-79.3 126.1c0-30.3 26.6-54.3 59.1-54.3c32.9 0.1 59 24.5 59 54.4c-0.1 30.3-26.6 54.3-59.1 54.3c-32.6 0-58.7-24.2-59-54.4zm281.1 0.4c0-30.3 26.6-54.3 59.1-54.3c32.9 0.1 59 24.5 59 54.4c0 30.3-26.6 54.3-59.1 54.3c-32.5-0.1-58.7-24.2-59-54.4zm-140.8 65.2c0-30.3 26.9-54.3 59.5-54.3c32.1 0.1 59 24.5 58.9 54.4c0 30.3-26.9 54.3-59.1 54.3c-32.5-0.1-59-24.5-59.3-54.4zm-329.3 53.5c-66.5-0.1-120.2-49.7-120.1-110.9c0.1-61.3 53.9-110.7 120.4-110.6c66.5 0 120.1 49.6 120.1 110.9c-0.1 61.3-53.9 110.7-120.4 110.6zm-140.4-182.7c-32.7 0-59.2-24.4-59.1-54.4c0-30.1 26.5-54.3 59.3-54.3c32.7 0.1 59.2 24.4 59.1 54.5c0 30-26.5 54.3-59.3 54.2zm281.2 0.4c-32.8-0.1-59.2-24.4-59.2-54.4c0-30.1 26.5-54.3 59.3-54.3c32.8 0.1 59.2 24.4 59.2 54.4c-0.1 30.1-26.6 54.3-59.3 54.3zm-140.5-65.3c-32.7 0-59.1-24.3-59-54.4c0-30 26.5-54.3 59.1-54.2c32.7 0 59 24.3 59 54.4c-0.1 30-26.5 54.3-59.1 54.2zm-509.2 1.3c0-61.2 53.8-110.6 120.7-110.5c66.5 0.1 120.2 50 120.1 110.8c-0.1 60.9-53.9 110.9-120.4 110.8c-66.8-0.1-120.5-50-120.4-111.1zm-79.4 126.1c0.1-30.3 26.3-54.3 59.2-54.2c32.8 0 59 24.4 58.9 54.4c0 30.2-26.5 54.3-59.1 54.2c-32.5 0-58.6-24.1-59-54.4zm281.2 0.4c0-30.3 26.5-54.3 59.1-54.3c32.9 0.1 59 24.5 59 54.5c-0.1 30.2-26.6 54.3-59.1 54.2c-32.6 0-58.7-24.1-59-54.4zm-140.8 65.2c0-30.3 26.9-54.3 59.4-54.3c32.2 0.1 59 24.5 59 54.5c0 30.2-26.9 54.3-59.1 54.2c-32.5 0-59-24.5-59.3-54.4zm-329.3 53.5c-66.5 0-120.2-49.6-120.1-110.9c0.1-61.3 53.9-110.7 120.4-110.6c66.4 0.1 120.1 49.7 120 110.9c-0.1 61.3-53.9 110.7-120.3 110.6zm-140.4-182.7c-32.8 0-59.2-24.3-59.2-54.4c0.1-30 26.6-54.3 59.4-54.2c32.7 0 59.1 24.3 59.1 54.4c0 30-26.5 54.3-59.3 54.2zm280.8 0.4c-32.8 0-59.2-24.4-59.2-54.4c0.1-30 26.6-54.3 59.3-54.3c32.8 0.1 59.2 24.4 59.2 54.5c-0.1 30-26.6 54.3-59.3 54.2zm-140.2-65.2c-32.6-0.1-59-24.4-58.9-54.5c0-30 26.4-54.3 59.1-54.2c32.6 0 59 24.4 59 54.4c-0.1 30-26.5 54.3-59.2 54.3zm-509.2 1.2c0.1-61.2 53.9-110.6 120.7-110.5c66.5 0.1 120.2 50 120.2 110.8c-0.1 60.9-53.9 110.9-120.4 110.8c-66.8-0.1-120.5-49.9-120.5-111.1zm-79.3 126.1c0-30.2 26.6-54.3 59.1-54.2c32.9 0 59 24.5 59 54.4c0 30.2-26.6 54.3-59.1 54.2c-32.5 0-58.7-24.1-59-54.4zm281.1 0.4c0.1-30.2 26.6-54.3 59.1-54.2c32.9 0 59.1 24.4 59 54.4c0 30.2-26.5 54.3-59.1 54.2c-32.5 0-59-24.1-59-54.4zm-140.8 65.2c0.1-30.2 27-54.3 59.5-54.2c32.2 0 59 24.4 59 54.4c0 30.2-26.9 54.3-59.1 54.2c-32.6 0-59.4-24.4-59.4-54.4zm-329.3 53.6c-66.5-0.1-120.1-49.7-120.1-111c0.1-61.2 53.9-110.7 120.4-110.6c66.5 0.1 120.2 49.7 120.1 111c-0.1 61.2-53.9 110.7-120.4 110.6zm-140.3-182.8c-32.8 0-59.2-24.3-59.2-54.4c0.1-30 26.6-54.3 59.3-54.2c32.8 0 59.2 24.3 59.2 54.4c-0.1 30-26.6 54.3-59.3 54.2zm280.7 0.4c-32.7 0-59.2-24.3-59.1-54.4c0-30 26.5-54.3 59.3-54.2c32.7 0 59.2 24.3 59.1 54.4c0 30-26.5 54.3-59.3 54.2zm-140.1-65.2c-32.7-0.1-59-24.4-59-54.4c0.1-30.1 26.5-54.3 59.1-54.3c32.7 0 59.1 24.4 59 54.4c0 30.1-26.4 54.3-59.1 54.3zm-307.4 127.7c0-30.2 26.2-54.3 59.1-54.2c32.9 0 59 24.5 59 54.4c0 30.3-26.6 54.3-59.1 54.3c-32.5-0.1-59-24.2-59-54.5zm4830.6-476.7c-32.8-0.1-59.2-24.5-59.2-54.6c0.1-30.2 26.6-54.5 59.3-54.4c32.8 0 59.2 24.4 59.2 54.5c0 30.2-26.6 54.5-59.3 54.5zm-368.2-63.7c0.1-61.1 53.9-110.5 120.7-110.4c66.5 0.1 120.2 49.6 120.1 110.8c-0.1 61.1-53.9 110.5-120.3 110.4c-66.9-0.1-120.9-49.9-120.5-110.8zm-79.3 126.2c0-30.3 26.2-54.3 59.1-54.3c32.9 0 59 24.5 59 54.4c-0.1 30.3-26.6 54.3-59.1 54.3c-32.9-0.1-59.1-24.5-59-54.4zm281.1 0.3c0-30.2 26.6-54.3 59.1-54.2c32.9 0 59 24.5 59 54.4c-0.1 30.3-26.6 54.3-59.1 54.3c-32.9-0.1-59.1-24.5-59-54.5zm-140.8 65.2c0-29.9 26.9-54.6 59.4-54.5c32.2 0 59.1 24.8 59 54.7c0 29.6-26.9 54.3-59.1 54.3c-32.5-0.1-59.4-24.8-59.3-54.5zm-329.7 53.6c-66.5-0.1-120.1-49.7-120.1-111c0.1-61.2 53.9-110.7 120.4-110.6c66.5 0.1 120.2 49.7 120.1 111c-0.1 61.2-53.9 110.7-120.4 110.6zm-140.3-182.7c-32.8-0.1-59.2-24.5-59.2-54.6c0.1-30.1 26.6-54.5 59.3-54.4c32.8 0 59.2 24.4 59.2 54.6c-0.1 30.1-26.6 54.4-59.3 54.4zm281.1 0.4c-32.8-0.1-59.2-24.5-59.2-54.6c0.1-30.2 26.6-54.5 59.3-54.4c32.8 0 59.2 24.4 59.2 54.5c-0.1 30.2-26.6 54.5-59.3 54.5zm-140.5-65.6c-32.7-0.1-59-24.4-59-54.4c0.1-30.1 26.5-54.3 59.1-54.3c32.7 0 59.1 24.4 59 54.4c0 30.1-26.5 54.3-59.1 54.3zm-508.8 1.5c0-61.1 53.8-110.5 120.7-110.4c66.4 0.1 120.1 49.6 120.1 110.8c-0.1 61.1-53.9 110.5-120.4 110.4c-66.8-0.1-120.9-49.9-120.4-110.8zm-79.4 126.2c0.1-30.3 26.6-54.3 59.1-54.3c32.9 0.1 59.1 24.5 59 54.4c0 30.3-26.5 54.3-59.1 54.3c-32.9-0.1-59-24.5-59-54.4zm280.8 0.4c0-30.3 26.2-54.3 59.1-54.3c32.9 0.1 59 24.5 59 54.4c0 30.3-26.6 54.3-59.1 54.3c-32.5-0.1-58.7-24.5-59-54.4zm-140.5 65.2c0.1-30 27-54.7 59.5-54.6c32.2 0 59 24.8 59 54.7c0 29.6-26.9 54.3-59.1 54.3c-32.9-0.1-59.4-24.8-59.4-54.4zm-329.6 53.5c-66.5-0.1-120.2-49.7-120.1-110.9c0.1-61.3 53.9-110.7 120.4-110.7c66.5 0.1 120.1 49.7 120.1 111c-0.1 61.3-53.9 110.7-120.4 110.6zm-140.4-182.7c-32.7 0-59.2-24.4-59.1-54.6c0-30.1 26.5-54.4 59.3-54.4c32.7 0 59.2 24.4 59.1 54.6c0 30.1-26.5 54.4-59.3 54.4zm281.2 0.4c-32.8-0.1-59.2-24.5-59.2-54.6c0-30.1 26.5-54.5 59.3-54.4c32.8 0 59.2 24.4 59.2 54.6c-0.1 30.1-26.6 54.4-59.3 54.4zm-140.5-65.6c-32.7 0-59.1-24.4-59-54.4c0-30.1 26.5-54.3 59.1-54.3c32.7 0.1 59 24.4 59 54.4c-0.1 30.1-26.5 54.3-59.1 54.3zm-509.2 1.6c0-61.2 53.8-110.6 120.7-110.5c66.5 0.1 120.1 49.6 120.1 110.8c-0.1 61.2-53.9 110.5-120.4 110.5c-66.8-0.1-120.5-50-120.4-110.8zm-79.4 126.1c0.1-30.3 26.3-54.3 59.1-54.3c32.9 0.1 59.1 24.5 59 54.5c0 30.2-26.5 54.3-59.1 54.2c-32.5 0-58.6-24.5-59-54.4zm281.2 0.4c0-30.3 26.5-54.3 59.1-54.3c32.9 0.1 59 24.5 59 54.4c-0.1 30.3-26.6 54.3-59.1 54.3c-32.6 0-58.7-24.5-59-54.4zm-140.8 65.2c0-29.9 26.9-54.6 59.4-54.6c32.2 0.1 59 24.8 59 54.8c0 29.6-26.9 54.2-59.1 54.2c-32.5 0-59-24.8-59.3-54.4zm-329.3 53.5c-66.5-0.1-120.2-49.6-120.1-110.9c0.1-61.3 53.9-110.7 120.4-110.6c66.4 0.1 120.1 49.7 120 110.9c-0.1 61.3-53.9 110.7-120.3 110.6zm-140.4-182.7c-32.8 0-59.2-24.4-59.2-54.6c0.1-30.1 26.6-54.4 59.4-54.4c32.7 0.1 59.1 24.5 59.1 54.6c0 30.1-26.5 54.5-59.3 54.4zm281.1 0.4c-32.7 0-59.2-24.4-59.1-54.6c0-30.1 26.5-54.4 59.3-54.4c32.7 0.1 59.2 24.5 59.1 54.6c0 30.1-26.5 54.5-59.3 54.4zm-140.5-65.6c-32.6 0-59-24.4-59-54.4c0.1-30 26.5-54.3 59.2-54.3c32.6 0.1 59 24.4 59 54.5c-0.1 30-26.5 54.3-59.2 54.2zm-509.2 1.6c0.1-61.2 53.9-110.6 120.7-110.5c66.5 0.1 120.2 49.7 120.2 110.8c-0.1 61.2-53.9 110.6-120.4 110.5c-66.8-0.1-120.5-50-120.5-110.8zm-79.3 126.1c0-30.2 26.6-54.3 59.1-54.2c32.9 0 59 24.4 59 54.4c0 30.2-26.6 54.3-59.1 54.2c-32.5 0-58.7-24.4-59-54.4zm281.1 0.4c0.1-30.2 26.6-54.3 59.1-54.2c32.9 0 59.1 24.4 59 54.4c0 30.2-26.5 54.3-59.1 54.2c-32.5 0-58.6-24.5-59-54.4zm-140.8 65.2c0.1-29.9 27-54.6 59.5-54.6c32.2 0.1 59 24.8 59 54.8c0 29.6-26.9 54.3-59.1 54.2c-32.6 0-59.1-24.8-59.4-54.4zm-329.3 53.6c-66.5-0.1-120.1-49.7-120.1-111c0.1-61.3 53.9-110.7 120.4-110.6c66.5 0.1 120.2 49.7 120.1 110.9c-0.1 61.3-53.9 110.8-120.4 110.7zm-140.3-182.8c-32.8 0-59.2-24.4-59.2-54.5c0.1-30.2 26.6-54.5 59.3-54.5c32.8 0.1 59.2 24.5 59.2 54.6c-0.1 30.2-26.6 54.5-59.3 54.4zm281.1 0.4c-32.8 0-59.2-24.4-59.2-54.5c0.1-30.2 26.6-54.5 59.3-54.5c32.8 0.1 59.2 24.5 59.2 54.6c0 30.2-26.6 54.5-59.3 54.4zm-140.5-65.6c-32.7 0-59-24.3-59-54.4c0.1-30 26.5-54.3 59.1-54.2c32.7 0 59.1 24.3 59 54.4c0 30-26.4 54.3-59.1 54.2zm-509.2 1.6c0.1-61.2 53.9-110.5 120.7-110.4c66.5 0 120.2 49.6 120.1 110.7c0 61.2-53.8 110.6-120.3 110.5c-66.8-0.1-120.5-49.9-120.5-110.8zm-79.3 126.1c0-30.2 26.2-54.3 59.1-54.2c32.9 0 59 24.5 59 54.4c0 30.3-26.6 54.3-59.1 54.3c-32.6-0.1-58.7-24.5-59-54.5zm281.1 0.4c0-30.2 26.6-54.3 59.1-54.2c32.9 0 59 24.5 59 54.4c0 30.3-26.6 54.3-59.1 54.2c-32.5 0-58.7-24.4-59-54.4zm-140.8 65.2c0-29.9 26.9-54.6 59.5-54.5c32.1 0 59 24.8 59 54.7c-0.1 29.6-27 54.3-59.2 54.2c-32.5 0-59-24.8-59.3-54.4zm-329.3 53.6c-66.5-0.1-120.2-49.7-120.1-111c0.1-61.2 53.9-110.7 120.4-110.6c66.5 0.1 120.2 49.7 120.1 111c-0.1 61.2-53.9 110.7-120.4 110.6zm-140.4-182.7c-32.7-0.1-59.2-24.5-59.1-54.6c0-30.2 26.5-54.5 59.3-54.4c32.7 0 59.2 24.4 59.1 54.5c0 30.2-26.5 54.5-59.3 54.5zm280.8 0.4c-32.8-0.1-59.2-24.5-59.2-54.6c0.1-30.2 26.6-54.5 59.4-54.4c32.7 0 59.1 24.4 59.1 54.5c0 30.2-26.5 54.5-59.3 54.5zm-140.1-65.6c-32.7-0.1-59.1-24.4-59-54.5c0-30 26.5-54.3 59.1-54.2c32.7 0 59 24.4 59 54.4c0 30.1-26.5 54.3-59.1 54.3zm-509.2 1.5c0-61.1 53.8-110.5 120.7-110.4c66.5 0.1 120.2 49.6 120.1 110.8c-0.1 61.1-53.9 110.5-120.3 110.4c-66.9-0.1-120.6-49.9-120.5-110.8zm-79.4 126.2c0.1-30.3 26.6-54.3 59.2-54.3c32.8 0.1 59 24.5 59 54.4c-0.1 30.3-26.6 54.3-59.2 54.3c-32.5-0.1-58.6-24.5-59-54.4zm281.2 0.4c0-30.3 26.5-54.3 59.1-54.3c32.9 0 59 24.5 59 54.4c-0.1 30.3-26.6 54.3-59.1 54.3c-32.6-0.1-59.1-24.5-59-54.4zm-140.8 65.2c0-30 26.9-54.7 59.4-54.6c32.2 0 59.1 24.8 59 54.7c0 29.6-26.9 54.3-59.1 54.3c-32.5-0.1-59.4-24.8-59.3-54.4zm-329.3 53.5c-66.5-0.1-120.2-49.7-120.1-110.9c0.1-61.3 53.9-110.8 120.4-110.7c66.4 0.1 120.1 49.7 120 111c0 61.3-53.9 110.7-120.3 110.6zm-140.4-182.7c-32.7-0.1-59.2-24.5-59.1-54.6c0-30.1 26.5-54.5 59.3-54.4c32.7 0 59.2 24.4 59.1 54.6c0 30.1-26.5 54.4-59.3 54.4zm280.8 0.4c-32.8-0.1-59.2-24.5-59.2-54.6c0.1-30.1 26.6-54.5 59.3-54.4c32.8 0 59.2 24.4 59.2 54.6c-0.1 30.1-26.6 54.4-59.3 54.4zm-140.2-65.6c-32.6-0.1-59-24.4-58.9-54.4c0-30.1 26.4-54.3 59.1-54.3c32.6 0.1 59 24.4 59 54.4c-0.1 30.1-26.5 54.3-59.2 54.3zm-307.4 128.1c0.1-30.3 26.3-54.3 59.1-54.3c32.9 0.1 59.1 24.5 59 54.4c0 30.3-26.5 54.3-59.1 54.3c-32.5-0.1-59-24.5-59-54.4zm4830.6-477.1c-32.7-0.1-59.2-24.4-59.1-54.5c0-30 26.5-54.2 59.3-54.2c32.7 0 59.2 24.4 59.1 54.4c0 30.1-26.5 54.3-59.3 54.3zm-368.2-63.3c0.1-61.5 53.9-110.9 120.7-110.8c66.5 0.1 120.2 49.6 120.1 111.1c0 61.2-53.8 110.5-120.3 110.4c-66.8 0-120.9-49.9-120.5-110.7zm-79.3 126.1c0-29.9 26.2-54.6 59.1-54.6c32.9 0.1 59 24.8 59 54.8c0 30.2-26.6 54.3-59.1 54.2c-32.9 0-59-24.5-59-54.4zm281.1 0.4c0-30 26.6-54.6 59.1-54.6c32.9 0 59 24.8 59 54.7c0 30.3-26.6 54.3-59.1 54.3c-32.9 0-59-24.5-59-54.4zm-140.8 64.5c0-30.2 26.9-54.3 59.5-54.2c32.1 0 59 24.5 59 54.4c-0.1 30.3-27 54.3-59.1 54.2c-32.6 0-59.4-24.1-59.4-54.4zm-329.7 53.9c-66.4-0.1-120.1-49.6-120-110.8c0.1-61.2 53.9-110.5 120.4-110.4c66.4 0.1 120.1 49.6 120 110.8c-0.1 61.1-53.9 110.5-120.4 110.4zm-140.3-182.7c-32.8-0.1-59.2-24.4-59.2-54.4c0.1-30.1 26.6-54.3 59.3-54.3c32.8 0.1 59.2 24.4 59.2 54.4c0 30.1-26.5 54.3-59.3 54.3zm281.1 0.4c-32.7-0.1-59.2-24.4-59.1-54.4c0-30.1 26.5-54.3 59.3-54.3c32.7 0.1 59.2 24.4 59.1 54.4c0 30.1-26.5 54.3-59.3 54.3zm-140.5-65.3c-32.6 0-59-24.4-59-54.6c0.1-30.1 26.5-54.4 59.2-54.4c32.6 0.1 59 24.5 59 54.6c-0.1 30.1-26.5 54.5-59.2 54.4zm-508.8 1.6c0.1-61.5 53.9-110.9 120.7-110.8c66.5 0.1 120.2 49.6 120.1 111.1c-0.1 61.2-53.9 110.6-120.3 110.5c-66.9-0.1-120.9-50-120.5-110.8zm-79.3 126.1c0-29.9 26.5-54.6 59.1-54.6c32.9 0.1 59 24.8 59 54.8c-0.1 30.2-26.6 54.3-59.1 54.2c-32.9 0-59.1-24.5-59-54.4zm280.7 0.4c0.1-29.9 26.2-54.6 59.1-54.6c32.9 0.1 59.1 24.8 59 54.8c0 30.2-26.5 54.3-59.1 54.2c-32.5 0-58.7-24.5-59-54.4zm-140.4 64.6c0-30.3 26.9-54.3 59.4-54.3c32.2 0 59.1 24.5 59 54.4c0 30.3-26.9 54.3-59.1 54.3c-32.9-0.1-59.4-24.2-59.3-54.4zm-329.7 53.8c-66.5-0.1-120.1-49.6-120.1-110.8c0.1-61.1 53.9-110.5 120.4-110.4c66.5 0.1 120.2 49.6 120.1 110.8c-0.1 61.1-53.9 110.5-120.4 110.4zm-140.3-182.7c-32.8 0-59.2-24.4-59.2-54.4c0.1-30.1 26.6-54.3 59.3-54.3c32.8 0.1 59.2 24.4 59.2 54.5c-0.1 30-26.6 54.3-59.3 54.2zm281.1 0.4c-32.8 0-59.2-24.4-59.2-54.4c0.1-30.1 26.6-54.3 59.3-54.3c32.8 0.1 59.2 24.4 59.2 54.4c-0.1 30.1-26.6 54.3-59.3 54.3zm-140.5-65.3c-32.7 0-59-24.4-59-54.5c0.1-30.2 26.5-54.5 59.1-54.5c32.7 0.1 59.1 24.5 59 54.6c0 30.2-26.5 54.5-59.1 54.4zm-509.2 1.6c0.1-61.5 53.9-110.9 120.7-110.8c66.5 0.1 120.2 49.6 120.1 111.1c0 61.2-53.8 110.6-120.3 110.5c-66.9-0.1-120.5-50-120.5-110.8zm-79.3 126.1c0-29.9 26.2-54.6 59.1-54.5c32.9 0 59 24.8 59 54.7c-0.1 30.3-26.6 54.3-59.1 54.3c-32.6-0.1-58.7-24.5-59-54.5zm281.1 0.4c0-29.9 26.6-54.6 59.1-54.6c32.9 0.1 59 24.9 59 54.8c0 30.2-26.6 54.3-59.1 54.2c-32.5 0-58.7-24.4-59-54.4zm-140.8 64.6c0-30.3 26.9-54.3 59.5-54.3c32.1 0.1 59 24.5 58.9 54.4c0 30.3-26.9 54.3-59.1 54.3c-32.5-0.1-59-24.2-59.3-54.4zm-329.3 53.9c-66.5-0.1-120.2-49.7-120.1-110.8c0.1-61.2 53.9-110.6 120.4-110.5c66.5 0.1 120.2 49.6 120.1 110.8c-0.1 61.2-53.9 110.5-120.4 110.5zm-140.4-182.8c-32.7 0-59.2-24.3-59.1-54.4c0-30 26.5-54.3 59.3-54.2c32.7 0 59.2 24.3 59.1 54.4c0 30-26.5 54.3-59.3 54.2zm281.2 0.4c-32.8 0-59.2-24.3-59.2-54.4c0-30 26.6-54.3 59.3-54.2c32.8 0 59.2 24.3 59.2 54.4c-0.1 30-26.6 54.3-59.3 54.2zm-140.5-65.2c-32.7-0.1-59.1-24.5-59-54.6c0-30.2 26.5-54.5 59.1-54.4c32.7 0 59 24.4 59 54.5c-0.1 30.2-26.5 54.5-59.1 54.5zm-509.2 1.5c0-61.5 53.8-110.8 120.7-110.8c66.5 0.1 120.2 49.7 120.1 111.2c-0.1 61.1-53.9 110.5-120.4 110.4c-66.8-0.1-120.5-49.9-120.4-110.8zm-79.4 126.2c0.1-30 26.6-54.7 59.2-54.6c32.8 0 59 24.8 58.9 54.7c0 30.3-26.5 54.3-59.1 54.3c-32.5-0.1-58.6-24.5-59-54.4zm281.2 0.3c0-29.9 26.5-54.6 59.1-54.5c32.9 0 59 24.8 59 54.7c-0.1 30.3-26.6 54.3-59.1 54.3c-32.6-0.1-58.7-24.5-59-54.5zm-140.8 64.6c0-30.3 26.9-54.3 59.4-54.3c32.2 0.1 59 24.5 59 54.5c0 30.2-26.9 54.3-59.1 54.2c-32.5 0-59-24.1-59.3-54.4zm-329.3 53.9c-66.5-0.1-120.2-49.6-120.1-110.8c0.1-61.2 53.9-110.6 120.4-110.5c66.4 0.1 120.1 49.6 120 110.8c0 61.2-53.9 110.6-120.3 110.5zm-140.4-182.7c-32.7-0.1-59.2-24.4-59.2-54.5c0.1-30 26.6-54.3 59.4-54.2c32.7 0 59.2 24.4 59.1 54.4c0 30-26.5 54.3-59.3 54.3zm281.1 0.3c-32.7 0-59.2-24.3-59.1-54.4c0-30 26.5-54.3 59.3-54.2c32.7 0 59.2 24.3 59.1 54.4c0 30-26.5 54.3-59.3 54.2zm-140.5-65.2c-32.6-0.1-59-24.5-58.9-54.6c0-30.1 26.4-54.5 59.1-54.4c32.6 0 59 24.4 59 54.6c-0.1 30.1-26.5 54.4-59.2 54.4zm-509.1 1.5c0-61.4 53.8-110.8 120.6-110.7c66.5 0.1 120.2 49.6 120.2 111.1c-0.1 61.2-53.9 110.5-120.4 110.4c-66.8-0.1-120.5-49.9-120.4-110.8zm-79.4 126.2c0-30 26.2-54.6 59.1-54.6c32.9 0 59 24.8 59 54.7c0 30.3-26.6 54.3-59.1 54.3c-32.5 0-58.7-24.5-59-54.4zm281.1 0.4c0.1-30 26.6-54.7 59.1-54.6c32.9 0 59.1 24.8 59 54.7c0 30.3-26.5 54.3-59.1 54.3c-32.5-0.1-58.6-24.5-59-54.4zm-140.8 64.5c0.1-30.2 27-54.3 59.5-54.2c32.2 0 59 24.5 59 54.4c0 30.2-26.9 54.3-59.1 54.2c-32.6 0-59-24.1-59.4-54.4zm-329.3 53.9c-66.5-0.1-120.1-49.6-120.1-110.8c0.1-61.2 53.9-110.5 120.4-110.4c66.5 0 120.2 49.6 120.1 110.7c-0.1 61.2-53.9 110.6-120.4 110.5zm-140.3-182.7c-32.8-0.1-59.2-24.4-59.2-54.4c0.1-30.1 26.6-54.3 59.3-54.3c32.8 0.1 59.2 24.4 59.2 54.4c-0.1 30.1-26.6 54.3-59.3 54.3zm280.7 0.4c-32.7-0.1-59.2-24.4-59.1-54.5c0-30 26.5-54.2 59.3-54.2c32.7 0 59.2 24.4 59.1 54.4c0 30.1-26.5 54.3-59.3 54.3zm-140.1-65.3c-32.7 0-59-24.4-59-54.6c0.1-30.1 26.5-54.4 59.2-54.4c32.6 0.1 59 24.4 58.9 54.6c0 30.1-26.4 54.4-59.1 54.4zm-509.2 1.6c0.1-61.5 53.9-110.9 120.7-110.8c66.5 0.1 120.2 49.6 120.1 111.1c0 61.2-53.8 110.6-120.3 110.5c-66.8-0.1-120.5-50-120.5-110.8zm-79.3 126.1c0-29.9 26.6-54.6 59.1-54.6c32.9 0.1 59 24.8 59 54.8c0 30.2-26.6 54.3-59.1 54.2c-32.6 0-58.7-24.5-59-54.4zm281.1 0.4c0-29.9 26.6-54.6 59.1-54.6c32.9 0.1 59 24.8 59 54.8c0 30.2-26.6 54.3-59.1 54.2c-32.5 0-59-24.5-59-54.4zm-140.8 64.5c0-30.2 26.9-54.3 59.5-54.2c32.1 0 59 24.5 59 54.4c-0.1 30.3-27 54.3-59.2 54.3c-32.5-0.1-59.3-24.2-59.3-54.5zm-329.3 53.9c-66.5-0.1-120.2-49.6-120.1-110.8c0.1-61.1 53.9-110.5 120.4-110.4c66.5 0.1 120.2 49.6 120.1 110.8c-0.1 61.1-53.9 110.5-120.4 110.4zm-140.4-182.7c-32.7 0-59.2-24.4-59.1-54.4c0-30.1 26.5-54.3 59.3-54.3c32.7 0.1 59.2 24.4 59.1 54.4c0 30.1-26.5 54.3-59.3 54.3zm280.8 0.4c-32.7-0.1-59.2-24.4-59.1-54.4c0-30.1 26.5-54.3 59.3-54.3c32.7 0.1 59.2 24.4 59.1 54.4c0 30.1-26.5 54.3-59.3 54.3zm-140.1-65.3c-32.7 0-59.1-24.4-59-54.6c0-30.1 26.5-54.4 59.1-54.4c32.7 0.1 59 24.5 59 54.6c0 30.1-26.5 54.5-59.1 54.4zm-307.4 128.1c0-29.9 26.2-54.6 59.1-54.6c32.9 0.1 59 24.8 59 54.8c-0.1 30.2-26.6 54.3-59.1 54.2c-32.6 0-59.1-24.5-59-54.4zm4830.6-477.1c-32.8 0-59.2-24.4-59.2-54.4c0.1-30.1 26.6-54.3 59.3-54.3c32.8 0.1 59.2 24.4 59.2 54.5c-0.1 30-26.6 54.2-59.3 54.2zm-368.2-64c0-61.1 53.8-110.5 120.7-110.4c66.4 0.1 120.1 49.6 120.1 110.8c-0.1 61.5-53.9 110.9-120.4 110.8c-66.8-0.1-120.9-49.7-120.4-111.2zm-79.4 126.2c0.1-30.3 26.3-54.3 59.1-54.3c32.9 0.1 59.1 24.5 59 54.4c0 30.3-26.5 54.3-59.1 54.3c-32.9-0.1-59-24.2-59-54.4zm281.1 0.4c0.1-30.3 26.6-54.3 59.2-54.3c32.8 0.1 59 24.5 59 54.4c-0.1 30.3-26.6 54.3-59.2 54.3c-32.8-0.1-59-24.2-59-54.4zm-140.8 65.2c0.1-30.3 27-54.3 59.5-54.3c32.2 0.1 59 24.2 59 54.4c0 30.3-26.9 54.3-59.1 54.3c-32.5-0.1-59.4-24.2-59.4-54.4zm-329.6 53.8c-66.5 0-120.2-49.6-120.1-110.7c0.1-61.2 53.9-110.6 120.4-110.5c66.5 0.1 120.1 49.6 120.1 110.8c-0.1 61.2-53.9 110.5-120.4 110.4zm-140.4-182.7c-32.7 0-59.2-24.3-59.1-54.4c0-30 26.5-54.3 59.3-54.2c32.7 0 59.2 24.3 59.1 54.4c0 30-26.5 54.3-59.3 54.2zm281.2 0.4c-32.8 0-59.2-24.4-59.2-54.4c0-30 26.5-54.3 59.3-54.3c32.8 0.1 59.2 24.4 59.2 54.5c-0.1 30-26.6 54.3-59.3 54.2zm-140.5-65.6c-32.7 0-59.1-24.3-59-54.4c0-30 26.5-54.3 59.1-54.2c32.7 0 59 24.3 59 54.4c-0.1 30-26.5 54.3-59.1 54.2zm-508.9 1.3c0.1-61.2 53.9-110.6 120.7-110.5c66.5 0.1 120.2 49.6 120.1 110.8c0 61.5-53.8 110.9-120.3 110.8c-66.8-0.1-120.9-49.6-120.5-111.1zm-79.3 126.1c0-30.3 26.6-54.3 59.1-54.3c32.9 0.1 59 24.5 59 54.5c0 30.2-26.6 54.3-59.1 54.2c-32.9 0-59-24.1-59-54.4zm280.8 0.4c0-30.3 26.2-54.3 59.1-54.3c32.9 0.1 59 24.5 59 54.5c-0.1 30.2-26.6 54.3-59.1 54.2c-32.6 0-58.7-24.2-59-54.4zm-140.5 65.2c0-30.3 26.9-54.3 59.5-54.3c32.2 0.1 59 24.2 59 54.5c-0.1 30.2-27 54.3-59.1 54.2c-32.9 0-59.4-24.2-59.4-54.4zm-329.6 53.9c-66.5-0.1-120.2-49.6-120.1-110.8c0.1-61.2 53.9-110.6 120.4-110.5c66.4 0.1 120.1 49.6 120 110.8c-0.1 61.2-53.9 110.6-120.3 110.5zm-140.4-182.8c-32.8 0-59.2-24.3-59.2-54.4c0.1-30 26.6-54.3 59.4-54.2c32.7 0 59.1 24.3 59.1 54.4c0 30-26.5 54.3-59.3 54.2zm281.1 0.4c-32.7 0-59.2-24.3-59.1-54.4c0-30 26.5-54.3 59.3-54.2c32.7 0 59.2 24.3 59.1 54.4c0 30-26.5 54.3-59.3 54.2zm-140.5-65.6c-32.6 0-59-24.3-58.9-54.4c0-30 26.4-54.3 59.1-54.2c32.6 0 59 24.3 59 54.4c-0.1 30-26.5 54.3-59.2 54.2zm-509.2 1.3c0.1-61.2 53.9-110.6 120.7-110.5c66.5 0.1 120.2 49.7 120.2 110.8c-0.1 61.5-53.9 110.9-120.4 110.8c-66.8-0.1-120.5-49.6-120.5-111.1zm-79.3 126.1c0-30.2 26.2-54.3 59.1-54.2c32.9 0 59 24.5 59 54.4c0 30.2-26.6 54.3-59.1 54.2c-32.5 0-58.7-24.1-59-54.4zm281.1 0.4c0.1-30.2 26.6-54.3 59.1-54.2c32.9 0 59.1 24.4 59 54.4c0 30.2-26.5 54.3-59.1 54.2c-32.5 0-58.6-24.1-59-54.4zm-140.8 65.2c0.1-30.2 27-54.3 59.5-54.2c32.2 0 59 24.1 59 54.4c0 30.2-26.9 54.3-59.1 54.2c-32.6 0-59.4-24.1-59.4-54.4zm-329.3 53.9c-66.5-0.1-120.1-49.6-120.1-110.8c0.1-61.2 53.9-110.5 120.4-110.5c66.5 0.1 120.2 49.7 120.1 110.8c-0.1 61.2-53.9 110.6-120.4 110.5zm-140.3-182.7c-32.8-0.1-59.2-24.4-59.2-54.4c0.1-30.1 26.6-54.3 59.3-54.3c32.8 0 59.2 24.4 59.2 54.4c-0.1 30.1-26.6 54.3-59.3 54.3zm281.1 0.4c-32.8-0.1-59.2-24.4-59.2-54.5c0.1-30 26.6-54.3 59.3-54.2c32.8 0 59.2 24.4 59.2 54.4c0 30.1-26.6 54.3-59.3 54.3zm-140.5-65.6c-32.7-0.1-59-24.4-59-54.4c0.1-30.1 26.5-54.3 59.1-54.3c32.7 0 59.1 24.4 59 54.4c0 30.1-26.4 54.3-59.1 54.3zm-509.2 1.2c0.1-61.2 53.9-110.5 120.7-110.4c66.5 0.1 120.2 49.6 120.1 110.7c0 61.5-53.8 110.9-120.3 110.8c-66.8-0.1-120.5-49.6-120.5-111.1zm-79.3 126.1c0-30.2 26.6-54.3 59.1-54.2c32.9 0 59 24.5 59 54.4c0 30.3-26.6 54.3-59.1 54.3c-32.6-0.1-58.7-24.2-59-54.5zm281.1 0.4c0-30.2 26.6-54.3 59.1-54.2c32.9 0 59 24.5 59 54.4c0 30.3-26.6 54.3-59.1 54.2c-32.5 0-58.7-24.1-59-54.4zm-140.8 65.2c0-30.2 26.9-54.3 59.5-54.2c32.1 0 59 24.1 59 54.4c-0.1 30.3-27 54.3-59.2 54.3c-32.5-0.1-59.3-24.2-59.3-54.5zm-329.3 53.9c-66.5-0.1-120.2-49.6-120.1-110.8c0.1-61.1 53.9-110.5 120.4-110.4c66.5 0.1 120.2 49.6 120.1 110.8c-0.1 61.1-53.9 110.5-120.4 110.4zm-140.4-182.7c-32.7-0.1-59.2-24.4-59.1-54.4c0-30.1 26.5-54.3 59.3-54.3c32.7 0.1 59.2 24.4 59.1 54.4c0 30.1-26.5 54.3-59.3 54.3zm281.2 0.4c-32.8-0.1-59.2-24.4-59.2-54.4c0-30.1 26.6-54.3 59.3-54.3c32.8 0.1 59.2 24.4 59.2 54.4c-0.1 30.1-26.6 54.3-59.3 54.3zm-140.5-65.6c-32.7-0.1-59.1-24.4-59-54.4c0-30.1 26.5-54.3 59.1-54.3c32.7 0.1 59 24.4 59 54.4c0 30.1-26.5 54.3-59.1 54.3zm-509.2 1.2c0.1-61.1 53.8-110.5 120.7-110.4c66.5 0.1 120.2 49.6 120.1 110.8c-0.1 61.5-53.9 110.8-120.3 110.8c-66.9-0.1-120.6-49.7-120.5-111.2zm-79.4 126.2c0.1-30.3 26.3-54.3 59.2-54.3c32.8 0.1 59 24.5 59 54.4c-0.1 30.3-26.6 54.3-59.2 54.3c-32.5-0.1-58.6-24.2-59-54.4zm281.2 0.4c0-30.3 26.5-54.3 59.1-54.3c32.9 0 59 24.5 59 54.4c-0.1 30.3-26.6 54.3-59.1 54.3c-32.6-0.1-58.7-24.2-59-54.4zm-140.8 65.2c0-30.3 26.9-54.3 59.4-54.3c32.2 0 59.1 24.2 59 54.4c0 30.3-26.9 54.3-59.1 54.3c-32.5-0.1-59.4-24.2-59.3-54.4zm-329.3 53.8c-66.5-0.1-120.2-49.6-120.1-110.8c0.1-61.1 53.9-110.5 120.4-110.4c66.5 0.1 120.1 49.6 120 110.8c0 61.2-53.9 110.5-120.3 110.4zm-140.4-182.7c-32.7 0-59.2-24.4-59.1-54.4c0-30 26.5-54.3 59.3-54.3c32.7 0.1 59.2 24.4 59.1 54.5c0 30-26.5 54.3-59.3 54.2zm280.8 0.4c-32.8 0-59.2-24.4-59.2-54.4c0.1-30.1 26.6-54.3 59.3-54.3c32.8 0.1 59.2 24.4 59.2 54.5c-0.1 30-26.6 54.2-59.3 54.2zm-140.2-65.6c-32.6 0-59-24.4-58.9-54.4c0-30.1 26.4-54.3 59.1-54.3c32.6 0.1 59 24.4 59 54.5c-0.1 30-26.5 54.3-59.2 54.2zm-509.1 1.3c0-61.2 53.8-110.6 120.7-110.5c66.4 0.1 120.1 49.6 120.1 110.8c-0.1 61.5-53.9 110.9-120.4 110.8c-66.8-0.1-120.5-49.6-120.4-111.1zm-79.4 126.1c0-30.3 26.6-54.3 59.1-54.3c32.9 0.1 59.1 24.5 59 54.5c0 30.2-26.6 54.2-59.1 54.2c-32.5 0-58.7-24.2-59-54.4zm281.1 0.4c0.1-30.3 26.6-54.3 59.1-54.3c32.9 0.1 59.1 24.5 59 54.4c0 30.3-26.5 54.3-59.1 54.3c-32.5-0.1-59-24.2-59-54.4zm-140.8 65.2c0.1-30.3 27-54.3 59.5-54.3c32.2 0.1 59 24.2 59 54.4c0 30.3-26.9 54.3-59.1 54.3c-32.6 0-59.4-24.2-59.4-54.4zm-329.3 53.9c-66.5-0.1-120.1-49.7-120-110.8c0-61.2 53.8-110.6 120.3-110.5c66.5 0.1 120.2 49.6 120.1 110.8c-0.1 61.2-53.9 110.6-120.4 110.5zm-140.3-182.8c-32.8 0-59.2-24.3-59.2-54.4c0.1-30 26.6-54.3 59.3-54.2c32.8 0 59.2 24.3 59.2 54.4c-0.1 30-26.6 54.3-59.3 54.2zm280.7 0.4c-32.7 0-59.2-24.3-59.1-54.4c0-30 26.5-54.3 59.3-54.2c32.7 0 59.2 24.3 59.1 54.4c0 30-26.5 54.3-59.3 54.2zm-140.1-65.6c-32.7 0-59-24.3-59-54.4c0.1-30 26.5-54.3 59.2-54.2c32.6 0 59 24.3 58.9 54.4c0 30-26.4 54.3-59.1 54.2zm-307.4 128.1c0-29.9 26.2-54.6 59.1-54.6c32.9 0.1 59 24.5 59 54.5c0 30.2-26.6 54.3-59.1 54.2c-32.5 0-59-24.1-59-54.1zm4830.6-476.8c-32.8 0-59.2-24.3-59.2-54.4c0.1-30 26.6-54.3 59.4-54.2c32.7 0 59.1 24.3 59.1 54.4c0 30-26.5 54.3-59.3 54.2zm-447.5 62.2c0-30.2 26.2-54.3 59.1-54.2c32.9 0 59 24.1 59 54.4c-0.1 30.2-26.6 54.3-59.1 54.2c-32.9 0-59.1-24.1-59-54.4zm281.1 0.4c0-30.3 26.6-54.3 59.1-54.2c32.9 0 59 24.1 59 54.4c0 30.2-26.6 54.3-59.1 54.2c-32.9 0-59.1-24.1-59-54.4zm-140.8 65.2c0-30.3 26.9-54.3 59.4-54.2c32.2 0 59.1 24.4 59 54.4c0 30.2-26.9 54.3-59.1 54.2c-32.5 0-59.4-24.5-59.3-54.4zm-329.7 53.6c-66.5-0.1-120.1-49.7-120.1-111c0.1-61.3 53.9-110.7 120.4-110.6c66.5 0.1 120.2 49.7 120.1 110.9c-0.1 61.3-53.9 110.8-120.4 110.7zm-140.3-182.4c-32.8-0.1-59.2-24.4-59.2-54.5c0.1-30 26.6-54.3 59.3-54.2c32.8 0 59.2 24.4 59.2 54.4c-0.1 30.1-26.6 54.3-59.3 54.3zm281.1 0.4c-32.8-0.1-59.2-24.4-59.2-54.5c0.1-30 26.6-54.3 59.3-54.2c32.8 0 59.2 24.4 59.2 54.4c0 30-26.6 54.3-59.3 54.3zm-728.7 61.7c0.1-30.2 26.6-54.3 59.1-54.2c32.9 0 59.1 24.1 59 54.4c0 30.3-26.5 54.3-59.1 54.3c-32.9-0.1-59-24.2-59-54.5zm280.8 0.4c0-30.2 26.2-54.3 59.1-54.2c32.9 0 59 24.1 59 54.4c0 30.2-26.6 54.3-59.1 54.2c-32.5 0-59-24.1-59-54.4zm-140.5 65.2c0.1-30.2 27-54.3 59.5-54.2c32.2 0 59 24.5 59 54.4c0 30.3-26.9 54.3-59.1 54.2c-32.9 0-59.4-24.4-59.4-54.4zm-329.6 53.6c-66.5-0.1-120.2-49.7-120.1-111c0.1-61.2 53.9-110.7 120.4-110.6c66.5 0.1 120.2 49.7 120.1 111c-0.1 61.2-53.9 110.7-120.4 110.6zm-140.4-182.4c-32.7-0.1-59.2-24.4-59.1-54.4c0-30.1 26.5-54.3 59.3-54.3c32.7 0.1 59.2 24.4 59.1 54.4c0 30.1-26.5 54.3-59.3 54.3zm281.2 0.4c-32.8-0.1-59.2-24.4-59.2-54.4c0-30.1 26.6-54.3 59.3-54.3c32.8 0.1 59.2 24.4 59.2 54.4c-0.1 30.1-26.6 54.3-59.3 54.3zm-729.1 61.8c0.1-30.3 26.3-54.3 59.2-54.3c32.8 0.1 59 24.2 59 54.4c-0.1 30.3-26.6 54.3-59.2 54.3c-32.5-0.1-59-24.2-59-54.4zm281.2 0.3c0-30.2 26.5-54.2 59.1-54.2c32.9 0 59 24.2 59 54.4c-0.1 30.3-26.6 54.3-59.1 54.3c-32.6-0.1-59.1-24.2-59-54.5zm-140.8 65.3c0-30.3 26.9-54.3 59.4-54.3c32.2 0 59.1 24.5 59 54.4c0 30.3-26.9 54.3-59.1 54.3c-32.5-0.1-59-24.5-59.3-54.4zm-329.3 53.5c-66.5-0.1-120.2-49.7-120.1-110.9c0.1-61.3 53.9-110.8 120.4-110.7c66.4 0.1 120.1 49.7 120 111c0 61.2-53.9 110.7-120.3 110.6zm-140.4-182.4c-32.7 0-59.2-24.4-59.1-54.4c0-30.1 26.5-54.3 59.3-54.3c32.7 0.1 59.2 24.4 59.1 54.5c0 30-26.5 54.3-59.3 54.2zm281.1 0.4c-32.7 0-59.2-24.4-59.1-54.4c0-30.1 26.5-54.3 59.3-54.3c32.7 0.1 59.2 24.4 59.1 54.4c0 30.1-26.5 54.3-59.3 54.3zm-729 61.8c0-30.3 26.6-54.3 59.1-54.3c32.9 0.1 59.1 24.2 59 54.4c0 30.3-26.6 54.3-59.1 54.3c-32.5 0-59-24.2-59-54.4zm281.1 0.4c0.1-30.3 26.6-54.3 59.1-54.3c32.9 0.1 59.1 24.2 59 54.4c0 30.3-26.5 54.3-59.1 54.3c-32.5-0.1-59-24.2-59-54.4zm-140.8 65.2c0.1-30.3 27-54.3 59.5-54.3c32.2 0.1 59 24.5 59 54.4c0 30.3-26.9 54.3-59.1 54.3c-32.6-0.1-59-24.5-59.4-54.4zm-329.3 53.5c-66.5-0.1-120.1-49.7-120-110.9c0-61.3 53.8-110.7 120.3-110.6c66.5 0 120.2 49.6 120.1 110.9c-0.1 61.3-53.9 110.7-120.4 110.6zm-140.3-182.4c-32.8 0-59.2-24.3-59.2-54.4c0.1-30 26.6-54.3 59.3-54.2c32.8 0 59.2 24.3 59.2 54.4c-0.1 30-26.6 54.3-59.3 54.2zm281.1 0.4c-32.8 0-59.2-24.3-59.2-54.4c0.1-30 26.6-54.3 59.3-54.2c32.8 0 59.2 24.3 59.2 54.4c0 30-26.6 54.3-59.3 54.2zm-729 61.8c0-30.3 26.2-54.3 59.1-54.2c32.9 0 59 24.1 59 54.4c0 30.2-26.6 54.3-59.1 54.2c-32.6 0-59-24.1-59-54.4zm281.1 0.4c0-30.3 26.6-54.3 59.1-54.3c32.9 0.1 59 24.2 59 54.5c0 30.2-26.6 54.3-59.1 54.2c-32.5 0-59-24.1-59-54.4zm-140.8 65.2c0-30.3 26.9-54.3 59.5-54.3c32.1 0.1 59 24.5 59 54.5c-0.1 30.2-27 54.3-59.2 54.2c-32.5 0-59-24.5-59.3-54.4zm-329.3 53.5c-66.5 0-120.2-49.6-120.1-110.9c0.1-61.3 53.9-110.7 120.4-110.6c66.5 0.1 120.2 49.7 120.1 110.9c-0.1 61.3-53.9 110.7-120.4 110.6zm-140.4-182.3c-32.7-0.1-59.2-24.4-59.1-54.5c0-30 26.5-54.3 59.3-54.2c32.7 0 59.2 24.4 59.1 54.4c0 30-26.5 54.3-59.3 54.3zm280.8 0.3c-32.7 0-59.2-24.3-59.1-54.4c0-30 26.5-54.3 59.3-54.2c32.7 0 59.2 24.3 59.1 54.4c0 30-26.5 54.3-59.3 54.2zm-728.6 61.8c0-30.2 26.5-54.3 59.1-54.2c32.8 0 59 24.1 59 54.4c-0.1 30.2-26.6 54.3-59.2 54.2c-32.5 0-59-24.1-58.9-54.4zm281.1 0.4c0-30.2 26.5-54.3 59.1-54.2c32.9 0 59 24.1 59 54.4c-0.1 30.2-26.6 54.3-59.1 54.2c-32.6 0-59.1-24.1-59-54.4zm-140.8 65.2c0-30.2 26.9-54.3 59.4-54.2c32.2 0 59.1 24.4 59 54.4c0 30.2-26.9 54.3-59.1 54.2c-32.5 0-59.4-24.4-59.3-54.4zm-329.3 53.6c-66.5-0.1-120.2-49.7-120.1-111c0.1-61.2 53.9-110.7 120.4-110.6c66.5 0.1 120.1 49.7 120 111c0 61.2-53.9 110.7-120.3 110.6zm-140.4-182.4c-32.7-0.1-59.2-24.4-59.1-54.4c0-30.1 26.5-54.3 59.3-54.3c32.7 0.1 59.2 24.4 59.1 54.4c0 30.1-26.5 54.3-59.3 54.3zm280.8 0.4c-32.8-0.1-59.2-24.4-59.2-54.5c0.1-30 26.6-54.3 59.3-54.2c32.8 0 59.2 24.4 59.2 54.4c-0.1 30.1-26.6 54.3-59.3 54.3zm-447.6 62.5c0.1-30.3 25.9-54.3 58.8-54.3c32.9 0.1 59 24.5 59 54.4c0 30-26.2 54-58.8 54c-32.5-0.1-59-23.9-59-54.1z" />
	</g>
	<path id="&lt;Path&gt;" class="s2" d="m724 589.3c-152.7 0-276.2-113.5-276.2-253.9c0-140.5 123.5-254 276.2-254c152.7 0 276.2 113.5 276.2 254c0 140.4-123.5 253.9-276.2 253.9z" />
	<path id="&lt;Path&gt;" class="s3" d="m724.1 81.4c16.3 0 32.6 1.2 48.4 3.7c-230.9 6.7-302.9 152.4-324.7 259.1q0-4.5 0-9c0-140.1 123.6-253.8 276.3-253.8z" />
	<path id="&lt;Compound Path&gt;" class="s4" d="m593.5 483c-8.3 0-15.1-6.2-15.1-13.8c0-7.6 6.8-13.9 15.1-13.9h261c8.3 0 15.1 6.3 15.1 13.9c0 7.6-6.8 13.8-15.1 13.8zm261-295.3c8.3 0 15.1 6.2 15.1 13.8c0 7.6-6.8 13.9-15.1 13.9h-261c-8.3 0-15-6.3-15-13.9c0-7.6 6.7-13.8 15-13.8z" />
	<path id="&lt;Path&gt;" class="s3" d="m579.7 464.1c2.3-5.1 7.5-8.8 13.8-8.8h261c6.3 0 11.8 3.7 14.1 8.8z" />
	<path id="&lt;Path&gt;" class="s3" d="m868.1 195.8h-288.2c2.3-4.9 7.6-8.1 13.6-8.1h261c6 0 11.3 3.2 13.6 8.1z" />
	<path id="&lt;Compound Path&gt;" class="s5" d="m848.2 176.6h-248.4l14.5-8c33.1-18.5 71-28.1 109.8-28.1c38.6 0 76.5 9.6 109.6 28.1zm-256.5 98.6l-3.8-3.2c-10-8.5-23.3-13.1-36.8-13.1c-4.8 0-9.8 0.4-14.6 1.6l-9.8 2.5l4.3-8.5c7.8-15.7 17.8-30.4 29.8-43.8l5.1-5.3l3 6.4c4.2 8.1 12.8 13.6 22.5 14.3l4.3 0.5v40.8c0 0.2 0.2 0.5 0.2 0.7l0.6 3.2l3.5 0.9c0.5 0 0.7 0.3 1.2 0.3c3 0 5.5-2.3 5.5-5.1v-41h16.8v41c0 2.8 2.5 5.1 5.5 5.1c3.1 0 5.6-2.3 5.6-5.1v-41h16.8v41c0 2.8 2.5 5.1 5.5 5.1c3 0 5.5-2.3 5.5-5.1v-41h16.8v41c0 2.8 2.5 5.1 5.5 5.1c3 0 5.5-2.3 5.5-5.1v-41h16.8v41c0 2.8 2.5 5.1 5.5 5.1c3.1 0 5.6-2.3 5.6-5.1v-41h136.4c10.5 0 20-5.8 24.5-14.6l3.1-6.4l5 5.3c12 13.4 22 28.1 29.8 43.8l4.3 8.5l-9.8-2.5c-4.8-1.2-9.5-1.6-14.6-1.6c-24.3 0-46.1 14.7-52.1 36.6l-1 3.2h-239.5l-1-3.2c-1.5-6-4.5-11.5-8.3-16.3zm264.6 120.1l3.7 3.2c10.1 8.5 23.4 13.1 36.9 13.1c4.8 0 9.8-0.4 14.3-1.6l10-2.5l-4.2 8.5c-7.8 15.7-17.8 30.4-29.9 43.6l-5 5.5l-3-6.5c-4-8-12.8-13.6-22.6-14.2l-4.2-0.5v-40.8c0-0.2 0-0.5-0.3-0.7l-0.5-3.2l-3.5-1c-0.5 0-0.7-0.2-1.2-0.2c-3.1 0-5.6 2.3-5.6 5.1v41h-16.8v-41c0-2.8-2.5-5.1-5.5-5.1c-3 0-5.5 2.3-5.5 5.1v41h-16.8v-41c0-2.8-2.5-5.1-5.5-5.1c-3 0-5.5 2.3-5.5 5.1v41h-16.8v-41c0-2.8-2.5-5.1-5.5-5.1c-3.1 0-5.6 2.3-5.6 5.1v41h-16.8v-41c0-2.8-2.5-5.1-5.5-5.1c-3 0-5.2 2.3-5.2 5.1v41h-136.7c-10.5 0-20.1 5.8-24.6 14.5l-3 6.5l-5-5.5c-12-13.2-22.1-27.9-29.8-43.6l-4.3-8.5l10 2.5c4.5 1.2 9.6 1.6 14.3 1.6c24.3 0 46.2-14.7 52.2-36.6l1-3.3h239.4l1.1 3.3c1.5 6 4.5 11.5 8.2 16.3zm-256.5 98.7h248.5l-14.5 8.1c-33.1 18.4-71 28.1-109.6 28.1c-38.9 0-76.5-9.7-109.8-28.1z" />
	<path id="&lt;Path&gt;" class="s6" d="m924.7 335.2c8.8 7.2 14.1 17.3 14.1 28.2c0 21.2-19.3 37.5-41.9 37.5c-22.6 0-41.9-16.3-41.9-37.5c0-3.5 0.5-7.2 1.8-10.4h-12.3c-0.5 1.4-0.8 2.8-1 4.1l-0.5 3.7h-238l-0.5-3.7q-0.4-2-0.7-4.1h-12.6c1.3 3.2 1.8 6.9 1.8 10.4c0 21.2-19.3 37.5-41.9 37.5c-22.6 0-41.9-16.3-41.9-37.5c0-10.9 5.3-21 14.3-28.2c-9-6.9-14.3-17-14.3-27.9c0-21.2 19.3-37.5 41.9-37.5c22.6 0 41.9 16.3 41.9 37.5c0 3.5-0.5 7.2-1.8 10.4h12.6q0.3-2.1 0.7-4.1l0.5-3.7h238l0.5 3.7c0.2 1.4 0.5 2.7 1 4.1h12.3c-1.3-3.2-1.8-6.9-1.8-10.4c0-21.2 19.3-37.5 41.9-37.5c22.6 0 41.9 16.3 41.9 37.5c0 10.9-5.3 21-14.1 27.9z" />
	<path id="&lt;Compound Path&gt;" fill-rule="evenodd" class="s7" d="m724 604.7c-162 0-293-120.4-293-269.3c0-149 131-269.4 293-269.4c162 0 293 120.4 293 269.4c0 148.9-131 269.3-293 269.3zm271.4-269.3c0-138-121.3-249.6-271.4-249.6c-150.1 0-271.4 111.6-271.4 249.6c0 137.9 121.3 249.5 271.4 249.5c150.1 0 271.4-111.6 271.4-249.5z" />
	<path id="&lt;Compound Path&gt;" fill-rule="evenodd" class="s7" d="m724 545.7c-126.5 0-228.8-94-228.8-210.3c0-116.4 102.3-210.4 228.8-210.4c126.5 0 228.8 94 228.8 210.4c0 116.3-102.3 210.3-228.8 210.3zm-198-266.7c-10 1.6-16.3 8.8-19 17.3c-3.3 6-2.8 9.7-2.8 16.1c0 8.8 5.3 13.8 12.6 18.7c0 3.9 0 8.1 0.2 12c-4.5 3-6.5 6.4-8.3 11c-2.5 6-2 10.9-2 17.1c0 11.1 9.6 18.2 19.8 21.9c26.6 76.8 104.8 132.8 197.6 132.8c89.8 0 166.3-52.8 195.1-126.3c6.8-0.7 12.8-4.4 16.3-9.7c2-2.8 4-6.5 4.5-9.7c1.5-3.5 2.8-7.2 2.8-10.6v-9.2c0-7.6-4.8-14.3-11.8-17.6c0.2-2 0.2-4.1 0.2-6.2c7.6-2.5 11.3-7.6 13.6-14.5c3.7-6.5 3-14.8 3-21.9c0-3.5-1.3-6.9-2.5-10.1c-3.3-9.5-13.8-15-24.1-13.4c-26.8-76.5-105-131.9-197.1-131.9c-93.3 0-172 56.5-198.1 134.2z" />
	<path id="&lt;Path&gt;" class="s7" d="m596.2 294.4h255.6v19.9h-255.6z" />
	<path id="&lt;Path&gt;" class="s7" d="m596.2 356.4h255.6v19.9h-255.6z" />
	<path id="&lt;Path&gt;" class="s7" d="m501.5 335.2c-5.8-8-8.8-17.7-8.8-27.9c0-29.7 26.6-52.7 58.4-52.7c31.9 0 58.7 23 58.7 52.7c0 5.1-1 10.2-2.5 14.8h-23.1c2.5-4.4 4-9.5 4-14.8c0-18.2-16.5-33.1-37.1-33.1c-20.6 0-37.1 14.9-37.1 33.1c0 11.8 7 22.2 17.6 27.9c-10.6 6-17.6 16.4-17.6 28.2c0 18.2 16.5 33.2 37.1 33.2c20.6 0 37.1-15 37.1-33.2c0-5.3-1.5-10.4-4-14.8h23.1c1.5 4.6 2.5 9.7 2.5 14.8c0 29.7-26.8 52.7-58.7 52.7c-31.8 0-58.4-23-58.4-52.7c0-10.2 3-19.9 8.8-28.2z" />
	<path id="&lt;Path&gt;" class="s7" d="m955.6 363.4c0 29.7-26.9 52.7-58.7 52.7c-31.9 0-58.7-23-58.7-52.7c0-5.1 1-10.2 2.5-14.8h23.1c-2.5 4.4-4 9.5-4 14.8c0 18.2 16.5 33.2 37.1 33.2c20.6 0 37.1-15 37.1-33.2c0-11.8-7-22.2-17.6-28.2c10.6-5.7 17.6-16.1 17.6-27.9c0-18.2-16.5-33.1-37.1-33.1c-20.6 0-37.1 14.9-37.1 33.1c0 5.3 1.5 10.4 4 14.8h-23.1c-1.5-4.6-2.5-9.7-2.5-14.8c0-29.7 26.8-52.7 58.7-52.7c31.8 0 58.7 23 58.7 52.7c0 10.2-3.3 19.9-9.1 27.9c5.8 8.3 9.1 18 9.1 28.2z" />
	<path id="&lt;Compound Path&gt;" fill-rule="evenodd" class="s7" d="m561.6 469.2c0-16.2 14.6-29.3 31.9-29.3h261c17.6 0 31.9 13.1 31.9 29.3c0 16.1-14.3 29.2-31.9 29.2h-261c-17.3 0-31.9-13.1-31.9-29.2zm31.9 9.4h261c5.5 0 10.3-4.4 10.3-9.4c0-5.3-4.8-9.5-10.3-9.5h-261c-5.5 0-10.3 4.2-10.3 9.5c0 5 4.8 9.4 10.3 9.4z" />
	<path id="&lt;Compound Path&gt;" class="s7" d="m735.4 393.8c5.8 0 10.3 4.4 10.3 9.4v50.8h-20.6v-50.8c0-5 4.8-9.4 10.3-9.4zm111.3 0c5.6 0 10.3 4.4 10.3 9.4v50.8h-20.5v-50.8c0-5 4.5-9.4 10.2-9.4zm-27.8 0c5.8 0 10.3 4.4 10.3 9.4v50.8h-20.6v-50.8c0-5 4.5-9.4 10.3-9.4zm-27.8 0c5.7 0 10.3 4.4 10.3 9.4v50.8h-20.6v-50.8c0-5 4.8-9.4 10.3-9.4zm-27.9 0c5.8 0 10.3 4.4 10.3 9.4v50.8h-20.5v-50.8c0-5 4.7-9.4 10.2-9.4z" />
	<path id="&lt;Compound Path&gt;" fill-rule="evenodd" class="s7" d="m886.4 201.5c0 16.2-14.3 29.3-31.9 29.3h-261c-17.3 0-31.9-13.1-31.9-29.3c0-16.1 14.6-29.2 31.9-29.2h261c17.6 0 31.9 13.1 31.9 29.2zm-31.9-9.4h-261c-5.5 0-10.3 4.1-10.3 9.4c0 5.1 4.8 9.5 10.3 9.5h261c5.5 0 10.3-4.4 10.3-9.5c0-5.3-4.8-9.4-10.3-9.4z" />
	<path id="&lt;Compound Path&gt;" class="s7" d="m712.6 276.9c-5.8 0-10.3-4.4-10.3-9.4v-50.7h20.6v50.7c0 5-4.8 9.4-10.3 9.4zm-111.3 0c-5.6 0-10.3-4.4-10.3-9.4v-50.7h20.5v50.7c0 5-4.5 9.4-10.2 9.4zm27.8 0c-5.5 0-10.3-4.4-10.3-9.4v-50.7h20.6v50.7c0 5-4.5 9.4-10.3 9.4zm27.8 0c-5.7 0-10.3-4.4-10.3-9.4v-50.7h20.6v50.7c0 5-4.5 9.4-10.3 9.4zm27.9 0c-5.8 0-10.3-4.4-10.3-9.4v-50.7h20.5v50.7c0 5-4.7 9.4-10.2 9.4z" />
	<g id="Layer 1">
		<g id="&lt;Group&gt;">
			<g id="&lt;Group&gt;">
			</g>
			<g id="&lt;Group&gt;">
				<g id="&lt;Group&gt;">
				</g>
				<g id="&lt;Group&gt;">
				</g>
				<g id="&lt;Group&gt;">
				</g>
				<g id="&lt;Group&gt;">
				</g>
			</g>
		</g>
	</g>
</svg>