<svg version="1.2" xmlns="http://www.w3.org/2000/svg" viewBox="0 0 579 356" width="579" height="356">
	<title>image</title>
	<defs>
		<linearGradient id="g1" x1="250.5" y1="98.2" x2="250.5" y2="60.4" gradientUnits="userSpaceOnUse">
			<stop offset="0" stop-color="#ffffff"/>
			<stop offset="1" stop-color="#ffa44a"/>
		</linearGradient>
	</defs>
	<style>
		.s0 { fill: #e2e9fb } 
		.s1 { fill: #d1e2ee } 
		.s2 { opacity: .6;fill: #ffffff } 
		.s3 { fill: #ffffff } 
		.s4 { fill: #bd7850 } 
		.s5 { fill: #635dad } 
		.s6 { fill: #ffdebe } 
		.s7 { fill: #412014 } 
		.s8 { fill: #584441 } 
		.s9 { fill: #4452e2 } 
		.s10 { fill: #005644 } 
		.s11 { opacity: .3;fill: #ffffff } 
		.s12 { fill: #443e90 } 
		.s13 { fill: #f1543b } 
		.s14 { fill: #dd8d68 } 
		.s15 { fill: #c6714f } 
		.s16 { fill: #63453d } 
		.s17 { fill: #208674 } 
		.s18 { opacity: .2;fill: url(#g1) } 
		.s19 { fill: #ffc17d } 
		.s20 { fill: #ffa44a } 
		.s21 { fill: #ff765f } 
		.s22 { fill: #edf1f4 } 
		.s23 { fill: #352c2d } 
		.s24 { fill: #ffa47f } 
		.s25 { fill: #9f4424 } 
		.s26 { fill: #f27049 } 
		.s27 { fill: #7c5042 } 
		.s28 { opacity: .8;fill: #ffffff } 
	</style>
	<path id="Layer" class="s0" d="m18.1 354.5q-25.7-34-13.4-74.7c12.3-40.8 43.8-71.9 33.7-119c-12.1-55.9 16.2-103.1 66.3-97c84 10.2 144.4-53.3 175.2-59.7c91-18.8 107.6 50 156.8 56.7c106.1 14.5 138.9 60.8 135.1 149.5c-1.3 29.3 80 87.8 33.3 144.2z" />
	<path id="Layer" class="s1" d="m97 58h125.2v161.4h-125.2z" />
	<path id="Layer" class="s2" d="m122.9 59.8h13.1l55.7 156.7h-13.1z" />
	<path id="Layer" class="s2" d="m146 59.8h6.6l55.7 156.7h-6.6z" />
	<path id="Layer" class="s2" d="m97 85.9l1.4-9.1l46.2 139.7h-6.5z" />
	<path id="Layer" class="s3" d="m220.3 56.1h3.7v165.4h-3.7z" />
	<path id="Layer" class="s3" d="m178.6 57h3.7v163.6h-3.7z" />
	<path id="Layer" class="s3" d="m224 56.1v3.7h-128.9v-3.7z" />
	<path id="Layer" class="s3" d="m224 217.5v3.7h-128.9v-3.7z" />
	<path id="Layer" class="s3" d="m97.6 52.3h3.7v163.6h-3.7z" />
	<path id="Layer" class="s3" d="m95.1 56.1h3.7v165.4h-3.7z" />
	<path id="Layer" class="s3" d="m224 137v3.7h-128.9v-3.7z" />
	<path id="Layer" class="s4" d="m98.9 142v-1.3h121.4v1.3z" />
	<path id="Layer" class="s4" d="m98.9 217.8v-1.3h121.4v1.3z" />
	<path id="Layer" class="s4" d="m98.8 61.1v-1.3h121.5v1.3z" />
	<path id="Layer" fill-rule="evenodd" class="s5" d="m100.1 340.4h-44.9v-103.2c0-12.4 10.1-22.5 22.5-22.5c12.4 0 22.4 10.1 22.4 22.5zm-40.9-4h37v-99.3c0-10.2-8.3-18.5-18.5-18.5c-10.2 0-18.5 8.3-18.5 18.5z" />
	<path id="Layer" class="s5" d="m174.3 244.6h-82.2v-7.1h82.2z" />
	<path id="Layer" class="s6" d="m131.3 244.6h-82.2v-7.1h82.2z" />
	<path id="Layer" class="s1" d="m169.5 237.5h-115.4v-3.1h115.4z" />
	<path id="Layer" class="s7" d="m69.5 347.4c0 3.9-3.1 7.1-7 7.1c-3.9 0-7-3.2-7-7.1c0-3.8 3.1-7 7-7c3.9 0 7 3.2 7 7z" />
	<path id="Layer" class="s8" d="m66.5 347.4c0 2.3-1.8 4.1-4 4.1c-2.2 0-4.1-1.8-4.1-4.1c0-2.2 1.9-4 4.1-4c2.2 0 4 1.8 4 4z" />
	<path id="Layer" class="s7" d="m96.1 347.4c0 3.9-3.1 7.1-7 7.1c-3.9 0-7-3.2-7-7.1c0-3.8 3.1-7 7-7c3.9 0 7 3.2 7 7z" />
	<path id="Layer" class="s8" d="m93.2 347.4c0 2.3-1.8 4.1-4.1 4.1c-2.2 0-4-1.8-4-4.1c0-2.2 1.8-4 4-4c2.3 0 4.1 1.8 4.1 4z" />
	<path id="Layer" class="s7" d="m142.8 347.4c0 3.9-3.1 7.1-7 7.1c-3.9 0-7-3.2-7-7.1c0-3.8 3.1-7 7-7c3.9 0 7 3.2 7 7z" />
	<path id="Layer" class="s8" d="m139.9 347.4c0 2.3-1.8 4.1-4.1 4.1c-2.2 0-4-1.8-4-4.1c0-2.2 1.8-4 4-4c2.3 0 4.1 1.8 4.1 4z" />
	<path id="Layer" class="s7" d="m169.5 347.4c0 3.9-3.2 7.1-7.1 7.1c-3.8 0-7-3.2-7-7.1c0-3.8 3.2-7 7-7c3.9 0 7.1 3.2 7.1 7z" />
	<path id="Layer" class="s8" d="m166.5 347.4c0 2.3-1.8 4.1-4.1 4.1c-2.2 0-4-1.8-4-4.1c0-2.2 1.8-4 4-4c2.3 0 4.1 1.8 4.1 4z" />
	<path id="Layer" class="s5" d="m123.2 273.1v13.2h-11.4v-13.2q0-1.1 0.5-2q0.5-1 1.4-1.6c0.6-0.4 1-1.2 1-2v-1.6h5.6v1.6c0 0.8 0.4 1.6 1 2c1.2 0.8 1.9 2.1 1.9 3.6z" />
	<path id="Layer" class="s9" d="m120.3 266.9v0.6c-0.6 0.2-1.6 0.4-2.8 0.4c-1.2 0-2.2-0.2-2.8-0.4v-0.6c0.6 0.3 1.6 0.4 2.8 0.4c1.2 0 2.2-0.1 2.8-0.4z" />
	<path id="Layer" class="s10" d="m123.2 281.8h-11.4v-5.7h11.4z" />
	<path id="Layer" class="s11" d="m118 265.9v1.6c0 0.8-0.4 1.6-1.1 2q-0.9 0.6-1.4 1.6q-0.5 0.9-0.5 2v13.2h-1.9v-13.2q0-1.1 0.5-2q0.5-1 1.4-1.6c0.7-0.4 1.1-1.2 1.1-2v-1.6z" />
	<path id="Layer" class="s5" d="m120.9 267.9h-6.8c-0.2 0-0.4-0.2-0.4-0.5v-3.1c0-0.2 0.2-0.5 0.4-0.5h6.8c0.2 0 0.4 0.3 0.4 0.5v3.1c0 0.3-0.2 0.5-0.4 0.5z" />
	<path id="Layer" class="s12" d="m121.2 265.8h-7.4c-0.3 0-0.4-0.2-0.4-0.4c0-0.2 0.1-0.4 0.4-0.4h7.4c0.3 0 0.4 0.2 0.4 0.4c0 0.2-0.1 0.4-0.4 0.4z" />
	<path id="Layer" class="s12" d="m121.2 268h-7.4c-0.3 0-0.4-0.2-0.4-0.4c0-0.2 0.1-0.4 0.4-0.4h7.4c0.3 0 0.4 0.2 0.4 0.4c0 0.2-0.1 0.4-0.4 0.4z" />
	<path id="Layer" class="s5" d="m161.2 322.1v13.3h-11.5v-13.3q0-1.1 0.5-2c0.3-0.6 0.8-1.1 1.4-1.5c0.6-0.5 1-1.2 1-2v-1.7h5.6v1.7c0 0.8 0.4 1.5 1.1 2c1.1 0.8 1.9 2.1 1.9 3.5z" />
	<path id="Layer" class="s9" d="m158.2 316v0.5c-0.6 0.3-1.6 0.4-2.8 0.4c-1.1 0-2.2-0.1-2.8-0.4v-0.5c0.6 0.2 1.7 0.4 2.8 0.4c1.2 0 2.2-0.2 2.8-0.4z" />
	<path id="Layer" class="s10" d="m161.2 330.9h-11.5v-5.8h11.5z" />
	<path id="Layer" class="s11" d="m155.9 314.9v1.7c0 0.8-0.4 1.5-1.1 2c-0.6 0.4-1 0.9-1.3 1.5q-0.5 0.9-0.5 2v13.3h-2v-13.3q0.1-1.1 0.5-2c0.4-0.6 0.8-1.1 1.4-1.5c0.7-0.5 1.1-1.2 1.1-2v-1.7z" />
	<path id="Layer" class="s5" d="m158.8 316.9h-6.7c-0.3 0-0.5-0.2-0.5-0.4v-3.1c0-0.3 0.2-0.5 0.5-0.5h6.7c0.3 0 0.5 0.2 0.5 0.5v3.1c0 0.2-0.2 0.4-0.5 0.4z" />
	<path id="Layer" class="s12" d="m159.2 314.8h-7.5c-0.2 0-0.4-0.1-0.4-0.3c0-0.3 0.2-0.4 0.4-0.4h7.5c0.2 0 0.4 0.1 0.4 0.4c0 0.2-0.2 0.3-0.4 0.3z" />
	<path id="Layer" class="s12" d="m159.2 317.1h-7.5c-0.2 0-0.4-0.2-0.4-0.4c0-0.3 0.2-0.4 0.4-0.4h7.5c0.2 0 0.4 0.1 0.4 0.4c0 0.2-0.2 0.4-0.4 0.4z" />
	<path id="Layer" class="s10" d="m106.1 272.4v13.8h-11.9v-13.8q0-1.1 0.5-2.1c0.3-0.6 0.8-1.2 1.4-1.6c0.7-0.5 1.1-1.3 1.1-2.1v-1.7h5.8v1.7c0 0.8 0.5 1.6 1.1 2.1c1.3 0.8 2 2.2 2 3.7z" />
	<path id="Layer" class="s9" d="m103 266v0.6c-0.6 0.2-1.7 0.4-2.9 0.4c-1.2 0-2.2-0.2-2.9-0.4v-0.6c0.7 0.2 1.7 0.4 2.9 0.4c1.2 0 2.3-0.2 2.9-0.4z" />
	<path id="Layer" class="s5" d="m106.1 281.5h-11.9v-5.9h11.9z" />
	<path id="Layer" class="s11" d="m100.6 264.9v1.7c0 0.8-0.4 1.6-1.1 2.1c-0.6 0.4-1.1 1-1.4 1.6q-0.5 1-0.5 2.1v13.8h-2v-13.8q0-1.1 0.5-2.1c0.3-0.6 0.8-1.2 1.4-1.6c0.7-0.5 1.1-1.3 1.1-2.1v-1.7z" />
	<path id="Layer" class="s5" d="m103.6 267h-7c-0.2 0-0.5-0.2-0.5-0.5v-3.2c0-0.3 0.3-0.5 0.5-0.5h7c0.3 0 0.5 0.2 0.5 0.5v3.2c0 0.3-0.2 0.5-0.5 0.5z" />
	<path id="Layer" class="s1" d="m104 264.8h-7.8c-0.2 0-0.4-0.2-0.4-0.4c0-0.2 0.2-0.4 0.4-0.4h7.8c0.3 0 0.5 0.2 0.5 0.4c0 0.2-0.2 0.4-0.5 0.4z" />
	<path id="Layer" class="s1" d="m104 267.1h-7.8c-0.2 0-0.4-0.2-0.4-0.4c0-0.2 0.2-0.4 0.4-0.4h7.8c0.3 0 0.5 0.2 0.5 0.4c0 0.2-0.2 0.4-0.5 0.4z" />
	<path id="Layer" class="s10" d="m145.8 321v13.8h-11.9v-13.8c0-0.8 0.2-1.5 0.5-2.1c0.4-0.7 0.8-1.2 1.5-1.6c0.7-0.5 1.1-1.3 1.1-2.1v-1.7h5.8v1.7c0 0.8 0.4 1.6 1.1 2.1c1.2 0.8 1.9 2.2 1.9 3.7z" />
	<path id="Layer" class="s9" d="m142.8 314.6v0.5c-0.7 0.3-1.7 0.5-2.9 0.5c-1.2 0-2.3-0.2-2.9-0.5v-0.5c0.6 0.2 1.7 0.4 2.9 0.4c1.2 0 2.2-0.2 2.9-0.4z" />
	<path id="Layer" class="s5" d="m145.8 330.1h-11.9v-6h11.9z" />
	<path id="Layer" class="s11" d="m140.4 313.5v1.7c0 0.8-0.5 1.6-1.1 2.1c-0.7 0.4-1.1 0.9-1.5 1.6c-0.3 0.6-0.5 1.3-0.5 2.1v13.8h-2v-13.8q0-1.2 0.5-2.1c0.4-0.7 0.9-1.2 1.5-1.6c0.7-0.5 1.1-1.3 1.1-2.1v-1.7z" />
	<path id="Layer" class="s5" d="m143.4 315.6h-7c-0.3 0-0.5-0.2-0.5-0.5v-3.3c0-0.2 0.2-0.4 0.5-0.4h7c0.3 0 0.5 0.2 0.5 0.4v3.3c0 0.3-0.2 0.5-0.5 0.5z" />
	<path id="Layer" class="s1" d="m143.8 313.4h-7.8c-0.3 0-0.4-0.2-0.4-0.4c0-0.2 0.1-0.4 0.4-0.4h7.8c0.2 0 0.4 0.2 0.4 0.4c0 0.2-0.2 0.4-0.4 0.4z" />
	<path id="Layer" class="s1" d="m143.8 315.7h-7.8c-0.3 0-0.4-0.2-0.4-0.4c0-0.2 0.1-0.4 0.4-0.4h7.8c0.2 0 0.4 0.2 0.4 0.4c0 0.2-0.2 0.4-0.4 0.4z" />
	<path id="Layer" class="s1" d="m86.4 286.5h-22.2v-15.3h22.2l2.7 1.7z" />
	<path id="Layer" class="s5" d="m86.4 286.5l-19.4-13.6l-2.8-1.7h22.2l2.7 1.7z" />
	<path id="Layer" class="s3" d="m89.1 286.5h-22.1v-13.6h22.1z" />
	<path id="Layer" class="s3" d="m78.4 280.4h-8.5v-1h8.5z" />
	<path id="Layer" class="s3" d="m76.3 282.8h-6.4v-1h6.4z" />
	<path id="Layer" class="s3" d="m83.9 282.8h-6.5v-1h6.5z" />
	<path id="Layer" class="s3" d="m87.7 280.4h-7.4v-1h7.4z" />
	<path id="Layer" class="s3" d="m78.4 276.1h-8.5v-1h8.5z" />
	<path id="Layer" class="s3" d="m87.7 276.1h-7.4v-1h7.4z" />
	<path id="Layer" class="s1" d="m152.5 286.5h-22.1v-15.3h22.1l2.8 1.7z" />
	<path id="Layer" class="s5" d="m152.5 286.5l-19.3-13.6l-2.8-1.7h22.1l2.8 1.7z" />
	<path id="Layer" class="s3" d="m155.3 286.5h-22.1v-13.6h22.1z" />
	<path id="Layer" class="s3" d="m144.5 280.4h-8.5v-1h8.5z" />
	<path id="Layer" class="s3" d="m142.5 282.8h-6.5v-1h6.5z" />
	<path id="Layer" class="s3" d="m150.1 282.8h-6.5v-1h6.5z" />
	<path id="Layer" class="s3" d="m153.9 280.4h-7.5v-1h7.5z" />
	<path id="Layer" class="s3" d="m144.5 276.1h-8.5v-1h8.5z" />
	<path id="Layer" class="s3" d="m153.9 276.1h-7.5v-1h7.5z" />
	<path id="Layer" class="s5" d="m174.3 293.3h-82.2v-7.2h82.2z" />
	<path id="Layer" fill-rule="evenodd" class="s6" d="m168.6 340.4h-44.9v-103.2c0-12.4 10.1-22.5 22.5-22.5c12.3 0 22.4 10.1 22.4 22.5zm-41-4h37.1v-99.3c0-10.2-8.3-18.5-18.5-18.5c-10.3 0-18.6 8.3-18.6 18.5z" />
	<path id="Layer" class="s6" d="m131.3 293.3h-82.2v-7.2h82.2z" />
	<path id="Layer" class="s5" d="m174.3 342h-82.2v-7.2h82.2z" />
	<path id="Layer" class="s6" d="m131.3 342h-82.2v-7.2h82.2z" />
	<path id="Layer" fill-rule="evenodd" class="s10" d="m101.2 311h-22.1v-10.2c0-1.9 1.6-3.6 3.5-3.6h15c2 0 3.6 1.7 3.6 3.6zm-19.2-2.9h16.3v-7.3c0-0.3-0.3-0.6-0.7-0.6h-15c-0.3 0-0.6 0.3-0.6 0.6z" />
	<path id="Layer" class="s1" d="m115.9 334.8h-42.4c-1.3 0-2.3-1-2.3-2.3v-25.3c0-1.3 1-2.3 2.3-2.3h42.4c1.2 0 2.3 1 2.3 2.3v25.3c0 1.3-1.1 2.3-2.3 2.3z" />
	<path id="Layer" class="s3" d="m110.7 334.8h-42.4c-1.3 0-2.3-1-2.3-2.3v-25.3c0-1.3 1-2.3 2.3-2.3h42.4c1.2 0 2.2 1 2.2 2.3v25.3c0 1.3-1 2.3-2.2 2.3z" />
	<path id="Layer" class="s13" d="m90.7 329.7c-5.4 0-9.8-4.4-9.8-9.8c0-5.5 4.4-9.9 9.8-9.9c5.5 0 9.9 4.4 9.9 9.9c0 5.4-4.4 9.8-9.9 9.8z" />
	<path id="Layer" class="s13" d="m92.3 325.3h-3.2v-10.9h3.2z" />
	<path id="Layer" class="s13" d="m85.3 321.5v-3.3h10.9v3.3z" />
	<path id="Layer" class="s14" d="m551.5 351.2h-31.6l-6.4-35.3h44.4z" />
	<path id="Layer" class="s14" d="m551.5 351.2c0 2.1-7.1 3.9-15.8 3.9c-8.7 0-15.8-1.8-15.8-3.9c0-2.1 7.1-3.9 15.8-3.9c8.7 0 15.8 1.8 15.8 3.9z" />
	<path id="Layer" class="s15" d="m557.9 315.9c0 2.4-10 4.3-22.2 4.3c-12.3 0-22.2-1.9-22.2-4.3c0-2.3 9.9-4.3 22.2-4.3c12.2 0 22.2 2 22.2 4.3z" />
	<path id="Layer" class="s16" d="m556.3 315.9c0 1.7-9.3 3-20.6 3c-11.4 0-20.6-1.3-20.6-3c0-1.6 9.2-3 20.6-3c11.3 0 20.6 1.4 20.6 3z" />
	<path id="Layer" class="s17" d="m576.7 272.2c-1.3 2.1-7.7 0.7-10.3-0.8c-0.4-0.3-0.4-0.7-0.2-1c-1.3-1.5-1.7-3.2-1.5-5.1c0.2-1.2 0.7-4.2 2-4.7c1.7-0.7 2.3 2.3 2.5 3.3c0.3 1.7 0.1 3.4-0.5 5c1.7-0.3 3.3-0.3 5 0.1c1.5 0.4 3.9 1.7 3 3.2z" />
	<path id="Layer" class="s17" d="m570.4 279.5c-1 2.2-7.6 1.5-10.3 0.4c-0.4-0.2-0.5-0.7-0.3-1c-1.5-1.3-2.1-3-2.1-4.9c0-1.1 0.2-4.2 1.4-4.8c1.5-0.9 2.5 1.9 2.8 2.9c0.5 1.7 0.5 3.4 0.2 5c1.6-0.5 3.3-0.7 4.9-0.5c1.6 0.2 4.1 1.2 3.4 2.9z" />
	<path id="Layer" class="s17" d="m566.6 286.8c-0.4 2.3-7 3.2-9.9 2.7c-0.5-0.1-0.6-0.5-0.6-0.9c-1.7-0.9-2.7-2.4-3.1-4.2c-0.3-1.2-0.8-4.2 0.2-5.1c1.4-1.2 3 1.3 3.5 2.2c0.8 1.5 1.3 3.2 1.3 4.9c1.4-0.8 3-1.4 4.7-1.6c1.5-0.2 4.2 0.2 3.9 2z" />
	<path id="Layer" class="s17" d="m564.5 294.4c-0.1 2.4-6.5 4.3-9.4 4.2c-0.5 0-0.8-0.4-0.8-0.8c-1.7-0.6-3-2-3.7-3.7c-0.4-1.1-1.4-4-0.5-5.1c1.1-1.4 3.1 0.9 3.7 1.7c1.1 1.4 1.8 2.9 2.1 4.6c1.3-1 2.8-1.8 4.4-2.2c1.5-0.4 4.2-0.5 4.2 1.3z" />
	<path id="Layer" class="s17" d="m561.5 305.1c0 2.4-6.4 4.2-9.3 4.1c-0.5 0-0.8-0.4-0.8-0.7c-1.8-0.7-3-2-3.7-3.8c-0.4-1.1-1.4-4-0.5-5c1.1-1.4 3.1 0.9 3.7 1.7c1.1 1.3 1.8 2.9 2.1 4.6c1.3-1.1 2.7-1.9 4.4-2.3c1.4-0.4 4.2-0.4 4.1 1.4z" />
	<path id="Layer" class="s17" d="m560.3 311.6c-0.1 2.4-6.5 4.3-9.4 4.2c-0.5 0-3.8-2.8-4.5-4.5c-0.4-1.1-1.4-4-0.5-5c1.1-1.5 3.1 0.8 3.7 1.6c1.1 1.4 1.8 3 2.1 4.6c1.3-1 2.7-1.8 4.4-2.2c1.5-0.4 4.2-0.5 4.2 1.3z" />
	<path id="Layer" class="s10" d="m572.9 266.1c-8 5.1-12.2 13.5-14.8 22.3c-2.7 8.8-4.6 18-6.4 27c-0.2 1-1.7 0.6-1.5-0.4c2.1-10.3 4-21 7.6-30.9c2.8-7.7 7.2-14.8 14.3-19.3c0.9-0.5 1.7 0.8 0.8 1.3z" />
	<path id="Layer" class="s17" d="m578.5 265c-1.4 1.2-3.7 1.3-5.5 1.2q-0.2 0-0.4-0.2c-0.6 0.2-1.2-0.2-1-0.9c0.5-1.7 1.2-3.3 2.8-4.1c1.3-0.7 3.4-1.2 4.8-0.8c0.3 0 0.5 0.2 0.6 0.5c0.3 1.4-0.2 3.4-1.3 4.3z" />
	<path id="Layer" class="s17" d="m499.6 267.9c1.6-0.4 3.3-0.4 4.9-0.1c-0.5-1.6-0.7-3.3-0.4-5c0.2-1.1 0.8-4 2.5-3.3c1.2 0.5 1.8 3.5 1.9 4.7c0.3 1.8-0.1 3.6-1.4 5c0.2 0.4 0.2 0.8-0.3 1.1c-2.5 1.4-9 2.9-10.2 0.8c-0.9-1.5 1.5-2.8 3-3.2z" />
	<path id="Layer" class="s17" d="m506.2 275.5c1.7-0.2 3.4 0 4.9 0.5c-0.3-1.7-0.2-3.4 0.3-5c0.3-1 1.2-3.9 2.8-3c1.2 0.7 1.4 3.7 1.4 4.9c0 1.9-0.7 3.6-2.1 4.9c0.2 0.3 0.1 0.7-0.4 0.9c-2.6 1.2-9.3 1.8-10.2-0.4c-0.8-1.6 1.8-2.6 3.3-2.8z" />
	<path id="Layer" class="s17" d="m510.6 283.7c1.7 0.2 3.2 0.7 4.6 1.6c0.1-1.7 0.5-3.4 1.4-4.9c0.5-0.9 2.1-3.5 3.5-2.2c1 0.9 0.4 3.9 0.2 5c-0.4 1.9-1.5 3.4-3.1 4.3c0 0.4-0.2 0.8-0.6 0.9c-2.9 0.5-9.5-0.4-9.9-2.7c-0.4-1.8 2.4-2.2 3.9-2z" />
	<path id="Layer" class="s17" d="m513 291.9c1.6 0.5 3.1 1.2 4.4 2.3c0.3-1.7 1-3.2 2-4.6c0.7-0.8 2.6-3.1 3.8-1.7c0.8 1.1-0.1 3.9-0.6 5c-0.6 1.8-1.9 3.2-3.7 3.8c0 0.4-0.2 0.7-0.7 0.8c-2.9 0-9.3-1.8-9.4-4.2c0-1.8 2.7-1.8 4.2-1.4z" />
	<path id="Layer" class="s17" d="m515.9 302.6c1.6 0.4 3.1 1.2 4.4 2.2c0.3-1.6 1-3.2 2.1-4.6c0.6-0.8 2.6-3.1 3.7-1.7c0.9 1.1-0.1 4-0.5 5.1c-0.7 1.7-2 3.1-3.8 3.7c0 0.4-0.2 0.8-0.7 0.8c-2.9 0.1-9.3-1.8-9.4-4.2c0-1.8 2.7-1.7 4.2-1.3z" />
	<path id="Layer" class="s17" d="m517.2 309.1c1.6 0.5 3.1 1.3 4.4 2.3c0.3-1.7 1-3.2 2.1-4.6c0.6-0.8 2.5-3.1 3.7-1.7c0.8 1.1-0.1 4-0.6 5c-0.6 1.8-3.9 4.6-4.4 4.6c-2.9 0-9.3-1.8-9.4-4.2c0-1.8 2.7-1.7 4.2-1.4z" />
	<path id="Layer" class="s10" d="m501.1 263.7c7.1 4.4 11.5 11.5 14.3 19.3c3.6 9.9 5.6 20.6 7.7 30.9c0.2 1-1.3 1.4-1.5 0.4c-1.8-9.1-3.7-18.2-6.4-27c-2.6-8.8-6.9-17.3-14.8-22.3c-0.9-0.5-0.1-1.9 0.7-1.3z" />
	<path id="Layer" class="s17" d="m493.5 259.6c0.1-0.3 0.3-0.5 0.5-0.6c1.5-0.3 3.6 0.2 4.9 0.8c1.6 0.9 2.3 2.5 2.8 4.2c0.2 0.6-0.5 1-1 0.9q-0.2 0.2-0.5 0.2c-1.7 0.1-4-0.1-5.4-1.3c-1.1-0.9-1.7-2.9-1.3-4.2z" />
	<path id="Layer" class="s17" d="m503.5 225.5c1.7-0.4 3.3-0.4 4.9-0.1c-0.5-1.7-0.7-3.4-0.4-5.1c0.2-1 0.8-3.9 2.5-3.2c1.3 0.5 1.8 3.5 2 4.6c0.2 1.9-0.2 3.7-1.5 5.1c0.2 0.3 0.2 0.8-0.2 1c-2.6 1.5-9 2.9-10.3 0.9c-0.9-1.6 1.5-2.9 3-3.2z" />
	<path id="Layer" class="s17" d="m510.2 233.1c1.6-0.2 3.3 0 4.9 0.5c-0.4-1.7-0.3-3.4 0.2-5.1c0.3-1 1.3-3.8 2.8-2.9c1.2 0.6 1.4 3.7 1.4 4.9c0 1.8-0.6 3.6-2.1 4.8c0.2 0.4 0.1 0.8-0.3 1c-2.7 1.1-9.3 1.8-10.3-0.4c-0.7-1.7 1.8-2.6 3.4-2.8z" />
	<path id="Layer" class="s17" d="m514.5 241.2c1.7 0.2 3.2 0.8 4.7 1.6c0-1.7 0.5-3.3 1.3-4.9c0.5-0.8 2.1-3.4 3.5-2.2c1 1 0.5 3.9 0.2 5.1c-0.4 1.8-1.4 3.4-3.1 4.2c0 0.4-0.1 0.8-0.6 0.9c-2.9 0.5-9.5-0.3-9.9-2.7c-0.3-1.8 2.4-2.1 3.9-2z" />
	<path id="Layer" class="s17" d="m516.9 249.5c1.6 0.4 3.1 1.2 4.4 2.3c0.3-1.7 1-3.3 2.1-4.7c0.6-0.8 2.6-3 3.7-1.6c0.9 1-0.1 3.9-0.5 5c-0.7 1.8-2 3.1-3.7 3.7c0 0.4-0.3 0.8-0.8 0.8c-2.9 0.1-9.3-1.7-9.4-4.1c0-1.8 2.7-1.8 4.2-1.4z" />
	<path id="Layer" class="s17" d="m519.8 260.1c1.7 0.5 3.1 1.2 4.4 2.3c0.3-1.7 1-3.2 2.1-4.6c0.6-0.8 2.6-3.1 3.7-1.7c0.9 1.1-0.1 3.9-0.5 5c-0.7 1.8-1.9 3.2-3.7 3.8c0 0.4-0.3 0.7-0.8 0.8c-2.9 0-9.3-1.8-9.3-4.2c-0.1-1.8 2.7-1.8 4.1-1.4z" />
	<path id="Layer" class="s17" d="m521.1 266.7c1.6 0.4 3.1 1.2 4.4 2.3c0.3-1.7 1-3.3 2.1-4.7c0.6-0.7 2.6-3 3.7-1.6c0.9 1-0.1 3.9-0.5 5c-0.7 1.8-4 4.5-4.5 4.5c-2.9 0.1-9.3-1.7-9.4-4.1c0-1.8 2.7-1.8 4.2-1.4z" />
	<path id="Layer" class="s17" d="m524.3 283.5c1.6 0.4 3.1 1.2 4.3 2.3c0.4-1.7 1-3.3 2.1-4.7c0.7-0.8 2.6-3 3.8-1.6c0.8 1-0.2 3.9-0.6 5c-0.7 1.8-3.9 4.5-4.4 4.5c-2.9 0.1-9.3-1.7-9.4-4.1c-0.1-1.8 2.7-1.8 4.2-1.4z" />
	<path id="Layer" class="s17" d="m522.9 274.6c1.6 0.4 3.1 1.2 4.4 2.3c0.3-1.7 1-3.3 2.1-4.6c0.6-0.8 2.5-3.1 3.7-1.7c0.8 1.1-0.1 3.9-0.6 5c-0.6 1.8-3.9 4.5-4.4 4.6c-2.9 0-9.3-1.8-9.4-4.2c0-1.8 2.7-1.8 4.2-1.4z" />
	<path id="Layer" class="s17" d="m526 291c1.6 0.6 2.9 1.6 4 2.8q0.9-2.4 2.7-4.2c0.8-0.7 3.1-2.7 4-1.1c0.7 1.1-0.7 3.8-1.3 4.9c-0.9 1.6-4.6 3.8-5.1 3.8c-2.8-0.4-8.9-3.1-8.6-5.5c0.2-1.8 2.9-1.4 4.3-0.7z" />
	<path id="Layer" class="s17" d="m527.1 301c1.6 0.7 2.9 1.7 4 2.9c0.6-1.6 1.4-3 2.7-4.3c0.8-0.6 3.1-2.6 4-1.1c0.7 1.2-0.7 3.9-1.3 4.9c-0.9 1.7-4.6 3.9-5.1 3.9c-2.8-0.4-8.9-3.1-8.6-5.5c0.2-1.8 2.9-1.4 4.3-0.8z" />
	<path id="Layer" class="s17" d="m528.6 309.9c1.5 0.9 2.7 2 3.6 3.4c0.8-1.5 1.9-2.8 3.3-3.8c0.8-0.6 3.4-2.3 4.1-0.6c0.5 1.3-1.3 3.8-2 4.7c-1.1 1.5-5.1 3.2-5.5 3.1c-2.8-0.8-8.4-4.3-7.8-6.7c0.4-1.7 3-0.9 4.3-0.1z" />
	<path id="Layer" class="s10" d="m533.6 316c0 1.1-1.6 1.1-1.6 0c0.2-15-4.8-29.4-6.7-44.3q0-0.2 0.1-0.3c-1.8-8.9-3.6-17.9-6.3-26.6c-2.6-8.7-6.8-17.2-14.8-22.2c-0.9-0.6-0.1-1.9 0.8-1.4c7.1 4.5 11.5 11.6 14.3 19.3c3.5 10 5.5 20.6 7.6 30.9q0 0.2 0 0.4c1.8 14.8 6.8 29.2 6.6 44.2z" />
	<path id="Layer" class="s17" d="m497.4 217.1c0.1-0.2 0.3-0.5 0.6-0.5c1.4-0.3 3.5 0.1 4.8 0.8c1.6 0.9 2.3 2.5 2.8 4.1c0.2 0.7-0.4 1.1-1 1q-0.2 0.1-0.4 0.2c-1.8 0-4.1-0.1-5.5-1.3c-1.1-0.9-1.6-2.9-1.3-4.3z" />
	<path id="Layer" class="s17" d="m569.7 228.4c-1.2 2-7.7 0.6-10.2-0.9c-0.4-0.2-0.4-0.7-0.3-1c-1.2-1.4-1.7-3.2-1.4-5.1c0.2-1.2 0.7-4.2 2-4.7c1.6-0.7 2.3 2.3 2.4 3.3c0.3 1.7 0.1 3.4-0.4 5c1.6-0.3 3.3-0.3 5 0.1c1.4 0.4 3.9 1.7 2.9 3.3z" />
	<path id="Layer" class="s17" d="m563.5 235.6c-1 2.2-7.6 1.5-10.3 0.4c-0.4-0.2-0.5-0.7-0.4-1c-1.4-1.3-2.1-3-2-4.9c0-1.1 0.1-4.2 1.3-4.8c1.6-0.9 2.6 1.9 2.9 2.9c0.5 1.7 0.5 3.4 0.2 5c1.6-0.5 3.2-0.7 4.9-0.4c1.5 0.1 4.1 1.1 3.4 2.8z" />
	<path id="Layer" class="s17" d="m559.7 242.9c-0.5 2.3-7.1 3.2-9.9 2.7c-0.5-0.1-0.7-0.5-0.6-0.9c-1.7-0.9-2.7-2.4-3.1-4.2c-0.3-1.2-0.8-4.2 0.2-5.1c1.3-1.2 2.9 1.3 3.4 2.2c0.9 1.5 1.3 3.2 1.4 4.9c1.4-0.8 3-1.4 4.7-1.6c1.5-0.2 4.2 0.2 3.9 2z" />
	<path id="Layer" class="s17" d="m557.5 250.5c-0.1 2.4-6.5 4.3-9.4 4.2c-0.4 0-0.7-0.4-0.7-0.8c-1.8-0.6-3-2-3.7-3.7c-0.4-1.1-1.4-4-0.5-5.1c1.1-1.4 3.1 0.9 3.7 1.7c1.1 1.4 1.7 2.9 2.1 4.6c1.3-1 2.7-1.8 4.4-2.2c1.4-0.4 4.2-0.5 4.1 1.3z" />
	<path id="Layer" class="s17" d="m554.6 261.2c-0.1 2.4-6.5 4.2-9.4 4.1c-0.5 0-0.7-0.4-0.7-0.7c-1.8-0.7-3-2-3.7-3.8c-0.4-1.1-1.4-4-0.6-5c1.2-1.4 3.1 0.9 3.8 1.7c1.1 1.3 1.7 2.9 2.1 4.6c1.2-1.1 2.7-1.9 4.3-2.3c1.5-0.4 4.3-0.4 4.2 1.4z" />
	<path id="Layer" class="s17" d="m553.3 267.7c-0.1 2.4-6.5 4.3-9.4 4.2c-0.5 0-3.7-2.7-4.4-4.5c-0.4-1.1-1.4-4-0.5-5c1.1-1.5 3.1 0.8 3.7 1.6c1.1 1.4 1.7 3 2.1 4.6c1.3-1 2.7-1.8 4.4-2.2c1.4-0.4 4.2-0.4 4.1 1.3z" />
	<path id="Layer" class="s17" d="m550.2 284.5c-0.1 2.4-6.5 4.3-9.4 4.2c-0.5 0-3.8-2.8-4.5-4.5c-0.4-1.1-1.3-4-0.5-5c1.1-1.5 3.1 0.8 3.7 1.6c1.1 1.4 1.8 3 2.1 4.6c1.3-1 2.8-1.8 4.4-2.2c1.5-0.4 4.2-0.5 4.2 1.3z" />
	<path id="Layer" class="s17" d="m551.5 275.7c0 2.4-6.4 4.2-9.3 4.1c-0.5 0-3.8-2.7-4.5-4.5c-0.4-1.1-1.4-4-0.5-5c1.1-1.4 3.1 0.8 3.7 1.6c1.1 1.4 1.8 3 2.1 4.7c1.3-1.1 2.7-1.9 4.4-2.3c1.5-0.4 4.2-0.4 4.1 1.4z" />
	<path id="Layer" class="s17" d="m548.6 291.4c0.3 2.4-5.8 5.1-8.7 5.5c-0.5 0-4.1-2.2-5-3.9c-0.6-1-2-3.7-1.3-4.9c0.9-1.5 3.2 0.5 3.9 1.1c1.3 1.3 2.2 2.7 2.8 4.3c1.1-1.2 2.4-2.2 4-2.9c1.4-0.6 4.1-1 4.3 0.8z" />
	<path id="Layer" class="s17" d="m547.5 301.4c0.3 2.4-5.8 5.2-8.7 5.5c-0.5 0.1-4.1-2.1-5-3.8c-0.6-1-2-3.7-1.3-4.9c0.9-1.5 3.2 0.4 3.9 1.1c1.3 1.2 2.2 2.7 2.8 4.3c1.1-1.2 2.4-2.2 4-2.9c1.4-0.6 4.1-1 4.3 0.7z" />
	<path id="Layer" class="s17" d="m546 309.7c0.6 2.3-5 5.9-7.8 6.6c-0.5 0.2-4.4-1.5-5.6-3c-0.7-1-2.4-3.4-1.9-4.7c0.7-1.7 3.2 0 4.1 0.5q2.1 1.7 3.3 3.9c0.9-1.4 2.1-2.6 3.5-3.4c1.3-0.8 4-1.6 4.4 0.1z" />
	<path id="Layer" class="s10" d="m543.3 271.5q-0.1-0.2 0-0.4c2-10.3 4-21 7.6-30.9c2.8-7.7 7.2-14.8 14.3-19.3c0.8-0.5 1.6 0.8 0.8 1.3c-8 5.1-12.2 13.5-14.9 22.3c-2.6 8.7-4.5 17.6-6.2 26.5q0 0.2 0 0.4c-1.8 14.9-6.8 29.2-6.6 44.3c0 1.1-1.6 1.1-1.7 0c-0.2-15.1 4.9-29.4 6.7-44.2z" />
	<path id="Layer" class="s17" d="m571.6 221.1c-1.4 1.2-3.7 1.3-5.5 1.2q-0.3 0-0.5-0.2c-0.5 0.2-1.1-0.2-0.9-0.9c0.5-1.6 1.1-3.2 2.8-4.1c1.3-0.7 3.3-1.2 4.8-0.8c0.3 0 0.5 0.3 0.5 0.5c0.4 1.4-0.1 3.4-1.2 4.3z" />
	<path id="Layer" class="s5" d="m397 60.4h-133.1v-6.6h133.1z" />
	<path id="Layer" class="s18" d="m409.4 98.2h-157.9l12.4-37.8h133.1z" />
	<path id="Layer" class="s19" d="m397 57.1h-133.1v-6.6h133.1z" />
	<path id="Layer" class="s3" d="m386 240.2h-141.8c0-4.5 3.7-8.1 8.2-8.1h125.4c4.5 0 8.2 3.6 8.2 8.1z" />
	<path id="Layer" class="s5" d="m387 244.1h-143.4l-0.1-7.8h145.1z" />
	<path id="Layer" class="s5" d="m301.6 298.9h-3.5l-28.9-62.6h3.4z" />
	<path id="Layer" class="s5" d="m337.9 298.9h-3.4l-29-62.6h3.5z" />
	<path id="Layer" fill-rule="evenodd" class="s5" d="m357.9 302.5v35.5c0 3.1-2.5 5.7-5.6 5.7h-103.1c-3.1 0-5.7-2.6-5.7-5.7v-101.7h3.5v60.6h105.2c3.1 0 5.7 2.5 5.7 5.6zm-110.9 33.5c0 2 1.6 3.6 3.6 3.6h100.2c2 0 3.6-1.6 3.6-3.6v-31.5c0-2-1.6-3.6-3.6-3.6h-103.8z" />
	<path id="Layer" class="s7" d="m256.4 348c0 3.6-2.9 6.5-6.4 6.5c-3.6 0-6.5-2.9-6.5-6.5c0-3.5 2.9-6.4 6.5-6.4c3.5 0 6.4 2.9 6.4 6.4z" />
	<path id="Layer" class="s8" d="m253.8 348c0 2.2-1.7 3.9-3.8 3.9c-2.2 0-3.9-1.7-3.9-3.9c0-2.1 1.7-3.8 3.9-3.8c2.1 0 3.8 1.7 3.8 3.8z" />
	<path id="Layer" class="s7" d="m279.2 348c0 3.6-2.9 6.5-6.4 6.5c-3.6 0-6.5-2.9-6.5-6.5c0-3.5 2.9-6.4 6.5-6.4c3.5 0 6.4 2.9 6.4 6.4z" />
	<path id="Layer" class="s8" d="m276.6 348c0 2.2-1.7 3.9-3.8 3.9c-2.2 0-3.9-1.7-3.9-3.9c0-2.1 1.7-3.8 3.9-3.8c2.1 0 3.8 1.7 3.8 3.8z" />
	<path id="Layer" class="s7" d="m335.2 348c0 3.6-2.9 6.5-6.5 6.5c-3.5 0-6.4-2.9-6.4-6.5c0-3.5 2.9-6.4 6.4-6.4c3.6 0 6.5 2.9 6.5 6.4z" />
	<path id="Layer" class="s8" d="m332.6 348c0 2.2-1.7 3.9-3.9 3.9c-2.1 0-3.8-1.7-3.8-3.9c0-2.1 1.7-3.8 3.8-3.8c2.2 0 3.9 1.7 3.9 3.8z" />
	<path id="Layer" class="s7" d="m357.9 348c0 3.6-2.8 6.5-6.4 6.5c-3.5 0-6.4-2.9-6.4-6.5c0-3.5 2.9-6.4 6.4-6.4c3.6 0 6.4 2.9 6.4 6.4z" />
	<path id="Layer" class="s8" d="m355.4 348c0 2.2-1.7 3.9-3.9 3.9c-2.1 0-3.9-1.7-3.9-3.9c0-2.1 1.8-3.8 3.9-3.8c2.2 0 3.9 1.7 3.9 3.8z" />
	<path id="Layer" class="s5" d="m257.2 244.1h-38.1v-7.8h38.1z" />
	<path id="Layer" class="s5" d="m221.6 244.1h-5.1l-4.8-36.5h5.1z" />
	<path id="Layer" class="s1" d="m235.6 230.6h-41.3c-0.6 0-1.2-0.5-1.2-1.2v-41.5c0-0.7 0.6-1.2 1.2-1.2h41.3c0.6 0 1.2 0.5 1.2 1.2v41.5c0 0.7-0.6 1.2-1.2 1.2z" />
	<path id="Layer" class="s3" d="m241.4 230.6h-41.2c-0.6 0-1.2-0.5-1.2-1.2v-41.5c0-0.7 0.6-1.2 1.2-1.2h41.2c0.7 0 1.2 0.5 1.2 1.2v41.5c0 0.7-0.5 1.2-1.2 1.2z" />
	<path id="Layer" class="s7" d="m236 221.8h-30.4c-1.6 0-3-1.4-3-3v-25.9c0-1.7 1.4-3 3-3h30.4c1.7 0 3 1.3 3 3v25.9c0 1.6-1.3 3-3 3z" />
	<path id="Layer" class="s20" d="m205.1 228.1c-1 0-1.8-0.8-1.8-1.8c0-1 0.8-1.8 1.8-1.8c1.1 0 1.9 0.8 1.9 1.8c0 1-0.8 1.8-1.9 1.8z" />
	<path id="Layer" class="s21" d="m211.1 228.1c-1 0-1.8-0.8-1.8-1.8c0-1 0.8-1.8 1.8-1.8c1 0 1.8 0.8 1.8 1.8c0 1-0.8 1.8-1.8 1.8z" />
	<path id="Layer" class="s21" d="m227.4 228.1c-1 0-1.8-0.8-1.8-1.8c0-1 0.8-1.8 1.8-1.8c1 0 1.8 0.8 1.8 1.8c0 1-0.8 1.8-1.8 1.8z" />
	<path id="Layer" class="s1" d="m218.9 221.8h-6l-5.9-31.9h5.9z" />
	<path id="Layer" class="s1" d="m226.3 221.8h-2.9l-6-31.9h3z" />
	<path id="Layer" class="s13" d="m511.2 78.9v7.3l-27.2 0.1v-7.3z" />
	<path id="Layer" class="s22" d="m509.4 78.9v7.3l-27.2 0.1v-7.3z" />
	<path id="Layer" class="s13" d="m480.7 78.9h30.5v1.2h-30.5z" />
	<path id="Layer" class="s13" d="m480.7 84.9h30.5v1.3h-30.5z" />
	<path id="Layer" class="s5" d="m520.9 86.1v7.3l-27.2 0.1l-0.1-7.3z" />
	<path id="Layer" class="s22" d="m519.1 86.1v7.3l-27.2 0.1l-0.1-7.3z" />
	<path id="Layer" class="s5" d="m490.4 86.1h30.5v1.2h-30.5z" />
	<path id="Layer" class="s5" d="m490.4 92.1h30.5v1.3h-30.5z" />
	<path id="Layer" class="s17" d="m514.3 93.1v7.3l-32.7 0.1l-0.1-7.3z" />
	<path id="Layer" class="s22" d="m512.1 93.1v7.3l-32.7 0.1v-7.3z" />
	<path id="Layer" class="s17" d="m477.7 93.1h36.6v1.2h-36.6z" />
	<path id="Layer" class="s17" d="m477.7 99.1h36.6v1.2h-36.6z" />
	<path id="Layer" class="s17" d="m442.8 171.3v-8.2l36.7-0.1v8.2z" />
	<path id="Layer" class="s22" d="m445.2 171.3v-8.2l36.7-0.1v8.2z" />
	<path id="Layer" class="s17" d="m483.8 171.3h-41v-1.3h41z" />
	<path id="Layer" class="s17" d="m483.8 164.5h-41v-1.3h41z" />
	<path id="Layer" class="s5" d="m440.3 179.3l-0.1-8.2l30.6-0.1v8.2z" />
	<path id="Layer" class="s22" d="m442.3 179.3v-8.2l30.5 0.4v7.7z" />
	<path id="Layer" class="s5" d="m474.4 179.3h-34.1v-1.3h34.1z" />
	<path id="Layer" class="s5" d="m474.4 172.5h-34.1v-1.3h34.1z" />
	<path id="Layer" class="s17" d="m463.5 133.3v-8.2l36.7-0.1v8.2z" />
	<path id="Layer" class="s22" d="m466 133.3l-0.1-8.2l36.7-0.1l0.1 8.2z" />
	<path id="Layer" class="s17" d="m504.5 133.3h-41v-1.3h41z" />
	<path id="Layer" class="s17" d="m504.5 126.5h-41v-1.3h41z" />
	<path id="Layer" class="s5" d="m461 141.3v-8.1l30.5-0.2v8.2z" />
	<path id="Layer" class="s22" d="m463 141.3v-8.1l30.5 0.3v7.7z" />
	<path id="Layer" class="s5" d="m495.1 141.3h-34.1v-1.3h34.1z" />
	<path id="Layer" class="s5" d="m495.1 134.5h-34.1v-1.3h34.1z" />
	<path id="Layer" class="s5" d="m448.3 141.1h-6.5v-24.8h6.5z" />
	<path id="Layer" class="s13" d="m434.6 141.3l-6.2-1.8l7.2-23.8l6.2 1.9z" />
	<path id="Layer" class="s17" d="m455.8 141.1h-5.9v-17.8h5.9z" />
	<path id="Layer" class="s5" d="m514.7 180h-6.5v-24.8h6.5z" />
	<path id="Layer" class="s13" d="m501 180.2l-6.2-1.9l7.2-23.7l6.2 1.8z" />
	<path id="Layer" class="s17" d="m522.2 180h-5.9v-17.8h5.9z" />
	<path id="Layer" class="s20" d="m422.9 100.1h14.4v3.2h-14.4z" />
	<path id="Layer" class="s19" d="m533.9 103.3h-98.4v-3.2h98.4z" />
	<path id="Layer" class="s20" d="m422.9 179.3h14.4v3.3h-14.4z" />
	<path id="Layer" class="s19" d="m533.9 182.6h-98.4v-3.3h98.4z" />
	<path id="Layer" class="s20" d="m422.9 140.5h14.4v3.2h-14.4z" />
	<path id="Layer" class="s19" d="m533.9 143.7h-98.4v-3.2h98.4z" />
	<path id="Layer" class="s6" d="m263.7 82.1h133.5v96.5h-133.5z" />
	<path id="Layer" class="s20" d="m263.7 174.9h133.5v3.7h-133.5z" />
	<path id="Layer" class="s20" d="m263.7 82.1h133.5v3.7h-133.5z" />
	<path id="Layer" class="s5" d="m347.8 162q0-0.3 0.3-0.3h39.4c0.1 0 0.3 0.1 0.3 0.3c0 0.2-0.2 0.3-0.3 0.3h-39.4q-0.3 0-0.3-0.3z" />
	<path id="Layer" class="s5" d="m347.8 166.9q0-0.3 0.3-0.3h39.4c0.1 0 0.3 0.1 0.3 0.3c0 0.2-0.2 0.3-0.3 0.3h-39.4q-0.3 0-0.3-0.3z" />
	<path id="Layer" class="s5" d="m373.1 139.3c0-0.2 0-0.3 0.1-0.3h14.4c0.1 0 0.2 0.1 0.2 0.3c0 0.2-0.1 0.3-0.2 0.3h-14.4c-0.1 0-0.1-0.1-0.1-0.3z" />
	<path id="Layer" class="s5" d="m337.1 139.3c0-0.2 0.1-0.3 0.2-0.3h31.5c0.1 0 0.1 0.1 0.1 0.3c0 0.2 0 0.3-0.1 0.3h-31.5c-0.1 0-0.2-0.1-0.2-0.3z" />
	<path id="Layer" class="s5" d="m364.6 149.5c0-0.1 0.1-0.3 0.3-0.3h22.7c0.1 0 0.2 0.2 0.2 0.3c0 0.2-0.1 0.4-0.2 0.4h-22.7c-0.2 0-0.3-0.2-0.3-0.4z" />
	<path id="Layer" class="s5" d="m337.1 149.5c0-0.1 0-0.3 0.1-0.3h21c0.1 0 0.2 0.2 0.2 0.3c0 0.2-0.1 0.4-0.2 0.4h-21c-0.1 0-0.1-0.2-0.1-0.4z" />
	<path id="Layer" class="s5" d="m337.1 144.2c0-0.2 0.2-0.3 0.4-0.3h49.9c0.2 0 0.4 0.1 0.4 0.3c0 0.2-0.2 0.3-0.4 0.3h-49.9c-0.2 0-0.4-0.1-0.4-0.3z" />
	<path id="Layer" class="s5" d="m277 162q0-0.3 0.3-0.3h56.8q0.3 0 0.3 0.3q0 0.3-0.3 0.3h-56.8q-0.3 0-0.3-0.3z" />
	<path id="Layer" class="s5" d="m277 166.9q0-0.3 0.3-0.3h56.8q0.3 0 0.3 0.3q0 0.3-0.3 0.3h-56.8q-0.3 0-0.3-0.3z" />
	<path id="Layer" class="s5" d="m276.6 145.6c0-0.2 0.1-0.4 0.2-0.4h34.5c0.1 0 0.2 0.2 0.2 0.4c0 0.1-0.1 0.3-0.2 0.3h-34.5c-0.1 0-0.2-0.2-0.2-0.3z" />
	<path id="Layer" class="s5" d="m276.6 150.5c0-0.2 0.1-0.3 0.2-0.3h34.5c0.1 0 0.2 0.1 0.2 0.3c0 0.2-0.1 0.3-0.2 0.3h-34.5c-0.1 0-0.2-0.1-0.2-0.3z" />
	<path id="Layer" class="s20" d="m335.2 98.2q0 0.1 0 0.1q-0.1 0.2-0.1 0.3q-0.5 1.3-1.1 2.6q0 0.1-0.1 0.2q0 0.1-0.1 0.2q-0.5 1.1-1.1 2.2q-0.1 0.2-0.3 0.4q-0.1 0.2-0.2 0.4q-0.5 0.8-1.2 1.6q-0.2 0.2-0.4 0.3q-0.9 0.9-1.9 1.6q0 0.1-0.1 0.1q-0.1 0.1-0.2 0.2q-0.1 0-0.1 0q-0.6 0.4-1.2 0.7q0 0 0 0.1q-0.2 0-0.3 0.1q0 0-0.1 0.1q-0.7 0.3-1.5 0.7q-0.2 0.1-0.5 0.2q-1.9 0.8-4 1.4q0.3 0.4 0.6 0.9q0 0 0 0.1c0.3 0.8 0.4 1.7 0.5 2.5q0.1 0.2 0.1 0.3c0.1 0.1 0.2 0.1 0.1 0.3c0.5 1.2 0.5 2.5 0.7 3.8c0.1 0.9 0.3 1.9 0.9 2.7c0.7 1 1.7 1.1 2.7 1.7c0.3 0.2 0.5 0.4 0.6 0.8c0.3 1 0.4 2 0.6 3q0.2 1.4 0.5 2.8c0.1 0.4 0.2 0.9 0.1 1.4c-0.3 0.9-1.6 0.7-2.4 0.5c-0.7-0.1-1.3-0.5-1.1-1.3c0.1-0.2 0.2-0.3 0.3-0.5c0.4-0.7 0.4-1.2 0-1.9c-0.4-0.9-1.1-1.4-1.9-1.8q-1.1-0.6-2.1-1.2q0.1 0.1 0.1 0.3c0.3 0.9 0 1.6-0.4 2.4q-0.1 0.3-0.3 0.6q-0.2 0.3-0.4 0.7q-0.1 0.2-0.2 0.4q-0.3 0.4-0.5 0.7q-0.2 0.3-0.4 0.5q-0.3 0.5-0.7 0.9c-0.7 0.7-1.5 0.7-2.5 0.5c-0.7-0.1-1.3-0.4-1.2-1.2c0.1-0.7 0.7-1 1.3-1.2q0-0.1 0-0.1q0.5-0.9 0.9-1.8c0.1-0.2 0.6-1.3 0.4-1.5c0-0.1-0.6-0.2-0.7-0.3q-0.7-0.3-1.3-0.7c-0.9-0.7-1.9-1.6-2.5-2.6c-2.9 0.1-5.7-0.5-8.5-1c-2.3-0.3-4.6-0.6-6.8-1.1c0.3 1.4 1.1 2.5 1.4 3.9c0.4 1.4 0.2 2.9 0.1 4.3c-0.1 0.9 0 2.3-0.9 2.8c-0.9 0.6-2.4 0.3-3.4 0.2c0 0-0.1-0.1-0.1-0.2c-0.1-0.4-0.1-0.8 0.1-1.2c0.3-0.4 0.2-0.1 0.5-0.5c0.7-0.7 0.9-1.1 0.6-2c-0.5-1.7-1.9-3-2.6-4.7q-0.4 0.3-0.9 0.6q-0.2 0.1-0.3 0.2q-0.6 0.4-1.1 0.7q-0.2 0.1-0.4 0.2q-0.3 0.2-0.6 0.5c-0.9 0.6-1.8 1.4-2.5 2.2q0 0.1-0.1 0.1q-0.3 0.4-0.6 0.9c-0.5 0.6-0.6 1.2-0.8 1.9c-0.1 0.4-0.2 0.8-0.5 1.1c-0.4 0.3-1 0.3-1.5 0.1c-1.5-0.8-1-3.3-0.2-4.5q0-0.1 0-0.2c0.9-1.6 1.9-3.2 3.4-4.4c0.3-0.3 0.8-0.6 1.1-0.9c0.6-0.8 0.2-1.7 0-2.6q-0.1-0.8-0.2-1.6q0-0.1 0-0.1c-0.7-1.2-1.8-2-3-2.6q-0.1 0-0.1 0c-1.8-0.9-3.8-1.5-5.8-2c-1.1-0.2-2-0.6-2.2-1.8c-0.4-0.4-0.7-0.8-0.6-1.3q-0.1 0-0.1 0q-0.1 0-0.2-0.1c-0.1-0.2 0-0.6 0.1-0.8c0.1-0.2 0.2-0.4 0.4-0.5c0.1-0.2 0.4-0.2 0.5 0q0 0 0 0.1q0.5-0.5 1.1-0.8c0.7-1.6 2-3 3.5-3.6c0-0.3 0-0.6 0-0.8q0-1.2 0.3-2.3c0.1-0.2 0.4-0.3 0.5-0.1c0.3 0.5 0.8 1.1 1.2 1.6q0-0.8 0.3-1.6c0-0.2 0.3-0.2 0.4-0.1c0.8 1.2 1.9 2.4 2.1 3.8q0.3 0.2 0.5 0.4c0.6 0.5 1 1.1 1.6 1.6c0.5 0.5 1.2 0.7 1.8 1.1c1.4 0.2 2.9 0.1 4.3 0q1.6-0.1 3.2-0.2q0.9-0.1 1.8-0.3c1.2-0.1 2.3-0.1 3.5-0.1q3.8 0.2 7.7 0.5c2.3 0.2 4.7 0.4 6.9 1c0.9 0.2 1.6 0.6 2.2 1.1q0.1-0.2 0.4-0.4c0.7-0.6 1.8-0.8 2.7-1.3q1.7-0.8 3.1-2.1c1.3-1.2 2.7-2.5 3.8-3.9q0.1-0.1 0.1-0.1q0.6-0.7 1-1.4q0.2-0.3 0.4-0.6q0.1-0.3 0.2-0.5q0.6-1.2 0.9-2.6q0.1-0.1 0.1-0.2q0.2-1 0.4-2q0.1-0.2 0.1-0.4q0.1-0.4 0.2-0.7c0.2-1.2 0.3-2.4 0.6-3.5c0.1-0.5 0.3-1.3 0.9-1.5c1.3-0.3 1.9 2.1 1.9 2.9c0.2 2.1-0.5 4.3-1.2 6.2z" />
	<path id="Layer" class="s19" d="m388 104.5h-103.6v-1.1h103.6z" />
	<path id="Layer" class="s5" d="m284.4 105.5c-0.8 0-1.5-0.7-1.5-1.6c0-0.8 0.7-1.5 1.5-1.5c0.9 0 1.5 0.7 1.5 1.5c0 0.9-0.6 1.6-1.5 1.6z" />
	<path id="Layer" class="s19" d="m388 114.5h-75.6v-1h75.6z" />
	<path id="Layer" class="s5" d="m312.4 115.5c-0.8 0-1.5-0.7-1.5-1.5c0-0.9 0.7-1.6 1.5-1.6c0.8 0 1.5 0.7 1.5 1.6c0 0.8-0.7 1.5-1.5 1.5z" />
	<path id="Layer" class="s19" d="m388 128.5h-67.7v-1.1h67.7z" />
	<path id="Layer" class="s5" d="m320.3 129.5c-0.8 0-1.5-0.7-1.5-1.6c0-0.8 0.7-1.5 1.5-1.5c0.9 0 1.6 0.7 1.6 1.5c0 0.9-0.7 1.6-1.6 1.6z" />
	<path id="Layer" class="s23" d="m332.4 172.7l4.5-7h0.1l-4.5 7z" />
	<path id="Layer" class="s23" d="m333.8 173l5.2-4.6l0.1 0.1l-5.2 4.6z" />
	<path id="Layer" class="s20" d="m322.3 168.7q0.3-4.1 0.5-8.2c0-0.5 0.6-0.8 1-0.4c2 2.3 4.2 5.4 4.9 8.5c0.7 3.1-4.5 1.2-5.8 0.7q0 0-0.1 0c-0.3-0.1-0.5-0.2-0.5-0.6z" />
	<path id="Layer" class="s20" d="m309.7 168.8c1-0.3 2.4 0.1 3.4 0.3q2.3 0.3 4.6 0.9c0.2 0 0.4 0.2 0.4 0.4c0.3 0.1 0.6 0.4 0.4 0.9q-1.7 2.9-2.7 6.2c-0.1 0.4-0.6 0.5-1 0.2q-1.9-1.9-3.4-4.1c-0.8-1.2-2-2.9-2.1-4.3c0-0.2 0.2-0.5 0.4-0.5z" />
	<path id="Layer" class="s20" d="m324.2 219.6q7.9 11.4 4.3 12.1q-3.7 0.7-23-0.5q14.7-11.2 18.7-11.6z" />
	<path id="Layer" class="s24" d="m323.7 166.3q0-1.5 0.1-3c0-0.5 0.6-0.7 1-0.4c1.3 1.4 2.1 3.4 2.8 5.2q0.1 0.1 0.2 0.1c0.3 0.2 0.3 0.6 0.2 0.9c0 0.5-0.8 0.9-1 0.3q-0.1-0.1-0.1-0.1c-1.1 0-2.7 0-3.1-0.9c-0.2-0.6-0.1-1.5-0.1-2.1z" />
	<path id="Layer" class="s24" d="m312.1 170.5c2 0.7 4.2 0.5 6.2 1.1c0.5 0.2 0.5 0.7 0.2 1c0.1 0.2 0.1 0.4 0 0.5q-0.6 1.2-1.4 2.3c-0.2 0.2-0.5 0.3-0.7 0.2c-1.9-1.2-3.7-2.4-5-4.2c-0.2-0.4 0.2-1 0.7-0.9z" />
	<path id="Layer" class="s20" d="m299.1 216.6c1.5-3.4 4-5.2 6.5-7.6c3-2.9 5.6-6.1 7.8-9.5c2.4-3.8 4.9-8.2 5.4-12.6c-2.5-1.1-4.6-2.7-6.2-4.9c-0.2-0.2-0.1-0.4 0-0.6c2-4.1 1.7-9.2 6-12c4.3-2.7 9.6-0.9 13.9 0.8c0.2 0.1 0.3 0.3 0.4 0.5c1.3 1.2 1.9 3.4 1.9 5.1q0 0.1 0 0.2q0 0.1 0 0.3c-0.3 3.7-2.8 6.5-5.4 9q0.1 0.1 0.1 0.3q0 1.6 0.1 3.1c0.1 6.2 0.9 12.4 0 18.6c-0.7 5.1-2.7 10.1-5.5 14.4q-0.6 1-1.3 2c-3 4-7 8.2-12.3 8.6c-4.1 0.2-11.1 0.6-13.2-1.2c-0.4-1.5-0.4-3.7-0.4-4c0.1-3.6 0.7-7.2 2.2-10.5z" />
	<path id="Layer" class="s19" d="m326.2 175c1-2.6 4.5-4.6 7.3-4.1c0.2-0.1 0.4-0.2 0.6-0.1c1.1 0.7 2.1 1.6 2.1 2.9c0 1-0.6 2-1.6 2.2c-0.2 0-0.5-0.1-0.6 0c-0.4 0.3-0.1 0-0.3 0.6c-0.2 0.5-0.3 0.9-0.7 1.5c-0.8 1-2.1 1.5-3.4 1.5c-2.7 0-4.4-1.8-3.4-4.5z" />
	<path id="Layer" class="s8" d="m331.1 171.9c-0.1-0.8 0.4-1.4 1-1.9q0.1-0.2 0.3-0.3q0.3-0.2 0.6 0c0.4-0.1 0.8 0.1 1 0.6c0.1 0.4 0.1 0.9 0.1 1.3c0 0.6 0 1.1-0.2 1.6c-0.1 0.2-0.3 0.3-0.5 0.3c-0.4 0-0.9-0.1-1.4-0.4c-0.5-0.2-0.9-0.6-0.9-1.2z" />
	<path id="Layer" class="s20" d="m323.3 203.9c-0.1-0.2-1.6-4.9 2.3-5.1c0.5 0 4.8-0.3 3.9 3.7c-0.9 3.9 0.2 17.7 0.6 21.7c0.1 1.9 0.3 3.4 1.4 5c0.4 0.6 0.8 1 0.7 1.8c-0.3 2.2-4.1 1.6-5.5 1.7c-0.2 0-0.4-0.1-0.5-0.2c-0.1 0-0.2-0.1-0.3-0.4c-2.1-9.2-2.9-18.7-2.6-28.2z" />
	<path id="Layer" class="s23" d="m324.6 170.3c0.7 0 1.3 0.6 1.3 1.3c0 0.8-0.6 1.3-1.3 1.3c-0.8 0-1.3-0.5-1.3-1.3c0-0.7 0.5-1.3 1.3-1.3z" />
	<path id="Layer" class="s23" d="m328.4 168c0.7 0 1.3 0.6 1.3 1.3c0 0.7-0.6 1.3-1.3 1.3c-0.8 0-1.4-0.6-1.4-1.3c0-0.7 0.6-1.3 1.4-1.3z" />
	<path id="Layer" class="s20" d="m295.7 211.3c1.4-2.4 2.9-4.7 3.7-7.4c0.9-3.1 0.9-6.3 0.2-9.5c-0.4-2.3-3.5-8.2-1.2-10.4c2.5-2.4 4.6 2.8 5.3 4.3c1.7 4.3 2 8.9 0.6 13.4c-1.4 4.6-4.2 8.5-6.6 12.6c-1.3 2.3-2.5 4.7-3.1 7.3c-0.8 3.9 0.3 6.5 3.7 8.6c0.4 0.3 0.3 0.7 0 1c-0.1 0.1-0.3 0.3-0.5 0.2c-8.3-3.2-5.4-14.4-2.1-20.1z" />
	<path id="Layer" class="s19" d="m318.6 203.9c0.5-3.1 1.4-6.4 3.3-9c1.9-2.7 4.8-4.4 7.6-6q0-0.1 0.1-0.2c0.1 6.2 0.9 12.4 0 18.6c-0.7 5.1-2.7 10.1-5.5 14.4q-0.5-0.1-1-0.5c-2.2-1.6-3.4-5.1-4.1-7.6c-0.8-3.1-0.9-6.5-0.4-9.7z" />
	<path id="Layer" class="s19" d="m314.8 204.5c-0.1-0.3-0.1-0.5 0.2-0.7c3.3-2.1 6.9-3.3 10.8-3.5c0.5 0 0.6 0.6 0.4 0.9q0 0.1-0.1 0.3c-1.6 3.7-3.2 7.5-4.1 11.4c-0.9 4-0.8 7.9-0.5 11.8c0.2 2 0.4 3.4 1.5 5.1c0.4 0.5 0.8 1 0.7 1.7c-0.3 2.2-4.1 1.7-5.5 1.8c-0.2 0-0.4-0.1-0.5-0.2c-0.1-0.1-0.2-0.2-0.3-0.4c-2.1-9.3-3-18.7-2.6-28.2z" />
	<path id="Layer" class="s23" d="m319.7 177.8l9-3.5l0.1 0.1l-9 3.5z" />
	<path id="Layer" class="s23" d="m322.3 181.5l7.7-5.7l0.1 0.1l-7.8 5.7z" />
	<path id="Layer" class="s23" d="m328.7 182.3l2.3-5.6h0.1l-2.3 5.7z" />
	<path id="Layer" class="s20" d="m322 204c0.1-0.7 1.2-0.4 1.1 0.3c-1.3 6.9-1.6 15.1-0.2 22c0.2 0.7-0.9 1-1.1 0.3c-1.4-7.1-1.1-15.5 0.2-22.6z" />
	<path id="Layer" class="s20" d="m302.8 217.4c6-1.7 11.7 3.1 10.9 9.4c-0.1 0.7-1.2 0.7-1.1 0c0.7-5.5-4.1-9.8-9.5-8.3c-0.7 0.2-1-0.9-0.3-1.1z" />
	<path id="Layer" class="s3" d="m394 175.7c0 0.5-5.6 2.2-5.7 1.8c-0.4-1.7-1.4-4.7-2.1-6.4c-0.2 0.2-0.4 0.4-0.8 0.3q-3.6-0.7-7.2-1.6c-1.3-0.3-2.9-0.5-3.8-1.6c-0.5-0.6-0.9-1.6-0.3-2.4q0.1-0.1 0.1-0.2c-1.1-1.1-2-2.4-1.1-3.9q0.1-0.2 0.3-0.3c-0.7-1-0.7-2.3 1-2.5c0.7 0 1.6 0.3 2.2 0.5c1.1 0.2 2.3 0.4 3.4 0.5c1.5 0.2 2.8 0.3 4.2 0.6q0.4 0 0.6 0c3.2 0 5.2 2.4 6.8 5.1c2.1 3.3 2.1 8 2.4 10.1z" />
	<path id="Layer" class="s1" d="m382.6 162.7q-0.3 2.4 2.7 3.9q-2.6-1-3-1.8q-0.6-1 0.3-2.1z" />
	<path id="Layer" class="s1" d="m386.5 171.9q5.7-1.7 6.6-2.6l0.5 2.3l-6.6 1.9z" />
	<path id="Layer" fill-rule="evenodd" class="s1" d="m453.9 167.3c-0.2-0.1-0.4-0.2-0.4-0.5c-0.4 0-0.7-0.2-0.7-0.6c-0.1-1.4-0.1-3 1-4c0.7-0.7 2.2-1.3 3.1-0.8c1.1 0.6 0.7 2.3 0.2 3.1q0 0.1 0 0.1c0.9 0 1.7 0.2 1.9 1.3c0.4 2.2-3.9 1.6-5.1 1.4zm0.3-2.2c0.6-0.1 1.1-0.4 1.4-0.9q0.3-0.4 0.5-0.9q0-0.2 0-0.5q0-0.4 0-0.1c-0.6-0.1-1.4 0.5-1.7 1c-0.2 0.5-0.2 0.9-0.2 1.4z" />
	<path id="Layer" class="s1" d="m433.5 168.4l14.2 35.6l27.6 93.3q-52.5 2-61.1-5.3q-2.7-95.2 19.3-123.6z" />
	<path id="Layer" class="s25" d="m460.9 149.4q-6.3 8.9-9.8 8.8q-3.6-0.1 1.4-11.9z" />
	<path id="Layer" class="s3" d="m407.3 197.5c6.3-7.2 19.4-25.2 24.8-27.2c2.4-0.9 3.1 12.9-0.2 20.4c-6 13.9-16.1 28.3-22.1 28.6q-1.2 0-2.3-0.3c-2.7-0.6-4.8-2.6-6-5.6c-0.8-2.1 1.8-11.4 5.8-15.9z" />
	<path id="Layer" class="s3" d="m394.7 172.3c3.7 8.2 8.8 16.1 13.2 22.7c2.5 3.5 4.7 6.7 6.5 9.3c2.3 3.4 3.7 5.9 3.6 7.1c-0.4 3.8-5.3 8.1-10.5 7.6c-1.6-0.1-3.3-0.8-4.8-2.1c-0.9-0.7-1.8-2-2.7-3.6q-0.1-0.1-0.1-0.2q-6.1-10.8-13.4-37.5q4.5-0.3 8.2-3.3z" />
	<path id="Layer" class="s1" d="m416.4 206.5c5.6-9 7.6-24.7 12.5-32.3c1.1-1.6 2.1-2.9 3.2-3.9q0.6 0 1.1 0.1q0.5 0 1 0.2c0.5 3.3 1 12.6-2.3 20.1c-6 13.9-16.1 28.3-22.1 28.6q-1.2 0-2.3-0.3c-1.6-0.1-3.3-0.8-4.8-2.1c-0.9-0.7-1.8-2-2.7-3.6q-0.1-0.1-0.1-0.2c7 3.6 13-1 16.5-6.6z" />
	<path id="Layer" class="s7" d="m420.7 230q24 0.9 37.7 1.4c1.7 0.1 5.4 0.1 6.9 0q1.3 19.3 0.7 30.5q-0.9 16.7-1.7 88.2l-4.5 0.3l-17.4-90.1l-4.4 90.1l-5.2-0.6q-15.6-101.1-12.1-119.8z" />
	<path id="Layer" class="s8" d="m436.2 350.4q6.8-51.2 1.4-88.3q-4-3.4-5.3-7.6q1.9 3 10.1 5.8l-4.3 89.1z" />
	<path id="Layer" class="s8" d="m458.7 265.8q-1.5-17.1-8.8-34.4l14.8-2.9q1.9 20.8 1.3 33.4q-0.5 11.3-1.6 87.5l-1.4 0.8c2.6-24-3.2-71-4.3-84.4z" />
	<path id="Layer" class="s24" d="m451.7 155.6q0 0.1 0 0.1q0 0.1 0 0.2c0 0.9 0.3 4.1 0.8 7.3c0.3 1.5 0.6 3.1 1.1 4.4q-9.9 6.1-19 1.6q0.4-2.3 0.2-5.5q-0.1-1.5-0.4-3.2q-0.3-1.7-0.9-3.5q-0.2-0.6-0.5-1.4z" />
	<path id="Layer" class="s26" d="m451.7 155.6q0 0.1 0 0.1q0 0.1 0 0.2c0 0.9 0.3 4.1 0.8 7.3c-1 0.8-2.7 1.9-5 2.4c-3.6 0.8-8.4 0-12.7-1.9q-0.1-1.5-0.4-3.2c-0.1-0.9-0.3-2-0.9-3.5q-0.2-0.6-0.5-1.4z" />
	<path id="Layer" class="s12" d="m455.4 238.8l1.8 9.9q-4.4-6.1-36.8-12.9q0-2.7 0.6-8.9z" />
	<path id="Layer" class="s3" d="m466.9 201.5q-1.6 29.9-0.1 41.1q-13.6 1-19.9-1.1q12.6-27.7 14-39.7q-4.3-18.1 9.6-25.2q-5.8 19.7-3.6 24.9z" />
	<path id="Layer" class="s21" d="m438.1 349l0.7 4h-16.4q5.3-4 10.5-4c-0.1 0.5 3.8 1.4 5 0.1z" />
	<path id="Layer" class="s13" d="m438.8 354.1h-16.4v-1.1h16.4z" />
	<path id="Layer" class="s21" d="m464.7 349l0.6 4h-16.4q5.4-4 10.6-4c-0.1 0.5 3.7 1.4 5 0.1z" />
	<path id="Layer" class="s13" d="m465.3 354.1h-16.4v-1.1h16.4z" />
	<path id="Layer" class="s24" d="m456.2 150.6q-2.5 6-5.5 8.7c-3.6 3.3-17.4 5.7-19.8 1.4c-3.6-6.2 1.4-30.6 2.5-32.5c1.2-2 18.9-7.9 23.9 0.9q5.1 8.7-1.1 21.5z" />
	<path id="Layer" class="s25" d="m437.3 119.6c10.7-0.9 27.2-2.1 26.3 8.7c1.7 0.7 2.3 5 1.9 6.7c-2 8.8-3.5 11.3-4.4 13.2c-1 2.2-3.6 1.3-4.7 0.8c-5.2-1.9-6.5-11.1-2.9-18.5c-4.7-0.9-8.6-1.9-13.8-1.2c-2.3 0.3-6.7 2-8.9 0.4c-3.2-2.4-1.2-9.4 6.5-10.1z" />
	<path id="Layer" class="s26" d="m435.7 148.4l0.2-0.9c0.1 0.2 0.5 0.4 1 0.6c0.5 0.1 1.2 0.1 1.8 0.5c-0.6 0.2-1.1 0.4-1.9 0.5c-0.3 0.1-0.7 0-1.1-0.1c-0.4-0.1-0.8-0.4-1-0.8l-0.4-0.4l0.5-0.5c1-1 1.8-2.1 2.7-3.4c0.3 1.7-0.5 3.3-1.8 4.5z" />
	<path id="Layer" class="s3" d="m443.7 141.8c-2.7-0.2-3.5-3.3-2.6-3.8c2.4-1.3 6.1-0.1 6 1.2c-0.1 1.1-1.1 2.8-3.4 2.6z" />
	<path id="Layer" class="s7" d="m443.7 137.9c1-0.1 1.8 0.6 1.9 1.6c0.1 0.9-0.6 1.8-1.6 1.9c-1 0.1-1.8-0.6-1.9-1.6c-0.1-1 0.6-1.8 1.6-1.9z" />
	<path id="Layer" class="s3" d="m442.5 138c0.4 0 0.6 0.2 0.7 0.5c0 0.4-0.2 0.6-0.6 0.7c-0.3 0-0.6-0.2-0.6-0.6c0-0.3 0.2-0.6 0.5-0.6z" />
	<path id="Layer" class="s3" d="m434.7 141.2c-2.5-0.2-3.3-3.3-2.5-3.8c2.1-1.3 5.6-0.1 5.5 1.2c0 1.1-0.9 2.8-3 2.6z" />
	<path id="Layer" class="s7" d="m434.5 137.3c1-0.1 1.9 0.6 2 1.6c0.1 0.9-0.6 1.8-1.6 1.9c-1 0.1-1.8-0.6-1.9-1.6c-0.1-0.9 0.6-1.8 1.5-1.9z" />
	<path id="Layer" class="s3" d="m433.4 137.4c0.3 0 0.6 0.2 0.6 0.6c0.1 0.3-0.2 0.6-0.5 0.6c-0.3 0.1-0.6-0.2-0.7-0.5c0-0.3 0.2-0.6 0.6-0.7z" />
	<path id="Layer" class="s25" d="m448.6 135.6c-0.2 0.3-0.4 0.4-0.7 0.3c-1.2-0.2-4.5-0.9-6.2-0.5c-0.4 0.1-0.7-0.2-0.8-0.6c-0.1-1.6 0.1-3 0.7-3.4c0.6-0.4 7.4 1.4 7.6 2.2c0.1 0.4-0.3 1.4-0.6 2z" />
	<path id="Layer" class="s25" d="m429.9 133.4c0.3-0.8 6.7-2.7 7.3-2.3c0.5 0.3 0.7 1.8 0.6 3.4c-0.1 0.3-0.4 0.6-0.8 0.5c-1.6-0.3-4.8 0.4-5.9 0.7c-0.2 0-0.5-0.1-0.6-0.3c-0.2-0.6-0.7-1.6-0.6-2z" />
	<path id="Layer" class="s27" d="m459.3 148.8q-7.6 0.7-7.8-8.2q8.7 1.1 14.2-6.9q-2.7 14.8-6.4 15.1z" />
	<path id="Layer" class="s3" d="m394.2 170.1q0.7 1.9 1.5 3.3q-5 2.7-9.3 3.8q-0.6-2.1-1.5-4.4q5.7-0.1 9.3-2.7z" />
	<path id="Layer" class="s3" d="m475.3 297.3q-30.9-16.4-61.1-5.3c-4.6-40 8.9-102.5 11.6-111.8q2.6-9.2 7.7-11.8q0 0.1 0 0.2q0.1-0.1 0.3-0.2q8.4 5.5 20.3-3.2q15.8 7.9 16.5 11.4c0.8 3.8-3.8 24.1-2.7 44c1.2 20.4 8.8 70.1 7.4 76.7z" />
	<path id="Layer" class="s3" d="m440.2 175.5q-0.4-2.3-2.1-5.6q9.2 0 16-4.7q-2.1 7-13.9 10.3z" />
	<path id="Layer" class="s3" d="m434.7 168.2q0.7 1.2 3.4 1.7l-2.5 4.5q-1.9-5.3-1.8-6q0.1-0.7 0.9-0.2z" />
	<path id="Layer" class="s1" d="m467.9 192.7c0 3.1-0.4 25.3 1.2 39.9q1.6 14.5 5.1 46.2q-13.3-48.8-16-69.1q-2.2-16.4 10.1-30.8q-0.3 10.8-0.4 13.8z" />
	<path id="Layer" class="s1" d="m445.1 188.7q6 0.6 9-0.5q-0.7 8-4.8 8.1q-4.2 0.2-4.2-7.6z" />
	<path id="Layer" class="s26" d="m437.5 155q-0.9 0.1-1.8 0q-0.9-0.2-1.6-0.8c1.2 0.2 2.2 0.3 3.3 0.1c1-0.2 2-0.7 2.9-1.3c-0.5 1-1.6 1.8-2.8 2z" />
	<path id="Layer" class="s26" d="m437.4 156.9c-0.6 0-1.1-0.1-1.6-0.5c0.6-0.2 1.1-0.2 1.5-0.2c0.5 0 1-0.1 1.5 0.1c-0.4 0.4-0.9 0.6-1.4 0.6z" />
	<path id="Layer" class="s24" d="m459.1 259.7c-1.1-1.4-2.8-5.2-1.9-7.2c0.9-2 2.5-5.7 4-7.2c0.6-0.6 2 2.1 2.2 2.7c0.4 0.3 0.6 0.8 0.3 1.2c-1.1 1.4-2.4 2.9-3.2 4.4c-0.8 1.5 0.2 3.4 0.3 5c0 0.8-1.5 1.4-1.7 1.1z" />
	<path id="Layer" class="s24" d="m464.9 258.9c-1.3-1.7-3.1-5-2.4-7.1c0.7-2 1.8-4.4 3.1-6c0.6-0.6 2.5 0.5 2.2 1c-0.9 1.5-1.3 4.3-2 5.9c-0.6 1.5 0.6 3.3 0.8 4.9c0.1 0.9-1.3 1.8-1.7 1.3z" />
	<path id="Layer" class="s24" d="m467.5 256.2c-1.6-1-4.1-4.3-3.7-6.5c0.4-2.2 2.3-4.3 3.4-6.1c0.4-0.7 1.3-0.6 1.6 0c0.4 0.2 1.9 2.1 1.1 4.1c-0.6 1.6-2.3 1.6-2.7 3.3c-0.4 1.6 1 2.3 1.5 3.9c0.2 0.8-0.9 1.5-1.2 1.3z" />
	<path id="Layer" class="s24" d="m462.8 260.5c-1.1-0.8-3.6-4.6-3.1-6.8c0.5-2.1 2.5-4.1 3.6-5.9c0.5-0.7 1.4-0.3 1.7 0.3c0.4 0.2 0.7 0.6 0.4 1.1c-0.7 1.7-1.8 3.3-2.3 5.1c-0.4 1.5 0.9 3.2 1.2 4.8c0.2 0.8-1.1 1.7-1.5 1.4z" />
	<path id="Layer" class="s24" d="m463.2 242.2q2.8-2.8 6.8-7.6l4.8 4.2l-4.5 5.8l-1.2 1.2q-7-2.4-5.9-3.6z" />
	<path id="Layer" class="s24" d="m459.9 247q1.9-3.9 3.7-5.1q1.9-1.2 5.2 1.7l-1.4 2.7l-4 4l-3.1-2.5z" />
	<path id="Layer" class="s26" d="m466.3 256.3q0.5 1.4 0.2 1.8q-0.5-2-1-2.4q-2.6-2.4-1.7-6q-0.7 2.2 1.9 4.8q0.2 0.4 0.6 1.8z" />
	<path id="Layer" class="s26" d="m460.8 258.6q-1.3-3.3-1.5-4.5q-0.3-1.1 1.5-2.9q-0.9 1.5-1.1 2.5q-0.2 1 0.9 3.8z" />
	<path id="Layer" class="s3" d="m469.7 175.2q26.8 25.4 26.5 40.5q-0.2 10.9-23.2 26.8l-5.8-5.1q14.3-18.9 12.3-21.7q-2-2.8-11.3-13.6q-4.6-13.4 1.5-26.9z" />
	<path id="Layer" class="s1" d="m476.1 241.8q-1.6 2-2.8 4.6q-4.7-3-9.7-8.7q1.3-1.3 2.6-3.1q3.9 3.8 9.9 7.2z" />
	<path id="Layer" class="s11" d="m433.5 143.9c-2.4 0-4.4-2.2-4.4-4.9c0-2.6 1.9-3.1 4.4-3.1c2.4 0 4.4 0.5 4.4 3.1c0 2.7-2 4.9-4.4 4.9z" />
	<path id="Layer" fill-rule="evenodd" class="s7" d="m428.7 139c0-3 2.4-3.4 4.8-3.4c2.3 0 4.7 0.4 4.7 3.4c0 2.9-2.1 5.2-4.7 5.2c-2.6 0-4.8-2.3-4.8-5.2zm0.8 0c0 2.5 1.8 4.5 4 4.5c2.2 0 4-2 4-4.5c0-2.2-1.5-2.7-4-2.7c-2.5 0-4 0.5-4 2.7z" />
	<path id="Layer" class="s11" d="m444.7 143.9c-2.7 0-4.8-2.2-4.8-4.9c0-2.6 2.1-3.1 4.8-3.1c2.6 0 4.8 0.5 4.8 3.1c0 2.7-2.1 4.9-4.8 4.9z" />
	<path id="Layer" fill-rule="evenodd" class="s7" d="m439.5 139c0-3 2.6-3.4 5.2-3.4c2.6 0 5.2 0.4 5.2 3.4c0 2.9-2.3 5.2-5.2 5.2c-2.9 0-5.2-2.3-5.2-5.2zm0.7 0c0 2.5 2 4.5 4.5 4.5c2.5 0 4.5-2 4.5-4.5c0-2-1.2-2.7-4.5-2.7c-3.3 0-4.5 0.7-4.5 2.7z" />
	<path id="Layer" class="s7" d="m437.8 138.4l-0.1-0.7c0.8-0.2 2.2 0.1 2.2 0.1l-0.1 0.7c-0.4 0-1.5-0.2-2-0.1z" />
	<path id="Layer" class="s7" d="m460.8 148c0.4-0.7 1.3-2.7 0.7-3.4c-0.7-0.7-7.7-3.1-11.9-4.5l0.3-0.7c1.1 0.4 11 3.6 12.1 4.7c1.2 1.2-0.4 3.9-0.6 4.2z" />
	<path id="Layer" class="s24" d="m455.3 146.1c1-1.5 5.2-3.5 6.2-1.7c1.8 3.2-0.7 9.3-6 7.9c-1.9-0.5-1.2-5-0.2-6.2z" />
	<path id="Layer" class="s26" d="m457 147.2q2.8-2.3 3.4-1.4c1.5 2.4-1.6 4.2-2.5 4.7q1.2-1.9 0.6-2.6q-0.6-0.7-1.5-0.7z" />
	<path id="Layer" class="s1" d="m388.9 172.6c0.1 0.2-1 1.2-2.5 2.1c-1.5 1-2.8 1.6-2.9 1.4l-0.1-0.2c-0.1-0.1 0.1-0.4 0.6-0.8l-6.9-10.7l0.4-0.2l0.9-0.6l1-0.6l1.1-0.8l0.4-0.2l6.9 10.7c0.5-0.3 0.9-0.4 1-0.2z" />
	<path id="Layer" class="s1" d="m379.6 164.1c-2.7 1.7-5 2.9-5.1 2.6l-0.2-0.2c-0.2-0.3 1.9-1.9 4.5-3.6c2.7-1.7 5-2.9 5.1-2.6l0.2 0.2c0.2 0.3-1.9 1.9-4.5 3.6z" />
	<path id="Layer" class="s1" d="m370.5 143.7l11.4 17.7l-5.7 3.7l-11.4-17.7l3.4-2.2l0.2 0.4c0.7-0.5 1.3-0.9 1.6-1.3l-0.1-0.2z" />
	<path id="Layer" class="s1" d="m381.9 161.4c0 0.1-0.1 0.3-0.5 0.6c-0.4 0.4-0.9 0.8-1.6 1.3q-0.3 0.1-0.5 0.3c-0.9 0.6-1.8 1.1-2.4 1.3c-0.4 0.2-0.6 0.3-0.7 0.2c-0.1-0.1 0.1-0.3 0.5-0.6c0.4-0.5 1.2-1 2.1-1.6q0.3-0.2 0.5-0.3c0.7-0.5 1.4-0.8 1.8-1c0.4-0.2 0.7-0.3 0.8-0.2z" />
	<path id="Layer" class="s21" d="m376 152.3l-5.7 3.7l-5.5-8.6l5.7-3.7z" />
	<path id="Layer" class="s21" d="m376 152.3c0.2 0.2-1 1.2-2.6 2.2c-1.6 1-2.9 1.7-3.1 1.5c-0.1-0.2 1.1-1.2 2.7-2.2c1.5-1 2.9-1.7 3-1.5z" />
	<path id="Layer" class="s6" d="m376 152.3l1 1.6c0.1 0.2-1 1.1-2.6 2.1c-1.6 1-2.9 1.7-3.1 1.5l-1-1.5c0.2 0.2 1.5-0.5 3.1-1.5c1.6-1 2.8-2 2.6-2.2z" />
	<path id="Layer" class="s28" d="m370 144.3l11.4 17.7c-0.4 0.4-0.9 0.8-1.6 1.3l-11.4-17.7c0.7-0.5 1.3-0.9 1.6-1.3z" />
	<path id="Layer" class="s1" d="m370.5 143.7c0.1 0.2-1 1.2-2.6 2.2c-1.6 1-3 1.7-3.1 1.5c-0.1-0.1 0.3-0.5 1-1l-0.5-0.7l0.8-0.5l-0.3-0.5l0.2-0.2l-1.2-1.9l0.2-0.1l-0.5-0.9h0.1l-8-13.3l8.7 12.8l0.1-0.1l0.5 0.9l0.3-0.2l0.1 0.2l1.1 1.7l-0.2 0.2l-0.5 0.3l-0.4 0.3l1.4-0.9l0.3 0.5l0.7-0.5l0.5 0.7c0.7-0.4 1.2-0.6 1.3-0.5z" />
	<path id="Layer" class="s7" d="m375.9 152.1l0.1 0.2c0.1 0.2-0.6 0.8-1.7 1.6l-0.1-0.2c1.1-0.8 1.8-1.5 1.7-1.6z" />
	<path id="Layer" class="s7" d="m376.2 152.5v0.1c0.1 0.1-0.2 0.5-0.8 0.9v-0.1c0.5-0.4 0.8-0.8 0.8-0.9z" />
	<path id="Layer" class="s7" d="m376.4 152.9v0.1c0.1 0.1-0.2 0.4-0.8 0.9v-0.1c0.5-0.5 0.8-0.8 0.8-0.9z" />
	<path id="Layer" class="s7" d="m376.6 153.2l0.1 0.1c0 0.1-0.3 0.4-0.8 0.9l-0.1-0.1c0.6-0.5 0.9-0.8 0.8-0.9z" />
	<path id="Layer" class="s7" d="m376.8 153.5l0.1 0.1c0 0.1-0.3 0.5-0.8 0.9l-0.1-0.1c0.6-0.4 0.9-0.8 0.8-0.9z" />
	<path id="Layer" class="s7" d="m377 153.9l0.1 0.1c0.1 0.1-0.3 0.4-0.8 0.9l-0.1-0.1c0.6-0.5 0.9-0.8 0.8-0.9z" />
	<path id="Layer" class="s7" d="m374.5 149.9l0.2 0.3c0.1 0.1-0.7 0.8-1.7 1.6l-0.2-0.3c1.1-0.8 1.8-1.4 1.7-1.6z" />
	<path id="Layer" class="s7" d="m374.8 150.4v0.1c0.1 0.1-0.2 0.4-0.7 0.9l-0.1-0.1c0.5-0.5 0.9-0.8 0.8-0.9z" />
	<path id="Layer" class="s7" d="m375 150.7l0.1 0.1c0 0.1-0.3 0.5-0.8 0.9l-0.1-0.1c0.6-0.4 0.9-0.8 0.8-0.9z" />
	<path id="Layer" class="s7" d="m375.2 151.1h0.1c0 0.2-0.3 0.5-0.8 0.9l-0.1-0.1c0.6-0.4 0.9-0.7 0.8-0.8z" />
	<path id="Layer" class="s7" d="m375.4 151.4l0.1 0.1c0.1 0.1-0.3 0.4-0.8 0.9l-0.1-0.1c0.6-0.5 0.9-0.8 0.8-0.9z" />
	<path id="Layer" class="s7" d="m375.6 151.7l0.1 0.1c0.1 0.1-0.2 0.5-0.8 0.9l-0.1-0.1c0.6-0.4 0.9-0.8 0.8-0.9z" />
	<path id="Layer" class="s7" d="m373.1 147.8l0.2 0.2c0.1 0.2-0.6 0.8-1.7 1.6l-0.2-0.2c1.1-0.8 1.8-1.5 1.7-1.6z" />
	<path id="Layer" class="s7" d="m373.4 148.2l0.1 0.1c0 0.1-0.3 0.5-0.8 0.9l-0.1-0.1c0.6-0.4 0.9-0.8 0.8-0.9z" />
	<path id="Layer" class="s7" d="m373.6 148.6l0.1 0.1c0 0.1-0.3 0.4-0.8 0.9l-0.1-0.1c0.6-0.5 0.9-0.8 0.8-0.9z" />
	<path id="Layer" class="s7" d="m373.8 148.9l0.1 0.1c0.1 0.1-0.3 0.4-0.8 0.9l-0.1-0.1c0.6-0.5 0.9-0.8 0.8-0.9z" />
	<path id="Layer" class="s7" d="m374 149.2l0.1 0.1c0.1 0.1-0.2 0.5-0.8 0.9l-0.1-0.1c0.6-0.4 0.9-0.8 0.8-0.9z" />
	<path id="Layer" class="s7" d="m374.3 149.6v0.1c0.1 0.1-0.2 0.4-0.8 0.9v-0.1c0.5-0.5 0.8-0.8 0.8-0.9z" />
	<path id="Layer" class="s7" d="m371.7 145.6l0.2 0.3c0.1 0.1-0.6 0.8-1.7 1.6l-0.2-0.3c1.1-0.8 1.8-1.4 1.7-1.6z" />
	<path id="Layer" class="s7" d="m372 146.1l0.1 0.1c0 0.1-0.3 0.4-0.8 0.9l-0.1-0.1c0.6-0.5 0.9-0.8 0.8-0.9z" />
	<path id="Layer" class="s7" d="m372.2 146.4l0.1 0.1c0.1 0.1-0.2 0.5-0.8 0.9l-0.1-0.1c0.6-0.4 0.9-0.8 0.8-0.9z" />
	<path id="Layer" class="s7" d="m372.4 146.8h0.1c0.1 0.2-0.2 0.5-0.8 0.9v-0.1c0.5-0.4 0.8-0.7 0.7-0.8z" />
	<path id="Layer" class="s7" d="m372.7 147.1v0.1c0.1 0.1-0.2 0.4-0.8 0.9v-0.1c0.5-0.5 0.8-0.8 0.8-0.9z" />
	<path id="Layer" class="s7" d="m372.9 147.4v0.1c0.1 0.1-0.2 0.5-0.8 0.9v-0.1c0.5-0.4 0.8-0.8 0.8-0.9z" />
	<path id="Layer" class="s7" d="m370.6 143.9l0.1 0.1c0.1 0.1-0.2 0.5-0.8 0.9l-0.1-0.1c0.6-0.4 0.9-0.8 0.8-0.9z" />
	<path id="Layer" class="s7" d="m370.9 144.3v0.1c0.1 0.1-0.2 0.4-0.8 0.9v-0.1c0.5-0.5 0.8-0.8 0.7-0.9z" />
	<path id="Layer" class="s7" d="m371.1 144.6v0.1c0.1 0.1-0.2 0.4-0.8 0.9v-0.1c0.5-0.5 0.8-0.8 0.8-0.9z" />
	<path id="Layer" class="s7" d="m371.3 144.9v0.1c0.1 0.1-0.2 0.5-0.8 0.9v-0.1c0.5-0.4 0.9-0.8 0.8-0.9z" />
	<path id="Layer" class="s7" d="m371.5 145.3l0.1 0.1c0 0.1-0.3 0.4-0.8 0.9l-0.1-0.1c0.5-0.5 0.9-0.8 0.8-0.9z" />
	<path id="Layer" class="s3" d="m377.2 158.5c-0.2-0.4 0.1-0.9 0.6-0.9c2 0 4.6-0.5 6.5 0.4c1.9 0.9 3.3 2.7 4.6 4.3c0.3 0.3 0 0.7-0.3 0.9c0 0.2-0.2 0.5-0.5 0.5c-2.4 0.6-3.4-1.5-5.3-2.5c-2-1-4.8 0-5.6-2.7z" />
	<path id="Layer" class="s3" d="m379.9 162.6c0.5 0.6 0.8 2.1 0.5 2.7c-0.1 0.5-0.5 0.7-1 0.9c0.8 0.6 1.4 1.4 1.1 2.4c0 0.2-0.2 0.5-0.5 0.5c-1.8 0.4-4-0.1-5.7-0.6c-0.5-0.1-0.6-0.7-0.4-1.1c-3.3-3-3-9.7 2.5-9c1.9 0.3 5.4-0.4 5.6 2c0.1 1.8-0.7 1.9-2.1 2.2z" />
</svg>