<svg version="1.2" xmlns="http://www.w3.org/2000/svg" viewBox="0 0 1920 1130" width="1920" height="1130">
	<title>image</title>
	<style>
		.s0 { fill: #fefbf6 } 
		.s1 { fill: none;stroke: #fdefde;stroke-width: 3 } 
	</style>
	<path id="Layer" fill-rule="evenodd" class="s0" d="m1918.8 745.1l-72.1-0.2c-72.2-0.3-216.5-0.7-360.8-1.1q-216.5-0.7-433-1.4q-216.5-0.6-433-1.3q-216.5-0.7-433-1.3c-144.3-0.5-288.6-0.9-360.8-1.1l-72.2-0.3l2.3-510.5l-2.1-80.5c71.9 56.3 169.8 113.8 314 142.3c144.2 28.5 362.8 111.1 507.5 12.7c144.8-98.5 334.7-196.3 477.4-213c265.1-31.2 295.1 0 511.3 58.5c254 68.7 282.5 73.2 355.7 73.2v268.7z" />
	<path id="Shape 1" class="s0" d="m-2227-1045h100v100h-100z" />
	<path id="Layer" fill-rule="evenodd" class="s0" d="m-38.8 738.5h66.6c66.6-0.1 199.8-0.1 333-0.2q199.8-0.1 399.6-0.2q199.8-0.1 399.6-0.2q199.8-0.1 399.6-0.2c133.2-0.1 266.4-0.2 333-0.2h66.6l0.1 258.6l-66.6-29.1c-66.6-28.4-199.9-85.9-333.1-100c-133.2-14.2-266.4 14.3-399.5 64.5c-133.2 50.1-266.4 121.9-399.6 107.8c-133.2-14.1-266.4-114.2-399.7-157.5c-133.2-43.3-266.4-28.3-333-21.5l-66.6 7.5z" />
	<path id="Layer" class="s1" d="m-165 729.3l90.2-13.6c90.3-12.3 270.7-39.7 451.2 39.6c180.5 79.3 360.9 262.4 541.4 288.4c180.5 26 360.9-105.2 541.4-196.8c180.5-91.6 360.9-143.5 541.4-117.6c180.5 26 360.9 131.3 451.2 183.2l90.2 53.3" />
	<path id="Layer copy" class="s1" d="m-208 158.3l90.2-13.6c90.3-12.3 270.7-39.7 451.2 39.6c180.5 79.3 360.9 262.4 541.4 288.4c180.5 26 360.9-105.2 541.4-196.8c180.5-91.6 360.9-143.5 541.4-117.6c180.5 26 360.9 131.3 451.2 183.2l90.2 53.3" />
</svg>