<svg version="1.2" xmlns="http://www.w3.org/2000/svg" viewBox="0 0 264 233" width="349" height="308">
	<title>Animal Faces Set_Vector_RON_03-ai</title>
	<style>
		.s0 { fill: #d1906d } 
		.s1 { fill: #905949 } 
		.s2 { fill: #e5af8a } 
		.s3 { fill: #54312e } 
		.s4 { fill: #ffffff } 
		.s5 { fill: #b55967 } 
		.s6 { fill: #f08686 } 
		.s7 { fill: #59595c } 
		.s8 { fill: #39393d } 
		.s9 { fill: #dcdcdc } 
		.s10 { fill: #fefefe } 
		.s11 { fill: #544b4d } 
		.s12 { fill: #736b6d } 
		.s13 { fill: #3b3133 } 
		.s14 { fill: #5fad56 } 
		.s15 { fill: #75b86d } 
		.s16 { fill: #234116 } 
		.s17 { fill: #82bf7b } 
		.s18 { fill: #427245 } 
		.s19 { fill: #fd9b45 } 
		.s20 { fill: #fee0b3 } 
		.s21 { fill: #89564f } 
		.s22 { fill: #fdcc61 } 
		.s23 { fill: #895638 } 
		.s24 { fill: #4f4b4d } 
		.s25 { fill: #867f81 } 
	</style>
	<g id="Layer 1">
		<g id="&lt;Group&gt;">
			<g id="&lt;Group&gt;">
				<g id="&lt;Group&gt;">
					<path id="&lt;Path&gt;" class="s0" d="m168.2 31.4c33.5-46.2 101.3-7.6 53.7 47.7q-36.4-14.6-53.7-47.7z"/>
				</g>
				<g id="&lt;Group&gt;">
					<path id="&lt;Path&gt;" class="s0" d="m91.5 30.5c-32.3-47-101-10-54.7 46.4q36.7-13.7 54.7-46.4z"/>
				</g>
				<g id="&lt;Group&gt;">
					<path id="&lt;Path&gt;" class="s1" d="m53.9 66.6c-24.9-13.6-9.8-52.6 21.1-23.3q-14.8 23.4-21.1 23.3z"/>
				</g>
				<g id="&lt;Group&gt;">
					<path id="&lt;Path&gt;" class="s1" d="m207 61.8c25.2-12.9 11.1-52.3-20.5-23.7q14.2 23.7 20.5 23.7z"/>
				</g>
				<g id="&lt;Group&gt;">
					<path id="&lt;Path&gt;" class="s0" d="m132.7 18.6c-117.8-1.4-198.6 197.3-2.3 199.6 196.3 2.3 120.1-198.2 2.3-199.6z"/>
				</g>
				<g id="&lt;Group&gt;">
					<path id="&lt;Path&gt;" class="s2" d="m181.9 162.4c-0.2 23.2-21.6 41.7-47.8 41.4-26.1-0.3-47.1-19.3-46.8-42.5 0.2-23.1 21.8-52.8 47.9-52.5 26.2 0.3 47 30.5 46.7 53.6z"/>
				</g>
				<g id="&lt;Group&gt;">
					<path id="&lt;Path&gt;" class="s3" d="m134.9 132.3c-11.8-0.1-23.5-9.4-22-18.8 1.5-9.5 16.9-9 22.4-8.9 5.5 0 20.9-0.1 22.1 9.4 1.3 9.5-10.6 18.5-22.5 18.3z"/>
				</g>
				<g id="&lt;Group&gt;">
					<g id="&lt;Group&gt;">
						<circle id="&lt;Path&gt;" class="s3" cx="89.8" cy="92.9" r="15.4"/>
					</g>
					<g id="&lt;Group&gt;">
						<circle id="&lt;Path&gt;" class="s4" cx="85.3" cy="87.7" r="5.6"/>
					</g>
				</g>
				<g id="&lt;Group&gt;">
					<g id="&lt;Group&gt;">
						<circle id="&lt;Path&gt;" class="s3" cx="173.9" cy="93.9" r="15.4"/>
					</g>
					<g id="&lt;Group&gt;">
						<circle id="&lt;Path&gt;" class="s4" cx="169.4" cy="88.7" r="5.6"/>
					</g>
				</g>
				<path id="&lt;Path&gt;" class="s5" d="m120.3 161.7l28.6 0.4c-1.3 23.5-28.8 22.7-28.6-0.4z"/>
			</g>
			<ellipse id="&lt;Path&gt;" class="s6" cx="67.4" cy="150.3" rx="17.1" ry="13.5"/>
			<ellipse id="&lt;Path&gt;" class="s6" cx="201.9" cy="151.9" rx="17.1" ry="13.5"/>
		</g>
		<g id="&lt;Group&gt;">
			<g id="&lt;Group&gt;">
				<g id="&lt;Group&gt;">
					<path id="&lt;Path&gt;" class="s7" d="m1012.2 427.8c33.4-46.3 101.2-7.6 53.6 47.6q-36.3-14.6-53.6-47.6z"/>
				</g>
				<g id="&lt;Group&gt;">
					<path id="&lt;Path&gt;" class="s7" d="m935.5 426.9c-32.4-47-101.1-10-54.7 46.4q36.6-13.8 54.7-46.4z"/>
				</g>
				<g id="&lt;Group&gt;">
					<path id="&lt;Path&gt;" class="s8" d="m897.9 463c-25-13.6-9.9-52.6 21.1-23.3q-14.9 23.3-21.1 23.3z"/>
				</g>
				<g id="&lt;Group&gt;">
					<path id="&lt;Path&gt;" class="s8" d="m1050.9 458.2c25.3-13 11.1-52.3-20.5-23.7q14.3 23.6 20.5 23.7z"/>
				</g>
				<g id="&lt;Group&gt;">
					<path id="&lt;Path&gt;" class="s9" d="m973.2 415.1c-117.7-1.4-198.6 197.3-2.3 199.6 196.3 2.3 120.1-198.2 2.3-199.6z"/>
				</g>
				<g id="&lt;Group&gt;">
					<path id="&lt;Path&gt;" class="s7" d="m889.7 509.1c-3.7-14.6 11.8-27.8 21.8-36.2 11.9-10 32.3-13.4 42.6 1.1 12 16.7-4.7 44.3-21.2 51.2-15 6.2-38.4 2.4-43.2-16.1z"/>
				</g>
				<g id="&lt;Group&gt;">
					<path id="&lt;Path&gt;" class="s7" d="m1016.7 525.2c-16.6-6.9-33.2-34.5-21.3-51.2 10.3-14.5 30.8-11.1 42.7-1.1 10 8.4 25.5 21.6 21.7 36.2-4.7 18.5-28.1 22.3-43.1 16.1z"/>
				</g>
				<g id="&lt;Group&gt;">
					<path id="&lt;Path&gt;" class="s10" d="m1025.9 558.8c-0.3 23.2-21.7 41.7-47.8 41.4-26.2-0.3-47.2-19.4-46.9-42.5 0.3-23.2 21.8-52.8 48-52.5 26.1 0.3 47 30.5 46.7 53.6z"/>
				</g>
				<g id="&lt;Group&gt;">
					<path id="&lt;Path&gt;" class="s7" d="m978.3 534.5c-11.8-0.2-23.5-9.5-22-18.9 1.5-9.4 16.9-9 22.4-8.9 5.5 0.1 20.9-0.1 22.2 9.4 1.2 9.5-10.7 18.5-22.6 18.4z"/>
				</g>
				<g id="&lt;Group&gt;">
					<g id="&lt;Group&gt;">
						<circle id="&lt;Path&gt;" class="s8" cx="933.8" cy="489.3" r="15.4"/>
					</g>
					<g id="&lt;Group&gt;">
						<circle id="&lt;Path&gt;" class="s4" cx="929.2" cy="484.1" r="5.6"/>
					</g>
				</g>
				<g id="&lt;Group&gt;">
					<g id="&lt;Group&gt;">
						<circle id="&lt;Path&gt;" class="s8" cx="1017.8" cy="490.3" r="15.4"/>
					</g>
					<g id="&lt;Group&gt;">
						<circle id="&lt;Path&gt;" class="s4" cx="1013.3" cy="485.1" r="5.6"/>
					</g>
				</g>
				<path id="&lt;Path&gt;" class="s5" d="m964.3 558.1l28.5 0.3c-1.3 23.6-28.8 22.8-28.5-0.3z"/>
			</g>
			<ellipse id="&lt;Path&gt;" class="s6" cx="911.4" cy="546.7" rx="17.1" ry="13.5"/>
			<ellipse id="&lt;Path&gt;" class="s6" cx="1045.9" cy="548.2" rx="17.1" ry="13.5"/>
		</g>
		<g id="&lt;Group&gt;">
			<g id="&lt;Group&gt;">
				<path id="&lt;Path&gt;" class="s11" d="m493.6-332.2q-7.9-9.1-9.8-14.2c-1.9-5.2 11.3-15.1 25.7-3.3z"/>
			</g>
			<g id="&lt;Group&gt;">
				<path id="&lt;Path&gt;" class="s11" d="m598.9-349.7c14.3-11.8 27.5-1.9 25.7 3.3q-1.9 5.1-9.8 14.2z"/>
			</g>
			<g id="&lt;Group&gt;">
				<g id="&lt;Group&gt;">
					<g id="&lt;Group&gt;">
						<path id="&lt;Path&gt;" class="s12" d="m552.6-364.9c-92.1 0-153.6 156.2 0 156.2 153.6 0 92.2-156.2 0-156.2z"/>
					</g>
				</g>
			</g>
			<g id="&lt;Group&gt;">
				<path id="&lt;Path&gt;" class="s11" d="m675.5-216.2c-6 28.1-21.4 72.4-100.4 73.7-78.9 1.3-120.7-7.9-142.8-69.8-22.2-61.9 35.1-89.8 131.7-90.5 120.1-0.8 117.5 58.5 111.5 86.6z"/>
			</g>
			<g id="&lt;Group&gt;">
				<g id="&lt;Group&gt;">
					<circle id="&lt;Path&gt;" class="s13" cx="521.5" cy="-323.9" r="12"/>
				</g>
				<g id="&lt;Group&gt;">
					<circle id="&lt;Path&gt;" class="s4" cx="517.9" cy="-327.9" r="4.4"/>
				</g>
			</g>
			<g id="&lt;Group&gt;">
				<g id="&lt;Group&gt;">
					<circle id="&lt;Path&gt;" class="s13" cx="587.3" cy="-323.9" r="12"/>
				</g>
				<g id="&lt;Group&gt;">
					<circle id="&lt;Path&gt;" class="s4" cx="583.7" cy="-327.9" r="4.4"/>
				</g>
			</g>
			<g id="&lt;Group&gt;">
				<path id="&lt;Path&gt;" class="s13" d="m517.5-246.6c0 13.8-10.2 25-22.9 25-12.6 0-22.8-11.2-22.8-25 0-13.8 10.2-23.2 22.8-23.2 12.7 0 22.9 9.4 22.9 23.2z"/>
			</g>
			<g id="&lt;Group&gt;">
				<path id="&lt;Path&gt;" class="s13" d="m632.4-246.6c0 13.8-10.2 25-22.9 25-12.6 0-22.8-11.2-22.8-25 0-13.8 10.2-23.2 22.8-23.2 12.7 0 22.9 9.4 22.9 23.2z"/>
			</g>
			<path id="&lt;Path&gt;" class="s6" d="m501.2-194.8h111.8c-3.8 33.9-111.8 33.3-111.8 0z"/>
		</g>
		<g id="&lt;Group&gt;">
			<g id="&lt;Group&gt;">
				<path id="&lt;Path&gt;" class="s1" d="m36.1-252c-35.3 18-123-5.2-94.1-77.6 29-72.3 94.1-58.3 119.9 6.3 7.7 20.8 9.5 53.4-25.8 71.3z"/>
				<g id="&lt;Group&gt;">
					<path id="&lt;Path&gt;" class="s3" d="m27.2-272.1c-20 10.2-69.7-3-53.3-44 16.4-41 53.3-33.1 68 3.5 4.3 11.8 5.3 30.3-14.7 40.5z"/>
				</g>
				<path id="&lt;Path&gt;" class="s1" d="m199.9-323.3c25.8-64.6 90.9-78.6 119.8-6.3 29 72.4-58.8 95.6-94 77.6-35.3-17.9-33.5-50.5-25.8-71.3z"/>
				<g id="&lt;Group&gt;">
					<path id="&lt;Path&gt;" class="s3" d="m219.9-312.6c14.6-36.6 51.5-44.5 68-3.5 16.4 41-33.4 54.2-53.4 44-20-10.2-19-28.7-14.6-40.5z"/>
				</g>
				<g id="&lt;Group&gt;">
					<path id="&lt;Path&gt;" class="s3" d="m126.4-243.7c-14.6 0-29.3-11.3-27.6-23 1.7-11.7 20.8-11.4 27.6-11.4 6.9 0 25.9-0.3 27.6 11.4 1.8 11.7-12.9 23-27.6 23z"/>
				</g>
				<path id="&lt;Path&gt;" class="s1" d="m132.7-365.6c-117.8 0-196.3 199.6 0 199.6 196.4 0 117.8-199.6 0-199.6z"/>
				<g id="&lt;Group&gt;">
					<path id="&lt;Path&gt;" class="s2" d="m212.5-243.7q-33 33.1-116.7 15.7-54.6-4-51.3-37.8c5.1-53.4 38.8-80.6 93.4-50.9 54.4-53.3 107.6 40 74.6 73z"/>
				</g>
				<g id="&lt;Group&gt;">
					<path id="&lt;Path&gt;" class="s2" d="m183.6-222.4c0 23.2-21.2 41.9-47.3 41.9-26.2 0-47.4-18.7-47.4-41.9 0-23.2 21.2-53.1 47.4-53.1 26.1 0 47.3 29.9 47.3 53.1z"/>
				</g>
				<g id="&lt;Group&gt;">
					<path id="&lt;Path&gt;" class="s3" d="m136.3-235.6c-9 0-18.1-7-17-14.2 1-7.2 12.8-7 17-7 4.2 0 15.9-0.2 17 7 1 7.2-8 14.2-17 14.2z"/>
				</g>
				<g id="&lt;Group&gt;">
					<g id="&lt;Group&gt;">
						<circle id="&lt;Path&gt;" class="s3" cx="90.7" cy="-290.8" r="15.4"/>
					</g>
					<g id="&lt;Group&gt;">
						<circle id="&lt;Path&gt;" class="s4" cx="86.1" cy="-296" r="5.6"/>
					</g>
				</g>
				<g id="&lt;Group&gt;">
					<g id="&lt;Group&gt;">
						<circle id="&lt;Path&gt;" class="s3" cx="174.8" cy="-290.8" r="15.4"/>
					</g>
					<g id="&lt;Group&gt;">
						<circle id="&lt;Path&gt;" class="s4" cx="170.2" cy="-296" r="5.6"/>
					</g>
				</g>
				<path id="&lt;Path&gt;" class="s5" d="m126.4-222.4h28.5c7.8 24.7-27.1 32.2-28.5 0z"/>
			</g>
			<ellipse id="&lt;Path&gt;" class="s6" cx="188.8" cy="-252.4" rx="13.1" ry="13.2"/>
			<ellipse id="&lt;Path&gt;" class="s6" cx="89.8" cy="-252.4" rx="13.1" ry="13.2"/>
		</g>
		<g id="&lt;Group&gt;">
			<g id="&lt;Group&gt;">
				<path id="&lt;Path&gt;" class="s14" d="m908.1-323.4q-8.7-35.1 0.7-41.4 9.4-6.2 34.2 23.9-12.7 23.9-34.9 17.5z"/>
			</g>
			<g id="&lt;Group&gt;">
				<path id="&lt;Path&gt;" class="s14" d="m1003.3-340.9q24.9-30.1 34.3-23.9 9.3 6.3 0.6 41.4-22.2 6.4-34.9-17.5z"/>
			</g>
			<g id="&lt;Group&gt;">
				<g id="&lt;Group&gt;">
					<g id="&lt;Group&gt;">
						<path id="&lt;Path&gt;" class="s14" d="m973.2-365.6c-119.6 0-199.1 189.3 0.1 189.3 199.2 0 119.4-189.3-0.1-189.3z"/>
					</g>
					<path id="&lt;Path&gt;" class="s5" d="m943.1-207.6c-28-13.2-7.8-10.7-6-27.2 1.9-16.5 20.2-11 39.1-15.6 18.8-4.6 41.3 16 43.1 25.2 1.8 9.1-7.3 16.5-16.6 23q-31.6 7.8-59.6-5.4z"/>
					<g id="&lt;Group&gt;">
						<g id="&lt;Group&gt;">
							<path id="&lt;Path&gt;" class="s15" d="m933.9-231c13.4 0.1 11.5 9.8 21.6 17.6 10.1 7.8 34.1 9.6 47.2-6.5 15.6-19.3 39.5-14 38.6-0.7-0.9 13.3-4.6 51.9-35.8 54.1-38.6 2.9-73.4 2.8-85.8-16q-12.4-18.8-10.5-30.3c-0.1-15.6 11.4-18.4 24.7-18.2z"/>
						</g>
						<g id="&lt;Group&gt;">
							<path id="&lt;Path&gt;" class="s4" d="m935.9-219.2c-0.4 5.6-8.8 17.8-15.1 16.6-5.9-1-7-10.6-6.7-15.3 1-13.1 22.9-14.5 21.8-1.3z"/>
						</g>
						<g id="&lt;Group&gt;">
							<path id="&lt;Path&gt;" class="s4" d="m1041.1-217.9c0.4 4.7-0.7 14.3-6.6 15.3-6.4 1.2-14.8-11-15.2-16.6-1-13.2 20.8-11.8 21.8 1.3z"/>
						</g>
					</g>
				</g>
			</g>
			<g id="&lt;Group&gt;">
				<g id="&lt;Group&gt;">
					<circle id="&lt;Path&gt;" class="s16" cx="933" cy="-314.4" r="15.6"/>
				</g>
				<g id="&lt;Group&gt;">
					<circle id="&lt;Path&gt;" class="s4" cx="928.3" cy="-319.6" r="5.7"/>
				</g>
			</g>
			<g id="&lt;Group&gt;">
				<g id="&lt;Group&gt;">
					<circle id="&lt;Path&gt;" class="s16" cx="1018.3" cy="-314.4" r="15.6"/>
				</g>
				<g id="&lt;Group&gt;">
					<circle id="&lt;Path&gt;" class="s4" cx="1013.6" cy="-319.6" r="5.7"/>
				</g>
			</g>
			<path id="&lt;Path&gt;" class="s17" d="m1064.9-241.1q0 0 0 0-0.1 0.8-0.3 1.6c-1.5 7.2-3.9 15.9-8.8 24.2 4.8-8.2 7.1-16.8 8.7-24q0.1-0.8 0.3-1.6c-5 11.9-10.8 25.2-32.4 22.8-23.4-2.5-33.4-17.4-55.9-17.4-22.5 0-32.6 17.4-54 21.5-21.3 4-33.9-10.9-40.2-30.1q-0.2 0.1-0.6 0.3 0-0.1 0-0.1c-9.6-40.9 32.2-59.5 100.1-60 86.9-0.6 87.3 41.3 83.1 62.8z"/>
			<g id="&lt;Group&gt;">
				<path id="&lt;Path&gt;" class="s18" d="m947.2-262.1c0 10.3-7.6 18.6-17 18.6-9.4 0-17-8.3-17-18.6 0-10.2 7.6-17.2 17-17.2 9.4 0 17 7 17 17.2z"/>
			</g>
			<g id="&lt;Group&gt;">
				<path id="&lt;Path&gt;" class="s18" d="m1032.6-262.1c0 10.3-7.6 18.6-17 18.6-9.4 0-17-8.3-17-18.6 0-10.2 7.6-17.2 17-17.2 9.4 0 17 7 17 17.2z"/>
			</g>
		</g>
		<g id="&lt;Group&gt;">
			<g id="&lt;Group&gt;">
				<g id="&lt;Group&gt;">
					<path id="&lt;Path&gt;" class="s19" d="m484.5 460.1c-12.7 9.9-26.7 18.5-43.9-10.4-17.2-29 4.2-64.2 17.6-52.1 16 14.5 48 28.5 49.5 29q-10.6 23.5-23.2 33.5z"/>
				</g>
				<path id="&lt;Path&gt;" class="s20" d="m442.4 423.9c0.3-11.8 16.9-3.5 28.6 8.4q11.6 11.9 11.6 11.9-4.8 14.5-11.6 14.5c-6.9 0-29.1-15.8-28.6-34.8z"/>
			</g>
			<g id="&lt;Group&gt;">
				<g id="&lt;Group&gt;">
					<path id="&lt;Path&gt;" class="s19" d="m590.8 426.6c1.6-0.5 33.5-14.5 49.6-29 13.4-12.1 34.8 23.1 17.6 52.1-17.2 28.9-31.2 20.3-43.9 10.4q-12.6-10-23.3-33.5z"/>
				</g>
				<path id="&lt;Path&gt;" class="s20" d="m627.6 458.7q-6.8 0-11.7-14.5 0 0 11.7-11.9c11.7-11.9 28.3-20.2 28.6-8.4 0.4 19-21.7 34.8-28.6 34.8z"/>
			</g>
			<g id="&lt;Group&gt;">
				<g id="&lt;Group&gt;">
					<path id="&lt;Path&gt;" class="s19" d="m667.7 547.7c-1 5.2-2.6 10.2-4.8 15-2.3 5-5.2 9.7-8.8 14.2-17.4 21.6-50.9 36.5-105.3 36.5-52 0-84.5-14.6-101.9-36-3.7-4.5-6.7-9.3-9.1-14.3q-3.5-7.4-5.2-15.4c-1.4-6.2-2-12.6-1.8-19.1q0 0 0 0c0.1-5.5 0.7-11 1.8-16.6q0.7-3.5 1.6-6.9 1.4-5.3 3.4-10.6 2-5.4 4.6-10.7 1.2-2.4 2.5-4.8c4.6-8.4 10.1-16.4 16.5-23.7 4.1-4.7 8.6-9.2 13.4-13.3 7.8-6.8 16.5-12.6 25.8-17.2q4.5-2.2 9.3-4 3.1-1.2 6.3-2.2 4.6-1.5 9.4-2.5 6.3-1.4 12.9-1.9 5.2-0.5 10.5-0.4c5.7 0.1 11.3 0.6 16.8 1.6q6.2 1.1 12.2 2.9 5 1.5 9.9 3.4 3.3 1.3 6.6 2.8 7.1 3.3 13.8 7.5c9.2 5.8 17.7 12.8 25.3 20.5 4.2 4.3 8 8.9 11.6 13.6q4.9 6.6 9 13.6 2.2 3.9 4.2 8 1.7 3.5 3.2 7 2.5 6.3 4.3 12.8 0.7 2.3 1.2 4.6c1.2 5.5 2 11 2.3 16.4q0 0.3 0 0.6c0.2 6.3-0.2 12.5-1.5 18.6z"/>
				</g>
				<path id="&lt;Path&gt;" class="s20" d="m560.2 525.6c8.1-3.7 38.8-31.9 49.4-9.7 10.5 22.1 28.1 65.5 2.7 89.3-25.3 23.8-90.2 18.4-111.2 7.7-21-10.6-30.1-19.5-25.8-44.5 2.8-16.2 6.4-34.1 14.5-48.6 11.4-20.1 28.5-5.9 45.4 1.2q16.9 8.3 25 4.6z"/>
				<g id="&lt;Group&gt;">
					<g id="&lt;Group&gt;">
						<circle id="&lt;Path&gt;" class="s3" cx="506.8" cy="491" r="15.4"/>
					</g>
					<g id="&lt;Group&gt;">
						<circle id="&lt;Path&gt;" class="s4" cx="502.2" cy="485.9" r="5.6"/>
					</g>
				</g>
				<g id="&lt;Group&gt;">
					<g id="&lt;Group&gt;">
						<circle id="&lt;Path&gt;" class="s3" cx="590.8" cy="491" r="15.4"/>
					</g>
					<g id="&lt;Group&gt;">
						<circle id="&lt;Path&gt;" class="s4" cx="586.2" cy="485.9" r="5.6"/>
					</g>
				</g>
				<g id="&lt;Group&gt;">
					<path id="&lt;Path&gt;" class="s21" d="m550.5 538.2c-14.7 0-29.3-11.3-27.6-23 1.7-11.7 20.8-11.4 27.6-11.4 6.8 0 25.9-0.3 27.6 11.4 1.7 11.7-13 23-27.6 23z"/>
				</g>
				<ellipse id="&lt;Path&gt;" class="s6" cx="612.9" cy="546" rx="17.1" ry="13.5"/>
				<ellipse id="&lt;Path&gt;" class="s6" cx="491.2" cy="546" rx="17.1" ry="13.5"/>
				<g id="&lt;Group&gt;">
					<g id="&lt;Group&gt;">
						<circle id="&lt;Path&gt;" class="s3" cx="506.8" cy="491" r="15.4"/>
					</g>
					<g id="&lt;Group&gt;">
						<circle id="&lt;Path&gt;" class="s4" cx="502.2" cy="485.9" r="5.6"/>
					</g>
				</g>
				<g id="&lt;Group&gt;">
					<g id="&lt;Group&gt;">
						<circle id="&lt;Path&gt;" class="s3" cx="590.8" cy="491" r="15.4"/>
					</g>
					<g id="&lt;Group&gt;">
						<circle id="&lt;Path&gt;" class="s4" cx="586.2" cy="485.9" r="5.6"/>
					</g>
				</g>
				<path id="&lt;Path&gt;" class="s5" d="m536.9 556.4c5.1 3.5 24 3.6 28.6 0 5.6 25.2-30.4 33.1-28.6 0z"/>
			</g>
			<path id="&lt;Path&gt;" class="s20" d=""/>
			<path id="&lt;Path&gt;" class="s22" d=""/>
			<g id="&lt;Group&gt;">
				<path id="&lt;Path&gt;" class="s21" d="m434.2 505.1q1.4-5.3 3.4-10.6 2-5.4 4.6-10.7c6.8 18.9 19.8 32.9 25.1 37.2 6.1 5-20.5 0.7-33.1-15.9z"/>
			</g>
			<g id="&lt;Group&gt;">
				<path id="&lt;Path&gt;" class="s21" d="m432.6 547.7c-1.4-6.2-2-12.6-1.8-19.1q0 0 0 0c10.9 2.9 26.2 8.9 31.7 9.6 6 0.8-13.4 9.5-29.9 9.5z"/>
			</g>
			<g id="&lt;Group&gt;">
				<path id="&lt;Path&gt;" class="s21" d="m446.9 577.4c-3.7-4.5-6.7-9.3-9.1-14.3 12.5-3.6 20.5-5.5 25.8-2.2 4.1 2.6-5.4 10.2-16.7 16.5z"/>
			</g>
			<g id="&lt;Group&gt;">
				<path id="&lt;Path&gt;" class="s21" d="m665.7 507.5c-13.2 14.6-36.9 18.3-31.1 13.5 5-4 16.6-16.4 23.6-33.3q1.7 3.5 3.2 7 2.5 6.3 4.3 12.8z"/>
			</g>
			<g id="&lt;Group&gt;">
				<path id="&lt;Path&gt;" class="s21" d="m667.7 547.7c-16.1-0.5-34.1-8.7-28.3-9.5 5.2-0.7 19.1-6 29.8-9.1 0.2 6.3-0.2 12.5-1.5 18.6z"/>
			</g>
			<g id="&lt;Group&gt;">
				<path id="&lt;Path&gt;" class="s21" d="m662.9 562.7c-2.3 5-5.2 9.7-8.8 14.2-10.9-6.2-19.8-13.5-15.8-16 5.2-3.2 12.8-1.6 24.6 1.8z"/>
			</g>
			<path id="&lt;Path&gt;" class="s21" d="m565.6 415.4c-2.4 15.4-8.7 38.2-14.1 35.2-5.9-3.3-10.9-24.8-13.2-36.4q5.2-0.5 10.5-0.4c5.7 0.1 11.3 0.6 16.8 1.6z"/>
			<path id="&lt;Path&gt;" class="s21" d="m532.9 438.4c-3.9-0.7-17.2-12.3-23.2-17.6q3.1-1.2 6.3-2.2 4.6-1.5 9.4-2.5c4.8 8.7 11.4 23.1 7.5 22.3z"/>
			<path id="&lt;Path&gt;" class="s21" d="m587.7 421.7c-5.7 8.1-15.6 21.5-16.9 18.9-1.2-2.4 3.7-14.3 7-22.3q5 1.5 9.9 3.4z"/>
		</g>
		<g id="&lt;Group&gt;">
			<g id="&lt;Group&gt;">
				<path id="&lt;Path&gt;" class="s19" d="m855.1 49.9c-22.3-21.2-32-47.7-7.8-62.2q24.2-14.5 55.5 25.7-25.3 57.7-47.7 36.5z"/>
			</g>
			<path id="&lt;Path&gt;" class="s20" d="m857.9 30.1c-12.7-5-12.7-26.7-4.6-33 8.2-6.4 22.7 5.4 28.8 15.2q-11.6 22.7-24.2 17.8z"/>
			<g id="&lt;Group&gt;">
				<path id="&lt;Path&gt;" class="s19" d="m1045.1 18.1q26.6-43.6 52.3-31.8c25.7 11.7 19 39.1-0.8 62.7q-19.9 23.5-51.5-30.9z"/>
			</g>
			<path id="&lt;Path&gt;" class="s20" d="m1059.9 18.6c6.1-9.9 20.6-21.6 28.7-15.3 8.2 6.3 8.2 28-4.5 33q-12.7 5-24.2-17.7z"/>
			<g id="&lt;Group&gt;">
				<path id="&lt;Path&gt;" class="s23" d="m1130.5 105.5c0.4 2 0.8 4 0.1 5.8-1.5 4.3-7.8 4.7-11.4 2-3.5-2.8-4.9-7.5-6.1-11.8 13 19.1 13.5 43.7 13.6 66.7 0 6.1 0 12.5-2.4 18.1-2.5 5.6-8 10.3-14.1 9.8-6.1-0.4-11.1-7.9-7.7-13.1-6.1 14.2-12 27.4-20.1 40.4-8.7 14-18.8 27.1-30.1 39-2.3 2.5-4.8 4.9-7.8 6.4-3.1 1.4-6.9 1.7-9.7-0.2-5-3.3-4.3-10.7-3-16.6-20.8 16.6-41.6 35.5-70.6 31.8-27-3.4-52.6-18-68.2-40.4 4.6 7.9-4.9 18-14 17.2-9.1-0.7-16.2-8-21.7-15.3-12.7-17-21.8-36.9-24.5-57.9-1.5 5.3-9.4 6.5-13.9 3.2-4.5-3.3-6.3-9.1-7.5-14.6-5.4-24.2-2-50.5 6.7-73.7-0.7 4.7-6.9 7.1-11.2 5.1-4.2-2.1-6.4-7.1-6.3-11.9 0.2-4.7 2.2-9.2 4.4-13.4 7.7-14.8 17.4-30.2 28.9-42.3 11.4-12 30.1-19.6 44.4-28-6.4 2.9-12.9-6-10.6-12.6 2.3-6.6 9.3-10.2 15.8-12.7 24.3-9.2 54.8-11.1 77.9 2.9 1.4 0.8 16.4-5.3 19-5.8 7.8-1.4 15.8-1.7 23.7-0.8 15.1 1.5 30 5.2 44.8 8.5 5.4 1.3 10.9 2.6 15.4 5.8 4.6 3.2 7.8 8.8 6.6 14.2-1.3 5.4-8.3 9.1-12.8 5.8 22.6 4.2 40.4 24.4 52.7 42.7 9 13.3 15.8 28.6 19.7 45.7z"/>
			</g>
			<g id="&lt;Group&gt;">
				<g id="&lt;Group&gt;">
					<g id="&lt;Group&gt;">
						<path id="&lt;Path&gt;" class="s19" d="m1086.4 154.3c-1.1 5.2-2.7 10.2-4.9 15-2.3 5-5.2 9.8-8.8 14.2-17.4 21.7-50.8 36.5-105.3 36.5-52 0-84.5-14.6-101.9-36-3.7-4.5-6.7-9.3-9.1-14.3q-3.5-7.4-5.2-15.4c-1.3-6.2-1.9-12.6-1.8-19.1q0 0 0 0c0.1-5.5 0.7-11 1.8-16.5q0.7-3.5 1.6-7 1.5-5.3 3.4-10.6 2.1-5.4 4.6-10.6 1.2-2.5 2.6-4.9c4.5-8.3 10-16.3 16.4-23.7 4.2-4.7 8.6-9.2 13.4-13.3 7.9-6.7 16.5-12.6 25.8-17.1q4.6-2.3 9.3-4.1 3.1-1.2 6.4-2.2 4.5-1.4 9.3-2.5 6.3-1.4 12.9-1.9 5.2-0.5 10.5-0.4c5.7 0.1 11.4 0.7 16.9 1.6q6.1 1.1 12.1 2.9 5.1 1.5 9.9 3.4 3.3 1.3 6.6 2.8 7.1 3.4 13.8 7.6c9.3 5.8 17.8 12.7 25.3 20.5 4.2 4.3 8.1 8.8 11.6 13.5q5 6.6 9 13.6 2.3 4 4.2 8 1.7 3.5 3.2 7 2.6 6.4 4.3 12.8 0.7 2.3 1.2 4.7c1.3 5.4 2 10.9 2.3 16.3q0 0.3 0 0.6c0.2 6.3-0.2 12.6-1.4 18.6z"/>
					</g>
					<path id="&lt;Path&gt;" class="s20" d="m978.8 132.2c8.2-3.6 38.9-31.9 49.4-9.7 10.5 22.1 28.1 65.5 2.8 89.3-25.4 23.9-90.3 18.4-111.3 7.8-20.9-10.7-30.1-19.6-25.8-44.5 2.5-14.2 5.7-33.9 13.7-46.2 11.9-18.2 29.1-7.4 45.7-0.1 9 4 17.9 6.9 25.5 3.4z"/>
					<g id="&lt;Group&gt;">
						<g id="&lt;Group&gt;">
							<circle id="&lt;Path&gt;" class="s3" cx="925.4" cy="97.7" r="15.4"/>
						</g>
						<g id="&lt;Group&gt;">
							<circle id="&lt;Path&gt;" class="s4" cx="920.8" cy="92.6" r="5.6"/>
						</g>
					</g>
					<g id="&lt;Group&gt;">
						<g id="&lt;Group&gt;">
							<circle id="&lt;Path&gt;" class="s3" cx="1009.5" cy="97.7" r="15.4"/>
						</g>
						<g id="&lt;Group&gt;">
							<circle id="&lt;Path&gt;" class="s4" cx="1004.9" cy="92.6" r="5.6"/>
						</g>
					</g>
					<g id="&lt;Group&gt;">
						<path id="&lt;Path&gt;" class="s23" d="m969.1 144.9c-14.6 0-29.3-11.4-27.6-23.1 1.7-11.7 20.8-11.3 27.6-11.3 6.8 0 25.9-0.4 27.6 11.3 1.7 11.7-12.9 23.1-27.6 23.1z"/>
					</g>
					<ellipse id="&lt;Path&gt;" class="s6" cx="1031.5" cy="152.6" rx="17.1" ry="13.5"/>
					<ellipse id="&lt;Path&gt;" class="s6" cx="909.8" cy="152.6" rx="17.1" ry="13.5"/>
					<g id="&lt;Group&gt;">
						<g id="&lt;Group&gt;">
							<circle id="&lt;Path&gt;" class="s3" cx="925.4" cy="97.7" r="15.4"/>
						</g>
						<g id="&lt;Group&gt;">
							<circle id="&lt;Path&gt;" class="s4" cx="920.8" cy="92.6" r="5.6"/>
						</g>
					</g>
					<g id="&lt;Group&gt;">
						<g id="&lt;Group&gt;">
							<circle id="&lt;Path&gt;" class="s3" cx="1009.5" cy="97.7" r="15.4"/>
						</g>
						<g id="&lt;Group&gt;">
							<circle id="&lt;Path&gt;" class="s4" cx="1004.9" cy="92.6" r="5.6"/>
						</g>
					</g>
					<path id="&lt;Path&gt;" class="s5" d="m955.6 163c5 3.6 23.9 3.6 28.5 0 5.7 25.2-30.4 33.1-28.5 0z"/>
				</g>
				<path id="&lt;Path&gt;" class="s20" d=""/>
				<path id="&lt;Path&gt;" class="s22" d=""/>
			</g>
		</g>
		<g id="&lt;Group&gt;">
			<g id="&lt;Group&gt;">
				<path id="&lt;Path&gt;" class="s12" d="m68.6 437.3c-14.1-8.7-16.6-35.6-6.1-27.5q10.6 8.1 24.2 7.7c3.9 6-4 28.5-18.1 19.8z"/>
			</g>
			<g id="&lt;Group&gt;">
				<path id="&lt;Path&gt;" class="s12" d="m171.3 417.5q13.5 0.4 24.1-7.7c10.6-8.1 8.1 18.8-6 27.5-14.2 8.7-22-13.8-18.1-19.8z"/>
			</g>
			<g id="&lt;Group&gt;">
				<g id="&lt;Group&gt;">
					<g id="&lt;Group&gt;">
						<g id="&lt;Group&gt;">
							<path id="&lt;Path&gt;" class="s12" d="m131.6 404.7c-92.2 0-153.6 156.1 0 156.1 153.6 0 92.1-156.1 0-156.1z"/>
						</g>
					</g>
				</g>
				<g id="&lt;Group&gt;">
					<path id="&lt;Path&gt;" class="s12" d="m143 627.1c-96.6-0.7-153.9-28.6-131.8-90.5 22.2-62 64-71.1 142.9-69.8 78.9 1.3 94.4 45.6 100.4 73.7 5.9 28.1 8.5 87.4-111.5 86.6z"/>
				</g>
				<g id="&lt;Group&gt;">
					<g id="&lt;Group&gt;">
						<circle id="&lt;Path&gt;" class="s8" cx="100.5" cy="445.7" r="12"/>
					</g>
					<g id="&lt;Group&gt;">
						<circle id="&lt;Path&gt;" class="s4" cx="96.9" cy="441.7" r="4.4"/>
					</g>
				</g>
				<g id="&lt;Group&gt;">
					<g id="&lt;Group&gt;">
						<circle id="&lt;Path&gt;" class="s8" cx="166.3" cy="445.7" r="12"/>
					</g>
					<g id="&lt;Group&gt;">
						<circle id="&lt;Path&gt;" class="s4" cx="162.7" cy="441.7" r="4.4"/>
					</g>
				</g>
				<g id="&lt;Group&gt;">
					<path id="&lt;Path&gt;" class="s24" d="m79.7 517.3c0 10.5-6.5 19-14.5 19-7.9 0-14.4-8.5-14.4-19 0-10.4 6.5-17.6 14.4-17.6 8 0 14.5 7.2 14.5 17.6z"/>
				</g>
				<g id="&lt;Group&gt;">
					<path id="&lt;Path&gt;" class="s24" d="m211.4 517c0 10.3-6.7 18.7-14.9 18.7-8.2 0-14.9-8.4-14.9-18.7 0-10.3 6.7-17.3 14.9-17.3 8.2 0 14.9 7 14.9 17.3z"/>
				</g>
				<path id="&lt;Path&gt;" class="s6" d="m92.5 574.7h87.2c-3 33.9-87.2 33.3-87.2 0z"/>
			</g>
			<g id="&lt;Group&gt;">
				<path id="&lt;Path&gt;" class="s9" d="m109.7 493.9c-6.7-2.7 7.5-112.5 18.8-116.4 11.2-3.9 30.8 108.3 30.5 111-0.3 2.7-20.4 17.2-49.3 5.4z"/>
			</g>
		</g>
		<g id="&lt;Group&gt;">
			<g id="&lt;Group&gt;">
				<path id="&lt;Path&gt;" class="s25" d="m595.2 42.8c3.9-2.4 12-28.1 66.2-28.1 75.6 0 133.1 121.4 69.7 176.4q-73.3 63.7-122.1-19.4z"/>
			</g>
			<path id="&lt;Path&gt;" class="s6" d="m597.2 72.5c2.1-5.9 5.1-11.5 9.7-15.7 17.7-16.4 49.7-15.9 70.9-8.4 7.7 2.7 61.5 36.9 44.7 48.3-2.3 1.5-5.3 0.8-8-0.1q-6.6-2-13.3-4.1c-4.1-1.2-9.8-1.8-11.4 2.2-1.7 4 2.8 7.5 6.4 9.9 12 7.7 24.8 23.2 26 38 1.1 14.1-14 28-25.8 34.2-18.5 9.7-41.8 9.8-60.5 0.1-18.1-9.3-32.9-30.1-41-48.5-8.2-18.3-4-37.7 2.3-55.9z"/>
			<g id="&lt;Group&gt;">
				<path id="&lt;Path&gt;" class="s25" d="m494.9 171.7q-48.8 83.1-122.2 19.4c-63.3-55-5.8-176.4 69.8-176.4 54.2 0 62.3 25.7 66.2 28.1z"/>
			</g>
			<path id="&lt;Path&gt;" class="s6" d="m504.5 128.4c-8.2 18.4-22.9 39.2-41.1 48.5-18.6 9.7-41.9 9.6-60.5-0.1-11.7-6.2-26.9-20.1-25.8-34.2 1.2-14.8 14.1-30.3 26-38 3.6-2.4 8.1-5.9 6.5-9.9-1.6-4-7.4-3.4-11.5-2.2q-6.6 2.1-13.3 4.1c-2.6 0.9-5.7 1.6-8 0.1-16.8-11.4 37-45.6 44.8-48.3 21.2-7.5 53.1-8 70.9 8.4 4.5 4.2 7.6 9.8 9.6 15.7 6.4 18.2 10.5 37.6 2.4 55.9z"/>
			<g id="&lt;Group&gt;">
				<g id="&lt;Group&gt;">
					<g id="&lt;Group&gt;">
						<path id="&lt;Path&gt;" class="s12" d="m552.7 16.5c-117.8-1.4-198.6 197.3-2.3 199.6 196.3 2.3 120.1-198.2 2.3-199.6z"/>
					</g>
					<g id="&lt;Group&gt;">
						<g id="&lt;Group&gt;">
							<circle id="&lt;Path&gt;" class="s8" cx="509.8" cy="90.8" r="15.4"/>
						</g>
						<g id="&lt;Group&gt;">
							<circle id="&lt;Path&gt;" class="s4" cx="505.3" cy="85.6" r="5.6"/>
						</g>
					</g>
					<g id="&lt;Group&gt;">
						<g id="&lt;Group&gt;">
							<circle id="&lt;Path&gt;" class="s8" cx="593.9" cy="91.8" r="15.4"/>
						</g>
						<g id="&lt;Group&gt;">
							<circle id="&lt;Path&gt;" class="s4" cx="589.4" cy="86.6" r="5.6"/>
						</g>
					</g>
					<path id="&lt;Path&gt;" class="s5" d="m578.5 166.6l25.7-12.2c9.3 21.6-15.7 33.1-25.7 12.2z"/>
				</g>
			</g>
			<g id="&lt;Group&gt;">
				<path id="&lt;Path&gt;" class="s25" d="m510.9 145.6c9.8-29.3 44.8-37.9 70.3-11.3 25.5 26.7-6.1 63.9 22.3 76.3 18.2 7.9 89.2-6.6 70.6 33.6-10.7 23.2-49.2 25.1-70.6 22.7-47.9-5.4-127.2-18.8-92.6-121.3z"/>
			</g>
			<g id="&lt;Group&gt;">
				<ellipse id="&lt;Path&gt;" class="s24" cx="661.4" cy="235.2" rx="9.1" ry="13.6"/>
			</g>
		</g>
	</g>
</svg>