<svg version="1.2" xmlns="http://www.w3.org/2000/svg" viewBox="0 0 761 227" width="761" height="227"><defs><linearGradient id="P" gradientUnits="userSpaceOnUse"/><linearGradient id="g1" x1="-8" y1="11" x2="761" y2="9.1" href="#P"><stop stop-color="#635dad" stop-opacity=".1"/><stop offset=".5" stop-color="#ff74ab" stop-opacity=".1"/><stop offset="1" stop-color="#ffffff" stop-opacity="0"/></linearGradient></defs><style>.s0{fill:url(#g1)}</style><path class="s0" d="m0 56.8l9 9.4c9.1 9.2 27.5 28.7 45.4 42.6c18.1 14.5 36 23.3 54.5 4.7c17.9-18.6 35.9-66.5 54.4-66.2c17.9-0.3 35.9 47.6 53.9 61.5c18.3 14.5 36.5-5.1 54.4 4.7c18.3 9.8 36.5 47 54.5 33.1c18.1-14.5 36.4-80.1 54.4-75.7c18.1 4.5 36.5 39.1 54.4 76.6c18.1 37.8 36 37.8 54.5 14.2c20.4-22.7 30.4-31.6 52.5-44c23.2-11.5 37.8 5.6 55.8-13.7c18.3-18.9 36.5-75.6 54.4-85.1c18.3-9.1 36.5 28.1 54.5 33.2c18.1 4.7 36.4-23.7 45.4-37.9l9-14.2v227h-9c-9.1 0-27.5 0-45.4 0c-18.1 0-36 0-54.5 0c-17.9 0-35.9 0-54.4 0c-17.9 0-35.9 0-53.9 0q-27.5 0-54.4 0c-18.3 0-36.5 0-54.5 0c-18.1 0-36.4 0-54.4 0c-18.1 0-36.5 0-54.4 0c-18.1 0-36 0-54.5 0c-17.9 0-35.9 0-54.4 0c-17.9 0-35.9 0-53.9 0q-27.5 0-54.4 0c-18.3 0-36.5 0-54.5 0c-18.1 0-36.4 0-45.4 0h-9z" /></svg>