<svg version="1.2" xmlns="http://www.w3.org/2000/svg" viewBox="0 0 1400 980" width="1400" height="980">
	<title>vector-illustration-dog-wash-ai</title>
	<style>
		.s0 { opacity: .2;fill: #7c58e3 } 
		.s1 { opacity: .2;fill: #fefbf6 } 
		.s2 { fill: #caebd7 } 
		.s3 { fill: #ffffff } 
		.s4 { fill: #58ced3 } 
		.s5 { fill: #da6834 } 
		.s6 { fill: #ffa991 } 
		.s7 { fill: #362017 } 
	</style>
	<g id="&lt;Group&gt;">
	</g>
	<g id="&lt;Group&gt;">
		<path id="Layer" class="s0" d="m-1.7 4.5l1399.9-3.1l2.3 1014l-1399.9 3.1z" />
		<path id="Layer" fill-rule="evenodd" class="s1" d="m-2967.3-2124.4h53.8c9.9 16.3 15.8 34.9 15.8 55c0 44.6-28.3 83-69.7 100.5zm279 0.4l117.7 0.1c-0.7 29.3-26.9 52.7-59.1 52.6c-31.8 0-58-23.5-58.6-52.7zm343 0.4l208.9 0.3c9.9 16.3 15.9 34.9 15.9 55c-0.1 61.2-53.9 110.9-120.3 110.8c-66.9-0.1-120.6-50.3-120.5-111.1c0-20.2 5.7-38.7 16-55zm434.2 0.6l117.7 0.2c-0.7 29.3-26.9 52.7-59.1 52.6c-31.8 0-57.9-23.5-58.6-52.8zm343 0.5l209.3 0.3c9.9 16.3 15.9 34.8 15.9 55c-0.1 61.2-53.9 110.9-120.4 110.8c-66.8-0.1-120.5-50.3-120.4-111.1c-0.4-20.2 5.3-38.7 15.6-55zm434.2 0.6l117.8 0.2c-0.8 29.3-27 52.6-59.1 52.6c-31.9 0-57.6-23.5-58.7-52.8zm343 0.5l209.4 0.3c9.8 16.3 15.8 34.8 15.8 55c0 61.2-53.8 110.9-120.3 110.8c-67.2-0.1-120.9-50-120.8-111.1c0-20.2 6-38.8 15.9-55zm434.3 0.6l117.7 0.2c-0.7 29.2-26.9 52.6-59.1 52.6c-31.8-0.1-57.6-23.5-58.6-52.8zm343 0.5l209.3 0.3c9.9 16.2 15.9 34.8 15.8 55c0 61.1-53.8 110.8-120.3 110.7c-66.8 0-120.5-50.2-120.5-111.1c-0.3-20.1 5.7-38.7 15.7-54.9zm434.2 0.6l117.7 0.1c-0.7 29.3-26.9 52.7-59.1 52.7c-32.1-0.1-57.6-23.5-58.6-52.8zm343 0.4l209.3 0.3c9.9 16.3 15.9 34.9 15.9 55c-0.1 61.2-53.9 110.9-120.4 110.8c-66.8-0.1-120.5-50.3-120.4-111.1c-0.4-20.2 5.7-38.7 15.6-55zm434.2 0.6l117.8 0.2c-0.8 29.3-27 52.7-59.1 52.6c-32.2 0-57.7-23.5-58.7-52.8zm343 0.5l209.4 0.3c9.8 16.3 15.8 34.8 15.8 55c-0.1 61.2-53.9 110.9-120.3 110.8c-66.9-0.1-120.6-50.3-120.5-111.1c-0.3-20.2 5.7-38.7 15.6-55zm434.6 0.6h7.8v26.1c-4.6-7.5-7.5-16.3-7.8-26.1zm7.7 89.5l-0.2 201.1c-41-17.6-69.3-56.1-69.2-100.3c0-44.6 28.4-83 69.4-100.8zm-0.3 302.3l-0.1 55c-4.9-8.2-7.7-17.6-7.7-27.7c0-10.1 2.8-19.5 7.8-27.3zm-0.1 118.1l-0.3 201c-41-17.6-69.2-55.7-69.2-100.3c0.1-44.5 28.4-82.9 69.5-100.7zm-0.4 302.2v55c-5-8.1-7.8-17.2-7.8-27.3c0-10.4 2.9-19.5 7.8-27.7zm-0.1 118.8l-0.2 201.1c-41-17.7-69.2-56.1-69.2-100.7c0.1-44.9 28.4-83.2 69.4-100.4zm-0.3 301.6l-0.1 55.3c-4.9-8.5-7.7-17.6-7.7-27.7c0-10.1 2.8-19.5 7.8-27.6zm-0.1 118.7l-0.2 201.1c-41-17.6-69.3-56-69.2-100.6c0-44.6 28.3-82.9 69.4-100.5zm-0.3 301.7l-0.1 55.3c-4.9-8.2-7.7-17.6-7.7-27.7c0-10.1 2.8-19.5 7.8-27.6zm-0.2 118.7l-0.2 201.1c-41-17.6-69.2-56.1-69.2-100.3c0.1-44.6 28.4-83.3 69.4-100.8zm-0.3 301.9v55c-5-8.1-7.8-17.6-7.8-27.6c0-9.8 2.9-19.2 7.8-27.4zm-0.1 118.5l-0.2 201c-41-17.6-69.2-55.7-69.2-100.3c0-44.5 28.4-82.9 69.4-100.7zm-0.3 302.2l-0.1 55c-4.9-8.1-7.7-17.2-7.7-27.3c0-10.4 2.8-19.9 7.8-27.7zm-0.1 118.8l-0.2 201.1c-41-17.7-69.3-56.1-69.2-100.7c0-44.9 28.3-83.2 69.4-100.4zm-0.3 301.6l-0.1 55.3c-4.9-8.5-7.8-17.6-7.7-27.7c0-10.1 2.8-19.5 7.8-27.6zm-0.2 118.7l-0.1 155.2h-53.4c-10.6-16.3-15.9-34.9-15.9-55c0.1-44.3 28.4-82.6 69.4-100.2zm-278.8 154.9l-118.1-0.2c1.5-29.3 27.3-52.7 59.5-52.6c31.5 0 57.6 23.5 58.6 52.8zm-343.3-0.5l-209-0.3c-10.6-16.3-15.9-34.8-15.9-55c0.1-61.2 53.9-110.6 120.4-110.5c66.5 0.1 120.2 49.6 120.1 110.8c0.3 20.2-5 38.7-15.6 55zm-433.9-0.6l-118.1-0.2c1.4-29.3 27.3-52.7 59.5-52.6c31.4 0 57.6 23.5 58.6 52.8zm-343.3-0.5l-209-0.3c-10.6-16.3-15.9-34.8-15.9-55c0.1-61.2 53.9-110.5 120.4-110.5c66.4 0.1 120.1 49.7 120.1 110.8c0.3 20.2-5 38.7-15.6 55zm-433.9-0.6l-118.1-0.2c1.4-29.2 27.3-52.6 59.4-52.6c31.5 0.1 57.3 23.5 58.7 52.8zm-343.4-0.5l-209-0.3c-9.8-16.2-15.8-34.8-15.8-55c0-61.1 53.8-110.5 120.3-110.4c66.5 0.1 120.2 49.6 120.1 110.8c0.4 20.1-5 38.7-15.6 54.9zm-433.9-0.6l-118.1-0.1c1.5-29.3 27.3-52.7 59.5-52.7c31.5 0.1 57.3 23.5 58.6 52.8zm-343.3-0.5l-209-0.2c-9.9-16.3-15.9-34.9-15.8-55.1c0-61.1 53.8-110.5 120.3-110.4c66.5 0.1 120.2 49.6 120.1 110.8c0.3 20.2-5 38.7-15.6 54.9zm-433.9-0.6l-118.1-0.1c1.5-29.3 27.3-52.7 59.5-52.6c31.4 0 57.2 23.5 58.6 52.7zm-343.3-0.4l-209-0.3c-9.9-16.3-15.9-34.9-15.9-55c0.1-61.2 53.9-110.6 120.4-110.5c66.4 0.1 120.1 49.6 120.1 110.8c0.3 20.2-5.4 38.7-15.6 55zm-433.9-0.6l-118.1-0.2c1.4-29.3 27.3-52.7 59.4-52.6c31.5 0 57.3 23.5 58.7 52.8zm-343.4-0.5l-209-0.3c-9.8-16.3-15.8-34.8-15.8-55c0.1-61.2 53.9-110.6 120.3-110.5c66.5 0.1 120.2 49.7 120.1 110.8c0.4 20.2-5.3 38.7-15.6 55zm-433.9-0.6h-8.4v-25.7c4.9 7.5 7.8 16.6 8.4 25.7zm-8.3-89.5l0.2-201.1c41.3 17.7 69.6 56.1 69.5 100.7c0 44.9-28.4 83.2-69.7 100.4zm0.3-301.6v-55.3c5.3 8.5 8.5 17.6 8.5 27.7c0 9.7-3.2 19.5-8.5 27.6zm0.1-118.8l0.2-201c41.4 17.6 69.6 56 69.6 100.6c-0.1 44.3-28.4 82.6-69.8 100.4zm0.3-301.9l0.1-55.3c5.3 8.1 8.4 17.6 8.4 27.7c0 10.1-3.2 19.8-8.5 27.6zm0.1-118.7l0.2-201.1c41.4 17.6 69.6 56 69.6 100.3c-0.1 44.9-28.4 83.2-69.8 100.8zm0.3-301.7l0.1-55.3c5.3 8.2 8.5 17.6 8.5 27.7c-0.1 10.1-3.2 19.5-8.6 27.6zm0.2-118.7l0.2-201.1c41.3 17.6 69.6 55.8 69.5 100.3c0 44.9-28.3 83.3-69.7 100.8zm0.3-301.9v-55c5.3 8.1 8.5 17.2 8.5 27.6c0 10.1-3.2 19.2-8.5 27.4zm0.1-118.8l0.2-201.1c41.4 17.7 69.6 56.1 69.6 100.7c-0.1 44.5-28.4 83.2-69.8 100.4zm0.3-301.6l0.1-55c5.3 8.2 8.4 17.3 8.4 27.4c0 10-3.2 19.5-8.5 27.6zm0.1-118.8l0.2-201c41.4 17.6 69.6 56 69.6 100.6c0 44.3-28.4 82.6-69.8 100.4zm0.3-301.6l0.1-55.3c5.3 8.2 8.5 17.6 8.5 27.7c-0.1 9.8-3.2 19.5-8.6 27.6zm0.2-118.7l0.2-201.1c41.3 17.6 69.6 56.1 69.5 100.3c0 44.6-28.3 82.9-69.7 100.8zm0.3-302v-55.3c5.3 8.2 8.5 17.6 8.5 27.7c0 10.1-3.2 19.8-8.5 27.6zm4858 2794.5c-32.8-0.1-59.2-24.5-59.2-54.6c0-30.2 26.6-54.5 59.3-54.4c32.8 0 59.2 24.4 59.2 54.5c-0.1 30.2-26.6 54.5-59.3 54.5zm-368.2-63.7c0-61.1 53.8-110.5 120.6-110.4c66.5 0.1 120.2 49.6 120.2 110.8c-0.1 61.1-53.9 110.5-120.4 110.4c-66.8-0.1-120.9-49.9-120.4-110.8zm-79.4 126.2c0-30.3 26.2-54.3 59.1-54.3c32.9 0 59.1 24.5 59 54.4c0 30.3-26.6 54.3-59.1 54.3c-32.9-0.1-59-24.5-59-54.4zm281.1 0.3c0.1-30.2 26.6-54.3 59.1-54.2c32.9 0 59.1 24.5 59 54.4c0 30.3-26.5 54.3-59.1 54.3c-32.9-0.1-59-24.5-59-54.5zm-610.8-63.9c-32.7-0.1-59.2-24.5-59.1-54.6c0-30.1 26.5-54.5 59.3-54.4c32.7 0 59.2 24.4 59.1 54.6c0 30.1-26.5 54.4-59.3 54.4zm281.1 0.4c-32.7-0.1-59.2-24.5-59.1-54.6c0-30.2 26.5-54.5 59.3-54.4c32.7 0 59.2 24.4 59.1 54.5c0 30.2-26.5 54.5-59.3 54.5zm-140.5-65.6c-32.6-0.1-59-24.4-58.9-54.4c0-30.1 26.4-54.3 59.1-54.3c32.7 0 59 24.4 59 54.4c-0.1 30.1-26.5 54.3-59.2 54.3zm-508.8 1.5c0.1-61.1 53.9-110.5 120.7-110.4c66.5 0.1 120.2 49.6 120.1 110.8c0 61.1-53.8 110.5-120.3 110.4c-66.8-0.1-120.9-49.9-120.5-110.8zm-79.3 126.2c0-30.3 26.6-54.3 59.1-54.3c32.9 0.1 59 24.5 59 54.4c0 30.3-26.6 54.3-59.1 54.3c-32.9-0.1-59-24.5-59-54.4zm280.7 0.4c0.1-30.3 26.3-54.3 59.2-54.3c32.8 0.1 59 24.5 59 54.4c-0.1 30.3-26.6 54.3-59.2 54.3c-32.5-0.1-58.6-24.5-59-54.4zm-610.4-64c-32.8 0-59.2-24.4-59.2-54.6c0.1-30.1 26.6-54.4 59.3-54.4c32.8 0 59.2 24.4 59.2 54.6c0 30.1-26.6 54.4-59.3 54.4zm281.1 0.4c-32.7-0.1-59.2-24.5-59.1-54.6c0-30.1 26.5-54.5 59.3-54.4c32.7 0 59.2 24.4 59.1 54.6c0 30.1-26.5 54.4-59.3 54.4zm-140.5-65.6c-32.6 0-59-24.4-59-54.4c0.1-30.1 26.5-54.3 59.2-54.3c32.6 0.1 59 24.4 58.9 54.4c0 30.1-26.4 54.3-59.1 54.3zm-509.2 1.6c0.1-61.2 53.9-110.6 120.7-110.5c66.5 0.1 120.2 49.6 120.1 110.8c0 61.2-53.8 110.5-120.3 110.5c-66.8-0.1-120.5-50-120.5-110.8zm-79.3 126.1c0-30.3 26.2-54.3 59.1-54.3c32.9 0.1 59 24.5 59 54.5c0 30.2-26.6 54.3-59.1 54.2c-32.5 0-58.7-24.5-59-54.4zm281.1 0.4c0-30.3 26.6-54.3 59.1-54.3c32.9 0.1 59.1 24.5 59 54.4c0 30.3-26.6 54.3-59.1 54.3c-32.5 0-58.7-24.5-59-54.4zm-610.4-64c-32.8 0-59.2-24.4-59.2-54.6c0-30.1 26.6-54.4 59.3-54.4c32.8 0.1 59.2 24.5 59.2 54.6c-0.1 30.1-26.6 54.5-59.3 54.4zm281.1 0.4c-32.8 0-59.2-24.4-59.2-54.6c0.1-30.1 26.6-54.4 59.3-54.4c32.8 0.1 59.2 24.5 59.2 54.6c-0.1 30.1-26.6 54.5-59.3 54.4zm-140.5-65.6c-32.7 0-59-24.4-59-54.4c0.1-30 26.5-54.3 59.1-54.3c32.7 0.1 59.1 24.4 59 54.5c0 30-26.5 54.3-59.1 54.2zm-509.2 1.6c0.1-61.2 53.9-110.6 120.7-110.5c66.5 0.1 120.2 49.7 120.1 110.8c0 61.2-53.8 110.6-120.3 110.5c-66.9-0.1-120.6-50-120.5-110.8zm-79.3 126.1c0-30.2 26.5-54.3 59.1-54.2c32.9 0 59 24.4 59 54.4c-0.1 30.2-26.6 54.3-59.1 54.2c-32.6 0-58.7-24.4-59-54.4zm281.1 0.4c0-30.3 26.6-54.3 59.1-54.2c32.9 0 59 24.4 59 54.4c0 30.2-26.6 54.3-59.1 54.2c-32.5 0-58.7-24.5-59-54.4zm-610.5-64c-32.7 0-59.2-24.4-59.1-54.5c0-30.2 26.5-54.5 59.3-54.5c32.7 0.1 59.2 24.5 59.1 54.6c0 30.2-26.5 54.5-59.3 54.4zm281.1 0.4c-32.7 0-59.1-24.4-59.1-54.5c0-30.2 26.5-54.5 59.3-54.5c32.8 0.1 59.2 24.5 59.2 54.6c-0.1 30.2-26.6 54.5-59.4 54.4zm-140.4-65.6c-32.7 0-59.1-24.3-59-54.4c0-30 26.4-54.3 59.1-54.2c32.7 0 59 24.3 59 54.4c-0.1 30-26.5 54.3-59.1 54.2zm-509.2 1.6c0-61.2 53.8-110.5 120.7-110.4c66.4 0 120.1 49.6 120.1 110.7c-0.1 61.2-53.9 110.6-120.4 110.5c-66.8-0.1-120.5-49.9-120.4-110.8zm-79.4 126.1c0.1-30.2 26.3-54.3 59.1-54.2c32.9 0 59.1 24.5 59 54.4c0 30.3-26.5 54.3-59.1 54.3c-32.5-0.1-58.6-24.5-59-54.5zm281.2 0.4c0-30.2 26.5-54.3 59.1-54.2c32.8 0 59 24.5 59 54.4c-0.1 30.3-26.6 54.3-59.1 54.2c-32.6 0-58.7-24.4-59-54.4zm-610.5-63.9c-32.8-0.1-59.2-24.5-59.2-54.6c0.1-30.2 26.6-54.5 59.3-54.4c32.8 0 59.2 24.4 59.2 54.5c0 30.2-26.5 54.5-59.3 54.5zm280.8 0.4c-32.8-0.1-59.2-24.5-59.2-54.6c0-30.2 26.6-54.5 59.3-54.4c32.8 0 59.2 24.4 59.2 54.5c-0.1 30.2-26.6 54.5-59.3 54.5zm-140.2-65.6c-32.6-0.1-59-24.4-59-54.5c0.1-30 26.5-54.3 59.2-54.2c32.6 0 59 24.4 59 54.4c-0.1 30.1-26.5 54.3-59.2 54.3zm-509.2 1.5c0.1-61.1 53.9-110.5 120.7-110.4c66.5 0.1 120.2 49.6 120.2 110.8c-0.1 61.1-53.9 110.5-120.4 110.4c-66.8-0.1-120.5-49.9-120.5-110.8zm-79.3 126.2c0-30.3 26.6-54.3 59.1-54.3c32.9 0.1 59 24.5 59 54.4c0 30.3-26.6 54.3-59.1 54.3c-32.5-0.1-58.7-24.5-59-54.4zm281.1 0.4c0.1-30.3 26.6-54.3 59.1-54.3c32.9 0 59.1 24.5 59 54.4c0 30.3-26.5 54.3-59.1 54.3c-32.5-0.1-59-24.5-59-54.4zm-610.4-64c-32.8-0.1-59.2-24.5-59.2-54.6c0.1-30.1 26.6-54.5 59.3-54.4c32.8 0 59.2 24.4 59.2 54.6c-0.1 30.1-26.6 54.4-59.3 54.4zm280.7 0.4c-32.7-0.1-59.2-24.5-59.1-54.6c0-30.1 26.5-54.5 59.3-54.4c32.7 0 59.2 24.4 59.1 54.6c0 30.1-26.5 54.4-59.3 54.4zm-140.1-65.6c-32.7-0.1-59-24.4-59-54.4c0.1-30.1 26.5-54.3 59.1-54.3c32.7 0.1 59.1 24.4 59 54.4c0 30.1-26.5 54.3-59.1 54.3zm-307.4 128.1c0-30.3 26.2-54.3 59.1-54.3c32.9 0.1 59 24.5 59 54.4c0 30.3-26.6 54.3-59.1 54.3c-32.5-0.1-59-24.5-59-54.4zm4830.6-477.1c-32.8-0.1-59.2-24.4-59.2-54.5c0.1-30 26.6-54.2 59.3-54.2c32.8 0 59.2 24.4 59.2 54.4c0 30.1-26.6 54.3-59.3 54.3zm-368.2-63.3c0.1-61.5 53.9-110.9 120.7-110.8c66.5 0.1 120.2 49.6 120.1 111.1c-0.1 61.2-53.9 110.5-120.3 110.4c-66.9 0-120.9-49.9-120.5-110.7zm-79.3 125.8c0-30 26.2-54.7 59.1-54.6c32.8 0 59 24.8 59 54.7c-0.1 30.3-26.6 54.3-59.2 54.3c-32.8-0.1-59-24.2-58.9-54.4zm281.1 0.4c0-30 26.5-54.7 59.1-54.6c32.9 0 59 24.8 59 54.7c-0.1 30.3-26.6 54.3-59.1 54.3c-32.9-0.1-59.1-24.2-59-54.4zm-140.8 64.8c0-30.2 26.9-54.3 59.4-54.2c32.2 0 59.1 24.5 59 54.4c0 30.3-26.9 54.3-59.1 54.2c-32.5 0-59.4-24.1-59.3-54.4zm-329.7 53.9c-66.5-0.1-120.2-49.6-120.1-110.8c0.1-61.2 53.9-110.5 120.4-110.4c66.5 0.1 120.2 49.6 120.1 110.8c-0.1 61.1-53.9 110.5-120.4 110.4zm-140.3-182.7c-32.8-0.1-59.2-24.4-59.2-54.4c0-30.1 26.6-54.3 59.3-54.3c32.8 0.1 59.2 24.4 59.2 54.4c-0.1 30.1-26.6 54.3-59.3 54.3zm281.1 0.4c-32.8-0.1-59.2-24.4-59.2-54.4c0.1-30.1 26.6-54.3 59.3-54.3c32.8 0.1 59.2 24.4 59.2 54.4c-0.1 30.1-26.6 54.3-59.3 54.3zm-140.5-65.3c-32.7 0-59-24.4-59-54.6c0-30.1 26.5-54.4 59.1-54.4c32.7 0.1 59.1 24.5 59 54.6c0 30.1-26.5 54.5-59.1 54.4zm-508.8 1.6c0-61.5 53.8-110.9 120.7-110.8c66.4 0.1 120.1 49.6 120.1 111.1c-0.1 61.2-53.9 110.6-120.4 110.5c-66.8-0.1-120.9-50-120.4-110.8zm-79.4 125.8c0.1-29.9 26.6-54.6 59.1-54.6c32.9 0.1 59.1 24.8 59 54.8c0 30.2-26.6 54.2-59.1 54.2c-32.9 0-59-24.2-59-54.4zm280.8 0.4c0-30 26.2-54.6 59.1-54.6c32.9 0 59 24.8 59 54.7c0 30.3-26.6 54.3-59.1 54.3c-32.6-0.1-58.7-24.2-59-54.4zm-140.5 64.9c0.1-30.3 27-54.3 59.5-54.3c32.2 0 59 24.5 59 54.4c0 30.3-26.9 54.3-59.1 54.3c-32.9-0.1-59.4-24.2-59.4-54.4zm-329.6 53.8c-66.5-0.1-120.2-49.6-120.1-110.8c0.1-61.1 53.9-110.5 120.4-110.4c66.5 0.1 120.1 49.6 120.1 110.8c-0.1 61.1-53.9 110.5-120.4 110.4zm-140.4-182.7c-32.7 0-59.2-24.4-59.1-54.4c0-30.1 26.5-54.3 59.3-54.3c32.7 0.1 59.2 24.4 59.1 54.5c0 30-26.5 54.3-59.3 54.2zm281.1 0.4c-32.7 0-59.2-24.4-59.1-54.4c0-30.1 26.5-54.3 59.3-54.3c32.7 0.1 59.2 24.4 59.1 54.4c0 30.1-26.5 54.3-59.3 54.3zm-140.4-65.3c-32.7 0-59.1-24.4-59-54.5c0-30.2 26.4-54.5 59.1-54.5c32.7 0.1 59 24.5 59 54.6c-0.1 30.2-26.5 54.5-59.1 54.4zm-509.2 1.6c0-61.5 53.8-110.9 120.7-110.8c66.4 0.1 120.1 49.6 120.1 111.1c-0.1 61.2-53.9 110.6-120.4 110.5c-66.8-0.1-120.5-50-120.4-110.8zm-79.4 125.8c0.1-29.9 26.3-54.6 59.1-54.6c32.9 0.1 59.1 24.8 59 54.8c0 30.2-26.5 54.3-59.1 54.2c-32.5 0-58.6-24.1-59-54.4zm281.2 0.4c0-29.9 26.5-54.6 59.1-54.6c32.8 0.1 59 24.8 59 54.8c-0.1 30.2-26.6 54.3-59.2 54.2c-32.5 0-58.6-24.1-58.9-54.4zm-140.9 64.9c0.1-30.3 27-54.3 59.5-54.3c32.2 0.1 59 24.5 59 54.4c0 30.3-26.9 54.3-59.1 54.3c-32.5-0.1-59-24.2-59.4-54.4zm-329.3 53.9c-66.4-0.1-120.1-49.7-120-110.8c0.1-61.2 53.9-110.6 120.4-110.5c66.4 0.1 120.1 49.6 120 110.8c-0.1 61.2-53.9 110.5-120.4 110.5zm-140.3-182.8c-32.8 0-59.2-24.3-59.2-54.4c0.1-30 26.6-54.3 59.3-54.2c32.8 0 59.2 24.3 59.2 54.4c0 30-26.6 54.3-59.3 54.2zm281.1 0.4c-32.7 0-59.2-24.3-59.1-54.4c0-30 26.5-54.3 59.3-54.2c32.7 0 59.2 24.3 59.1 54.4c0 30-26.5 54.3-59.3 54.2zm-140.5-65.2c-32.6-0.1-59-24.5-59-54.6c0.1-30.2 26.5-54.5 59.2-54.4c32.6 0 59 24.4 58.9 54.5c0 30.2-26.4 54.5-59.1 54.5zm-509.2 1.5c0.1-61.5 53.9-110.8 120.7-110.8c66.5 0.1 120.2 49.7 120.1 111.2c0 61.1-53.8 110.5-120.3 110.4c-66.8-0.1-120.5-49.9-120.5-110.8zm-79.3 125.8c0-29.9 26.6-54.6 59.1-54.5c32.9 0 59 24.8 59 54.7c0 30.3-26.6 54.3-59.1 54.2c-32.5 0-58.7-24.1-59-54.4zm281.1 0.4c0.1-29.9 26.6-54.6 59.1-54.6c32.9 0.1 59.1 24.9 59 54.8c0 30.2-26.5 54.3-59.1 54.2c-32.5 0-58.7-24.1-59-54.4zm-140.8 64.9c0-30.3 26.9-54.3 59.5-54.3c32.2 0.1 59 24.5 59 54.5c-0.1 30.2-27 54.3-59.1 54.2c-32.6 0-59.1-24.1-59.4-54.4zm-329.3 53.9c-66.5-0.1-120.1-49.6-120.1-110.8c0.1-61.2 53.9-110.6 120.4-110.5c66.5 0.1 120.2 49.6 120.1 110.8c-0.1 61.2-53.9 110.6-120.4 110.5zm-140.3-182.7c-32.8-0.1-59.2-24.4-59.2-54.5c0.1-30 26.6-54.3 59.3-54.2c32.8 0 59.2 24.4 59.2 54.4c-0.1 30-26.6 54.3-59.3 54.3zm281.1 0.3c-32.8 0-59.2-24.3-59.2-54.4c0.1-30 26.6-54.3 59.3-54.2c32.8 0 59.2 24.3 59.2 54.4c-0.1 30-26.6 54.3-59.3 54.2zm-140.5-65.2c-32.7-0.1-59-24.5-59-54.6c0.1-30.1 26.5-54.5 59.1-54.4c32.7 0 59.1 24.4 59 54.6c0 30.1-26.5 54.4-59.1 54.4zm-509.2 1.5c0.1-61.4 53.9-110.8 120.7-110.7c66.5 0.1 120.2 49.6 120.1 111.1c0 61.2-53.8 110.5-120.3 110.4c-66.9-0.1-120.6-49.9-120.5-110.8zm-79.3 125.9c0-30 26.2-54.7 59.1-54.6c32.9 0 59 24.8 59 54.7c-0.1 30.3-26.6 54.3-59.1 54.3c-32.6-0.1-58.7-24.2-59-54.4zm281.1 0.3c0-29.9 26.6-54.6 59.1-54.5c32.9 0 59 24.8 59 54.7c0 30.3-26.6 54.3-59.1 54.3c-32.5-0.1-58.7-24.2-59-54.5zm-140.8 64.9c0-30.2 26.9-54.3 59.4-54.2c32.2 0 59.1 24.5 59 54.4c0 30.2-26.9 54.3-59.1 54.2c-32.5 0-59-24.1-59.3-54.4zm-329.3 53.9c-66.5-0.1-120.2-49.6-120.1-110.8c0.1-61.2 53.9-110.5 120.4-110.4c66.5 0 120.1 49.6 120.1 110.7c-0.1 61.2-53.9 110.6-120.4 110.5zm-140.4-182.7c-32.7-0.1-59.2-24.4-59.1-54.4c0-30.1 26.5-54.3 59.3-54.3c32.7 0.1 59.2 24.4 59.1 54.4c0 30.1-26.5 54.3-59.3 54.3zm280.8 0.4c-32.8-0.1-59.2-24.4-59.2-54.5c0.1-30 26.6-54.2 59.3-54.2c32.8 0 59.2 24.4 59.2 54.4c0 30.1-26.5 54.3-59.3 54.3zm-140.1-65.3c-32.7 0-59.1-24.4-59-54.6c0-30.1 26.5-54.4 59.1-54.4c32.7 0.1 59 24.4 59 54.6c-0.1 30.1-26.5 54.4-59.1 54.4zm-509.2 1.6c0-61.5 53.8-110.9 120.7-110.8c66.5 0.1 120.2 49.6 120.1 111.1c-0.1 61.2-53.9 110.6-120.4 110.5c-66.8-0.1-120.5-50-120.4-110.8zm-79.4 125.8c0.1-30 26.6-54.6 59.1-54.6c32.9 0 59.1 24.8 59 54.7c0 30.3-26.5 54.3-59.1 54.3c-32.5-0.1-58.6-24.2-59-54.4zm281.2 0.4c0-30 26.5-54.7 59.1-54.6c32.9 0 59 24.8 59 54.7c-0.1 30.3-26.6 54.3-59.1 54.3c-32.6-0.1-59.1-24.2-59-54.4zm-140.8 64.8c0-30.2 26.9-54.3 59.4-54.2c32.2 0 59 24.5 59 54.4c0 30.3-26.9 54.3-59.1 54.3c-32.5-0.1-59.4-24.2-59.3-54.5zm-329.3 53.9c-66.5-0.1-120.2-49.6-120.1-110.8c0.1-61.1 53.9-110.5 120.4-110.4c66.4 0.1 120.1 49.6 120 110.8c-0.1 61.1-53.9 110.5-120.3 110.4zm-140.4-182.7c-32.8 0-59.2-24.4-59.2-54.4c0.1-30.1 26.6-54.3 59.4-54.3c32.7 0.1 59.1 24.4 59.1 54.4c0 30.1-26.5 54.3-59.3 54.3zm280.8 0.4c-32.8-0.1-59.2-24.4-59.2-54.4c0.1-30.1 26.6-54.3 59.3-54.3c32.8 0.1 59.2 24.4 59.2 54.4c-0.1 30.1-26.6 54.3-59.3 54.3zm-140.2-65.3c-32.6 0-59-24.4-59-54.6c0.1-30.1 26.5-54.4 59.2-54.4c32.6 0.1 59 24.5 59 54.6c-0.1 30.1-26.5 54.5-59.2 54.4zm-307.4 127.8c0.1-29.9 26.3-54.6 59.1-54.6c32.9 0.1 59.1 24.8 59 54.8c0 30.2-26.5 54.2-59.1 54.2c-32.5 0-59-24.2-59-54.4zm4830.6-476.8c-32.7 0-59.2-24.4-59.1-54.4c0-30.1 26.5-54.3 59.3-54.3c32.7 0.1 59.2 24.4 59.1 54.5c0 30-26.5 54.2-59.3 54.2zm-368.2-64c0.1-61.1 53.9-110.5 120.7-110.4c66.5 0.1 120.2 49.6 120.1 110.8c0 61.5-53.8 110.9-120.3 110.8c-66.8-0.1-120.9-49.7-120.5-111.2zm-79.3 126.2c0-30.3 26.2-54.3 59.1-54.3c32.9 0.1 59 24.5 59 54.4c0 30.3-26.6 54.3-59.1 54.3c-32.9-0.1-59-24.2-59-54.4zm281.1 0.4c0-30.3 26.6-54.3 59.1-54.3c32.9 0.1 59 24.5 59 54.4c0 30.3-26.6 54.3-59.1 54.3c-32.9-0.1-59-24.2-59-54.4zm-140.8 65.2c0-30.3 26.9-54.3 59.5-54.3c32.1 0.1 59 24.2 59 54.4c-0.1 30.3-27 54.3-59.1 54.3c-32.6-0.1-59.4-24.2-59.4-54.4zm-329.7 53.8c-66.4 0-120.1-49.6-120-110.7c0.1-61.2 53.9-110.6 120.3-110.5c66.5 0.1 120.2 49.6 120.1 110.8c-0.1 61.2-53.9 110.5-120.4 110.4zm-140.3-182.7c-32.8 0-59.2-24.3-59.2-54.4c0.1-30 26.6-54.3 59.3-54.2c32.8 0 59.2 24.3 59.2 54.4c0 30-26.6 54.3-59.3 54.2zm281.1 0.4c-32.7 0-59.2-24.4-59.1-54.4c0-30 26.5-54.3 59.3-54.3c32.7 0.1 59.2 24.4 59.1 54.5c0 30-26.5 54.3-59.3 54.2zm-140.5-65.6c-32.6 0-59-24.3-59-54.4c0.1-30 26.5-54.3 59.2-54.2c32.6 0 59 24.3 58.9 54.4c0 30-26.4 54.3-59.1 54.2zm-508.8 1.3c0.1-61.2 53.9-110.6 120.7-110.5c66.5 0.1 120.2 49.6 120.1 110.8c-0.1 61.5-53.9 110.9-120.3 110.8c-66.9-0.1-120.9-49.6-120.5-111.1zm-79.3 126.1c0-30.3 26.5-54.3 59.1-54.3c32.8 0.1 59 24.5 59 54.5c-0.1 30.2-26.6 54.3-59.1 54.2c-32.9 0-59.1-24.1-59-54.4zm280.7 0.4c0.1-30.3 26.2-54.3 59.1-54.3c32.9 0.1 59.1 24.5 59 54.5c0 30.2-26.6 54.2-59.1 54.2c-32.5 0-58.7-24.2-59-54.4zm-140.4 65.2c0-30.3 26.9-54.3 59.4-54.3c32.2 0.1 59.1 24.2 59 54.5c0 30.2-26.9 54.3-59.1 54.2c-32.9 0-59.4-24.2-59.3-54.4zm-329.7 53.9c-66.5-0.1-120.1-49.6-120.1-110.8c0.1-61.2 53.9-110.6 120.4-110.5c66.5 0.1 120.2 49.6 120.1 110.8c-0.1 61.2-53.9 110.6-120.4 110.5zm-140.3-182.8c-32.8 0-59.2-24.3-59.2-54.4c0-30 26.6-54.3 59.3-54.2c32.8 0 59.2 24.3 59.2 54.4c-0.1 30-26.6 54.3-59.3 54.2zm281.1 0.4c-32.8 0-59.2-24.3-59.2-54.4c0.1-30 26.6-54.3 59.3-54.2c32.8 0 59.2 24.3 59.2 54.4c-0.1 30-26.6 54.3-59.3 54.2zm-140.5-65.6c-32.7 0-59-24.3-59-54.4c0.1-30 26.5-54.3 59.1-54.2c32.7 0 59.1 24.3 59 54.4c0 30-26.5 54.3-59.1 54.2zm-509.2 1.3c0.1-61.2 53.9-110.6 120.7-110.5c66.5 0.1 120.2 49.7 120.1 110.8c0 61.5-53.8 110.9-120.3 110.8c-66.9-0.1-120.6-49.6-120.5-111.1zm-79.3 126.1c0-30.2 26.2-54.3 59.1-54.2c32.9 0 59 24.5 59 54.4c-0.1 30.2-26.6 54.3-59.1 54.2c-32.6 0-58.7-24.1-59-54.4zm281.1 0.4c0-30.2 26.6-54.3 59.1-54.2c32.9 0 59 24.4 59 54.4c0 30.2-26.6 54.3-59.1 54.2c-32.5 0-58.7-24.1-59-54.4zm-140.8 65.2c0-30.2 26.9-54.3 59.4-54.2c32.2 0 59.1 24.1 59 54.4c0 30.2-26.9 54.3-59.1 54.2c-32.5 0-59.3-24.1-59.3-54.4zm-329.3 53.9c-66.5-0.1-120.2-49.6-120.1-110.8c0.1-61.2 53.9-110.5 120.4-110.5c66.5 0.1 120.1 49.7 120.1 110.8c-0.1 61.2-53.9 110.6-120.4 110.5zm-140.4-182.7c-32.7-0.1-59.2-24.4-59.1-54.4c0-30.1 26.5-54.3 59.3-54.3c32.7 0 59.2 24.4 59.1 54.4c0 30.1-26.5 54.3-59.3 54.3zm281.1 0.4c-32.7-0.1-59.1-24.4-59.1-54.5c0-30 26.5-54.3 59.3-54.2c32.8 0 59.2 24.4 59.2 54.4c-0.1 30.1-26.6 54.3-59.4 54.3zm-140.4-65.6c-32.7-0.1-59.1-24.4-59-54.4c0-30.1 26.5-54.3 59.1-54.3c32.7 0 59 24.4 59 54.4c-0.1 30.1-26.5 54.3-59.1 54.3zm-509.2 1.2c0-61.2 53.8-110.5 120.7-110.4c66.5 0.1 120.1 49.6 120.1 110.7c-0.1 61.5-53.9 110.9-120.4 110.8c-66.8-0.1-120.5-49.6-120.4-111.1zm-79.4 126.1c0.1-30.2 26.6-54.3 59.1-54.2c32.9 0 59.1 24.5 59 54.4c0 30.3-26.5 54.3-59.1 54.3c-32.5-0.1-58.6-24.2-59-54.5zm281.2 0.4c0-30.2 26.5-54.3 59.1-54.2c32.9 0 59 24.5 59 54.4c-0.1 30.3-26.6 54.3-59.1 54.2c-32.6 0-58.7-24.1-59-54.4zm-140.8 65.2c0-30.2 26.9-54.3 59.4-54.2c32.2 0 59 24.1 59 54.4c0 30.3-26.9 54.3-59.1 54.3c-32.5-0.1-59.4-24.2-59.3-54.5zm-329.4 53.9c-66.4-0.1-120.1-49.6-120-110.8c0.1-61.1 53.9-110.5 120.4-110.4c66.4 0.1 120.1 49.6 120 110.8c-0.1 61.1-53.9 110.5-120.4 110.4zm-140.3-182.7c-32.8-0.1-59.2-24.4-59.2-54.4c0.1-30.1 26.6-54.3 59.3-54.3c32.8 0.1 59.2 24.4 59.2 54.4c0 30.1-26.5 54.3-59.3 54.3zm281.1 0.4c-32.7-0.1-59.2-24.4-59.1-54.4c0-30.1 26.5-54.3 59.3-54.3c32.7 0.1 59.2 24.4 59.1 54.4c0 30.1-26.5 54.3-59.3 54.3zm-140.5-65.6c-32.6-0.1-59-24.4-59-54.4c0.1-30.1 26.5-54.3 59.2-54.3c32.6 0.1 59 24.4 59 54.4c-0.1 30.1-26.5 54.3-59.2 54.3zm-509.2 1.2c0.1-61.1 53.9-110.5 120.7-110.4c66.5 0.1 120.2 49.6 120.2 110.8c-0.1 61.5-53.9 110.8-120.4 110.8c-66.8-0.1-120.5-49.7-120.5-111.2zm-79.3 126.2c0-30.3 26.2-54.3 59.1-54.3c32.9 0.1 59 24.5 59 54.4c0 30.3-26.6 54.3-59.1 54.3c-32.5-0.1-58.7-24.2-59-54.4zm281.1 0.4c0.1-30.3 26.6-54.3 59.1-54.3c32.9 0 59.1 24.5 59 54.4c0 30.3-26.5 54.3-59.1 54.3c-32.5-0.1-58.7-24.2-59-54.4zm-140.8 65.2c0.1-30.3 27-54.3 59.5-54.3c32.2 0 59 24.2 59 54.4c-0.1 30.3-26.9 54.3-59.1 54.3c-32.6-0.1-59.4-24.2-59.4-54.4zm-329.3 53.8c-66.5-0.1-120.1-49.6-120.1-110.8c0.1-61.1 53.9-110.5 120.4-110.4c66.5 0.1 120.2 49.6 120.1 110.8c-0.1 61.2-53.9 110.5-120.4 110.4zm-140.3-182.7c-32.8 0-59.2-24.4-59.2-54.4c0.1-30 26.6-54.3 59.3-54.3c32.8 0.1 59.2 24.4 59.2 54.5c-0.1 30-26.6 54.3-59.3 54.2zm280.7 0.4c-32.7 0-59.2-24.4-59.1-54.4c0-30.1 26.5-54.3 59.3-54.3c32.7 0.1 59.2 24.4 59.1 54.5c0 30-26.5 54.2-59.3 54.2zm-140.1-65.6c-32.7 0-59-24.4-59-54.4c0.1-30.1 26.5-54.3 59.1-54.3c32.7 0.1 59.1 24.4 59 54.5c0 30-26.5 54.3-59.1 54.2zm-509.2 1.3c0.1-61.2 53.9-110.6 120.7-110.5c66.5 0.1 120.2 49.6 120.1 110.8c0 61.5-53.8 110.9-120.3 110.8c-66.9-0.1-120.5-49.6-120.5-111.1zm-79.3 126.1c0-30.3 26.6-54.3 59.1-54.3c32.9 0.1 59 24.5 59 54.5c-0.1 30.2-26.6 54.2-59.1 54.2c-32.6 0-58.7-24.2-59-54.4zm281.1 0.4c0-30.3 26.6-54.3 59.1-54.3c32.9 0.1 59 24.5 59 54.4c0 30.3-26.6 54.3-59.1 54.3c-32.5-0.1-59-24.2-59-54.4zm-140.8 65.2c0-30.3 26.9-54.3 59.5-54.3c32.1 0.1 59 24.2 58.9 54.4c0 30.3-26.9 54.3-59.1 54.3c-32.5 0-59.3-24.2-59.3-54.4zm-329.3 53.9c-66.5-0.1-120.2-49.7-120.1-110.8c0.1-61.2 53.9-110.6 120.4-110.5c66.5 0.1 120.2 49.6 120.1 110.8c-0.1 61.2-53.9 110.5-120.4 110.5zm-140.4-182.8c-32.7 0-59.2-24.3-59.1-54.4c0-30 26.5-54.3 59.3-54.2c32.7 0 59.2 24.3 59.1 54.4c0 30-26.5 54.3-59.3 54.2zm280.8 0.4c-32.8 0-59.2-24.3-59.2-54.4c0.1-30 26.6-54.3 59.4-54.2c32.7 0 59.1 24.3 59.1 54.4c0 30-26.5 54.3-59.3 54.2zm-140.1-65.6c-32.7 0-59.1-24.3-59-54.4c0-30 26.5-54.3 59.1-54.2c32.7 0 59 24.3 59 54.4c-0.1 30-26.5 54.3-59.1 54.2zm-307.4 128.1c0-30.2 26.2-54.6 59.1-54.6c32.9 0.1 59 24.5 59 54.5c-0.1 30.2-26.6 54.3-59.1 54.2c-32.6 0-59.1-24.1-59-54.1zm4830.6-477.1c-32.8 0-59.2-24.4-59.2-54.4c0-30 26.6-54.3 59.3-54.3c32.8 0.1 59.2 24.4 59.2 54.5c-0.1 30-26.6 54.3-59.3 54.2zm-368.2-63.6c0-61.2 53.8-110.6 120.7-110.5c66.4 0.1 120.1 50 120.1 110.8c-0.1 60.9-53.9 110.9-120.4 110.8c-66.8-0.1-120.5-49.9-120.4-111.1zm-79.4 126.1c0.1-30.2 26.2-54.3 59.1-54.2c32.9 0 59.1 24.4 59 54.4c0 30.2-26.6 54.3-59.1 54.2c-32.9 0-59-24.1-59-54.4zm281.1 0.4c0.1-30.3 26.6-54.3 59.1-54.2c32.9 0 59.1 24.4 59 54.4c0 30.2-26.5 54.3-59.1 54.2c-32.8 0-59-24.1-59-54.4zm-140.8 65.2c0.1-30.3 27-54.3 59.5-54.2c32.2 0 59 24.4 59 54.4c0 30.2-26.9 54.3-59.1 54.2c-32.5 0-59.4-24.5-59.4-54.4zm-329.6 53.6c-66.5-0.1-120.2-49.7-120.1-111c0.1-61.3 53.9-110.7 120.4-110.6c66.5 0.1 120.1 49.7 120.1 110.9c-0.1 61.3-53.9 110.8-120.4 110.7zm-140.4-182.8c-32.7 0-59.2-24.3-59.1-54.4c0-30 26.5-54.3 59.3-54.2c32.7 0 59.2 24.3 59.1 54.4c0 30-26.5 54.3-59.3 54.2zm281.1 0.4c-32.7 0-59.1-24.3-59.1-54.4c0-30 26.5-54.3 59.3-54.2c32.8 0 59.2 24.3 59.2 54.4c-0.1 30-26.6 54.3-59.4 54.2zm-140.4-65.2c-32.7-0.1-59.1-24.4-59-54.5c0-30 26.4-54.3 59.1-54.2c32.7 0 59 24.4 59 54.4c-0.1 30.1-26.5 54.3-59.1 54.3zm-508.9 1.2c0.1-61.2 53.9-110.5 120.7-110.4c66.5 0 120.2 49.9 120.1 110.7c0 60.9-53.8 110.9-120.3 110.8c-66.8-0.1-120.5-49.9-120.5-111.1zm-79.3 126.1c0-30.2 26.6-54.3 59.1-54.2c32.9 0 59 24.5 59 54.4c0 30.3-26.6 54.3-59.1 54.3c-32.9-0.1-59-24.2-59-54.5zm280.8 0.4c0-30.2 26.2-54.3 59.1-54.2c32.8 0 59 24.5 59 54.4c-0.1 30.2-26.6 54.3-59.1 54.2c-32.6 0-58.7-24.1-59-54.4zm-140.5 65.2c0-30.2 26.9-54.3 59.5-54.2c32.1 0 59 24.5 59 54.4c-0.1 30.3-27 54.3-59.1 54.2c-32.9 0-59.4-24.4-59.4-54.4zm-329.7 53.6c-66.4-0.1-120.1-49.7-120-111c0.1-61.2 53.9-110.7 120.4-110.6c66.4 0.1 120.1 49.7 120 111c-0.1 61.2-53.9 110.7-120.4 110.6zm-140.3-182.7c-32.8-0.1-59.2-24.4-59.2-54.5c0.1-30 26.6-54.3 59.3-54.2c32.8 0 59.2 24.4 59.2 54.4c0 30.1-26.5 54.3-59.3 54.3zm281.1 0.3c-32.7 0-59.2-24.3-59.1-54.4c0-30 26.5-54.3 59.3-54.2c32.7 0 59.2 24.4 59.1 54.4c0 30-26.5 54.3-59.3 54.2zm-140.5-65.2c-32.6-0.1-59-24.4-59-54.4c0.1-30.1 26.5-54.3 59.2-54.3c32.6 0.1 59 24.4 59 54.4c-0.1 30.1-26.5 54.3-59.2 54.3zm-509.2 1.2c0.1-61.1 53.9-110.5 120.7-110.4c66.5 0.1 120.2 49.9 120.2 110.8c-0.1 60.8-53.9 110.8-120.4 110.7c-66.8 0-120.5-49.9-120.5-111.1zm-79.3 126.2c0-30.3 26.2-54.3 59.1-54.3c32.9 0.1 59 24.5 59 54.4c0 30.3-26.6 54.3-59.1 54.3c-32.5-0.1-58.7-24.2-59-54.4zm281.1 0.3c0.1-30.2 26.6-54.2 59.1-54.2c32.9 0 59.1 24.5 59 54.4c0 30.3-26.5 54.3-59.1 54.3c-32.5-0.1-58.7-24.2-59-54.5zm-140.8 65.3c0.1-30.3 27-54.3 59.5-54.3c32.2 0 59 24.5 59 54.4c-0.1 30.3-27 54.3-59.1 54.3c-32.6-0.1-59.1-24.5-59.4-54.4zm-329.3 53.5c-66.5-0.1-120.1-49.7-120.1-110.9c0.1-61.3 53.9-110.8 120.4-110.7c66.5 0.1 120.2 49.7 120.1 111c-0.1 61.2-53.9 110.7-120.4 110.6zm-140.3-182.7c-32.8-0.1-59.2-24.4-59.2-54.4c0.1-30.1 26.6-54.3 59.3-54.3c32.8 0.1 59.2 24.4 59.2 54.4c-0.1 30.1-26.6 54.3-59.3 54.3zm281.1 0.4c-32.8-0.1-59.2-24.4-59.2-54.4c0.1-30.1 26.6-54.3 59.3-54.3c32.8 0 59.2 24.4 59.2 54.4c-0.1 30.1-26.6 54.3-59.3 54.3zm-140.5-65.3c-32.7 0-59-24.4-59-54.4c0.1-30.1 26.5-54.3 59.1-54.3c32.7 0.1 59.1 24.4 59 54.5c0 30-26.5 54.3-59.1 54.2zm-509.2 1.3c0.1-61.2 53.9-110.6 120.7-110.5c66.5 0.1 120.2 49.9 120.1 110.8c0 60.8-53.8 110.9-120.3 110.8c-66.9-0.1-120.6-50-120.5-111.1zm-79.3 126.1c0-30.3 26.6-54.3 59.1-54.3c32.9 0.1 59 24.5 59 54.4c-0.1 30.3-26.6 54.3-59.1 54.3c-32.6 0-58.7-24.2-59-54.4zm281.1 0.4c0-30.3 26.6-54.3 59.1-54.3c32.9 0.1 59 24.5 59 54.4c0 30.3-26.6 54.3-59.1 54.3c-32.5-0.1-58.7-24.2-59-54.4zm-140.8 65.2c0-30.3 26.9-54.3 59.5-54.3c32.1 0.1 59 24.5 58.9 54.4c0 30.3-26.9 54.3-59.1 54.3c-32.5-0.1-59-24.5-59.3-54.4zm-329.3 53.5c-66.5-0.1-120.2-49.7-120.1-110.9c0.1-61.3 53.9-110.7 120.4-110.6c66.5 0 120.1 49.6 120.1 110.9c-0.1 61.3-53.9 110.7-120.4 110.6zm-140.4-182.7c-32.7 0-59.2-24.4-59.1-54.4c0-30.1 26.5-54.3 59.3-54.3c32.7 0.1 59.2 24.4 59.1 54.5c0 30-26.5 54.3-59.3 54.2zm281.2 0.4c-32.8-0.1-59.2-24.4-59.2-54.4c0-30.1 26.5-54.3 59.3-54.3c32.8 0.1 59.2 24.4 59.2 54.4c-0.1 30.1-26.6 54.3-59.3 54.3zm-140.5-65.3c-32.7 0-59.1-24.3-59-54.4c0-30 26.5-54.3 59.1-54.2c32.7 0 59 24.3 59 54.4c-0.1 30-26.5 54.3-59.1 54.2zm-509.2 1.3c0-61.2 53.8-110.6 120.7-110.5c66.5 0.1 120.2 50 120.1 110.8c-0.1 60.9-53.9 110.9-120.4 110.8c-66.8-0.1-120.5-50-120.4-111.1zm-79.4 126.1c0.1-30.3 26.3-54.3 59.2-54.2c32.8 0 59 24.4 58.9 54.4c0 30.2-26.5 54.3-59.1 54.2c-32.5 0-58.6-24.1-59-54.4zm281.2 0.4c0-30.3 26.5-54.3 59.1-54.3c32.9 0.1 59 24.5 59 54.5c-0.1 30.2-26.6 54.3-59.1 54.2c-32.6 0-58.7-24.1-59-54.4zm-140.8 65.2c0-30.3 26.9-54.3 59.4-54.3c32.2 0.1 59 24.5 59 54.5c0 30.2-26.9 54.3-59.1 54.2c-32.5 0-59-24.5-59.3-54.4zm-329.3 53.5c-66.5 0-120.2-49.6-120.1-110.9c0.1-61.3 53.9-110.7 120.4-110.6c66.4 0.1 120.1 49.7 120 110.9c-0.1 61.3-53.9 110.7-120.3 110.6zm-140.4-182.7c-32.8 0-59.2-24.3-59.2-54.4c0.1-30 26.6-54.3 59.4-54.2c32.7 0 59.1 24.3 59.1 54.4c0 30-26.5 54.3-59.3 54.2zm280.8 0.4c-32.8 0-59.2-24.4-59.2-54.4c0.1-30 26.6-54.3 59.3-54.3c32.8 0.1 59.2 24.4 59.2 54.5c-0.1 30-26.6 54.3-59.3 54.2zm-140.2-65.2c-32.6-0.1-59-24.4-58.9-54.5c0-30 26.4-54.3 59.1-54.2c32.6 0 59 24.4 59 54.4c-0.1 30-26.5 54.3-59.2 54.3zm-509.2 1.2c0.1-61.2 53.9-110.6 120.7-110.5c66.5 0.1 120.2 50 120.2 110.8c-0.1 60.9-53.9 110.9-120.4 110.8c-66.8-0.1-120.5-49.9-120.5-111.1zm-79.3 126.1c0-30.2 26.6-54.3 59.1-54.2c32.9 0 59 24.5 59 54.4c0 30.2-26.6 54.3-59.1 54.2c-32.5 0-58.7-24.1-59-54.4zm281.1 0.4c0.1-30.2 26.6-54.3 59.1-54.2c32.9 0 59.1 24.4 59 54.4c0 30.2-26.5 54.3-59.1 54.2c-32.5 0-59-24.1-59-54.4zm-140.8 65.2c0.1-30.2 27-54.3 59.5-54.2c32.2 0 59 24.4 59 54.4c0 30.2-26.9 54.3-59.1 54.2c-32.6 0-59.4-24.4-59.4-54.4zm-329.3 53.6c-66.5-0.1-120.1-49.7-120.1-111c0.1-61.2 53.9-110.7 120.4-110.6c66.5 0.1 120.2 49.7 120.1 111c-0.1 61.2-53.9 110.7-120.4 110.6zm-140.3-182.8c-32.8 0-59.2-24.3-59.2-54.4c0.1-30 26.6-54.3 59.3-54.2c32.8 0 59.2 24.3 59.2 54.4c-0.1 30-26.6 54.3-59.3 54.2zm280.7 0.4c-32.7 0-59.2-24.3-59.1-54.4c0-30 26.5-54.3 59.3-54.2c32.7 0 59.2 24.3 59.1 54.4c0 30-26.5 54.3-59.3 54.2zm-140.1-65.2c-32.7-0.1-59-24.4-59-54.4c0.1-30.1 26.5-54.3 59.1-54.3c32.7 0 59.1 24.4 59 54.4c0 30.1-26.4 54.3-59.1 54.3zm-307.4 127.7c0-30.2 26.2-54.3 59.1-54.2c32.9 0 59 24.5 59 54.4c0 30.3-26.6 54.3-59.1 54.3c-32.5-0.1-59-24.2-59-54.5zm4830.6-476.7c-32.8-0.1-59.2-24.5-59.2-54.6c0.1-30.2 26.6-54.5 59.3-54.4c32.8 0 59.2 24.4 59.2 54.5c0 30.2-26.6 54.5-59.3 54.5zm-368.2-63.7c0.1-61.1 53.9-110.5 120.7-110.4c66.5 0.1 120.2 49.6 120.1 110.8c-0.1 61.1-53.9 110.5-120.3 110.4c-66.9-0.1-120.9-49.9-120.5-110.8zm-79.3 126.2c0-30.3 26.2-54.3 59.1-54.3c32.9 0 59 24.5 59 54.4c-0.1 30.3-26.6 54.3-59.1 54.3c-32.9-0.1-59.1-24.5-59-54.4zm281.1 0.3c0-30.2 26.6-54.3 59.1-54.2c32.9 0 59 24.5 59 54.4c-0.1 30.3-26.6 54.3-59.1 54.3c-32.9-0.1-59.1-24.5-59-54.5zm-140.8 65.2c0-29.9 26.9-54.6 59.4-54.5c32.2 0 59.1 24.8 59 54.7c0 29.6-26.9 54.3-59.1 54.3c-32.5-0.1-59.4-24.8-59.3-54.5zm-329.7 53.6c-66.5-0.1-120.1-49.7-120.1-111c0.1-61.2 53.9-110.7 120.4-110.6c66.5 0.1 120.2 49.7 120.1 111c-0.1 61.2-53.9 110.7-120.4 110.6zm-140.3-182.7c-32.8-0.1-59.2-24.5-59.2-54.6c0.1-30.1 26.6-54.5 59.3-54.4c32.8 0 59.2 24.4 59.2 54.6c-0.1 30.1-26.6 54.4-59.3 54.4zm281.1 0.4c-32.8-0.1-59.2-24.5-59.2-54.6c0.1-30.2 26.6-54.5 59.3-54.4c32.8 0 59.2 24.4 59.2 54.5c-0.1 30.2-26.6 54.5-59.3 54.5zm-140.5-65.6c-32.7-0.1-59-24.4-59-54.4c0.1-30.1 26.5-54.3 59.1-54.3c32.7 0 59.1 24.4 59 54.4c0 30.1-26.5 54.3-59.1 54.3zm-508.8 1.5c0-61.1 53.8-110.5 120.7-110.4c66.4 0.1 120.1 49.6 120.1 110.8c-0.1 61.1-53.9 110.5-120.4 110.4c-66.8-0.1-120.9-49.9-120.4-110.8zm-79.4 126.2c0.1-30.3 26.6-54.3 59.1-54.3c32.9 0.1 59.1 24.5 59 54.4c0 30.3-26.5 54.3-59.1 54.3c-32.9-0.1-59-24.5-59-54.4zm280.8 0.4c0-30.3 26.2-54.3 59.1-54.3c32.9 0.1 59 24.5 59 54.4c0 30.3-26.6 54.3-59.1 54.3c-32.5-0.1-58.7-24.5-59-54.4zm-140.5 65.2c0.1-30 27-54.7 59.5-54.6c32.2 0 59 24.8 59 54.7c0 29.6-26.9 54.3-59.1 54.3c-32.9-0.1-59.4-24.8-59.4-54.4zm-329.6 53.5c-66.5-0.1-120.2-49.7-120.1-110.9c0.1-61.3 53.9-110.7 120.4-110.7c66.5 0.1 120.1 49.7 120.1 111c-0.1 61.3-53.9 110.7-120.4 110.6zm-140.4-182.7c-32.7 0-59.2-24.4-59.1-54.6c0-30.1 26.5-54.4 59.3-54.4c32.7 0 59.2 24.4 59.1 54.6c0 30.1-26.5 54.4-59.3 54.4zm281.2 0.4c-32.8-0.1-59.2-24.5-59.2-54.6c0-30.1 26.5-54.5 59.3-54.4c32.8 0 59.2 24.4 59.2 54.6c-0.1 30.1-26.6 54.4-59.3 54.4zm-140.5-65.6c-32.7 0-59.1-24.4-59-54.4c0-30.1 26.5-54.3 59.1-54.3c32.7 0.1 59 24.4 59 54.4c-0.1 30.1-26.5 54.3-59.1 54.3zm-509.2 1.6c0-61.2 53.8-110.6 120.7-110.5c66.5 0.1 120.1 49.6 120.1 110.8c-0.1 61.2-53.9 110.5-120.4 110.5c-66.8-0.1-120.5-50-120.4-110.8zm-79.4 126.1c0.1-30.3 26.3-54.3 59.1-54.3c32.9 0.1 59.1 24.5 59 54.5c0 30.2-26.5 54.3-59.1 54.2c-32.5 0-58.6-24.5-59-54.4zm281.2 0.4c0-30.3 26.5-54.3 59.1-54.3c32.9 0.1 59 24.5 59 54.4c-0.1 30.3-26.6 54.3-59.1 54.3c-32.6 0-58.7-24.5-59-54.4zm-140.8 65.2c0-29.9 26.9-54.6 59.4-54.6c32.2 0.1 59 24.8 59 54.8c0 29.6-26.9 54.2-59.1 54.2c-32.5 0-59-24.8-59.3-54.4zm-329.3 53.5c-66.5-0.1-120.2-49.6-120.1-110.9c0.1-61.3 53.9-110.7 120.4-110.6c66.4 0.1 120.1 49.7 120 110.9c-0.1 61.3-53.9 110.7-120.3 110.6zm-140.4-182.7c-32.8 0-59.2-24.4-59.2-54.6c0.1-30.1 26.6-54.4 59.4-54.4c32.7 0.1 59.1 24.5 59.1 54.6c0 30.1-26.5 54.5-59.3 54.4zm281.1 0.4c-32.7 0-59.2-24.4-59.1-54.6c0-30.1 26.5-54.4 59.3-54.4c32.7 0.1 59.2 24.5 59.1 54.6c0 30.1-26.5 54.5-59.3 54.4zm-140.5-65.6c-32.6 0-59-24.4-59-54.4c0.1-30 26.5-54.3 59.2-54.3c32.6 0.1 59 24.4 59 54.5c-0.1 30-26.5 54.3-59.2 54.2zm-509.2 1.6c0.1-61.2 53.9-110.6 120.7-110.5c66.5 0.1 120.2 49.7 120.2 110.8c-0.1 61.2-53.9 110.6-120.4 110.5c-66.8-0.1-120.5-50-120.5-110.8zm-79.3 126.1c0-30.2 26.6-54.3 59.1-54.2c32.9 0 59 24.4 59 54.4c0 30.2-26.6 54.3-59.1 54.2c-32.5 0-58.7-24.4-59-54.4zm281.1 0.4c0.1-30.2 26.6-54.3 59.1-54.2c32.9 0 59.1 24.4 59 54.4c0 30.2-26.5 54.3-59.1 54.2c-32.5 0-58.6-24.5-59-54.4zm-140.8 65.2c0.1-29.9 27-54.6 59.5-54.6c32.2 0.1 59 24.8 59 54.8c0 29.6-26.9 54.3-59.1 54.2c-32.6 0-59.1-24.8-59.4-54.4zm-329.3 53.6c-66.5-0.1-120.1-49.7-120.1-111c0.1-61.3 53.9-110.7 120.4-110.6c66.5 0.1 120.2 49.7 120.1 110.9c-0.1 61.3-53.9 110.8-120.4 110.7zm-140.3-182.8c-32.8 0-59.2-24.4-59.2-54.5c0.1-30.2 26.6-54.5 59.3-54.5c32.8 0.1 59.2 24.5 59.2 54.6c-0.1 30.2-26.6 54.5-59.3 54.4zm281.1 0.4c-32.8 0-59.2-24.4-59.2-54.5c0.1-30.2 26.6-54.5 59.3-54.5c32.8 0.1 59.2 24.5 59.2 54.6c0 30.2-26.6 54.5-59.3 54.4zm-140.5-65.6c-32.7 0-59-24.3-59-54.4c0.1-30 26.5-54.3 59.1-54.2c32.7 0 59.1 24.3 59 54.4c0 30-26.4 54.3-59.1 54.2zm-509.2 1.6c0.1-61.2 53.9-110.5 120.7-110.4c66.5 0 120.2 49.6 120.1 110.7c0 61.2-53.8 110.6-120.3 110.5c-66.8-0.1-120.5-49.9-120.5-110.8zm-79.3 126.1c0-30.2 26.2-54.3 59.1-54.2c32.9 0 59 24.5 59 54.4c0 30.3-26.6 54.3-59.1 54.3c-32.6-0.1-58.7-24.5-59-54.5zm281.1 0.4c0-30.2 26.6-54.3 59.1-54.2c32.9 0 59 24.5 59 54.4c0 30.3-26.6 54.3-59.1 54.2c-32.5 0-58.7-24.4-59-54.4zm-140.8 65.2c0-29.9 26.9-54.6 59.5-54.5c32.1 0 59 24.8 59 54.7c-0.1 29.6-27 54.3-59.2 54.2c-32.5 0-59-24.8-59.3-54.4zm-329.3 53.6c-66.5-0.1-120.2-49.7-120.1-111c0.1-61.2 53.9-110.7 120.4-110.6c66.5 0.1 120.2 49.7 120.1 111c-0.1 61.2-53.9 110.7-120.4 110.6zm-140.4-182.7c-32.7-0.1-59.2-24.5-59.1-54.6c0-30.2 26.5-54.5 59.3-54.4c32.7 0 59.2 24.4 59.1 54.5c0 30.2-26.5 54.5-59.3 54.5zm280.8 0.4c-32.8-0.1-59.2-24.5-59.2-54.6c0.1-30.2 26.6-54.5 59.4-54.4c32.7 0 59.1 24.4 59.1 54.5c0 30.2-26.5 54.5-59.3 54.5zm-140.1-65.6c-32.7-0.1-59.1-24.4-59-54.5c0-30 26.5-54.3 59.1-54.2c32.7 0 59 24.4 59 54.4c0 30.1-26.5 54.3-59.1 54.3zm-509.2 1.5c0-61.1 53.8-110.5 120.7-110.4c66.5 0.1 120.2 49.6 120.1 110.8c-0.1 61.1-53.9 110.5-120.3 110.4c-66.9-0.1-120.6-49.9-120.5-110.8zm-79.4 126.2c0.1-30.3 26.6-54.3 59.2-54.3c32.8 0.1 59 24.5 59 54.4c-0.1 30.3-26.6 54.3-59.2 54.3c-32.5-0.1-58.6-24.5-59-54.4zm281.2 0.4c0-30.3 26.5-54.3 59.1-54.3c32.9 0 59 24.5 59 54.4c-0.1 30.3-26.6 54.3-59.1 54.3c-32.6-0.1-59.1-24.5-59-54.4zm-140.8 65.2c0-30 26.9-54.7 59.4-54.6c32.2 0 59.1 24.8 59 54.7c0 29.6-26.9 54.3-59.1 54.3c-32.5-0.1-59.4-24.8-59.3-54.4zm-329.3 53.5c-66.5-0.1-120.2-49.7-120.1-110.9c0.1-61.3 53.9-110.8 120.4-110.7c66.4 0.1 120.1 49.7 120 111c0 61.3-53.9 110.7-120.3 110.6zm-140.4-182.7c-32.7-0.1-59.2-24.5-59.1-54.6c0-30.1 26.5-54.5 59.3-54.4c32.7 0 59.2 24.4 59.1 54.6c0 30.1-26.5 54.4-59.3 54.4zm280.8 0.4c-32.8-0.1-59.2-24.5-59.2-54.6c0.1-30.1 26.6-54.5 59.3-54.4c32.8 0 59.2 24.4 59.2 54.6c-0.1 30.1-26.6 54.4-59.3 54.4zm-140.2-65.6c-32.6-0.1-59-24.4-58.9-54.4c0-30.1 26.4-54.3 59.1-54.3c32.6 0.1 59 24.4 59 54.4c-0.1 30.1-26.5 54.3-59.2 54.3zm-307.4 128.1c0.1-30.3 26.3-54.3 59.1-54.3c32.9 0.1 59.1 24.5 59 54.4c0 30.3-26.5 54.3-59.1 54.3c-32.5-0.1-59-24.5-59-54.4zm4830.6-477.1c-32.7-0.1-59.2-24.4-59.1-54.5c0-30 26.5-54.2 59.3-54.2c32.7 0 59.2 24.4 59.1 54.4c0 30.1-26.5 54.3-59.3 54.3zm-368.2-63.3c0.1-61.5 53.9-110.9 120.7-110.8c66.5 0.1 120.2 49.6 120.1 111.1c0 61.2-53.8 110.5-120.3 110.4c-66.8 0-120.9-49.9-120.5-110.7zm-79.3 126.1c0-29.9 26.2-54.6 59.1-54.6c32.9 0.1 59 24.8 59 54.8c0 30.2-26.6 54.3-59.1 54.2c-32.9 0-59-24.5-59-54.4zm281.1 0.4c0-30 26.6-54.6 59.1-54.6c32.9 0 59 24.8 59 54.7c0 30.3-26.6 54.3-59.1 54.3c-32.9 0-59-24.5-59-54.4zm-140.8 64.5c0-30.2 26.9-54.3 59.5-54.2c32.1 0 59 24.5 59 54.4c-0.1 30.3-27 54.3-59.1 54.2c-32.6 0-59.4-24.1-59.4-54.4zm-329.7 53.9c-66.4-0.1-120.1-49.6-120-110.8c0.1-61.2 53.9-110.5 120.4-110.4c66.4 0.1 120.1 49.6 120 110.8c-0.1 61.1-53.9 110.5-120.4 110.4zm-140.3-182.7c-32.8-0.1-59.2-24.4-59.2-54.4c0.1-30.1 26.6-54.3 59.3-54.3c32.8 0.1 59.2 24.4 59.2 54.4c0 30.1-26.5 54.3-59.3 54.3zm281.1 0.4c-32.7-0.1-59.2-24.4-59.1-54.4c0-30.1 26.5-54.3 59.3-54.3c32.7 0.1 59.2 24.4 59.1 54.4c0 30.1-26.5 54.3-59.3 54.3zm-140.5-65.3c-32.6 0-59-24.4-59-54.6c0.1-30.1 26.5-54.4 59.2-54.4c32.6 0.1 59 24.5 59 54.6c-0.1 30.1-26.5 54.5-59.2 54.4zm-508.8 1.6c0.1-61.5 53.9-110.9 120.7-110.8c66.5 0.1 120.2 49.6 120.1 111.1c-0.1 61.2-53.9 110.6-120.3 110.5c-66.9-0.1-120.9-50-120.5-110.8zm-79.3 126.1c0-29.9 26.5-54.6 59.1-54.6c32.9 0.1 59 24.8 59 54.8c-0.1 30.2-26.6 54.3-59.1 54.2c-32.9 0-59.1-24.5-59-54.4zm280.7 0.4c0.1-29.9 26.2-54.6 59.1-54.6c32.9 0.1 59.1 24.8 59 54.8c0 30.2-26.5 54.3-59.1 54.2c-32.5 0-58.7-24.5-59-54.4zm-140.4 64.6c0-30.3 26.9-54.3 59.4-54.3c32.2 0 59.1 24.5 59 54.4c0 30.3-26.9 54.3-59.1 54.3c-32.9-0.1-59.4-24.2-59.3-54.4zm-329.7 53.8c-66.5-0.1-120.1-49.6-120.1-110.8c0.1-61.1 53.9-110.5 120.4-110.4c66.5 0.1 120.2 49.6 120.1 110.8c-0.1 61.1-53.9 110.5-120.4 110.4zm-140.3-182.7c-32.8 0-59.2-24.4-59.2-54.4c0.1-30.1 26.6-54.3 59.3-54.3c32.8 0.1 59.2 24.4 59.2 54.5c-0.1 30-26.6 54.3-59.3 54.2zm281.1 0.4c-32.8 0-59.2-24.4-59.2-54.4c0.1-30.1 26.6-54.3 59.3-54.3c32.8 0.1 59.2 24.4 59.2 54.4c-0.1 30.1-26.6 54.3-59.3 54.3zm-140.5-65.3c-32.7 0-59-24.4-59-54.5c0.1-30.2 26.5-54.5 59.1-54.5c32.7 0.1 59.1 24.5 59 54.6c0 30.2-26.5 54.5-59.1 54.4zm-509.2 1.6c0.1-61.5 53.9-110.9 120.7-110.8c66.5 0.1 120.2 49.6 120.1 111.1c0 61.2-53.8 110.6-120.3 110.5c-66.9-0.1-120.5-50-120.5-110.8zm-79.3 126.1c0-29.9 26.2-54.6 59.1-54.5c32.9 0 59 24.8 59 54.7c-0.1 30.3-26.6 54.3-59.1 54.3c-32.6-0.1-58.7-24.5-59-54.5zm281.1 0.4c0-29.9 26.6-54.6 59.1-54.6c32.9 0.1 59 24.9 59 54.8c0 30.2-26.6 54.3-59.1 54.2c-32.5 0-58.7-24.4-59-54.4zm-140.8 64.6c0-30.3 26.9-54.3 59.5-54.3c32.1 0.1 59 24.5 58.9 54.4c0 30.3-26.9 54.3-59.1 54.3c-32.5-0.1-59-24.2-59.3-54.4zm-329.3 53.9c-66.5-0.1-120.2-49.7-120.1-110.8c0.1-61.2 53.9-110.6 120.4-110.5c66.5 0.1 120.2 49.6 120.1 110.8c-0.1 61.2-53.9 110.5-120.4 110.5zm-140.4-182.8c-32.7 0-59.2-24.3-59.1-54.4c0-30 26.5-54.3 59.3-54.2c32.7 0 59.2 24.3 59.1 54.4c0 30-26.5 54.3-59.3 54.2zm281.2 0.4c-32.8 0-59.2-24.3-59.2-54.4c0-30 26.6-54.3 59.3-54.2c32.8 0 59.2 24.3 59.2 54.4c-0.1 30-26.6 54.3-59.3 54.2zm-140.5-65.2c-32.7-0.1-59.1-24.5-59-54.6c0-30.2 26.5-54.5 59.1-54.4c32.7 0 59 24.4 59 54.5c-0.1 30.2-26.5 54.5-59.1 54.5zm-509.2 1.5c0-61.5 53.8-110.8 120.7-110.8c66.5 0.1 120.2 49.7 120.1 111.2c-0.1 61.1-53.9 110.5-120.4 110.4c-66.8-0.1-120.5-49.9-120.4-110.8zm-79.4 126.2c0.1-30 26.6-54.7 59.2-54.6c32.8 0 59 24.8 58.9 54.7c0 30.3-26.5 54.3-59.1 54.3c-32.5-0.1-58.6-24.5-59-54.4zm281.2 0.3c0-29.9 26.5-54.6 59.1-54.5c32.9 0 59 24.8 59 54.7c-0.1 30.3-26.6 54.3-59.1 54.3c-32.6-0.1-58.7-24.5-59-54.5zm-140.8 64.6c0-30.3 26.9-54.3 59.4-54.3c32.2 0.1 59 24.5 59 54.5c0 30.2-26.9 54.3-59.1 54.2c-32.5 0-59-24.1-59.3-54.4zm-329.3 53.9c-66.5-0.1-120.2-49.6-120.1-110.8c0.1-61.2 53.9-110.6 120.4-110.5c66.4 0.1 120.1 49.6 120 110.8c0 61.2-53.9 110.6-120.3 110.5zm-140.4-182.7c-32.7-0.1-59.2-24.4-59.2-54.5c0.1-30 26.6-54.3 59.4-54.2c32.7 0 59.2 24.4 59.1 54.4c0 30-26.5 54.3-59.3 54.3zm281.1 0.3c-32.7 0-59.2-24.3-59.1-54.4c0-30 26.5-54.3 59.3-54.2c32.7 0 59.2 24.3 59.1 54.4c0 30-26.5 54.3-59.3 54.2zm-140.5-65.2c-32.6-0.1-59-24.5-58.9-54.6c0-30.1 26.4-54.5 59.1-54.4c32.6 0 59 24.4 59 54.6c-0.1 30.1-26.5 54.4-59.2 54.4zm-509.1 1.5c0-61.4 53.8-110.8 120.6-110.7c66.5 0.1 120.2 49.6 120.2 111.1c-0.1 61.2-53.9 110.5-120.4 110.4c-66.8-0.1-120.5-49.9-120.4-110.8zm-79.4 126.2c0-30 26.2-54.6 59.1-54.6c32.9 0 59 24.8 59 54.7c0 30.3-26.6 54.3-59.1 54.3c-32.5 0-58.7-24.5-59-54.4zm281.1 0.4c0.1-30 26.6-54.7 59.1-54.6c32.9 0 59.1 24.8 59 54.7c0 30.3-26.5 54.3-59.1 54.3c-32.5-0.1-58.6-24.5-59-54.4zm-140.8 64.5c0.1-30.2 27-54.3 59.5-54.2c32.2 0 59 24.5 59 54.4c0 30.2-26.9 54.3-59.1 54.2c-32.6 0-59-24.1-59.4-54.4zm-329.3 53.9c-66.5-0.1-120.1-49.6-120.1-110.8c0.1-61.2 53.9-110.5 120.4-110.4c66.5 0 120.2 49.6 120.1 110.7c-0.1 61.2-53.9 110.6-120.4 110.5zm-140.3-182.7c-32.8-0.1-59.2-24.4-59.2-54.4c0.1-30.1 26.6-54.3 59.3-54.3c32.8 0.1 59.2 24.4 59.2 54.4c-0.1 30.1-26.6 54.3-59.3 54.3zm280.7 0.4c-32.7-0.1-59.2-24.4-59.1-54.5c0-30 26.5-54.2 59.3-54.2c32.7 0 59.2 24.4 59.1 54.4c0 30.1-26.5 54.3-59.3 54.3zm-140.1-65.3c-32.7 0-59-24.4-59-54.6c0.1-30.1 26.5-54.4 59.2-54.4c32.6 0.1 59 24.4 58.9 54.6c0 30.1-26.4 54.4-59.1 54.4zm-509.2 1.6c0.1-61.5 53.9-110.9 120.7-110.8c66.5 0.1 120.2 49.6 120.1 111.1c0 61.2-53.8 110.6-120.3 110.5c-66.8-0.1-120.5-50-120.5-110.8zm-79.3 126.1c0-29.9 26.6-54.6 59.1-54.6c32.9 0.1 59 24.8 59 54.8c0 30.2-26.6 54.3-59.1 54.2c-32.6 0-58.7-24.5-59-54.4zm281.1 0.4c0-29.9 26.6-54.6 59.1-54.6c32.9 0.1 59 24.8 59 54.8c0 30.2-26.6 54.3-59.1 54.2c-32.5 0-59-24.5-59-54.4zm-140.8 64.5c0-30.2 26.9-54.3 59.5-54.2c32.1 0 59 24.5 59 54.4c-0.1 30.3-27 54.3-59.2 54.3c-32.5-0.1-59.3-24.2-59.3-54.5zm-329.3 53.9c-66.5-0.1-120.2-49.6-120.1-110.8c0.1-61.1 53.9-110.5 120.4-110.4c66.5 0.1 120.2 49.6 120.1 110.8c-0.1 61.1-53.9 110.5-120.4 110.4zm-140.4-182.7c-32.7 0-59.2-24.4-59.1-54.4c0-30.1 26.5-54.3 59.3-54.3c32.7 0.1 59.2 24.4 59.1 54.4c0 30.1-26.5 54.3-59.3 54.3zm280.8 0.4c-32.7-0.1-59.2-24.4-59.1-54.4c0-30.1 26.5-54.3 59.3-54.3c32.7 0.1 59.2 24.4 59.1 54.4c0 30.1-26.5 54.3-59.3 54.3zm-140.1-65.3c-32.7 0-59.1-24.4-59-54.6c0-30.1 26.5-54.4 59.1-54.4c32.7 0.1 59 24.5 59 54.6c0 30.1-26.5 54.5-59.1 54.4zm-307.4 128.1c0-29.9 26.2-54.6 59.1-54.6c32.9 0.1 59 24.8 59 54.8c-0.1 30.2-26.6 54.3-59.1 54.2c-32.6 0-59.1-24.5-59-54.4zm4830.6-477.1c-32.8 0-59.2-24.4-59.2-54.4c0.1-30.1 26.6-54.3 59.3-54.3c32.8 0.1 59.2 24.4 59.2 54.5c-0.1 30-26.6 54.2-59.3 54.2zm-368.2-64c0-61.1 53.8-110.5 120.7-110.4c66.4 0.1 120.1 49.6 120.1 110.8c-0.1 61.5-53.9 110.9-120.4 110.8c-66.8-0.1-120.9-49.7-120.4-111.2zm-79.4 126.2c0.1-30.3 26.3-54.3 59.1-54.3c32.9 0.1 59.1 24.5 59 54.4c0 30.3-26.5 54.3-59.1 54.3c-32.9-0.1-59-24.2-59-54.4zm281.1 0.4c0.1-30.3 26.6-54.3 59.2-54.3c32.8 0.1 59 24.5 59 54.4c-0.1 30.3-26.6 54.3-59.2 54.3c-32.8-0.1-59-24.2-59-54.4zm-140.8 65.2c0.1-30.3 27-54.3 59.5-54.3c32.2 0.1 59 24.2 59 54.4c0 30.3-26.9 54.3-59.1 54.3c-32.5-0.1-59.4-24.2-59.4-54.4zm-329.6 53.8c-66.5 0-120.2-49.6-120.1-110.7c0.1-61.2 53.9-110.6 120.4-110.5c66.5 0.1 120.1 49.6 120.1 110.8c-0.1 61.2-53.9 110.5-120.4 110.4zm-140.4-182.7c-32.7 0-59.2-24.3-59.1-54.4c0-30 26.5-54.3 59.3-54.2c32.7 0 59.2 24.3 59.1 54.4c0 30-26.5 54.3-59.3 54.2zm281.2 0.4c-32.8 0-59.2-24.4-59.2-54.4c0-30 26.5-54.3 59.3-54.3c32.8 0.1 59.2 24.4 59.2 54.5c-0.1 30-26.6 54.3-59.3 54.2zm-140.5-65.6c-32.7 0-59.1-24.3-59-54.4c0-30 26.5-54.3 59.1-54.2c32.7 0 59 24.3 59 54.4c-0.1 30-26.5 54.3-59.1 54.2zm-508.9 1.3c0.1-61.2 53.9-110.6 120.7-110.5c66.5 0.1 120.2 49.6 120.1 110.8c0 61.5-53.8 110.9-120.3 110.8c-66.8-0.1-120.9-49.6-120.5-111.1zm-79.3 126.1c0-30.3 26.6-54.3 59.1-54.3c32.9 0.1 59 24.5 59 54.5c0 30.2-26.6 54.3-59.1 54.2c-32.9 0-59-24.1-59-54.4zm280.8 0.4c0-30.3 26.2-54.3 59.1-54.3c32.9 0.1 59 24.5 59 54.5c-0.1 30.2-26.6 54.3-59.1 54.2c-32.6 0-58.7-24.2-59-54.4zm-140.5 65.2c0-30.3 26.9-54.3 59.5-54.3c32.2 0.1 59 24.2 59 54.5c-0.1 30.2-27 54.3-59.1 54.2c-32.9 0-59.4-24.2-59.4-54.4zm-329.6 53.9c-66.5-0.1-120.2-49.6-120.1-110.8c0.1-61.2 53.9-110.6 120.4-110.5c66.4 0.1 120.1 49.6 120 110.8c-0.1 61.2-53.9 110.6-120.3 110.5zm-140.4-182.8c-32.8 0-59.2-24.3-59.2-54.4c0.1-30 26.6-54.3 59.4-54.2c32.7 0 59.1 24.3 59.1 54.4c0 30-26.5 54.3-59.3 54.2zm281.1 0.4c-32.7 0-59.2-24.3-59.1-54.4c0-30 26.5-54.3 59.3-54.2c32.7 0 59.2 24.3 59.1 54.4c0 30-26.5 54.3-59.3 54.2zm-140.5-65.6c-32.6 0-59-24.3-58.9-54.4c0-30 26.4-54.3 59.1-54.2c32.6 0 59 24.3 59 54.4c-0.1 30-26.5 54.3-59.2 54.2zm-509.2 1.3c0.1-61.2 53.9-110.6 120.7-110.5c66.5 0.1 120.2 49.7 120.2 110.8c-0.1 61.5-53.9 110.9-120.4 110.8c-66.8-0.1-120.5-49.6-120.5-111.1zm-79.3 126.1c0-30.2 26.2-54.3 59.1-54.2c32.9 0 59 24.5 59 54.4c0 30.2-26.6 54.3-59.1 54.2c-32.5 0-58.7-24.1-59-54.4zm281.1 0.4c0.1-30.2 26.6-54.3 59.1-54.2c32.9 0 59.1 24.4 59 54.4c0 30.2-26.5 54.3-59.1 54.2c-32.5 0-58.6-24.1-59-54.4zm-140.8 65.2c0.1-30.2 27-54.3 59.5-54.2c32.2 0 59 24.1 59 54.4c0 30.2-26.9 54.3-59.1 54.2c-32.6 0-59.4-24.1-59.4-54.4zm-329.3 53.9c-66.5-0.1-120.1-49.6-120.1-110.8c0.1-61.2 53.9-110.5 120.4-110.5c66.5 0.1 120.2 49.7 120.1 110.8c-0.1 61.2-53.9 110.6-120.4 110.5zm-140.3-182.7c-32.8-0.1-59.2-24.4-59.2-54.4c0.1-30.1 26.6-54.3 59.3-54.3c32.8 0 59.2 24.4 59.2 54.4c-0.1 30.1-26.6 54.3-59.3 54.3zm281.1 0.4c-32.8-0.1-59.2-24.4-59.2-54.5c0.1-30 26.6-54.3 59.3-54.2c32.8 0 59.2 24.4 59.2 54.4c0 30.1-26.6 54.3-59.3 54.3zm-140.5-65.6c-32.7-0.1-59-24.4-59-54.4c0.1-30.1 26.5-54.3 59.1-54.3c32.7 0 59.1 24.4 59 54.4c0 30.1-26.4 54.3-59.1 54.3zm-509.2 1.2c0.1-61.2 53.9-110.5 120.7-110.4c66.5 0.1 120.2 49.6 120.1 110.7c0 61.5-53.8 110.9-120.3 110.8c-66.8-0.1-120.5-49.6-120.5-111.1zm-79.3 126.1c0-30.2 26.6-54.3 59.1-54.2c32.9 0 59 24.5 59 54.4c0 30.3-26.6 54.3-59.1 54.3c-32.6-0.1-58.7-24.2-59-54.5zm281.1 0.4c0-30.2 26.6-54.3 59.1-54.2c32.9 0 59 24.5 59 54.4c0 30.3-26.6 54.3-59.1 54.2c-32.5 0-58.7-24.1-59-54.4zm-140.8 65.2c0-30.2 26.9-54.3 59.5-54.2c32.1 0 59 24.1 59 54.4c-0.1 30.3-27 54.3-59.2 54.3c-32.5-0.1-59.3-24.2-59.3-54.5zm-329.3 53.9c-66.5-0.1-120.2-49.6-120.1-110.8c0.1-61.1 53.9-110.5 120.4-110.4c66.5 0.1 120.2 49.6 120.1 110.8c-0.1 61.1-53.9 110.5-120.4 110.4zm-140.4-182.7c-32.7-0.1-59.2-24.4-59.1-54.4c0-30.1 26.5-54.3 59.3-54.3c32.7 0.1 59.2 24.4 59.1 54.4c0 30.1-26.5 54.3-59.3 54.3zm281.2 0.4c-32.8-0.1-59.2-24.4-59.2-54.4c0-30.1 26.6-54.3 59.3-54.3c32.8 0.1 59.2 24.4 59.2 54.4c-0.1 30.1-26.6 54.3-59.3 54.3zm-140.5-65.6c-32.7-0.1-59.1-24.4-59-54.4c0-30.1 26.5-54.3 59.1-54.3c32.7 0.1 59 24.4 59 54.4c0 30.1-26.5 54.3-59.1 54.3zm-509.2 1.2c0.1-61.1 53.8-110.5 120.7-110.4c66.5 0.1 120.2 49.6 120.1 110.8c-0.1 61.5-53.9 110.8-120.3 110.8c-66.9-0.1-120.6-49.7-120.5-111.2zm-79.4 126.2c0.1-30.3 26.3-54.3 59.2-54.3c32.8 0.1 59 24.5 59 54.4c-0.1 30.3-26.6 54.3-59.2 54.3c-32.5-0.1-58.6-24.2-59-54.4zm281.2 0.4c0-30.3 26.5-54.3 59.1-54.3c32.9 0 59 24.5 59 54.4c-0.1 30.3-26.6 54.3-59.1 54.3c-32.6-0.1-58.7-24.2-59-54.4zm-140.8 65.2c0-30.3 26.9-54.3 59.4-54.3c32.2 0 59.1 24.2 59 54.4c0 30.3-26.9 54.3-59.1 54.3c-32.5-0.1-59.4-24.2-59.3-54.4zm-329.3 53.8c-66.5-0.1-120.2-49.6-120.1-110.8c0.1-61.1 53.9-110.5 120.4-110.4c66.5 0.1 120.1 49.6 120 110.8c0 61.2-53.9 110.5-120.3 110.4zm-140.4-182.7c-32.7 0-59.2-24.4-59.1-54.4c0-30 26.5-54.3 59.3-54.3c32.7 0.1 59.2 24.4 59.1 54.5c0 30-26.5 54.3-59.3 54.2zm280.8 0.4c-32.8 0-59.2-24.4-59.2-54.4c0.1-30.1 26.6-54.3 59.3-54.3c32.8 0.1 59.2 24.4 59.2 54.5c-0.1 30-26.6 54.2-59.3 54.2zm-140.2-65.6c-32.6 0-59-24.4-58.9-54.4c0-30.1 26.4-54.3 59.1-54.3c32.6 0.1 59 24.4 59 54.5c-0.1 30-26.5 54.3-59.2 54.2zm-509.1 1.3c0-61.2 53.8-110.6 120.7-110.5c66.4 0.1 120.1 49.6 120.1 110.8c-0.1 61.5-53.9 110.9-120.4 110.8c-66.8-0.1-120.5-49.6-120.4-111.1zm-79.4 126.1c0-30.3 26.6-54.3 59.1-54.3c32.9 0.1 59.1 24.5 59 54.5c0 30.2-26.6 54.2-59.1 54.2c-32.5 0-58.7-24.2-59-54.4zm281.1 0.4c0.1-30.3 26.6-54.3 59.1-54.3c32.9 0.1 59.1 24.5 59 54.4c0 30.3-26.5 54.3-59.1 54.3c-32.5-0.1-59-24.2-59-54.4zm-140.8 65.2c0.1-30.3 27-54.3 59.5-54.3c32.2 0.1 59 24.2 59 54.4c0 30.3-26.9 54.3-59.1 54.3c-32.6 0-59.4-24.2-59.4-54.4zm-329.3 53.9c-66.5-0.1-120.1-49.7-120-110.8c0-61.2 53.8-110.6 120.3-110.5c66.5 0.1 120.2 49.6 120.1 110.8c-0.1 61.2-53.9 110.6-120.4 110.5zm-140.3-182.8c-32.8 0-59.2-24.3-59.2-54.4c0.1-30 26.6-54.3 59.3-54.2c32.8 0 59.2 24.3 59.2 54.4c-0.1 30-26.6 54.3-59.3 54.2zm280.7 0.4c-32.7 0-59.2-24.3-59.1-54.4c0-30 26.5-54.3 59.3-54.2c32.7 0 59.2 24.3 59.1 54.4c0 30-26.5 54.3-59.3 54.2zm-140.1-65.6c-32.7 0-59-24.3-59-54.4c0.1-30 26.5-54.3 59.2-54.2c32.6 0 59 24.3 58.9 54.4c0 30-26.4 54.3-59.1 54.2zm-307.4 128.1c0-29.9 26.2-54.6 59.1-54.6c32.9 0.1 59 24.5 59 54.5c0 30.2-26.6 54.3-59.1 54.2c-32.5 0-59-24.1-59-54.1zm4830.6-476.8c-32.8 0-59.2-24.3-59.2-54.4c0.1-30 26.6-54.3 59.4-54.2c32.7 0 59.1 24.3 59.1 54.4c0 30-26.5 54.3-59.3 54.2zm-447.5 62.2c0-30.2 26.2-54.3 59.1-54.2c32.9 0 59 24.1 59 54.4c-0.1 30.2-26.6 54.3-59.1 54.2c-32.9 0-59.1-24.1-59-54.4zm281.1 0.4c0-30.3 26.6-54.3 59.1-54.2c32.9 0 59 24.1 59 54.4c0 30.2-26.6 54.3-59.1 54.2c-32.9 0-59.1-24.1-59-54.4zm-140.8 65.2c0-30.3 26.9-54.3 59.4-54.2c32.2 0 59.1 24.4 59 54.4c0 30.2-26.9 54.3-59.1 54.2c-32.5 0-59.4-24.5-59.3-54.4zm-329.7 53.6c-66.5-0.1-120.1-49.7-120.1-111c0.1-61.3 53.9-110.7 120.4-110.6c66.5 0.1 120.2 49.7 120.1 110.9c-0.1 61.3-53.9 110.8-120.4 110.7zm-140.3-182.4c-32.8-0.1-59.2-24.4-59.2-54.5c0.1-30 26.6-54.3 59.3-54.2c32.8 0 59.2 24.4 59.2 54.4c-0.1 30.1-26.6 54.3-59.3 54.3zm281.1 0.4c-32.8-0.1-59.2-24.4-59.2-54.5c0.1-30 26.6-54.3 59.3-54.2c32.8 0 59.2 24.4 59.2 54.4c0 30-26.6 54.3-59.3 54.3zm-728.7 61.7c0.1-30.2 26.6-54.3 59.1-54.2c32.9 0 59.1 24.1 59 54.4c0 30.3-26.5 54.3-59.1 54.3c-32.9-0.1-59-24.2-59-54.5zm280.8 0.4c0-30.2 26.2-54.3 59.1-54.2c32.9 0 59 24.1 59 54.4c0 30.2-26.6 54.3-59.1 54.2c-32.5 0-59-24.1-59-54.4zm-140.5 65.2c0.1-30.2 27-54.3 59.5-54.2c32.2 0 59 24.5 59 54.4c0 30.3-26.9 54.3-59.1 54.2c-32.9 0-59.4-24.4-59.4-54.4zm-329.6 53.6c-66.5-0.1-120.2-49.7-120.1-111c0.1-61.2 53.9-110.7 120.4-110.6c66.5 0.1 120.2 49.7 120.1 111c-0.1 61.2-53.9 110.7-120.4 110.6zm-140.4-182.4c-32.7-0.1-59.2-24.4-59.1-54.4c0-30.1 26.5-54.3 59.3-54.3c32.7 0.1 59.2 24.4 59.1 54.4c0 30.1-26.5 54.3-59.3 54.3zm281.2 0.4c-32.8-0.1-59.2-24.4-59.2-54.4c0-30.1 26.6-54.3 59.3-54.3c32.8 0.1 59.2 24.4 59.2 54.4c-0.1 30.1-26.6 54.3-59.3 54.3zm-729.1 61.8c0.1-30.3 26.3-54.3 59.2-54.3c32.8 0.1 59 24.2 59 54.4c-0.1 30.3-26.6 54.3-59.2 54.3c-32.5-0.1-59-24.2-59-54.4zm281.2 0.3c0-30.2 26.5-54.2 59.1-54.2c32.9 0 59 24.2 59 54.4c-0.1 30.3-26.6 54.3-59.1 54.3c-32.6-0.1-59.1-24.2-59-54.5zm-140.8 65.3c0-30.3 26.9-54.3 59.4-54.3c32.2 0 59.1 24.5 59 54.4c0 30.3-26.9 54.3-59.1 54.3c-32.5-0.1-59-24.5-59.3-54.4zm-329.3 53.5c-66.5-0.1-120.2-49.7-120.1-110.9c0.1-61.3 53.9-110.8 120.4-110.7c66.4 0.1 120.1 49.7 120 111c0 61.2-53.9 110.7-120.3 110.6zm-140.4-182.4c-32.7 0-59.2-24.4-59.1-54.4c0-30.1 26.5-54.3 59.3-54.3c32.7 0.1 59.2 24.4 59.1 54.5c0 30-26.5 54.3-59.3 54.2zm281.1 0.4c-32.7 0-59.2-24.4-59.1-54.4c0-30.1 26.5-54.3 59.3-54.3c32.7 0.1 59.2 24.4 59.1 54.4c0 30.1-26.5 54.3-59.3 54.3zm-729 61.8c0-30.3 26.6-54.3 59.1-54.3c32.9 0.1 59.1 24.2 59 54.4c0 30.3-26.6 54.3-59.1 54.3c-32.5 0-59-24.2-59-54.4zm281.1 0.4c0.1-30.3 26.6-54.3 59.1-54.3c32.9 0.1 59.1 24.2 59 54.4c0 30.3-26.5 54.3-59.1 54.3c-32.5-0.1-59-24.2-59-54.4zm-140.8 65.2c0.1-30.3 27-54.3 59.5-54.3c32.2 0.1 59 24.5 59 54.4c0 30.3-26.9 54.3-59.1 54.3c-32.6-0.1-59-24.5-59.4-54.4zm-329.3 53.5c-66.5-0.1-120.1-49.7-120-110.9c0-61.3 53.8-110.7 120.3-110.6c66.5 0 120.2 49.6 120.1 110.9c-0.1 61.3-53.9 110.7-120.4 110.6zm-140.3-182.4c-32.8 0-59.2-24.3-59.2-54.4c0.1-30 26.6-54.3 59.3-54.2c32.8 0 59.2 24.3 59.2 54.4c-0.1 30-26.6 54.3-59.3 54.2zm281.1 0.4c-32.8 0-59.2-24.3-59.2-54.4c0.1-30 26.6-54.3 59.3-54.2c32.8 0 59.2 24.3 59.2 54.4c0 30-26.6 54.3-59.3 54.2zm-729 61.8c0-30.3 26.2-54.3 59.1-54.2c32.9 0 59 24.1 59 54.4c0 30.2-26.6 54.3-59.1 54.2c-32.6 0-59-24.1-59-54.4zm281.1 0.4c0-30.3 26.6-54.3 59.1-54.3c32.9 0.1 59 24.2 59 54.5c0 30.2-26.6 54.3-59.1 54.2c-32.5 0-59-24.1-59-54.4zm-140.8 65.2c0-30.3 26.9-54.3 59.5-54.3c32.1 0.1 59 24.5 59 54.5c-0.1 30.2-27 54.3-59.2 54.2c-32.5 0-59-24.5-59.3-54.4zm-329.3 53.5c-66.5 0-120.2-49.6-120.1-110.9c0.1-61.3 53.9-110.7 120.4-110.6c66.5 0.1 120.2 49.7 120.1 110.9c-0.1 61.3-53.9 110.7-120.4 110.6zm-140.4-182.3c-32.7-0.1-59.2-24.4-59.1-54.5c0-30 26.5-54.3 59.3-54.2c32.7 0 59.2 24.4 59.1 54.4c0 30-26.5 54.3-59.3 54.3zm280.8 0.3c-32.7 0-59.2-24.3-59.1-54.4c0-30 26.5-54.3 59.3-54.2c32.7 0 59.2 24.3 59.1 54.4c0 30-26.5 54.3-59.3 54.2zm-728.6 61.8c0-30.2 26.5-54.3 59.1-54.2c32.8 0 59 24.1 59 54.4c-0.1 30.2-26.6 54.3-59.2 54.2c-32.5 0-59-24.1-58.9-54.4zm281.1 0.4c0-30.2 26.5-54.3 59.1-54.2c32.9 0 59 24.1 59 54.4c-0.1 30.2-26.6 54.3-59.1 54.2c-32.6 0-59.1-24.1-59-54.4zm-140.8 65.2c0-30.2 26.9-54.3 59.4-54.2c32.2 0 59.1 24.4 59 54.4c0 30.2-26.9 54.3-59.1 54.2c-32.5 0-59.4-24.4-59.3-54.4zm-329.3 53.6c-66.5-0.1-120.2-49.7-120.1-111c0.1-61.2 53.9-110.7 120.4-110.6c66.5 0.1 120.1 49.7 120 111c0 61.2-53.9 110.7-120.3 110.6zm-140.4-182.4c-32.7-0.1-59.2-24.4-59.1-54.4c0-30.1 26.5-54.3 59.3-54.3c32.7 0.1 59.2 24.4 59.1 54.4c0 30.1-26.5 54.3-59.3 54.3zm280.8 0.4c-32.8-0.1-59.2-24.4-59.2-54.5c0.1-30 26.6-54.3 59.3-54.2c32.8 0 59.2 24.4 59.2 54.4c-0.1 30.1-26.6 54.3-59.3 54.3zm-447.6 62.5c0.1-30.3 25.9-54.3 58.8-54.3c32.9 0.1 59 24.5 59 54.4c0 30-26.2 54-58.8 54c-32.5-0.1-59-23.9-59-54.1z" />
	</g>
	<g id="Layer 1">
		<g id="&lt;Group&gt;">
			<g id="&lt;Group&gt;">
			</g>
			<g id="&lt;Group&gt;">
				<g id="&lt;Group&gt;">
				</g>
				<g id="&lt;Group&gt;">
				</g>
				<g id="&lt;Group&gt;">
				</g>
				<g id="&lt;Group&gt;">
				</g>
			</g>
		</g>
	</g>
	<path id="&lt;Compound Path&gt;" class="s2" d="m649 228.3c-17.7-18.1-44-28.9-71-30.6l-7.9-0.6l2.5-6.6c1.6-3.7 2.2-7.8 2.2-11.7c0-20.6-19-37.3-42.5-37.3c-5.7 0-11.1 0.9-16.5 3.1l-30.1 11.1l23.5-20c43.4-36.4 123.7-49.8 181.4-53.1l13.3-0.9l-8.2 9.5c-10.2 11.4-15.6 25.3-15.6 39.8c0 35.8 33 64.7 73.9 64.7c41 0 73.9-28.9 73.9-64.7c0-12-3.5-23.4-10.4-33.7l-7.3-10.3l13.3 2.5c57.7 9.5 152.2 37 152.2 100.7v425.4c0 11.4-10.1 21.7-23.4 21.7h-39.4v-124c0-19-9.5-36.5-26-48.7l-3.8-2.8l2.6-3.9c19-29.7 26.9-64.8 28.2-98.4v-3.9l4.1-1.1c8.3-2.2 15.6-6.1 20.6-12.5c13-15.3 10.8-45.9 10.8-64.2c0-47 3.8-80.4-62.5-80.4c-29.8 0-59.6 10.8-78.9 30.9l-2.6 2.5l-3.8-0.9c-23.5-5.5-48.5-8-72.9-8c-24.8 0-49.5 2.5-73.3 8l-3.8 0.9zm-134.2-9.8c-8.9 15.6-7.3 42-7.3 59.3c0 18.3-1.9 48.9 10.8 64.2c5.1 6.4 12.4 10.3 20.6 12.5l4.1 1.1l0.4 3.9c1.2 33.6 8.8 68.7 27.9 98.4l2.5 3.9l-3.8 2.8c-16.5 12.2-25.7 29.8-25.7 48.7v124h-39.6c-13.4 0-23.5-10.3-23.5-21.7v-449.6l11.7 26.1c3.5 8.4 10.5 15 19.4 19.2l5 2.5z" />
	<path id="&lt;Compound Path&gt;" class="s3" d="m500 150.4l-14.3 5.3l14.3-12zm0 52.3v434.3c-11.1-2.2-18.7-11.4-18.7-21.4v-449.6l11.7 26.1c1.6 3.9 3.8 7.6 7 10.6z" />
	<path id="&lt;Compound Path&gt;" class="s4" d="m778.8 84c20.6 8.6 34.2 26.7 34.2 47c0 28.3-26.3 51.4-59 51.4c-32.3 0-58.6-23.1-58.6-51.4c0-22.3 16.1-42 40.2-49l1-0.3h0.9c13.4 0.3 26.4 0.9 39.1 2h1.2zm-246.4 70.9c15.2 0 27.2 10.6 27.2 23.9c0 7.8-4.4 15.3-11.7 19.7l-0.9 0.6l-1.3 0.3c-3.8 0.5-7.3 1.6-10.8 2.8l-1.3 0.5h-1.2c-14.9 0-27.3-10.8-27.3-23.9c0-13.3 12.4-23.9 27.3-23.9z" />
	<path id="&lt;Compound Path&gt;" class="s5" d="m627.5 568v69.3h-68.2v-124c0-13.9 6.3-27 17.7-36.5l4.8-4.1l4.1 4.7c9.9 10.8 21.3 20 34 27.8l1.9 1.1l0.6 1.7c14.9 38.6 63.4 52 106.3 52c42.5 0 91.3-13.4 106.2-52.3l0.7-1.7l1.5-0.8c13-7.8 24.1-17.2 34-27.8l4.1-4.7l4.8 4.1c11.4 9.5 17.7 22.6 17.7 36.5v124h-67.9v-69.3h-15.2v69.3h-172.2v-69.3zm270.9-204.6c-2.3 41.4-15.3 84.8-48.9 115.1l-9.8 8.9l-0.7-12.5c-2.8-61.2-46.3-76.5-110.3-76.5c-64.4 0-108.2 15.6-110.7 76.8l-0.7 12.5l-9.8-8.9c-33.6-30.3-46.6-74-48.8-115.4l-0.4-5.6h6.7c1.6 0.3 3.5 0.3 5.1 0.3c51.7 0 100.2-33.1 100.2-80.3c0-10.3-2.2-20.3-7-29.8l-2.8-5.8l6.9-1.4c20-4.2 40.6-5.6 61.3-5.6c20.3 0 40.9 1.4 60.9 5.6l6.9 1.4l-2.8 5.8c-4.5 9.5-7 19.5-7 29.8c0 47.2 48.5 80.3 100.2 80.3c1.6 0 3.5 0 5.4-0.3h6.4zm-344.8-152.1c5.4-0.5 11.1-0.8 16.5-0.8c43.4 0 85 27.5 85 67.3c0 39.8-41.6 67-85 67c-12.1 0-28.6-0.6-37.8-8.9c-12.6-11.4-9.8-43.1-9.8-58.1c0-15-2.8-46.7 9.8-58.4c1.6-1.1 2.9-2.2 4.5-3.1l1.3-0.8h1.2c4.1-0.5 8.3-1.9 12.4-3.6l0.6-0.3zm333.4-0.8c12.4 0 28.5 0.5 37.7 8.9c12.7 11.7 9.9 43.4 9.9 58.4c0 15 2.8 46.7-9.9 58.1c-9.2 8.3-25.3 8.9-37.7 8.9c-43.5 0-85-27.3-85-67c0-39.8 41.5-67.3 85-67.3z" />
	<path id="&lt;Compound Path&gt;" fill-rule="evenodd" class="s3" d="m582.8 637.3h-23.5v-124c0-13.9 6.3-27 17.7-36.5l4.8-4.1l4.1 4.7q5.3 5.9 11.3 11.1q0.1 0 0.1 0l1.6 1.5q-0.9-0.8-1.7-1.5q0 0 0 0q-15.4-2.2-14.4 49.8c0.3 34.7 0.3 75.3 0 99zm37.1-132.1l1.9 1.1l0.6 1.7c1 2.8 2.2 5.5 3.8 8l-27.3-26c6.5 5.6 13.5 10.6 21 15.2zm-67.6-293.6q-7 5.5-7.9 63.7c-0.7 57.8 5.7 68.1 5.7 68.4c-6.7-1.4-13-3.7-17.8-7.8c-12.7-11.4-9.8-43.1-9.8-58.1c0-15.1-2.9-46.8 9.8-58.4c1.6-1.1 2.9-2.3 4.5-3.1l1.2-0.8h1.3c4.1-0.6 8.2-2 12.4-3.6zm35.2 145.1c-1.3 25-1.9 96.8 30.4 118.4l-0.6 12.6l-9.8-8.9c-33.7-30.3-46.7-74-48.9-115.4l-0.3-5.6h6.7c1.5 0.3 3.4 0.3 5 0.3c6.1 0 11.8-0.6 17.5-1.4zm-37.1-13.1l6.9 0.9c-2.2-0.3-4.7-0.6-6.9-0.9z" />
	<path id="&lt;Path&gt;" class="s6" d="m721 506.3h15v-65.6l4.4-1.4c8.6-2.5 17.4-8.6 17.4-17.5c0-0.6 0-1.1 0-2l-0.6-6.6l7.6 1.1c44.1 7.5 59.3 30.3 59.3 67.5c0 48.1-47.9 64.8-95.4 64.8c-47.9 0-95.8-16.7-95.8-64.8c0-37.2 15.5-60 59.3-67.5l7.6-1.1l-0.3 6.6c-0.3 0.9-0.3 1.4-0.3 2c0 8.9 8.8 15 17.7 17.5l4.1 1.4z" />
	<path id="&lt;Path&gt;" class="s3" d="m669.3 535.8c-21.5-10-36.4-27-36.4-54c0-32.2 11.4-53.6 42.8-63.6l16.5-3.9c-39 15.5-56.5 87.6-22.9 121.5z" />
	<path id="&lt;Compound Path&gt;" class="s7" d="m871.4 451c27.9 10.5 47.6 35 47.6 63.4v135.6h-27.3v-135.6c0-16.2-9.8-30.3-24.4-38.4c2.5-4.2 4.1-7.5 4.1-12.8zm-333.4 199.1v-135.7c0-27.5 18.7-51.4 45.4-62.6c-1.3 8.1 2.2 17.6 8.6 23.1c-15.9 7.8-26.7 22.5-26.7 39.5v135.7z" />
	<path id="&lt;Compound Path&gt;" fill-rule="evenodd" class="s7" d="m570.1 193.2c55.2 0 106.2 35.6 106.2 85.7c0 50-51 85.6-106.2 85.6c-71.1 0-68.5-36.7-68.5-85.6c0-49-2.6-85.7 68.5-85.7zm-41.6 85.7c0 50.3-1.9 61.7 41.6 61.7c43.7 0 78.9-27.5 78.9-61.7c0-34.2-35.2-61.8-78.9-61.8c-43.5 0-41.6 11.4-41.6 61.8z" />
	<path id="&lt;Compound Path&gt;" fill-rule="evenodd" class="s7" d="m955.8 278.9c0 48.9 2.2 85.6-68.9 85.6c-55.2 0-106.2-35.6-106.2-85.6c0-50.1 51-85.7 106.2-85.7c71.1 0 68.9 36.7 68.9 85.7zm-68.9-61.8c-43.7 0-78.9 27.6-78.9 61.8c0 34.2 35.2 61.7 78.9 61.7c43.5 0 41.6-11.4 41.6-61.7c0-50.4 1.9-61.8-41.6-61.8z" />
	<path id="&lt;Path&gt;" class="s7" d="m686.9 348.9c-7.4 0-13.4-5.3-13.4-11.9c0-6.6 6-12 13.4-12c7.5 0 13.5 5.4 13.5 12c0 6.6-6 11.9-13.5 11.9z" />
	<path id="&lt;Path&gt;" class="s7" d="m770.2 348.9c-7.5 0-13.6-5.3-13.6-11.9c0-6.6 6.1-12 13.6-12c7.6 0 13.6 5.4 13.6 12c0 6.6-6 11.9-13.6 11.9z" />
	<path id="&lt;Path&gt;" class="s7" d="m621.1 563.9h27.3v83.6h-27.3z" />
	<path id="&lt;Path&gt;" class="s7" d="m808.6 563.9h27.3v83.6h-27.3z" />
	<path id="&lt;Path&gt;" class="s7" d="m715 429.3h27v83.4h-27z" />
	<path id="&lt;Path&gt;" class="s7" d="m763.9 422.9c0 13.6-15.9 24.5-35.2 24.5c-19.7 0-35.6-10.9-35.6-24.5c0-13.4 6.7-12.8 35.6-12.8c28.5 0 35.2-0.6 35.2 12.8z" />
	<path id="&lt;Compound Path&gt;" class="s7" d="m824.8 491c52.6-31.4 68.5-89.8 67.8-142.3c9.2 2.5 19.7 0.8 27.3-5.6q0 3.7 0 7.5c0 79.5-33.6 146-107.5 173.5c1.3-1.7 1.9-3.1 2.9-4.5c0.3-0.2 3.1-4.7 3.4-5q3.4-4.1 4.8-9.1c1.9-4.5 2.5-10 1.3-14.5zm-22.6-240.8c-21.8-5.8-46.6-8.6-73.5-8.6c-28.9 0-55.2 3.3-77.8 9.7c0.4-8.6-4.7-16.6-13-21.1c27.6-8.6 59-12.5 90.8-12.5c29.1 0 58.3 3.3 84.6 10.8c-7.9 5-12 13.1-11.1 21.7zm-237.8 101.5c0.3 52 16.1 112.1 73.2 142.6c-6.3 8.9-5.4 20.1 2.6 28.1c-70.8-28.6-103.1-93.9-103.1-171.8q0-1.7 0-3.3c7.6 5.8 18.1 7.5 27.3 4.4z" />
	<path id="&lt;Compound Path&gt;" fill-rule="evenodd" class="s7" d="m728.7 394.3c79.3 0 116.7 25.3 116.7 88.9c0 58.7-57.1 83.2-116.7 83.2c-60 0-117.1-24.5-117.1-83.2c0-63.6 37.4-88.9 117.1-88.9zm0 23.9c-72.7 0-89.8 25-89.8 65c0 39.8 37.1 59.2 89.8 59.2c52.3 0 89.4-19.4 89.4-59.2c0-40-17.1-65-89.4-65z" />
	<path id="&lt;Compound Path&gt;" fill-rule="evenodd" class="s7" d="m997 191.3v425.4c0 21.7-19.7 40.3-44.7 40.3h-447.6c-25 0-44.7-18.6-44.7-40.3v-425.4c0-10.9 2.2-21.1 6.3-31.2c34-78.6 180.5-96.2 262.7-95.9c81.8 0.3 230.3 18.9 262.3 98.2c3.8 9.1 5.7 18.9 5.7 28.9zm-212.5-100.7c-8.9-19.1-40.3-19.7-51.4-2.5c-122.1-1.4-245.8 32.6-245.8 103.2v425.4c0 9.2 7.9 16.4 17.4 16.4h447.6c9.5 0 17.4-7.2 17.4-16.4v-425.4c-0.6-57.6-86.3-91.2-185.2-100.7z" />
	<path id="&lt;Compound Path&gt;" fill-rule="evenodd" class="s7" d="m754 202.1c-44.2 0-79.9-31.3-79.9-70c0-38.8 35.7-70.1 79.9-70.1c44.2 0 80 31.3 80 70.1c0 38.7-35.8 70-80 70zm53-70c0-25.6-23.6-46.2-52.8-46.2c-29.2 0-52.8 20.6-52.8 46.2c0 25.5 23.6 46.1 52.8 46.1c29.2 0 52.8-20.6 52.8-46.1z" />
	<path id="&lt;Path&gt;" class="s7" d="m523.9 461.5c-7.4 0-13.5-5.3-13.5-11.9c0-6.6 6.1-12 13.5-12c7.5 0 13.5 5.4 13.5 12c0 6.6-6 11.9-13.5 11.9z" />
	<path id="&lt;Compound Path&gt;" fill-rule="evenodd" class="s7" d="m532.3 222.4c-26.8 0-48.5-19-48.5-42.5c0-23.5 21.7-42.6 48.5-42.6c26.9 0 48.5 19.1 48.5 42.6c0 23.5-21.6 42.5-48.5 42.5zm21.3-42.5c0-10.3-9.5-18.6-21.3-18.6c-11.7 0-21.2 8.3-21.2 18.6c0 10.3 9.5 18.6 21.2 18.6c11.8 0 21.3-8.3 21.3-18.6z" />
	<path id="&lt;Path&gt;" class="s7" d="m931.8 477.1c-7.4 0-13.5-5.3-13.5-11.8c0-6.5 6.1-11.8 13.5-11.8c7.5 0 13.5 5.3 13.5 11.8c0 6.5-6 11.8-13.5 11.8z" />
</svg>