<svg version="1.2" xmlns="http://www.w3.org/2000/svg" viewBox="0 0 29 26" width="29" height="26">
	<title>image</title>
	<style>
		.s0 { opacity: .7;fill: #9084c2 } 
	</style>
	<path id="Layer" fill-rule="evenodd" class="s0" d="m21.9 4.6q0.1 0.1 0.3 0.2c3.4 0 6.1 2.7 6.1 6.1v8.4c0 3.4-2.7 6.2-6.1 6.2h-16c-3.4 0-6.2-2.8-6.2-6.2v-8.4c0-3.4 2.8-6.1 6.2-6.1 0.1 0 0.2-0.1 0.2-0.2l0.1-0.2q0.1-0.1 0.2-0.3c0.3-0.8 0.7-1.6 1-2.1 0.6-1.3 1.7-2 3.1-2h6.7c1.4 0 2.5 0.7 3.1 2 0.3 0.4 0.6 1.2 0.9 1.9q0.1 0.2 0.2 0.4zm-1 5.4c0 0.7 0.6 1.3 1.3 1.3 0.7 0 1.3-0.6 1.3-1.3 0-0.7-0.6-1.3-1.3-1.3-0.7 0-1.3 0.6-1.3 1.3zm-1.1 4.6c0-1.5-0.6-2.9-1.6-3.9-1.1-1.1-2.5-1.6-4-1.6-1.5 0-2.9 0.5-3.9 1.6-1.1 1.1-1.7 2.4-1.6 3.9 0 1.5 0.5 2.9 1.6 4 1 1 2.4 1.6 3.9 1.6 1.6 0 2.9-0.6 3.9-1.6 1.1-1.1 1.7-2.4 1.7-4zm-8-2.4c0.6-0.7 1.5-1 2.4-1 0.9 0 1.8 0.3 2.5 1 0.6 0.6 1 1.5 1 2.4 0 1.9-1.6 3.5-3.5 3.5-0.9 0-1.8-0.4-2.4-1-0.7-0.7-1-1.6-1-2.5 0-0.9 0.3-1.7 1-2.4z"/>
</svg>