<svg version="1.2" xmlns="http://www.w3.org/2000/svg" viewBox="0 0 347 249" width="347" height="249">
	<title>image</title>
	<defs>
		<clipPath clipPathUnits="userSpaceOnUse" id="cp1">
			<path d="m-38.68-201l523.68 211.23l-147.32 384.71l-523.68-211.23z" />
		</clipPath>
	</defs>
	<style>
		.s0 { fill: #352c2d } 
		.s1 { opacity: .8;fill: #ffa44a } 
		.s2 { fill: #ffa47f } 
		.s3 { fill: #ffc17d } 
		.s4 { fill: #584441 } 
		.s5 { fill: #ffa44a } 
		.s6 { fill: #ffffff } 
		.s7 { fill: #d1e2ee } 
		.s8 { fill: #9f4424 } 
		.s9 { fill: #ff765f } 
		.s10 { fill: #c17b4c } 
	</style>
	<g id="Clip-Path" clip-path="url(#cp1)">
		<g id="Layer" style="opacity: .6">
		</g>
	</g>
	<path id="Layer" class="s0" d="m319.8 23.6l10.7-16.6h0.2l-10.7 16.6z" />
	<path id="Layer" class="s0" d="m323.1 24.3l12.4-10.9l0.2 0.2l-12.4 10.9z" />
	<path id="Layer" class="s1" d="m265.8 14.3c2.3-0.7 5.7 0.3 8.1 0.7q5.4 0.7 10.9 2.2c0.5 0 0.9 0.4 0.9 0.9c0.8 0.3 1.5 1 1 2.1q-4 6.9-6.4 14.7c-0.3 1-1.5 1.2-2.4 0.5q-4.5-4.5-8.1-9.7c-1.9-2.8-4.8-6.9-5-10.2c0-0.5 0.5-1.2 1-1.2z" />
	<path id="Layer" class="s1" d="m300.3 134.8q18.7 27 10.2 28.6q-8.8 1.7-54.7-1.1q34.9-26.6 44.5-27.5z" />
	<path id="Layer" class="s2" d="m299.1 8.4q0-3.6 0.2-7.1c0-1.2 1.4-1.7 2.4-1c3.1 3.4 5 8.1 6.6 12.4q0.3 0.2 0.5 0.2c0.7 0.5 0.7 1.4 0.5 2.1c0 1.2-1.9 2.2-2.4 0.7q-0.2-0.2-0.2-0.2c-2.6 0-6.4 0-7.4-2.1c-0.5-1.4-0.2-3.6-0.2-5z" />
	<path id="Layer" class="s2" d="m271.5 18.4c4.7 1.6 10 1.1 14.7 2.6c1.2 0.4 1.2 1.6 0.5 2.3c0.2 0.5 0.2 1 0 1.2q-1.4 2.9-3.3 5.5c-0.5 0.4-1.2 0.7-1.7 0.4c-4.5-2.8-8.8-5.6-11.9-9.9c-0.5-1 0.5-2.4 1.7-2.1z" />
	<path id="Layer" class="s1" d="m240.5 127.6c3.6-8 9.6-12.3 15.5-18c7.1-6.9 13.3-14.4 18.6-22.5c5.7-9 11.6-19.4 12.8-29.9c-5.9-2.6-10.9-6.4-14.7-11.6c-0.5-0.5-0.3-0.9 0-1.4c4.7-9.7 4-21.8 14.2-28.5c10.3-6.4 22.9-2.1 33.1 1.9c0.5 0.3 0.7 0.8 0.9 1.2c3.1 2.9 4.6 8.1 4.6 12.1q0 0.3 0 0.5q0 0.2 0 0.7c-0.7 8.8-6.7 15.4-12.9 21.3q0.3 0.3 0.3 0.7q0 3.8 0.2 7.4c0.2 14.7 2.1 29.4 0 44.1c-1.7 12.1-6.4 23.9-13.1 34.1q-1.4 2.4-3.1 4.8c-7.1 9.5-16.6 19.4-29.2 20.4c-9.8 0.4-26.4 1.4-31.4-2.9c-1-3.5-1-8.8-1-9.5c0.3-8.5 1.7-17 5.2-24.9z" />
	<path id="Layer" class="s3" d="m305 29c2.4-6.1 10.7-10.9 17.4-9.7c0.4-0.2 0.9-0.5 1.4-0.2c2.6 1.6 5 3.8 5 6.8c0 2.4-1.4 4.8-3.8 5.3c-0.5 0-1.2-0.3-1.4 0c-1 0.7-0.3 0-0.8 1.4c-0.4 1.2-0.7 2.1-1.6 3.5c-1.9 2.4-5 3.6-8.1 3.6c-6.4 0-10.5-4.3-8.1-10.7z" />
	<path id="Layer" class="s4" d="m316.7 21.7c-0.3-1.9 0.9-3.3 2.3-4.5q0.3-0.5 0.8-0.7q0.7-0.3 1.4 0c0.9-0.3 1.9 0.2 2.4 1.4c0.2 0.9 0.2 2.1 0.2 3.1c0 1.4 0 2.6-0.5 3.8c-0.2 0.4-0.7 0.7-1.2 0.7c-0.9 0-2.1-0.3-3.3-1c-1.2-0.5-2.1-1.4-2.1-2.8z" />
	<path id="Layer" class="s1" d="m298.1 97.5c-0.2-0.4-3.8-11.6 5.5-12.1c1.2 0 11.4-0.7 9.3 8.8c-2.2 9.3 0.4 42 1.4 51.5c0.2 4.5 0.7 8 3.3 11.8c1 1.4 1.9 2.4 1.7 4.3c-0.7 5.2-9.8 3.8-13.1 4c-0.5 0-1-0.2-1.2-0.5c-0.2 0-0.5-0.2-0.7-0.9c-5-21.8-6.9-44.3-6.2-66.9z" />
	<path id="Layer" class="s0" d="m301.2 17.9c1.7 0 3.1 1.4 3.1 3.1c0 1.9-1.4 3-3.1 3c-1.9 0-3.1-1.1-3.1-3c0-1.7 1.2-3.1 3.1-3.1z" />
	<path id="Layer" class="s0" d="m310.2 12.4c1.7 0 3.1 1.4 3.1 3.1c0 1.7-1.4 3.1-3.1 3.1c-1.9 0-3.3-1.4-3.3-3.1c0-1.7 1.4-3.1 3.3-3.1z" />
	<path id="Layer" class="s1" d="m232.5 115.1c3.3-5.7 6.9-11.2 8.8-17.6c2.1-7.3 2.1-14.9 0.4-22.5c-0.9-5.4-8.3-19.4-2.8-24.6c5.9-5.7 10.9 6.6 12.6 10.2c4 10.1 4.7 21 1.4 31.7c-3.3 10.9-10 20.2-15.7 29.9c-3.1 5.4-5.9 11.1-7.4 17.3c-1.9 9.2 0.8 15.4 8.8 20.4c1 0.7 0.8 1.6 0 2.4c-0.2 0.2-0.7 0.7-1.1 0.4c-19.8-7.6-12.9-34.1-5-47.6z" />
	<path id="Layer" class="s3" d="m286.9 97.5c1.2-7.3 3.4-15.1 7.9-21.3c4.5-6.4 11.4-10.4 18.1-14.2q0-0.3 0.2-0.5c0.2 14.7 2.1 29.4 0 44.1c-1.7 12.1-6.4 23.9-13.1 34.1q-1.2-0.2-2.4-1.2c-5.2-3.7-8.1-12-9.7-18c-1.9-7.3-2.2-15.4-1-23z" />
	<path id="Layer" class="s3" d="m277.9 99c-0.2-0.8-0.2-1.2 0.5-1.7c7.8-5 16.4-7.8 25.7-8.3c1.1 0 1.4 1.4 0.9 2.1q0 0.3-0.2 0.7c-3.8 8.8-7.6 17.8-9.8 27.1c-2.1 9.5-1.9 18.7-1.2 27.9c0.5 4.8 1 8.1 3.6 12.1c0.9 1.2 1.9 2.4 1.7 4.1c-0.8 5.2-9.8 4-13.1 4.2c-0.5 0-1-0.2-1.2-0.4c-0.2-0.3-0.5-0.5-0.7-1c-5-22-7.2-44.3-6.2-66.8z" />
	<path id="Layer" class="s0" d="m289.5 35.7l21.5-8.3l0.2 0.2l-21.4 8.3z" />
	<path id="Layer" class="s0" d="m295.7 44.4l18.3-13.5l0.3 0.3l-18.6 13.5z" />
	<path id="Layer" class="s0" d="m311 46.3l5.4-13.2h0.3l-5.5 13.5z" />
	<path id="Layer" class="s1" d="m295 97.8c0.3-1.7 2.9-1 2.6 0.7c-3.1 16.3-3.8 35.8-0.4 52.1c0.4 1.7-2.2 2.4-2.7 0.7c-3.3-16.8-2.6-36.7 0.5-53.5z" />
	<path id="Layer" class="s1" d="m249.4 129.5c14.2-4 27.8 7.4 25.9 22.3c-0.3 1.7-2.9 1.7-2.6 0c1.6-13-9.8-23.2-22.6-19.7c-1.7 0.5-2.4-2.1-0.7-2.6z" />
	<path id="Layer" class="s5" d="m280 196.2c-3.3 5.4-6.6 10.9-10.4 16.3c-2.4 3.1-4.8 5.9-8.6 7.6c-5.2 2.1-11.4 1.7-16.9 1.4q-9.7-0.2-19.7-0.5q-20.7-0.4-41.7-0.7c-13.7-0.4-27.5-0.2-41.3-1.6c-12.9-1.4-24.1-6-36.2-10.2c-6.7-2.6-13.3-3.8-20.7-4.5c-4.3-0.5-8.8-1.4-12.4-4.1c-6.4-4.5-7.1-12.3-1.6-18c3.3-3.8 8.3-5.4 13.1-6.8c6.4-1.7 12.6-3.4 19-5q0.2 0 0.5 0c24.9-5.2 48.5-13.3 72-23c10.7-4.5 23.3-1.9 34.8-1.2q19.2 1.2 38.5 2.4c17.4 2.8 21.4 10.2 28.5 18.2c3.8 4 6.9 9 7.7 14.7c0.7 5.7-1.5 10.2-4.6 15z" />
	<path id="Layer" class="s5" d="m87.1 195.2c-2.6 3.3-5.4 6.4-8.3 9c-6.7 6.2-13.6 12.1-20.2 17.8c-5.7 4.7-11.9 8.1-19.3 9.5c-7.6 1.6-15.4 1.6-23.3 1.6c-4.5 0-11.4 1-14.7-3c-3.1-3.8 0-8.6 3.8-10.5c7.1-3.8 15.9-3.1 23.5-5.4c8.8-2.6 15.2-9.3 21.4-15.7q9.5-9.2 19.1-18.7c0-0.5 0.4-1.4 1.1-1.2c4.1 1.2 7.9 2.9 11.7 4.8c2.1 1.1 6.9 3 7.8 5.6c0.8 2.4-1.4 4.8-2.6 6.2z" />
	<path id="Layer" class="s3" d="m164.4 205.4c-3.3 7.1-9 12.8-14.7 18c-6.2 5.5-11.9 10.2-20.2 12.3c-6.7 1.7-37.1 6.2-26.2-9.2c1.7-2.6 3.8-4.7 6.4-6.2c3.6-2.3 7.6-2.6 11.2-4.7c4-2.4 6.9-7.8 9-12.1c2.4-4 4.1-8.3 5.5-12.8c-0.5-0.7 0-2.1 1-1.7c5 1.9 19.2-20.6 24.5-20.8c3.3-0.3 17.6 5.4 20.7 7.1c4.7 2.6-15.7 26.5-17.2 30.1z" />
	<path id="Layer" class="s3" d="m273.4 219.6c-3.4 12.1-21.7 9.5-31.2 9.3c-9 0-16.6 0.4-25 4.5c-4.5 2.3-9.5 4-14.5 1.6c-4.3-1.9-7.3-6.6-6.4-11.3c1-5 5.2-7.9 10-8.6c7.4-1.4 15 0 22.4-1.6c7.8-1.7 15.2-5 21.8-9.5c0.3-0.3 0.5-0.5 1-0.5c9.7-0.5 25.9 2.4 21.9 16.1z" />
	<path id="Layer" class="s3" d="m346.9 170.8c-4.5 7.1-11 15.4-20 14.2c1.4 1.4 3.1 2.9 5 3.8c0.9 0.7 0.5 1.9-0.5 1.9c-10 0-19.7-2.6-28.5-7.3q0.4 1.6 0.2 3.3c0 0.7-0.5 1.2-1.2 0.9c-22.3-8.3-42.8-20.6-60.6-36.3q-0.5 0-1 0c-1.4 0.3-1.4-1.6 0-1.9c17.4-2.3 33.6 4.6 50.2 9.3c16.2 4.7 35.4 7.1 49.5-4.7c0.5-0.5 1.2-0.5 1.4 0.2c3.3 4.7 4 10.7 1.7 15.9q1.4-0.5 2.6-0.7c0.7-0.3 1.6 0.7 1.2 1.4z" />
	<path id="Layer" class="s5" d="m331.9 248.1c-3.8 0.4-7.4-1.7-9.3-5c-2.1-3.6-0.7-5.5 0.2-8.8c2.4-7.8-10.7-12.8-16.1-14c-7.2-1.4-14.5-0.9-21.7-1.2c-12.3-0.7-24.7-3-35.4-9.7c-9.1-5.7-16.4-13.7-22.6-22.5c-0.5 0.5-1.7 0.2-1.7-0.7q0-1 0-1.7q0 0 0-0.2c-0.2-0.2-0.2-0.5 0-0.9c-0.4-6.9-1.4-14.7 1.7-20.9c2.8-5.7 7.1-10.9 12.8-14c0.5-0.5 2.7-0.7 2.7-0.2c10.7 0.7 21.6 1.6 30.6 7.3c9.5 6.2 15.7 15.7 22.4 24.4c8.3 10.5 17.8 18.8 29.3 25.4c8.8 5 18.7 10.7 20.4 21.6c1.7 8.7-3.3 20.4-13.3 21.1z" />
	<path id="Layer" class="s6" d="m112.3 193.3c-41.8 0-75.8-33.9-75.8-75.6c0-41.7 34-75.6 75.8-75.6c42.1 0 76.2 33.9 76.2 75.6c0 41.7-34.1 75.6-76.2 75.6z" />
	<path id="Layer" class="s7" d="m112.3 171.3c-29.5 0-53.7-24-53.7-53.6c0-29.7 24.2-53.6 53.7-53.6c29.8 0 53.8 23.9 53.8 53.6c0 29.6-24 53.6-53.8 53.6z" />
	<path id="Layer" class="s3" d="m146.8 146.8c-5 6.2-12.3 9.5-19.7 11.7c-8.1 2.1-16.9 4-25 1.6c-6.9-2.1-12.6-6.6-16.9-12.3c-10.4-14-9.7-32.3-6.6-48.6c-0.5-0.2-0.7-0.7-0.3-1.2c6-8.1 14.1-10.7 23.8-12.1c9.3-1.6 21.7-2.8 30.7 0.7c17.4 6.9 16.6 23.5 18.3 37c1 8.3 1.2 16.4-4.3 23.2z" />
	<path id="Layer" class="s8" d="m125.4 113.7c0-2.4 1.7-4.1 4.1-4.1c2.1 0 4 1.7 4 4.1c0 2.1-1.9 4-4 4c-2.4 0-4.1-1.9-4.1-4z" />
	<path id="Layer" class="s8" d="m93.8 113.7c0-2.4 1.7-4.1 4-4.1c2.2 0 4.1 1.7 4.1 4.1c0 2.1-1.9 4-4.1 4c-2.3 0-4-1.9-4-4z" />
	<path id="Layer" class="s9" d="m123.3 154c-0.3 4.2 0.2 9.7-3.1 12.8c-2.4 1.9-5.5 1.9-7.4-0.3c-3.5-4-2.1-12.5-1.9-17.3c0-0.7 0.5-0.9 1-0.9c1.2-0.7 2.3-1.7 3.1-2.9c0.4-0.2 1.1-0.2 1.4 0c1.7 1.7 3.3 1.9 5 2.6q0.7 0.5 1.2 1c1.2 1.4 0.7 3.5 0.7 5z" />
	<path id="Layer" class="s10" d="m131.8 144c-2.6 3.6-8.3 6.2-12.6 4.5c-1.6-0.7-2.8-1.7-3.5-3.1c-0.7 2.2-2.2 3.8-4.8 4.8c-4.3 1.1-11.4 0.4-12.4-4.8c-0.2-1.4 1.7-1.9 1.9-0.7c1 4.7 9.1 4.7 11.9 2.4c1.5-1.4 1.9-3.3 2.2-5.5c-0.3-1.9-0.3-3.8-0.3-5.7q0-0.2 0-0.4c0-1.2 1.9-1.2 2.2 0q0 0.2 0 0.4q0 0 0 0.3c0 1.6 0 3.3 0 5.2c0.2 1.9 0.9 3.8 2.8 5c3.4 1.9 8.8-0.7 11-3.4c0.7-0.9 2.4 0 1.6 1z" />
	<path id="Layer" class="s8" d="m115.4 136.2c-0.2 0.4-0.9 0.7-1.4 0.4c-2.4-1.1-7.6-4-7.1-7.5c0.4-3.1 5.2-3.4 7.8-3.4c2.4 0 8.1 0 7.6 3.6c-0.2 3.1-4.2 5.7-6.9 6.9z" />
	<path id="Layer" class="s5" d="m84.3 171c-2.4 4.3-7.2 2.6-10.7 0.7c-12.9-6.4-16-21.5-15-34.3c0.5-7.6 1.4-15 5.9-21.1c4.3-6.2 10-10.9 12.4-18.3q0.2-0.5 0.5-0.5c0.5-1.2 1.2-1.6 2.6-1.6c0.5-0.3 0.9 0.4 0.9 0.9c0 9.3-0.7 19.2 0.8 28.5c1.4 8 4.7 15.9 5.4 24.1c0.7 6.7 0.5 15.5-2.8 21.6z" />
	<path id="Layer" class="s5" d="m137.6 149.4c0.7-8.2 4-16.1 5.4-24.1c1.5-9.3 0.7-19.2 0.5-28.5c0-0.5 0.5-1.2 1.2-0.9c1.2 0 1.9 0.4 2.6 1.6q0.2 0 0.5 0.5c2.4 7.4 8.1 12.1 12.4 18.3c4.2 6.1 5.4 13.5 5.9 21.1c0.7 12.8-2.1 27.9-15 34.3c-3.6 1.9-8.5 3.6-10.7-0.7c-3.3-6.1-3.6-14.9-2.8-21.6z" />
</svg>