<svg version="1.2" xmlns="http://www.w3.org/2000/svg" viewBox="0 0 120 235" width="120" height="235">
	<title>image</title>
	<style>
		.s0 { fill: #ffa47f } 
		.s1 { fill: #f27049 } 
		.s2 { fill: #443e90 } 
		.s3 { fill: #635dad } 
		.s4 { fill: #f1543b } 
		.s5 { fill: #ff765f } 
		.s6 { fill: #ffffff } 
		.s7 { fill: #ffc17d } 
		.s8 { fill: #d1e2ee } 
		.s9 { fill: #9f4424 } 
		.s10 { fill: #412014 } 
	</style>
	<path id="Layer" class="s0" d="m68.7 129.6q-1 6.1-15.8 99.7h-8.8q-11.9-76.4-13.7-87.6q-1.9-11.1 3.5-30.4q1.5 0.1 28.3-4.5c0.8 4.5 7.6 16.7 6.5 22.8z" />
	<path id="Layer" class="s1" d="m48.9 229.3l2.4-94.2q4.2-4.5 5.8-7.1q-2.3 5.7-4.1 8.2q0 27-3.1 93.1z" />
	<path id="Layer" class="s1" d="m45.4 229.3h-1.3q-11.9-76.4-13.7-87.6q-1.9-11.1 3.5-30.4h9.7q-7.3 12.2-6.6 30c0.5 13.5 5.8 64 8.4 88z" />
	<path id="Layer" class="s2" d="m48.9 229.3v4h-14.4q4.9-4 9.6-4z" />
	<path id="Layer" class="s3" d="m48.9 234.4h-14.4v-1.1h14.4z" />
	<path id="Layer" class="s2" d="m53.7 229.3q4.7 0 9.6 4h-14.4v-4z" />
	<path id="Layer" class="s3" d="m48.9 233.3h14.4v1.1h-14.4z" />
	<path id="Layer" class="s3" d="m49.5 234.4h-0.9l0.6-4.3z" />
	<path id="Layer" class="s4" d="m62.3 93.1c14.3 31.7 13 71 5.7 81.4q-9.4 5.2-39.4 0.3q-3.8-57.6 7.2-82.3q17.7-3.8 26.5 0.6z" />
	<path id="Layer" class="s5" d="m46.7 94.3q-5.5 24.6-3.9 48.7q0.5 6.8 0.8 33.6l-15-1.8q-4.2-55.5 7.2-82.3z" />
	<path id="Layer" class="s0" d="m63.9 64.2q14.7 24 17.1 27.4c2.4 3.5-2.3 14.7-7 9.3c-18.5-21-21.7-34.6-18.6-36.7q5.9-3.8 8.5 0z" />
	<path id="Layer" class="s1" d="m64.3 65q2.2 4.7 3.2 9.1c1 4.4 4.1 22.3 5.9 26.2q-8.5-10-10.8-13.7c-2.3-3.6-3-20.4-2.6-21.2q0.5-0.9 4.3-0.4z" />
	<path id="Layer" class="s0" d="m79 91.1q5.6-0.6 25.1 0.9l-0.4 4.4q-19.9 5.8-23.4 6.1c-4.5 0.3-6.2-0.6-6.4-2.3c-0.4-3.7 1.1-8.6 5.1-9.1z" />
	<path id="Layer" class="s6" d="m47.1 53.1q10.6 1.7 19.1 10q-9.1 8.7-8.9 12.3l-5.9-1.6q-7.9-10.4-4.3-20.7z" />
	<path id="Layer" class="s0" d="m112.3 92.2c0.8 2.1-0.9 4.3-2 5c-1 0.5-5.1 0.7-7-1c-1.3-1.1-1.4-3.5 0.2-4.1c1.6-1.4 3-3 5.2-2.7c0.6 0.1 3.1 1.7 3.6 2.8z" />
	<path id="Layer" class="s0" d="m114.1 92.8c-1.9 1.2-4.4 0.6-6.2-0.3c-0.4-0.2-0.4-0.6-0.2-0.8q-0.3-0.1-0.7-0.1c-0.6-0.2-0.5-1.1 0.1-1c1.1 0.2 2.3 0.4 3.4 0.5c1.5 0.1 2.5-0.3 3.6-1.1c1.1-0.8 2-1.5 3.4-1.4c0.2 0 0.3 0.2 0.4 0.4c0.1 0.5-0.4 0.9-0.7 1.2c-1 0.9-2 2-3.1 2.6z" />
	<path id="Layer" class="s0" d="m115.1 96.2c-1.9 1.1-4.3 0.5-6.2-0.4c-0.3-0.1-0.4-0.6-0.1-0.8q-0.4 0-0.7-0.1c-0.6-0.1-0.5-1.1 0.1-0.9c1.1 0.2 2.3 0.4 3.4 0.4c1.4 0.1 2.4-0.2 3.6-1.1c1.1-0.8 1.9-1.4 3.3-1.3c0.2 0 0.4 0.1 0.4 0.3c0.2 0.6-0.3 0.9-0.7 1.2c-0.9 1-1.9 2-3.1 2.7z" />
	<path id="Layer" class="s0" d="m113.4 98.4c-2.1 0.7-9.3-0.4-10.5-2.6c-0.1-0.3 4.2 0.3 4.5 0.2q-0.3-0.2-0.7-0.3c-0.5-0.2-0.2-1.2 0.3-0.9c1.1 0.4 2.2 0.9 3.3 1.2c1.4 0.4 2.4 0.2 3.7-0.3c1.3-0.6 2.2-1 3.6-0.6c0.2 0 0.3 0.2 0.3 0.4c0 0.6-0.5 0.8-0.9 1c-1.2 0.7-2.4 1.5-3.6 1.9z" />
	<path id="Layer" class="s0" d="m115.4 94.4c-1.9 1.2-4.3 0.6-6.2-0.3c-0.3-0.2-0.4-0.6-0.1-0.8q-0.4-0.1-0.7-0.2c-0.6-0.1-0.6-1 0-0.9c1.2 0.2 2.3 0.4 3.5 0.5c1.4 0.1 2.4-0.3 3.6-1.1c1.1-0.8 1.9-1.5 3.3-1.4c0.2 0 0.4 0.2 0.4 0.4c0.1 0.5-0.3 0.9-0.7 1.2c-0.9 0.9-1.9 2-3.1 2.6z" />
	<path id="Layer" class="s1" d="m111.8 92q1.3 3.1-1 5.6q0.9-2.6 1-5.6z" />
	<path id="Layer" class="s1" d="m109.6 92.8q-0.3 0.6-2.1 1.4q2.1-1.2 1.9-3q0.6 0.8 0.2 1.6z" />
	<path id="Layer" class="s3" d="m63.6 96.3q-3 3.1-25.8 1.1q1.4-5.9-1.3-11.9c-1-2.1-2.6-5.2-4.2-8.7q-0.7-1.3-1.3-2.7q-0.2-0.3-0.3-0.7c-1-2-1.8-3.9-2.5-5.7q-0.1-0.2-0.2-0.4c-1.1-2.8-1.9-5.1-1.8-6.4q0-0.1 0-0.2c0.3-1.4 1.6-3 3.2-4.5q0.4-0.5 0.9-0.9q2.1-1.9 5.3-2.4q4.2 2 11.5 0.2q15.6 10.4 17.9 14.7q2.2 4.2-2 8.7c-2.7 6.7-0.3 16 0.6 19.8z" />
	<path id="Layer" class="s2" d="m61.5 81.7q-12.6 1.4-17.2-3.1c5 1.9 13.4-1.1 18.7-2.1q-0.1 1.9-1.5 5.2z" />
	<path id="Layer" class="s7" d="m35.8 92.5q1.3-3.1-0.6-9.4c-0.7-2.1-2.7-8.3-3.9-11.9c0.7 1-1.9-8.6 3.5-11.4c3.6 8.5 1.2 22.6 5.9 33.5q-2.9-0.4-4.9-0.8z" />
	<path id="Layer" class="s6" d="m51.8 55q15.3 10.1 14.3 17c-1 6.9-4.8 5.9-3.9 14.1c1.2 12.3 17.6 48.6 12.1 85.4q-4.8-2.2-9.2-1.1q6.7-19.1-0.8-54.8c-3.1-14.9-3.8-35.9-3.2-37.7c0.7-1.7 3.8-11-9.3-22.9z" />
	<path id="Layer" class="s6" d="m26.9 108c2.1-5.6 8-17.8 7.9-20.7c-0.3-5.1-3.8-17.5-4.7-24.3c-0.2-1.6-0.3-2.9-0.2-3.7c0.2-1.1-1.1-2.7 0.4-4q2.4-2.2 5.3-2.4c1.7 2.4 7.9 7.5 8.7 11c1.5 7.2 1.2 16.3-0.1 25.5c-1.4 10.5-4.1 21-6.5 28.7q-5.4 17.5-1.2 53.7c-2.6-0.8-5.4-1.1-7.8-1.2q-3.7-0.1-6.6 0.2q0-8.7-0.9-19.6c-0.9-10.9 3.6-37.5 5.7-43.2z" />
	<path id="Layer" class="s8" d="m26.9 108c2.1-5.6 8-17.8 7.9-20.7q-0.1-2.2-5.5-22.9l0.8-1.4l2.5-4.7q4.7 5.1 4.7 15.2c0 6.7-1.7 23.3-7.3 38.4c-5.2 13.8-5.2 33.4-1.3 58.7q-3.7-0.1-6.6 0.2q0-8.7-0.9-19.6c-0.9-10.9 3.6-37.5 5.7-43.2z" />
	<path id="Layer" class="s9" d="m28.6 18.9l-2.5 2.9l-1.1 1.3c-22.1-1.6 3.8 32.6-0.1 36.9c-2.2 2.4-6.3 2.1-9.5 1.4q-2.4-0.6-4.2-1.4q5.4-2.1-2.6-12.1c-8-10.1-14.4-31.5 0-36q8.2-2.5 20 7z" />
	<path id="Layer" class="s10" d="m26.1 21.8l-1.1 1.3c-22.1-1.6 3.8 32.6-0.1 36.9c-2.2 2.4-6.3 2.1-9.5 1.4q0.4-0.2 1-0.3c4-0.4 4.2-8 0.9-15.2c-3.3-7.2-9.5-18.1-5.4-24.3c2.9-4.4 10.3-1.7 14.2 0.2z" />
	<path id="Layer" class="s4" d="m26.6 24.3q-2.5 1.6-3.2-1.2c-0.8-2.8 0.2-7.8 3.8-7.2q3.6 0.7-0.6 8.4z" />
	<path id="Layer" class="s9" d="m55.5 11.2q16.2 28.9-10.7 36.9q5.1-11.3 3.9-16.4q3.7-14.4 6.8-20.5z" />
	<path id="Layer" class="s0" d="m47.8 42.6c-0.5 4.1-0.7 8.4-0.3 11q3.5 5.3-11.9-0.7c0.2-1.1 0.1-1.4 0.2-2.7c0-2.7-0.1-5.4-0.2-6.1q0-0.1 0-0.2q0 0 0-0.1z" />
	<path id="Layer" class="s1" d="m47.8 42.6q-0.2 0.6-0.2 1.1q-0.3 2-0.3 3c0 1 0 2.5 0 3.5c-2.7 1.9-9.6-2.1-11.6-4.6q-0.1-2.7-0.4-5.7z" />
	<path id="Layer" class="s0" d="m54 13.6c0.9 0.9 2.9 7.1 3.2 9.3c0.3 2.3 0.9 12 0 15c-0.8 2.9-5.8 11.6-9.4 11.6c-3.6 0-10.9-4.8-12.5-8.5q-1.6-3.6-2.2-17.5c2.8-9.3 19.9-10.8 20.9-9.9z" />
	<path id="Layer" class="s1" d="m51.6 36.3l0.2 0.4l-0.2 0.3c-0.2 0.4-0.6 0.7-1 0.9c-0.3 0.1-0.7 0.2-1.1 0.2c-0.7-0.1-1.2-0.3-1.9-0.4c0.6-0.4 1.3-0.5 1.8-0.7c0.5-0.1 0.9-0.4 1-0.7v0.7c-0.5-0.8-0.8-1.6-0.9-2.5c-0.1-0.9-0.1-1.8 0.1-2.6c0.9 1.5 1.3 3.1 2 4.4z" />
	<path id="Layer" class="s6" d="m46.9 32c0.2 1.3-3.5 2.7-5.9 1.5c-1-0.4-0.3-3.6 2.4-3.9c2.3-0.3 3.4 1.3 3.5 2.4z" />
	<path id="Layer" class="s10" d="m41.9 31.7c0-1 0.8-1.8 1.8-1.7c1 0 1.7 0.8 1.7 1.8c0 1-0.9 1.7-1.8 1.7c-1 0-1.8-0.9-1.7-1.8z" />
	<path id="Layer" class="s6" d="m44.3 30.6q0-0.6 0.6-0.6c0.3 0 0.6 0.3 0.5 0.6c0 0.3-0.3 0.6-0.6 0.6c-0.3 0-0.6-0.3-0.5-0.6z" />
	<path id="Layer" class="s6" d="m56.3 31.5c0 1.3-3.5 2.3-5.5 1c-0.8-0.6 0.1-3.6 2.6-3.7c2.1-0.1 2.9 1.6 2.9 2.7z" />
	<path id="Layer" class="s10" d="m51.7 30.8c0.1-1 1-1.7 2-1.5c0.9 0.1 1.6 1 1.5 2c-0.2 0.9-1.1 1.6-2 1.4c-1-0.1-1.7-1-1.5-1.9z" />
	<path id="Layer" class="s6" d="m54.2 29.9c0.1-0.3 0.4-0.6 0.7-0.5c0.3 0 0.6 0.3 0.5 0.7c0 0.3-0.3 0.5-0.7 0.5c-0.3-0.1-0.5-0.4-0.5-0.7z" />
	<path id="Layer" class="s9" d="m45.6 24.4c0.6 0 0.6 1.4 0.3 2c-0.3 0.5-3.1-0.3-7.4 1.7c-0.2 0.1 4.2-4.1 7.1-3.7z" />
	<path id="Layer" class="s9" d="m58.7 27.2c-4.4-1.4-6.9-0.3-7.3-0.8c-0.3-0.6-0.6-1.9 0-2c2.7-0.8 7.5 2.8 7.3 2.8z" />
	<path id="Layer" class="s1" d="m46.2 41.8c0.9 0.5 2 0.7 3.1 0.8q-0.8 0.3-1.7 0.3c-0.6 0-1.2-0.2-1.8-0.4c-1.1-0.5-1.9-1.5-2.2-2.6c0.8 0.8 1.6 1.5 2.6 1.9z" />
	<path id="Layer" class="s1" d="m45.7 43.7c0.5 0.1 0.9 0.3 1.4 0.6c-0.5 0.2-1.1 0.2-1.6 0.1c-0.5-0.2-1-0.5-1.2-1c0.5 0 1 0.2 1.4 0.3z" />
	<path id="Layer" class="s10" d="m52.3 28.9c0.6-0.3 1.3-0.4 1.9-0.2c0.7 0.1 1.3 0.5 1.6 1c0.4 0.5 0.6 1.2 0.5 1.8c0-0.6-0.3-1.2-0.7-1.6c-0.4-0.5-0.8-0.8-1.4-0.9c-0.6-0.1-1.2-0.1-1.7 0.1c-0.6 0.2-1.1 0.6-1.5 1.1c0.3-0.6 0.8-1 1.3-1.3z" />
	<path id="Layer" class="s10" d="m44.6 29.8c-0.6-0.1-1.2-0.1-1.8 0.1c-0.5 0.1-1 0.5-1.4 0.9c-0.4 0.5-0.7 1-0.8 1.7c-0.1-0.7 0.2-1.3 0.6-1.8c0.3-0.6 0.9-1 1.5-1.2c0.7-0.2 1.4-0.1 2 0c0.6 0.2 1.2 0.5 1.5 1.1c-0.4-0.5-1-0.7-1.6-0.8z" />
	<path id="Layer" class="s9" d="m35.4 22.3q1.3 5.4 0.1 10.4q-1.2-1.1 0.1 11.2q-16-11.1-8.8-27.8c1.6-3 3.6-4.9 5.8-6.1q6.4-3.5 13.9-0.5q13.4-3.9 14.9 14.8q-11.2-9.9-26-2z" />
	<path id="Layer" class="s0" d="m36.4 37.3c-2.5 3.1-6.9-1.8-6.1-4.3c0.7-1.9 4.3-2 5.4-1.1c1 0.7 1.8 4 0.7 5.4z" />
	<path id="Layer" class="s1" d="m33.7 34.8q-0.1 1 0.8 1.9c-0.8-0.1-2.7-1.2-2.7-3.2q0-1.3 2.7-0.3q-0.6 0.5-0.8 1.6z" />
	<path id="Layer" class="s0" d="m32.8 75.8q-7.9 21.1-9.1 25.2c-1.1 4.1-12.7 7.6-11.6 0.5c4.4-27.7 14.2-45.3 17.8-44.2q6.7 2.1 2.9 18.5z" />
	<path id="Layer" class="s6" d="m36.3 74.8l-4 6q-1.3-3.3-13.9-9.7q4.4-11 11.9-15.8q7.4 7.9 6 19.5z" />
	<path id="Layer" class="s0" d="m20.2 96q3.9-0.4 22.9 10.2l-2 4q-20.6-2.1-24-3.1c-4.2-1.4-5.4-2.9-5-4.5c1-3.7 4.1-6.2 8.1-6.6z" />
	<path id="Layer" class="s8" d="m63.6 65.7q-5.5-6.4-7.9-7.9q6.1 4 8.6 7.2z" />
	<path id="Layer" class="s0" d="m110.1 90.1c-1.5 0.5-2.4 1.8-4 1.2c-0.2-0.1-0.3-0.3-0.3-0.5c-0.2-0.1-0.3-0.4-0.1-0.6c1.1-0.9 2.3-2 3.7-2.4c1.4-0.4 3.1 0.2 4.5 0.5c0.3 0 0.4 0.4 0.3 0.6c-0.9 1.8-2.7 0.8-4.1 1.2z" />
	<path id="Layer" class="s0" d="m47.9 102.5c1.1 0.5-0.1 2-1.3 1.7c-0.6-0.2-1.6-0.5-2.3-0.1c-0.5 0.3-0.3 1.4-0.7 1.9c-0.7 0.8-1.9 0.8-3 0.8c-0.9-0.1-1-1.1-0.5-1.7c0.8-1.1 1.9-2.4 3.1-3.1c1.3-0.7 3.4-0.1 4.7 0.5z" />
	<path id="Layer" class="s0" d="m53.7 107.6c-1.1-0.6-2.1-1.8-3.4-1.8c-1.4 0.1-2.9 0.5-4.3 0.8c-0.5 0.1-0.7-0.2-0.8-0.5c-0.4-0.4-5.4-0.4-4.8-0.6c1.6-0.5 8.5-2.2 10.2-2.2c1.8 0 4 2.3 4.5 3.4c0.2 0.3-0.8 1.1-1.4 0.9z" />
	<path id="Layer" class="s0" d="m51.3 112.1c-1.1-0.6-2-1.9-3.3-2c-1.4 0-3.6-0.6-5-0.5c-0.4 0.1-0.6-1.6 0.1-1.7c1.6-0.4 3.7-0.4 5.4-0.2c1.8 0.1 3.5 2.3 4.3 3.7c0.2 0.4-1 1-1.5 0.7z" />
	<path id="Layer" class="s0" d="m48.5 112.6c-0.9-0.8-1.5-2.3-2.8-2.6c-1.4-0.3-2.9-0.3-4.4-0.5c-0.4-0.1-0.6-0.4-0.6-0.7c-0.2-0.4-0.1-1.1 0.6-1.1c1.7-0.1 3.9-0.5 5.5 0c1.7 0.6 3 3.3 3.1 4.6c0 0.4-0.9 0.8-1.4 0.3z" />
	<path id="Layer" class="s0" d="m52.9 110.6c-1-0.7-1.7-2.1-3-2.3c-1.5-0.2-3 0-4.5 0c-0.4 0-0.6-0.3-0.6-0.6c-0.4-0.4-0.3-1.1 0.3-1.2c1.7-0.2 3.9-0.9 5.6-0.6c1.7 0.4 3.6 3.2 3.8 4.2c0 0.3-1 0.9-1.6 0.5z" />
	<path id="Layer" class="s0" d="m40.4 105.5l6.4-1.3l0.8 2.2q-0.8 2.5-2.1 3.5q-2 1.7-6-0.3z" />
	<path id="Layer" class="s6" d="m56.8 11.9q-9.3 6.9-30.2 6.3l-5.6-11.7q11.2 4.4 36-5.3q1.1 5.1-0.2 10.7z" />
	<path id="Layer" class="s8" d="m57 1.2q-18.2 10.2-36 5.3q17.7-9.3 36-5.3z" />
</svg>