<svg version="1.2" xmlns="http://www.w3.org/2000/svg" viewBox="0 0 43 61" width="250" height="355">
	<title>image</title>
	<style>
		.s0 { fill: #352c2d } 
		.s1 { fill: #ffa44a } 
		.s2 { fill: #ffa47f } 
		.s3 { fill: #ffc17d } 
		.s4 { fill: #584441 } 
	</style>
	<path id="Layer" class="s0" d="m36.8 10.5l4.2-5.7h0.1l-4.2 5.7z" />
	<path id="Layer" class="s0" d="m38.1 10.8l4.8-3.8l0.1 0.1l-4.8 3.7z" />
	<path id="Layer" class="s1" d="m27.5 7.2q0.3-3.3 0.5-6.7c0-0.4 0.5-0.7 0.9-0.3c1.9 1.8 3.9 4.4 4.5 6.9c0.7 2.6-4.1 1-5.3 0.6q0 0-0.1 0c-0.3-0.1-0.5-0.1-0.5-0.5z" />
	<path id="Layer" class="s1" d="m15.9 7.3c1-0.2 2.2 0.1 3.2 0.3q2.1 0.2 4.2 0.7c0.2 0 0.4 0.2 0.4 0.3c0.2 0.1 0.5 0.4 0.3 0.8q-1.5 2.4-2.5 5.1c0 0.3-0.5 0.4-0.9 0.1q-1.7-1.5-3.1-3.3c-0.7-1-1.8-2.4-1.9-3.6c0-0.1 0.1-0.4 0.3-0.4z" />
	<path id="Layer" class="s1" d="m29.3 49.1q7.3 9.4 3.9 10q-3.4 0.5-21.1-0.4q13.5-9.3 17.2-9.6z" />
	<path id="Layer" class="s2" d="m28.8 5.3q0-1.3 0.1-2.5c0-0.4 0.6-0.6 0.9-0.3c1.2 1.1 2 2.8 2.6 4.2q0.1 0.1 0.2 0.1c0.3 0.2 0.3 0.5 0.2 0.8c0 0.4-0.8 0.7-0.9 0.2q-0.1-0.1-0.1-0.1c-1 0-2.5 0-2.9-0.7c-0.2-0.5-0.1-1.3-0.1-1.7z" />
	<path id="Layer" class="s2" d="m18.1 8.7c1.9 0.6 3.9 0.4 5.8 0.9c0.4 0.2 0.4 0.6 0.1 0.8c0.1 0.2 0.1 0.4 0 0.4q-0.5 1-1.3 1.9c-0.1 0.2-0.4 0.3-0.6 0.2c-1.7-1-3.4-2-4.6-3.4c-0.2-0.4 0.2-0.9 0.6-0.8z" />
	<path id="Layer" class="s1" d="m6.2 46.6c1.4-2.8 3.7-4.2 6-6.2c2.7-2.4 5.1-5 7.1-7.8c2.2-3.2 4.5-6.8 5-10.4c-2.3-0.9-4.2-2.2-5.7-4c-0.2-0.2-0.1-0.4 0-0.5c1.8-3.4 1.6-7.6 5.5-9.9c4-2.2 8.9-0.7 12.8 0.7c0.2 0 0.3 0.2 0.4 0.4c1.2 1 1.7 2.8 1.7 4.2q0 0.1 0 0.1q0 0.1 0 0.3c-0.2 3-2.5 5.3-4.9 7.4q0.1 0.1 0.1 0.2q0 1.4 0.1 2.6c0 5.1 0.8 10.2 0 15.3c-0.7 4.2-2.5 8.3-5.1 11.8q-0.6 0.9-1.2 1.7c-2.8 3.3-6.5 6.7-11.3 7.1c-3.8 0.1-10.3 0.5-12.2-1c-0.4-1.3-0.4-3.1-0.4-3.3c0.1-3 0.7-5.9 2.1-8.7z" />
	<path id="Layer" class="s3" d="m31.1 12.4c0.9-2.1 4.2-3.8 6.7-3.4c0.2 0 0.4-0.1 0.6 0c1 0.5 1.9 1.3 1.9 2.3c0 0.9-0.5 1.7-1.4 1.9c-0.2 0-0.5-0.1-0.6 0c-0.4 0.2-0.1 0-0.3 0.4c-0.2 0.5-0.2 0.8-0.6 1.3c-0.8 0.8-1.9 1.2-3.1 1.2c-2.5 0-4.1-1.5-3.2-3.7z" />
	<path id="Layer" class="s4" d="m35.6 9.9c-0.1-0.7 0.4-1.2 1-1.6q0-0.2 0.2-0.2q0.3-0.2 0.6 0c0.4-0.1 0.7 0 0.9 0.4c0.1 0.4 0.1 0.8 0.1 1.1c0 0.5 0 0.9-0.2 1.3c-0.1 0.2-0.3 0.3-0.4 0.3c-0.4 0-0.9-0.1-1.3-0.4c-0.5-0.1-0.9-0.4-0.9-0.9z" />
	<path id="Layer" class="s1" d="m28.5 36.2c-0.1-0.2-1.5-4 2.1-4.2c0.4 0 4.4-0.2 3.6 3c-0.9 3.3 0.1 14.6 0.5 17.9c0.1 1.6 0.3 2.8 1.3 4.1c0.4 0.5 0.7 0.8 0.6 1.5c-0.2 1.8-3.7 1.3-5 1.4c-0.2 0-0.4-0.1-0.5-0.2c-0.1 0-0.2-0.1-0.3-0.3c-1.9-7.6-2.6-15.4-2.3-23.2z" />
	<path id="Layer" class="s0" d="m29.6 8.5c0.7 0 1.2 0.5 1.2 1.1c0 0.7-0.5 1.1-1.2 1.1c-0.7 0-1.1-0.4-1.1-1.1c0-0.6 0.4-1.1 1.1-1.1z" />
	<path id="Layer" class="s0" d="m33.1 6.7c0.7 0 1.2 0.4 1.2 1c0 0.6-0.5 1.1-1.2 1.1c-0.7 0-1.2-0.5-1.2-1.1c0-0.6 0.5-1 1.2-1z" />
	<path id="Layer" class="s1" d="m3 42.3c1.3-2 2.7-3.9 3.4-6.1c0.9-2.6 0.9-5.2 0.2-7.8c-0.3-1.9-3.2-6.8-1.1-8.6c2.3-2 4.3 2.3 4.9 3.6c1.6 3.5 1.8 7.3 0.6 11c-1.3 3.8-3.9 7-6.1 10.4c-1.2 1.8-2.3 3.8-2.9 6c-0.7 3.2 0.3 5.3 3.4 7c0.4 0.3 0.3 0.6 0 0.9c-0.1 0-0.2 0.2-0.4 0.1c-7.7-2.6-5-11.8-2-16.5z" />
	<path id="Layer" class="s3" d="m24.1 36.2c0.5-2.6 1.3-5.3 3.1-7.4c1.7-2.2 4.4-3.6 7-4.9q0-0.1 0.1-0.2c0 5.1 0.8 10.2 0 15.3c-0.7 4.2-2.5 8.3-5.1 11.8q-0.5 0-0.9-0.4c-2.1-1.3-3.2-4.2-3.8-6.2c-0.7-2.6-0.8-5.4-0.4-8z" />
	<path id="Layer" class="s3" d="m20.6 36.7c-0.1-0.3-0.1-0.4 0.2-0.6c3-1.7 6.4-2.7 10-2.9c0.4 0 0.5 0.5 0.3 0.8q0 0.1-0.1 0.2c-1.4 3.1-2.9 6.2-3.7 9.4c-0.9 3.3-0.8 6.5-0.5 9.7c0.2 1.7 0.4 2.8 1.4 4.2c0.3 0.4 0.7 0.8 0.6 1.4c-0.3 1.8-3.8 1.4-5 1.5c-0.2 0-0.4-0.1-0.5-0.2c-0.1-0.1-0.2-0.1-0.3-0.3c-1.9-7.7-2.7-15.4-2.4-23.2z" />
	<path id="Layer" class="s0" d="m25.1 14.7l8.3-2.9l0.1 0.1l-8.3 2.9z" />
	<path id="Layer" class="s0" d="m27.5 17.8l7.1-4.7l0.1 0.1l-7.2 4.6z" />
	<path id="Layer" class="s0" d="m33.4 18.4l2.1-4.6h0.1l-2.1 4.7z" />
	<path id="Layer" class="s1" d="m27.3 36.3c0-0.6 1.1-0.4 1 0.2c-1.2 5.7-1.5 12.4-0.2 18.1c0.2 0.6-0.8 0.8-1 0.3c-1.3-5.9-1-12.8 0.2-18.6z" />
	<path id="Layer" class="s1" d="m9.6 47.3c5.5-1.4 10.8 2.6 10 7.7c-0.1 0.6-1.1 0.6-1 0c0.6-4.5-3.8-8-8.7-6.8c-0.7 0.2-1-0.7-0.3-0.9z" />
</svg>