<svg version="1.2" xmlns="http://www.w3.org/2000/svg" viewBox="0 0 751 715" width="751" height="715"><defs><linearGradient id="P" gradientUnits="userSpaceOnUse"/><linearGradient id="g1" x1="805.6" y1="267.1" x2="111.2" y2="214.6" href="#P"><stop offset=".2" stop-color="#f9f9f9" stop-opacity=".4"/><stop offset=".6" stop-color="#fbd8e6" stop-opacity=".5"/><stop offset=".9" stop-color="#fbd9e7" stop-opacity=".1"/></linearGradient></defs><style>.s0{fill:url(#g1)}</style><path fill-rule="evenodd" class="s0" d="m333.6 709.4c-67.4-12.6-112.5-68.2-168.8-106.6c-57.8-39.5-167.6-52.5-164.7-121.4c3.2-79.4 160.7-78.1 176.1-156.1c19.6-99.2-157.9-206.8-89.5-282.5c61.3-67.7 297.9-45.1 378.6-1c40.3 22 84.4 47.2 123.4 71.3c43.4 26.9 78.3 42.8 116.3 76.7c68.4 60.7 41.4 225.3 37.4 315.5c-3.7 85-108 132-185.5 170.7c-68.8 34.3-147.5 47.6-223.3 33.4z" /></svg>