<svg version="1.2" xmlns="http://www.w3.org/2000/svg" viewBox="0 0 45 22" width="45" height="22">
	<title>image</title>
	<style>
		.s0 { fill: #ffc17d } 
		.s1 { fill: #9f4424 } 
		.s2 { fill: #412014 } 
		.s3 { fill: #ffa44a } 
	</style>
	<path id="Layer" class="s0" d="m27.8 19.5c-0.6 0.6-2 0.2-2.7 0.1c-1.4-0.2-3.9-0.1-5.3-0.5c-0.4-0.2 0.6-1.2 0.8-1.5q-0.2-0.2-0.2-0.4c-0.2-0.6 0.7-1.2 1.2-1.4c1-0.4 2.4 0.2 3.4 0.4c0.9 0.2 2.8 0.1 3.2 1c0.4 0.6 0.1 1.9-0.4 2.3z" />
	<path id="Layer" class="s0" d="m39 19.5c-0.6 0.6-1.9 0.2-2.7 0.1c-1.4-0.2-3.9-0.1-5.2-0.5c-0.5-0.2-4-2.4-3.8-2.7c-0.1-0.1 4.3 1 4.3 0.8c-0.2-0.6 0.7-1.2 1.2-1.4c1-0.4 2.4 0.2 3.4 0.4c0.9 0.2 2.8 0.1 3.3 1c0.3 0.6 0 1.9-0.5 2.3z" />
	<path id="Layer" class="s0" d="m29 14.2c-1.7 2.9-4 3.1-7.1 3.4c-4.2 0.4-8.4 2.9-12.7 2.2c-2.6-0.4-7.2 0.9-8.4-1.9c-1-2.5-1.5-5.8 1.7-11.7c1.6-3 6.3-4.9 9.3-5.5c6.4-1.4 14.7-1 18.7 5q0.1 0 0.2 0.2c1.4 2.6-0.3 5.9-1.7 8.3z" />
	<path id="Layer" class="s1" d="m36 18.4c-3.6 0.1-11.7 0.2-12.2-4.9q-0.2-1.4 0.3-2.7c0.6-2.5 3.2-4.4 5.6-5.6q0.2-0.1 0.4 0c2.7-1 5.2-1.4 7.8 0.1c2.2 1.2 4.5 3.1 5.5 5.4c2.6 5.6-3 7.6-7.4 7.7z" />
	<path id="Layer" class="s1" d="m31.6 5.7l-5.1 2.9q-1-3.7 2.1-6.9q2.5 1.5 3 4z" />
	<path id="Layer" class="s1" d="m36.7 5.2q1.8-1.8 5-2.5q0.6 3.4-0.5 5.6q-1.1 2.2-4.5-3.1z" />
	<path id="Layer" class="s0" d="m36.8 18.4c-3.7 0.1-11.7 0.2-12.3-4.9c-0.1-0.9 0.1-1.8 0.4-2.7c0.3-1.1 0.9-2.1 1.7-2.9c1.1-1.1 2.5-2 3.9-2.7q0.2-0.1 0.4 0c2.7-1 5.2-1.4 7.8 0.1c2.1 1.2 4.4 3.1 5.5 5.4c2.5 5.6-3 7.6-7.4 7.7z" />
	<path id="Layer" class="s2" d="m33 10c-1 1-2.7 1.3-3.6 0c-0.3-0.4 0.4-0.8 0.7-0.4c0.6 0.8 1.7 0.4 2.3-0.2c0.4-0.3 1 0.2 0.6 0.6z" />
	<path id="Layer" class="s2" d="m39.6 10c-1.1 1-2.7 1.3-3.7 0c-0.3-0.4 0.4-0.8 0.8-0.4c0.6 0.8 1.7 0.4 2.3-0.2c0.4-0.3 1 0.2 0.6 0.6z" />
	<path id="Layer" class="s3" d="m35.3 17.2c-1.4 0.1-4.1 0-4.5-1.8c-0.4-1.6 2.3-2.9 3.5-3.1q0.2-0.1 0.3 0c1.5-0.2 3.4 0.4 3.7 1.9c0.3 1.8-1.5 2.8-3 3z" />
	<path id="Layer" class="s2" d="m34.7 13.4q-1.9-1.2 0.1-1.3q2-0.2-0.1 1.3z" />
	<path id="Layer" class="s3" d="m30.2 19.6c-0.7 0.3-1.7 0.2-2.4 0.2c-0.5 0-1 0-1.2-0.3c-0.2-0.1-0.4-0.3-0.3-0.6c0.5-1.3 1.8-2.1 3.2-1.8c0.6 0.2 1.3 0.6 1.4 1.2c0.1 0.6-0.2 1.1-0.7 1.3z" />
	<path id="Layer" class="s3" d="m41.3 19.6c-0.7 0.3-1.7 0.2-2.4 0.2c-0.5 0-1 0-1.2-0.3c-0.2-0.1-0.4-0.3-0.3-0.6c0.5-1.3 1.8-2.1 3.2-1.8c0.6 0.2 1.3 0.6 1.4 1.2c0.1 0.6-0.2 1.1-0.7 1.3z" />
	<path id="Layer" class="s1" d="m18.5 19.7c-5.1 2.1-11.6 1.6-16.6-0.4c-0.5-0.1-1.2-1-0.9-1.2c0-0.2 8.4 0.5 12.1-0.3c2.6-0.6 5.7-3 4.7-6.1c-0.3-1.1-1.4-1.9-1.5-3.1c-0.2-3.7 5-1.6 5.9 0.4c1.9 3.7 0.1 9.1-3.7 10.7z" />
</svg>