<svg version="1.2" xmlns="http://www.w3.org/2000/svg" viewBox="0 0 1920 1054" width="1920" height="1054">
	<title>image</title>
	<style>
		.s0 { opacity: .8;fill: #ebeefb } 
		.s1 { fill: #fefbf6 } 
		.s2 { fill: none;stroke: #fdefde;stroke-width: 3 } 
	</style>
	<path id="Layer" class="s0" d="m134 287c406.5-317 976.9-276.5 1403-43.4z" />
	<path id="Layer" fill-rule="evenodd" class="s1" d="m1918.9 668.8l-72.1-0.2c-72.2-0.2-216.5-0.6-360.9-1q-216.5-0.6-432.9-1.2q-216.5-0.6-433-1.3q-216.5-0.6-433-1.2c-144.3-0.4-288.7-0.8-360.8-1l-72.2-0.2l2.1-510.5l-2.1-80.5c71.9 56.3 169.8 113.7 314 142.2c144.3 28.4 362.9 111 507.6 12.5c144.8-98.4 334.7-196.3 477.4-213.1c265-31.2 295.1 0 511.2 58.4c254 68.7 282.6 73.1 355.8 73.1v268.7z" />
	<path id="Layer" fill-rule="evenodd" class="s1" d="m-39 662h66.6c66.6 0 199.8 0 333 0q199.8 0 399.6 0q199.8 0 399.6 0q199.8 0 399.6 0c133.2 0 266.4 0 333 0h66.6v294.4l-66.6-33.2c-66.6-32.3-199.8-97.8-333-114c-133.2-16.2-266.4 16.2-399.6 73.2c-133.2 57-266.4 138.7-399.6 122.5c-133.2-16.1-266.4-130.2-399.6-179.5c-133.2-49.4-266.4-32.4-333-24.7l-66.6 8.5z" />
	<path id="Layer" class="s2" d="m-165 660.9l90.2-16.8c90.3-15.2 270.7-48.8 451.2 48.8c180.5 97.6 360.9 323 541.4 355c180.5 32 360.9-129.6 541.4-242.3c180.5-112.7 360.9-176.7 541.4-144.7c180.5 32 360.9 161.5 451.2 225.5l90.2 65.6" />
</svg>