<svg version="1.2" xmlns="http://www.w3.org/2000/svg" viewBox="0 0 24 24" width="24" height="24"><style>.s0{fill:#605bff}</style><g style="opacity: .7"><path fill-rule="evenodd" class="s0" d="m17.4 0.9v0.9c3.6 0.3 6 2.5 6 5.9v10c0 3.7-2.6 6-6.7 6h-10c-4.1 0.1-6.7-2.3-6.7-6v-9.9c0-3.5 2.3-5.7 5.9-6l-0.1-0.9c0-0.5 0.5-0.9 1-0.9c0.6 0 1 0.4 1 0.9v0.9l7.6-0.1v-0.8c0-0.5 0.5-0.9 1-0.9c0.6 0 1 0.4 1 0.9zm-15.4 7.2h19.4v-0.4c-0.1-2.5-1.5-3.9-4-4.1v0.9c0 0.5-0.4 0.9-1 0.9c-0.5 0-1-0.4-1-0.9v-0.9h-7.6v0.9c0 0.6-0.4 1-1 1c-0.5 0-0.9-0.4-0.9-1v-0.9c-2.5 0.3-3.9 1.6-3.9 4.2zm13.9 5.4c0 0.5 0.5 0.9 1.1 0.9c0.6 0 1-0.4 1-1c0-0.5-0.5-0.9-1.1-0.9c-0.5 0-1 0.4-1 1zm2.1 4.3c0-0.6-0.5-1-1.1-1c-0.6 0-1 0.4-1 1c0 0.5 0.5 1 1 1c0.6 0 1.1-0.5 1.1-1zm-7.4-4.3c0 0.5 0.5 1 1.1 0.9c0.6 0 1-0.4 1-1c0-0.5-0.5-0.9-1-0.9c-0.6 0-1.1 0.4-1.1 1zm2.1 4.2c0-0.5-0.5-0.9-1-0.9c-0.6 0-1.1 0.5-1.1 1c0 0.5 0.5 1 1.1 0.9c0.6 0 1.1-0.4 1-1zm-7.4-4.2c0.1 0.6 0.5 1 1.1 1c0.6 0 1.1-0.5 1-1c0-0.6-0.4-1-1-1c-0.6 0-1.1 0.5-1.1 1zm2.1 4.2c0-0.5-0.4-0.9-1-0.9c-0.6 0-1.1 0.5-1.1 1c0.1 0.6 0.5 1 1.1 1c0.6-0.1 1.1-0.5 1-1.1z" /></g></svg>