<svg version="1.2" xmlns="http://www.w3.org/2000/svg" viewBox="0 0 348 51" width="348" height="51">
	<title>image</title>
	<style>
		.s0 { fill: #8e8bfe } 
		.s1 { opacity: .3;fill: #e6e1fe } 
		.s2 { fill: #ffffff } 
	</style>
	<path id="Layer" class="s0" d="m343 26.4c0 8.6-7.1 15.5-16 15.5c-8.8 0-16-6.9-16-15.5c0-8.5 7.2-15.5 16-15.5c8.9 0 16 7 16 15.5z" />
	<path id="Layer" class="s1" d="m341 26.4c0 7.4-6.3 13.5-14 13.5c-7.8 0-14-6.1-14-13.5c0-7.5 6.2-13.5 14-13.5c7.7 0 14 6 14 13.5z" />
	<path id="Layer" class="s2" d="m333.3 32.9q-0.3 0-0.6-0.2l-6.5-5.9c-0.2-0.2-0.3-0.5-0.1-0.8l3.8-5.8c0.2-0.3 0.6-0.4 0.9-0.2c0.3 0.2 0.5 0.6 0.2 0.9l-3.4 5.4l6.2 5.5c0.3 0.3 0.3 0.7 0 0.9c-0.2 0.1-0.4 0.2-0.5 0.2z" />
	<path id="Layer" class="s2" d="m329 26.4c0 0.8-0.9 1.5-2 1.5c-1.1 0-2-0.7-2-1.5c0-0.8 0.9-1.5 2-1.5c1.1 0 2 0.7 2 1.5z" />
	<path id="Layer" class="s2" d="m339 26.4c0 0.3-0.3 0.5-0.5 0.5c-0.3 0-0.5-0.2-0.5-0.5c0-0.2 0.2-0.5 0.5-0.5c0.3 0 0.5 0.3 0.5 0.5z" />
	<path id="Layer" class="s2" d="m328 37.9c0 0.5-0.4 1-1 1c-0.5 0-1-0.5-1-1c0-0.6 0.5-1 1-1c0.6 0 1 0.4 1 1z" />
	<path id="Layer" class="s2" d="m336.1 21.4c-0.2-0.5-0.1-1 0.4-1.4c0.5-0.2 1-0.1 1.4 0.4c0.2 0.5 0.1 1.1-0.4 1.4c-0.5 0.2-1.1 0.1-1.4-0.4z" />
	<path id="Layer" class="s2" d="m317.9 31.4c0.2 0.5 0.1 1.1-0.4 1.3c-0.5 0.4-1.1 0.2-1.3-0.3c-0.4-0.5-0.2-1.1 0.3-1.3c0.5-0.4 1.1-0.2 1.4 0.3z" />
	<path id="Layer" class="s2" d="m333.8 35.4c0.4 0.5 0.2 1.1-0.3 1.4c-0.5 0.2-1.1 0.1-1.3-0.4c-0.4-0.5-0.2-1.1 0.3-1.4c0.5-0.2 1.1-0.1 1.3 0.4z" />
	<path id="Layer" class="s2" d="m333.8 17.4c-0.2 0.5-0.8 0.6-1.3 0.4c-0.5-0.3-0.7-0.9-0.3-1.4c0.2-0.5 0.8-0.6 1.3-0.4c0.5 0.3 0.7 0.9 0.3 1.4z" />
	<path id="Layer" class="s2" d="m321.9 36.4c-0.3 0.5-0.9 0.6-1.4 0.4c-0.5-0.3-0.6-0.9-0.4-1.4c0.3-0.5 0.9-0.6 1.4-0.4c0.5 0.3 0.6 0.9 0.4 1.4z" />
	<path id="Layer" class="s2" d="m337.9 32.4c-0.4 0.5-0.9 0.7-1.4 0.3c-0.5-0.2-0.6-0.8-0.4-1.3c0.3-0.5 0.9-0.7 1.4-0.3c0.5 0.2 0.6 0.8 0.4 1.3z" />
</svg>