<svg version="1.2" xmlns="http://www.w3.org/2000/svg" viewBox="0 0 304 236" width="304" height="236">
	<title>image</title>
	<style>
		.s0 { fill: #ffffff } 
		.s1 { fill: #635dad } 
		.s2 { fill: #412014 } 
		.s3 { fill: #584441 } 
		.s4 { fill: #d1e2ee } 
		.s5 { fill: #ffa44a } 
		.s6 { fill: #ff765f } 
		.s7 { fill: #352c2d } 
		.s8 { fill: #ffa47f } 
		.s9 { fill: #ffc17d } 
		.s10 { fill: #9f4424 } 
		.s11 { fill: #f27049 } 
		.s12 { fill: #443e90 } 
		.s13 { fill: #f1543b } 
		.s14 { fill: #7c5042 } 
		.s15 { opacity: .3;fill: #ffffff } 
		.s16 { fill: #ffdebe } 
		.s17 { opacity: .8;fill: #ffffff } 
	</style>
	<path id="Layer" class="s0" d="m192.9 121.2h-141.8c0-4.5 3.7-8.1 8.2-8.1h125.4c4.5 0 8.2 3.6 8.2 8.1z" />
	<path id="Layer" class="s1" d="m193.9 125.1h-143.4l-0.1-7.8h145.1z" />
	<path id="Layer" class="s1" d="m108.5 179.9h-3.5l-28.9-62.6h3.4z" />
	<path id="Layer" class="s1" d="m144.8 179.9h-3.4l-29-62.6h3.5z" />
	<path id="Layer" fill-rule="evenodd" class="s1" d="m164.8 183.5v35.5c0 3.1-2.5 5.7-5.6 5.7h-103.1c-3.1 0-5.7-2.6-5.7-5.7v-101.7h3.5v60.6h105.2c3.1 0 5.7 2.5 5.7 5.6zm-110.9 33.5c0 2 1.6 3.6 3.6 3.6h100.2c2 0 3.6-1.6 3.6-3.6v-31.5c0-2-1.6-3.6-3.6-3.6h-103.8z" />
	<path id="Layer" class="s2" d="m63.3 229c0 3.6-2.9 6.5-6.4 6.5c-3.6 0-6.5-2.9-6.5-6.5c0-3.5 2.9-6.4 6.5-6.4c3.5 0 6.4 2.9 6.4 6.4z" />
	<path id="Layer" class="s3" d="m60.7 229c0 2.2-1.7 3.9-3.8 3.9c-2.2 0-3.9-1.7-3.9-3.9c0-2.1 1.7-3.8 3.9-3.8c2.1 0 3.8 1.7 3.8 3.8z" />
	<path id="Layer" class="s2" d="m86.1 229c0 3.6-2.9 6.5-6.4 6.5c-3.6 0-6.5-2.9-6.5-6.5c0-3.5 2.9-6.4 6.5-6.4c3.5 0 6.4 2.9 6.4 6.4z" />
	<path id="Layer" class="s3" d="m83.5 229c0 2.2-1.7 3.9-3.8 3.9c-2.2 0-3.9-1.7-3.9-3.9c0-2.1 1.7-3.8 3.9-3.8c2.1 0 3.8 1.7 3.8 3.8z" />
	<path id="Layer" class="s2" d="m142.1 229c0 3.6-2.9 6.5-6.5 6.5c-3.5 0-6.4-2.9-6.4-6.5c0-3.5 2.9-6.4 6.4-6.4c3.6 0 6.5 2.9 6.5 6.4z" />
	<path id="Layer" class="s3" d="m139.5 229c0 2.2-1.7 3.9-3.9 3.9c-2.1 0-3.8-1.7-3.8-3.9c0-2.1 1.7-3.8 3.8-3.8c2.2 0 3.9 1.7 3.9 3.8z" />
	<path id="Layer" class="s2" d="m164.8 229c0 3.6-2.8 6.5-6.4 6.5c-3.5 0-6.4-2.9-6.4-6.5c0-3.5 2.9-6.4 6.4-6.4c3.6 0 6.4 2.9 6.4 6.4z" />
	<path id="Layer" class="s3" d="m162.3 229c0 2.2-1.7 3.9-3.9 3.9c-2.1 0-3.9-1.7-3.9-3.9c0-2.1 1.8-3.8 3.9-3.8c2.2 0 3.9 1.7 3.9 3.8z" />
	<path id="Layer" class="s1" d="m64.1 125.1h-38.1v-7.8h38.1z" />
	<path id="Layer" class="s1" d="m28.5 125.1h-5.1l-4.8-36.5h5.1z" />
	<path id="Layer" class="s4" d="m42.5 111.6h-41.3c-0.6 0-1.2-0.5-1.2-1.2v-41.5c0-0.7 0.6-1.2 1.2-1.2h41.3c0.6 0 1.2 0.5 1.2 1.2v41.5c0 0.7-0.6 1.2-1.2 1.2z" />
	<path id="Layer" class="s0" d="m48.3 111.6h-41.2c-0.6 0-1.2-0.5-1.2-1.2v-41.5c0-0.7 0.6-1.2 1.2-1.2h41.2c0.7 0 1.2 0.5 1.2 1.2v41.5c0 0.7-0.5 1.2-1.2 1.2z" />
	<path id="Layer" class="s2" d="m42.9 102.8h-30.4c-1.6 0-3-1.4-3-3v-25.9c0-1.7 1.4-3 3-3h30.4c1.7 0 3 1.3 3 3v25.9c0 1.6-1.3 3-3 3z" />
	<path id="Layer" class="s5" d="m12 109.1c-1 0-1.8-0.8-1.8-1.8c0-1 0.8-1.8 1.8-1.8c1.1 0 1.9 0.8 1.9 1.8c0 1-0.8 1.8-1.9 1.8z" />
	<path id="Layer" class="s6" d="m18 109.1c-1 0-1.8-0.8-1.8-1.8c0-1 0.8-1.8 1.8-1.8c1 0 1.8 0.8 1.8 1.8c0 1-0.8 1.8-1.8 1.8z" />
	<path id="Layer" class="s6" d="m34.3 109.1c-1 0-1.8-0.8-1.8-1.8c0-1 0.8-1.8 1.8-1.8c1 0 1.8 0.8 1.8 1.8c0 1-0.8 1.8-1.8 1.8z" />
	<path id="Layer" class="s4" d="m25.8 102.8h-6l-5.9-31.9h5.9z" />
	<path id="Layer" class="s4" d="m33.2 102.8h-2.9l-6-31.9h3z" />
	<path id="Layer" class="s7" d="m139.3 53.7l4.5-7h0.1l-4.5 7z" />
	<path id="Layer" class="s7" d="m140.7 54l5.2-4.6l0.1 0.1l-5.2 4.6z" />
	<path id="Layer" class="s5" d="m129.2 49.7q0.3-4.1 0.5-8.2c0-0.5 0.6-0.8 1-0.4c2 2.3 4.2 5.4 4.9 8.5c0.7 3.1-4.5 1.2-5.8 0.7q0 0-0.1 0c-0.3-0.1-0.5-0.2-0.5-0.6z" />
	<path id="Layer" class="s5" d="m116.6 49.8c1-0.3 2.4 0.1 3.4 0.3q2.3 0.3 4.6 0.9c0.2 0 0.4 0.2 0.4 0.4c0.3 0.1 0.6 0.4 0.4 0.9q-1.7 2.9-2.7 6.2c-0.1 0.4-0.6 0.5-1 0.2q-1.9-1.9-3.4-4.1c-0.8-1.2-2-2.9-2.1-4.3c0-0.2 0.2-0.5 0.4-0.5z" />
	<path id="Layer" class="s5" d="m131.1 100.6q7.9 11.4 4.3 12.1q-3.7 0.7-23-0.5q14.7-11.2 18.7-11.6z" />
	<path id="Layer" class="s8" d="m130.6 47.3q0-1.5 0.1-3c0-0.5 0.6-0.7 1-0.4c1.3 1.4 2.1 3.4 2.8 5.2q0.1 0.1 0.2 0.1c0.3 0.2 0.3 0.6 0.2 0.9c0 0.5-0.8 0.9-1 0.3q-0.1-0.1-0.1-0.1c-1.1 0-2.7 0-3.1-0.9c-0.2-0.6-0.1-1.5-0.1-2.1z" />
	<path id="Layer" class="s8" d="m119 51.5c2 0.7 4.2 0.5 6.2 1.1c0.5 0.2 0.5 0.7 0.2 1c0.1 0.2 0.1 0.4 0 0.5q-0.6 1.2-1.4 2.3c-0.2 0.2-0.5 0.3-0.7 0.2c-1.9-1.2-3.7-2.4-5-4.2c-0.2-0.4 0.2-1 0.7-0.9z" />
	<path id="Layer" class="s5" d="m106 97.6c1.5-3.4 4-5.2 6.5-7.6c3-2.9 5.6-6.1 7.8-9.5c2.4-3.8 4.9-8.2 5.4-12.6c-2.5-1.1-4.6-2.7-6.2-4.9c-0.2-0.2-0.1-0.4 0-0.6c2-4.1 1.7-9.2 6-12c4.3-2.7 9.6-0.9 13.9 0.8c0.2 0.1 0.3 0.3 0.4 0.5c1.3 1.2 1.9 3.4 1.9 5.1q0 0.1 0 0.2q0 0.1 0 0.3c-0.3 3.7-2.8 6.5-5.4 9q0.1 0.1 0.1 0.3q0 1.6 0.1 3.1c0.1 6.2 0.9 12.4 0 18.6c-0.7 5.1-2.7 10.1-5.5 14.4q-0.6 1-1.3 2c-3 4-7 8.2-12.3 8.6c-4.1 0.2-11.1 0.6-13.2-1.2c-0.4-1.5-0.4-3.7-0.4-4c0.1-3.6 0.7-7.2 2.2-10.5z" />
	<path id="Layer" class="s9" d="m133.1 56c1-2.6 4.5-4.6 7.3-4.1c0.2-0.1 0.4-0.2 0.6-0.1c1.1 0.7 2.1 1.6 2.1 2.9c0 1-0.6 2-1.6 2.2c-0.2 0-0.5-0.1-0.6 0c-0.4 0.3-0.1 0-0.3 0.6c-0.2 0.5-0.3 0.9-0.7 1.5c-0.8 1-2.1 1.5-3.4 1.5c-2.7 0-4.4-1.8-3.4-4.5z" />
	<path id="Layer" class="s3" d="m138 52.9c-0.1-0.8 0.4-1.4 1-1.9q0.1-0.2 0.3-0.3q0.3-0.2 0.6 0c0.4-0.1 0.8 0.1 1 0.6c0.1 0.4 0.1 0.9 0.1 1.3c0 0.6 0 1.1-0.2 1.6c-0.1 0.2-0.3 0.3-0.5 0.3c-0.4 0-0.9-0.1-1.4-0.4c-0.5-0.2-0.9-0.6-0.9-1.2z" />
	<path id="Layer" class="s5" d="m130.2 84.9c-0.1-0.2-1.6-4.9 2.3-5.1c0.5 0 4.8-0.3 3.9 3.7c-0.9 3.9 0.2 17.7 0.6 21.7c0.1 1.9 0.3 3.4 1.4 5c0.4 0.6 0.8 1 0.7 1.8c-0.3 2.2-4.1 1.6-5.5 1.7c-0.2 0-0.4-0.1-0.5-0.2c-0.1 0-0.2-0.1-0.3-0.4c-2.1-9.2-2.9-18.7-2.6-28.2z" />
	<path id="Layer" class="s7" d="m131.5 51.3c0.7 0 1.3 0.6 1.3 1.3c0 0.8-0.6 1.3-1.3 1.3c-0.8 0-1.3-0.5-1.3-1.3c0-0.7 0.5-1.3 1.3-1.3z" />
	<path id="Layer" class="s7" d="m135.3 49c0.7 0 1.3 0.6 1.3 1.3c0 0.7-0.6 1.3-1.3 1.3c-0.8 0-1.4-0.6-1.4-1.3c0-0.7 0.6-1.3 1.4-1.3z" />
	<path id="Layer" class="s5" d="m102.6 92.3c1.4-2.4 2.9-4.7 3.7-7.4c0.9-3.1 0.9-6.3 0.2-9.5c-0.4-2.3-3.5-8.2-1.2-10.4c2.5-2.4 4.6 2.8 5.3 4.3c1.7 4.3 2 8.9 0.6 13.4c-1.4 4.6-4.2 8.5-6.6 12.6c-1.3 2.3-2.5 4.7-3.1 7.3c-0.8 3.9 0.3 6.5 3.7 8.6c0.4 0.3 0.3 0.7 0 1c-0.1 0.1-0.3 0.3-0.5 0.2c-8.3-3.2-5.4-14.4-2.1-20.1z" />
	<path id="Layer" class="s9" d="m125.5 84.9c0.5-3.1 1.4-6.4 3.3-9c1.9-2.7 4.8-4.4 7.6-6q0-0.1 0.1-0.2c0.1 6.2 0.9 12.4 0 18.6c-0.7 5.1-2.7 10.1-5.5 14.4q-0.5-0.1-1-0.5c-2.2-1.6-3.4-5.1-4.1-7.6c-0.8-3.1-0.9-6.5-0.4-9.7z" />
	<path id="Layer" class="s9" d="m121.7 85.5c-0.1-0.3-0.1-0.5 0.2-0.7c3.3-2.1 6.9-3.3 10.8-3.5c0.5 0 0.6 0.6 0.4 0.9q0 0.1-0.1 0.3c-1.6 3.7-3.2 7.5-4.1 11.4c-0.9 4-0.8 7.9-0.5 11.8c0.2 2 0.4 3.4 1.5 5.1c0.4 0.5 0.8 1 0.7 1.7c-0.3 2.2-4.1 1.7-5.5 1.8c-0.2 0-0.4-0.1-0.5-0.2c-0.1-0.1-0.2-0.2-0.3-0.4c-2.1-9.3-3-18.7-2.6-28.2z" />
	<path id="Layer" class="s7" d="m126.6 58.8l9-3.5l0.1 0.1l-9 3.5z" />
	<path id="Layer" class="s7" d="m129.2 62.5l7.7-5.7l0.1 0.1l-7.8 5.7z" />
	<path id="Layer" class="s7" d="m135.6 63.3l2.3-5.6h0.1l-2.3 5.7z" />
	<path id="Layer" class="s5" d="m128.9 85c0.1-0.7 1.2-0.4 1.1 0.3c-1.3 6.9-1.6 15.1-0.2 22c0.2 0.7-0.9 1-1.1 0.3c-1.4-7.1-1.1-15.5 0.2-22.6z" />
	<path id="Layer" class="s5" d="m109.7 98.4c6-1.7 11.7 3.1 10.9 9.4c-0.1 0.7-1.2 0.7-1.1 0c0.7-5.5-4.1-9.8-9.5-8.3c-0.7 0.2-1-0.9-0.3-1.1z" />
	<path id="Layer" class="s0" d="m200.9 56.7c0 0.5-5.6 2.2-5.7 1.8c-0.4-1.7-1.4-4.7-2.1-6.4c-0.2 0.2-0.4 0.4-0.8 0.3q-3.6-0.7-7.2-1.6c-1.3-0.3-2.9-0.5-3.8-1.6c-0.5-0.6-0.9-1.6-0.3-2.4q0.1-0.1 0.1-0.2c-1.1-1.1-2-2.4-1.1-3.9q0.1-0.2 0.3-0.3c-0.7-1-0.7-2.3 1-2.5c0.7 0 1.6 0.3 2.2 0.5c1.1 0.2 2.3 0.4 3.4 0.5c1.5 0.2 2.8 0.3 4.2 0.6q0.4 0 0.6 0c3.2 0 5.2 2.4 6.8 5.1c2.1 3.3 2.1 8 2.4 10.1z" />
	<path id="Layer" class="s4" d="m189.5 43.7q-0.3 2.4 2.7 3.9q-2.6-1-3-1.8q-0.6-1 0.3-2.1z" />
	<path id="Layer" class="s4" d="m193.4 52.9q5.7-1.7 6.6-2.6l0.5 2.3l-6.6 1.9z" />
	<path id="Layer" fill-rule="evenodd" class="s4" d="m260.8 48.3c-0.2-0.1-0.4-0.2-0.4-0.5c-0.4 0-0.7-0.2-0.7-0.6c-0.1-1.4-0.1-3 1-4c0.7-0.7 2.2-1.3 3.1-0.8c1.1 0.6 0.7 2.3 0.2 3.1q0 0.1 0 0.1c0.9 0 1.7 0.2 1.9 1.3c0.4 2.2-3.9 1.6-5.1 1.4zm0.3-2.2c0.6-0.1 1.1-0.4 1.4-0.9q0.3-0.4 0.5-0.9q0-0.2 0-0.5q0-0.4 0-0.1c-0.6-0.1-1.4 0.5-1.7 1c-0.2 0.5-0.2 0.9-0.2 1.4z" />
	<path id="Layer" class="s4" d="m240.4 49.4l14.2 35.6l27.6 93.3q-52.5 2-61.1-5.3q-2.7-95.2 19.3-123.6z" />
	<path id="Layer" class="s10" d="m267.8 30.4q-6.3 8.9-9.8 8.8q-3.6-0.1 1.4-11.9z" />
	<path id="Layer" class="s0" d="m214.2 78.5c6.3-7.2 19.4-25.2 24.8-27.2c2.4-0.9 3.1 12.9-0.2 20.4c-6 13.9-16.1 28.3-22.1 28.6q-1.2 0-2.3-0.3c-2.7-0.6-4.8-2.6-6-5.6c-0.8-2.1 1.8-11.4 5.8-15.9z" />
	<path id="Layer" class="s0" d="m201.6 53.3c3.7 8.2 8.8 16.1 13.2 22.7c2.5 3.5 4.7 6.7 6.5 9.3c2.3 3.4 3.7 5.9 3.6 7.1c-0.4 3.8-5.3 8.1-10.5 7.6c-1.6-0.1-3.3-0.8-4.8-2.1c-0.9-0.7-1.8-2-2.7-3.6q-0.1-0.1-0.1-0.2q-6.1-10.8-13.4-37.5q4.5-0.3 8.2-3.3z" />
	<path id="Layer" class="s4" d="m223.3 87.5c5.6-9 7.6-24.7 12.5-32.3c1.1-1.6 2.1-2.9 3.2-3.9q0.6 0 1.1 0.1q0.5 0 1 0.2c0.5 3.3 1 12.6-2.3 20.1c-6 13.9-16.1 28.3-22.1 28.6q-1.2 0-2.3-0.3c-1.6-0.1-3.3-0.8-4.8-2.1c-0.9-0.7-1.8-2-2.7-3.6q-0.1-0.1-0.1-0.2c7 3.6 13-1 16.5-6.6z" />
	<path id="Layer" class="s2" d="m227.6 111q24 0.9 37.7 1.4c1.7 0.1 5.4 0.1 6.9 0q1.3 19.3 0.7 30.5q-0.9 16.7-1.7 88.2l-4.5 0.3l-17.4-90.1l-4.4 90.1l-5.2-0.6q-15.6-101.1-12.1-119.8z" />
	<path id="Layer" class="s3" d="m243.1 231.4q6.8-51.2 1.4-88.3q-4-3.4-5.3-7.6q1.9 3 10.1 5.8l-4.3 89.1z" />
	<path id="Layer" class="s3" d="m265.6 146.8q-1.5-17.1-8.8-34.4l14.8-2.9q1.9 20.8 1.3 33.4q-0.5 11.3-1.6 87.5l-1.4 0.8c2.6-24-3.2-71-4.3-84.4z" />
	<path id="Layer" class="s8" d="m258.6 36.6q0 0.1 0 0.1q0 0.1 0 0.2c0 0.9 0.3 4.1 0.8 7.3c0.3 1.5 0.6 3.1 1.1 4.4q-9.9 6.1-19 1.6q0.4-2.3 0.2-5.5q-0.1-1.5-0.4-3.2q-0.3-1.7-0.9-3.5q-0.2-0.6-0.5-1.4z" />
	<path id="Layer" class="s11" d="m258.6 36.6q0 0.1 0 0.1q0 0.1 0 0.2c0 0.9 0.3 4.1 0.8 7.3c-1 0.8-2.7 1.9-5 2.4c-3.6 0.8-8.4 0-12.7-1.9q-0.1-1.5-0.4-3.2c-0.1-0.9-0.3-2-0.9-3.5q-0.2-0.6-0.5-1.4z" />
	<path id="Layer" class="s12" d="m262.3 119.8l1.8 9.9q-4.4-6.1-36.8-12.9q0-2.7 0.6-8.9z" />
	<path id="Layer" class="s0" d="m273.8 82.5q-1.6 29.9-0.1 41.1q-13.6 1-19.9-1.1q12.6-27.7 14-39.7q-4.3-18.1 9.6-25.2q-5.8 19.7-3.6 24.9z" />
	<path id="Layer" class="s6" d="m245 230l0.7 4h-16.4q5.3-4 10.5-4c-0.1 0.5 3.8 1.4 5 0.1z" />
	<path id="Layer" class="s13" d="m245.7 235.1h-16.4v-1.1h16.4z" />
	<path id="Layer" class="s6" d="m271.6 230l0.6 4h-16.4q5.4-4 10.6-4c-0.1 0.5 3.7 1.4 5 0.1z" />
	<path id="Layer" class="s13" d="m272.2 235.1h-16.4v-1.1h16.4z" />
	<path id="Layer" class="s8" d="m263.1 31.6q-2.5 6-5.5 8.7c-3.6 3.3-17.4 5.7-19.8 1.4c-3.6-6.2 1.4-30.6 2.5-32.5c1.2-2 18.9-7.9 23.9 0.9q5.1 8.7-1.1 21.5z" />
	<path id="Layer" class="s10" d="m244.2 0.6c10.7-0.9 27.2-2.1 26.3 8.7c1.7 0.7 2.3 5 1.9 6.7c-2 8.8-3.5 11.3-4.4 13.2c-1 2.2-3.6 1.3-4.7 0.8c-5.2-1.9-6.5-11.1-2.9-18.5c-4.7-0.9-8.6-1.9-13.8-1.2c-2.3 0.3-6.7 2-8.9 0.4c-3.2-2.4-1.2-9.4 6.5-10.1z" />
	<path id="Layer" class="s11" d="m242.6 29.4l0.2-0.9c0.1 0.2 0.5 0.4 1 0.6c0.5 0.1 1.2 0.1 1.8 0.5c-0.6 0.2-1.1 0.4-1.9 0.5c-0.3 0.1-0.7 0-1.1-0.1c-0.4-0.1-0.8-0.4-1-0.8l-0.4-0.4l0.5-0.5c1-1 1.8-2.1 2.7-3.4c0.3 1.7-0.5 3.3-1.8 4.5z" />
	<path id="Layer" class="s0" d="m250.6 22.8c-2.7-0.2-3.5-3.3-2.6-3.8c2.4-1.3 6.1-0.1 6 1.2c-0.1 1.1-1.1 2.8-3.4 2.6z" />
	<path id="Layer" class="s2" d="m250.6 18.9c1-0.1 1.8 0.6 1.9 1.6c0.1 0.9-0.6 1.8-1.6 1.9c-1 0.1-1.8-0.6-1.9-1.6c-0.1-1 0.6-1.8 1.6-1.9z" />
	<path id="Layer" class="s0" d="m249.4 19c0.4 0 0.6 0.2 0.7 0.5c0 0.4-0.2 0.6-0.6 0.7c-0.3 0-0.6-0.2-0.6-0.6c0-0.3 0.2-0.6 0.5-0.6z" />
	<path id="Layer" class="s0" d="m241.6 22.2c-2.5-0.2-3.3-3.3-2.5-3.8c2.1-1.3 5.6-0.1 5.5 1.2c0 1.1-0.9 2.8-3 2.6z" />
	<path id="Layer" class="s2" d="m241.4 18.3c1-0.1 1.9 0.6 2 1.6c0.1 0.9-0.6 1.8-1.6 1.9c-1 0.1-1.8-0.6-1.9-1.6c-0.1-0.9 0.6-1.8 1.5-1.9z" />
	<path id="Layer" class="s0" d="m240.3 18.4c0.3 0 0.6 0.2 0.6 0.6c0.1 0.3-0.2 0.6-0.5 0.6c-0.3 0.1-0.6-0.2-0.7-0.5c0-0.3 0.2-0.6 0.6-0.7z" />
	<path id="Layer" class="s10" d="m255.5 16.6c-0.2 0.3-0.4 0.4-0.7 0.3c-1.2-0.2-4.5-0.9-6.2-0.5c-0.4 0.1-0.7-0.2-0.8-0.6c-0.1-1.6 0.1-3 0.7-3.4c0.6-0.4 7.4 1.4 7.6 2.2c0.1 0.4-0.3 1.4-0.6 2z" />
	<path id="Layer" class="s10" d="m236.8 14.4c0.3-0.8 6.7-2.7 7.3-2.3c0.5 0.3 0.7 1.8 0.6 3.4c-0.1 0.3-0.4 0.6-0.8 0.5c-1.6-0.3-4.8 0.4-5.9 0.7c-0.2 0-0.5-0.1-0.6-0.3c-0.2-0.6-0.7-1.6-0.6-2z" />
	<path id="Layer" class="s14" d="m266.2 29.8q-7.6 0.7-7.8-8.2q8.7 1.1 14.2-6.9q-2.7 14.8-6.4 15.1z" />
	<path id="Layer" class="s0" d="m201.1 51.1q0.7 1.9 1.5 3.3q-5 2.7-9.3 3.8q-0.6-2.1-1.5-4.4q5.7-0.1 9.3-2.7z" />
	<path id="Layer" class="s0" d="m282.2 178.3q-30.9-16.4-61.1-5.3c-4.6-40 8.9-102.5 11.6-111.8q2.6-9.2 7.7-11.8q0 0.1 0 0.2q0.1-0.1 0.3-0.2q8.4 5.5 20.3-3.2q15.8 7.9 16.5 11.4c0.8 3.8-3.8 24.1-2.7 44c1.2 20.4 8.8 70.1 7.4 76.7z" />
	<path id="Layer" class="s0" d="m247.1 56.5q-0.4-2.3-2.1-5.6q9.2 0 16-4.7q-2.1 7-13.9 10.3z" />
	<path id="Layer" class="s0" d="m241.6 49.2q0.7 1.2 3.4 1.7l-2.5 4.5q-1.9-5.3-1.8-6q0.1-0.7 0.9-0.2z" />
	<path id="Layer" class="s4" d="m274.8 73.7c0 3.1-0.4 25.3 1.2 39.9q1.6 14.5 5.1 46.2q-13.3-48.8-16-69.1q-2.2-16.4 10.1-30.8q-0.3 10.8-0.4 13.8z" />
	<path id="Layer" class="s4" d="m252 69.7q6 0.6 9-0.5q-0.7 8-4.8 8.1q-4.2 0.2-4.2-7.6z" />
	<path id="Layer" class="s11" d="m244.4 36q-0.9 0.1-1.8 0q-0.9-0.2-1.6-0.8c1.2 0.2 2.2 0.3 3.3 0.1c1-0.2 2-0.7 2.9-1.3c-0.5 1-1.6 1.8-2.8 2z" />
	<path id="Layer" class="s11" d="m244.3 37.9c-0.6 0-1.1-0.1-1.6-0.5c0.6-0.2 1.1-0.2 1.5-0.2c0.5 0 1-0.1 1.5 0.1c-0.4 0.4-0.9 0.6-1.4 0.6z" />
	<path id="Layer" class="s8" d="m266 140.7c-1.1-1.4-2.8-5.2-1.9-7.2c0.9-2 2.5-5.7 4-7.2c0.6-0.6 2 2.1 2.2 2.7c0.4 0.3 0.6 0.8 0.3 1.2c-1.1 1.4-2.4 2.9-3.2 4.4c-0.8 1.5 0.2 3.4 0.3 5c0 0.8-1.5 1.4-1.7 1.1z" />
	<path id="Layer" class="s8" d="m271.8 139.9c-1.3-1.7-3.1-5-2.4-7.1c0.7-2 1.8-4.4 3.1-6c0.6-0.6 2.5 0.5 2.2 1c-0.9 1.5-1.3 4.3-2 5.9c-0.6 1.5 0.6 3.3 0.8 4.9c0.1 0.9-1.3 1.8-1.7 1.3z" />
	<path id="Layer" class="s8" d="m274.4 137.2c-1.6-1-4.1-4.3-3.7-6.5c0.4-2.2 2.3-4.3 3.4-6.1c0.4-0.7 1.3-0.6 1.6 0c0.4 0.2 1.9 2.1 1.1 4.1c-0.6 1.6-2.3 1.6-2.7 3.3c-0.4 1.6 1 2.3 1.5 3.9c0.2 0.8-0.9 1.5-1.2 1.3z" />
	<path id="Layer" class="s8" d="m269.7 141.5c-1.1-0.8-3.6-4.6-3.1-6.8c0.5-2.1 2.5-4.1 3.6-5.9c0.5-0.7 1.4-0.3 1.7 0.3c0.4 0.2 0.7 0.6 0.4 1.1c-0.7 1.7-1.8 3.3-2.3 5.1c-0.4 1.5 0.9 3.2 1.2 4.8c0.2 0.8-1.1 1.7-1.5 1.4z" />
	<path id="Layer" class="s8" d="m270.1 123.2q2.8-2.8 6.8-7.6l4.8 4.2l-4.5 5.8l-1.2 1.2q-7-2.4-5.9-3.6z" />
	<path id="Layer" class="s8" d="m266.8 128q1.9-3.9 3.7-5.1q1.9-1.2 5.2 1.7l-1.4 2.7l-4 4l-3.1-2.5z" />
	<path id="Layer" class="s11" d="m273.2 137.3q0.5 1.4 0.2 1.8q-0.5-2-1-2.4q-2.6-2.4-1.7-6q-0.7 2.2 1.9 4.8q0.2 0.4 0.6 1.8z" />
	<path id="Layer" class="s11" d="m267.7 139.6q-1.3-3.3-1.5-4.5q-0.3-1.1 1.5-2.9q-0.9 1.5-1.1 2.5q-0.2 1 0.9 3.8z" />
	<path id="Layer" class="s0" d="m276.6 56.2q26.8 25.4 26.5 40.5q-0.2 10.9-23.2 26.8l-5.8-5.1q14.3-18.9 12.3-21.7q-2-2.8-11.3-13.6q-4.6-13.4 1.5-26.9z" />
	<path id="Layer" class="s4" d="m283 122.8q-1.6 2-2.8 4.6q-4.7-3-9.7-8.7q1.3-1.3 2.6-3.1q3.9 3.8 9.9 7.2z" />
	<path id="Layer" class="s15" d="m240.4 24.9c-2.4 0-4.4-2.2-4.4-4.9c0-2.6 1.9-3.1 4.4-3.1c2.4 0 4.4 0.5 4.4 3.1c0 2.7-2 4.9-4.4 4.9z" />
	<path id="Layer" fill-rule="evenodd" class="s2" d="m235.6 20c0-3 2.4-3.4 4.8-3.4c2.3 0 4.7 0.4 4.7 3.4c0 2.9-2.1 5.2-4.7 5.2c-2.6 0-4.8-2.3-4.8-5.2zm0.8 0c0 2.5 1.8 4.5 4 4.5c2.2 0 4-2 4-4.5c0-2.2-1.5-2.7-4-2.7c-2.5 0-4 0.5-4 2.7z" />
	<path id="Layer" class="s15" d="m251.6 24.9c-2.7 0-4.8-2.2-4.8-4.9c0-2.6 2.1-3.1 4.8-3.1c2.6 0 4.8 0.5 4.8 3.1c0 2.7-2.1 4.9-4.8 4.9z" />
	<path id="Layer" fill-rule="evenodd" class="s2" d="m246.4 20c0-3 2.6-3.4 5.2-3.4c2.6 0 5.2 0.4 5.2 3.4c0 2.9-2.3 5.2-5.2 5.2c-2.9 0-5.2-2.3-5.2-5.2zm0.7 0c0 2.5 2 4.5 4.5 4.5c2.5 0 4.5-2 4.5-4.5c0-2-1.2-2.7-4.5-2.7c-3.3 0-4.5 0.7-4.5 2.7z" />
	<path id="Layer" class="s2" d="m244.7 19.4l-0.1-0.7c0.8-0.2 2.2 0.1 2.2 0.1l-0.1 0.7c-0.4 0-1.5-0.2-2-0.1z" />
	<path id="Layer" class="s2" d="m267.7 29c0.4-0.7 1.3-2.7 0.7-3.4c-0.7-0.7-7.7-3.1-11.9-4.5l0.3-0.7c1.1 0.4 11 3.6 12.1 4.7c1.2 1.2-0.4 3.9-0.6 4.2z" />
	<path id="Layer" class="s8" d="m262.2 27.1c1-1.5 5.2-3.5 6.2-1.7c1.8 3.2-0.7 9.3-6 7.9c-1.9-0.5-1.2-5-0.2-6.2z" />
	<path id="Layer" class="s11" d="m263.9 28.2q2.8-2.3 3.4-1.4c1.5 2.4-1.6 4.2-2.5 4.7q1.2-1.9 0.6-2.6q-0.6-0.7-1.5-0.7z" />
	<path id="Layer" class="s4" d="m195.8 53.6c0.1 0.2-1 1.2-2.5 2.1c-1.5 1-2.8 1.6-2.9 1.4l-0.1-0.2c-0.1-0.1 0.1-0.4 0.6-0.8l-6.9-10.7l0.4-0.2l0.9-0.6l1-0.6l1.1-0.8l0.4-0.2l6.9 10.7c0.5-0.3 0.9-0.4 1-0.2z" />
	<path id="Layer" class="s4" d="m186.5 45.1c-2.7 1.7-5 2.9-5.1 2.6l-0.2-0.2c-0.2-0.3 1.9-1.9 4.5-3.6c2.7-1.7 5-2.9 5.1-2.6l0.2 0.2c0.2 0.3-1.9 1.9-4.5 3.6z" />
	<path id="Layer" class="s4" d="m177.4 24.7l11.4 17.7l-5.7 3.7l-11.4-17.7l3.4-2.2l0.2 0.4c0.7-0.5 1.3-0.9 1.6-1.3l-0.1-0.2z" />
	<path id="Layer" class="s4" d="m188.8 42.4c0 0.1-0.1 0.3-0.5 0.6c-0.4 0.4-0.9 0.8-1.6 1.3q-0.3 0.1-0.5 0.3c-0.9 0.6-1.8 1.1-2.4 1.3c-0.4 0.2-0.6 0.3-0.7 0.2c-0.1-0.1 0.1-0.3 0.5-0.6c0.4-0.5 1.2-1 2.1-1.6q0.3-0.2 0.5-0.3c0.7-0.5 1.4-0.8 1.8-1c0.4-0.2 0.7-0.3 0.8-0.2z" />
	<path id="Layer" class="s6" d="m182.9 33.3l-5.7 3.7l-5.5-8.6l5.7-3.7z" />
	<path id="Layer" class="s6" d="m182.9 33.3c0.2 0.2-1 1.2-2.6 2.2c-1.6 1-2.9 1.7-3.1 1.5c-0.1-0.2 1.1-1.2 2.7-2.2c1.5-1 2.9-1.7 3-1.5z" />
	<path id="Layer" class="s16" d="m182.9 33.3l1 1.6c0.1 0.2-1 1.1-2.6 2.1c-1.6 1-2.9 1.7-3.1 1.5l-1-1.5c0.2 0.2 1.5-0.5 3.1-1.5c1.6-1 2.8-2 2.6-2.2z" />
	<path id="Layer" class="s17" d="m176.9 25.3l11.4 17.7c-0.4 0.4-0.9 0.8-1.6 1.3l-11.4-17.7c0.7-0.5 1.3-0.9 1.6-1.3z" />
	<path id="Layer" class="s4" d="m177.4 24.7c0.1 0.2-1 1.2-2.6 2.2c-1.6 1-3 1.7-3.1 1.5c-0.1-0.1 0.3-0.5 1-1l-0.5-0.7l0.8-0.5l-0.3-0.5l0.2-0.2l-1.2-1.9l0.2-0.1l-0.5-0.9h0.1l-8-13.3l8.7 12.8l0.1-0.1l0.5 0.9l0.3-0.2l0.1 0.2l1.1 1.7l-0.2 0.2l-0.5 0.3l-0.4 0.3l1.4-0.9l0.3 0.5l0.7-0.5l0.5 0.7c0.7-0.4 1.2-0.6 1.3-0.5z" />
	<path id="Layer" class="s2" d="m182.8 33.1l0.1 0.2c0.1 0.2-0.6 0.8-1.7 1.6l-0.1-0.2c1.1-0.8 1.8-1.5 1.7-1.6z" />
	<path id="Layer" class="s2" d="m183.1 33.5v0.1c0.1 0.1-0.2 0.5-0.8 0.9v-0.1c0.5-0.4 0.8-0.8 0.8-0.9z" />
	<path id="Layer" class="s2" d="m183.3 33.9v0.1c0.1 0.1-0.2 0.4-0.8 0.9v-0.1c0.5-0.5 0.8-0.8 0.8-0.9z" />
	<path id="Layer" class="s2" d="m183.5 34.2l0.1 0.1c0 0.1-0.3 0.4-0.8 0.9l-0.1-0.1c0.6-0.5 0.9-0.8 0.8-0.9z" />
	<path id="Layer" class="s2" d="m183.7 34.5l0.1 0.1c0 0.1-0.3 0.5-0.8 0.9l-0.1-0.1c0.6-0.4 0.9-0.8 0.8-0.9z" />
	<path id="Layer" class="s2" d="m183.9 34.9l0.1 0.1c0.1 0.1-0.3 0.4-0.8 0.9l-0.1-0.1c0.6-0.5 0.9-0.8 0.8-0.9z" />
	<path id="Layer" class="s2" d="m181.4 30.9l0.2 0.3c0.1 0.1-0.7 0.8-1.7 1.6l-0.2-0.3c1.1-0.8 1.8-1.4 1.7-1.6z" />
	<path id="Layer" class="s2" d="m181.7 31.4v0.1c0.1 0.1-0.2 0.4-0.7 0.9l-0.1-0.1c0.5-0.5 0.9-0.8 0.8-0.9z" />
	<path id="Layer" class="s2" d="m181.9 31.7l0.1 0.1c0 0.1-0.3 0.5-0.8 0.9l-0.1-0.1c0.6-0.4 0.9-0.8 0.8-0.9z" />
	<path id="Layer" class="s2" d="m182.1 32.1h0.1c0 0.2-0.3 0.5-0.8 0.9l-0.1-0.1c0.6-0.4 0.9-0.7 0.8-0.8z" />
	<path id="Layer" class="s2" d="m182.3 32.4l0.1 0.1c0.1 0.1-0.3 0.4-0.8 0.9l-0.1-0.1c0.6-0.5 0.9-0.8 0.8-0.9z" />
	<path id="Layer" class="s2" d="m182.5 32.7l0.1 0.1c0.1 0.1-0.2 0.5-0.8 0.9l-0.1-0.1c0.6-0.4 0.9-0.8 0.8-0.9z" />
	<path id="Layer" class="s2" d="m180 28.8l0.2 0.2c0.1 0.2-0.6 0.8-1.7 1.6l-0.2-0.2c1.1-0.8 1.8-1.5 1.7-1.6z" />
	<path id="Layer" class="s2" d="m180.3 29.2l0.1 0.1c0 0.1-0.3 0.5-0.8 0.9l-0.1-0.1c0.6-0.4 0.9-0.8 0.8-0.9z" />
	<path id="Layer" class="s2" d="m180.5 29.6l0.1 0.1c0 0.1-0.3 0.4-0.8 0.9l-0.1-0.1c0.6-0.5 0.9-0.8 0.8-0.9z" />
	<path id="Layer" class="s2" d="m180.7 29.9l0.1 0.1c0.1 0.1-0.3 0.4-0.8 0.9l-0.1-0.1c0.6-0.5 0.9-0.8 0.8-0.9z" />
	<path id="Layer" class="s2" d="m180.9 30.2l0.1 0.1c0.1 0.1-0.2 0.5-0.8 0.9l-0.1-0.1c0.6-0.4 0.9-0.8 0.8-0.9z" />
	<path id="Layer" class="s2" d="m181.2 30.6v0.1c0.1 0.1-0.2 0.4-0.8 0.9v-0.1c0.5-0.5 0.8-0.8 0.8-0.9z" />
	<path id="Layer" class="s2" d="m178.6 26.6l0.2 0.3c0.1 0.1-0.6 0.8-1.7 1.6l-0.2-0.3c1.1-0.8 1.8-1.4 1.7-1.6z" />
	<path id="Layer" class="s2" d="m178.9 27.1l0.1 0.1c0 0.1-0.3 0.4-0.8 0.9l-0.1-0.1c0.6-0.5 0.9-0.8 0.8-0.9z" />
	<path id="Layer" class="s2" d="m179.1 27.4l0.1 0.1c0.1 0.1-0.2 0.5-0.8 0.9l-0.1-0.1c0.6-0.4 0.9-0.8 0.8-0.9z" />
	<path id="Layer" class="s2" d="m179.3 27.8h0.1c0.1 0.2-0.2 0.5-0.8 0.9v-0.1c0.5-0.4 0.8-0.7 0.7-0.8z" />
	<path id="Layer" class="s2" d="m179.6 28.1v0.1c0.1 0.1-0.2 0.4-0.8 0.9v-0.1c0.5-0.5 0.8-0.8 0.8-0.9z" />
	<path id="Layer" class="s2" d="m179.8 28.4v0.1c0.1 0.1-0.2 0.5-0.8 0.9v-0.1c0.5-0.4 0.8-0.8 0.8-0.9z" />
	<path id="Layer" class="s2" d="m177.5 24.9l0.1 0.1c0.1 0.1-0.2 0.5-0.8 0.9l-0.1-0.1c0.6-0.4 0.9-0.8 0.8-0.9z" />
	<path id="Layer" class="s2" d="m177.8 25.3v0.1c0.1 0.1-0.2 0.4-0.8 0.9v-0.1c0.5-0.5 0.8-0.8 0.7-0.9z" />
	<path id="Layer" class="s2" d="m178 25.6v0.1c0.1 0.1-0.2 0.4-0.8 0.9v-0.1c0.5-0.5 0.8-0.8 0.8-0.9z" />
	<path id="Layer" class="s2" d="m178.2 25.9v0.1c0.1 0.1-0.2 0.5-0.8 0.9v-0.1c0.5-0.4 0.9-0.8 0.8-0.9z" />
	<path id="Layer" class="s2" d="m178.4 26.3l0.1 0.1c0 0.1-0.3 0.4-0.8 0.9l-0.1-0.1c0.5-0.5 0.9-0.8 0.8-0.9z" />
	<path id="Layer" class="s0" d="m184.1 39.5c-0.2-0.4 0.1-0.9 0.6-0.9c2 0 4.6-0.5 6.5 0.4c1.9 0.9 3.3 2.7 4.6 4.3c0.3 0.3 0 0.7-0.3 0.9c0 0.2-0.2 0.5-0.5 0.5c-2.4 0.6-3.4-1.5-5.3-2.5c-2-1-4.8 0-5.6-2.7z" />
	<path id="Layer" class="s0" d="m186.8 43.6c0.5 0.6 0.8 2.1 0.5 2.7c-0.1 0.5-0.5 0.7-1 0.9c0.8 0.6 1.4 1.4 1.1 2.4c0 0.2-0.2 0.5-0.5 0.5c-1.8 0.4-4-0.1-5.7-0.6c-0.5-0.1-0.6-0.7-0.4-1.1c-3.3-3-3-9.7 2.5-9c1.9 0.3 5.4-0.4 5.6 2c0.1 1.8-0.7 1.9-2.1 2.2z" />
</svg>