<svg version="1.2" xmlns="http://www.w3.org/2000/svg" viewBox="0 0 130 237" width="150" height="273">
	<title>image</title>
	<style>
		.s0 { fill: #d1e2ee } 
		.s1 { fill: #ffa47f } 
		.s2 { fill: #f27049 } 
		.s3 { fill: #ffffff } 
		.s4 { fill: #412014 } 
		.s5 { fill: #584441 } 
		.s6 { fill: #ffc17d } 
		.s7 { fill: #635dad } 
		.s8 { fill: #443e90 } 
		.s9 { opacity: .3;fill: #ffffff } 
		.s10 { fill: #ffdebe } 
	</style>
	<path id="Layer" class="s0" d="m29.1 153.1c1.4 0 44.1 6.1 22.1 13.2q-22.2 7.3-38.1-1.2q14.6-12 16-12z" />
	<path id="Layer" class="s1" d="m97.3 65.5c-0.8 1.2-1.8 2-3.1 2.3c-0.6 0.2-1.4 0-2 0.2c-2 0.6-3 1.9-4.1 3.7c-0.3 0.3-0.5 0.5-0.9 0.4c-1.5-0.8-3-1.6-4.4-2.4c-0.4-0.3-0.6-0.8-0.3-1.2q2.2-2.6 4.3-5.3c1-2.8 1.8-5.6 4.6-6.6c2-0.7 5.1-3.3 6.4-0.8c1.2 2.5 1 7.3-0.5 9.7z" />
	<path id="Layer" class="s2" d="m90 69.3l-1.5 1.6l-4.9-3.8l2.1-2.4q1.4 3 4.3 4.6z" />
	<path id="Layer" class="s3" d="m51.6 53.1q23.2 32.8 22.2 40.9c-1 8.1-8.8 14.8-12.9 11.8c-4.2-3-11.8-48.1-9.3-52.7z" />
	<path id="Layer" class="s3" d="m90 71.2q-17 31.2-23.6 34.5c-6.6 3.4-12.4-4.4-11.6-9.2c0.5-3.6 17.5-15.2 29-30.4q2.4 3.7 6.2 5.1z" />
	<path id="Layer" class="s0" d="m51.6 53.1c21.4 26.7 6.7 54 18.1 49.9q-5.3 6.4-8.8 2.8c-8.9-9.1-26.8-51.9-9.3-52.7z" />
	<path id="Layer" class="s3" d="m69.5 81.6q-2.7 0.3-6.2 5.7q2.2-6.2 4.3-8.9z" />
	<path id="Layer" class="s3" d="m47 50q14.1 4.8 15.6 32.5q1.5 27.9 1.6 81.4q-15.2 3.5-22.7 3.3c-7.5-0.3 12.9-73.8 5.5-117.2z" />
	<path id="Layer" class="s4" d="m24.8 218.3l15.8-17.6l8.7-7.3l-4 16.1q-4.7 4.9-18.5 11.4z" />
	<path id="Layer" class="s4" d="m57.7 135.4c-0.7 3.7-7.8 61.9-10.3 71.7c-0.7 2.8-4.7 4.6-6.8 6.3q-0.1 8.3-0.4 19.1h-4.1q-10.5-74.4-12.1-85.2q-1.6-10.8 0-29.7q1.9 0.1 4.2 0q12-0.5 29.5-4.4c0.7 4.4 0.8 16.2 0 22.2z" />
	<path id="Layer" class="s5" d="m40.6 213.4l1.7-72.6q3.7-4.3 5.1-7q-2 5.6-3.6 8q0.9 6.2-1.9 70.7z" />
	<path id="Layer" class="s5" d="m37.1 232.6h-1q-10.5-74.5-12.1-85.3q-1.6-10.8 0-29.7h11.5q-6.3 11.8-5.7 29.3c0.4 13.1 5 62.2 7.3 85.7z" />
	<path id="Layer" class="s2" d="m92.2 59.4l-2.8-0.2l4.2-3z" />
	<path id="Layer" class="s2" d="m92.8 65.1l-3.6-1.3l3.5-2.4z" />
	<path id="Layer" class="s1" d="m48.5 39.7q-0.2 0.7-0.4 1.3q-0.5 1.8-0.7 3.5q-0.4 1.6-0.4 3.1q-0.1 3.1 0.1 5.3q-8 4.4-16.6-1.6c0.4-1.2 0.7-2.8 0.9-4.2c0.5-3.1 0.7-6.2 0.7-7.1q0.1-0.1 0-0.2q0.1-0.1 0.1-0.1z" />
	<path id="Layer" class="s2" d="m48.5 39.7q-0.2 0.7-0.4 1.3c-0.4 1.5-0.7 2.6-0.7 3.5q-0.4 1.6-0.4 3.1c-3.7 1.8-8 2.5-11.2 1.8c-1.9-0.5-3.5-1.5-4.4-2.3c0.5-3.1 0.7-6.2 0.7-7.1q0.1-0.1 0-0.2q0.1-0.1 0.1-0.1z" />
	<path id="Layer" class="s6" d="m47.8 52.1c4.9 3.5 6.9 13.5 8.3 26.4q1.4 13.8 4.1 41.4q-6.1 7.8-38.3 5.5q1.1-15.1-3.2-67.8q3.9-3.4 11.3-8.6q10.5 8.5 17.8 3.1z" />
	<path id="Layer" class="s7" d="m36.2 231.8c1.1 1.2 4.4 0.5 4.3 0q4.7 0 9.3 3.8h-14.3l0.5-3.8z" />
	<path id="Layer" class="s8" d="m35.5 235.6h14.3v1.1h-14.3z" />
	<path id="Layer" class="s7" d="m25.5 217.2c-0.4 1.7 1.9 4.5 2.2 4.3q2.2 4.4 1.4 10.9l-6.9-14.1l3.3-1.2z" />
	<path id="Layer" class="s8" d="m22.2 218.3l6.9 14.1l-0.8 0.4l-7-14z" />
	<path id="Layer" class="s8" d="m32 30.6q4.4 11.6 1.3 11.6q-3.1 0.1-8.6-8.5z" />
	<path id="Layer" class="s1" d="m27.8 13.9c4.4-8.5 19.9-2.7 21-0.9c1 1.9 5.3 25.6 2.3 31.7c-2.2 4.1-14.3 1.8-17.5-1.4q-2.6-2.6-4.7-8.5q-5.6-12.3-1.1-20.9z" />
	<path id="Layer" class="s7" d="m51.1 14.5c-2 1.5-5.8 0-7.8-0.4c-4.6-0.7-8 0.4-12.1 1.1c3.2 7.3 3.6 17-1 18.9c-1 0.4-4.8 0.6-5.7-1.5c-0.8-2-2.1-4.3-3.9-13c-0.3-1.6 0.2-5.7 1.8-6.5c-0.9-10.5 13.4-13.9 22.9-12.9c6.7 0.6 8.6 12 5.8 14.3z" />
	<path id="Layer" class="s2" d="m48 31.6l0.4 0.5l-0.3 0.5c-0.3 0.4-0.6 0.6-1 0.7q-0.4 0.2-0.9 0.1c-0.7 0-1.1-0.3-1.7-0.5c0.6-0.3 1.1-0.4 1.7-0.5c0.4-0.2 0.7-0.4 0.8-0.6l0.1 0.9c-1-1.1-1.7-2.8-1.6-4.4c0.9 1.4 1.6 2.3 2.5 3.3z" />
	<path id="Layer" class="s3" d="m36.8 23.7c-0.1-1.2 3.1-2.3 5.2-1.1c0.8 0.4 0.1 3.5-2.2 3.7c-2.1 0.1-2.9-1.5-3-2.6z" />
	<path id="Layer" class="s4" d="m41.2 24.3c-0.1 1-0.8 1.7-1.7 1.6c-0.9-0.1-1.5-0.9-1.4-1.9c0.1-1 0.9-1.6 1.7-1.5c0.8 0.1 1.4 0.8 1.4 1.8z" />
	<path id="Layer" class="s3" d="m41.2 23.1c0 0.4-0.2 0.6-0.5 0.6c-0.2 0-0.5-0.3-0.5-0.7c0.1-0.3 0.3-0.4 0.6-0.4c0.3 0 0.4 0.2 0.4 0.5z" />
	<path id="Layer" class="s3" d="m45 23.1c-0.1-1.2 3-2.3 4.8-1.1c0.7 0.5 0 3.6-2.1 3.7c-1.9 0.2-2.7-1.5-2.7-2.6z" />
	<path id="Layer" class="s4" d="m49.1 23.8c0 0.9-0.7 1.6-1.6 1.5c-0.9-0.1-1.5-0.9-1.3-1.9c0-0.9 0.8-1.6 1.6-1.5c0.9 0.1 1.5 0.9 1.3 1.9z" />
	<path id="Layer" class="s3" d="m49.3 22.6c-0.1 0.3-0.3 0.6-0.6 0.5c-0.3 0-0.4-0.3-0.4-0.5c0-0.3 0.2-0.6 0.5-0.5c0.3 0 0.5 0.3 0.5 0.5z" />
	<path id="Layer" class="s8" d="m34.9 17.6c0.2-0.8 6.2-2.5 6.7-2.2c0.5 0.3 0.7 1.8 0.6 3.4c-0.1 0.3-0.3 0.6-0.7 0.5c-1.5-0.4-4.4 0.3-5.4 0.5c-0.3 0.1-0.5 0-0.6-0.3c-0.2-0.6-0.7-1.5-0.6-1.9z" />
	<path id="Layer" class="s8" d="m51.3 19.3c-0.1 0.2-0.3 0.3-0.5 0.3c-1-0.3-3.8-0.9-5.2-0.7c-0.3 0.1-0.6-0.1-0.6-0.5c-0.2-1.5 0-3 0.5-3.2c0.5-0.4 6.1 1.4 6.4 2.2c0.1 0.4-0.3 1.4-0.6 1.9z" />
	<path id="Layer" class="s8" d="m20.4 18.4q5.6 7.9 13.1 6.9q1.3 9.8-5.4 9q-6.7-0.7-7.7-15.9z" />
	<path id="Layer" class="s2" d="m45.2 37.4q0.6 0.2 1.3 0.2c0.5 0.1 0.9 0 1.4-0.1c-0.4 0.4-0.9 0.6-1.4 0.7c-0.4 0.1-1 0.1-1.5-0.1c-0.9-0.3-1.7-0.9-2.3-1.9c0.9 0.6 1.7 1.1 2.5 1.2z" />
	<path id="Layer" class="s2" d="m45.2 39.2c0.3 0 0.7 0.2 0.9 0.6c-0.5 0.1-0.7 0.1-1 0.1c-0.3-0.1-0.6-0.1-0.9-0.4c0.3-0.3 0.6-0.4 1-0.3z" />
	<path id="Layer" class="s9" d="m44.8 22.8c0-2.5 1.8-3 3.9-3c2.1 0 3.8 0.5 3.8 3c0 2.7-1.7 4.8-3.8 4.8c-2.2 0-3.9-2.1-3.9-4.8z" />
	<path id="Layer" fill-rule="evenodd" class="s4" d="m44.5 22.8c0-2.9 2.1-3.3 4.2-3.3c2 0 4.1 0.4 4.1 3.3c0 2.9-1.8 5.1-4.1 5.1c-2.3 0-4.2-2.2-4.2-5.1zm0.7 0c0 2.5 1.6 4.4 3.5 4.4c1.9 0 3.5-1.9 3.5-4.4c0-2.1-1.3-2.6-3.5-2.6c-2.2 0-3.5 0.5-3.5 2.6z" />
	<path id="Layer" class="s9" d="m34.6 22.8c0-2.5 1.9-3 4.3-3c2.3 0 4.2 0.5 4.2 3c0 2.7-1.9 4.8-4.3 4.8c-2.3 0-4.2-2.1-4.2-4.8z" />
	<path id="Layer" fill-rule="evenodd" class="s4" d="m34.3 22.8c0-2.9 2.3-3.3 4.6-3.3c2.2 0 4.5 0.4 4.5 3.3c0 2.9-2.1 5.1-4.6 5.1c-2.5 0-4.5-2.2-4.5-5.1zm0.6 0c0 2.5 1.8 4.4 3.9 4.4c2.2 0 3.9-1.9 3.9-4.4c0-1.9-1-2.6-3.8-2.6c-2.9 0-4 0.7-4 2.6z" />
	<path id="Layer" class="s4" d="m43 21.7c0.1 0 1.3-0.3 2-0.1l-0.1 0.7c-0.5-0.1-1.5 0.1-1.8 0.1z" />
	<path id="Layer" class="s4" d="m22.7 27.9c0.9-1.1 10.5-4.3 11.6-4.7l0.2 0.7c-4 1.4-10.7 3.8-11.3 4.5c-0.6 0.7 0.2 2.6 0.6 3.2l-0.5 0.4c-0.2-0.3-1.6-2.9-0.6-4.1z" />
	<path id="Layer" class="s1" d="m30 35.4c-4.1 2.7-7.7-2.3-6.9-5.7c0.3-2 4.4-1.3 5.6-0.1c1 0.8 2.8 4.8 1.3 5.8z" />
	<path id="Layer" class="s2" d="m26.4 32.1q-0.3 0.8 1.2 2.3c-0.9-0.3-4-1.1-3.3-3.8q0.3-1 3.3 0.4q-0.8 0.3-1.2 1.1z" />
	<path id="Layer" class="s3" d="m30.5 49q18 24.2 7.1 111.9q-15.4 0-24.5 4.2q11.2-42 8.5-70.8q-2.8-28.9-5.1-34.5q10.4-10.5 14-10.8z" />
	<path id="Layer" class="s1" d="m28 121.2q2.3 1.3 5.1 5.4l-5.2 4.8q-1.9-1.4-3.9-4.8q0.7-2 4-5.4z" />
	<path id="Layer" class="s2" d="m28.3 121.4l0.7 0.5q-1.2 4.6-3.9 6.4q-0.4-0.5-1.1-1.7z" />
	<path id="Layer" class="s3" d="m34.5 125.9q-1.2 4.8-6.3 11.5q-0.4-2-1.7-5.3q4.7-4 6.8-9.7q0.9 1.4 1.2 3.5z" />
	<path id="Layer" class="s0" d="m21.8 68.9q5.3 8.8 5.8 16c0.4 7.2-1.9 54-12.7 72.4q8.6-40.3 6.4-60.7q-2.3-20.3 0.5-27.7z" />
	<path id="Layer" class="s3" d="m24.7 83.7q-6.7 7.5-7.7 10.6q-0.9 3 12.5 26.4l-6.1 8.1q-23.4-22.5-23.4-32.8q0-15.1 16.5-36.2q8.5 10.5 8.2 23.9z" />
	<path id="Layer" fill-rule="evenodd" class="s7" d="m114.2 41.7c0.5 3.5-1.7 6.8-4.9 7.4c-3.2 0.5-6.2-1.9-6.7-5.4c-0.4-3.5 1.7-6.8 4.9-7.4c3.2-0.6 6.1 1.8 6.7 5.4zm-2.2 0.3c-0.3-2.1-2.1-3.7-4.1-3.3c-2.1 0.3-3.5 2.3-3.1 4.6c0.3 2.2 2.2 3.8 4.2 3.4c1.9-0.4 3.3-2.4 3-4.7z" />
	<path id="Layer" class="s7" d="m125.1 40.3q6.7 23.2 2.2 47.3q-12.8-4.7-34.7-0.4q0.9-14.8-1.2-41.4q16.1-5.9 33.7-5.5z" />
	<path id="Layer" class="s10" d="m122.2 44.7q5.5 18.9 1.8 38.4q-10.4-3.8-33.5-0.8q8-10.9 4.4-33q13-4.8 27.3-4.6z" />
	<path id="Layer" class="s3" d="m98.2 52.9c0.6-0.1 13.8-4.2 22.2-2.8l-0.2 1.4c-8.2-1.3-21.5 2.8-21.6 2.8z" />
	<path id="Layer" class="s3" d="m99 58.5c0.5-0.2 13.7-4.3 22.2-2.9l-0.2 1.4c-8.2-1.3-21.6 2.7-21.7 2.8z" />
	<path id="Layer" class="s3" d="m98.3 64.1c0.5-0.1 13.6-2.5 21.8-0.5l-0.3 1.4c-8-1.9-21.2 0.6-21.3 0.6z" />
	<path id="Layer" class="s3" d="m98.3 70.7c0.5-0.1 12.7-3 21.5-0.4l-0.4 1.3c-8.4-2.4-20.7 0.5-20.8 0.5z" />
	<path id="Layer" class="s3" d="m96.8 77.8l-0.2-1.4c0.6-0.1 15.3-2.6 24.1 0.1l-0.4 1.3c-8.5-2.6-23.3 0-23.5 0z" />
	<path id="Layer" class="s1" d="m98.4 62.2c-1.6 0.7-2.5-1.5-3.4-1.2c-0.6 0.2-2.9 2.4-3.5 2.5c-1.6 0.2-1.2-4.1-1.1-4.4c0.4-1.1 4.2-2 4.6-2c1.1 0 2.1 1.2 3 1.8c0.7 0.4 2 0.6 2 1.7c0.1 0.8-0.9 1.4-1.6 1.6z" />
	<path id="Layer" class="s5" d="m42.6 53.9q3.4-1.1 4.4-1.1q0.9 0 0.7 4.1q-2 1-3 1c-1.1 0-2.5-2.5-2.1-4z" />
	<path id="Layer" class="s3" d="m44.5 53.1q-2.7 3.4-3.3 6.1q-6-1.5-10.7-9.5q8.3 4.6 14 3.4z" />
	<path id="Layer" class="s3" d="m47 50q1.5 1.9 2.4 6q-1-1.7-4.9-2.9q1.7-0.2 2.5-3.1z" />
	<path id="Layer" class="s5" d="m47.7 56.9c4.9 6.8 6.2 27.9 5.9 30q-0.2 2.1-2.4 5.1q-3-2.5-3-4.7q0.2-8.4-3.5-29.4z" />
</svg>