<svg version="1.2" xmlns="http://www.w3.org/2000/svg" viewBox="0 0 132 129" width="132" height="129">
	<title>image</title>
	<style>
		.s0 { fill: #635dad } 
	</style>
	<path id="Layer" class="s0" d="m2.3 19.9c1.1-1.4 2.8-1.4 4.4-1.7q0.3 0 0.5-0.3c6.6-3.5 11.5-9.8 17.8-13.6c3.5-2 7.9-2 12-1.2c1.4-1.1 2.7-2.3 4.6-2.3c2.5-0.3 4.1 1.8 5.5 3.5q3 4 5.2 8.7c0.8 2 2.2 4.3 0.8 6.4q-0.5 1.4-1.6 2c1.1 6.6 1.3 13.6 4.1 18.8c7.6 14.2 22.3 18.8 33.3 29c10.1 8.9 13.1 22.3 11.4 35.6c4.1 0.5 8.2 0.5 10.1-4.1c0.9-1.7 0.9-5.2 1.1-7.2c0.8-5.8 1.9-11.9 1.4-18c-0.8-11.6-4.1-23.4-7.1-34.4c-0.3-1.2 1.1-2.6 2.2-1.8c8.7 6.4 14.4 15.4 16.6 26.1q1.4-1.7 2.8-3.8c0.8-0.8 2.1-0.3 2.4 0.9c2.2 6.7 2.7 13.6 1.7 20.6q-1.1 5.7-3.3 11.2c-1.1 2.1-4.9 7-4.1 8.4c1.3 2.6 5.2 1.5 3.5 5.8c-1.9 5-8.7 8.1-13.6 10.5q1.1 0.5 2.4 1.4c1.1 0.6 0.9 2.6-0.2 2.9c-11 2.3-21.6 2.9-32.5 1.4q-0.6 0-0.8 0c-3.9 2.1-8.2 3.5-12.3 3.5c-5.5 0-10.7-1.1-16.1-1.1c-5.8-0.3-11.8 0-17.5 0c-4.4-0.3-14.5 2-15.8-3.5c-1.7-5.2 3.5-7.8 7.6-7.8c1.9-13.9-2.5-27.2-5.5-40.9c-0.8-4.3-1.9-8.9-1.3-13.3c1.3-7.2 5.2-11.6 2.2-19.4q0 0-0.3-0.3c-4.9-5.2-12-3.7-18.3-5.5c-3-0.5-4.6-1.7-5.2-4.9c-0.8-3.5-0.5-9.3 1.9-11.6z" />
</svg>