<svg version="1.2" xmlns="http://www.w3.org/2000/svg" viewBox="0 0 91 79" width="91" height="79">
	<title>image</title>
	<defs>
		<clipPath clipPathUnits="userSpaceOnUse" id="cp1">
			<path d="m0 3.87c0-1.96 1.61-3.55 3.6-3.55c2 0 3.61 1.59 3.61 3.55c0 1.96-1.61 3.54-3.61 3.54c-1.99 0-3.6-1.58-3.6-3.54z" />
		</clipPath>
		<linearGradient id="g1" x1="37.9" y1="89.5" x2="-10.2" y2="-34.6" gradientUnits="userSpaceOnUse">
			<stop offset="0" stop-color="#97c3f9"/>
			<stop offset="1" stop-color="#93c1f9"/>
		</linearGradient>
		<clipPath clipPathUnits="userSpaceOnUse" id="cp2">
			<path d="m20.88 3.87c0-1.96 1.61-3.55 3.6-3.55c1.99 0 3.61 1.59 3.61 3.55c0 1.96-1.62 3.54-3.61 3.54c-1.99 0-3.6-1.58-3.6-3.54z" />
		</clipPath>
		<linearGradient id="g2" x1="56" y1="82.5" x2="7.9" y2="-41.6" gradientUnits="userSpaceOnUse">
			<stop offset="0" stop-color="#97c3f9"/>
			<stop offset="1" stop-color="#93c1f9"/>
		</linearGradient>
		<clipPath clipPathUnits="userSpaceOnUse" id="cp3">
			<path d="m41.76 3.87c0-1.96 1.61-3.55 3.6-3.55c1.99 0 3.61 1.59 3.61 3.55c0 1.96-1.62 3.54-3.61 3.54c-1.99 0-3.6-1.58-3.6-3.54z" />
		</clipPath>
		<linearGradient id="g3" x1="74.1" y1="75.5" x2="25.9" y2="-48.6" gradientUnits="userSpaceOnUse">
			<stop offset="0" stop-color="#97c3f9"/>
			<stop offset="1" stop-color="#93c1f9"/>
		</linearGradient>
		<clipPath clipPathUnits="userSpaceOnUse" id="cp4">
			<path d="m62.63 3.87c0-1.96 1.62-3.55 3.61-3.55c1.99 0 3.6 1.59 3.6 3.55c0 1.96-1.61 3.54-3.6 3.54c-1.99 0-3.61-1.58-3.61-3.54z" />
		</clipPath>
		<linearGradient id="g4" x1="92.1" y1="68.5" x2="44" y2="-55.6" gradientUnits="userSpaceOnUse">
			<stop offset="0" stop-color="#97c3f9"/>
			<stop offset="1" stop-color="#93c1f9"/>
		</linearGradient>
		<clipPath clipPathUnits="userSpaceOnUse" id="cp5">
			<path d="m83.51 3.87c0-1.96 1.62-3.55 3.61-3.55c1.99 0 3.6 1.59 3.6 3.55c0 1.96-1.61 3.54-3.6 3.54c-1.99 0-3.61-1.58-3.61-3.54z" />
		</clipPath>
		<linearGradient id="g5" x1="110.2" y1="61.5" x2="62.1" y2="-62.6" gradientUnits="userSpaceOnUse">
			<stop offset="0" stop-color="#97c3f9"/>
			<stop offset="1" stop-color="#93c1f9"/>
		</linearGradient>
		<clipPath clipPathUnits="userSpaceOnUse" id="cp6">
			<path d="m0 21.67c0-1.95 1.61-3.54 3.6-3.54c2 0 3.61 1.59 3.61 3.54c0 1.96-1.61 3.55-3.61 3.55c-1.99 0-3.6-1.59-3.6-3.55z" />
		</clipPath>
		<linearGradient id="g6" x1="31.8" y1="91.9" x2="-16.3" y2="-32.2" gradientUnits="userSpaceOnUse">
			<stop offset="0" stop-color="#97c3f9"/>
			<stop offset="1" stop-color="#93c1f9"/>
		</linearGradient>
		<clipPath clipPathUnits="userSpaceOnUse" id="cp7">
			<path d="m20.88 21.67c0-1.95 1.61-3.54 3.6-3.54c1.99 0 3.61 1.59 3.61 3.54c0 1.96-1.62 3.55-3.61 3.55c-1.99 0-3.6-1.59-3.6-3.55z" />
		</clipPath>
		<linearGradient id="g7" x1="49.8" y1="84.9" x2="1.7" y2="-39.2" gradientUnits="userSpaceOnUse">
			<stop offset="0" stop-color="#97c3f9"/>
			<stop offset="1" stop-color="#93c1f9"/>
		</linearGradient>
		<clipPath clipPathUnits="userSpaceOnUse" id="cp8">
			<path d="m41.76 21.67c0-1.95 1.61-3.54 3.6-3.54c1.99 0 3.61 1.59 3.61 3.54c0 1.96-1.62 3.55-3.61 3.55c-1.99 0-3.6-1.59-3.6-3.55z" />
		</clipPath>
		<linearGradient id="g8" x1="67.9" y1="77.9" x2="19.8" y2="-46.2" gradientUnits="userSpaceOnUse">
			<stop offset="0" stop-color="#97c3f9"/>
			<stop offset="1" stop-color="#93c1f9"/>
		</linearGradient>
		<clipPath clipPathUnits="userSpaceOnUse" id="cp9">
			<path d="m62.63 21.67c0-1.95 1.62-3.54 3.61-3.54c1.99 0 3.6 1.59 3.6 3.54c0 1.96-1.61 3.55-3.6 3.55c-1.99 0-3.61-1.59-3.61-3.55z" />
		</clipPath>
		<linearGradient id="g9" x1="86" y1="70.9" x2="37.9" y2="-53.2" gradientUnits="userSpaceOnUse">
			<stop offset="0" stop-color="#97c3f9"/>
			<stop offset="1" stop-color="#93c1f9"/>
		</linearGradient>
		<clipPath clipPathUnits="userSpaceOnUse" id="cp10">
			<path d="m83.51 21.67c0-1.95 1.62-3.54 3.61-3.54c1.99 0 3.6 1.59 3.6 3.54c0 1.96-1.61 3.55-3.6 3.55c-1.99 0-3.61-1.59-3.61-3.55z" />
		</clipPath>
		<linearGradient id="g10" x1="104" y1="63.9" x2="55.9" y2="-60.2" gradientUnits="userSpaceOnUse">
			<stop offset="0" stop-color="#97c3f9"/>
			<stop offset="1" stop-color="#93c1f9"/>
		</linearGradient>
		<clipPath clipPathUnits="userSpaceOnUse" id="cp11">
			<path d="m0 39.44c0-1.96 1.61-3.54 3.6-3.54c2 0 3.61 1.58 3.61 3.54c0 1.96-1.61 3.55-3.61 3.55c-1.99 0-3.6-1.59-3.6-3.55z" />
		</clipPath>
		<linearGradient id="g11" x1="25.6" y1="94.3" x2="-22.5" y2="-29.8" gradientUnits="userSpaceOnUse">
			<stop offset="0" stop-color="#97c3f9"/>
			<stop offset="1" stop-color="#93c1f9"/>
		</linearGradient>
		<clipPath clipPathUnits="userSpaceOnUse" id="cp12">
			<path d="m20.88 39.44c0-1.96 1.61-3.54 3.6-3.54c1.99 0 3.61 1.58 3.61 3.54c0 1.96-1.62 3.55-3.61 3.55c-1.99 0-3.6-1.59-3.6-3.55z" />
		</clipPath>
		<linearGradient id="g12" x1="43.7" y1="87.3" x2="-4.4" y2="-36.8" gradientUnits="userSpaceOnUse">
			<stop offset="0" stop-color="#97c3f9"/>
			<stop offset="1" stop-color="#93c1f9"/>
		</linearGradient>
		<clipPath clipPathUnits="userSpaceOnUse" id="cp13">
			<path d="m41.76 39.44c0-1.96 1.61-3.54 3.6-3.54c1.99 0 3.61 1.58 3.61 3.54c0 1.96-1.62 3.55-3.61 3.55c-1.99 0-3.6-1.59-3.6-3.55z" />
		</clipPath>
		<linearGradient id="g13" x1="61.7" y1="80.3" x2="13.6" y2="-43.8" gradientUnits="userSpaceOnUse">
			<stop offset="0" stop-color="#97c3f9"/>
			<stop offset="1" stop-color="#93c1f9"/>
		</linearGradient>
		<clipPath clipPathUnits="userSpaceOnUse" id="cp14">
			<path d="m62.63 39.44c0-1.96 1.62-3.54 3.61-3.54c1.99 0 3.6 1.58 3.6 3.54c0 1.96-1.61 3.55-3.6 3.55c-1.99 0-3.61-1.59-3.61-3.55z" />
		</clipPath>
		<linearGradient id="g14" x1="79.8" y1="73.3" x2="31.7" y2="-50.8" gradientUnits="userSpaceOnUse">
			<stop offset="0" stop-color="#97c3f9"/>
			<stop offset="1" stop-color="#93c1f9"/>
		</linearGradient>
		<clipPath clipPathUnits="userSpaceOnUse" id="cp15">
			<path d="m83.51 39.44c0-1.96 1.62-3.54 3.61-3.54c1.99 0 3.6 1.58 3.6 3.54c0 1.96-1.61 3.55-3.6 3.55c-1.99 0-3.61-1.59-3.61-3.55z" />
		</clipPath>
		<linearGradient id="g15" x1="97.9" y1="66.3" x2="49.8" y2="-57.8" gradientUnits="userSpaceOnUse">
			<stop offset="0" stop-color="#97c3f9"/>
			<stop offset="1" stop-color="#93c1f9"/>
		</linearGradient>
		<clipPath clipPathUnits="userSpaceOnUse" id="cp16">
			<path d="m0 57.25c0-1.96 1.61-3.55 3.6-3.55c2 0 3.61 1.59 3.61 3.55c0 1.96-1.61 3.54-3.61 3.54c-1.99 0-3.6-1.58-3.6-3.54z" />
		</clipPath>
		<linearGradient id="g16" x1="19.4" y1="96.7" x2="-28.7" y2="-27.4" gradientUnits="userSpaceOnUse">
			<stop offset="0" stop-color="#97c3f9"/>
			<stop offset="1" stop-color="#93c1f9"/>
		</linearGradient>
		<clipPath clipPathUnits="userSpaceOnUse" id="cp17">
			<path d="m20.88 57.25c0-1.96 1.61-3.55 3.6-3.55c1.99 0 3.61 1.59 3.61 3.55c0 1.96-1.62 3.54-3.61 3.54c-1.99 0-3.6-1.58-3.6-3.54z" />
		</clipPath>
		<linearGradient id="g17" x1="37.5" y1="89.7" x2="-10.6" y2="-34.4" gradientUnits="userSpaceOnUse">
			<stop offset="0" stop-color="#97c3f9"/>
			<stop offset="1" stop-color="#93c1f9"/>
		</linearGradient>
		<clipPath clipPathUnits="userSpaceOnUse" id="cp18">
			<path d="m41.76 57.25c0-1.96 1.61-3.55 3.6-3.55c1.99 0 3.61 1.59 3.61 3.55c0 1.96-1.62 3.54-3.61 3.54c-1.99 0-3.6-1.58-3.6-3.54z" />
		</clipPath>
		<linearGradient id="g18" x1="55.6" y1="82.7" x2="7.5" y2="-41.4" gradientUnits="userSpaceOnUse">
			<stop offset="0" stop-color="#97c3f9"/>
			<stop offset="1" stop-color="#93c1f9"/>
		</linearGradient>
		<clipPath clipPathUnits="userSpaceOnUse" id="cp19">
			<path d="m62.63 57.25c0-1.96 1.62-3.55 3.61-3.55c1.99 0 3.6 1.59 3.6 3.55c0 1.96-1.61 3.54-3.6 3.54c-1.99 0-3.61-1.58-3.61-3.54z" />
		</clipPath>
		<linearGradient id="g19" x1="73.6" y1="75.7" x2="25.5" y2="-48.4" gradientUnits="userSpaceOnUse">
			<stop offset="0" stop-color="#97c3f9"/>
			<stop offset="1" stop-color="#93c1f9"/>
		</linearGradient>
		<clipPath clipPathUnits="userSpaceOnUse" id="cp20">
			<path d="m83.51 57.25c0-1.96 1.62-3.55 3.61-3.55c1.99 0 3.6 1.59 3.6 3.55c0 1.96-1.61 3.54-3.6 3.54c-1.99 0-3.61-1.58-3.61-3.54z" />
		</clipPath>
		<linearGradient id="g20" x1="91.7" y1="68.7" x2="43.6" y2="-55.4" gradientUnits="userSpaceOnUse">
			<stop offset="0" stop-color="#97c3f9"/>
			<stop offset="1" stop-color="#93c1f9"/>
		</linearGradient>
		<clipPath clipPathUnits="userSpaceOnUse" id="cp21">
			<path d="m0 75.02c0-1.96 1.61-3.55 3.6-3.55c2 0 3.61 1.59 3.61 3.55c0 1.95-1.61 3.54-3.61 3.54c-1.99 0-3.6-1.59-3.6-3.54z" />
		</clipPath>
		<linearGradient id="g21" x1="13.3" y1="99.1" x2="-34.8" y2="-25" gradientUnits="userSpaceOnUse">
			<stop offset="0" stop-color="#97c3f9"/>
			<stop offset="1" stop-color="#93c1f9"/>
		</linearGradient>
		<clipPath clipPathUnits="userSpaceOnUse" id="cp22">
			<path d="m20.88 75.02c0-1.96 1.61-3.55 3.6-3.55c1.99 0 3.61 1.59 3.61 3.55c0 1.95-1.62 3.54-3.61 3.54c-1.99 0-3.6-1.59-3.6-3.54z" />
		</clipPath>
		<linearGradient id="g22" x1="31.3" y1="92.1" x2="-16.8" y2="-32" gradientUnits="userSpaceOnUse">
			<stop offset="0" stop-color="#97c3f9"/>
			<stop offset="1" stop-color="#93c1f9"/>
		</linearGradient>
		<clipPath clipPathUnits="userSpaceOnUse" id="cp23">
			<path d="m41.76 75.02c0-1.96 1.61-3.55 3.6-3.55c1.99 0 3.61 1.59 3.61 3.55c0 1.95-1.62 3.54-3.61 3.54c-1.99 0-3.6-1.59-3.6-3.54z" />
		</clipPath>
		<linearGradient id="g23" x1="49.4" y1="85.1" x2="1.3" y2="-39" gradientUnits="userSpaceOnUse">
			<stop offset="0" stop-color="#97c3f9"/>
			<stop offset="1" stop-color="#93c1f9"/>
		</linearGradient>
		<clipPath clipPathUnits="userSpaceOnUse" id="cp24">
			<path d="m62.63 75.02c0-1.96 1.62-3.55 3.61-3.55c1.99 0 3.6 1.59 3.6 3.55c0 1.95-1.61 3.54-3.6 3.54c-1.99 0-3.61-1.59-3.61-3.54z" />
		</clipPath>
		<linearGradient id="g24" x1="67.5" y1="78.1" x2="19.4" y2="-46" gradientUnits="userSpaceOnUse">
			<stop offset="0" stop-color="#97c3f9"/>
			<stop offset="1" stop-color="#93c1f9"/>
		</linearGradient>
		<clipPath clipPathUnits="userSpaceOnUse" id="cp25">
			<path d="m83.51 75.02c0-1.96 1.62-3.55 3.61-3.55c1.99 0 3.6 1.59 3.6 3.55c0 1.95-1.61 3.54-3.6 3.54c-1.99 0-3.61-1.59-3.61-3.54z" />
		</clipPath>
		<linearGradient id="g25" x1="85.5" y1="71.1" x2="37.4" y2="-53" gradientUnits="userSpaceOnUse">
			<stop offset="0" stop-color="#97c3f9"/>
			<stop offset="1" stop-color="#93c1f9"/>
		</linearGradient>
	</defs>
	<style>
		.s0 { fill: url(#g1) } 
		.s1 { fill: url(#g2) } 
		.s2 { fill: url(#g3) } 
		.s3 { fill: url(#g4) } 
		.s4 { fill: url(#g5) } 
		.s5 { fill: url(#g6) } 
		.s6 { fill: url(#g7) } 
		.s7 { fill: url(#g8) } 
		.s8 { fill: url(#g9) } 
		.s9 { fill: url(#g10) } 
		.s10 { fill: url(#g11) } 
		.s11 { fill: url(#g12) } 
		.s12 { fill: url(#g13) } 
		.s13 { fill: url(#g14) } 
		.s14 { fill: url(#g15) } 
		.s15 { fill: url(#g16) } 
		.s16 { fill: url(#g17) } 
		.s17 { fill: url(#g18) } 
		.s18 { fill: url(#g19) } 
		.s19 { fill: url(#g20) } 
		.s20 { fill: url(#g21) } 
		.s21 { fill: url(#g22) } 
		.s22 { fill: url(#g23) } 
		.s23 { fill: url(#g24) } 
		.s24 { fill: url(#g25) } 
	</style>
	<g id="Layer" style="opacity: .3">
		<g id="Clip-Path" clip-path="url(#cp1)">
			<g id="Layer">
				<path id="Layer" class="s0" d="m0 3.9c0-2 1.6-3.6 3.6-3.6c2 0 3.6 1.6 3.6 3.6c0 1.9-1.6 3.5-3.6 3.5c-2 0-3.6-1.6-3.6-3.5z" />
			</g>
		</g>
		<g id="Clip-Path" clip-path="url(#cp2)">
			<g id="Layer">
				<path id="Layer" class="s1" d="m20.9 3.9c0-2 1.6-3.6 3.6-3.6c2 0 3.6 1.6 3.6 3.6c0 1.9-1.6 3.5-3.6 3.5c-2 0-3.6-1.6-3.6-3.5z" />
			</g>
		</g>
		<g id="Clip-Path" clip-path="url(#cp3)">
			<g id="Layer">
				<path id="Layer" class="s2" d="m41.8 3.9c0-2 1.6-3.6 3.6-3.6c2 0 3.6 1.6 3.6 3.6c0 1.9-1.6 3.5-3.6 3.5c-2 0-3.6-1.6-3.6-3.5z" />
			</g>
		</g>
		<g id="Clip-Path" clip-path="url(#cp4)">
			<g id="Layer">
				<path id="Layer" class="s3" d="m62.6 3.9c0-2 1.6-3.6 3.6-3.6c2 0 3.6 1.6 3.6 3.6c0 1.9-1.6 3.5-3.6 3.5c-2 0-3.6-1.6-3.6-3.5z" />
			</g>
		</g>
		<g id="Clip-Path" clip-path="url(#cp5)">
			<g id="Layer">
				<path id="Layer" class="s4" d="m83.5 3.9c0-2 1.6-3.6 3.6-3.6c2 0 3.6 1.6 3.6 3.6c0 1.9-1.6 3.5-3.6 3.5c-2 0-3.6-1.6-3.6-3.5z" />
			</g>
		</g>
		<g id="Clip-Path" clip-path="url(#cp6)">
			<g id="Layer">
				<path id="Layer" class="s5" d="m0 21.7c0-2 1.6-3.6 3.6-3.6c2 0 3.6 1.6 3.6 3.6c0 1.9-1.6 3.5-3.6 3.5c-2 0-3.6-1.6-3.6-3.5z" />
			</g>
		</g>
		<g id="Clip-Path" clip-path="url(#cp7)">
			<g id="Layer">
				<path id="Layer" class="s6" d="m20.9 21.7c0-2 1.6-3.6 3.6-3.6c2 0 3.6 1.6 3.6 3.6c0 1.9-1.6 3.5-3.6 3.5c-2 0-3.6-1.6-3.6-3.5z" />
			</g>
		</g>
		<g id="Clip-Path" clip-path="url(#cp8)">
			<g id="Layer">
				<path id="Layer" class="s7" d="m41.8 21.7c0-2 1.6-3.6 3.6-3.6c2 0 3.6 1.6 3.6 3.6c0 1.9-1.6 3.5-3.6 3.5c-2 0-3.6-1.6-3.6-3.5z" />
			</g>
		</g>
		<g id="Clip-Path" clip-path="url(#cp9)">
			<g id="Layer">
				<path id="Layer" class="s8" d="m62.6 21.7c0-2 1.6-3.6 3.6-3.6c2 0 3.6 1.6 3.6 3.6c0 1.9-1.6 3.5-3.6 3.5c-2 0-3.6-1.6-3.6-3.5z" />
			</g>
		</g>
		<g id="Clip-Path" clip-path="url(#cp10)">
			<g id="Layer">
				<path id="Layer" class="s9" d="m83.5 21.7c0-2 1.6-3.6 3.6-3.6c2 0 3.6 1.6 3.6 3.6c0 1.9-1.6 3.5-3.6 3.5c-2 0-3.6-1.6-3.6-3.5z" />
			</g>
		</g>
		<g id="Clip-Path" clip-path="url(#cp11)">
			<g id="Layer">
				<path id="Layer" class="s10" d="m0 39.4c0-1.9 1.6-3.5 3.6-3.5c2 0 3.6 1.6 3.6 3.5c0 2-1.6 3.6-3.6 3.6c-2 0-3.6-1.6-3.6-3.6z" />
			</g>
		</g>
		<g id="Clip-Path" clip-path="url(#cp12)">
			<g id="Layer">
				<path id="Layer" class="s11" d="m20.9 39.4c0-1.9 1.6-3.5 3.6-3.5c2 0 3.6 1.6 3.6 3.5c0 2-1.6 3.6-3.6 3.6c-2 0-3.6-1.6-3.6-3.6z" />
			</g>
		</g>
		<g id="Clip-Path" clip-path="url(#cp13)">
			<g id="Layer">
				<path id="Layer" class="s12" d="m41.8 39.4c0-1.9 1.6-3.5 3.6-3.5c2 0 3.6 1.6 3.6 3.5c0 2-1.6 3.6-3.6 3.6c-2 0-3.6-1.6-3.6-3.6z" />
			</g>
		</g>
		<g id="Clip-Path" clip-path="url(#cp14)">
			<g id="Layer">
				<path id="Layer" class="s13" d="m62.6 39.4c0-1.9 1.6-3.5 3.6-3.5c2 0 3.6 1.6 3.6 3.5c0 2-1.6 3.6-3.6 3.6c-2 0-3.6-1.6-3.6-3.6z" />
			</g>
		</g>
		<g id="Clip-Path" clip-path="url(#cp15)">
			<g id="Layer">
				<path id="Layer" class="s14" d="m83.5 39.4c0-1.9 1.6-3.5 3.6-3.5c2 0 3.6 1.6 3.6 3.5c0 2-1.6 3.6-3.6 3.6c-2 0-3.6-1.6-3.6-3.6z" />
			</g>
		</g>
		<g id="Clip-Path" clip-path="url(#cp16)">
			<g id="Layer">
				<path id="Layer" class="s15" d="m0 57.2c0-1.9 1.6-3.5 3.6-3.5c2 0 3.6 1.6 3.6 3.5c0 2-1.6 3.6-3.6 3.6c-2 0-3.6-1.6-3.6-3.6z" />
			</g>
		</g>
		<g id="Clip-Path" clip-path="url(#cp17)">
			<g id="Layer">
				<path id="Layer" class="s16" d="m20.9 57.2c0-1.9 1.6-3.5 3.6-3.5c2 0 3.6 1.6 3.6 3.5c0 2-1.6 3.6-3.6 3.6c-2 0-3.6-1.6-3.6-3.6z" />
			</g>
		</g>
		<g id="Clip-Path" clip-path="url(#cp18)">
			<g id="Layer">
				<path id="Layer" class="s17" d="m41.8 57.2c0-1.9 1.6-3.5 3.6-3.5c2 0 3.6 1.6 3.6 3.5c0 2-1.6 3.6-3.6 3.6c-2 0-3.6-1.6-3.6-3.6z" />
			</g>
		</g>
		<g id="Clip-Path" clip-path="url(#cp19)">
			<g id="Layer">
				<path id="Layer" class="s18" d="m62.6 57.2c0-1.9 1.6-3.5 3.6-3.5c2 0 3.6 1.6 3.6 3.5c0 2-1.6 3.6-3.6 3.6c-2 0-3.6-1.6-3.6-3.6z" />
			</g>
		</g>
		<g id="Clip-Path" clip-path="url(#cp20)">
			<g id="Layer">
				<path id="Layer" class="s19" d="m83.5 57.2c0-1.9 1.6-3.5 3.6-3.5c2 0 3.6 1.6 3.6 3.5c0 2-1.6 3.6-3.6 3.6c-2 0-3.6-1.6-3.6-3.6z" />
			</g>
		</g>
		<g id="Clip-Path" clip-path="url(#cp21)">
			<g id="Layer">
				<path id="Layer" class="s20" d="m0 75c0-1.9 1.6-3.5 3.6-3.5c2 0 3.6 1.6 3.6 3.5c0 2-1.6 3.6-3.6 3.6c-2 0-3.6-1.6-3.6-3.6z" />
			</g>
		</g>
		<g id="Clip-Path" clip-path="url(#cp22)">
			<g id="Layer">
				<path id="Layer" class="s21" d="m20.9 75c0-1.9 1.6-3.5 3.6-3.5c2 0 3.6 1.6 3.6 3.5c0 2-1.6 3.6-3.6 3.6c-2 0-3.6-1.6-3.6-3.6z" />
			</g>
		</g>
		<g id="Clip-Path" clip-path="url(#cp23)">
			<g id="Layer">
				<path id="Layer" class="s22" d="m41.8 75c0-1.9 1.6-3.5 3.6-3.5c2 0 3.6 1.6 3.6 3.5c0 2-1.6 3.6-3.6 3.6c-2 0-3.6-1.6-3.6-3.6z" />
			</g>
		</g>
		<g id="Clip-Path" clip-path="url(#cp24)">
			<g id="Layer">
				<path id="Layer" class="s23" d="m62.6 75c0-1.9 1.6-3.5 3.6-3.5c2 0 3.6 1.6 3.6 3.5c0 2-1.6 3.6-3.6 3.6c-2 0-3.6-1.6-3.6-3.6z" />
			</g>
		</g>
		<g id="Clip-Path" clip-path="url(#cp25)">
			<g id="Layer">
				<path id="Layer" class="s24" d="m83.5 75c0-1.9 1.6-3.5 3.6-3.5c2 0 3.6 1.6 3.6 3.5c0 2-1.6 3.6-3.6 3.6c-2 0-3.6-1.6-3.6-3.6z" />
			</g>
		</g>
	</g>
</svg>