<svg version="1.2" xmlns="http://www.w3.org/2000/svg" viewBox="0 0 45 79" width="220" height="386">
	<title>image</title>
	<style>
		.s0 { fill: #635dad } 
		.s1 { fill: #443e90 } 
		.s2 { fill: #ffa47f } 
		.s3 { fill: #f27049 } 
		.s4 { fill: #ffdebe } 
		.s5 { fill: #ffffff } 
		.s6 { fill: #412014 } 
	</style>
	<path id="Layer" class="s0" d="m24 22.3q-6.1 39.4-8.7 39.6c-2.6 0.3-9.7-1.7-11.1-5c-1.4-3.4-1.7-10.5 1.8-19.9c1.4-3.8 0.6-8.7 0-14q-0.5-5.4 2.2-12.4z" />
	<path id="Layer" class="s1" d="m13 7.8c1.5 0.1 25.2 33.8 24 35.2q-1.3 1.3-25.7 2.4c-3.5-5-0.2-10.2-2.5-16q-1.8-4.6-0.5-19.5q3.1-2.3 4.7-2.1z" />
	<path id="Layer" class="s2" d="m28 31.1q0 0 0 0.1q0 0 0 0.1c0 0.7-0.2 2.9-0.1 5.2c0.1 1.1 0.1 2.3 0.2 3.2q-13.4 4.2-10.4-0.3c0.3-2.3 0.1-5.9-0.3-9.4z" />
	<path id="Layer" class="s3" d="m28.2 27.7q-0.2 2.6-0.2 4.9c-1.8 2.1-7.9 5.5-10.1 3.9c0-0.9 0-2.2-0.1-3c0.1-0.6 0-1.4-0.2-2.5q-0.1-0.5-0.2-1z" />
	<path id="Layer" class="s4" d="m17.7 39.4q-0.7 1.8 0.3 1.9l-2.5 1.6q0.3-3 1-3.5q0.6-0.3 1.2 0z" />
	<path id="Layer" class="s4" d="m29.3 39.1q-3.9 3.6-11.1 4.8l-0.2-2.6q3.6 0.2 11.3-2.2z" />
	<path id="Layer" class="s0" d="m17.2 2q20-7.8 23.5 15.5c0.8 5.7-2.6 14.6 0.7 20.5c5.2 9.1 2.7 17.5 0.3 20c-2.4 2.5-11.5 4-16.1 1.4c-4.5-2.6-0.9-19 1.3-21.9q2.3-3.1 0.4-12.6l0.6-6.8z" />
	<path id="Layer" class="s2" d="m29.4 13.1q0.3 11.7-0.9 15c-1.2 3.1-7.2 7.6-10.4 7.8c-3.2 0.1-7.9-6.9-8.8-9.4c-0.9-2.5-0.9-10.7-0.8-12.7c0.2-1.8 1.5-7.2 2.3-8c0.8-0.9 15.8-0.4 18.6 7.3z" />
	<path id="Layer" class="s3" d="m15.5 21c0.3 0.7 0.4 1.5 0.3 2.2c0 0.8-0.2 1.6-0.6 2.2v-0.6c0.1 0.2 0.4 0.5 0.8 0.6c0.5 0.1 1.1 0.1 1.6 0.4c-0.5 0.2-0.9 0.4-1.6 0.5q-0.5 0.1-1-0.1c-0.3-0.2-0.7-0.3-0.9-0.7l-0.1-0.3v-0.3c0.7-1.2 0.9-2.5 1.5-3.9z" />
	<path id="Layer" class="s5" d="m20.8 18.7c2.5 0.2 3.2 2.8 2.3 3.3c-2 1.1-5.2 0.1-5.1-1c0-0.9 0.9-2.3 2.8-2.3z" />
	<path id="Layer" class="s6" d="m20.9 22.1c-0.9 0-1.5-0.6-1.6-1.3c-0.1-0.9 0.5-1.6 1.4-1.6c0.7-0.1 1.5 0.5 1.6 1.2c0.1 0.9-0.5 1.6-1.4 1.7z" />
	<path id="Layer" class="s5" d="m19.7 20.2c-0.3 0-0.5-0.2-0.5-0.4c-0.1-0.4 0.2-0.5 0.4-0.6c0.3 0 0.5 0.1 0.5 0.5c0.1 0.2-0.1 0.5-0.4 0.5z" />
	<path id="Layer" class="s5" d="m12.1 18.6c2.2 0 3.2 2.5 2.5 3c-1.7 1.2-4.8 0.5-4.8-0.6c-0.1-0.8 0.5-2.3 2.3-2.4z" />
	<path id="Layer" class="s6" d="m12.6 22c-0.9 0.1-1.7-0.4-1.9-1.2c-0.1-0.8 0.4-1.6 1.3-1.8c0.7-0.2 1.5 0.4 1.7 1.2c0.2 0.8-0.3 1.6-1.1 1.8z" />
	<path id="Layer" class="s5" d="m11.1 20.2c-0.4 0.1-0.6-0.1-0.6-0.4c-0.1-0.3 0.1-0.5 0.3-0.6c0.3 0 0.6 0.1 0.6 0.4c0.1 0.2 0 0.5-0.3 0.6z" />
	<path id="Layer" class="s1" d="m25 17.3c-3.8-1.4-6.2-0.7-6.4-1.1c-0.4-0.5-0.5-1.6 0.1-1.7c2.5-0.5 6.6 2.9 6.3 2.8z" />
	<path id="Layer" class="s1" d="m13.6 14.8c0.5 0 0.4 1.2 0.1 1.7c-0.3 0.5-2.4-0.4-6.3 1c-0.1 0.1 3.9-3.3 6.2-2.7z" />
	<path id="Layer" class="s6" d="m14.3 19.7c-0.4-0.4-0.9-0.7-1.3-0.9c-0.5-0.1-1-0.1-1.5 0q-0.8 0.2-1.3 0.9c-0.2 0.3-0.5 0.8-0.4 1.3c-0.2-0.5 0-1 0.2-1.5c0.3-0.4 0.8-0.8 1.4-0.9c0.6-0.2 1.2-0.2 1.7 0.1c0.5 0.1 0.9 0.6 1.2 1z" />
	<path id="Layer" class="s6" d="m18.5 19.8c0.2-0.5 0.7-0.9 1.2-1.1c0.6 0 1.1-0.1 1.7 0c0.6 0.1 1.1 0.5 1.4 0.9c0.4 0.4 0.6 0.9 0.6 1.4c0-0.5-0.4-0.9-0.7-1.2q-0.6-0.7-1.3-0.8q-0.8-0.1-1.6 0c-0.5 0.2-1 0.3-1.3 0.8z" />
	<path id="Layer" class="s0" d="m3.7 10.2c-2.9-3.5 3-11 7.7-8.3q12-2.9 17.9-0.3c1.9 0.9 3.7 2.4 5.3 4.8q0 0.1 0 0.1q3.5 5.7-3.3 13.6q-2.4-0.1-3.4 0.8q-1.2-4.1-0.5-8.7q-19.7 2.7-23.7-2z" />
	<path id="Layer" class="s2" d="m27.7 20.3c1-0.8 4-0.9 4.7 0.7c0.9 2.1-2.7 6.5-5.1 3.9c-1-1.1-0.5-4 0.4-4.6z" />
	<path id="Layer" class="s3" d="m28.8 21.4q2.2-1 2.3 0.1c0.1 1.7-1.5 2.7-2.1 2.8q0.7-0.8 0.5-1.7q-0.2-0.8-0.7-1.2z" />
	<path id="Layer" class="s6" d="m17.4 32.1q-1.5 0-1.7-3.1q1.9 0.5 4.1-1.3c-0.1 1.6-1 4.3-2.4 4.4z" />
	<path id="Layer" class="s5" d="m19.8 27.7q0 0.5-0.2 1.2c-0.9 0.9-3.2 1.3-3.5 1.1q-0.2-0.2-0.4-1q1.9 0.4 4.1-1.3z" />
</svg>