<svg version="1.2" xmlns="http://www.w3.org/2000/svg" viewBox="0 0 30 30" width="30" height="30">
	<title>image</title>
	<style>
		.s0 { fill: #230b34 } 
		.s1 { opacity: .1;fill: #605bff } 
	</style>
	<path id="Layer" class="s0" d="m17.7 13.5l-3.9 5.1c-0.1 0.2-0.4 0.3-0.7 0.3l-1.5 0.1q-0.2-0.1-0.2-0.2l-0.4-1.5c0-0.3 0-0.6 0.2-0.8l2.8-3.6c0-0.1 0.1-0.1 0.2 0l1.1 0.9q0.1 0.1 0.3 0.1c0.2 0 0.4-0.3 0.4-0.5q-0.1-0.2-0.2-0.3c0 0-1.1-0.9-1.1-0.9c-0.1 0-0.1-0.1 0-0.2l0.4-0.6c0.4-0.5 1.1-0.5 1.7-0.1l0.6 0.5q0.5 0.4 0.6 0.8q0.1 0.5-0.3 0.9z" />
	<path id="Layer" class="s1" d="m15 30c-8.3 0-15-6.7-15-15c0-8.3 6.7-15 15-15c8.3 0 15 6.7 15 15c0 8.3-6.7 15-15 15z" />
</svg>