<svg version="1.2" xmlns="http://www.w3.org/2000/svg" viewBox="0 0 208 224" width="208" height="224">
	<title>image</title>
	<style>
		.s0 { fill: #ffa47f } 
		.s1 { fill: #635dad } 
		.s2 { fill: #443e90 } 
		.s3 { fill: #f27049 } 
		.s4 { fill: #005644 } 
		.s5 { fill: #208674 } 
		.s6 { fill: #ffc17d } 
		.s7 { fill: #ff765f } 
		.s8 { fill: #f1543b } 
		.s9 { fill: #ffa44a } 
		.s10 { fill: #ffdebe } 
		.s11 { fill: #ffffff } 
		.s12 { fill: #412014 } 
		.s13 { fill: #d1e2ee } 
		.s14 { fill: #9f4424 } 
		.s15 { fill: #c17b4c } 
	</style>
	<path id="Layer" class="s0" d="m105 76.7q0.1 0 0.1 0.1c2.1-0.1 4.5 1.7 4.7 4.2c0 1.6-1.2 2.7-2.4 3.4c-1.2 0.7-3 1.6-4.2 0.8c-0.4-0.3-0.5-1-0.1-1.4c-0.4-0.1-0.7-0.4-0.9-0.9c-0.2-0.5-0.1-0.8 0.2-1.1c-0.5-0.1-1-0.5-0.9-1.3q0-0.6 0.3-0.9c-0.5-0.2-0.7-0.6-0.7-1.3c0-1.9 2.9-1.6 3.9-1.6z" />
	<path id="Layer" class="s0" d="m108.6 78.1l4.7 0.7v4.8l-4.1-0.7z" />
	<path id="Layer" class="s1" d="m152.1 25.7q-6.2 45.3-8.8 45.5c-2.6 0.2-9.8-2-11.2-5.8c-1.4-3.9-1.7-12.1 1.9-22.9c1.4-4.4 0.5-9.9 0-16q-0.5-6.2 2.2-14.2z" />
	<path id="Layer" class="s2" d="m141 9c1.5 0.1 25.4 38.9 24.2 40.4q-1.3 1.6-26 2.9c-3.5-5.9-0.1-11.8-2.4-18.4q-1.9-5.4-0.5-22.4q3.1-2.7 4.7-2.5z" />
	<path id="Layer" class="s0" d="m200.9 74.9c1.1 1.8-0.1 4.2-0.9 5c-0.7 0.6-2.8-0.4-3.3-0.4c-1 0.4-2.9 1.1-3.8 1.3q-0.3 0.1-1.4-3.7q1-0.7 2-0.9c0.9-1.7 2.1-3.4 4.1-3.4c0.4 0 2.8 1.1 3.3 2.1z" />
	<path id="Layer" class="s0" d="m203 75.8c-1.6 0.9-3.8 0.4-5.4-0.4c-0.3-0.2-0.3-0.5-0.2-0.6q-0.2-0.1-0.6-0.2c-0.5-0.1-0.4-0.9 0.1-0.8c1 0.2 2 0.4 3 0.5c1.2 0.1 2.1-0.2 3.1-1c0.9-0.6 1.6-1.2 2.9-1.1c0.1 0 0.3 0.2 0.3 0.3c0.1 0.5-0.3 0.8-0.6 1.1c-0.8 0.8-1.7 1.6-2.6 2.2z" />
	<path id="Layer" class="s0" d="m203.9 78.6c-1.6 1-3.8 0.5-5.3-0.3c-0.4-0.1-0.4-0.5-0.2-0.7q-0.3 0-0.6-0.1c-0.5-0.1-0.5-0.9 0.1-0.8c0.9 0.2 1.9 0.4 2.9 0.4c1.3 0.1 2.2-0.2 3.1-0.9c1-0.7 1.7-1.3 2.9-1.2c0.2 0.1 0.4 0.2 0.4 0.4c0.1 0.5-0.3 0.7-0.6 1c-0.8 0.8-1.7 1.7-2.7 2.2z" />
	<path id="Layer" class="s0" d="m202.3 80.6c-1.7 0.6-4.6 0-6-1.2c-0.3-0.2 0.7-0.8 0.9-1q-0.3-0.1-0.6-0.2c-0.5-0.2-0.2-1 0.3-0.8c0.9 0.4 1.8 0.8 2.8 1.1c1.2 0.3 2.1 0.2 3.3-0.2c1-0.5 1.8-0.9 3-0.5c0.2 0 0.3 0.2 0.3 0.4c0 0.4-0.4 0.5-0.8 0.8c-1 0.6-2 1.3-3.2 1.6z" />
	<path id="Layer" class="s0" d="m204.1 77.2c-1.6 1-3.7 0.4-5.4-0.4c-0.2-0.2-0.3-0.5 0-0.7q-0.4-0.1-0.7-0.1c-0.5-0.1-0.5-1 0-0.9c1.1 0.2 2.1 0.4 3 0.5c1.3 0.1 2.1-0.2 3.2-0.8c0.9-0.7 1.7-1.3 2.8-1.2c0.3 0 0.3 0.2 0.4 0.4c0.1 0.4-0.3 0.7-0.6 0.9c-0.8 0.8-1.6 1.7-2.7 2.3z" />
	<path id="Layer" class="s0" d="m198.7 73.3c-1.1 0.6-1.6 2-3.1 1.6c-0.2 0-0.3-0.1-0.3-0.2c-0.2-0.2-0.4-0.4-0.2-0.7c0.7-1.1 1.6-2.3 2.8-2.8c1.1-0.6 2.7-0.3 3.9-0.3c0.3 0 0.5 0.3 0.4 0.5c-0.6 1.8-2.2 1.2-3.5 1.9z" />
	<path id="Layer" class="s3" d="m200.9 75q1.3 2.7-0.8 4.8q0.8-2.2 0.8-4.8z" />
	<path id="Layer" class="s3" d="m199.1 75.6q-0.3 0.6-1.8 1.3q1.8-1 1.6-2.6q0.5 0.6 0.2 1.3z" />
	<path id="Layer" class="s4" d="m145.7 45.1c2.9-1.7 2.6 19.6-10.9 42.5c-3.5 5.8-8.2-2.3-6.6-6c1.8-4.3 4.9-29.8 17.5-36.5z" />
	<path id="Layer" class="s4" d="m131.6 89.6q-3.1-0.4-20.3-6.2l-0.1-5.3q19.1 0.9 24 1.9c3.4 0.6 0.3 10.1-3.6 9.6z" />
	<path id="Layer" class="s5" d="m136 65.8l2.2 5.6l-1.3 14.7l-3.7 3.3q1-13.5 1-15.3q0-2-1.5-8.3z" />
	<path id="Layer" class="s0" d="m172.5 203.8l-1.1 2.7q-9.3-9.1-19-19.3q-1.7-1.8-3.5-3.6c-9.9-10.3-19.4-20.7-20-23.4c-0.4-1.6-0.5-4.6-0.4-8.5c0.1-3.3 0.4-7.4 0.7-11.6q1.5-15.9 4.3-34.7l27.3 2.6q-8.5 22.4-12.9 37c-1.7 6-2.8 10.7-2.3 11.9c0.4 1.3 2.7 5.5 5.8 10.8q7.9 14 21.1 36.1z" />
	<path id="Layer" class="s3" d="m152.4 187.6l-3.5-4q-1.4-22-2.1-24.1c-0.8-2.3-10.3-8.6-18.4-7.8c0.2-3.3 0.5-7.4 0.8-11.6l18.7 4.9c-1.7 6-2.8 10.7-2.3 11.9c0.4 1.3 2.7 5.5 5.8 10.8l1 19.5z" />
	<path id="Layer" class="s3" d="m160 182.6l3.3 5.6l-1.7 8.5l-3.7-3.8z" />
	<path id="Layer" class="s0" d="m157.6 97q10.3 21.9 9 42.4q-1.3 20.6-8.7 77.9h-3q-12-88.5-9.5-98.9q2.4-10.4 3.1-23.1z" />
	<path id="Layer" class="s3" d="m165.7 150.9l-0.6 5q-7.1 1.2-17.8-1.4l-0.5-5.9z" />
	<path id="Layer" class="s6" d="m158.6 83.5q9.7 24.2 14.6 67.9q-26.2 4.7-49.6-6.5q2.5-25.3 11.7-60.7q8.3 2.5 23.3-0.7z" />
	<path id="Layer" class="s7" d="m158 216.8l0.6 3.9h-13.2q4.3-3.9 8.4-3.9h1.1c0.8 0.7 2.1 0.7 3 0.1z" />
	<path id="Layer" class="s8" d="m158.6 221.8h-13.2v-1.1h13.2z" />
	<path id="Layer" class="s7" d="m171 201.3l3.1 2.1l-8.6 11.2q0.2-6.2 2.9-9.7l0.6-0.9c1-0.3 1.8-1.3 2-2.5z" />
	<path id="Layer" class="s8" d="m174.8 204.1l-8.5 11.1l-0.8-0.6l8.6-11.2z" />
	<path id="Layer" class="s9" d="m158.6 83.5q8.6 25.2 14.6 67.9l-13.2 1.1q-2.7-31-8.2-33.5c-5.5-2.7-5.4-5.5-4.7-9.3q0.7-3.8 1.9-24.4z" />
	<path id="Layer" class="s4" d="m135 69.2q-4.2-3.8-2.7-8.2q1.4-4.4 12.2-15.6q9-1 12.4-3.6q2 1.2 4.1 2.8q0.4 0.3 0.9 0.7c1.5 1.2 2.9 2.6 3.2 3.8q0 0.2 0.1 0.3c0.2 1.2-0.2 3.5-0.9 6.4q0 0.3 0 0.5c-0.5 1.7-0.9 3.8-1.5 5.7q-0.1 0.4-0.2 0.8q-0.4 1.3-0.8 2.7q0 0-0.1 0c-1 3.6-2 6.9-2.5 9q-1.8 6.1-0.6 9q-1.8 0.4-4.3 0.9c-5.8 1.1-16 2.4-19-0.2c0.3-3.8 0.4-11.8-0.3-15z" />
	<path id="Layer" class="s0" d="m156.1 35.8q0 0 0 0.1q0 0 0 0.1c0 0.8-0.2 3.3-0.1 5.9c0.1 1.4 0.1 2.7 0.3 3.7q-13.6 4.9-10.6-0.2c0.4-2.7 0.1-6.9-0.2-10.9z" />
	<path id="Layer" class="s3" d="m156.4 31.9q-0.3 2.9-0.3 5.6c-1.8 2.4-7.9 6.3-10.2 4.4c0-0.9 0-2.4-0.1-3.4c0.1-0.6 0-1.6-0.2-2.8q0-0.6-0.1-1.2z" />
	<path id="Layer" class="s5" d="m135 69.2c4.7 0.3 12.4 2.1 16.5-0.4q-4.9 5.1-15.9 5.3q-0.2-3-0.6-4.9z" />
	<path id="Layer" class="s5" d="m154.3 84.4c4.2-10.7 2-24.3 5.1-32.6c4.8 2.7 2.5 12.1 3.2 11c-1.1 3.6-2.9 9.6-3.4 11.7q-1.8 6.1-0.6 9q-1.8 0.4-4.3 0.9z" />
	<path id="Layer" class="s4" d="m172.9 57.5q4.6 17.3 5.7 21.1c1.1 4-5.4 17.8-7.9 11.3c-9.9-25-10.9-44.5-7.8-45.5q6-1.9 10 13.1z" />
	<path id="Layer" class="s5" d="m179 80.1q-4.5 1.3-4.7 3.4q0-15.5 0.3-19.6z" />
	<path id="Layer" class="s4" d="m173.8 81.8q2.6-2.6 19.7-6l0.5 5.4q-14.4 8.6-17.4 9.6c-3.7 1.4-5.3 0.9-5.8-0.7c-1.2-3.4 0.4-5.7 3-8.3z" />
	<path id="Layer" class="s10" d="m145.7 45.4q-0.7 2 0.4 2.1l-2.6 1.8q0.3-3.5 1-3.9q0.6-0.4 1.2 0z" />
	<path id="Layer" class="s10" d="m157.5 45q-3.9 4.1-11.2 5.5l-0.2-3q3.6 0.2 11.4-2.5z" />
	<path id="Layer" class="s1" d="m145.2 2.3q20.2-8.9 23.8 17.8c0.8 6.6-2.6 16.8 0.7 23.6c5.2 10.5 2.7 20.1 0.3 23c-2.5 2.9-11.6 4.5-16.3 1.6c-4.5-3-0.9-21.8 1.3-25.2q2.3-3.5 0.5-14.4l0.5-7.8z" />
	<path id="Layer" class="s0" d="m157.6 15.1q0.2 13.5-1 17.2c-1.1 3.6-7.3 8.8-10.4 9c-3.3 0.2-8-7.9-9-10.8c-0.9-2.9-0.9-12.3-0.8-14.5c0.2-2.2 1.6-8.3 2.4-9.3c0.8-1 15.9-0.4 18.8 8.4z" />
	<path id="Layer" class="s3" d="m143.5 24.2c0.3 0.8 0.4 1.7 0.3 2.6c0 0.8-0.2 1.7-0.6 2.5v-0.7c0.1 0.2 0.4 0.5 0.9 0.6c0.4 0.2 1 0.2 1.6 0.5c-0.6 0.3-1 0.5-1.7 0.6q-0.5 0.1-1-0.1c-0.3-0.2-0.7-0.4-0.9-0.8l-0.1-0.4l0.1-0.3c0.6-1.4 0.8-2.9 1.4-4.5z" />
	<path id="Layer" class="s11" d="m148.9 21.6c2.5 0.2 3.2 3.2 2.3 3.7c-2 1.3-5.3 0.2-5.2-1.1c0-1 1-2.7 2.9-2.6z" />
	<path id="Layer" class="s12" d="m149 25.5c-0.9 0-1.6-0.7-1.7-1.6c-0.1-0.9 0.5-1.8 1.4-1.8c0.8-0.1 1.6 0.6 1.7 1.4c0.1 1-0.5 1.9-1.4 2z" />
	<path id="Layer" class="s11" d="m147.8 23.3c-0.3 0-0.6-0.2-0.6-0.5c-0.1-0.4 0.2-0.6 0.5-0.7c0.2 0 0.5 0.2 0.5 0.6c0.1 0.3-0.2 0.6-0.4 0.6z" />
	<path id="Layer" class="s11" d="m140.1 21.4c2.2 0 3.2 2.9 2.5 3.5c-1.7 1.4-4.8 0.6-4.8-0.7c-0.1-0.9 0.5-2.7 2.3-2.8z" />
	<path id="Layer" class="s12" d="m140.6 25.3c-0.9 0.2-1.7-0.4-1.9-1.4c-0.2-0.8 0.4-1.8 1.2-2c0.8-0.2 1.6 0.5 1.8 1.4c0.2 0.9-0.4 1.8-1.1 2z" />
	<path id="Layer" class="s11" d="m139.1 23.3c-0.4 0-0.6-0.1-0.6-0.4c-0.1-0.4 0-0.7 0.3-0.8c0.3 0 0.6 0.2 0.6 0.5c0.1 0.3-0.1 0.6-0.3 0.7z" />
	<path id="Layer" class="s2" d="m153.1 19.9c-3.9-1.6-6.2-0.7-6.5-1.2c-0.3-0.6-0.4-1.9 0.2-2c2.4-0.6 6.6 3.3 6.3 3.2z" />
	<path id="Layer" class="s2" d="m141.6 17c0.5 0.1 0.5 1.5 0.1 2c-0.3 0.6-2.5-0.4-6.3 1.1c-0.2 0.1 3.8-3.7 6.2-3.1z" />
	<path id="Layer" class="s12" d="m142.3 22.7c-0.4-0.5-0.9-0.8-1.3-1c-0.5-0.1-1.1-0.1-1.5 0q-0.8 0.2-1.3 1c-0.3 0.4-0.5 0.9-0.5 1.5c-0.1-0.6 0-1.1 0.3-1.7c0.3-0.5 0.8-1 1.4-1.1c0.5-0.2 1.2-0.2 1.7 0.1c0.5 0.2 1 0.7 1.2 1.2z" />
	<path id="Layer" class="s12" d="m146.5 22.8c0.2-0.6 0.7-1 1.3-1.2c0.6-0.1 1.1-0.2 1.7-0.1c0.5 0.2 1.1 0.6 1.4 1.1c0.4 0.5 0.6 1 0.6 1.6c-0.1-0.6-0.4-1-0.8-1.4q-0.5-0.8-1.3-0.9q-0.8-0.2-1.6 0c-0.5 0.2-0.9 0.4-1.3 0.9z" />
	<path id="Layer" class="s1" d="m131.6 11.8c-2.9-4 3-12.7 7.8-9.6q12.1-3.3 18-0.3c1.9 1.1 3.8 2.8 5.4 5.6q0 0.1 0 0.1q3.6 6.5-3.4 15.6q-2.3-0.1-3.4 0.9q-1.2-4.7-0.4-10q-20 3.1-24-2.3z" />
	<path id="Layer" class="s0" d="m155.8 23.3c1-0.8 4.1-0.9 4.8 0.9c0.8 2.4-2.8 7.4-5.1 4.5c-1.1-1.3-0.5-4.6 0.3-5.4z" />
	<path id="Layer" class="s3" d="m157 24.6q2.2-1.2 2.3 0.2c0 1.9-1.5 3-2.2 3.1q0.7-0.9 0.6-1.8q-0.2-1-0.7-1.5z" />
	<path id="Layer" class="s12" d="m145.4 36.9q-1.5 0.1-1.7-3.5q2 0.6 4.1-1.5c0 1.8-0.9 4.9-2.4 5z" />
	<path id="Layer" class="s11" d="m147.8 31.9q0 0.6-0.1 1.4c-1 1.1-3.3 1.4-3.5 1.2q-0.3-0.1-0.5-1.1q2 0.5 4.1-1.5z" />
	<path id="Layer" class="s9" d="m104.1 202.5c-1.2 2.2-2.4 4.5-3.8 6.7c-0.9 1.3-1.8 2.4-3.2 3.1c-1.9 0.9-4.2 0.7-6.2 0.6q-3.6-0.1-7.3-0.2q-7.6-0.2-15.3-0.3c-5.1-0.2-10.2-0.1-15.3-0.7c-4.8-0.5-8.9-2.4-13.4-4.2c-2.4-1-4.9-1.5-7.6-1.8c-1.6-0.2-3.2-0.6-4.6-1.7c-2.3-1.8-2.6-5-0.6-7.4c1.3-1.5 3.1-2.2 4.9-2.8c2.3-0.7 4.6-1.3 7-2q0.1 0 0.2 0c9.2-2.2 17.9-5.5 26.5-9.5c4-1.8 8.6-0.7 12.9-0.5q7.1 0.5 14.2 1c6.4 1.2 7.9 4.2 10.5 7.5c1.4 1.7 2.5 3.7 2.8 6.1c0.3 2.3-0.5 4.1-1.7 6.1z" />
	<path id="Layer" class="s9" d="m33 202.1c-1 1.4-2 2.6-3.1 3.7c-2.5 2.5-5 5-7.5 7.3c-2.1 1.9-4.3 3.3-7.1 3.9c-2.8 0.7-5.7 0.7-8.6 0.7c-1.6 0-4.2 0.4-5.4-1.3c-1.2-1.5 0-3.5 1.4-4.3c2.6-1.5 5.9-1.2 8.7-2.2c3.2-1.1 5.6-3.8 7.9-6.4q3.5-3.8 7-7.7c0-0.2 0.2-0.6 0.4-0.5c1.5 0.5 2.9 1.1 4.3 1.9c0.8 0.5 2.6 1.3 2.9 2.4c0.3 0.9-0.5 1.9-0.9 2.5z" />
	<path id="Layer" class="s6" d="m61.5 206.3c-1.2 2.9-3.3 5.2-5.4 7.4c-2.3 2.2-4.4 4.2-7.5 5c-2.5 0.7-13.7 2.6-9.7-3.8c0.7-1 1.4-1.9 2.4-2.5c1.3-1 2.8-1.1 4.1-1.9c1.5-1 2.6-3.2 3.4-5c0.8-1.7 1.5-3.5 2-5.3c-0.2-0.2 0-0.8 0.3-0.6c1.9 0.7 7.1-8.5 9.1-8.6c1.2-0.1 6.5 2.2 7.6 2.9c1.8 1.1-5.8 10.9-6.3 12.4z" />
	<path id="Layer" class="s6" d="m101.7 212.1c-1.2 5-8 3.9-11.5 3.8c-3.3 0-6.2 0.2-9.2 1.9c-1.7 0.9-3.5 1.6-5.4 0.7c-1.6-0.8-2.7-2.8-2.3-4.7c0.3-2.1 1.9-3.2 3.6-3.5c2.8-0.6 5.6 0 8.3-0.7c2.9-0.7 5.6-2.1 8.1-3.9c0-0.1 0.1-0.2 0.3-0.2c3.6-0.2 9.6 1 8.1 6.6z" />
	<path id="Layer" class="s6" d="m128.8 192.1c-1.7 2.9-4 6.3-7.4 5.8c0.6 0.6 1.2 1.2 1.9 1.6c0.3 0.3 0.2 0.7-0.2 0.7c-3.7 0-7.3-1-10.5-3q0.1 0.7 0.1 1.4c0 0.3-0.2 0.5-0.5 0.4c-8.2-3.4-15.8-8.5-22.4-14.9q-0.1 0-0.3 0c-0.5 0.1-0.5-0.7 0-0.8c6.4-1 12.4 1.9 18.5 3.8c6 2 13.1 2.9 18.3-1.9c0.1-0.2 0.4-0.2 0.5 0.1c1.2 1.9 1.5 4.3 0.6 6.5q0.5-0.2 1-0.3c0.2-0.1 0.6 0.3 0.4 0.6z" />
	<path id="Layer" class="s9" d="m123.3 223.8c-1.4 0.2-2.7-0.7-3.4-2c-0.8-1.5-0.3-2.3 0-3.6c0.9-3.3-3.9-5.3-5.9-5.8c-2.7-0.6-5.4-0.4-8-0.5c-4.6-0.3-9.1-1.2-13.1-4c-3.3-2.3-6-5.6-8.3-9.2c-0.2 0.2-0.6 0.1-0.6-0.3q0-0.4 0-0.7q0 0 0-0.1c-0.1-0.1-0.1-0.2 0-0.4c-0.2-2.8-0.6-6 0.6-8.5c1-2.4 2.6-4.5 4.7-5.8c0.2-0.2 1-0.3 1-0.1c3.9 0.3 8 0.7 11.3 3c3.5 2.6 5.8 6.5 8.2 10.1c3.1 4.2 6.6 7.7 10.8 10.4c3.3 2 7 4.4 7.6 8.8c0.6 3.6-1.2 8.4-4.9 8.7z" />
	<path id="Layer" fill-rule="evenodd" class="s2" d="m108.6 82.9c0.1 5-2.4 9.5-6.1 12.1c-0.1 0-0.1 0-0.2 0q-0.1 0.1-0.1 0.2q0 0.1 0 0.1q-0.1 0.1-0.2 0.1q0.1 0.1 0.2 0.3c4.5 8.8 8.5 19 9.9 29c1.2 8.2-1.5 15.9-5.4 22.6c-2.1 3.8-4.6 7.7-7.6 10.6c-3.2 3-13.2 10.5-17 12.2c-3.4 1.5-15.1 7-19.4 6.2c-0.8-0.2-0.8-1.6 0.1-1.5c3.9 0.8 15.3-4.4 19.2-6.2c3.7-1.7 13.6-9.1 16.6-12.2c2.8-2.8 5-6.4 7-9.9c4.5-7.7 6.7-15.7 4.7-24.7c-1.9-9-5.2-17.5-9.2-25.4q-0.1-0.3 0-0.6q0 0-0.1 0q0-0.1 0-0.1q-0.1 0-0.1 0c-4.8-1.5-6.6-7.6-6.7-12.7c-0.1-4.4 4.3-8 8.1-8.2c4.2-0.4 6.2 4 6.3 8.1zm-6.6-5.2c-1.2 0.2-2.5 1-3.5 1.9c-1.6 1.4-1.8 2.7-1.6 4.9c0.4 3.2 1.3 6.9 4.2 8.3q0.1-0.2 0.2-0.3c2.2-1.6 3.8-3.9 4.4-6.7c0.7-3 0.4-8.9-3.7-8.1z" />
	<path id="Layer" class="s11" d="m42.3 201.3c-15.5 0-28-13.9-28-31c0-17.2 12.5-31.1 28-31.1c15.5 0 28.1 13.9 28.1 31.1c0 17.1-12.6 31-28.1 31z" />
	<path id="Layer" class="s13" d="m42.3 192.3c-10.9 0-19.9-9.9-19.9-22c0-12.2 9-22 19.9-22c10.9 0 19.8 9.8 19.8 22c0 12.1-8.9 22-19.8 22z" />
	<path id="Layer" class="s6" d="m55 182.2c-1.8 2.6-4.6 3.9-7.3 4.8c-3 0.9-6.2 1.7-9.2 0.7c-2.5-0.9-4.7-2.7-6.2-5.1c-3.9-5.7-3.6-13.2-2.5-19.9c-0.2-0.1-0.3-0.3-0.1-0.5c2.2-3.3 5.2-4.4 8.8-5c3.4-0.7 8-1.2 11.3 0.3c6.4 2.8 6.2 9.6 6.8 15.2c0.3 3.4 0.4 6.7-1.6 9.5z" />
	<path id="Layer" class="s14" d="m47.1 168.6c0-1 0.6-1.6 1.5-1.6c0.8 0 1.5 0.6 1.5 1.6c0 0.9-0.7 1.7-1.5 1.7c-0.9 0-1.5-0.8-1.5-1.7z" />
	<path id="Layer" class="s14" d="m35.4 168.6c0-1 0.6-1.6 1.5-1.6c0.8 0 1.5 0.6 1.5 1.6c0 0.9-0.7 1.7-1.5 1.7c-0.9 0-1.5-0.8-1.5-1.7z" />
	<path id="Layer" class="s7" d="m46.3 185.2c-0.1 1.7 0.1 3.9-1.1 5.2c-0.9 0.8-2 0.8-2.7-0.1c-1.4-1.6-0.8-5.1-0.8-7.1c0-0.3 0.2-0.4 0.4-0.4c0.4-0.3 0.9-0.7 1.1-1.1c0.2-0.1 0.5-0.1 0.6 0c0.6 0.6 1.2 0.7 1.8 1q0.3 0.2 0.4 0.4c0.5 0.6 0.3 1.5 0.3 2.1z" />
	<path id="Layer" class="s15" d="m49.5 181.1c-1 1.4-3.1 2.5-4.7 1.8c-0.6-0.3-1-0.7-1.3-1.2c-0.3 0.8-0.8 1.5-1.8 1.9c-1.5 0.5-4.2 0.2-4.5-1.9c-0.1-0.6 0.6-0.8 0.7-0.3c0.3 1.9 3.3 1.9 4.4 0.9c0.5-0.6 0.7-1.3 0.8-2.2c-0.1-0.8-0.1-1.6-0.1-2.3q0-0.1 0-0.2c0-0.5 0.7-0.5 0.8 0q0 0.1 0 0.1q0 0.1 0 0.2c0 0.6 0 1.3 0 2.1c0.1 0.8 0.3 1.6 1 2c1.2 0.8 3.3-0.3 4.1-1.3c0.2-0.4 0.8 0 0.6 0.4z" />
	<path id="Layer" class="s14" d="m43.4 177.9c-0.1 0.2-0.3 0.2-0.5 0.2c-0.9-0.5-2.8-1.7-2.6-3.2c0.1-1.2 1.9-1.3 2.9-1.3c0.8 0 2.9 0 2.8 1.4c-0.1 1.3-1.6 2.4-2.6 2.9z" />
	<path id="Layer" class="s9" d="m31.9 192.2c-0.9 1.7-2.6 1-3.9 0.3c-4.8-2.7-5.9-8.9-5.6-14.2c0.2-3.1 0.6-6.1 2.2-8.6c1.6-2.6 3.7-4.5 4.6-7.5q0.1-0.2 0.2-0.2c0.1-0.5 0.4-0.7 0.9-0.7c0.2-0.1 0.4 0.2 0.4 0.4c0 3.8-0.3 7.9 0.3 11.7c0.5 3.3 1.7 6.5 2 9.9c0.2 2.7 0.1 6.3-1.1 8.9z" />
	<path id="Layer" class="s9" d="m51.6 183.3c0.2-3.4 1.5-6.6 2-9.9c0.5-3.8 0.3-7.9 0.2-11.7c0-0.2 0.1-0.5 0.4-0.4c0.4 0 0.7 0.2 1 0.7q0.1 0 0.1 0.2c0.9 3 3 4.9 4.6 7.5c1.6 2.5 2 5.5 2.2 8.6c0.3 5.3-0.8 11.5-5.5 14.2c-1.3 0.7-3.2 1.4-4-0.3c-1.2-2.6-1.3-6.2-1-8.9z" />
	<path id="Layer" class="s3" d="m107 78.6q0.3 0.3 0.4 1.7q0.3 0.5-0.1 1.8q0.3 0.7 0.1 1.4q-0.3 0.6-2.5 1.6q0.9-0.6 1.5-1.3q0.6-0.7 0.3-1.8q0.4-0.7-0.1-1.7q0.5-0.7-0.4-1.3q0.6-0.9-0.2-1.8q1.1 0.2 1 1.4z" />
	<path id="Layer" class="s0" d="m107.2 75.4c1.1 0.6 4.1 3.8 4.1 3.8c0.4 0.5-1.1 0.4-1.9 0.5c-0.9 0-1.9 0-2.4-0.7c-0.4-0.4-0.3-1.3-0.7-1.6c-0.5-0.4-1.3-0.1-1.9 0.1c-1 0.3-1.9-1.1-1-1.6c1-0.5 2.8-1.1 3.8-0.5z" />
	<path id="Layer" class="s0" d="m103.5 83.2q0.2-0.3 0.4-0.4q-0.4-0.1-0.5-0.1c-0.6-0.1-1.1-0.8-0.9-1.2q0-0.1 0.1-0.2q0 0-0.1 0c-0.6-0.1-1.2-1-1-1.5c-0.5-0.2-1-1-0.8-1.4c0.2-0.7 0.8-0.9 1.4-1.1q1.3-0.3 2.5-0.6c0.7-0.1 1.4 0.7 1.5 1.3q0 0.2 0 0.3c0.2-0.1 0.5-0.2 0.8-0.2c0.7-0.2 1.4 0.6 1.5 1.2c0 0.3 0 0.5-0.2 0.7c0.5 0.1 0.9 0.7 1 1.2c0.1 0.2 0 0.5-0.1 0.7c-0.2 0.2-0.6 0.3-1 0.4q0.3 0.3 0.3 0.6c0 0.3 0 0.5-0.2 0.7c-1 0.9-2.3 1.2-3.8 1c-0.5-0.1-1-0.9-0.9-1.4z" />
	<path id="Layer" class="s3" d="m106.1 78.3q-2.7 0.8-3.7 1q3.4-1.1 3.7-1.3z" />
	<path id="Layer" class="s3" d="m108.5 80.1q-0.5 0.3-3.7 0.8q1.2-0.2 3.4-0.9z" />
</svg>