<svg version="1.2" xmlns="http://www.w3.org/2000/svg" viewBox="0 0 61 60" width="150" height="148">
	<title>image</title>
	<defs>
		<linearGradient id="g1" x1="14.5" y1="53.6" x2="9.5" y2="8.3" gradientUnits="userSpaceOnUse">
			<stop offset="0" stop-color="#d2d1cd"/>
			<stop offset="1" stop-color="#abafb8"/>
		</linearGradient>
		<linearGradient id="g2" x1="31.8" y1="51.8" x2="26.7" y2="6.5" gradientUnits="userSpaceOnUse">
			<stop offset="0" stop-color="#d2d1cd"/>
			<stop offset="1" stop-color="#abafb8"/>
		</linearGradient>
		<linearGradient id="g3" x1="42.1" y1="53.2" x2="36.6" y2="4.2" gradientUnits="userSpaceOnUse">
			<stop offset="0" stop-color="#d2d1cd"/>
			<stop offset="1" stop-color="#abafb8"/>
		</linearGradient>
		<linearGradient id="g4" x1="30.7" y1="55" x2="25.3" y2="5.5" gradientUnits="userSpaceOnUse">
			<stop offset="0" stop-color="#d2d1cd"/>
			<stop offset="1" stop-color="#abafb8"/>
		</linearGradient>
		<linearGradient id="g5" x1="22.6" y1="54.3" x2="17.3" y2="6.9" gradientUnits="userSpaceOnUse">
			<stop offset="0" stop-color="#d2d1cd"/>
			<stop offset="1" stop-color="#abafb8"/>
		</linearGradient>
	</defs>
	<style>
		.s0 { fill: #fafafb } 
		.s1 { fill: url(#g1) } 
		.s2 { fill: url(#g2) } 
		.s3 { fill: url(#g3) } 
		.s4 { fill: url(#g4) } 
		.s5 { fill: url(#g5) } 
	</style>
	<path id="Layer" class="s0" d="m0 30c0-16.6 13.4-30 30-30h1c16.6 0 30 13.4 30 30c0 16.6-13.4 30-30 30h-1c-16.6 0-30-13.4-30-30z" />
	<path id="Layer" fill-rule="evenodd" class="s1" d="m11.1 20.9c-0.7-3.4 1.6-6.8 5.1-7.5c3.7-0.8 7.3 1.4 8 4.9c0.8 3.4-1.6 6.8-5.1 7.6c-3.7 0.7-7.2-1.5-8-5zm2.3-0.4c0.6 2.3 2.8 3.7 5.2 3.2c2.3-0.5 3.8-2.7 3.3-5c-0.5-2.1-2.8-3.6-5.1-3.1c-2.4 0.4-3.8 2.6-3.4 4.9z" />
	<path id="Layer" fill-rule="evenodd" class="s2" d="m28.7 20.9c-1-3.8 1.7-7.7 5.7-8.5c4.1-0.8 8 1.6 8.9 5.6c0.9 3.8-1.7 7.7-5.7 8.4c-4.1 0.9-8.1-1.6-8.9-5.5zm2.2-0.4c0.6 2.6 3.4 4.4 6.1 3.8c2.9-0.6 4.6-3.2 4.1-5.9c-0.7-2.7-3.4-4.4-6.2-3.9c-2.8 0.7-4.6 3.3-4 6z" />
	<path id="Layer" class="s3" d="m39.2 15.2c-0.5 0-1-0.6-0.9-1.1c0-0.2 0.8-5.9 6.5-7.1c0.5-0.1 1.1 0.3 1.2 0.8c0.1 0.5-0.2 1.1-0.7 1.1c-4.2 0.9-5 5.3-5 5.5c-0.1 0.4-0.3 0.8-0.8 0.8q-0.1 0-0.3 0z" />
	<path id="Layer" class="s4" d="m35.7 24.5q3.2 26.9-4.7 31.7l-0.9-32.5z" />
	<path id="Layer" class="s5" d="m23.6 20.8l21.1 25.5q-9.2 1.2-24.8-21.3z" />
</svg>