<svg version="1.2" xmlns="http://www.w3.org/2000/svg" viewBox="0 0 61 60" width="150" height="148">
	<title>image</title>
	<style>
		.s0 { fill: #fafafb } 
		.s1 { fill: #d1e2ee } 
		.s2 { fill: #ff765f } 
		.s3 { fill: #ffdebe } 
		.s4 { opacity: .8;fill: #ffffff } 
		.s5 { fill: #412014 } 
	</style>
	<path id="Layer" class="s0" d="m0 30c0-16.6 13.4-30 30-30h1c16.6 0 30 13.4 30 30c0 16.6-13.4 30-30 30h-1c-16.6 0-30-13.4-30-30z" />
	<path id="Layer" class="s1" d="m46.1 44.9c0.1 0.2-0.9 1.2-2.2 2c-1.4 1-2.6 1.6-2.7 1.4l-0.1-0.2c-0.1 0 0.1-0.3 0.5-0.7l-6.9-9.4l0.4-0.2l0.8-0.6l0.9-0.6l1-0.8l0.4-0.2l6.9 9.5c0.5-0.3 0.8-0.4 0.9-0.2z" />
	<path id="Layer" class="s1" d="m37 37.6c-2.4 1.6-4.6 2.8-4.7 2.5l-0.2-0.1c-0.2-0.3 1.8-1.8 4.1-3.5c2.5-1.6 4.7-2.8 4.8-2.5l0.2 0.1c0.2 0.3-1.8 1.8-4.2 3.5z" />
	<path id="Layer" class="s1" d="m27.7 19.4l11.4 15.6l-5.2 3.6l-11.4-15.6l3.1-2.1l0.2 0.3c0.6-0.4 1.2-0.8 1.4-1.2l-0.1-0.2z" />
	<path id="Layer" class="s1" d="m39.1 35c0 0.1-0.1 0.3-0.4 0.6c-0.4 0.4-0.9 0.8-1.5 1.3q-0.3 0.1-0.5 0.2c-0.8 0.6-1.6 1.1-2.2 1.3c-0.3 0.2-0.5 0.3-0.6 0.2c-0.1-0.1 0.1-0.2 0.4-0.5c0.4-0.5 1.1-1 1.9-1.6q0.3-0.2 0.5-0.3c0.7-0.4 1.3-0.7 1.7-0.9c0.3-0.2 0.6-0.3 0.7-0.3z" />
	<path id="Layer" class="s2" d="m33.2 27l-5.2 3.6l-5.5-7.6l5.2-3.6z" />
	<path id="Layer" class="s2" d="m33.2 27c0.2 0.2-0.9 1.1-2.4 2.1c-1.4 1-2.6 1.7-2.8 1.5c-0.1-0.2 1-1.1 2.4-2.1c1.4-1 2.7-1.7 2.8-1.5z" />
	<path id="Layer" class="s3" d="m33.2 27l1 1.4c0.1 0.2-0.9 1.1-2.4 2c-1.4 1-2.6 1.7-2.8 1.5l-1-1.3c0.2 0.2 1.4-0.5 2.8-1.5c1.5-1 2.6-1.9 2.4-2.1z" />
	<path id="Layer" class="s4" d="m27.2 20l11.5 15.6c-0.4 0.4-0.9 0.8-1.5 1.3l-11.4-15.7c0.6-0.4 1.2-0.8 1.4-1.2z" />
	<path id="Layer" class="s1" d="m27.7 19.4c0.1 0.2-0.9 1.2-2.4 2.1c-1.4 1-2.7 1.7-2.8 1.5c-0.1-0.1 0.2-0.5 0.9-0.9l-0.5-0.6l0.7-0.5l-0.3-0.5l0.2-0.2l-1.2-1.6l0.2-0.1l-0.5-0.8l-8-11.8l8.7 11.3l0.1-0.1l0.5 0.8l0.3-0.2l0.1 0.2l1.1 1.5l-0.2 0.2l-0.5 0.2l-0.3 0.3l1.2-0.8l0.3 0.4l0.7-0.5l0.5 0.6c0.6-0.4 1.1-0.6 1.2-0.5z" />
	<path id="Layer" class="s5" d="m33.1 26.8l0.1 0.2c0.1 0.2-0.5 0.8-1.5 1.5l-0.1-0.1c1-0.8 1.6-1.5 1.5-1.6z" />
	<path id="Layer" class="s5" d="m33.4 27.2v0.1c0.1 0.1-0.2 0.4-0.7 0.8v-0.1c0.4-0.3 0.7-0.7 0.7-0.8z" />
	<path id="Layer" class="s5" d="m33.6 27.6c0.1 0.1-0.2 0.4-0.7 0.9v-0.1c0.4-0.5 0.7-0.8 0.7-0.9z" />
	<path id="Layer" class="s5" d="m33.8 27.8l0.1 0.1c0 0.1-0.3 0.4-0.7 0.8h-0.1c0.5-0.5 0.8-0.8 0.7-0.9z" />
	<path id="Layer" class="s5" d="m34 28.1l0.1 0.1c0 0.1-0.3 0.4-0.7 0.8l-0.1-0.1c0.5-0.4 0.8-0.7 0.7-0.8z" />
	<path id="Layer" class="s5" d="m34.2 28.4l0.1 0.1c0.1 0.1-0.3 0.4-0.7 0.9l-0.1-0.1c0.5-0.5 0.8-0.8 0.7-0.9z" />
	<path id="Layer" class="s5" d="m31.7 24.9l0.2 0.3c0.1 0.1-0.6 0.7-1.5 1.5l-0.2-0.3c1-0.7 1.6-1.3 1.5-1.5z" />
	<path id="Layer" class="s5" d="m32 25.3v0.1c0.1 0.1-0.2 0.4-0.6 0.9l-0.1-0.1c0.4-0.5 0.8-0.8 0.7-0.9z" />
	<path id="Layer" class="s5" d="m32.2 25.6l0.1 0.1c0 0.1-0.3 0.5-0.7 0.8h-0.1c0.5-0.4 0.8-0.8 0.7-0.9z" />
	<path id="Layer" class="s5" d="m32.4 26h0.1c0 0.1-0.3 0.4-0.7 0.8l-0.1-0.1c0.5-0.4 0.8-0.6 0.7-0.7z" />
	<path id="Layer" class="s5" d="m32.6 26.2l0.1 0.1c0.1 0.1-0.3 0.4-0.7 0.9l-0.1-0.1c0.5-0.5 0.8-0.8 0.7-0.9z" />
	<path id="Layer" class="s5" d="m32.8 26.5l0.1 0.1c0.1 0.1-0.2 0.4-0.7 0.8l-0.1-0.1c0.5-0.3 0.8-0.7 0.7-0.8z" />
	<path id="Layer" class="s5" d="m30.3 23.1l0.2 0.1c0.1 0.2-0.5 0.8-1.5 1.5l-0.2-0.1c1-0.8 1.6-1.5 1.5-1.5z" />
	<path id="Layer" class="s5" d="m30.6 23.4l0.1 0.1c0 0.1-0.3 0.5-0.7 0.8h-0.1c0.5-0.4 0.8-0.8 0.7-0.9z" />
	<path id="Layer" class="s5" d="m30.8 23.8h0.1c0 0.1-0.3 0.4-0.7 0.9l-0.1-0.1c0.5-0.5 0.8-0.8 0.7-0.8z" />
	<path id="Layer" class="s5" d="m31 24l0.1 0.1c0.1 0.1-0.3 0.4-0.7 0.9l-0.1-0.1c0.5-0.5 0.8-0.8 0.7-0.9z" />
	<path id="Layer" class="s5" d="m31.2 24.3l0.1 0.1c0.1 0.1-0.2 0.4-0.7 0.8l-0.1-0.1c0.5-0.4 0.8-0.7 0.7-0.8z" />
	<path id="Layer" class="s5" d="m31.5 24.6v0.1c0.1 0.1-0.2 0.4-0.7 0.9v-0.1c0.4-0.5 0.7-0.8 0.7-0.9z" />
	<path id="Layer" class="s5" d="m28.9 21.1l0.2 0.3c0.1 0.1-0.5 0.7-1.5 1.5l-0.2-0.3c1-0.7 1.6-1.3 1.5-1.5z" />
	<path id="Layer" class="s5" d="m29.2 21.6h0.1c0 0.1-0.3 0.4-0.7 0.9l-0.1-0.1c0.5-0.5 0.8-0.8 0.7-0.8z" />
	<path id="Layer" class="s5" d="m29.4 21.8l0.1 0.1c0.1 0.1-0.2 0.5-0.7 0.9l-0.1-0.1c0.5-0.4 0.8-0.8 0.7-0.9z" />
	<path id="Layer" class="s5" d="m29.6 22.2h0.1c0.1 0.1-0.2 0.4-0.7 0.8v-0.1c0.4-0.4 0.7-0.6 0.6-0.7z" />
	<path id="Layer" class="s5" d="m29.9 22.4v0.1c0.1 0.1-0.2 0.4-0.7 0.9v-0.1c0.4-0.5 0.7-0.8 0.7-0.9z" />
	<path id="Layer" class="s5" d="m30.1 22.7v0.1c0.1 0.1-0.2 0.4-0.7 0.8v-0.1c0.4-0.3 0.7-0.7 0.7-0.8z" />
	<path id="Layer" class="s5" d="m27.8 19.6l0.1 0.1c0.1 0.1-0.2 0.5-0.7 0.8h-0.1c0.5-0.4 0.8-0.8 0.7-0.9z" />
	<path id="Layer" class="s5" d="m28.1 20v0.1c0.1 0-0.2 0.3-0.7 0.8v-0.1c0.4-0.5 0.7-0.7 0.6-0.8z" />
	<path id="Layer" class="s5" d="m28.3 20.2v0.1c0.1 0.1-0.2 0.4-0.7 0.9v-0.1c0.4-0.5 0.7-0.8 0.7-0.9z" />
	<path id="Layer" class="s5" d="m28.5 20.5v0.1c0.1 0.1-0.2 0.4-0.7 0.8v-0.1c0.4-0.3 0.8-0.7 0.7-0.8z" />
	<path id="Layer" class="s5" d="m28.7 20.8l0.1 0.1c0 0.1-0.3 0.4-0.7 0.9l-0.1-0.1c0.4-0.5 0.8-0.8 0.7-0.9z" />
</svg>