<svg version="1.2" xmlns="http://www.w3.org/2000/svg" viewBox="0 0 61 60" width="150" height="148">
	<title>image</title>
	<style>
		.s0 { fill: #fafafb } 
		.s1 { fill: #412014 } 
		.s2 { fill: #005644 } 
		.s3 { fill: #208674 } 
		.s4 { fill: #584441 } 
	</style>
	<path id="Layer" class="s0" d="m0 30c0-16.6 13.4-30 30-30h1c16.6 0 30 13.4 30 30c0 16.6-13.4 30-30 30h-1c-16.6 0-30-13.4-30-30z" />
	<path id="Layer" class="s1" d="m36 28.5q-1 5.7-2.7 11.1c-0.6 2.2-1.2 5.8-2.9 7.3c-1.9 1.7-5.6 1-7.8 0.7q-4.8-0.6-9.3-2.5c-0.5-0.2-0.3-1 0.1-0.9c2.6 1.1 5.2 1.9 7.8 2.3c2.4 0.4 7.8 1.6 9.3-1.1c1.4-2.3 2-5.7 2.8-8.4q1.1-4.3 1.9-8.7c0.1-0.5 0.9-0.3 0.8 0.2z" />
	<path id="Layer" class="s1" d="m47 14.6c0.1 1.9-5.7 8.9-8.3 12.1c-0.7 0.8-2.6 2.2-2.7 2.2q-0.7 0.1-1.6-1c-2.1-2.8-6.4-12-6.1-13.8c0.2-1.2 1.3-1.8 2.1-2q0 0 0 0.1q0 0.4 0.1 0.9q-0.1 0-0.2 0c-0.5 0.3-1 0.6-1.1 1.2c-0.2 1.2 3.8 10.2 5.9 13q0.5 0.6 0.9 0.7c0.1 0 1.3-1 2-2c2.7-3.3 8.1-10 8.1-11.3c-0.1-1.7-2.7-2.3-2.7-2.3v-0.4l0.1-0.6c0.2 0 3.4 0.8 3.5 3.2z" />
	<path id="Layer" class="s2" d="m45.5 12.9c-0.2 0.5-0.4 0.8-0.6 0.8l-2-0.3l0.6-2.4l1.9 1c0.1 0 0.2 0.5 0.1 0.9z" />
	<path id="Layer" class="s3" d="m42.8 12c0.1-0.6 0.5-1.1 0.7-1c0.3 0.1 0.4 0.7 0.2 1.3c-0.2 0.7-0.5 1.1-0.8 1.1c-0.2-0.1-0.3-0.7-0.1-1.4z" />
	<path id="Layer" class="s1" d="m42.5 11.9c0.1-0.3 0.7-0.6 0.8-0.5c0.1 0 0.2 0.3 0.1 0.8c0 0.3-0.2 0.6-0.4 0.6c-0.1 0-0.5-0.5-0.5-0.9z" />
	<path id="Layer" class="s4" d="m40.2 25.6c-0.7 1-1.5 1.7-2.5 2.4c-0.5 0.4-1.4 1.2-2.1 1c-0.8-0.1-1.4-1.3-1.9-1.9q-0.8-1.3-1.5-2.7c-0.6-1 0.8-1.9 1.3-0.9q0.5 1 1.1 1.9c0.3 0.4 0.8 1.5 1.3 1.6c0.9 0.3 2.7-1.9 3.2-2.6c0.7-0.8 1.8 0.5 1.1 1.2z" />
</svg>