<svg version="1.2" xmlns="http://www.w3.org/2000/svg" viewBox="0 0 61 60" width="150" height="148">
	<title>image</title>
	<defs>
		<linearGradient id="g1" x1="30.6" y1="6.5" x2="59.2" y2="15.4" gradientUnits="userSpaceOnUse">
			<stop offset="0" stop-color="#fea235"/>
			<stop offset="1" stop-color="#ffb44f"/>
		</linearGradient>
		<linearGradient id="g2" x1="29.7" y1="9.5" x2="39" y2="12.3" gradientUnits="userSpaceOnUse">
			<stop offset="0" stop-color="#237c8f"/>
			<stop offset="1" stop-color="#2abdd1"/>
		</linearGradient>
		<linearGradient id="g3" x1="30.1" y1="10.4" x2="40.5" y2="13.6" gradientUnits="userSpaceOnUse">
			<stop offset="0" stop-color="#237c8f"/>
			<stop offset="1" stop-color="#2abdd1"/>
		</linearGradient>
		<linearGradient id="g4" x1="30.4" y1="12.5" x2="39.7" y2="15.5" gradientUnits="userSpaceOnUse">
			<stop offset="0" stop-color="#237c8f"/>
			<stop offset="1" stop-color="#2abdd1"/>
		</linearGradient>
		<linearGradient id="g5" x1="30.9" y1="13.5" x2="41.2" y2="16.7" gradientUnits="userSpaceOnUse">
			<stop offset="0" stop-color="#237c8f"/>
			<stop offset="1" stop-color="#2abdd1"/>
		</linearGradient>
		<linearGradient id="g6" x1="31.1" y1="15.6" x2="40.5" y2="18.5" gradientUnits="userSpaceOnUse">
			<stop offset="0" stop-color="#237c8f"/>
			<stop offset="1" stop-color="#2abdd1"/>
		</linearGradient>
		<linearGradient id="g7" x1="31.6" y1="16.6" x2="41.8" y2="19.8" gradientUnits="userSpaceOnUse">
			<stop offset="0" stop-color="#237c8f"/>
			<stop offset="1" stop-color="#2abdd1"/>
		</linearGradient>
		<linearGradient id="g8" x1="31.8" y1="18.7" x2="41.2" y2="21.6" gradientUnits="userSpaceOnUse">
			<stop offset="0" stop-color="#237c8f"/>
			<stop offset="1" stop-color="#2abdd1"/>
		</linearGradient>
		<linearGradient id="g9" x1="32.3" y1="19.8" x2="42.6" y2="22.9" gradientUnits="userSpaceOnUse">
			<stop offset="0" stop-color="#237c8f"/>
			<stop offset="1" stop-color="#2abdd1"/>
		</linearGradient>
		<linearGradient id="g10" x1="32.6" y1="21.9" x2="41.8" y2="24.7" gradientUnits="userSpaceOnUse">
			<stop offset="0" stop-color="#237c8f"/>
			<stop offset="1" stop-color="#2abdd1"/>
		</linearGradient>
		<linearGradient id="g11" x1="33" y1="22.9" x2="43.3" y2="26" gradientUnits="userSpaceOnUse">
			<stop offset="0" stop-color="#237c8f"/>
			<stop offset="1" stop-color="#2abdd1"/>
		</linearGradient>
		<linearGradient id="g12" x1="33.3" y1="25" x2="42.6" y2="27.9" gradientUnits="userSpaceOnUse">
			<stop offset="0" stop-color="#237c8f"/>
			<stop offset="1" stop-color="#2abdd1"/>
		</linearGradient>
		<linearGradient id="g13" x1="33.7" y1="25.9" x2="44" y2="29.1" gradientUnits="userSpaceOnUse">
			<stop offset="0" stop-color="#237c8f"/>
			<stop offset="1" stop-color="#2abdd1"/>
		</linearGradient>
		<linearGradient id="g14" x1="34" y1="28" x2="43.3" y2="31" gradientUnits="userSpaceOnUse">
			<stop offset="0" stop-color="#237c8f"/>
			<stop offset="1" stop-color="#2abdd1"/>
		</linearGradient>
		<linearGradient id="g15" x1="34.4" y1="29" x2="44.7" y2="32.3" gradientUnits="userSpaceOnUse">
			<stop offset="0" stop-color="#237c8f"/>
			<stop offset="1" stop-color="#2abdd1"/>
		</linearGradient>
		<linearGradient id="g16" x1="18.2" y1="14.5" x2="34" y2="19.4" gradientUnits="userSpaceOnUse">
			<stop offset="0" stop-color="#caf0db"/>
			<stop offset="1" stop-color="#f8f7db"/>
		</linearGradient>
		<linearGradient id="g17" x1="17.7" y1="17" x2="22.9" y2="18.5" gradientUnits="userSpaceOnUse">
			<stop offset="0" stop-color="#237c8f"/>
			<stop offset="1" stop-color="#2abdd1"/>
		</linearGradient>
		<linearGradient id="g18" x1="17.7" y1="18.3" x2="23.4" y2="20.1" gradientUnits="userSpaceOnUse">
			<stop offset="0" stop-color="#237c8f"/>
			<stop offset="1" stop-color="#2abdd1"/>
		</linearGradient>
		<linearGradient id="g19" x1="17.6" y1="20.1" x2="22.7" y2="21.8" gradientUnits="userSpaceOnUse">
			<stop offset="0" stop-color="#237c8f"/>
			<stop offset="1" stop-color="#2abdd1"/>
		</linearGradient>
		<linearGradient id="g20" x1="17.5" y1="21.5" x2="23.3" y2="23.2" gradientUnits="userSpaceOnUse">
			<stop offset="0" stop-color="#237c8f"/>
			<stop offset="1" stop-color="#2abdd1"/>
		</linearGradient>
		<linearGradient id="g21" x1="17.5" y1="23.3" x2="22.6" y2="24.9" gradientUnits="userSpaceOnUse">
			<stop offset="0" stop-color="#237c8f"/>
			<stop offset="1" stop-color="#2abdd1"/>
		</linearGradient>
		<linearGradient id="g22" x1="17.5" y1="24.7" x2="23.2" y2="26.5" gradientUnits="userSpaceOnUse">
			<stop offset="0" stop-color="#237c8f"/>
			<stop offset="1" stop-color="#2abdd1"/>
		</linearGradient>
		<linearGradient id="g23" x1="17.4" y1="26.5" x2="22.6" y2="28.1" gradientUnits="userSpaceOnUse">
			<stop offset="0" stop-color="#237c8f"/>
			<stop offset="1" stop-color="#2abdd1"/>
		</linearGradient>
		<linearGradient id="g24" x1="17.4" y1="27.8" x2="23" y2="29.6" gradientUnits="userSpaceOnUse">
			<stop offset="0" stop-color="#237c8f"/>
			<stop offset="1" stop-color="#2abdd1"/>
		</linearGradient>
		<linearGradient id="g25" x1="17.3" y1="29.7" x2="22.5" y2="31.2" gradientUnits="userSpaceOnUse">
			<stop offset="0" stop-color="#237c8f"/>
			<stop offset="1" stop-color="#2abdd1"/>
		</linearGradient>
		<linearGradient id="g26" x1="17.3" y1="31" x2="23" y2="32.8" gradientUnits="userSpaceOnUse">
			<stop offset="0" stop-color="#237c8f"/>
			<stop offset="1" stop-color="#2abdd1"/>
		</linearGradient>
		<linearGradient id="g27" x1="17.2" y1="32.9" x2="22.3" y2="34.4" gradientUnits="userSpaceOnUse">
			<stop offset="0" stop-color="#237c8f"/>
			<stop offset="1" stop-color="#2abdd1"/>
		</linearGradient>
		<linearGradient id="g28" x1="17.2" y1="34.2" x2="22.9" y2="35.9" gradientUnits="userSpaceOnUse">
			<stop offset="0" stop-color="#237c8f"/>
			<stop offset="1" stop-color="#2abdd1"/>
		</linearGradient>
		<linearGradient id="g29" x1="17.1" y1="36" x2="22.2" y2="37.7" gradientUnits="userSpaceOnUse">
			<stop offset="0" stop-color="#237c8f"/>
			<stop offset="1" stop-color="#2abdd1"/>
		</linearGradient>
		<linearGradient id="g30" x1="17.1" y1="37.4" x2="22.8" y2="39.1" gradientUnits="userSpaceOnUse">
			<stop offset="0" stop-color="#237c8f"/>
			<stop offset="1" stop-color="#2abdd1"/>
		</linearGradient>
	</defs>
	<style>
		.s0 { fill: #fafafb } 
		.s1 { fill: url(#g1) } 
		.s2 { fill: url(#g2) } 
		.s3 { fill: url(#g3) } 
		.s4 { fill: url(#g4) } 
		.s5 { fill: url(#g5) } 
		.s6 { fill: url(#g6) } 
		.s7 { fill: url(#g7) } 
		.s8 { fill: url(#g8) } 
		.s9 { fill: url(#g9) } 
		.s10 { fill: url(#g10) } 
		.s11 { fill: url(#g11) } 
		.s12 { fill: url(#g12) } 
		.s13 { fill: url(#g13) } 
		.s14 { fill: url(#g14) } 
		.s15 { fill: url(#g15) } 
		.s16 { fill: url(#g16) } 
		.s17 { fill: url(#g17) } 
		.s18 { fill: url(#g18) } 
		.s19 { fill: url(#g19) } 
		.s20 { fill: url(#g20) } 
		.s21 { fill: url(#g21) } 
		.s22 { fill: url(#g22) } 
		.s23 { fill: url(#g23) } 
		.s24 { fill: url(#g24) } 
		.s25 { fill: url(#g25) } 
		.s26 { fill: url(#g26) } 
		.s27 { fill: url(#g27) } 
		.s28 { fill: url(#g28) } 
		.s29 { fill: url(#g29) } 
		.s30 { fill: url(#g30) } 
	</style>
	<path id="Layer" class="s0" d="m0 30c0-16.6 13.4-30 30-30h1c16.6 0 30 13.4 30 30c0 16.6-13.4 30-30 30h-1c-16.6 0-30-13.4-30-30z" />
	<path id="Layer" class="s1" d="m35.7 48.1l-7.7-33.4c-0.2-1.3 0.6-2.5 2-2.8l9.3-1.8c1.4-0.3 2.7 0.5 2.9 1.8l7.8 33.5c0.2 1.2-0.7 2.4-2 2.7l-9.3 1.8c-1.4 0.3-2.6-0.5-3-1.8z" />
	<path id="Layer" class="s2" d="m38.7 13.4l-10.4 2l-0.3-0.7l10.6-2.2z" />
	<path id="Layer" class="s3" d="m40.1 14.8l-11.5 2.3l-0.2-1l11.5-2.3z" />
	<path id="Layer" class="s4" d="m39.4 16.5l-10.5 2.1l-0.1-0.9l10.4-2z" />
	<path id="Layer" class="s5" d="m40.8 17.9l-11.5 2.2l-0.2-0.9l11.5-2.3z" />
	<path id="Layer" class="s6" d="m40.1 19.5l-10.4 2.1l-0.2-0.7l10.4-2.1z" />
	<path id="Layer" class="s7" d="m41.5 21l-11.4 2.3l-0.3-1l11.5-2.3z" />
	<path id="Layer" class="s8" d="m40.8 22.7l-10.4 2l-0.2-0.7l10.5-2.1z" />
	<path id="Layer" class="s9" d="m42.2 24.1l-11.4 2.3l-0.2-1l11.4-2.2z" />
	<path id="Layer" class="s10" d="m41.6 25.8l-10.5 2.1l-0.1-0.8l10.4-2.1z" />
	<path id="Layer" class="s11" d="m42.9 27.2l-11.5 2.3l-0.1-1l11.4-2.3z" />
	<path id="Layer" class="s12" d="m42.3 28.9l-10.5 2.1l-0.2-0.8l10.5-2.1z" />
	<path id="Layer" class="s13" d="m43.7 30.3l-11.5 2.3l-0.2-1l11.4-2.3z" />
	<path id="Layer" class="s14" d="m43 32l-10.4 2.1l-0.3-0.8l10.5-2.1z" />
	<path id="Layer" class="s15" d="m44.4 33.4l-11.5 2.3l-0.2-1l11.4-2.3z" />
	<path id="Layer" class="s16" d="m16 53.9l1.1-35.6c0-1 0.8-1.7 1.8-1.7l3.8 0.2c1 0 1.8 0.7 1.7 1.6l-1 35.6c-0.1 0.9-0.9 1.7-1.9 1.6l-3.8-0.1c-1 0-1.7-0.7-1.7-1.6z" />
	<path id="Layer" class="s17" d="m22.5 19.8l-5.4-0.1v-0.8l5.4 0.1z" />
	<path id="Layer" class="s18" d="m23 21.5l-6-0.2l0.1-0.9l5.9 0.1z" />
	<path id="Layer" class="s19" d="m22.4 23l-5.4-0.1v-0.8l5.4 0.2z" />
	<path id="Layer" class="s20" d="m22.8 24.7l-5.9-0.2l0.1-1l5.9 0.2z" />
	<path id="Layer" class="s21" d="m22.2 26.2l-5.3-0.2v-0.7l5.4 0.1z" />
	<path id="Layer" class="s22" d="m22.7 27.8l-5.9-0.1v-1l6 0.1z" />
	<path id="Layer" class="s23" d="m22.1 29.4l-5.4-0.2l0.1-0.8l5.4 0.2z" />
	<path id="Layer" class="s24" d="m22.6 31.1l-5.9-0.2v-1l5.9 0.1z" />
	<path id="Layer" class="s25" d="m22.1 32.6l-5.5-0.2v-0.8l5.5 0.1z" />
	<path id="Layer" class="s26" d="m22.5 34.2l-5.9-0.1v-1l5.9 0.1z" />
	<path id="Layer" class="s27" d="m22 35.7l-5.4-0.1v-0.9l5.4 0.2z" />
	<path id="Layer" class="s28" d="m22.5 37.4l-6-0.2l0.1-1l5.9 0.2z" />
	<path id="Layer" class="s29" d="m21.9 38.9l-5.4-0.2v-0.7l5.4 0.1z" />
	<path id="Layer" class="s30" d="m22.3 40.5l-5.9-0.1v-1l6 0.2z" />
</svg>