<svg version="1.2" xmlns="http://www.w3.org/2000/svg" viewBox="0 0 61 60" width="150" height="148">
	<title>image</title>
	<defs>
		<linearGradient id="g1" x1="33.2" y1="6.3" x2="47.5" y2="12.3" gradientUnits="userSpaceOnUse">
			<stop offset="0" stop-color="#ebeae5"/>
			<stop offset="1" stop-color="#abafb8"/>
		</linearGradient>
	</defs>
	<style>
		.s0 { fill: #fafafb } 
		.s1 { fill: #1e1916 } 
		.s2 { fill: url(#g1) } 
	</style>
	<path id="Layer" class="s0" d="m0 30c0-16.6 13.4-30 30-30h1c16.6 0 30 13.4 30 30c0 16.6-13.4 30-30 30h-1c-16.6 0-30-13.4-30-30z" />
	<path id="Layer" class="s1" d="m30.2 53l-13.2-7.8l13.3-31.6l13.2 7.8z" />
	<path id="Layer" class="s2" d="m44.3 20.1l-2.1 4.9c-0.2 0.5-0.7 0.7-1.2 0.4l-11.9-6.9c-0.5-0.3-0.7-1-0.4-1.5l2.2-5.3l2-4.6c0.1-0.1 0.2-0.1 0.2-0.1c0.1 0.1 0.1 0.2 0.1 0.2l-0.7 2.1c0 0.1 0 0.2 0.1 0.3l0.2 0.1c0.1 0.1 0.2 0 0.2 0l1-2c0.1 0 0.1-0.1 0.2 0c0.1 0 0.2 0.1 0.1 0.2l-0.7 2.1c-0.1 0 0 0.2 0 0.2l0.3 0.2c0.1 0 0.2 0 0.2-0.1l1-1.9c0.1-0.1 0.2-0.1 0.2-0.1c0.1 0.1 0.1 0.1 0.1 0.3l-0.7 2c0 0.1 0 0.2 0.1 0.3l0.3 0.1c0 0.1 0.1 0 0.2-0.1l0.9-1.9c0.1-0.1 0.2-0.1 0.2-0.1c0.1 0.1 0.1 0.2 0.1 0.3l-0.7 2c0 0.2 0 0.3 0.1 0.3l0.2 0.2c0.1 0 0.2 0 0.2-0.1l1-2c0.1 0 0.1 0 0.2 0c0.1 0 0.1 0.1 0.1 0.2l-0.7 2.1c-0.1 0.1 0 0.2 0 0.2l0.3 0.2c0.1 0.1 0.2 0 0.2 0l1-2c0-0.1 0.1-0.1 0.2-0.1c0.1 0.1 0.1 0.1 0.1 0.3l-0.7 2c-0.1 0.1 0 0.2 0 0.3l0.3 0.2c0.1 0 0.2 0 0.2-0.2l1-1.9c0-0.1 0.1-0.1 0.2 0c0.1 0 0.1 0.1 0.1 0.2l-0.7 2.1c-0.1 0.1-0.1 0.2 0 0.2l0.3 0.2c0.1 0 0.2 0 0.2-0.1l1-1.9c0-0.1 0.1-0.1 0.2-0.1c0 0 0.1 0.2 0 0.2l-0.7 2.1c0 0.1 0 0.2 0.1 0.2l0.3 0.2c0.1 0.1 0.1 0 0.2 0l1-2c0-0.1 0.1-0.1 0.2-0.1c0 0.1 0.1 0.2 0 0.3l-0.7 2.1c0 0.1 0 0.1 0.1 0.2l0.3 0.2c0 0 0.1 0 0.2-0.1l0.9-2c0.1 0 0.2-0.1 0.2 0c0.2 0 0.2 0.1 0.2 0.2l-0.8 2.1c0 0.1 0 0.2 0.1 0.3l0.3 0.1c0 0 0.1 0 0.2-0.1l1-1.9c0-0.1 0.1-0.1 0.2-0.1c0 0 0.1 0.2 0 0.3l-0.7 2c0 0.1 0 0.2 0.1 0.2l0.3 0.2c0.1 0.1 0.1 0 0.2 0l1-1.9c0-0.2 0.1-0.2 0.2-0.2c0 0.1 0.1 0.2 0 0.3l-0.7 2.1c0 0.1 0 0.1 0.1 0.2l0.3 0.2c0 0 0.1 0 0.2-0.1l0.9-1.9c0.1-0.1 0.2-0.2 0.2-0.1c0.1 0.1 0.2 0.1 0.1 0.2z" />
</svg>