<svg version="1.2" xmlns="http://www.w3.org/2000/svg" viewBox="0 0 619 354" width="619" height="354">
	<title>image</title>
	<style>
		.s0 { fill: #e2e9fb } 
		.s1 { fill: #e0e0e0 } 
		.s2 { fill: #bab5ff } 
		.s3 { fill: #ffa44a } 
		.s4 { fill: #635dad } 
		.s5 { fill: #ff765f } 
		.s6 { fill: #ffffff } 
	</style>
	<path id="Layer" class="s0" d="m17.5 353.5q-25.8-33.9-13.5-74.6c12.3-40.8 43.9-71.9 33.7-119c-12.1-56 16.2-103.1 66.4-97.1c84 10.2 144.4-53.3 175.1-59.6c91.1-18.8 107.7 50 156.9 56.7c106.1 14.4 138.8 60.7 135 149.5c-1.2 29.2 80 87.7 33.4 144.1z" />
	<path id="Layer" class="s1" d="m429.5 265.7h-240.9l43.7-78h61.1h15.6h15.7h61.1z" />
	<path id="Layer" class="s2" d="m188.6 265.7l209.4-56.2l31.5 56.2z" />
	<path id="Layer" class="s3" d="m188.6 271.3c-2.5 0-4.7-1.6-5.4-4.1c-0.8-3 1-6.1 4-6.9l209.3-56.3c3-0.8 6.1 1 6.9 4c0.8 3-1 6.1-3.9 6.9l-209.4 56.2q-0.8 0.2-1.5 0.2z" />
	<path id="Layer" class="s3" d="m359.7 254.6c-1.6 0-3.2-0.6-4.3-2l-20-23.9c-2-2.3-1.7-5.9 0.7-7.9c2.3-1.9 5.9-1.6 7.8 0.7l20.1 23.9c2 2.4 1.7 5.9-0.7 7.9c-1 0.9-2.3 1.3-3.6 1.3z" />
	<path id="Layer" class="s3" d="m280.1 246.8c-1.6 0-3.2-0.7-4.3-2l-27.5-32.8c-2-2.4-1.7-5.9 0.7-7.9c2.3-2 5.9-1.7 7.9 0.7l27.5 32.7c2 2.4 1.6 5.9-0.7 7.9c-1.1 0.9-2.4 1.4-3.6 1.4z" />
	<path id="Layer" fill-rule="evenodd" class="s4" d="m429.5 271.3h-240.9c-2 0-3.8-1-4.8-2.7c-1-1.7-1.1-3.9-0.1-5.6l43.7-78.1c1-1.7 2.8-2.8 4.9-2.8h153.5c2.1 0 3.9 1.1 4.9 2.8l43.7 78.1c0.9 1.7 0.9 3.9-0.1 5.6c-1 1.7-2.8 2.7-4.8 2.7zm-231.3-11.2h221.7l-37.4-66.8h-147z" />
	<path id="Layer" class="s5" d="m352.9 126.8c0 6.7-1.5 13.1-4.4 19.1q0 0 0 0.1c-4.8 9.7-20 35.3-34.7 60.2c-2.2 3.6-7.4 3.6-9.5 0c-14.7-24.8-29.9-50.5-34.7-60.2c-2.7-5.6-4.2-11.6-4.4-17.9c-0.6-21.8 15.3-41.2 36.9-44.6c27.2-4.2 50.8 16.9 50.8 43.3z" />
	<path id="Layer" class="s6" d="m292.3 126.1c0-9.3 7.5-16.8 16.8-16.8c9.3 0 16.8 7.5 16.8 16.8c0 9.2-7.5 16.8-16.8 16.8c-9.3 0-16.8-7.6-16.8-16.8z" />
</svg>