<svg version="1.2" xmlns="http://www.w3.org/2000/svg" viewBox="0 0 56 53" width="56" height="53"><style>.s0{mix-blend-mode: multiply;fill:#fef0dd}.s1{mix-blend-mode: multiply;fill:#fefbf6}.s2{mix-blend-mode: multiply;fill:#ff765f}.s3{mix-blend-mode: multiply;fill:#c17b4c}.s4{mix-blend-mode: multiply;fill:#9f4424}</style><path class="s0" d="m17 30.8c-1.4 0.7-2.6 1.6-3.7 2.8c0.4 0 0.8 0.1 1.2 0.2c0.2 0.2 0.3 0.5 0 0.7c-1.8 1.2-3 2.7-3.7 4.7q0.5-0.3 1.1-0.6c0.2-0.1 0.4 0.1 0.5 0.2c0.6 1.4 1.7 2.5 3 3.3c-0.1-0.3 0.2-0.6 0.5-0.5c1.8 0.8 3.5 1.5 5.2 2.4c1 0.5 1.9 1 2.3 2.1q0.1 0.2 0 0.3q0 0.1-0.1 0.3c-2.4 2.3-8.4 9-12.1 5.2c-0.1-0.1-0.2-0.3 0-0.5q0.2-0.2 0.3-0.4q-4.1-0.3-7.6-2.8c-0.2-0.2-0.1-0.5 0.2-0.6l0.5-0.1c-2-1.3-3.4-3-4.1-5.3c-0.1-0.1 0-0.3 0.1-0.4c-0.5-0.9-0.7-2.1-0.6-3.2c0.2-1.5 0.9-3.6 2-4.8c0.4-0.4 1.1-0.7 1.6-1.2q0.8-0.9 1.9-1.7c1.6-1.1 3.4-1.9 5.4-2.3c0.3 0 0.6 0.1 0.6 0.4q0 0.1-0.1 0.2c0.5-0.2 1-0.1 1.6 0c0.2 0 0.3 0.2 0.3 0.5q-0.1 0.1-0.1 0.1c1.2-0.1 2.4 0.1 3.6 0.3c0.3 0.1 0.5 0.5 0.2 0.7z" /><path class="s1" d="m53.2 37.1c0.1 0.4-0.5 0.6-0.8 0.1q-0.6 0.3-0.4 0.8q0.1 0.5 0.1 0.9q0 0.6 0 1.3c-0.1 0.9-0.3 1.7-0.4 2.6c-0.1 0.3-0.6 0.4-0.8 0.1q-0.2-0.2-0.3-0.4q-0.2 3.5-1.5 6.7c-0.1 0.4-0.5 0.4-0.7 0q-0.2-0.5-0.5-1q-1 2.4-3.5 3.9q-0.1 0.1-0.2 0q0 0-0.1 0h-23.5q0 0 0 0c-0.2 0.1-0.3 0-0.5-0.1q-1.1-2.2-1.8-4.5q-0.1 0.2-0.2 0.3c-0.1 0.3-0.5 0.3-0.7 0q-1.3-2.3-1.8-4.9q0 0.1-0.1 0.2c-0.2 0.4-0.6 0.4-0.8 0c-0.6-1.8-0.8-3.7-0.6-5.6q0 0.1 0 0.1c-0.2 0.3-0.7 0.1-0.7-0.2q0.2-2.9 1.8-5.3c-0.1-0.2 0-0.3 0.1-0.4c1.6-1 3.3-2.3 5.1-2.8c1.7-0.4 3.5-0.2 5.2-0.2c4 0 8.1-0.1 12.2 0.1c3.9 0.2 8 0.6 11.7 1.6c2.7 0.8 3.3 4.4 3.7 6.7z" /><path class="s0" d="m29.7 42q-0.2 2.3-1.7 10.1h-5.5q0-1.6 1.9-2.4q-0.2-1.4-2.5-11c2-1.9 7.8 1 7.8 3.3z" /><path class="s1" d="m29.4 5c-1.4 2.7-3.6 5-6.5 6.3c-1.3 0.6-4.4 1.7-5.2 0c-0.2 0-0.3-0.2-0.3-0.4c0.5-2.2 0.9-4.5 1.6-6.8c0.2-1 0.8-3.5 1.9-4c0.9-0.4 2.8 0.6 3.6 1.1c1.9 0.7 3.5 1.9 4.9 3.4c0.1 0.1 0.1 0.2 0 0.4z" /><path class="s0" d="m28.3 8.5c-0.9 0.9-2.4 1.5-3.5 1.9q-2.2 1.1-4.5 2q0 0 0 0c-0.2 0.5-0.9 0.2-0.8-0.2c0.6-2.7-0.5-6.9 1.7-9.1c1.4-1.4 3.7 0.5 5 1.2c1.7 0.8 3.7 2.2 2.1 4.2z" /><path class="s1" d="m37.2 4.6q2-2.3 4.9-3.4c0.9-0.5 2.6-1.5 3.5-1.1c1.2 0.5 1.8 3 2.1 4c0.6 2.3 1 4.6 1.5 6.8c0.1 0.2-0.1 0.4-0.3 0.4c-0.7 1.7-3.9 0.6-5.2 0c-2.9-1.3-5-3.6-6.6-6.3c0-0.2 0-0.3 0.1-0.4z" /><path class="s0" d="m40.4 4.3c1.3-0.7 3.7-2.6 4.9-1.2c2.4 2.2 1.2 6.4 1.8 9.1c0.1 0.4-0.6 0.7-0.7 0.2q0 0-0.1 0q-2.3-0.9-4.5-2c-1.2-0.4-2.6-1-3.5-1.9c-1.6-2 0.5-3.4 2.1-4.2z" /><path class="s0" d="m44.6 38.7q-2.4 9.6-2.5 11q1.9 0.8 1.9 2.4h-5.5q-1.5-7.8-1.7-10.1c0-2.3 5.8-5.2 7.8-3.3z" /><path class="s0" d="m55.2 24.2c0 0.4-0.4 0.4-0.6 0.4q-0.6-0.3-1.2-0.5c0.7 2.1 1.5 4.4 0.9 6.4c-0.1 0.4-0.4 0.4-0.7 0.2q-0.3-0.3-0.7-0.7q-0.5 3.6-2.9 6.5c-0.1 0.2-0.6 0.1-0.6-0.2q-0.1-0.6-0.2-1.3q-1.2 1.8-2.8 3.2q-1.6 1.3-3.5 2.2c-0.3 0.1-0.6 0-0.6-0.3q0-0.7 0.1-1.3c-1.8 1.6-3.7 2.8-5.8 3.8c-0.5 0.3-1.6 0.7-2.1 0.5c-1 1-2.6 1-4.1 0.4c-2.2-0.9-4.7-2.6-6.5-4.3q0 0.5-0.2 1c-0.1 0.2-0.4 0.2-0.6 0.2q-1.7-0.8-3.1-1.9c-0.9-0.9-1.8-2-2.5-3.2q-0.2 0.5-0.5 0.8c-0.1 0.2-0.5 0.3-0.6 0q-1.5-2.9-3-5.9c-0.4 0.4-0.7 0.7-1 1.2c-0.3 0.3-0.8 0.2-0.8-0.1c0-2.3 0.2-4.5 0.8-6.7q-0.9 0.6-1.8 1.2c-0.3 0.2-0.6-0.1-0.6-0.4q1.2-3.1 2.9-6.1q-0.5 0.2-0.9 0.2c-0.3 0.1-0.6-0.2-0.5-0.5q1.5-2.3 3.5-4.3q-0.6 0.1-1.1 0.2c-0.3 0.2-0.6-0.2-0.5-0.5c2.6-3.8 6.6-6.3 10.6-8.5c-0.6-0.2-1.2-0.3-1.9-0.2c-0.5 0-0.5-0.6-0.1-0.7c3.3-1.2 6.9-1.4 10.4-0.6c4.1-0.8 8.2-0.5 12.2 0.9c0.4 0.1 0.4 0.5 0 0.7l-0.7 0.6c3.2 1.9 5.9 4.4 7.9 7.5c0.3 0.2-0.1 0.5-0.4 0.5q0 0-0.1 0c1.2 1.1 2.1 2.4 2.7 3.9c0.1 0.2-0.1 0.4-0.3 0.4h-0.5q1.8 2.3 2 5.3z" /><path class="s0" d="m48.6 28.5q-0.2-0.3-0.5-0.4c0.5 1.6 0.7 3.1 0.6 4.8c0 0.4-0.4 0.4-0.7 0.2q0-0.1-0.1-0.2c-0.2 1.9-0.7 3.6-1.5 5.3q-1.6 1.3-3.5 2.2c-0.3 0.1-0.6 0-0.6-0.3q0-0.7 0.1-1.3c-1.8 1.6-3.7 2.8-5.8 3.8c-0.5 0.3-1.6 0.7-2.1 0.5c-1 1-2.6 1-4.1 0.4c-2.2-0.9-4.7-2.6-6.5-4.3q0 0.5-0.2 1c-0.1 0.2-0.4 0.2-0.6 0.2q-1.7-0.8-3.1-1.9c-0.3-1-0.4-2-0.5-3q-0.1 0.1-0.1 0.3c-0.2 0.2-0.6 0.1-0.7-0.2c-0.7-2-0.9-4.1-0.7-6.2q-0.5 0.3-0.9 0.5c-0.3 0.2-0.6-0.1-0.6-0.4q0.6-2.7 2.6-4.8l-0.2 0.1c-0.3 0-0.7-0.3-0.5-0.6c0.9-1.3 2-2.4 3.6-3.1c0.6-0.3 1.3-0.4 1.9-0.7c1.1-0.3 1.2-0.8 1.7-1.6c1.8-2.5 5.1-2.1 7.4-0.6c2.5-2.1 7.9-1.8 8.2 2c1.5 0.1 2.7 0.7 3.8 1.6c0.3 0.2 0.2 0.4 0 0.6q2.7 2.3 4.2 5.6c0.1 0.3-0.3 0.6-0.6 0.5z" /><path class="s2" d="m34.1 26.2c0 0.5-0.2 1-0.5 1.3c-0.5 0.4-1 0.2-1.2-0.2c-0.3-0.5-0.3-1.2-0.3-1.7c0-0.3 0.2-0.4 0.4-0.4c0.2-0.2 0.4-0.2 0.5-0.1c0.3 0.1 0.7 0.2 0.9 0.4c0.2 0.2 0.2 0.5 0.2 0.7z" /><path class="s3" d="m35.7 25c-0.2 0.8-1 1.3-1.8 1c-0.5 0-0.7-0.2-0.9-0.5q-0.1 0.2-0.5 0.3c-0.7 0.3-1.5 0.1-1.9-0.6c-0.2-0.4 0.5-0.8 0.7-0.4c0.2 0.4 0.6 0.5 1.1 0.3c0.3-0.2 0.3-0.8 0.3-1.2q0-0.1 0.1-0.2q0 0 0-0.1c0.2-0.1 0.6-0.1 0.7 0.2q0 0.3 0.1 0.8c0 0.2 0 0.5 0.2 0.6c0.3 0.5 1 0 1.2-0.4c0.2-0.5 0.9-0.2 0.7 0.2z" /><path class="s4" d="m33.3 23.9c-0.1 0.2-0.2 0.2-0.4 0.2c-0.9-0.3-2.1-0.8-2-1.9c0-1 1.1-1.2 2-1.2c0.8 0 2 0.2 2.1 1.2c0.1 1-0.9 1.4-1.7 1.7z" /><path class="s4" d="m28.9 20.5c-0.5 0-0.9-0.3-0.9-0.8c0-0.4 0.4-0.7 0.9-0.7c0.4 0 0.8 0.3 0.8 0.7c0 0.5-0.4 0.8-0.8 0.8z" /><path class="s4" d="m37.4 20.5c-0.5 0-0.9-0.3-0.9-0.8c0-0.4 0.4-0.7 0.9-0.7c0.4 0 0.8 0.3 0.8 0.7c0 0.5-0.4 0.8-0.8 0.8z" /></svg>