<svg version="1.2" xmlns="http://www.w3.org/2000/svg" viewBox="0 0 36 36" width="36" height="36">
	<title>image</title>
	<style>
		.s0 { fill: #f7f7f8 } 
		.s1 { opacity: .4;fill: #000000 } 
	</style>
	<path id="Layer" class="s0" d="m18 36c-10 0-18-8-18-18c0-10 8-18 18-18c10 0 18 8 18 18c0 10-8 18-18 18z" />
	<path id="Layer" class="s1" d="m25 21.7v2q0 0.3-0.1 0.5q-0.1 0.3-0.3 0.5q-0.2 0.1-0.5 0.2q-0.3 0.1-0.5 0.1c-2-0.2-4-0.9-5.7-2c-1.5-1-2.9-2.3-3.9-3.9c-1.1-1.7-1.8-3.7-2-5.7q0-0.3 0.1-0.5q0.1-0.3 0.2-0.5q0.2-0.2 0.5-0.3q0.2-0.1 0.5-0.1h2q0.5 0 0.8 0.3q0.4 0.3 0.5 0.8q0.1 1 0.4 1.9q0.2 0.3 0.1 0.7q-0.1 0.4-0.4 0.6l-0.8 0.9c0.9 1.6 2.3 2.9 3.9 3.9l0.9-0.9q0.2-0.2 0.6-0.3q0.4-0.1 0.7 0.1q0.9 0.3 1.9 0.4q0.5 0.1 0.8 0.5q0.3 0.3 0.3 0.8z" />
</svg>