<svg version="1.2" xmlns="http://www.w3.org/2000/svg" viewBox="0 0 195 128" width="195" height="128"><style>.s0{fill:#ffdebe}.s1{fill:#ffc17d}.s2{fill:#ffffff}.s3{fill:#584441}</style><path class="s0" d="m60 127.5h-60v-126.6h60z" /><path class="s0" d="m185.4 127.5h-173.7v-126.6h173.7z" /><path class="s1" d="m169.9 127.5h-111.5v-110.8h111.5z" /><path class="s2" d="m169.9 38.3h-111.5v-4.8h111.5z" /><path class="s2" d="m169.9 54.4h-111.5v-4.7h111.5z" /><path class="s2" d="m169.9 70.6h-111.5v-4.8h111.5z" /><path class="s2" d="m169.9 86.7h-111.5v-4.7h111.5z" /><path class="s2" d="m169.9 102.9h-111.5v-4.8h111.5z" /><path class="s2" d="m169.9 119.1h-111.5v-4.8h111.5z" /><path class="s3" d="m60 127.5h-12.9v-126.6h12.9z" /><path class="s3" d="m194.9 127.5h-13.4v-126.6h13.4z" /><path class="s3" d="m194.9 22.1h-144.4v-21.2h144.4z" /></svg>